M48
;Layer_Color=9474304
;FILE_FORMAT=4:2
METRIC,TZ
;TYPE=PLATED
T01F00S00C0.30
T02F00S00C0.30
T03F00S00C0.40
T04F00S00C0.50
T05F00S00C3.30
%
T01
X2286Y1143
Y1206
Y1266
X4077Y1425
Y1555
Y1685
X3988Y1750
X4315Y1815
Y1620
X4298Y2032
X3988Y2170
X4077Y2431
X4828Y2233
X5105Y2032
X5314Y1533
X5599Y1724
X5969Y1720
X6477Y2304
X6820Y2172
X6972Y2431
X6896Y1505
X7049Y1283
X7126Y1219
X4622Y989
X4495
X4210Y1156
X7293
X7214Y1346
X7401Y3048
X7480
X7557
Y3200
X7480
X7401
X7293Y3315
X7293Y5601
X7214Y6377
X7011Y6260
X7126Y6075
Y5885
X7049Y5715
X6477Y5575
X6115Y5483
X5985Y5405
X5854Y5324
X5724Y5240
X5594Y4953
X5389Y5068
X5263Y4963
X5176Y4300
X4916Y4293
X5465Y4318
X5594
X5724Y4520
X5854Y4604
X5985Y4685
X6115Y4763
X6477Y4597
Y4318
X6115Y4043
X5985Y3965
X5854Y3884
X5724Y3800
X5594Y3488
X5263
X5176
X4916
X5389Y3628
X5390Y3315
X5436Y2869
X5517Y2743
X4623Y2565
X4493Y2868
X4210Y2743
Y2525
X6477Y2869
X7049Y3488
X6480Y6260
X6115Y6203
X5985Y6125
X5854Y6044
X5724Y5960
X5594Y5766
X5465Y5855
X5175Y5740
X4916
X5263Y6403
X5594Y6375
X2286Y2743
Y2692
Y2634
X1600Y3023
X1524
X1450
X1372
Y3124
Y3200
X1450
X1524
X1600
Y3115
X1524
X1450
X5389Y6508
X5724Y6680
X5854Y6764
X5985Y6845
X6115Y6923
Y7656
X5985Y7578
X5854Y7497
X5724Y7413
X5465Y7188
X5176Y7180
X4916Y7188
X6477Y7493
X6820Y7239
X6896Y7010
X6477Y6528
T02
X65Y621
Y721
Y821
Y921
Y1021
Y1121
Y1221
Y1321
Y1421
Y1521
Y1621
Y1721
Y1821
Y1921
Y2021
Y2121
Y2221
Y2321
X201Y2115
X401
X601
X801
X901Y2315
X701
Y1915
X501
X301
X401Y1715
X601
X801
X701Y1515
X501
X301
X401Y1315
X601
X701Y1115
X501
X301
X401Y915
X601
X701Y715
X901
X1101
X1301
X1501
X1701
X1901
X2101
X2301
X2501
X2701
X2901
X3101
X3001Y515
X2801
X2601
X2701Y315
X2901
X3101
X3147Y65
X3047
X2947
X2847
X2747
X2647
X2547
X2447
X2347
X2247
X2147
X2047
X1947
X1847
X1747
X1647
X1547
X1447
X1347
X1247
X1147
X1047
X947
X847
X747
X647
X901Y315
X1101
X1301
X1501
X1701
X1901
X2101
X2301
X2501
X2001Y515
X1801
X1601
X1401
X1201
X1001
X801
X501Y715
X301
X201Y915
Y1315
Y1715
X1201
Y1315
X1801
X2001
X2101Y1515
X2501
X2701
X2901
X3101
X3001Y1315
X3101Y2315
X2901
X2701
X2501
X2401Y2115
X2501Y1915
X2101
Y2315
X1901
X1701
X1501
X1301
X1801Y1715
X3401
X3601
X3501Y1915
X3601Y2115
X3401
X3201
X3301Y1515
X3501
X4001Y1315
X4101Y1115
X4201Y915
X4301Y715
X4501
X4701
X4901
X5101
X5301
X5501
X5701
X5901
X6101
X6301
X6501
X6701
X6901
X7101
X7001Y915
X6801
X6601
X6401
X6201
X6001
X5801
X5601
X5401
X5201
X5001
X4801
Y515
X5001
X5201
X5401
X5601
X5801
X6001
X6201
X6401
X6601
X6801
X7001
X7101Y315
X6901
X6701
X6501
X6301
X6101
X5901
X5701
X5501
X5301
X5101
X4901
X4701
X4747Y65
X4647
X4547
X4847
X4947
X5047
X5147
X5247
X5347
X5447
X5547
X5647
X5747
X5847
X5947
X6047
X6147
X6247
X6347
X6447
X6547
X6647
X6747
X6847
X6947
X7047
X6801Y1715
X6601
X6401
X6201
X6301Y1915
X6501
X6701
Y2315
X5301
X4601Y515
X4001
X4101Y715
X3901
X3701
X3501
X3301
X3401Y515
X3601
X3701Y315
X3901
X3947Y65
X3847
X3747
X3647
X3547
X3447
X3347
X3247
X3301Y315
X3501
X3201Y515
X7201
X7401
X7601
X7801
X7901Y715
X8101
X8301
X8435Y714
Y614
Y814
Y914
Y1014
Y1114
Y1214
Y1314
Y1414
Y1514
Y1614
Y1714
Y1814
Y1914
Y2014
Y2114
Y2214
Y2314
X8201Y2115
X8001
X7801
X7601
X7401
X7501Y2315
X7701
Y1915
X7901
X8101
X8301
X8201Y1715
X8001
X7801
X7601
X7401
X7501Y1915
Y1515
X7701
X7901
X8101
X8301
X8201Y1315
X8001
X7801
X7601
X7401
X7501Y1115
X7701
X7901
X8101
X8301
X8201Y915
X8001
X7801
X7601
X7401
X7201
X7301Y715
X7501
X7701
Y315
X7501
X7301
X7347Y65
X7247
X7147
X7447
X7547
X7647
X7747
X7847
X7601Y2515
X7401
X7501Y2715
X7701
X7801Y2915
X8001
X8201
X8435Y2914
Y3014
Y3114
Y3214
Y3314
X8301Y3115
X8101
X7901
X7701
X7801Y3315
X8001
X7701Y3515
Y3915
X7901
X8001Y4115
X8201
X8435Y4114
Y4214
Y4314
Y4414
Y4514
Y4614
Y4714
Y4814
Y4914
X8434Y5014
X8337Y5040
X8241Y5055
X8179Y5134
X8101Y5115
X8177Y5234
Y5334
Y5434
Y5534
Y5634
Y5734
Y5834
Y5934
Y6034
Y6134
Y6234
Y6334
Y6434
X7901Y6315
X7701
X7801Y6115
X8001
X7901Y5915
X7701
X7801Y5715
X8001
X7901Y5515
X7701
X7801Y4915
X8001
X8201
X8301Y4715
X8101
X7901
X7701
X7801Y4515
X8001
X8201
X8301Y4315
X8101
X7901
X7701
X7801Y4115
X8435Y4014
Y3914
Y2814
X7601Y2915
X7401
X6601
X6701Y2715
X6601Y2515
X6401
X6101Y2715
X6301Y3915
X6501
X6701
X6601Y3715
X6701Y4315
X6601Y4515
X6701Y4715
X6601Y4915
X6401
X6301Y5115
X6401Y5315
X6601
X6701Y5515
Y5915
X6401Y5715
X6301Y5515
Y6315
X5701
X4701
X4801Y5715
X4701Y5115
X4801Y4915
X4701Y4315
X4801Y3715
X4701Y3515
X3851
X3751
X3651
X3701Y3615
X3801
X3851Y3715
X3751
X3651
X3701Y4215
X3801
X3851Y4315
X3751
X3651
X3701Y4415
X3801
X3851Y4515
X3951
X4051
X4151
X3751
X3651
X3551
X3451
X3651Y4915
X3751
X3851
X3801Y5015
X3701
X3751Y5115
X3851
X3801Y5215
X3901
X4001
X4101
X3701
X3601
X3501
X3401
X3651Y5115
X3701Y5615
X3801
X3851Y5715
X3751
X3651
X3701Y5815
X3801
X3851Y5915
X3951
X3751
X3651
X3551
X3451
X3201Y6015
X3651Y6315
X3751
X3851
X3801Y6415
X3701
X3601Y2915
X3401
X3201
Y2515
X3401
X3601
X3501Y2715
X4101
X4201Y2915
X4401
X4001
X3101Y2715
X3001Y2515
X2401
X2751Y3515
X2851
X2801Y3615
X2901
X2851Y3715
X2751
X2701Y3815
X2801
X2901
X3001
X3101
X2601
X2501
X2201
X2101
X2001
X1901
X1801
X1701
X1601
X1501
X1551Y3915
X1651
X1751
X1851
X1951
X2051
X2151
X2251
X1951Y3715
X1851
X1751
X1801Y3615
X1901
X2001
X1951Y3515
X1851
X1751
X1301Y3815
X1201
X1101
X1151Y3915
X1251
X1201Y4015
X1301
X1101
X901Y3915
X701
X801Y4115
X601
X401
X201
X65Y4121
Y4021
Y3921
Y4221
Y4321
Y4421
Y4521
Y4621
Y4721
Y4821
Y4921
Y5021
Y5121
Y5221
Y5321
Y5421
Y5521
Y5621
Y5721
Y5821
Y5921
Y6021
Y6121
Y6221
Y6321
Y6421
X301Y6315
X501
X701
X901
X801Y6115
X601
X401
X201
X301Y5915
X501
X701
X901
X1151
X1101Y6015
X1201
X1301
X1251Y6115
X1151
X1101Y6215
X1201
X1551Y6115
X1651
X1751
X1851
X1951
X2051
X2151
X2251
X2201Y6015
X2101
X2001
X1901
X1801
X1701
X1601
X1501
X1651Y5915
X1751
X1851
X1951
X2051
X2151
X2001Y5815
X1901
X1801
X1851Y5715
X1951
X1901Y5615
X2001
X1801
X1751Y5715
Y5315
X1851
X1951
X2051
X2151
X2251
X2201Y5215
X2101
X2001
X1901
X1801
X1701
X1601
X1501
X1551Y5315
X1651
X1851Y5115
X1951
X1901Y5015
X2001
X1951Y4915
X1851
X1801Y5015
Y4615
X1901
X2001
X2101
X2201
X2251Y4515
X2151
X2051
X1951
X1851
X1751
X1651
X1551
X1501Y4615
X1601
X1701
X1801Y4415
X1901
X2001
X1951Y4315
X1851
X1801Y4215
X1901
X2001
X2701
X2801
X2901
X2851Y4315
X2751
X2701Y4415
X2801
X2901
X2951Y4515
X3051
X3151
X2851
X2751
X2651
X2551
X2451
X2751Y4915
X2851
X2801Y5015
X2901
X2851Y5115
X2751
X2701Y5215
X2801
X2901
X3001
X3101
X3151Y5315
X3051
X2951
X2851
X2751
X2651
X2551
X2501Y5215
X2601
X2701Y5015
Y5615
X2801
X2901
X2951Y5715
X2851
X2751
X2701Y5815
X2801
X2901
X2951Y5915
X3051
X3001Y6015
X3101
X2901
X2801
X2701
X2601
X2501
X2551Y5915
X2651
X2751
X2851
Y6315
X2751
X2701Y6415
X2801
X2901
X2001
X1901
X1801
X1851Y6315
X1951
X1301Y5415
X1201
X1101
X1151Y5315
X1251
X1201Y5215
X1301
X1101
X901Y5115
X701
X501
X301
X401Y5315
X601
X801
X901Y5515
X701
X501
X301
X401Y5715
X601
X801
X201
Y5315
Y4915
X401
X601
X801
X901Y4715
X701
X501
X301
X401Y4515
X601
X801
X901Y4315
X701
X501
X301
X201Y4515
X1151
X1251
X1201Y4615
X1301
X1251Y4715
X1151
X1101Y4615
X801Y3715
X901Y3515
X701
X801Y3315
X601
X701Y3115
X901
X1101
X1201Y2915
X1001
X801
X601
X401
X201
X65Y2921
Y2821
Y3021
Y3121
Y3221
Y3321
Y3421
X201Y3315
X301Y3115
X501
X701Y2715
X901
X1101
X801Y2515
X2701Y3615
X2751Y6515
X2851
X2801Y6615
X2901
X2951Y6715
X3051
X3151
X2851
X2751
X2651
X2551
X2451
X2251
X2151
X2051
X1951
X1851
X1751
X1651
X1551
X1501Y6815
X1601
X1701
X1801
X1901
X2001
X2101
X2201
X2001Y7015
X1901
X1801
X1851Y7115
X1951
X1901Y7215
X2001
X1801
X1901Y7515
X2101
Y7915
X2301
X2501
X2701
X2901
X3101
X3001Y8115
X2801
X2601
X2401
X2201
X2001
X1801
X1601
X1401
X1201
X1001
X801
X901Y8315
X880Y8435
X780
X680
X580
X701Y8315
X980Y8435
X1080
X1180
X1280
X1380
X1480
X1580
X1680
X1780
X1880
X1980
X2080
X2180
X2280
X2380
X2480
X2580
X2680
X2780
X2880
X2980
X3080
X3101Y8315
X2901
X2701
X2501
X2301
X2101
X1901
X1701
X1501
X1301
X1101
Y7915
X1301
X1501
X1701
X1901
X1701Y7515
X1501
X1301
X1101
X901
X701
X501
X301
X65Y7521
Y7421
Y7321
Y7221
Y7121
Y7021
Y6921
Y6821
Y6721
Y6621
Y6521
X201Y6515
X401
X601
X801
X901Y6715
X701
X501
X301
X401Y6915
X601
X801
X901Y7115
X701
X501
X301
X401Y7315
X601
X801
Y7715
X1001
X1201
X1401
X901Y7915
X701
X601Y7715
X401
X201
X65Y7721
Y7621
Y7821
Y7921
X201Y7315
Y6915
X1151
X1251
X1351
X1301Y6815
X1201
X1101
X1151Y6715
X1251
X1801Y6615
X1901
X2001
X1951Y6515
X1851
X2701Y6615
Y7015
X2801
X2901
X2851Y7115
X2751
X2701Y7215
X2801
X2901
X3701
X3801
X3851Y7115
X3751
X3651
X3701Y7015
X3801
Y6615
X3701
X3751Y6515
X3851
X3651
X4801
X4701Y7115
X4801Y7315
X5001
X5101Y7915
X5301
X5501
X5701
X5901
X6101
X6301
X6501
X6701
X6901
X7101
X7001Y8115
X6801
X6601
X6401
X6201
X6001
X5801
X5601
X5401
X5201
X5001
X5101Y8315
X5080Y8435
X5180
X5280
X5380
X5480
X5580
X5680
X5780
X5880
X5980
X6080
X6180
X6280
X6380
X6480
X6580
X6680
X6780
X6880
X6980
X7080
X7101Y8315
X6901
X6701
X6501
X6301
X6101
X5901
X5701
X5501
X5301
X4980Y8435
X4901Y7915
X4501
X4301
X4101
X3901
X3701
X3501
X3301
X3401Y8115
X3601
X3801
X4001
X4201
X4301Y8315
X4280Y8435
X4180
X4080
X3980
X3880
X3780
X3680
X3580
X3480
X3380
X3280
X3180
X3301Y8315
X3501
X3701
X3901
X4101
X3201Y8115
X6201Y7715
X6401
X6601
X6801
X7001
X7101Y7515
X6901
X6701
X6601Y7315
X6701Y7115
X6901
X7101
Y6715
X7001Y6515
X6701Y6715
X6501
X6301
Y7115
Y7515
X6601Y6915
X7401
X7601
X7801
X8001
X8201
X8268Y6794
X8365Y6795
X8435Y6866
Y6966
Y7066
Y7166
Y7266
Y7366
Y7466
Y7566
Y7666
Y7766
Y7866
X8201Y7715
X8001
X7801
X7601
X7401
X7201
X7301Y7915
X7501
X7701
X7601Y8115
X7401
X7201
X7301Y8315
X7280Y8435
X7180
X7380
X7480
X7580
X7680
X7780
X7880
X7701Y8315
X7501
Y7515
X7701
X7901
X8101
X8301
X8201Y7315
X8001
X7801
X7601
X7401
X7501Y7115
X7701
X7901
X8101
X8301
X8189Y6733
X8101Y6715
X8177Y6634
Y6534
X7501Y6715
X7301Y7515
T03
X4442Y8153
X4442Y8327
X4566Y8451
X4740Y8451
X4864Y8327
X4864Y8153
X4740Y8029
X4566Y8029
T04
X149Y273
X149Y447
X273Y571
X447Y571
X571Y447
X571Y273
X447Y149
X273Y149
Y2349
X447Y2349
X571Y2473
X149
X7934
X8057Y2349
X8232Y2349
X8356Y2473
X8351Y447
X8351Y273
X8227Y149
X8053Y149
X7929Y273
X7929Y447
X8053Y571
X8227Y571
X8232Y2771
X8057Y2771
X7934Y2647
X8356
X8227Y3429
X8053Y3429
X7929Y3553
X7929Y3727
X8053Y3851
X8227Y3851
X8351Y3727
X8351Y3553
X571
X571Y3727
X447Y3851
X273Y3851
X149Y3727
X149Y3553
X273Y3429
X447Y3429
Y2771
X273Y2771
X149Y2647
X571
X447Y7929
X273Y7929
X149Y8053
X149Y8227
X273Y8351
X447Y8351
X571Y8227
X571Y8053
X7929
X7929Y8227
X8053Y8351
X8227Y8351
X8351Y8227
X8351Y8053
X8227Y7929
X8053Y7929
T05
X360Y360
X4250Y210
X8140Y360
X8145Y2560
X8140Y3640
X360
Y2560
Y8140
X4653Y8240
X8140Y8140
M30
