G04*
G04 #@! TF.GenerationSoftware,Altium Limited,Altium Designer,24.1.2 (44)*
G04*
G04 Layer_Color=255*
%FSLAX44Y44*%
%MOMM*%
G71*
G04*
G04 #@! TF.SameCoordinates,5A935687-884A-4F64-8E33-7EEF87A7B93E*
G04*
G04*
G04 #@! TF.FilePolarity,Positive*
G04*
G01*
G75*
%ADD72C,5.3000*%
%ADD73C,4.5000*%
%ADD74C,0.7000*%
%ADD75C,6.0000*%
%ADD76C,0.8000*%
%ADD77R,1.0500X1.0500*%
%ADD78C,1.0500*%
%ADD81R,1.1938X0.7620*%
%ADD82R,2.4892X3.0988*%
D72*
X465300Y824000D02*
D03*
D73*
X425000Y21000D02*
D03*
D74*
X486420Y815252D02*
D03*
X456552Y802880D02*
D03*
X444180Y832748D02*
D03*
X474048Y845120D02*
D03*
X486420Y832748D02*
D03*
X474048Y802880D02*
D03*
X444180Y815252D02*
D03*
X456552Y845120D02*
D03*
D75*
X36000Y814000D02*
D03*
Y256000D02*
D03*
Y364000D02*
D03*
X814477Y256000D02*
D03*
X814000Y364000D02*
D03*
Y36000D02*
D03*
Y814000D02*
D03*
X36000Y36000D02*
D03*
D76*
X27252Y835120D02*
D03*
X14880Y805252D02*
D03*
X44748Y792880D02*
D03*
X57120Y822748D02*
D03*
X44748Y835120D02*
D03*
X14880Y822748D02*
D03*
X27252Y792880D02*
D03*
X57120Y805252D02*
D03*
X27252Y277120D02*
D03*
X14880Y247252D02*
D03*
X44748Y234880D02*
D03*
X57120Y264748D02*
D03*
X44748Y277120D02*
D03*
X14880Y264748D02*
D03*
X27252Y234880D02*
D03*
X57120Y247252D02*
D03*
X27252Y385120D02*
D03*
X14880Y355252D02*
D03*
X44748Y342880D02*
D03*
X57120Y372748D02*
D03*
X44748Y385120D02*
D03*
X14880Y372748D02*
D03*
X27252Y342880D02*
D03*
X57120Y355252D02*
D03*
X805729Y277120D02*
D03*
X793357Y247252D02*
D03*
X823225Y234880D02*
D03*
X835597Y264748D02*
D03*
X823225Y277120D02*
D03*
X793357Y264748D02*
D03*
X805729Y234880D02*
D03*
X835597Y247252D02*
D03*
X805252Y385120D02*
D03*
X792880Y355252D02*
D03*
X822748Y342880D02*
D03*
X835120Y372748D02*
D03*
X822748Y385120D02*
D03*
X792880Y372748D02*
D03*
X805252Y342880D02*
D03*
X835120Y355252D02*
D03*
X805252Y57120D02*
D03*
X792880Y27252D02*
D03*
X822748Y14880D02*
D03*
X835120Y44748D02*
D03*
X822748Y57120D02*
D03*
X792880Y44748D02*
D03*
X805252Y14880D02*
D03*
X835120Y27252D02*
D03*
X805252Y835120D02*
D03*
X792880Y805252D02*
D03*
X822748Y792880D02*
D03*
X835120Y822748D02*
D03*
X822748Y835120D02*
D03*
X792880Y822748D02*
D03*
X805252Y792880D02*
D03*
X835120Y805252D02*
D03*
X27252Y57120D02*
D03*
X14880Y27252D02*
D03*
X44748Y14880D02*
D03*
X57120Y44748D02*
D03*
X44748Y57120D02*
D03*
X14880Y44748D02*
D03*
X27252Y14880D02*
D03*
X57120Y27252D02*
D03*
D77*
X487680Y62820D02*
D03*
D78*
X500380D02*
D03*
X513080D02*
D03*
D81*
X163098Y705000D02*
D03*
X118902Y725000D02*
D03*
Y705000D02*
D03*
X163098Y725000D02*
D03*
Y653000D02*
D03*
X118902Y633000D02*
D03*
Y653000D02*
D03*
X163098Y633000D02*
D03*
X256438Y653000D02*
D03*
X212242Y633000D02*
D03*
Y653000D02*
D03*
X256438Y633000D02*
D03*
Y725000D02*
D03*
X212242Y705000D02*
D03*
Y725000D02*
D03*
X256438Y705000D02*
D03*
X349778Y653000D02*
D03*
X305582Y633000D02*
D03*
Y653000D02*
D03*
X349778Y633000D02*
D03*
Y705000D02*
D03*
X305582Y725000D02*
D03*
Y705000D02*
D03*
X349778Y725000D02*
D03*
X536458Y653000D02*
D03*
X492262Y633000D02*
D03*
Y653000D02*
D03*
X536458Y633000D02*
D03*
X443118D02*
D03*
X398922Y653000D02*
D03*
Y633000D02*
D03*
X443118Y653000D02*
D03*
Y725000D02*
D03*
X398922Y705000D02*
D03*
Y725000D02*
D03*
X443118Y705000D02*
D03*
X536458D02*
D03*
X492262Y725000D02*
D03*
Y705000D02*
D03*
X536458Y725000D02*
D03*
X629798Y705000D02*
D03*
X585602Y725000D02*
D03*
Y705000D02*
D03*
X629798Y725000D02*
D03*
Y653000D02*
D03*
X585602Y633000D02*
D03*
Y653000D02*
D03*
X629798Y633000D02*
D03*
Y581000D02*
D03*
X585602Y561000D02*
D03*
Y581000D02*
D03*
X629798Y561000D02*
D03*
X536458D02*
D03*
X492262Y581000D02*
D03*
Y561000D02*
D03*
X536458Y581000D02*
D03*
X443118D02*
D03*
X398922Y561000D02*
D03*
Y581000D02*
D03*
X443118Y561000D02*
D03*
X349778Y581000D02*
D03*
X305582Y561000D02*
D03*
Y581000D02*
D03*
X349778Y561000D02*
D03*
X256438Y581000D02*
D03*
X212242Y561000D02*
D03*
Y581000D02*
D03*
X256438Y561000D02*
D03*
X163098D02*
D03*
X118902Y581000D02*
D03*
Y561000D02*
D03*
X163098Y581000D02*
D03*
Y345000D02*
D03*
X118902Y365000D02*
D03*
Y345000D02*
D03*
X163098Y365000D02*
D03*
Y509000D02*
D03*
X118902Y489000D02*
D03*
Y509000D02*
D03*
X163098Y489000D02*
D03*
X256438Y509000D02*
D03*
X212242Y489000D02*
D03*
Y509000D02*
D03*
X256438Y489000D02*
D03*
X349778Y509000D02*
D03*
X305582Y489000D02*
D03*
Y509000D02*
D03*
X349778Y489000D02*
D03*
X256438Y365000D02*
D03*
X212242Y345000D02*
D03*
Y365000D02*
D03*
X256438Y345000D02*
D03*
X349778D02*
D03*
X305582Y365000D02*
D03*
Y345000D02*
D03*
X349778Y365000D02*
D03*
X443118Y345000D02*
D03*
X398922Y365000D02*
D03*
Y345000D02*
D03*
X443118Y365000D02*
D03*
X536458Y345000D02*
D03*
X492262Y365000D02*
D03*
Y345000D02*
D03*
X536458Y365000D02*
D03*
X629798D02*
D03*
X585602Y345000D02*
D03*
Y365000D02*
D03*
X629798Y345000D02*
D03*
X443118Y509000D02*
D03*
X398922Y489000D02*
D03*
Y509000D02*
D03*
X443118Y489000D02*
D03*
X536458Y509000D02*
D03*
X492262Y489000D02*
D03*
Y509000D02*
D03*
X536458Y489000D02*
D03*
X629798D02*
D03*
X585602Y509000D02*
D03*
Y489000D02*
D03*
X629798Y509000D02*
D03*
X163098Y437000D02*
D03*
X118902Y417000D02*
D03*
Y437000D02*
D03*
X163098Y417000D02*
D03*
X443118Y437000D02*
D03*
X398922Y417000D02*
D03*
Y437000D02*
D03*
X443118Y417000D02*
D03*
X536458Y437000D02*
D03*
X492262Y417000D02*
D03*
Y437000D02*
D03*
X536458Y417000D02*
D03*
X256438Y437000D02*
D03*
X212242Y417000D02*
D03*
Y437000D02*
D03*
X256438Y417000D02*
D03*
X349778Y437000D02*
D03*
X305582Y417000D02*
D03*
Y437000D02*
D03*
X349778Y417000D02*
D03*
X629798Y437000D02*
D03*
X585602Y417000D02*
D03*
Y437000D02*
D03*
X629798Y417000D02*
D03*
D82*
X141000Y715000D02*
D03*
Y643000D02*
D03*
X234340D02*
D03*
Y715000D02*
D03*
X327680Y643000D02*
D03*
Y715000D02*
D03*
X514360Y643000D02*
D03*
X421020D02*
D03*
Y715000D02*
D03*
X514360D02*
D03*
X607700D02*
D03*
Y643000D02*
D03*
Y571000D02*
D03*
X514360D02*
D03*
X421020D02*
D03*
X327680D02*
D03*
X234340D02*
D03*
X141000D02*
D03*
Y355000D02*
D03*
Y499000D02*
D03*
X234340D02*
D03*
X327680D02*
D03*
X234340Y355000D02*
D03*
X327680D02*
D03*
X421020D02*
D03*
X514360D02*
D03*
X607700D02*
D03*
X421020Y499000D02*
D03*
X514360D02*
D03*
X607700D02*
D03*
X141000Y427000D02*
D03*
X421020D02*
D03*
X514360D02*
D03*
X234340D02*
D03*
X327680D02*
D03*
X607700D02*
D03*
M02*
