G04*
G04 #@! TF.GenerationSoftware,Altium Limited,Altium Designer,25.8.1 (18)*
G04*
G04 Layer_Color=255*
%FSLAX44Y44*%
%MOMM*%
G71*
G04*
G04 #@! TF.SameCoordinates,68482A9D-35D4-4593-95C8-0FE79975008A*
G04*
G04*
G04 #@! TF.FilePolarity,Positive*
G04*
G01*
G75*
%ADD67C,6.0000*%
%ADD83C,0.8000*%
%ADD84C,0.7000*%
%ADD87R,1.1938X0.7620*%
%ADD88R,2.4892X3.0988*%
D67*
X36000Y36000D02*
D03*
X425000Y21000D02*
D03*
X36000Y364000D02*
D03*
Y256000D02*
D03*
X814000Y36000D02*
D03*
X814477Y256000D02*
D03*
X814000Y364000D02*
D03*
Y814000D02*
D03*
X36000D02*
D03*
X465300Y824000D02*
D03*
D83*
X57120Y27252D02*
D03*
X27252Y14880D02*
D03*
X14880Y44748D02*
D03*
X44748Y57120D02*
D03*
X57120Y44748D02*
D03*
X44748Y14880D02*
D03*
X14880Y27252D02*
D03*
X27252Y57120D02*
D03*
Y385120D02*
D03*
X14880Y355252D02*
D03*
X44748Y342880D02*
D03*
X57120Y372748D02*
D03*
X44748Y385120D02*
D03*
X14880Y372748D02*
D03*
X27252Y342880D02*
D03*
X57120Y355252D02*
D03*
X27252Y277120D02*
D03*
X14880Y247252D02*
D03*
X44748Y234880D02*
D03*
X57120Y264748D02*
D03*
X44748Y277120D02*
D03*
X14880Y264748D02*
D03*
X27252Y234880D02*
D03*
X57120Y247252D02*
D03*
X805252Y57120D02*
D03*
X792880Y27252D02*
D03*
X822748Y14880D02*
D03*
X835120Y44748D02*
D03*
X822748Y57120D02*
D03*
X792880Y44748D02*
D03*
X805252Y14880D02*
D03*
X835120Y27252D02*
D03*
X805729Y277120D02*
D03*
X793357Y247252D02*
D03*
X823225Y234880D02*
D03*
X835597Y264748D02*
D03*
X823225Y277120D02*
D03*
X793357Y264748D02*
D03*
X805729Y234880D02*
D03*
X835597Y247252D02*
D03*
X805252Y385120D02*
D03*
X792880Y355252D02*
D03*
X822748Y342880D02*
D03*
X835120Y372748D02*
D03*
X822748Y385120D02*
D03*
X792880Y372748D02*
D03*
X805252Y342880D02*
D03*
X835120Y355252D02*
D03*
X805252Y835120D02*
D03*
X792880Y805252D02*
D03*
X822748Y792880D02*
D03*
X835120Y822748D02*
D03*
X822748Y835120D02*
D03*
X792880Y822748D02*
D03*
X805252Y792880D02*
D03*
X835120Y805252D02*
D03*
X27252Y835120D02*
D03*
X14880Y805252D02*
D03*
X44748Y792880D02*
D03*
X57120Y822748D02*
D03*
X44748Y835120D02*
D03*
X14880Y822748D02*
D03*
X27252Y792880D02*
D03*
X57120Y805252D02*
D03*
D84*
X456552Y845120D02*
D03*
X444180Y815252D02*
D03*
X474048Y802880D02*
D03*
X486420Y832748D02*
D03*
X474048Y845120D02*
D03*
X444180Y832748D02*
D03*
X456552Y802880D02*
D03*
X486420Y815252D02*
D03*
D87*
X305582Y489000D02*
D03*
Y633000D02*
D03*
X212242D02*
D03*
X398922Y489000D02*
D03*
X118902Y633000D02*
D03*
X398922Y561000D02*
D03*
X305582Y705000D02*
D03*
X212242Y345000D02*
D03*
X118902D02*
D03*
X398922Y417000D02*
D03*
X118902D02*
D03*
Y706280D02*
D03*
X212242Y489000D02*
D03*
X118902D02*
D03*
X212242Y706280D02*
D03*
X398922Y345000D02*
D03*
X212242Y561000D02*
D03*
X118902D02*
D03*
X305582Y417000D02*
D03*
X212242D02*
D03*
X305582Y345000D02*
D03*
X398922Y705000D02*
D03*
X305582Y561000D02*
D03*
X398922Y633000D02*
D03*
Y653000D02*
D03*
X443118D02*
D03*
Y633000D02*
D03*
X305582Y581000D02*
D03*
X349778Y561000D02*
D03*
Y581000D02*
D03*
X398922Y725000D02*
D03*
X443118Y705000D02*
D03*
Y725000D02*
D03*
X349778Y489000D02*
D03*
Y509000D02*
D03*
X443118Y581000D02*
D03*
Y561000D02*
D03*
Y489000D02*
D03*
Y509000D02*
D03*
X163098D02*
D03*
Y489000D02*
D03*
Y581000D02*
D03*
Y561000D02*
D03*
X256438Y509000D02*
D03*
Y489000D02*
D03*
Y581000D02*
D03*
Y561000D02*
D03*
X163098Y633000D02*
D03*
Y653000D02*
D03*
X349778Y725000D02*
D03*
Y705000D02*
D03*
Y653000D02*
D03*
Y633000D02*
D03*
X256438Y653000D02*
D03*
Y633000D02*
D03*
Y706280D02*
D03*
Y726280D02*
D03*
X163098D02*
D03*
Y706280D02*
D03*
X256438Y437000D02*
D03*
Y417000D02*
D03*
X163098Y437000D02*
D03*
Y417000D02*
D03*
X443118Y437000D02*
D03*
Y417000D02*
D03*
X163098Y365000D02*
D03*
Y345000D02*
D03*
X256438D02*
D03*
Y365000D02*
D03*
X443118Y345000D02*
D03*
Y365000D02*
D03*
X349778Y345000D02*
D03*
Y365000D02*
D03*
Y437000D02*
D03*
Y417000D02*
D03*
X118902Y437000D02*
D03*
X305582D02*
D03*
X118902Y726280D02*
D03*
X212242D02*
D03*
X118902Y509000D02*
D03*
X212242D02*
D03*
X305582D02*
D03*
X118902Y653000D02*
D03*
X398922Y509000D02*
D03*
X212242Y653000D02*
D03*
X305582D02*
D03*
Y725000D02*
D03*
X398922Y581000D02*
D03*
X118902D02*
D03*
X212242D02*
D03*
X398922Y365000D02*
D03*
X305582D02*
D03*
X212242Y437000D02*
D03*
X398922D02*
D03*
X118902Y365000D02*
D03*
X212242D02*
D03*
D88*
X421020Y643000D02*
D03*
X327680Y571000D02*
D03*
X421020Y715000D02*
D03*
X327680Y499000D02*
D03*
X421020Y571000D02*
D03*
Y499000D02*
D03*
X141000D02*
D03*
Y571000D02*
D03*
X234340Y499000D02*
D03*
Y571000D02*
D03*
X141000Y643000D02*
D03*
X327680Y715000D02*
D03*
Y643000D02*
D03*
X234340D02*
D03*
Y716280D02*
D03*
X141000D02*
D03*
X234340Y427000D02*
D03*
X141000D02*
D03*
X421020D02*
D03*
X141000Y355000D02*
D03*
X234340D02*
D03*
X421020D02*
D03*
X327680D02*
D03*
Y427000D02*
D03*
M02*
