G04*
G04 #@! TF.GenerationSoftware,Altium Limited,Altium Designer,25.8.1 (18)*
G04*
G04 Layer_Physical_Order=2*
G04 Layer_Color=36540*
%FSLAX44Y44*%
%MOMM*%
G71*
G04*
G04 #@! TF.SameCoordinates,FED8D01D-8D25-4793-B94F-4791862208F0*
G04*
G04*
G04 #@! TF.FilePolarity,Positive*
G04*
G01*
G75*
%ADD44C,1.2700*%
%ADD65R,35.0520X39.6240*%
%ADD67C,6.0000*%
%ADD76C,0.9000*%
%ADD83C,0.8000*%
%ADD84C,0.7000*%
%ADD85C,0.6000*%
G36*
X12000Y852176D02*
X836783D01*
X838000Y852176D01*
X838050Y852178D01*
X839272Y852057D01*
X841682Y851740D01*
X845113Y850319D01*
X848059Y848058D01*
X850319Y845112D01*
X851740Y841682D01*
X852206Y838148D01*
X852176Y838000D01*
Y684290D01*
X852176Y683057D01*
X852178Y683022D01*
X852043Y681806D01*
X851792Y679898D01*
X850572Y676954D01*
X848632Y674425D01*
X846104Y672485D01*
X843160Y671266D01*
X840096Y670862D01*
X840000Y670882D01*
X828860D01*
X827779Y670667D01*
X826863Y670054D01*
X826251Y669138D01*
X826036Y668057D01*
Y515497D01*
X826251Y514416D01*
X826863Y513500D01*
X827779Y512888D01*
X828860Y512673D01*
X840000D01*
X840096Y512692D01*
X843160Y512289D01*
X846104Y511069D01*
X848632Y509129D01*
X850572Y506601D01*
X851792Y503657D01*
X852195Y500593D01*
X852176Y500497D01*
Y13233D01*
X852176Y12000D01*
X852177Y11965D01*
X852059Y10743D01*
X851740Y8318D01*
X850319Y4888D01*
X848058Y1942D01*
X845112Y-319D01*
X841682Y-1740D01*
X838148Y-2205D01*
X838000Y-2176D01*
X13218D01*
X12000Y-2176D01*
X11950Y-2177D01*
X10729Y-2057D01*
X8318Y-1740D01*
X4888Y-319D01*
X1942Y1942D01*
X-319Y4888D01*
X-1740Y8319D01*
X-2205Y11852D01*
X-2176Y12000D01*
Y836783D01*
X-2176Y838000D01*
X-2177Y838050D01*
X-2057Y839272D01*
X-1740Y841682D01*
X-319Y845113D01*
X1942Y848059D01*
X4888Y850319D01*
X8319Y851740D01*
X11852Y852206D01*
X12000Y852176D01*
D02*
G37*
%LPC*%
G36*
X823842Y840620D02*
X821845Y840620D01*
X822542Y838937D01*
X820195Y837965D01*
X819498Y839648D01*
X818085Y838235D01*
X817248Y836214D01*
X817248Y834216D01*
X818931Y834913D01*
X819903Y832567D01*
X818220Y831870D01*
X819633Y830457D01*
X821654Y829620D01*
X823652Y829620D01*
X822955Y831302D01*
X825301Y832274D01*
X825998Y830592D01*
X827411Y832004D01*
X828248Y834026D01*
X828248Y836023D01*
X826566Y835327D01*
X825594Y837673D01*
X827276Y838370D01*
X825864Y839782D01*
X823842Y840620D01*
D02*
G37*
G36*
X45842D02*
X43845Y840620D01*
X44542Y838937D01*
X42195Y837965D01*
X41498Y839648D01*
X40788Y838937D01*
X40086Y838235D01*
X39248Y836214D01*
X39248Y834216D01*
X40931Y834913D01*
X41903Y832567D01*
X40220Y831870D01*
X41633Y830457D01*
X43654Y829620D01*
X45652Y829620D01*
X44955Y831302D01*
X47301Y832274D01*
X47998Y830592D01*
X49411Y832004D01*
X50248Y834026D01*
X50248Y836023D01*
X48566Y835327D01*
X47594Y837673D01*
X49276Y838370D01*
X47864Y839782D01*
X45842Y840620D01*
D02*
G37*
G36*
X804340Y840620D02*
X803899Y840513D01*
X802136Y839783D01*
X800724Y838370D01*
X802406Y837673D01*
X801434Y835327D01*
X799752Y836023D01*
X799752Y834026D01*
X800589Y832004D01*
X802002Y830592D01*
X802699Y832274D01*
X805045Y831302D01*
X804348Y829620D01*
X806346Y829620D01*
X808367Y830457D01*
X809780Y831870D01*
X808097Y832567D01*
X809069Y834913D01*
X810752Y834216D01*
X810752Y836214D01*
X809914Y838235D01*
X808502Y839648D01*
X807805Y837965D01*
X805459Y838937D01*
X806155Y840620D01*
D01*
X804340Y840620D01*
D02*
G37*
G36*
X26158D02*
X24136Y839783D01*
X22724Y838370D01*
X24406Y837673D01*
X23434Y835327D01*
X21752Y836023D01*
X21752Y834026D01*
X22589Y832004D01*
X24002Y830592D01*
X24699Y832274D01*
X27045Y831302D01*
X26348Y829620D01*
X28346Y829620D01*
X30367Y830457D01*
X31780Y831870D01*
X30097Y832567D01*
X31069Y834913D01*
X32752Y834216D01*
X32752Y836214D01*
X31915Y838235D01*
X30502Y839648D01*
X29805Y837965D01*
X27459Y838937D01*
X28155Y840620D01*
X26158Y840620D01*
D02*
G37*
G36*
X838370Y827276D02*
X838189Y826840D01*
X838731Y826915D01*
X838370Y827276D01*
D02*
G37*
G36*
X793974Y828248D02*
X791977Y828248D01*
X792673Y826566D01*
X790327Y825594D01*
X789630Y827276D01*
X788217Y825864D01*
X787380Y823842D01*
X787380Y821845D01*
X789063Y822542D01*
X790035Y820195D01*
X788352Y819498D01*
X789765Y818085D01*
X791786Y817248D01*
X793784Y817248D01*
X793087Y818931D01*
X795433Y819903D01*
X796130Y818220D01*
X797543Y819633D01*
X798380Y821654D01*
X798380Y823652D01*
X796698Y822955D01*
X795726Y825301D01*
X797408Y825998D01*
X795996Y827411D01*
X793974Y828248D01*
D02*
G37*
G36*
X15974D02*
X13977Y828248D01*
X14674Y826566D01*
X12327Y825594D01*
X11630Y827276D01*
X10217Y825864D01*
X9380Y823842D01*
X9380Y821845D01*
X11063Y822542D01*
X12035Y820195D01*
X10352Y819498D01*
X11765Y818085D01*
X13786Y817248D01*
X15784Y817248D01*
X15087Y818931D01*
X17433Y819903D01*
X18130Y818220D01*
X19543Y819633D01*
X20380Y821654D01*
X20380Y823652D01*
X18698Y822955D01*
X17726Y825301D01*
X19408Y825998D01*
X17996Y827411D01*
X15974Y828248D01*
D02*
G37*
G36*
X834026D02*
X832004Y827411D01*
X830592Y825998D01*
X832274Y825301D01*
X831302Y822955D01*
X829620Y823652D01*
X829620Y821654D01*
X830457Y819633D01*
X831870Y818220D01*
X832567Y819903D01*
X834913Y818931D01*
X834216Y817248D01*
X836214Y817248D01*
X838235Y818085D01*
X839648Y819498D01*
X837965Y820195D01*
X838937Y822542D01*
X840620Y821845D01*
X840620Y823842D01*
X839783Y825864D01*
X839000Y826646D01*
X838109D01*
X837673Y825594D01*
X835327Y826566D01*
X836023Y828248D01*
X834026Y828248D01*
D02*
G37*
G36*
X56026D02*
X54004Y827411D01*
X52592Y825998D01*
X54274Y825301D01*
X53302Y822955D01*
X51620Y823652D01*
X51620Y821654D01*
X52457Y819633D01*
X53870Y818220D01*
X54567Y819903D01*
X56913Y818931D01*
X56216Y817248D01*
X58214Y817248D01*
X60235Y818085D01*
X61648Y819498D01*
X59965Y820195D01*
X60937Y822542D01*
X62620Y821845D01*
X62620Y823842D01*
X61783Y825864D01*
X60370Y827276D01*
X59673Y825594D01*
X57326Y826566D01*
X58023Y828248D01*
X56026Y828248D01*
D02*
G37*
G36*
X836214Y810752D02*
X834216Y810752D01*
X834913Y809069D01*
X832567Y808097D01*
X831870Y809780D01*
X830457Y808367D01*
X829620Y806346D01*
X829620Y804348D01*
X831302Y805045D01*
X832274Y802699D01*
X830592Y802002D01*
X832004Y800589D01*
X834026Y799752D01*
X836023Y799752D01*
X835327Y801434D01*
X837673Y802406D01*
X838370Y800724D01*
X839782Y802136D01*
X840620Y804158D01*
X840620Y806155D01*
X838937Y805459D01*
X837965Y807805D01*
X839648Y808502D01*
X838235Y809914D01*
X836214Y810752D01*
D02*
G37*
G36*
X58214D02*
X56216Y810752D01*
X56913Y809069D01*
X54567Y808097D01*
X53870Y809780D01*
X52457Y808367D01*
X51620Y806346D01*
X51620Y804348D01*
X53302Y805045D01*
X54274Y802699D01*
X52592Y802002D01*
X54004Y800589D01*
X56026Y799752D01*
X58023Y799752D01*
X57326Y801434D01*
X59673Y802406D01*
X60370Y800724D01*
X61783Y802136D01*
X62620Y804158D01*
X62620Y806155D01*
X60937Y805459D01*
X59965Y807805D01*
X61648Y808502D01*
X60235Y809914D01*
X58214Y810752D01*
D02*
G37*
G36*
X791786D02*
X789765Y809914D01*
X788352Y808502D01*
X790035Y807805D01*
X789063Y805459D01*
X787380Y806155D01*
X787380Y804158D01*
X788217Y802136D01*
X789630Y800724D01*
X790327Y802406D01*
X792673Y801434D01*
X791977Y799752D01*
X793974Y799752D01*
X795996Y800589D01*
X797408Y802002D01*
X795726Y802699D01*
X796698Y805045D01*
X798380Y804348D01*
X798380Y806346D01*
X797543Y808367D01*
X796130Y809780D01*
X795433Y808097D01*
X793087Y809069D01*
X793784Y810752D01*
X791786Y810752D01*
D02*
G37*
G36*
X13786D02*
X11765Y809914D01*
X10352Y808502D01*
X12035Y807805D01*
X11063Y805459D01*
X9380Y806155D01*
X9380Y804158D01*
X10217Y802136D01*
X11630Y800724D01*
X12327Y802406D01*
X14674Y801434D01*
X13977Y799752D01*
X15974Y799752D01*
X17996Y800589D01*
X19408Y802002D01*
X17726Y802699D01*
X18698Y805045D01*
X20380Y804348D01*
X20380Y806346D01*
X19543Y808367D01*
X18130Y809780D01*
X17433Y808097D01*
X15087Y809069D01*
X15784Y810752D01*
X13786Y810752D01*
D02*
G37*
G36*
X806346Y798380D02*
X804348Y798380D01*
X805045Y796698D01*
X802699Y795726D01*
X802002Y797408D01*
X800589Y795996D01*
X799752Y793974D01*
X799752Y791977D01*
X801434Y792673D01*
X802406Y790327D01*
X800724Y789630D01*
X802136Y788217D01*
X804158Y787380D01*
X806155Y787380D01*
X805459Y789063D01*
X807805Y790035D01*
X808502Y788352D01*
X809914Y789765D01*
X810752Y791786D01*
X810752Y793784D01*
X809069Y793087D01*
X808097Y795433D01*
X809780Y796130D01*
X808367Y797543D01*
X806346Y798380D01*
D02*
G37*
G36*
X28346D02*
X26348Y798380D01*
X27045Y796698D01*
X24699Y795726D01*
X24002Y797408D01*
X22589Y795996D01*
X21752Y793974D01*
X21752Y791977D01*
X23434Y792673D01*
X24406Y790327D01*
X22724Y789630D01*
X24136Y788217D01*
X26158Y787380D01*
X28155Y787380D01*
X27459Y789063D01*
X29805Y790035D01*
X30502Y788352D01*
X31915Y789765D01*
X32752Y791786D01*
X32752Y793784D01*
X31069Y793087D01*
X30097Y795433D01*
X31780Y796130D01*
X30367Y797543D01*
X28346Y798380D01*
D02*
G37*
G36*
X821654Y798380D02*
X819633Y797543D01*
X818220Y796130D01*
X819903Y795433D01*
X818931Y793087D01*
X817248Y793784D01*
X817248Y791786D01*
X818085Y789765D01*
X819498Y788352D01*
X820195Y790035D01*
X822542Y789063D01*
X821845Y787380D01*
X823842Y787380D01*
X825864Y788217D01*
X827276Y789630D01*
X825594Y790327D01*
X826566Y792673D01*
X828248Y791977D01*
X828248Y793974D01*
X827411Y795996D01*
X826709Y796698D01*
X825998Y797408D01*
X825301Y795726D01*
X822955Y796698D01*
X823652Y798380D01*
X821654Y798380D01*
D02*
G37*
G36*
X43654D02*
X41633Y797543D01*
X40220Y796130D01*
X41903Y795433D01*
X40931Y793087D01*
X39248Y793784D01*
X39248Y791786D01*
X40086Y789765D01*
X41498Y788352D01*
X42195Y790035D01*
X44542Y789063D01*
X43845Y787380D01*
X45842Y787380D01*
X47864Y788217D01*
X49276Y789630D01*
X47594Y790327D01*
X48566Y792673D01*
X50248Y791977D01*
X50248Y793974D01*
X49411Y795996D01*
X47998Y797408D01*
X47301Y795726D01*
X44955Y796698D01*
X45652Y798380D01*
X43654Y798380D01*
D02*
G37*
G36*
X612345Y770129D02*
X610555D01*
X608901Y769444D01*
X607635Y768178D01*
X606950Y766524D01*
Y764734D01*
X607635Y763080D01*
X608901Y761814D01*
X610555Y761129D01*
X612345D01*
X613999Y761814D01*
X615265Y763080D01*
X615950Y764734D01*
Y766524D01*
X615265Y768178D01*
X613999Y769444D01*
X612345Y770129D01*
D02*
G37*
G36*
X599345Y762310D02*
X597555D01*
X595901Y761625D01*
X594635Y760359D01*
X593950Y758705D01*
Y756915D01*
X594635Y755261D01*
X595901Y753995D01*
X597555Y753310D01*
X599345D01*
X600999Y753995D01*
X602265Y755261D01*
X602950Y756915D01*
Y758705D01*
X602265Y760359D01*
X600999Y761625D01*
X599345Y762310D01*
D02*
G37*
G36*
X586345Y754163D02*
X584555D01*
X582901Y753478D01*
X581635Y752212D01*
X580950Y750558D01*
Y748768D01*
X581635Y747114D01*
X582901Y745848D01*
X584555Y745163D01*
X586345D01*
X587999Y745848D01*
X589265Y747114D01*
X589950Y748768D01*
Y750558D01*
X589265Y752212D01*
X587999Y753478D01*
X586345Y754163D01*
D02*
G37*
G36*
X648595Y753800D02*
X646805D01*
X645151Y753115D01*
X643885Y751849D01*
X643200Y750195D01*
Y748405D01*
X643885Y746751D01*
X645151Y745485D01*
X646805Y744800D01*
X648595D01*
X650249Y745485D01*
X651515Y746751D01*
X652200Y748405D01*
Y750195D01*
X651515Y751849D01*
X650249Y753115D01*
X648595Y753800D01*
D02*
G37*
G36*
X573345Y745800D02*
X571555D01*
X569901Y745115D01*
X568635Y743849D01*
X567950Y742195D01*
Y740405D01*
X568635Y738751D01*
X569901Y737485D01*
X571555Y736800D01*
X573345D01*
X574999Y737485D01*
X576265Y738751D01*
X576950Y740405D01*
Y742195D01*
X576265Y743849D01*
X574999Y745115D01*
X573345Y745800D01*
D02*
G37*
G36*
X682885Y728400D02*
X681095D01*
X679441Y727715D01*
X678175Y726449D01*
X677490Y724795D01*
Y723005D01*
X678175Y721351D01*
X679441Y720085D01*
X681095Y719400D01*
X682885D01*
X684539Y720085D01*
X685805Y721351D01*
X686490Y723005D01*
Y724795D01*
X685805Y726449D01*
X684539Y727715D01*
X682885Y728400D01*
D02*
G37*
G36*
X547345Y723320D02*
X545555D01*
X543901Y722635D01*
X542635Y721369D01*
X541950Y719715D01*
Y717925D01*
X542635Y716271D01*
X543901Y715005D01*
X545555Y714320D01*
X547345D01*
X548999Y715005D01*
X550265Y716271D01*
X550950Y717925D01*
Y719715D01*
X550265Y721369D01*
X548999Y722635D01*
X547345Y723320D01*
D02*
G37*
G36*
X492535D02*
X490745D01*
X489091Y722635D01*
X487825Y721369D01*
X487140Y719715D01*
Y717925D01*
X487825Y716271D01*
X489091Y715005D01*
X490745Y714320D01*
X492535D01*
X494189Y715005D01*
X495455Y716271D01*
X496140Y717925D01*
Y719715D01*
X495455Y721369D01*
X494189Y722635D01*
X492535Y723320D01*
D02*
G37*
G36*
X518545Y722540D02*
X516755D01*
X515101Y721855D01*
X513835Y720589D01*
X513150Y718935D01*
Y717145D01*
X513835Y715491D01*
X515101Y714225D01*
X516755Y713540D01*
X518545D01*
X520199Y714225D01*
X521465Y715491D01*
X522150Y717145D01*
Y718935D01*
X521465Y720589D01*
X520199Y721855D01*
X518545Y722540D01*
D02*
G37*
G36*
X690505Y705540D02*
X688715D01*
X687061Y704855D01*
X685795Y703589D01*
X685110Y701935D01*
Y700145D01*
X685795Y698491D01*
X687061Y697225D01*
X688715Y696540D01*
X690505D01*
X692159Y697225D01*
X693425Y698491D01*
X694110Y700145D01*
Y701935D01*
X693425Y703589D01*
X692159Y704855D01*
X690505Y705540D01*
D02*
G37*
G36*
X612345Y696849D02*
X610555D01*
X608901Y696164D01*
X607635Y694898D01*
X606950Y693244D01*
Y691454D01*
X607635Y689800D01*
X608901Y688534D01*
X610555Y687849D01*
X612345D01*
X613999Y688534D01*
X615265Y689800D01*
X615950Y691454D01*
Y693244D01*
X615265Y694898D01*
X613999Y696164D01*
X612345Y696849D01*
D02*
G37*
G36*
X599345Y689030D02*
X597555D01*
X595901Y688345D01*
X594635Y687079D01*
X593950Y685425D01*
Y683635D01*
X594635Y681981D01*
X595901Y680715D01*
X597555Y680030D01*
X599345D01*
X600999Y680715D01*
X602265Y681981D01*
X602950Y683635D01*
Y685425D01*
X602265Y687079D01*
X600999Y688345D01*
X599345Y689030D01*
D02*
G37*
G36*
X586345Y680883D02*
X584555D01*
X582901Y680198D01*
X581635Y678932D01*
X580950Y677278D01*
Y675488D01*
X581635Y673834D01*
X582901Y672568D01*
X584555Y671883D01*
X586345D01*
X587999Y672568D01*
X589265Y673834D01*
X589950Y675488D01*
Y677278D01*
X589265Y678932D01*
X587999Y680198D01*
X586345Y680883D01*
D02*
G37*
G36*
X573345Y672520D02*
X571555D01*
X569901Y671835D01*
X568635Y670569D01*
X567950Y668915D01*
Y667125D01*
X568635Y665471D01*
X569901Y664205D01*
X571555Y663520D01*
X573345D01*
X574999Y664205D01*
X576265Y665471D01*
X576950Y667125D01*
Y668915D01*
X576265Y670569D01*
X574999Y671835D01*
X573345Y672520D01*
D02*
G37*
G36*
X648595Y657280D02*
X646805D01*
X645151Y656595D01*
X643885Y655329D01*
X643200Y653675D01*
Y651885D01*
X643885Y650231D01*
X645151Y648965D01*
X646805Y648280D01*
X648595D01*
X650249Y648965D01*
X651515Y650231D01*
X652200Y651885D01*
Y653675D01*
X651515Y655329D01*
X650249Y656595D01*
X648595Y657280D01*
D02*
G37*
G36*
X539793Y655306D02*
X538003D01*
X536349Y654621D01*
X535083Y653355D01*
X534398Y651701D01*
Y649911D01*
X535083Y648257D01*
X536349Y646991D01*
X538003Y646306D01*
X539793D01*
X541447Y646991D01*
X542713Y648257D01*
X543398Y649911D01*
Y651701D01*
X542713Y653355D01*
X541447Y654621D01*
X539793Y655306D01*
D02*
G37*
G36*
X527215Y644811D02*
X525425D01*
X523771Y644126D01*
X522505Y642860D01*
X521820Y641206D01*
Y639416D01*
X522505Y637762D01*
X523771Y636496D01*
X525425Y635811D01*
X527215D01*
X528869Y636496D01*
X530135Y637762D01*
X530820Y639416D01*
Y641206D01*
X530135Y642860D01*
X528869Y644126D01*
X527215Y644811D01*
D02*
G37*
G36*
X722275Y642188D02*
X720485D01*
X718831Y641503D01*
X717565Y640237D01*
X716880Y638583D01*
Y636793D01*
X717565Y635139D01*
X718831Y633873D01*
X720485Y633188D01*
X722275D01*
X723929Y633873D01*
X725195Y635139D01*
X725880Y636793D01*
Y638583D01*
X725195Y640237D01*
X723929Y641503D01*
X722275Y642188D01*
D02*
G37*
G36*
X560345Y642040D02*
X558555D01*
X556901Y641355D01*
X555635Y640089D01*
X554950Y638435D01*
Y636645D01*
X555635Y634991D01*
X556901Y633725D01*
X558555Y633040D01*
X560345D01*
X561999Y633725D01*
X563265Y634991D01*
X563950Y636645D01*
Y638435D01*
X563265Y640089D01*
X561999Y641355D01*
X560345Y642040D01*
D02*
G37*
G36*
X702025Y630538D02*
X700235D01*
X698581Y629852D01*
X697315Y628587D01*
X696630Y626933D01*
Y625143D01*
X697315Y623489D01*
X698581Y622223D01*
X700235Y621538D01*
X702025D01*
X703679Y622223D01*
X704945Y623489D01*
X705630Y625143D01*
Y626933D01*
X704945Y628587D01*
X703679Y629852D01*
X702025Y630538D01*
D02*
G37*
G36*
X648906D02*
X647115D01*
X645462Y629852D01*
X644196Y628587D01*
X643511Y626933D01*
Y625143D01*
X644196Y623489D01*
X645462Y622223D01*
X647115Y621538D01*
X648906D01*
X650560Y622223D01*
X651825Y623489D01*
X652511Y625143D01*
Y626933D01*
X651825Y628587D01*
X650560Y629852D01*
X648906Y630538D01*
D02*
G37*
G36*
X612345Y624849D02*
X610555D01*
X608901Y624164D01*
X607635Y622898D01*
X606950Y621244D01*
Y619454D01*
X607635Y617800D01*
X608901Y616534D01*
X610555Y615849D01*
X612345D01*
X613999Y616534D01*
X615265Y617800D01*
X615950Y619454D01*
Y621244D01*
X615265Y622898D01*
X613999Y624164D01*
X612345Y624849D01*
D02*
G37*
G36*
X599345Y617030D02*
X597555D01*
X595901Y616345D01*
X594635Y615079D01*
X593950Y613425D01*
Y611635D01*
X594635Y609981D01*
X595901Y608715D01*
X597555Y608030D01*
X599345D01*
X600999Y608715D01*
X602265Y609981D01*
X602950Y611635D01*
Y613425D01*
X602265Y615079D01*
X600999Y616345D01*
X599345Y617030D01*
D02*
G37*
G36*
X713525Y612038D02*
X711735D01*
X710081Y611353D01*
X708815Y610087D01*
X708130Y608433D01*
Y606642D01*
X708815Y604989D01*
X710081Y603723D01*
X711735Y603038D01*
X713525D01*
X715179Y603723D01*
X716445Y604989D01*
X717130Y606642D01*
Y608433D01*
X716445Y610087D01*
X715179Y611353D01*
X713525Y612038D01*
D02*
G37*
G36*
X586345Y608883D02*
X584555D01*
X582901Y608198D01*
X581635Y606932D01*
X580950Y605278D01*
Y603488D01*
X581635Y601834D01*
X582901Y600568D01*
X584555Y599883D01*
X586345D01*
X587999Y600568D01*
X589265Y601834D01*
X589950Y603488D01*
Y605278D01*
X589265Y606932D01*
X587999Y608198D01*
X586345Y608883D01*
D02*
G37*
G36*
X573345Y600520D02*
X571555D01*
X569901Y599835D01*
X568635Y598569D01*
X567950Y596915D01*
Y595125D01*
X568635Y593471D01*
X569901Y592205D01*
X571555Y591520D01*
X573345D01*
X574999Y592205D01*
X576265Y593471D01*
X576950Y595125D01*
Y596915D01*
X576265Y598569D01*
X574999Y599835D01*
X573345Y600520D01*
D02*
G37*
G36*
X713525Y593037D02*
X711735D01*
X710081Y592352D01*
X708815Y591087D01*
X708130Y589433D01*
Y587643D01*
X708815Y585989D01*
X710081Y584723D01*
X711735Y584038D01*
X713525D01*
X715179Y584723D01*
X716445Y585989D01*
X717130Y587643D01*
Y589433D01*
X716445Y591087D01*
X715179Y592352D01*
X713525Y593037D01*
D02*
G37*
G36*
X547345Y589970D02*
X545555D01*
X543901Y589285D01*
X542635Y588019D01*
X541950Y586365D01*
Y584575D01*
X542635Y582921D01*
X543901Y581655D01*
X545555Y580970D01*
X547345D01*
X548999Y581655D01*
X550265Y582921D01*
X550950Y584575D01*
Y586365D01*
X550265Y588019D01*
X548999Y589285D01*
X547345Y589970D01*
D02*
G37*
G36*
X560345Y581080D02*
X558555D01*
X556901Y580395D01*
X555635Y579129D01*
X554950Y577475D01*
Y575685D01*
X555635Y574031D01*
X556901Y572765D01*
X558555Y572080D01*
X560345D01*
X561999Y572765D01*
X563265Y574031D01*
X563950Y575685D01*
Y577475D01*
X563265Y579129D01*
X561999Y580395D01*
X560345Y581080D01*
D02*
G37*
G36*
X518374Y578540D02*
X516584D01*
X514930Y577855D01*
X513664Y576589D01*
X512979Y574935D01*
Y573145D01*
X513664Y571491D01*
X514930Y570225D01*
X516584Y569540D01*
X518374D01*
X520028Y570225D01*
X521293Y571491D01*
X521979Y573145D01*
Y574935D01*
X521293Y576589D01*
X520028Y577855D01*
X518374Y578540D01*
D02*
G37*
G36*
X492535D02*
X490745D01*
X489091Y577855D01*
X487825Y576589D01*
X487140Y574935D01*
Y573145D01*
X487825Y571491D01*
X489091Y570225D01*
X490745Y569540D01*
X492535D01*
X494189Y570225D01*
X495455Y571491D01*
X496140Y573145D01*
Y574935D01*
X495455Y576589D01*
X494189Y577855D01*
X492535Y578540D01*
D02*
G37*
G36*
X705745Y576046D02*
X703955D01*
X702301Y575361D01*
X701035Y574095D01*
X700350Y572441D01*
Y570651D01*
X701035Y568997D01*
X702301Y567731D01*
X703955Y567046D01*
X705745D01*
X707399Y567731D01*
X708665Y568997D01*
X709350Y570651D01*
Y572441D01*
X708665Y574095D01*
X707399Y575361D01*
X705745Y576046D01*
D02*
G37*
G36*
X730231Y564570D02*
X728441D01*
X726787Y563885D01*
X725521Y562619D01*
X724836Y560965D01*
Y559175D01*
X725521Y557521D01*
X726787Y556255D01*
X728441Y555570D01*
X730231D01*
X731885Y556255D01*
X733151Y557521D01*
X733836Y559175D01*
Y560965D01*
X733151Y562619D01*
X731885Y563885D01*
X730231Y564570D01*
D02*
G37*
G36*
X648595Y562046D02*
X646805D01*
X645151Y561361D01*
X643885Y560095D01*
X643200Y558441D01*
Y556651D01*
X643885Y554997D01*
X645151Y553731D01*
X646805Y553046D01*
X648595D01*
X650249Y553731D01*
X651515Y554997D01*
X652200Y556651D01*
Y558441D01*
X651515Y560095D01*
X650249Y561361D01*
X648595Y562046D01*
D02*
G37*
G36*
X612345Y552849D02*
X610555D01*
X608901Y552164D01*
X607635Y550898D01*
X606950Y549244D01*
Y547454D01*
X607635Y545800D01*
X608901Y544534D01*
X610555Y543849D01*
X612345D01*
X613999Y544534D01*
X615265Y545800D01*
X615950Y547454D01*
Y549244D01*
X615265Y550898D01*
X613999Y552164D01*
X612345Y552849D01*
D02*
G37*
G36*
X599345Y545030D02*
X597555D01*
X595901Y544345D01*
X594635Y543079D01*
X593950Y541425D01*
Y539635D01*
X594635Y537981D01*
X595901Y536715D01*
X597555Y536030D01*
X599345D01*
X600999Y536715D01*
X602265Y537981D01*
X602950Y539635D01*
Y541425D01*
X602265Y543079D01*
X600999Y544345D01*
X599345Y545030D01*
D02*
G37*
G36*
X586345Y536883D02*
X584555D01*
X582901Y536198D01*
X581635Y534932D01*
X580950Y533278D01*
Y531488D01*
X581635Y529834D01*
X582901Y528568D01*
X584555Y527883D01*
X586345D01*
X587999Y528568D01*
X589265Y529834D01*
X589950Y531488D01*
Y533278D01*
X589265Y534932D01*
X587999Y536198D01*
X586345Y536883D01*
D02*
G37*
G36*
X573345Y528520D02*
X571555D01*
X569901Y527835D01*
X568635Y526569D01*
X567950Y524915D01*
Y523125D01*
X568635Y521471D01*
X569901Y520205D01*
X571555Y519520D01*
X573345D01*
X574999Y520205D01*
X576265Y521471D01*
X576950Y523125D01*
Y524915D01*
X576265Y526569D01*
X574999Y527835D01*
X573345Y528520D01*
D02*
G37*
G36*
X539793Y511306D02*
X538003D01*
X536349Y510621D01*
X535083Y509355D01*
X534398Y507701D01*
Y505911D01*
X535083Y504257D01*
X536349Y502991D01*
X538003Y502306D01*
X539793D01*
X541447Y502991D01*
X542713Y504257D01*
X543398Y505911D01*
Y507701D01*
X542713Y509355D01*
X541447Y510621D01*
X539793Y511306D01*
D02*
G37*
G36*
X527215Y500811D02*
X525425D01*
X523771Y500126D01*
X522505Y498860D01*
X521820Y497206D01*
Y495416D01*
X522505Y493762D01*
X523771Y492496D01*
X525425Y491811D01*
X527215D01*
X528869Y492496D01*
X530135Y493762D01*
X530820Y495416D01*
Y497206D01*
X530135Y498860D01*
X528869Y500126D01*
X527215Y500811D01*
D02*
G37*
G36*
X560345Y499800D02*
X558555D01*
X556901Y499115D01*
X555635Y497849D01*
X554950Y496195D01*
Y494405D01*
X555635Y492751D01*
X556901Y491485D01*
X558555Y490800D01*
X560345D01*
X561999Y491485D01*
X563265Y492751D01*
X563950Y494405D01*
Y496195D01*
X563265Y497849D01*
X561999Y499115D01*
X560345Y499800D01*
D02*
G37*
G36*
X612345Y480849D02*
X610555D01*
X608901Y480164D01*
X607635Y478898D01*
X606950Y477244D01*
Y475454D01*
X607635Y473800D01*
X608901Y472534D01*
X610555Y471849D01*
X612345D01*
X613999Y472534D01*
X615265Y473800D01*
X615950Y475454D01*
Y477244D01*
X615265Y478898D01*
X613999Y480164D01*
X612345Y480849D01*
D02*
G37*
G36*
X599345Y473030D02*
X597555D01*
X595901Y472345D01*
X594635Y471079D01*
X593950Y469425D01*
Y467635D01*
X594635Y465981D01*
X595901Y464715D01*
X597555Y464030D01*
X599345D01*
X600999Y464715D01*
X602265Y465981D01*
X602950Y467635D01*
Y469425D01*
X602265Y471079D01*
X600999Y472345D01*
X599345Y473030D01*
D02*
G37*
G36*
X586345Y464883D02*
X584555D01*
X582901Y464198D01*
X581635Y462932D01*
X580950Y461278D01*
Y459488D01*
X581635Y457834D01*
X582901Y456568D01*
X584555Y455883D01*
X586345D01*
X587999Y456568D01*
X589265Y457834D01*
X589950Y459488D01*
Y461278D01*
X589265Y462932D01*
X587999Y464198D01*
X586345Y464883D01*
D02*
G37*
G36*
X648595Y464240D02*
X646805D01*
X645151Y463555D01*
X643885Y462289D01*
X643200Y460635D01*
Y458845D01*
X643885Y457191D01*
X645151Y455925D01*
X646805Y455240D01*
X648595D01*
X650249Y455925D01*
X651515Y457191D01*
X652200Y458845D01*
Y460635D01*
X651515Y462289D01*
X650249Y463555D01*
X648595Y464240D01*
D02*
G37*
G36*
X573345Y456520D02*
X571555D01*
X569901Y455835D01*
X568635Y454569D01*
X567950Y452915D01*
Y451125D01*
X568635Y449471D01*
X569901Y448205D01*
X571555Y447520D01*
X573345D01*
X574999Y448205D01*
X576265Y449471D01*
X576950Y451125D01*
Y452915D01*
X576265Y454569D01*
X574999Y455835D01*
X573345Y456520D01*
D02*
G37*
G36*
X648595Y436300D02*
X646805D01*
X645151Y435615D01*
X643885Y434349D01*
X643200Y432695D01*
Y430905D01*
X643885Y429251D01*
X645151Y427985D01*
X646805Y427300D01*
X648595D01*
X650249Y427985D01*
X651515Y429251D01*
X652200Y430905D01*
Y432695D01*
X651515Y434349D01*
X650249Y435615D01*
X648595Y436300D01*
D02*
G37*
G36*
X560345D02*
X558555D01*
X556901Y435615D01*
X555635Y434349D01*
X554950Y432695D01*
Y430905D01*
X555635Y429251D01*
X556901Y427985D01*
X558555Y427300D01*
X560345D01*
X561999Y427985D01*
X563265Y429251D01*
X563950Y430905D01*
Y432695D01*
X563265Y434349D01*
X561999Y435615D01*
X560345Y436300D01*
D02*
G37*
G36*
X547345D02*
X545555D01*
X543901Y435615D01*
X542635Y434349D01*
X541950Y432695D01*
Y430905D01*
X542635Y429251D01*
X543901Y427985D01*
X545555Y427300D01*
X547345D01*
X548999Y427985D01*
X550265Y429251D01*
X550950Y430905D01*
Y432695D01*
X550265Y434349D01*
X548999Y435615D01*
X547345Y436300D01*
D02*
G37*
G36*
X518545Y434540D02*
X516755D01*
X515101Y433855D01*
X513835Y432589D01*
X513150Y430935D01*
Y429145D01*
X513835Y427491D01*
X515101Y426225D01*
X516755Y425540D01*
X518545D01*
X520199Y426225D01*
X521465Y427491D01*
X522150Y429145D01*
Y430935D01*
X521465Y432589D01*
X520199Y433855D01*
X518545Y434540D01*
D02*
G37*
G36*
X492535Y433760D02*
X490745D01*
X489091Y433075D01*
X487825Y431809D01*
X487140Y430155D01*
Y428365D01*
X487825Y426711D01*
X489091Y425445D01*
X490745Y424760D01*
X492535D01*
X494189Y425445D01*
X495455Y426711D01*
X496140Y428365D01*
Y430155D01*
X495455Y431809D01*
X494189Y433075D01*
X492535Y433760D01*
D02*
G37*
G36*
X612345Y408849D02*
X610555D01*
X608901Y408164D01*
X607635Y406898D01*
X606950Y405244D01*
Y403454D01*
X607635Y401800D01*
X608901Y400534D01*
X610555Y399849D01*
X612345D01*
X613999Y400534D01*
X615265Y401800D01*
X615950Y403454D01*
Y405244D01*
X615265Y406898D01*
X613999Y408164D01*
X612345Y408849D01*
D02*
G37*
G36*
X599345Y401030D02*
X597555D01*
X595901Y400345D01*
X594635Y399079D01*
X593950Y397425D01*
Y395635D01*
X594635Y393981D01*
X595901Y392715D01*
X597555Y392030D01*
X599345D01*
X600999Y392715D01*
X602265Y393981D01*
X602950Y395635D01*
Y397425D01*
X602265Y399079D01*
X600999Y400345D01*
X599345Y401030D01*
D02*
G37*
G36*
X823842Y390620D02*
X821845Y390620D01*
X822542Y388937D01*
X820195Y387965D01*
X819498Y389648D01*
X818085Y388235D01*
X817248Y386214D01*
X817248Y384216D01*
X818931Y384913D01*
X819903Y382567D01*
X818220Y381870D01*
X819633Y380457D01*
X821654Y379620D01*
X823652Y379620D01*
X822955Y381302D01*
X825301Y382274D01*
X825998Y380592D01*
X827411Y382004D01*
X828248Y384026D01*
X828248Y386023D01*
X826566Y385326D01*
X825594Y387673D01*
X827276Y388370D01*
X825864Y389783D01*
X823842Y390620D01*
D02*
G37*
G36*
X45842D02*
X43845Y390620D01*
X44542Y388937D01*
X42195Y387965D01*
X41498Y389648D01*
X40086Y388235D01*
X39248Y386214D01*
X39248Y384216D01*
X40931Y384913D01*
X41903Y382567D01*
X40220Y381870D01*
X41633Y380457D01*
X43654Y379620D01*
X45652Y379620D01*
X44955Y381302D01*
X47301Y382274D01*
X47998Y380592D01*
X49411Y382004D01*
X50248Y384026D01*
X50248Y386023D01*
X48566Y385326D01*
X47594Y387673D01*
X49276Y388370D01*
X47864Y389783D01*
X45842Y390620D01*
D02*
G37*
G36*
X804158Y390620D02*
X802136Y389783D01*
X800724Y388370D01*
X802406Y387673D01*
X801434Y385326D01*
X799752Y386023D01*
X799752Y384026D01*
X800589Y382004D01*
X802002Y380592D01*
X802699Y382274D01*
X805045Y381302D01*
X804348Y379620D01*
X806346Y379620D01*
X808367Y380457D01*
X809780Y381870D01*
X808097Y382567D01*
X809069Y384913D01*
X810752Y384216D01*
X810752Y386214D01*
X809914Y388235D01*
X808502Y389648D01*
X807805Y387965D01*
X805459Y388937D01*
X806155Y390620D01*
X804158Y390620D01*
D02*
G37*
G36*
X26158D02*
X24136Y389783D01*
X22724Y388370D01*
X24406Y387673D01*
X23434Y385326D01*
X21752Y386023D01*
X21752Y384026D01*
X22589Y382004D01*
X24002Y380592D01*
X24699Y382274D01*
X27045Y381302D01*
X26348Y379620D01*
X28346Y379620D01*
X30367Y380457D01*
X31780Y381870D01*
X30097Y382567D01*
X31069Y384913D01*
X32752Y384216D01*
X32752Y386214D01*
X31915Y388235D01*
X30502Y389648D01*
X29805Y387965D01*
X27459Y388937D01*
X28155Y390620D01*
X26158Y390620D01*
D02*
G37*
G36*
X586345Y392883D02*
X584555D01*
X582901Y392198D01*
X581635Y390932D01*
X580950Y389278D01*
Y387488D01*
X581635Y385834D01*
X582901Y384568D01*
X584555Y383883D01*
X586345D01*
X587999Y384568D01*
X589265Y385834D01*
X589950Y387488D01*
Y389278D01*
X589265Y390932D01*
X587999Y392198D01*
X586345Y392883D01*
D02*
G37*
G36*
X793974Y378248D02*
X791977Y378248D01*
X792673Y376566D01*
X790327Y375594D01*
X789630Y377276D01*
X788217Y375864D01*
X787380Y373842D01*
X787380Y371845D01*
X789063Y372542D01*
X790035Y370195D01*
X788352Y369498D01*
X789765Y368086D01*
X791786Y367248D01*
X793784Y367248D01*
X793087Y368931D01*
X795433Y369903D01*
X796130Y368220D01*
X797543Y369633D01*
X798380Y371654D01*
X798380Y373652D01*
X796698Y372955D01*
X795726Y375301D01*
X797408Y375998D01*
X795996Y377411D01*
X793974Y378248D01*
D02*
G37*
G36*
X15974D02*
X13977Y378248D01*
X14674Y376566D01*
X12327Y375594D01*
X11630Y377276D01*
X10217Y375864D01*
X9380Y373842D01*
X9380Y371845D01*
X11063Y372542D01*
X12035Y370195D01*
X10352Y369498D01*
X11765Y368086D01*
X13786Y367248D01*
X15784Y367248D01*
X15087Y368931D01*
X17433Y369903D01*
X18130Y368220D01*
X19543Y369633D01*
X20380Y371654D01*
X20380Y373652D01*
X18698Y372955D01*
X17726Y375301D01*
X19408Y375998D01*
X17996Y377411D01*
X15974Y378248D01*
D02*
G37*
G36*
X573345Y384520D02*
X571555D01*
X569901Y383835D01*
X568635Y382569D01*
X567950Y380915D01*
Y379125D01*
X568635Y377471D01*
X569901Y376205D01*
X571555Y375520D01*
X573345D01*
X574999Y376205D01*
X576265Y377471D01*
X576950Y379125D01*
Y380915D01*
X576265Y382569D01*
X574999Y383835D01*
X573345Y384520D01*
D02*
G37*
G36*
X834026Y378248D02*
X832004Y377411D01*
X830592Y375998D01*
X832274Y375301D01*
X831302Y372955D01*
X829620Y373652D01*
X829620Y371654D01*
X830457Y369633D01*
X831870Y368220D01*
X832567Y369903D01*
X834913Y368931D01*
X834216Y367248D01*
X836214Y367248D01*
X838235Y368086D01*
X839648Y369498D01*
X837965Y370195D01*
X838937Y372542D01*
X840620Y371845D01*
X840620Y373842D01*
X839783Y375864D01*
X838370Y377276D01*
X837673Y375594D01*
X835327Y376566D01*
X836023Y378248D01*
X834026Y378248D01*
D02*
G37*
G36*
X56026D02*
X54004Y377411D01*
X52592Y375998D01*
X54274Y375301D01*
X53302Y372955D01*
X51620Y373652D01*
X51620Y371654D01*
X52457Y369633D01*
X53870Y368220D01*
X54567Y369903D01*
X56913Y368931D01*
X56216Y367248D01*
X58214Y367248D01*
X60235Y368086D01*
X61648Y369498D01*
X59965Y370195D01*
X60937Y372542D01*
X62620Y371845D01*
X62620Y373842D01*
X61783Y375864D01*
X60370Y377276D01*
X59673Y375594D01*
X57326Y376566D01*
X58023Y378248D01*
X56026Y378248D01*
D02*
G37*
G36*
X539793Y367306D02*
X538003D01*
X536349Y366621D01*
X535083Y365355D01*
X534398Y363701D01*
Y361911D01*
X535083Y360257D01*
X536349Y358991D01*
X538003Y358306D01*
X539793D01*
X541447Y358991D01*
X542713Y360257D01*
X543398Y361911D01*
Y363701D01*
X542713Y365355D01*
X541447Y366621D01*
X539793Y367306D01*
D02*
G37*
G36*
X836214Y360752D02*
X834216Y360752D01*
X834913Y359069D01*
X832567Y358097D01*
X831870Y359780D01*
X830457Y358367D01*
X829620Y356346D01*
X829620Y354348D01*
X831302Y355045D01*
X832274Y352699D01*
X830592Y352002D01*
X832004Y350589D01*
X834026Y349752D01*
X836023Y349752D01*
X835327Y351434D01*
X837673Y352406D01*
X838094Y351390D01*
X839037D01*
X839782Y352136D01*
X840620Y354158D01*
X840620Y356155D01*
X838937Y355458D01*
X837965Y357805D01*
X839648Y358502D01*
X838235Y359915D01*
X836214Y360752D01*
D02*
G37*
G36*
X58214D02*
X56216Y360752D01*
X56913Y359069D01*
X54567Y358097D01*
X53870Y359780D01*
X52457Y358367D01*
X51620Y356346D01*
X51620Y354348D01*
X53302Y355045D01*
X54274Y352699D01*
X52592Y352002D01*
X54004Y350589D01*
X56026Y349752D01*
X58023Y349752D01*
X57326Y351434D01*
X59673Y352406D01*
X60370Y350724D01*
X61783Y352136D01*
X62620Y354158D01*
X62620Y356155D01*
X60937Y355458D01*
X59965Y357805D01*
X61648Y358502D01*
X60235Y359915D01*
X58214Y360752D01*
D02*
G37*
G36*
X791786D02*
X789765Y359915D01*
X788352Y358502D01*
X790035Y357805D01*
X789063Y355458D01*
X787380Y356155D01*
X787380Y354158D01*
X788217Y352136D01*
X789630Y350724D01*
X790327Y352406D01*
X792673Y351434D01*
X791977Y349752D01*
X793974Y349752D01*
X795996Y350589D01*
X797408Y352002D01*
X795726Y352699D01*
X796698Y355045D01*
X798380Y354348D01*
X798380Y356346D01*
X797543Y358367D01*
X796130Y359780D01*
X795433Y358097D01*
X793087Y359069D01*
X793784Y360752D01*
X791786Y360752D01*
D02*
G37*
G36*
X13786D02*
X11765Y359915D01*
X10352Y358502D01*
X12035Y357805D01*
X11063Y355458D01*
X9380Y356155D01*
X9380Y354158D01*
X10217Y352136D01*
X11630Y350724D01*
X12327Y352406D01*
X14674Y351434D01*
X13977Y349752D01*
X15974Y349752D01*
X17996Y350589D01*
X19408Y352002D01*
X17726Y352699D01*
X18698Y355045D01*
X20380Y354348D01*
X20380Y356346D01*
X19543Y358367D01*
X18130Y359780D01*
X17433Y358097D01*
X15087Y359069D01*
X15784Y360752D01*
X13786Y360752D01*
D02*
G37*
G36*
X527215Y353310D02*
X525425D01*
X523771Y352625D01*
X522742Y351595D01*
X521985Y351455D01*
X521228Y351595D01*
X520199Y352625D01*
X518545Y353310D01*
X516755D01*
X515101Y352625D01*
X513835Y351359D01*
X513150Y349705D01*
Y347915D01*
X513835Y346261D01*
X515101Y344995D01*
X516755Y344310D01*
X518545D01*
X520199Y344995D01*
X521228Y346025D01*
X521985Y346165D01*
X522742Y346025D01*
X523771Y344995D01*
X525425Y344310D01*
X527215D01*
X528869Y344995D01*
X530135Y346261D01*
X530820Y347915D01*
Y349705D01*
X530135Y351359D01*
X528869Y352625D01*
X527215Y353310D01*
D02*
G37*
G36*
X838172Y351201D02*
X838370Y350724D01*
X838766Y351119D01*
X838172Y351201D01*
D02*
G37*
G36*
X806346Y348380D02*
X804348Y348380D01*
X805045Y346698D01*
X802699Y345726D01*
X802002Y347408D01*
X800589Y345996D01*
X799752Y343974D01*
X799752Y341977D01*
X801434Y342673D01*
X802406Y340327D01*
X800724Y339630D01*
X802136Y338218D01*
X804158Y337380D01*
X806155Y337380D01*
X805459Y339063D01*
X807805Y340035D01*
X808502Y338352D01*
X809914Y339765D01*
X810752Y341786D01*
X810752Y343784D01*
X809069Y343087D01*
X808097Y345433D01*
X809780Y346130D01*
X808367Y347543D01*
X806346Y348380D01*
D02*
G37*
G36*
X28346D02*
X26348Y348380D01*
X27045Y346698D01*
X24699Y345726D01*
X24002Y347408D01*
X22589Y345996D01*
X21752Y343974D01*
X21752Y341977D01*
X23434Y342673D01*
X24406Y340327D01*
X22724Y339630D01*
X24136Y338218D01*
X26158Y337380D01*
X28155Y337380D01*
X27459Y339063D01*
X29805Y340035D01*
X30502Y338352D01*
X31915Y339765D01*
X32752Y341786D01*
X32752Y343784D01*
X31069Y343087D01*
X30097Y345433D01*
X31780Y346130D01*
X30367Y347543D01*
X28346Y348380D01*
D02*
G37*
G36*
X705745Y353310D02*
X703955D01*
X702301Y352625D01*
X701035Y351359D01*
X700350Y349705D01*
Y347915D01*
X701035Y346261D01*
X702301Y344995D01*
X703955Y344310D01*
X705745D01*
X707399Y344995D01*
X708665Y346261D01*
X709350Y347915D01*
Y349705D01*
X708665Y351359D01*
X707399Y352625D01*
X705745Y353310D01*
D02*
G37*
G36*
X560345D02*
X558555D01*
X556901Y352625D01*
X555635Y351359D01*
X554950Y349705D01*
Y347915D01*
X555635Y346261D01*
X556901Y344995D01*
X558555Y344310D01*
X560345D01*
X561999Y344995D01*
X563265Y346261D01*
X563950Y347915D01*
Y349705D01*
X563265Y351359D01*
X561999Y352625D01*
X560345Y353310D01*
D02*
G37*
G36*
X492535D02*
X490745D01*
X489091Y352625D01*
X487825Y351359D01*
X487140Y349705D01*
Y347915D01*
X487825Y346261D01*
X489091Y344995D01*
X490745Y344310D01*
X492535D01*
X494189Y344995D01*
X495455Y346261D01*
X496140Y347915D01*
Y349705D01*
X495455Y351359D01*
X494189Y352625D01*
X492535Y353310D01*
D02*
G37*
G36*
X821654Y348380D02*
X819633Y347543D01*
X818220Y346130D01*
X819903Y345433D01*
X818931Y343087D01*
X817248Y343784D01*
X817248Y341786D01*
X818085Y339765D01*
X819498Y338352D01*
X820195Y340035D01*
X822542Y339063D01*
X821845Y337380D01*
X823842Y337380D01*
X825864Y338217D01*
X827276Y339630D01*
X825594Y340327D01*
X826566Y342673D01*
X828248Y341977D01*
X828248Y343974D01*
X827411Y345996D01*
X825998Y347408D01*
X825301Y345726D01*
X822955Y346698D01*
X823652Y348380D01*
X821654Y348380D01*
D02*
G37*
G36*
X43654D02*
X41633Y347543D01*
X40220Y346130D01*
X41903Y345433D01*
X40931Y343087D01*
X39248Y343784D01*
X39248Y341786D01*
X40086Y339765D01*
X41498Y338352D01*
X42195Y340035D01*
X44542Y339063D01*
X43845Y337380D01*
X45842Y337380D01*
X47864Y338217D01*
X49276Y339630D01*
X47594Y340327D01*
X48566Y342673D01*
X50248Y341977D01*
X50248Y343974D01*
X49411Y345996D01*
X47998Y347408D01*
X47301Y345726D01*
X44955Y346698D01*
X45652Y348380D01*
X43654Y348380D01*
D02*
G37*
G36*
X459740Y741689D02*
X99060D01*
X98085Y741495D01*
X97258Y740942D01*
X96705Y740115D01*
X96511Y739140D01*
Y332740D01*
X96705Y331765D01*
X97258Y330938D01*
X98085Y330385D01*
X99060Y330191D01*
X459740D01*
X460715Y330385D01*
X461542Y330938D01*
X462095Y331765D01*
X462289Y332740D01*
X462289Y739140D01*
X462095Y740115D01*
X461542Y740942D01*
X460715Y741495D01*
X459740Y741689D01*
D02*
G37*
G36*
X730231Y335970D02*
X728441D01*
X726787Y335285D01*
X725521Y334019D01*
X724836Y332365D01*
Y330575D01*
X725521Y328921D01*
X726787Y327655D01*
X728441Y326970D01*
X730231D01*
X731885Y327655D01*
X733151Y328921D01*
X733836Y330575D01*
Y332365D01*
X733151Y334019D01*
X731885Y335285D01*
X730231Y335970D01*
D02*
G37*
G36*
X539845D02*
X538055D01*
X536401Y335285D01*
X535135Y334019D01*
X534450Y332365D01*
Y330575D01*
X535135Y328921D01*
X536401Y327655D01*
X538055Y326970D01*
X539845D01*
X541499Y327655D01*
X542765Y328921D01*
X543450Y330575D01*
Y332365D01*
X542765Y334019D01*
X541499Y335285D01*
X539845Y335970D01*
D02*
G37*
G36*
X756545Y324540D02*
X754755D01*
X753101Y323855D01*
X751840Y322594D01*
X750579Y323855D01*
X748925Y324540D01*
X747135D01*
X745481Y323855D01*
X744880Y323254D01*
X744050Y322699D01*
X743221Y323254D01*
X742620Y323855D01*
X740966Y324540D01*
X739175D01*
X737522Y323855D01*
X736256Y322589D01*
X735571Y320935D01*
Y319145D01*
X736256Y317491D01*
X737522Y316225D01*
X739175Y315540D01*
X740966D01*
X742620Y316225D01*
X743221Y316826D01*
X744050Y317381D01*
X744880Y316826D01*
X745481Y316225D01*
X747135Y315540D01*
X748925D01*
X750579Y316225D01*
X751840Y317486D01*
X753101Y316225D01*
X754755Y315540D01*
X756545D01*
X758199Y316225D01*
X759465Y317491D01*
X760150Y319145D01*
Y320935D01*
X759465Y322589D01*
X758199Y323855D01*
X756545Y324540D01*
D02*
G37*
G36*
X160915D02*
X159125D01*
X157471Y323855D01*
X156210Y322594D01*
X154949Y323855D01*
X153295Y324540D01*
X151505D01*
X149851Y323855D01*
X148710Y322714D01*
X147569Y323855D01*
X145915Y324540D01*
X144125D01*
X142471Y323855D01*
X141920Y323304D01*
X141090Y322676D01*
X140260Y323304D01*
X139709Y323855D01*
X138055Y324540D01*
X136265D01*
X134611Y323855D01*
X133345Y322589D01*
X132660Y320935D01*
Y319145D01*
X133345Y317491D01*
X134606Y316230D01*
X133345Y314969D01*
X132660Y313315D01*
Y311525D01*
X133345Y309871D01*
X134611Y308605D01*
X136132Y307975D01*
X136201Y307340D01*
X136132Y306705D01*
X134611Y306075D01*
X133345Y304809D01*
X132660Y303155D01*
Y301365D01*
X133345Y299711D01*
X134611Y298445D01*
X136265Y297760D01*
X138055D01*
X139709Y298445D01*
X140260Y298996D01*
X141090Y299624D01*
X141920Y298996D01*
X142471Y298445D01*
X144125Y297760D01*
X145915D01*
X147569Y298445D01*
X148710Y299586D01*
X149851Y298445D01*
X151505Y297760D01*
X153295D01*
X154949Y298445D01*
X156210Y299706D01*
X157471Y298445D01*
X159125Y297760D01*
X160915D01*
X162569Y298445D01*
X163835Y299711D01*
X164520Y301365D01*
Y303155D01*
X163835Y304809D01*
X162569Y306075D01*
X162296Y306188D01*
Y307563D01*
X162569Y307675D01*
X163835Y308941D01*
X164520Y310595D01*
Y312386D01*
X163835Y314039D01*
X162891Y314984D01*
X162688Y315765D01*
X162891Y316547D01*
X163835Y317491D01*
X164520Y319145D01*
Y320935D01*
X163835Y322589D01*
X162569Y323855D01*
X160915Y324540D01*
D02*
G37*
G36*
X756545Y309300D02*
X754755D01*
X753101Y308615D01*
X751840Y307354D01*
X750579Y308615D01*
X748925Y309300D01*
X747135D01*
X745481Y308615D01*
X744880Y308014D01*
X744050Y307459D01*
X743221Y308014D01*
X742620Y308615D01*
X740966Y309300D01*
X739175D01*
X737522Y308615D01*
X736256Y307349D01*
X735571Y305695D01*
Y303905D01*
X736256Y302251D01*
X737522Y300985D01*
X739175Y300300D01*
X740966D01*
X742620Y300985D01*
X743221Y301586D01*
X744050Y302141D01*
X744880Y301586D01*
X745481Y300985D01*
X747135Y300300D01*
X748925D01*
X750579Y300985D01*
X751840Y302246D01*
X753101Y300985D01*
X754755Y300300D01*
X756545D01*
X758199Y300985D01*
X759465Y302251D01*
X760150Y303905D01*
Y305695D01*
X759465Y307349D01*
X758199Y308615D01*
X756545Y309300D01*
D02*
G37*
G36*
X648595Y291393D02*
X646805D01*
X645151Y290708D01*
X643885Y289442D01*
X643200Y287788D01*
Y285998D01*
X643885Y284344D01*
X645151Y283078D01*
X646805Y282393D01*
X648595D01*
X650249Y283078D01*
X651515Y284344D01*
X652200Y285998D01*
Y287788D01*
X651515Y289442D01*
X650249Y290708D01*
X648595Y291393D01*
D02*
G37*
G36*
X544455D02*
X542665D01*
X541011Y290708D01*
X539745Y289442D01*
X539060Y287788D01*
Y285998D01*
X539745Y284344D01*
X541011Y283078D01*
X542665Y282393D01*
X544455D01*
X546109Y283078D01*
X547375Y284344D01*
X548060Y285998D01*
Y287788D01*
X547375Y289442D01*
X546109Y290708D01*
X544455Y291393D01*
D02*
G37*
G36*
X450208Y291315D02*
X448418D01*
X446764Y290630D01*
X445498Y289364D01*
X444813Y287710D01*
Y285920D01*
X445498Y284266D01*
X446764Y283000D01*
X448418Y282315D01*
X450208D01*
X451862Y283000D01*
X453128Y284266D01*
X453813Y285920D01*
Y287710D01*
X453128Y289364D01*
X451862Y290630D01*
X450208Y291315D01*
D02*
G37*
G36*
X824319Y282620D02*
X822321Y282620D01*
X823018Y280937D01*
X820672Y279965D01*
X819975Y281648D01*
X818562Y280235D01*
X817725Y278214D01*
X817725Y276216D01*
X819408Y276913D01*
X820380Y274567D01*
X818697Y273870D01*
X820109Y272457D01*
X822131Y271620D01*
X824129Y271620D01*
X823432Y273302D01*
X825778Y274274D01*
X826475Y272592D01*
X827888Y274004D01*
X828725Y276026D01*
X828725Y278023D01*
X827042Y277327D01*
X826070Y279673D01*
X827753Y280370D01*
X826340Y281782D01*
X824319Y282620D01*
D02*
G37*
G36*
X45842D02*
X43845Y282620D01*
X44542Y280937D01*
X42195Y279965D01*
X41498Y281648D01*
X40086Y280235D01*
X39248Y278214D01*
X39248Y276216D01*
X40931Y276913D01*
X41903Y274567D01*
X40220Y273870D01*
X41633Y272457D01*
X43654Y271620D01*
X45652Y271620D01*
X44955Y273302D01*
X47301Y274274D01*
X47998Y272592D01*
X49411Y274004D01*
X50248Y276026D01*
X50248Y278023D01*
X48566Y277327D01*
X47594Y279673D01*
X49276Y280370D01*
X47864Y281782D01*
X45842Y282620D01*
D02*
G37*
G36*
X804635Y282620D02*
X802613Y281783D01*
X801201Y280370D01*
X802883Y279673D01*
X801911Y277327D01*
X800229Y278023D01*
X800229Y276026D01*
X801066Y274004D01*
X802479Y272592D01*
X803176Y274274D01*
X805522Y273302D01*
X804825Y271620D01*
X806823Y271620D01*
X808844Y272457D01*
X810257Y273870D01*
X808574Y274567D01*
X809546Y276913D01*
X811229Y276216D01*
X811229Y278214D01*
X810391Y280235D01*
X808979Y281648D01*
X808282Y279965D01*
X805935Y280937D01*
X806632Y282620D01*
X804635Y282620D01*
D02*
G37*
G36*
X26158D02*
X24136Y281783D01*
X22724Y280370D01*
X24406Y279673D01*
X23434Y277327D01*
X21752Y278023D01*
X21752Y276026D01*
X22589Y274004D01*
X24002Y272592D01*
X24699Y274274D01*
X27045Y273302D01*
X26348Y271620D01*
X28346Y271620D01*
X30367Y272457D01*
X31780Y273870D01*
X30097Y274567D01*
X31069Y276913D01*
X32752Y276216D01*
X32752Y278214D01*
X31915Y280235D01*
X30502Y281648D01*
X29805Y279965D01*
X27459Y280937D01*
X28155Y282620D01*
X26158Y282620D01*
D02*
G37*
G36*
X552612Y278820D02*
X550822D01*
X549168Y278135D01*
X547902Y276869D01*
X547217Y275215D01*
Y273425D01*
X547902Y271771D01*
X549168Y270505D01*
X550822Y269820D01*
X552612D01*
X554266Y270505D01*
X555532Y271771D01*
X556217Y273425D01*
Y275215D01*
X555532Y276869D01*
X554266Y278135D01*
X552612Y278820D01*
D02*
G37*
G36*
X421913D02*
X420123D01*
X418469Y278135D01*
X417203Y276869D01*
X416518Y275215D01*
Y273425D01*
X417203Y271771D01*
X418469Y270505D01*
X420123Y269820D01*
X421913D01*
X423567Y270505D01*
X424833Y271771D01*
X425518Y273425D01*
Y275215D01*
X424833Y276869D01*
X423567Y278135D01*
X421913Y278820D01*
D02*
G37*
G36*
X794451Y270248D02*
X792454Y270248D01*
X793150Y268566D01*
X790804Y267594D01*
X790107Y269276D01*
X788694Y267864D01*
X787857Y265842D01*
X787857Y263845D01*
X789539Y264541D01*
X790512Y262195D01*
X788829Y261498D01*
X790241Y260086D01*
X792263Y259248D01*
X794260Y259248D01*
X793564Y260931D01*
X795910Y261903D01*
X796607Y260220D01*
X798020Y261633D01*
X798857Y263654D01*
X798857Y265652D01*
X797175Y264955D01*
X796202Y267301D01*
X797885Y267998D01*
X796472Y269411D01*
X794451Y270248D01*
D02*
G37*
G36*
X15974D02*
X13977Y270248D01*
X14674Y268566D01*
X12327Y267594D01*
X11630Y269276D01*
X10217Y267864D01*
X9607Y266388D01*
X9380Y265458D01*
X9380Y263845D01*
X11063Y264541D01*
X12035Y262195D01*
X10352Y261498D01*
X11765Y260086D01*
X13786Y259248D01*
X15784Y259248D01*
X15087Y260931D01*
X17433Y261903D01*
X18130Y260220D01*
X19543Y261633D01*
X20380Y263654D01*
X20380Y265652D01*
X18698Y264955D01*
X17726Y267301D01*
X19408Y267998D01*
X17996Y269411D01*
X15974Y270248D01*
D02*
G37*
G36*
X834503D02*
X832481Y269411D01*
X831069Y267998D01*
X832751Y267301D01*
X831779Y264955D01*
X830097Y265652D01*
X830097Y263654D01*
X830934Y261633D01*
X832347Y260220D01*
X833044Y261903D01*
X835390Y260931D01*
X834693Y259248D01*
X836691Y259248D01*
X838712Y260086D01*
X840125Y261498D01*
X838442Y262195D01*
X839414Y264541D01*
X841097Y263845D01*
X841097Y265842D01*
X840259Y267864D01*
X838847Y269276D01*
X838150Y267594D01*
X835803Y268566D01*
X836500Y270248D01*
X834503Y270248D01*
D02*
G37*
G36*
X56026D02*
X54004Y269411D01*
X52592Y267998D01*
X54274Y267301D01*
X53302Y264955D01*
X51620Y265652D01*
X51620Y263654D01*
X52457Y261633D01*
X53870Y260220D01*
X54567Y261903D01*
X56913Y260931D01*
X56216Y259248D01*
X58214Y259248D01*
X60235Y260086D01*
X61648Y261498D01*
X59965Y262195D01*
X60937Y264541D01*
X62620Y263845D01*
X62620Y265842D01*
X61783Y267864D01*
X60370Y269276D01*
X59673Y267594D01*
X57326Y268566D01*
X58023Y270248D01*
X56026Y270248D01*
D02*
G37*
G36*
X229495Y278820D02*
X227705D01*
X226051Y278135D01*
X224785Y276869D01*
X224100Y275215D01*
Y273425D01*
X224781Y271780D01*
X224100Y270135D01*
Y268345D01*
X224785Y266691D01*
X225137Y266339D01*
X224785Y265987D01*
X224100Y264333D01*
Y262543D01*
X224785Y260889D01*
X226051Y259624D01*
X227705Y258938D01*
X229495D01*
X231149Y259624D01*
X232415Y260889D01*
X233100Y262543D01*
Y264333D01*
X232415Y265987D01*
X232063Y266339D01*
X232415Y266691D01*
X233100Y268345D01*
Y270135D01*
X232419Y271780D01*
X233100Y273425D01*
Y275215D01*
X232415Y276869D01*
X231149Y278135D01*
X229495Y278820D01*
D02*
G37*
G36*
X463175Y261040D02*
X461385D01*
X459731Y260355D01*
X458465Y259089D01*
X457780Y257435D01*
Y255645D01*
X458465Y253991D01*
X459731Y252725D01*
X461385Y252040D01*
X463175D01*
X464829Y252725D01*
X466095Y253991D01*
X466780Y255645D01*
Y257435D01*
X466095Y259089D01*
X464829Y260355D01*
X463175Y261040D01*
D02*
G37*
G36*
X836691Y252752D02*
X834693Y252752D01*
X835390Y251069D01*
X833044Y250097D01*
X832347Y251780D01*
X830934Y250367D01*
X830097Y248346D01*
X830097Y246348D01*
X831779Y247045D01*
X832751Y244699D01*
X831069Y244002D01*
X832481Y242589D01*
X834503Y241752D01*
X836500Y241752D01*
X835803Y243434D01*
X838150Y244406D01*
X838847Y242724D01*
X840259Y244136D01*
X841097Y246158D01*
X841097Y248155D01*
X839414Y247458D01*
X838442Y249805D01*
X840125Y250502D01*
X838712Y251915D01*
X836691Y252752D01*
D02*
G37*
G36*
X58214D02*
X56216Y252752D01*
X56913Y251069D01*
X54567Y250097D01*
X53870Y251780D01*
X52457Y250367D01*
X51620Y248346D01*
X51620Y246348D01*
X53302Y247045D01*
X54274Y244699D01*
X52592Y244002D01*
X54004Y242589D01*
X56026Y241752D01*
X58023Y241752D01*
X57326Y243434D01*
X59673Y244406D01*
X60370Y242724D01*
X61783Y244136D01*
X62620Y246158D01*
X62620Y248155D01*
X60937Y247458D01*
X59965Y249805D01*
X61648Y250502D01*
X60235Y251915D01*
X58214Y252752D01*
D02*
G37*
G36*
X421913Y256962D02*
X420123D01*
X418469Y256277D01*
X417203Y255011D01*
X416518Y253357D01*
Y251567D01*
X417203Y249913D01*
X418469Y248647D01*
X420123Y247962D01*
X421913D01*
X423567Y248647D01*
X424833Y249913D01*
X425518Y251567D01*
Y253357D01*
X424833Y255011D01*
X423567Y256277D01*
X421913Y256962D01*
D02*
G37*
G36*
X792263Y252752D02*
X790241Y251915D01*
X788829Y250502D01*
X790511Y249805D01*
X789539Y247458D01*
X787857Y248155D01*
X787857Y246158D01*
X788694Y244136D01*
X790107Y242724D01*
X790804Y244406D01*
X793150Y243434D01*
X792454Y241752D01*
X794451Y241752D01*
X796472Y242589D01*
X797885Y244002D01*
X796202Y244699D01*
X797175Y247045D01*
X798857Y246348D01*
X798857Y248346D01*
X798020Y250367D01*
X796607Y251780D01*
X795910Y250097D01*
X793564Y251069D01*
X794260Y252752D01*
X792263Y252752D01*
D02*
G37*
G36*
X13786D02*
X11765Y251915D01*
X10352Y250502D01*
X12035Y249805D01*
X11063Y247458D01*
X9380Y248155D01*
X9380Y246158D01*
X10217Y244136D01*
X11630Y242724D01*
X12327Y244406D01*
X14674Y243434D01*
X13977Y241752D01*
X15974Y241752D01*
X17996Y242589D01*
X19408Y244002D01*
X17726Y244699D01*
X18698Y247045D01*
X20380Y246348D01*
X20380Y248346D01*
X19543Y250367D01*
X18130Y251780D01*
X17433Y250097D01*
X15087Y251069D01*
X15784Y252752D01*
X13786Y252752D01*
D02*
G37*
G36*
X698125Y247617D02*
X696335D01*
X694681Y246931D01*
X693415Y245666D01*
X692730Y244012D01*
Y242222D01*
X693415Y240568D01*
X694681Y239302D01*
X696335Y238617D01*
X698125D01*
X699779Y239302D01*
X701045Y240568D01*
X701730Y242222D01*
Y244012D01*
X701045Y245666D01*
X699779Y246931D01*
X698125Y247617D01*
D02*
G37*
G36*
X408565D02*
X406775D01*
X405121Y246931D01*
X403855Y245666D01*
X403170Y244012D01*
Y242222D01*
X403855Y240568D01*
X405121Y239302D01*
X406775Y238617D01*
X408565D01*
X410219Y239302D01*
X411485Y240568D01*
X412170Y242222D01*
Y244012D01*
X411485Y245666D01*
X410219Y246931D01*
X408565Y247617D01*
D02*
G37*
G36*
X806823Y240380D02*
X804825Y240380D01*
X805522Y238698D01*
X803176Y237726D01*
X802479Y239408D01*
X801066Y237996D01*
X800229Y235974D01*
X800229Y233977D01*
X801911Y234674D01*
X802883Y232327D01*
X801201Y231630D01*
X802613Y230217D01*
X804635Y229380D01*
X806632Y229380D01*
X805935Y231063D01*
X808282Y232035D01*
X808979Y230352D01*
X810391Y231765D01*
X811229Y233786D01*
X811229Y235784D01*
X809546Y235087D01*
X808574Y237433D01*
X810257Y238130D01*
X808844Y239543D01*
X806823Y240380D01*
D02*
G37*
G36*
X28346D02*
X26348Y240380D01*
X27045Y238698D01*
X24699Y237726D01*
X24002Y239408D01*
X22589Y237996D01*
X21752Y235974D01*
X21752Y233977D01*
X23434Y234674D01*
X24406Y232327D01*
X22724Y231630D01*
X24136Y230217D01*
X26158Y229380D01*
X28155Y229380D01*
X27459Y231063D01*
X29805Y232035D01*
X30502Y230352D01*
X31915Y231765D01*
X32752Y233786D01*
X32752Y235784D01*
X31069Y235087D01*
X30097Y237433D01*
X31780Y238130D01*
X30367Y239543D01*
X28346Y240380D01*
D02*
G37*
G36*
X822131Y240380D02*
X820109Y239543D01*
X818697Y238130D01*
X820380Y237433D01*
X819408Y235087D01*
X817725Y235784D01*
X817725Y233786D01*
X818562Y231765D01*
X819975Y230352D01*
X820672Y232035D01*
X823018Y231063D01*
X822321Y229380D01*
X824319Y229380D01*
X826340Y230217D01*
X827753Y231630D01*
X826070Y232327D01*
X827042Y234674D01*
X828725Y233977D01*
X828725Y235974D01*
X827888Y237996D01*
X826475Y239408D01*
X825778Y237726D01*
X823432Y238698D01*
X824129Y240380D01*
X822131Y240380D01*
D02*
G37*
G36*
X43654D02*
X41633Y239543D01*
X40220Y238130D01*
X41903Y237433D01*
X40931Y235087D01*
X39248Y235784D01*
X39248Y233786D01*
X40086Y231765D01*
X41498Y230352D01*
X42195Y232035D01*
X44542Y231063D01*
X43845Y229380D01*
X45842Y229380D01*
X47864Y230217D01*
X49276Y231630D01*
X47594Y232327D01*
X48566Y234674D01*
X50248Y233977D01*
X50248Y235974D01*
X49411Y237996D01*
X47998Y239408D01*
X47301Y237726D01*
X44955Y238698D01*
X45652Y240380D01*
X43654Y240380D01*
D02*
G37*
G36*
X648595Y234940D02*
X646805D01*
X645151Y234255D01*
X643885Y232989D01*
X643200Y231335D01*
Y229545D01*
X643885Y227891D01*
X645151Y226625D01*
X646805Y225940D01*
X648595D01*
X650249Y226625D01*
X651515Y227891D01*
X652200Y229545D01*
Y231335D01*
X651515Y232989D01*
X650249Y234255D01*
X648595Y234940D01*
D02*
G37*
G36*
X483663Y227843D02*
X481873D01*
X480219Y227158D01*
X478953Y225892D01*
X478268Y224238D01*
Y222448D01*
X478953Y220794D01*
X480219Y219528D01*
X481873Y218843D01*
X483663D01*
X485317Y219528D01*
X486583Y220794D01*
X487268Y222448D01*
Y224238D01*
X486583Y225892D01*
X485317Y227158D01*
X483663Y227843D01*
D02*
G37*
G36*
X682885Y221670D02*
X681095D01*
X679441Y220985D01*
X678175Y219719D01*
X677490Y218065D01*
Y216275D01*
X678175Y214621D01*
X679441Y213355D01*
X681095Y212670D01*
X682885D01*
X684539Y213355D01*
X685805Y214621D01*
X686490Y216275D01*
Y218065D01*
X685805Y219719D01*
X684539Y220985D01*
X682885Y221670D01*
D02*
G37*
G36*
X399675Y221493D02*
X397885D01*
X396231Y220808D01*
X394965Y219542D01*
X394280Y217888D01*
Y216098D01*
X394965Y214444D01*
X396231Y213178D01*
X397885Y212493D01*
X399675D01*
X401329Y213178D01*
X402595Y214444D01*
X403280Y216098D01*
Y217888D01*
X402595Y219542D01*
X401329Y220808D01*
X399675Y221493D01*
D02*
G37*
G36*
X511435Y207650D02*
X509645D01*
X507991Y206965D01*
X506725Y205699D01*
X506040Y204045D01*
Y202255D01*
X506725Y200601D01*
X507991Y199335D01*
X509645Y198650D01*
X511435D01*
X513089Y199335D01*
X514355Y200601D01*
X515040Y202255D01*
Y204045D01*
X514355Y205699D01*
X513089Y206965D01*
X511435Y207650D01*
D02*
G37*
G36*
X430715D02*
X428925D01*
X427271Y206965D01*
X426005Y205699D01*
X425320Y204045D01*
Y202255D01*
X426005Y200601D01*
X427271Y199335D01*
X428925Y198650D01*
X430715D01*
X432369Y199335D01*
X433635Y200601D01*
X434320Y202255D01*
Y204045D01*
X433635Y205699D01*
X432369Y206965D01*
X430715Y207650D01*
D02*
G37*
G36*
X432413Y186000D02*
X430623D01*
X428969Y185315D01*
X427703Y184049D01*
X427018Y182395D01*
Y180605D01*
X427703Y178951D01*
X428969Y177685D01*
X430623Y177000D01*
X432413D01*
X434067Y177685D01*
X435333Y178951D01*
X436018Y180605D01*
Y182395D01*
X435333Y184049D01*
X434067Y185315D01*
X432413Y186000D01*
D02*
G37*
G36*
X399675Y179500D02*
X397885D01*
X396231Y178815D01*
X394965Y177549D01*
X394280Y175895D01*
Y174105D01*
X394965Y172451D01*
X396231Y171185D01*
X397885Y170500D01*
X399675D01*
X401329Y171185D01*
X402595Y172451D01*
X403280Y174105D01*
Y175895D01*
X402595Y177549D01*
X401329Y178815D01*
X399675Y179500D01*
D02*
G37*
G36*
X560795Y176926D02*
X559005D01*
X557351Y176241D01*
X556085Y174975D01*
X555400Y173321D01*
Y171531D01*
X556085Y169877D01*
X557351Y168611D01*
X559005Y167926D01*
X560795D01*
X562449Y168611D01*
X563715Y169877D01*
X564400Y171531D01*
Y173321D01*
X563715Y174975D01*
X562449Y176241D01*
X560795Y176926D01*
D02*
G37*
G36*
X597795Y176488D02*
X596005D01*
X594351Y175803D01*
X593085Y174537D01*
X592400Y172883D01*
Y171093D01*
X593085Y169439D01*
X594351Y168173D01*
X596005Y167488D01*
X597795D01*
X599449Y168173D01*
X600715Y169439D01*
X601400Y171093D01*
Y172883D01*
X600715Y174537D01*
X599449Y175803D01*
X597795Y176488D01*
D02*
G37*
G36*
X408565Y173000D02*
X406775D01*
X405121Y172315D01*
X403855Y171049D01*
X403170Y169395D01*
Y167605D01*
X403855Y165951D01*
X405121Y164685D01*
X406775Y164000D01*
X408565D01*
X410219Y164685D01*
X411485Y165951D01*
X412170Y167605D01*
Y169395D01*
X411485Y171049D01*
X410219Y172315D01*
X408565Y173000D01*
D02*
G37*
G36*
X432413Y166500D02*
X430623D01*
X428969Y165815D01*
X427703Y164549D01*
X427018Y162895D01*
Y161105D01*
X427703Y159451D01*
X428969Y158185D01*
X430623Y157500D01*
X432413D01*
X434067Y158185D01*
X435333Y159451D01*
X436018Y161105D01*
Y162895D01*
X435333Y164549D01*
X434067Y165815D01*
X432413Y166500D01*
D02*
G37*
G36*
X408565Y160000D02*
X406775D01*
X405121Y159315D01*
X403855Y158049D01*
X403170Y156395D01*
Y154605D01*
X403855Y152951D01*
X405121Y151685D01*
X406775Y151000D01*
X408565D01*
X410219Y151685D01*
X411485Y152951D01*
X412170Y154605D01*
Y156395D01*
X411485Y158049D01*
X410219Y159315D01*
X408565Y160000D01*
D02*
G37*
G36*
X532305Y157790D02*
X530515D01*
X528861Y157105D01*
X527595Y155839D01*
X526910Y154185D01*
Y152395D01*
X527595Y150741D01*
X528861Y149475D01*
X530515Y148790D01*
X532305D01*
X533959Y149475D01*
X535225Y150741D01*
X535910Y152395D01*
Y154185D01*
X535225Y155839D01*
X533959Y157105D01*
X532305Y157790D01*
D02*
G37*
G36*
X690505Y154985D02*
X688715D01*
X687061Y154300D01*
X685795Y153034D01*
X685110Y151380D01*
Y149590D01*
X685795Y147936D01*
X687061Y146670D01*
X688715Y145985D01*
X690505D01*
X692159Y146670D01*
X693425Y147936D01*
X694110Y149590D01*
Y151380D01*
X693425Y153034D01*
X692159Y154300D01*
X690505Y154985D01*
D02*
G37*
G36*
X408565Y146962D02*
X406775D01*
X405121Y146277D01*
X403855Y145011D01*
X403170Y143357D01*
Y141567D01*
X403855Y139913D01*
X405121Y138647D01*
X406775Y137962D01*
X408565D01*
X410219Y138647D01*
X411485Y139913D01*
X412170Y141567D01*
Y143357D01*
X411485Y145011D01*
X410219Y146277D01*
X408565Y146962D01*
D02*
G37*
G36*
X722275Y139120D02*
X720485D01*
X718831Y138435D01*
X717565Y137169D01*
X716880Y135515D01*
Y133725D01*
X717565Y132071D01*
X718831Y130805D01*
X720485Y130120D01*
X722275D01*
X723929Y130805D01*
X725195Y132071D01*
X725880Y133725D01*
Y135515D01*
X725195Y137169D01*
X723929Y138435D01*
X722275Y139120D01*
D02*
G37*
G36*
X705745Y132770D02*
X703955D01*
X702301Y132085D01*
X701035Y130819D01*
X700350Y129165D01*
Y127375D01*
X701035Y125721D01*
X702301Y124455D01*
X703955Y123770D01*
X705745D01*
X707399Y124455D01*
X707460Y124516D01*
X708536Y123796D01*
X708130Y122815D01*
Y121025D01*
X708815Y119371D01*
X710081Y118105D01*
X711735Y117420D01*
X713525D01*
X715179Y118105D01*
X716445Y119371D01*
X717130Y121025D01*
Y122815D01*
X716445Y124469D01*
X715179Y125735D01*
X713525Y126420D01*
X711735D01*
X710081Y125735D01*
X710020Y125674D01*
X708943Y126394D01*
X709350Y127375D01*
Y129165D01*
X708665Y130819D01*
X707399Y132085D01*
X705745Y132770D01*
D02*
G37*
G36*
X730231Y120070D02*
X728441D01*
X726787Y119385D01*
X725521Y118119D01*
X724836Y116465D01*
Y114675D01*
X725521Y113021D01*
X726787Y111755D01*
X728441Y111070D01*
X730231D01*
X731885Y111755D01*
X733151Y113021D01*
X733836Y114675D01*
Y116465D01*
X733151Y118119D01*
X731885Y119385D01*
X730231Y120070D01*
D02*
G37*
G36*
X421913D02*
X420123D01*
X418469Y119385D01*
X417203Y118119D01*
X416518Y116465D01*
Y114675D01*
X417203Y113021D01*
X418469Y111755D01*
X420123Y111070D01*
X421913D01*
X423567Y111755D01*
X424833Y113021D01*
X425518Y114675D01*
Y116465D01*
X424833Y118119D01*
X423567Y119385D01*
X421913Y120070D01*
D02*
G37*
G36*
X229495Y131056D02*
X227705D01*
X226051Y130371D01*
X224785Y129105D01*
X224100Y127451D01*
Y125661D01*
X224785Y124007D01*
X225189Y123603D01*
X224785Y123199D01*
X224100Y121545D01*
Y119755D01*
X224785Y118101D01*
X225411Y117475D01*
X224785Y116849D01*
X224100Y115195D01*
Y113405D01*
X224785Y111751D01*
X226051Y110485D01*
X227705Y109800D01*
X229495D01*
X231149Y110485D01*
X232415Y111751D01*
X233100Y113405D01*
Y115195D01*
X232415Y116849D01*
X231789Y117475D01*
X232415Y118101D01*
X233100Y119755D01*
Y121545D01*
X232415Y123199D01*
X232011Y123603D01*
X232415Y124007D01*
X233100Y125661D01*
Y127451D01*
X232415Y129105D01*
X231149Y130371D01*
X229495Y131056D01*
D02*
G37*
G36*
X463113Y103370D02*
X461323D01*
X459669Y102685D01*
X458403Y101419D01*
X457718Y99765D01*
Y97975D01*
X458403Y96321D01*
X459669Y95055D01*
X461323Y94370D01*
X463113D01*
X464767Y95055D01*
X466033Y96321D01*
X466718Y97975D01*
Y99765D01*
X466033Y101419D01*
X464767Y102685D01*
X463113Y103370D01*
D02*
G37*
G36*
X450413D02*
X448623D01*
X446969Y102685D01*
X445703Y101419D01*
X445018Y99765D01*
Y97975D01*
X445703Y96321D01*
X446969Y95055D01*
X448623Y94370D01*
X450413D01*
X452067Y95055D01*
X453333Y96321D01*
X454018Y97975D01*
Y99765D01*
X453333Y101419D01*
X452067Y102685D01*
X450413Y103370D01*
D02*
G37*
G36*
X823842Y62620D02*
X821845Y62620D01*
X822542Y60937D01*
X820195Y59965D01*
X819498Y61648D01*
X818085Y60235D01*
X817248Y58214D01*
X817248Y56216D01*
X818931Y56913D01*
X819903Y54567D01*
X818220Y53870D01*
X819633Y52457D01*
X821654Y51620D01*
X823652Y51620D01*
X822955Y53302D01*
X825301Y54274D01*
X825998Y52592D01*
X827411Y54004D01*
X828248Y56026D01*
X828248Y58023D01*
X826566Y57326D01*
X825594Y59673D01*
X827276Y60370D01*
X825864Y61783D01*
X823842Y62620D01*
D02*
G37*
G36*
X45842D02*
X43845Y62620D01*
X44542Y60937D01*
X42195Y59965D01*
X41498Y61648D01*
X40086Y60235D01*
X39248Y58214D01*
X39248Y56216D01*
X40931Y56913D01*
X41903Y54567D01*
X40220Y53870D01*
X41633Y52457D01*
X43654Y51620D01*
X45652Y51620D01*
X44955Y53302D01*
X47301Y54274D01*
X47998Y52592D01*
X49411Y54004D01*
X50248Y56026D01*
X50248Y58023D01*
X48566Y57326D01*
X47594Y59673D01*
X49276Y60370D01*
X47864Y61783D01*
X45842Y62620D01*
D02*
G37*
G36*
X804158Y62620D02*
X802136Y61783D01*
X800724Y60370D01*
X802406Y59673D01*
X801434Y57326D01*
X799752Y58023D01*
X799752Y56026D01*
X800589Y54004D01*
X801291Y53302D01*
X802002Y52592D01*
X802699Y54274D01*
X805045Y53302D01*
X804348Y51620D01*
X806346Y51620D01*
X808367Y52457D01*
X809780Y53870D01*
X808097Y54567D01*
X809069Y56913D01*
X810752Y56216D01*
D01*
X810752Y58214D01*
X809914Y60235D01*
X808502Y61648D01*
X807805Y59965D01*
X805459Y60937D01*
X806155Y62620D01*
X804158Y62620D01*
D02*
G37*
G36*
X26158D02*
X24136Y61783D01*
X22724Y60370D01*
X24406Y59673D01*
X23434Y57326D01*
X21752Y58023D01*
X21752Y56026D01*
X22589Y54004D01*
X24002Y52592D01*
X24699Y54274D01*
X27045Y53302D01*
X26348Y51620D01*
X28346Y51620D01*
X30367Y52457D01*
X31780Y53870D01*
X30097Y54567D01*
X31069Y56913D01*
X32752Y56216D01*
X32752Y58214D01*
X31915Y60235D01*
X30502Y61648D01*
X29805Y59965D01*
X27459Y60937D01*
X28155Y62620D01*
X26158Y62620D01*
D02*
G37*
G36*
X793974Y50248D02*
X791977Y50248D01*
X792673Y48566D01*
X790327Y47594D01*
X789630Y49276D01*
X788217Y47864D01*
X787380Y45842D01*
X787380Y43845D01*
X789063Y44542D01*
X790035Y42195D01*
X788352Y41498D01*
X789765Y40086D01*
X791786Y39248D01*
X793784Y39248D01*
X793087Y40931D01*
X795433Y41903D01*
X795836Y40931D01*
X796130Y40220D01*
D01*
X797543Y41633D01*
X798380Y43654D01*
X798380Y45652D01*
X796698Y44955D01*
X795726Y47301D01*
X797408Y47998D01*
X795996Y49411D01*
X793974Y50248D01*
D02*
G37*
G36*
X15974D02*
X13977Y50248D01*
X14674Y48566D01*
X12327Y47594D01*
X11630Y49276D01*
X10217Y47864D01*
X9607Y46390D01*
X9380Y45457D01*
X9380Y43845D01*
X11063Y44542D01*
X12035Y42195D01*
X10352Y41498D01*
X11765Y40086D01*
X13786Y39248D01*
X15784Y39248D01*
X15087Y40931D01*
X17433Y41903D01*
X18130Y40220D01*
X19543Y41633D01*
X20380Y43654D01*
X20380Y45652D01*
X18698Y44955D01*
X17726Y47301D01*
X19408Y47998D01*
X17996Y49411D01*
X15974Y50248D01*
D02*
G37*
G36*
X834026D02*
X832004Y49411D01*
X830592Y47998D01*
X832274Y47301D01*
X831302Y44955D01*
X829620Y45652D01*
X829620Y43654D01*
X830457Y41633D01*
X831870Y40220D01*
X832567Y41903D01*
X834913Y40931D01*
X834216Y39248D01*
X836214Y39248D01*
X838235Y40086D01*
X839648Y41498D01*
X837965Y42195D01*
X838937Y44542D01*
X840620Y43845D01*
X840620Y45842D01*
X839783Y47864D01*
X838370Y49276D01*
X837673Y47594D01*
X835327Y48566D01*
X836023Y50248D01*
X834026Y50248D01*
D02*
G37*
G36*
X56026D02*
X54004Y49411D01*
X52592Y47998D01*
X54274Y47301D01*
X53302Y44955D01*
X51620Y45652D01*
X51620Y43654D01*
X52457Y41633D01*
X53870Y40220D01*
X54567Y41903D01*
X56913Y40931D01*
X56216Y39248D01*
X58214Y39248D01*
X60235Y40086D01*
X61648Y41498D01*
X59965Y42195D01*
X60937Y44542D01*
X62620Y43845D01*
X62620Y45842D01*
X61783Y47864D01*
X60370Y49276D01*
X59673Y47594D01*
X57326Y48566D01*
X58023Y50248D01*
X56026Y50248D01*
D02*
G37*
G36*
X836214Y32752D02*
X834216Y32752D01*
X834913Y31069D01*
X832567Y30097D01*
X831870Y31780D01*
X830457Y30367D01*
X829620Y28346D01*
X829620Y26348D01*
X831302Y27045D01*
X832274Y24699D01*
X830592Y24002D01*
X832004Y22589D01*
X834026Y21752D01*
X836023Y21752D01*
X835327Y23434D01*
X837673Y24406D01*
X838370Y22724D01*
X839782Y24136D01*
X840620Y26158D01*
X840620Y28155D01*
X838937Y27459D01*
X837965Y29805D01*
X839648Y30502D01*
X838235Y31915D01*
X836214Y32752D01*
D02*
G37*
G36*
X58214D02*
X56216Y32752D01*
X56913Y31069D01*
X54567Y30097D01*
X53870Y31780D01*
X52457Y30367D01*
X51620Y28346D01*
X51620Y26348D01*
X53302Y27045D01*
X54274Y24699D01*
X52592Y24002D01*
X54004Y22589D01*
X56026Y21752D01*
X58023Y21752D01*
X57326Y23434D01*
X59673Y24406D01*
X60370Y22724D01*
X61783Y24136D01*
X62620Y26158D01*
X62620Y28155D01*
X60937Y27459D01*
X59965Y29805D01*
X61648Y30502D01*
X60235Y31915D01*
X58214Y32752D01*
D02*
G37*
G36*
X791786D02*
X789765Y31915D01*
X788352Y30502D01*
X790035Y29805D01*
X789063Y27459D01*
X787380Y28155D01*
X787380Y26158D01*
X788217Y24136D01*
X789630Y22724D01*
X790327Y24406D01*
X792673Y23434D01*
X791977Y21752D01*
X793974Y21752D01*
X795996Y22589D01*
X797408Y24002D01*
X795726Y24699D01*
X796698Y27045D01*
X798380Y26348D01*
X798380Y28346D01*
X797543Y30367D01*
X796130Y31780D01*
X795433Y30097D01*
X793087Y31069D01*
X793784Y32752D01*
X791786Y32752D01*
D02*
G37*
G36*
X13786D02*
X11765Y31915D01*
X10352Y30502D01*
X12035Y29805D01*
X11063Y27459D01*
X9380Y28155D01*
X9380Y26158D01*
X10217Y24136D01*
X11630Y22724D01*
X12327Y24406D01*
X14674Y23434D01*
X13977Y21752D01*
X15974Y21752D01*
X17996Y22589D01*
X19408Y24002D01*
X17726Y24699D01*
X18698Y27045D01*
X20380Y26348D01*
X20380Y28346D01*
X19543Y30367D01*
X18130Y31780D01*
X17433Y30097D01*
X15087Y31069D01*
X15784Y32752D01*
X13786Y32752D01*
D02*
G37*
G36*
X806346Y20380D02*
X804348Y20380D01*
X805045Y18698D01*
X802699Y17726D01*
X802002Y19408D01*
X800589Y17996D01*
X799752Y15974D01*
X799752Y13977D01*
X801434Y14674D01*
X802406Y12327D01*
X800724Y11630D01*
X802136Y10217D01*
X804158Y9380D01*
X806155Y9380D01*
X805459Y11063D01*
X807805Y12035D01*
X808502Y10352D01*
X809212Y11063D01*
X809914Y11765D01*
X810752Y13786D01*
X810752Y15784D01*
X809069Y15087D01*
X808097Y17433D01*
X809780Y18130D01*
X808367Y19543D01*
X806346Y20380D01*
D02*
G37*
G36*
X28346D02*
X26348Y20380D01*
X27045Y18698D01*
X24699Y17726D01*
X24002Y19408D01*
X22589Y17996D01*
X21752Y15974D01*
X21752Y13977D01*
X23434Y14674D01*
X24406Y12327D01*
X22724Y11630D01*
X24136Y10217D01*
X26158Y9380D01*
X28155Y9380D01*
X27459Y11063D01*
X29805Y12035D01*
X30502Y10352D01*
X31915Y11765D01*
X32752Y13786D01*
X32752Y15784D01*
X31069Y15087D01*
X30097Y17433D01*
X31780Y18130D01*
X30367Y19543D01*
X28346Y20380D01*
D02*
G37*
G36*
X821654Y20380D02*
X819633Y19543D01*
X818220Y18130D01*
X819903Y17433D01*
X818931Y15087D01*
X817248Y15784D01*
X817248Y13786D01*
X818085Y11765D01*
X819498Y10352D01*
X820195Y12035D01*
X822542Y11063D01*
X821845Y9380D01*
X823842Y9380D01*
X825864Y10217D01*
X827276Y11630D01*
X825594Y12327D01*
X826566Y14674D01*
X828248Y13977D01*
X828248Y15974D01*
X827411Y17996D01*
X825998Y19408D01*
X825301Y17726D01*
X822955Y18698D01*
X823652Y20380D01*
X821654Y20380D01*
D02*
G37*
G36*
X43654D02*
X41633Y19543D01*
X40220Y18130D01*
X41903Y17433D01*
X40931Y15087D01*
X39248Y15784D01*
X39248Y13786D01*
X40086Y11765D01*
X41498Y10352D01*
X42195Y12035D01*
X44542Y11063D01*
X43845Y9380D01*
X45842Y9380D01*
X47864Y10217D01*
X49276Y11630D01*
X47594Y12327D01*
X48566Y14674D01*
X50248Y13977D01*
X50248Y15974D01*
X49411Y17996D01*
X47998Y19408D01*
X47301Y17726D01*
X44955Y18698D01*
X45652Y20380D01*
X43654Y20380D01*
D02*
G37*
%LPD*%
G36*
X454651Y337829D02*
X104149D01*
Y734051D01*
X454651D01*
Y337829D01*
D02*
G37*
D44*
X843150Y500497D02*
X842227Y502724D01*
X840000Y503647D01*
X838000Y6850D02*
X840575Y7540D01*
X842460Y9425D01*
X843150Y12000D01*
X12000Y843150D02*
X9425Y842460D01*
X7540Y840575D01*
X6850Y838000D01*
X840000Y679908D02*
X842227Y680830D01*
X843150Y683057D01*
X843150Y838000D02*
X842460Y840575D01*
X840575Y842460D01*
X838000Y843150D01*
X6850Y12000D02*
X7540Y9425D01*
X9425Y7540D01*
X12000Y6850D01*
X828860Y679908D02*
X826223Y679610D01*
X823719Y678734D01*
X821472Y677322D01*
X819595Y675446D01*
X818184Y673199D01*
X817307Y670694D01*
X817010Y668057D01*
Y515497D02*
X817307Y512860D01*
X818184Y510356D01*
X819595Y508109D01*
X821472Y506232D01*
X823719Y504821D01*
X826223Y503944D01*
X828860Y503647D01*
X12059Y6850D02*
X24745D01*
X843150Y683099D02*
Y696646D01*
X828860Y679908D02*
X840000D01*
X6850Y12000D02*
Y22095D01*
X843150Y12042D02*
Y21391D01*
X817010Y515497D02*
Y523163D01*
X828860Y503647D02*
X840000D01*
X12000Y843150D02*
X28018D01*
X6850Y22095D02*
Y32095D01*
X28018Y843150D02*
X38018D01*
X24745Y6850D02*
X34745D01*
X817010Y573163D02*
Y583163D01*
Y563163D02*
Y573163D01*
Y553163D02*
Y563163D01*
Y523163D02*
Y533163D01*
X843150Y21391D02*
Y31391D01*
X843150Y706646D02*
Y716646D01*
Y696646D02*
Y706646D01*
X6850Y32095D02*
Y42095D01*
X38018Y843150D02*
X48018D01*
X114745Y6850D02*
X124745D01*
X34745D02*
X44745D01*
X817010Y613163D02*
Y623163D01*
Y603163D02*
Y613163D01*
Y583163D02*
Y593163D01*
Y543163D02*
Y553163D01*
Y533163D02*
Y543163D01*
X843150Y31391D02*
Y41391D01*
X843150Y726646D02*
Y736646D01*
Y716646D02*
Y726646D01*
X6850Y42095D02*
Y52095D01*
X48018Y843150D02*
X58018D01*
X134745Y6850D02*
X144745D01*
X124745D02*
X134745D01*
X104745D02*
X114745D01*
X44745D02*
X54745D01*
X817010Y623163D02*
Y633163D01*
Y593163D02*
Y603163D01*
X843150Y41391D02*
Y51391D01*
X843150Y736646D02*
Y746646D01*
X6850Y52095D02*
Y62095D01*
X58018Y843150D02*
X68018D01*
X164745Y6850D02*
X174745D01*
X144745D02*
X154745D01*
X54745D02*
X64745D01*
X817010Y643163D02*
Y653163D01*
Y633163D02*
Y643163D01*
X843150Y51391D02*
Y61391D01*
X843150Y746646D02*
Y756646D01*
X6850Y62095D02*
Y72095D01*
X68018Y843150D02*
X78018D01*
X194745Y6850D02*
X204745D01*
X174745D02*
X184745D01*
X154745D02*
X164745D01*
X64745D02*
X74745D01*
X817010Y653163D02*
Y668057D01*
X843150Y61391D02*
Y71391D01*
X843150Y756646D02*
Y766646D01*
X6850Y72095D02*
Y82095D01*
X78018Y843150D02*
X88018D01*
X254745Y6850D02*
X264745D01*
X234745D02*
X244745D01*
X204745D02*
X214745D01*
X184745D02*
X194745D01*
X74745D02*
X84745D01*
X843150Y71391D02*
Y81391D01*
X843150Y766646D02*
Y776646D01*
X6850Y82095D02*
Y92094D01*
X88018Y843150D02*
X98018D01*
X354745Y6850D02*
X364745D01*
X344745D02*
X354745D01*
X264745D02*
X274745D01*
X244745D02*
X254745D01*
X214745D02*
X224745D01*
X84745D02*
X94745D01*
X843150Y81391D02*
Y91391D01*
X843150Y776646D02*
Y786646D01*
X6850Y92094D02*
Y102094D01*
X98018Y843150D02*
X108018D01*
X364745Y6850D02*
X374745D01*
X274745D02*
X284745D01*
X224745D02*
X234745D01*
X94745D02*
X104745D01*
X843150Y91391D02*
Y101391D01*
X843150Y786646D02*
Y796646D01*
X6850Y102094D02*
Y112094D01*
X108018Y843150D02*
X118018D01*
X374745Y6850D02*
X384745D01*
X284745D02*
X294745D01*
X843150Y101391D02*
Y111391D01*
X843150Y796646D02*
Y806646D01*
X6850Y112094D02*
Y122094D01*
X118018Y843150D02*
X128018D01*
X394745Y6850D02*
X404745D01*
X384745D02*
X394745D01*
X294745D02*
X304745D01*
X843150Y111391D02*
Y121391D01*
X843150Y806646D02*
Y816646D01*
X6850Y122094D02*
Y132094D01*
X128018Y843150D02*
X138018D01*
X444744Y6850D02*
X454744D01*
X404745D02*
X425000D01*
X314745D02*
X324745D01*
X304745D02*
X314745D01*
X843150Y121391D02*
Y131391D01*
X843150Y816646D02*
Y826646D01*
X6850Y132094D02*
Y142094D01*
X138018Y843150D02*
X148018D01*
X484744Y6850D02*
X494744D01*
X454744D02*
X464744D01*
X425000D02*
X444744D01*
X324745D02*
X334745D01*
X843150Y131391D02*
Y141391D01*
X843150Y826646D02*
Y838000D01*
X6850Y142094D02*
Y152094D01*
X148018Y843150D02*
X158018D01*
X504744Y6850D02*
X514744D01*
X494744D02*
X504744D01*
X464744D02*
X474744D01*
X334745D02*
X344745D01*
X843150Y141391D02*
Y151391D01*
X6850Y152094D02*
Y162094D01*
X158018Y843150D02*
X168018D01*
X594744Y6850D02*
X604744D01*
X524744D02*
X534744D01*
X514744D02*
X524744D01*
X474744D02*
X484744D01*
X843150Y151391D02*
Y161391D01*
X6850Y162094D02*
Y172094D01*
X168018Y843150D02*
X178018D01*
X614744Y6850D02*
X624744D01*
X604744D02*
X614744D01*
X584744D02*
X594744D01*
X554744D02*
X564744D01*
X544744D02*
X554744D01*
X534744D02*
X544744D01*
X843150Y161391D02*
Y171391D01*
X6850Y172094D02*
Y182094D01*
X178018Y843150D02*
X188018D01*
X624744Y6850D02*
X634744D01*
X574744D02*
X584744D01*
X564744D02*
X574744D01*
X843150Y171391D02*
Y181391D01*
X6850Y182094D02*
Y192094D01*
X188018Y843150D02*
X198018D01*
X634744Y6850D02*
X644744D01*
X843150Y181391D02*
Y191391D01*
X6850Y192094D02*
Y202094D01*
X198018Y843150D02*
X208018D01*
X644744Y6850D02*
X654744D01*
X843150Y191391D02*
Y201391D01*
X6850Y332094D02*
Y342094D01*
Y222094D02*
Y232094D01*
Y202094D02*
Y212094D01*
X208018Y843150D02*
X218018D01*
X654744Y6850D02*
X664744D01*
X843150Y271391D02*
Y281391D01*
Y211391D02*
Y221391D01*
Y201391D02*
Y211391D01*
X6850Y342094D02*
Y352094D01*
Y302094D02*
Y312094D01*
Y232094D02*
Y242094D01*
Y212094D02*
Y222094D01*
X218018Y843150D02*
X228018D01*
X664744Y6850D02*
X674744D01*
X843150Y281391D02*
Y291391D01*
Y251391D02*
Y261391D01*
Y241391D02*
Y251391D01*
Y231391D02*
Y241391D01*
Y221391D02*
Y231391D01*
X6850Y352094D02*
Y362094D01*
Y322094D02*
Y332094D01*
Y312094D02*
Y322094D01*
Y292094D02*
Y302094D01*
Y282094D02*
Y292094D01*
Y272094D02*
Y282094D01*
Y262094D02*
Y272094D01*
Y252094D02*
Y262094D01*
Y242094D02*
Y252094D01*
X228018Y843150D02*
X238018D01*
X674744Y6850D02*
X684744D01*
X843150Y291391D02*
Y301391D01*
Y261391D02*
Y271391D01*
X6850Y362094D02*
Y372094D01*
X238018Y843150D02*
X248018D01*
X684744Y6850D02*
X694744D01*
X843150Y301391D02*
Y311391D01*
X6850Y462094D02*
Y472094D01*
Y412094D02*
Y422094D01*
Y402094D02*
Y412094D01*
Y382094D02*
Y392094D01*
Y372094D02*
Y382094D01*
X248018Y843150D02*
X258018D01*
X694744Y6850D02*
X704744D01*
X843150Y311391D02*
Y321390D01*
X6850Y502094D02*
Y512094D01*
Y472094D02*
Y482094D01*
Y432094D02*
Y442094D01*
Y422094D02*
Y432094D01*
Y392094D02*
Y402094D01*
X258018Y843150D02*
X268018D01*
X704744Y6850D02*
X714744D01*
X843150Y321390D02*
Y331390D01*
X6850Y542094D02*
Y552094D01*
Y532094D02*
Y542094D01*
Y512094D02*
Y522094D01*
Y492094D02*
Y502094D01*
Y482094D02*
Y492094D01*
Y442094D02*
Y452094D01*
X268018Y843150D02*
X278018D01*
X714744Y6850D02*
X724744D01*
X843150Y331390D02*
Y341390D01*
X6850Y602094D02*
Y612094D01*
Y582094D02*
Y592094D01*
Y562094D02*
Y572094D01*
Y552094D02*
Y562094D01*
Y522094D02*
Y532094D01*
Y452094D02*
Y462094D01*
X278018Y843150D02*
X288018D01*
X724744Y6850D02*
X734744D01*
X843150Y341390D02*
Y351390D01*
X6850Y612094D02*
Y622094D01*
Y592094D02*
Y602094D01*
Y572094D02*
Y582094D01*
X288018Y843150D02*
X298018D01*
X734744Y6850D02*
X744744D01*
X843150Y351390D02*
Y361390D01*
X6850Y652093D02*
Y662093D01*
Y632094D02*
Y642093D01*
Y622094D02*
Y632094D01*
X298018Y843150D02*
X308018D01*
X744744Y6850D02*
X754744D01*
X843150Y361390D02*
Y371390D01*
X6850Y662093D02*
Y672093D01*
Y642093D02*
Y652093D01*
X308018Y843150D02*
X318018D01*
X754744Y6850D02*
X764744D01*
X843150Y371390D02*
Y381390D01*
X6850Y672093D02*
Y682093D01*
X318018Y843150D02*
X328018D01*
X764744Y6850D02*
X774744D01*
X843150Y381390D02*
Y391390D01*
X6850Y682093D02*
Y692093D01*
X328018Y843150D02*
X338018D01*
X774744Y6850D02*
X784744D01*
X843150Y391390D02*
Y401390D01*
X6850Y692093D02*
Y702093D01*
X338018Y843150D02*
X348018D01*
X784744Y6850D02*
X794744D01*
X843150Y401390D02*
Y411390D01*
X6850Y702093D02*
Y712093D01*
X348018Y843150D02*
X358018D01*
X794744Y6850D02*
X804744D01*
X843150Y411390D02*
Y421390D01*
X6850Y712093D02*
Y722093D01*
X358018Y843150D02*
X368018D01*
X804744Y6850D02*
X814744D01*
X843150Y421390D02*
Y431390D01*
X6850Y722093D02*
Y732093D01*
X368018Y843150D02*
X378018D01*
X824744Y6850D02*
X838000D01*
X814744D02*
X824744D01*
X843150Y431390D02*
Y441390D01*
X6850Y732093D02*
Y742093D01*
X378018Y843150D02*
X388018D01*
X843150Y441390D02*
Y451390D01*
X6850Y742093D02*
Y752093D01*
X388018Y843150D02*
X398018D01*
X843150Y451390D02*
Y461390D01*
X6850Y752093D02*
Y762093D01*
X438018Y843150D02*
X448018D01*
X398018D02*
X408018D01*
X843150Y461390D02*
Y471390D01*
X6850Y762093D02*
Y772093D01*
X465300Y843150D02*
X474048D01*
X448018D02*
X456552D01*
X408018D02*
X418018D01*
X843150Y471390D02*
Y481390D01*
X6850Y772093D02*
Y782093D01*
X474048Y843150D02*
X488018D01*
X456552D02*
X465300D01*
X418018D02*
X428018D01*
X843150Y481390D02*
Y491390D01*
X6850Y782093D02*
Y792093D01*
X488018Y843150D02*
X498017D01*
X428018D02*
X438018D01*
X843150Y491390D02*
Y500497D01*
X6850Y792093D02*
Y802093D01*
X498017Y843150D02*
X508017D01*
X6850Y802093D02*
Y812093D01*
X508017Y843150D02*
X518017D01*
X6850Y812093D02*
Y822093D01*
X518017Y843150D02*
X528017D01*
X6850Y822093D02*
Y837941D01*
X528017Y843150D02*
X538017D01*
X548017D01*
X558017D01*
X568017D01*
X578017D01*
X588017D01*
X598017D01*
X608017D01*
X618017D01*
X628017D01*
X638017D01*
X648017D01*
X658017D01*
X668017D01*
X678017D01*
X688017D01*
X698017D01*
X708017D01*
X718017D01*
X728017D01*
X738017D01*
X748017D01*
X758017D01*
X768017D01*
X778017D01*
X788017D01*
X798017D01*
X808017D01*
X818017D01*
X828017D01*
X837941D01*
D65*
X279400Y535940D02*
D03*
D67*
X36000Y36000D02*
D03*
X425000Y21000D02*
D03*
X36000Y364000D02*
D03*
Y256000D02*
D03*
X814000Y36000D02*
D03*
X814477Y256000D02*
D03*
X814000Y364000D02*
D03*
Y814000D02*
D03*
X36000D02*
D03*
X465300Y824000D02*
D03*
D76*
X449087Y380020D02*
X466867D01*
X449087Y388383D02*
X466867D01*
X449087Y396530D02*
X466867D01*
X449087Y404349D02*
X466867D01*
X449087Y452020D02*
X466867D01*
X449087Y460383D02*
X466867D01*
X449087Y468530D02*
X466867D01*
X449087Y476349D02*
X466867D01*
X449087Y524020D02*
X466867D01*
X449087Y532383D02*
X466867D01*
X449087Y540530D02*
X466867D01*
X449087Y548349D02*
X466867D01*
X449087Y596020D02*
X466867D01*
X449087Y604383D02*
X466867D01*
X449087Y612530D02*
X466867D01*
X449087Y620349D02*
X466867D01*
X449087Y668020D02*
X466867D01*
X449087Y676383D02*
X466867D01*
X449087Y684530D02*
X466867D01*
X449087Y692349D02*
X466867D01*
X421020Y733220D02*
X432020Y744220D01*
X327680Y728685D02*
Y746465D01*
X234340Y727490D02*
Y745270D01*
X141000Y727490D02*
Y745270D01*
D83*
X57120Y27252D02*
D03*
X27252Y14880D02*
D03*
X14880Y44748D02*
D03*
X44748Y57120D02*
D03*
X57120Y44748D02*
D03*
X44748Y14880D02*
D03*
X14880Y27252D02*
D03*
X27252Y57120D02*
D03*
Y385120D02*
D03*
X14880Y355252D02*
D03*
X44748Y342880D02*
D03*
X57120Y372748D02*
D03*
X44748Y385120D02*
D03*
X14880Y372748D02*
D03*
X27252Y342880D02*
D03*
X57120Y355252D02*
D03*
X27252Y277120D02*
D03*
X14880Y247252D02*
D03*
X44748Y234880D02*
D03*
X57120Y264748D02*
D03*
X44748Y277120D02*
D03*
X14880Y264748D02*
D03*
X27252Y234880D02*
D03*
X57120Y247252D02*
D03*
X805252Y57120D02*
D03*
X792880Y27252D02*
D03*
X822748Y14880D02*
D03*
X835120Y44748D02*
D03*
X822748Y57120D02*
D03*
X792880Y44748D02*
D03*
X805252Y14880D02*
D03*
X835120Y27252D02*
D03*
X805729Y277120D02*
D03*
X793357Y247252D02*
D03*
X823225Y234880D02*
D03*
X835597Y264748D02*
D03*
X823225Y277120D02*
D03*
X793357Y264748D02*
D03*
X805729Y234880D02*
D03*
X835597Y247252D02*
D03*
X805252Y385120D02*
D03*
X792880Y355252D02*
D03*
X822748Y342880D02*
D03*
X835120Y372748D02*
D03*
X822748Y385120D02*
D03*
X792880Y372748D02*
D03*
X805252Y342880D02*
D03*
X835120Y355252D02*
D03*
X805252Y835120D02*
D03*
X792880Y805252D02*
D03*
X822748Y792880D02*
D03*
X835120Y822748D02*
D03*
X822748Y835120D02*
D03*
X792880Y822748D02*
D03*
X805252Y792880D02*
D03*
X835120Y805252D02*
D03*
X27252Y835120D02*
D03*
X14880Y805252D02*
D03*
X44748Y792880D02*
D03*
X57120Y822748D02*
D03*
X44748Y835120D02*
D03*
X14880Y822748D02*
D03*
X27252Y792880D02*
D03*
X57120Y805252D02*
D03*
D84*
X456552Y845120D02*
D03*
X444180Y815252D02*
D03*
X474048Y802880D02*
D03*
X486420Y832748D02*
D03*
X474048Y845120D02*
D03*
X444180Y832748D02*
D03*
X456552Y802880D02*
D03*
X486420Y815252D02*
D03*
D85*
X6474Y792093D02*
D03*
X58018Y843526D02*
D03*
X820071Y771491D02*
D03*
X830071Y751491D02*
D03*
X820071Y731491D02*
D03*
X830071Y711491D02*
D03*
X820071Y691491D02*
D03*
Y491491D02*
D03*
X830071Y471490D02*
D03*
X820071Y451490D02*
D03*
X830071Y431490D02*
D03*
X820071Y411490D02*
D03*
X830071Y311490D02*
D03*
X820071Y291490D02*
D03*
Y211490D02*
D03*
X830071Y191490D02*
D03*
X820071Y171490D02*
D03*
X830071Y151490D02*
D03*
X820071Y131490D02*
D03*
X830071Y111490D02*
D03*
X820071Y91490D02*
D03*
X830071Y71490D02*
D03*
X800071Y771491D02*
D03*
X810071Y751491D02*
D03*
X800071Y731491D02*
D03*
X810071Y711491D02*
D03*
X800071Y691491D02*
D03*
X810071Y671491D02*
D03*
X800071Y611491D02*
D03*
Y571491D02*
D03*
X810071Y511491D02*
D03*
X800071Y491491D02*
D03*
X810071Y471490D02*
D03*
X800071Y451490D02*
D03*
X810071Y431490D02*
D03*
X800071Y411490D02*
D03*
Y331490D02*
D03*
X810071Y311490D02*
D03*
X800071Y291490D02*
D03*
Y211490D02*
D03*
X810071Y191490D02*
D03*
X800071Y171490D02*
D03*
X810071Y151490D02*
D03*
X800071Y131490D02*
D03*
X810071Y111490D02*
D03*
X800071Y91490D02*
D03*
X810071Y71490D02*
D03*
X780071Y771491D02*
D03*
X790071Y751491D02*
D03*
X780071Y731491D02*
D03*
X790071Y711491D02*
D03*
X780071Y691491D02*
D03*
X790071Y631491D02*
D03*
X780071Y611491D02*
D03*
X790071Y591491D02*
D03*
X780071Y571491D02*
D03*
X790071Y551491D02*
D03*
X780071Y491491D02*
D03*
X790071Y471490D02*
D03*
X780071Y451490D02*
D03*
X790071Y431490D02*
D03*
X780071Y411490D02*
D03*
X790071Y391490D02*
D03*
X780071Y331490D02*
D03*
X790071Y311490D02*
D03*
X780071Y291490D02*
D03*
Y211490D02*
D03*
X790071Y191490D02*
D03*
X780071Y171490D02*
D03*
X790071Y151490D02*
D03*
X780071Y131490D02*
D03*
X790071Y111490D02*
D03*
X780071Y91490D02*
D03*
X790071Y71490D02*
D03*
X780071Y51490D02*
D03*
X770071Y831491D02*
D03*
X760071Y811491D02*
D03*
X770071Y791491D02*
D03*
X760071Y771491D02*
D03*
X770071Y751491D02*
D03*
X760071Y731491D02*
D03*
X770071Y711491D02*
D03*
X760071Y691491D02*
D03*
X770071Y631491D02*
D03*
Y591491D02*
D03*
Y551491D02*
D03*
Y471490D02*
D03*
Y431490D02*
D03*
Y391490D02*
D03*
Y351490D02*
D03*
Y311490D02*
D03*
X760071Y291490D02*
D03*
X770071Y271490D02*
D03*
X760071Y251490D02*
D03*
X770071Y231490D02*
D03*
X760071Y211490D02*
D03*
X770071Y191490D02*
D03*
X760071Y171490D02*
D03*
X770071Y151490D02*
D03*
X760071Y131490D02*
D03*
X770071Y111490D02*
D03*
X760071Y91490D02*
D03*
X770071Y71490D02*
D03*
X760071Y51490D02*
D03*
X770071Y31490D02*
D03*
X750071Y831491D02*
D03*
X740071Y811491D02*
D03*
X750071Y791491D02*
D03*
X740071Y771491D02*
D03*
X750071Y751491D02*
D03*
X740071Y731491D02*
D03*
X750071Y711491D02*
D03*
X740071Y691491D02*
D03*
X750071Y671491D02*
D03*
X740071Y291490D02*
D03*
X750071Y271490D02*
D03*
X740071Y251490D02*
D03*
X750071Y231490D02*
D03*
X740071Y211490D02*
D03*
X750071Y191490D02*
D03*
X740071Y171490D02*
D03*
X750071Y151490D02*
D03*
X740071Y131490D02*
D03*
X750071Y111490D02*
D03*
X740071Y91490D02*
D03*
X750071Y71490D02*
D03*
X740071Y51490D02*
D03*
X750071Y31490D02*
D03*
X730070Y831491D02*
D03*
X720070Y811491D02*
D03*
X730070Y791491D02*
D03*
X720070Y771491D02*
D03*
X730070Y751491D02*
D03*
X720070Y91490D02*
D03*
X730070Y71490D02*
D03*
X720070Y51490D02*
D03*
X730070Y31490D02*
D03*
X710070Y831491D02*
D03*
X700070Y811491D02*
D03*
X710070Y791491D02*
D03*
X700070Y771491D02*
D03*
X710070Y751491D02*
D03*
Y711491D02*
D03*
Y671491D02*
D03*
X700070Y651490D02*
D03*
Y91490D02*
D03*
X710070Y71490D02*
D03*
X700070Y51490D02*
D03*
X710070Y31490D02*
D03*
X690070Y831491D02*
D03*
X680070Y811491D02*
D03*
X690070Y791491D02*
D03*
X680070Y771491D02*
D03*
X690070Y751491D02*
D03*
Y711491D02*
D03*
X680070Y171490D02*
D03*
Y91490D02*
D03*
X690070Y71490D02*
D03*
X680070Y51490D02*
D03*
X690070Y31490D02*
D03*
X670070Y831491D02*
D03*
X660070Y811491D02*
D03*
X670070Y791491D02*
D03*
X660070Y771491D02*
D03*
X670070Y751491D02*
D03*
X660070Y731491D02*
D03*
X670070Y711491D02*
D03*
X660070Y691491D02*
D03*
X670070Y671491D02*
D03*
Y591491D02*
D03*
Y551491D02*
D03*
X660070Y531491D02*
D03*
Y491491D02*
D03*
X670070Y471490D02*
D03*
X660070Y451490D02*
D03*
X670070Y431490D02*
D03*
Y391490D02*
D03*
X660070Y371490D02*
D03*
Y291490D02*
D03*
X670070Y271490D02*
D03*
X660070Y251490D02*
D03*
X670070Y231490D02*
D03*
Y191490D02*
D03*
X660070Y171490D02*
D03*
Y91490D02*
D03*
X670070Y71490D02*
D03*
X660070Y51490D02*
D03*
X670070Y31490D02*
D03*
X650070Y831491D02*
D03*
X640070Y811491D02*
D03*
X650070Y791491D02*
D03*
X640070Y771491D02*
D03*
X650070Y671491D02*
D03*
X640070Y571491D02*
D03*
Y531491D02*
D03*
Y491491D02*
D03*
X650070Y391490D02*
D03*
X640070Y251490D02*
D03*
X650070Y191490D02*
D03*
X640070Y171490D02*
D03*
Y91490D02*
D03*
X650070Y71490D02*
D03*
X640070Y51490D02*
D03*
X650070Y31490D02*
D03*
X630070Y831491D02*
D03*
X620070Y811491D02*
D03*
X630070Y791491D02*
D03*
X620070Y771491D02*
D03*
X630070Y751491D02*
D03*
Y711491D02*
D03*
Y671491D02*
D03*
Y631491D02*
D03*
Y551491D02*
D03*
Y511491D02*
D03*
Y391490D02*
D03*
Y191490D02*
D03*
X620070Y171490D02*
D03*
Y91490D02*
D03*
X630070Y71490D02*
D03*
X620070Y51490D02*
D03*
X630070Y31490D02*
D03*
X610070Y831491D02*
D03*
X600070Y811491D02*
D03*
X610070Y791491D02*
D03*
Y271490D02*
D03*
X600070Y91490D02*
D03*
X610070Y71490D02*
D03*
X600070Y51490D02*
D03*
X610070Y31490D02*
D03*
X590070Y831491D02*
D03*
X580070Y811491D02*
D03*
X590070Y791491D02*
D03*
X580070Y91490D02*
D03*
X590070Y71490D02*
D03*
X580070Y51490D02*
D03*
X590070Y31490D02*
D03*
X570070Y831491D02*
D03*
X560070Y811491D02*
D03*
X570070Y791491D02*
D03*
Y631491D02*
D03*
X560070Y91490D02*
D03*
X570070Y71490D02*
D03*
X560070Y51490D02*
D03*
X570070Y31490D02*
D03*
X550070Y831491D02*
D03*
X540070Y811491D02*
D03*
X550070Y791491D02*
D03*
X540070Y91490D02*
D03*
X550070Y71490D02*
D03*
X540070Y51490D02*
D03*
X550070Y31490D02*
D03*
X530070Y831491D02*
D03*
X520070Y811491D02*
D03*
X530070Y791491D02*
D03*
Y231490D02*
D03*
X520070Y91490D02*
D03*
X530070Y71490D02*
D03*
X520070Y51490D02*
D03*
X530070Y31490D02*
D03*
X510070Y831491D02*
D03*
X500070Y811491D02*
D03*
X510070Y791491D02*
D03*
X500070Y731491D02*
D03*
Y91490D02*
D03*
X510070Y71490D02*
D03*
X500070Y51490D02*
D03*
X510070Y31490D02*
D03*
X490070Y791491D02*
D03*
X480070Y731491D02*
D03*
Y651490D02*
D03*
Y571491D02*
D03*
Y491491D02*
D03*
Y371490D02*
D03*
Y91490D02*
D03*
X490070Y71490D02*
D03*
X480070Y51490D02*
D03*
X490070Y31490D02*
D03*
X470070Y711491D02*
D03*
Y631491D02*
D03*
Y511491D02*
D03*
Y431490D02*
D03*
Y351490D02*
D03*
Y71490D02*
D03*
X460070Y51490D02*
D03*
X470070Y31490D02*
D03*
X450070Y791491D02*
D03*
X440070Y291490D02*
D03*
X450070Y71490D02*
D03*
X430070Y831491D02*
D03*
X420070Y811491D02*
D03*
X430070Y791491D02*
D03*
X420070Y291490D02*
D03*
Y91490D02*
D03*
X430070Y71490D02*
D03*
X410070Y831491D02*
D03*
X400070Y811491D02*
D03*
X410070Y791491D02*
D03*
X400070Y291490D02*
D03*
X410070Y271490D02*
D03*
X400070Y131490D02*
D03*
X410070Y111490D02*
D03*
Y71490D02*
D03*
X400070Y51490D02*
D03*
X390070Y831491D02*
D03*
X380070Y811491D02*
D03*
X390070Y791491D02*
D03*
Y71490D02*
D03*
Y31490D02*
D03*
X370070Y831491D02*
D03*
X360070Y811491D02*
D03*
X370070Y791491D02*
D03*
X360070Y291490D02*
D03*
Y251490D02*
D03*
Y211490D02*
D03*
Y171490D02*
D03*
X370070Y71490D02*
D03*
X360070Y51490D02*
D03*
X370070Y31490D02*
D03*
X350070Y831491D02*
D03*
X340070Y811491D02*
D03*
X350070Y791491D02*
D03*
X340070Y291490D02*
D03*
X350070Y271490D02*
D03*
X340070Y251490D02*
D03*
Y211490D02*
D03*
X350070Y191490D02*
D03*
X340070Y171490D02*
D03*
X350070Y151490D02*
D03*
Y71490D02*
D03*
X340070Y51490D02*
D03*
X350070Y31490D02*
D03*
X330070Y831491D02*
D03*
X320070Y811491D02*
D03*
X330070Y791491D02*
D03*
X320070Y291490D02*
D03*
Y251490D02*
D03*
Y211490D02*
D03*
X330070Y151490D02*
D03*
Y71490D02*
D03*
X320070Y51490D02*
D03*
X330070Y31490D02*
D03*
X310070Y831491D02*
D03*
X300070Y811491D02*
D03*
X310070Y791491D02*
D03*
Y271490D02*
D03*
X300070Y251490D02*
D03*
X310070Y231490D02*
D03*
Y151490D02*
D03*
X300070Y131490D02*
D03*
X310070Y71490D02*
D03*
X300070Y51490D02*
D03*
X310070Y31490D02*
D03*
X290070Y831491D02*
D03*
X280070Y811491D02*
D03*
X290070Y791491D02*
D03*
Y231490D02*
D03*
Y151490D02*
D03*
Y71490D02*
D03*
X280070Y51490D02*
D03*
X290070Y31490D02*
D03*
X270070Y831491D02*
D03*
X260070Y811491D02*
D03*
X270070Y791491D02*
D03*
Y231490D02*
D03*
Y151490D02*
D03*
Y71490D02*
D03*
X260070Y51490D02*
D03*
X270070Y31490D02*
D03*
X250070Y831491D02*
D03*
X240070Y811491D02*
D03*
X250070Y791491D02*
D03*
X240070Y251490D02*
D03*
X250070Y231490D02*
D03*
X240070Y211490D02*
D03*
X250070Y191490D02*
D03*
Y151490D02*
D03*
Y71490D02*
D03*
Y31490D02*
D03*
X230070Y831491D02*
D03*
X220070Y811491D02*
D03*
X230070Y791491D02*
D03*
Y71490D02*
D03*
Y31490D02*
D03*
X210070Y831491D02*
D03*
X200070Y811491D02*
D03*
X210070Y791491D02*
D03*
Y751491D02*
D03*
Y231490D02*
D03*
Y191490D02*
D03*
Y151490D02*
D03*
X200070Y131490D02*
D03*
X210070Y71490D02*
D03*
X200070Y51490D02*
D03*
X210070Y31490D02*
D03*
X190070Y831491D02*
D03*
X180070Y811491D02*
D03*
X190070Y791491D02*
D03*
Y751491D02*
D03*
Y231490D02*
D03*
X180070Y171490D02*
D03*
Y131490D02*
D03*
X190070Y71490D02*
D03*
X180070Y51490D02*
D03*
X190070Y31490D02*
D03*
X170070Y831491D02*
D03*
X160070Y811491D02*
D03*
X170070Y791491D02*
D03*
Y751491D02*
D03*
Y231490D02*
D03*
Y71490D02*
D03*
X160070Y51490D02*
D03*
X170070Y31490D02*
D03*
X150070Y831491D02*
D03*
X140070Y811491D02*
D03*
X150070Y791491D02*
D03*
X140070Y771491D02*
D03*
X150070Y751491D02*
D03*
Y231490D02*
D03*
Y71490D02*
D03*
X140070Y51490D02*
D03*
X150070Y31490D02*
D03*
X130070Y831491D02*
D03*
X120070Y811491D02*
D03*
X130070Y791491D02*
D03*
X120070Y771491D02*
D03*
X130070Y751491D02*
D03*
X120070Y291490D02*
D03*
X130070Y231490D02*
D03*
X120070Y171490D02*
D03*
Y131490D02*
D03*
X130070Y71490D02*
D03*
X120070Y51490D02*
D03*
X130070Y31490D02*
D03*
X110070Y831491D02*
D03*
X100070Y811491D02*
D03*
X110070Y791491D02*
D03*
X100070Y771491D02*
D03*
X110070Y751491D02*
D03*
Y311490D02*
D03*
X100070Y291490D02*
D03*
X110070Y271490D02*
D03*
Y71490D02*
D03*
X100070Y51490D02*
D03*
X110070Y31490D02*
D03*
X90070Y831491D02*
D03*
X80070Y811491D02*
D03*
X90070Y791491D02*
D03*
X80070Y771491D02*
D03*
X90070Y751491D02*
D03*
X80070Y731491D02*
D03*
X90070Y711491D02*
D03*
X80070Y691491D02*
D03*
X90070Y671491D02*
D03*
X80070Y651490D02*
D03*
X90070Y631491D02*
D03*
X80070Y611491D02*
D03*
X90070Y591491D02*
D03*
X80070Y571491D02*
D03*
X90070Y551491D02*
D03*
X80070Y531491D02*
D03*
X90070Y511491D02*
D03*
X80070Y491491D02*
D03*
X90070Y471490D02*
D03*
X80070Y451490D02*
D03*
X90070Y431490D02*
D03*
X80070Y411490D02*
D03*
X90070Y391490D02*
D03*
X80070Y371490D02*
D03*
X90070Y351490D02*
D03*
X80070Y331490D02*
D03*
X90070Y311490D02*
D03*
X80070Y291490D02*
D03*
X90070Y271490D02*
D03*
X80070Y251490D02*
D03*
X90070Y231490D02*
D03*
X80070Y211490D02*
D03*
Y171490D02*
D03*
X90070Y71490D02*
D03*
X80070Y51490D02*
D03*
X90070Y31490D02*
D03*
X70070Y831491D02*
D03*
Y791491D02*
D03*
X60070Y771491D02*
D03*
X70070Y751491D02*
D03*
X60070Y731491D02*
D03*
X70070Y711491D02*
D03*
X60070Y691491D02*
D03*
X70070Y671491D02*
D03*
X60070Y651490D02*
D03*
X70070Y631491D02*
D03*
X60070Y611491D02*
D03*
X70070Y591491D02*
D03*
X60070Y571491D02*
D03*
X70070Y551491D02*
D03*
X60070Y531491D02*
D03*
X70070Y511491D02*
D03*
X60070Y491491D02*
D03*
X70070Y471490D02*
D03*
X60070Y451490D02*
D03*
X70070Y431490D02*
D03*
X60070Y411490D02*
D03*
X70070Y391490D02*
D03*
Y351490D02*
D03*
X60070Y331490D02*
D03*
X70070Y311490D02*
D03*
X60070Y291490D02*
D03*
X70070Y271490D02*
D03*
Y231490D02*
D03*
X60070Y211490D02*
D03*
X70070Y191490D02*
D03*
X60070Y171490D02*
D03*
X70070Y151490D02*
D03*
X60070Y131490D02*
D03*
X70070Y111490D02*
D03*
X60070Y91490D02*
D03*
X70070Y71490D02*
D03*
X40070Y771491D02*
D03*
X50070Y751491D02*
D03*
X40070Y731491D02*
D03*
X50070Y711491D02*
D03*
X40070Y691491D02*
D03*
X50070Y671491D02*
D03*
X40070Y651490D02*
D03*
X50070Y631491D02*
D03*
X40070Y611491D02*
D03*
X50070Y591491D02*
D03*
X40070Y571491D02*
D03*
X50070Y551491D02*
D03*
X40070Y531491D02*
D03*
X50070Y511491D02*
D03*
X40070Y491491D02*
D03*
X50070Y471490D02*
D03*
X40070Y451490D02*
D03*
X50070Y431490D02*
D03*
X40070Y411490D02*
D03*
X50070Y311490D02*
D03*
X40070Y291490D02*
D03*
Y211490D02*
D03*
X50070Y191490D02*
D03*
X40070Y171490D02*
D03*
X50070Y151490D02*
D03*
X40070Y131490D02*
D03*
X50070Y111490D02*
D03*
X40070Y91490D02*
D03*
X50070Y71490D02*
D03*
X20070Y771491D02*
D03*
X30070Y751491D02*
D03*
X20070Y731491D02*
D03*
X30070Y711491D02*
D03*
X20070Y691491D02*
D03*
X30070Y671491D02*
D03*
X20070Y651490D02*
D03*
X30070Y631491D02*
D03*
X20070Y611491D02*
D03*
X30070Y591491D02*
D03*
X20070Y571491D02*
D03*
X30070Y551491D02*
D03*
X20070Y531491D02*
D03*
X30070Y511491D02*
D03*
X20070Y491491D02*
D03*
X30070Y471490D02*
D03*
X20070Y451490D02*
D03*
X30070Y431490D02*
D03*
X20070Y411490D02*
D03*
Y331490D02*
D03*
X30070Y311490D02*
D03*
X20070Y291490D02*
D03*
Y211490D02*
D03*
X30070Y191490D02*
D03*
X20070Y171490D02*
D03*
X30070Y151490D02*
D03*
X20070Y131490D02*
D03*
X30070Y111490D02*
D03*
X20070Y91490D02*
D03*
X30070Y71490D02*
D03*
X836499Y679532D02*
D03*
X843526Y686646D02*
D03*
Y696646D02*
D03*
Y706646D02*
D03*
Y716646D02*
D03*
Y726646D02*
D03*
Y736646D02*
D03*
Y746646D02*
D03*
Y756646D02*
D03*
Y766646D02*
D03*
Y776646D02*
D03*
Y786646D02*
D03*
X817946Y513383D02*
D03*
X817652Y523379D02*
D03*
Y533379D02*
D03*
Y543379D02*
D03*
Y553379D02*
D03*
Y563379D02*
D03*
Y573379D02*
D03*
Y583379D02*
D03*
Y593379D02*
D03*
Y603379D02*
D03*
Y613379D02*
D03*
Y623379D02*
D03*
Y633379D02*
D03*
Y643379D02*
D03*
Y653379D02*
D03*
Y663379D02*
D03*
X818883Y673303D02*
D03*
X826770Y679450D02*
D03*
X843375Y501389D02*
D03*
X833728Y504023D02*
D03*
X824072Y505479D02*
D03*
X843526Y421390D02*
D03*
Y431390D02*
D03*
Y441390D02*
D03*
Y451390D02*
D03*
Y461390D02*
D03*
Y471390D02*
D03*
Y481390D02*
D03*
Y491390D02*
D03*
Y391390D02*
D03*
Y401390D02*
D03*
Y411390D02*
D03*
Y291391D02*
D03*
Y301391D02*
D03*
Y311391D02*
D03*
Y321390D02*
D03*
Y331390D02*
D03*
Y141391D02*
D03*
Y151391D02*
D03*
Y161391D02*
D03*
Y171391D02*
D03*
Y181391D02*
D03*
Y191391D02*
D03*
Y201391D02*
D03*
Y211391D02*
D03*
Y221391D02*
D03*
Y231391D02*
D03*
Y281391D02*
D03*
Y61391D02*
D03*
Y71391D02*
D03*
Y81391D02*
D03*
Y91391D02*
D03*
Y101391D02*
D03*
Y111391D02*
D03*
Y121391D02*
D03*
Y131391D02*
D03*
X374745Y6474D02*
D03*
X384745D02*
D03*
X394745D02*
D03*
X454744D02*
D03*
X464744D02*
D03*
X474744D02*
D03*
X514744D02*
D03*
X484744D02*
D03*
X574744D02*
D03*
X584744D02*
D03*
X564744D02*
D03*
X554744D02*
D03*
X524744D02*
D03*
X544744D02*
D03*
X534744D02*
D03*
X504744D02*
D03*
X494744D02*
D03*
X594744D02*
D03*
X664744D02*
D03*
X604744D02*
D03*
X674744D02*
D03*
X644744D02*
D03*
X714744D02*
D03*
X614744D02*
D03*
X624744D02*
D03*
X634744D02*
D03*
X694744D02*
D03*
X654744D02*
D03*
X734744D02*
D03*
X704744D02*
D03*
X684744D02*
D03*
X724744D02*
D03*
X744744D02*
D03*
X754744D02*
D03*
X764744D02*
D03*
X784744D02*
D03*
X774744D02*
D03*
X64745D02*
D03*
X74745D02*
D03*
X84745D02*
D03*
X94745D02*
D03*
X104745D02*
D03*
X114745D02*
D03*
X124745D02*
D03*
X134745D02*
D03*
X144745D02*
D03*
X154745D02*
D03*
X164745D02*
D03*
X174745D02*
D03*
X184745D02*
D03*
X194745D02*
D03*
X244745D02*
D03*
X204745D02*
D03*
X314745D02*
D03*
X284745D02*
D03*
X304745D02*
D03*
X294745D02*
D03*
X344745D02*
D03*
X234745D02*
D03*
X224745D02*
D03*
X214745D02*
D03*
X274745D02*
D03*
X334745D02*
D03*
X324745D02*
D03*
X264745D02*
D03*
X254745D02*
D03*
X354745D02*
D03*
X364745D02*
D03*
X6474Y132094D02*
D03*
Y142094D02*
D03*
Y152094D02*
D03*
Y162094D02*
D03*
Y202094D02*
D03*
Y232094D02*
D03*
Y222094D02*
D03*
Y192094D02*
D03*
Y212094D02*
D03*
Y182094D02*
D03*
Y172094D02*
D03*
Y72095D02*
D03*
Y82095D02*
D03*
Y62095D02*
D03*
Y92094D02*
D03*
Y102094D02*
D03*
Y112094D02*
D03*
Y122094D02*
D03*
Y282094D02*
D03*
Y292094D02*
D03*
Y302094D02*
D03*
Y312094D02*
D03*
Y322094D02*
D03*
Y332094D02*
D03*
Y342094D02*
D03*
Y392094D02*
D03*
Y402094D02*
D03*
Y412094D02*
D03*
Y422094D02*
D03*
Y442094D02*
D03*
Y452094D02*
D03*
Y432094D02*
D03*
Y462094D02*
D03*
Y542094D02*
D03*
Y532094D02*
D03*
Y502094D02*
D03*
Y522094D02*
D03*
Y512094D02*
D03*
Y552094D02*
D03*
Y562094D02*
D03*
Y572094D02*
D03*
Y582094D02*
D03*
Y592094D02*
D03*
Y662093D02*
D03*
Y652093D02*
D03*
Y642093D02*
D03*
Y602094D02*
D03*
Y612094D02*
D03*
Y622094D02*
D03*
Y632094D02*
D03*
Y672093D02*
D03*
Y682093D02*
D03*
Y472094D02*
D03*
Y492094D02*
D03*
Y482094D02*
D03*
Y692093D02*
D03*
Y712093D02*
D03*
Y742093D02*
D03*
Y702093D02*
D03*
Y752093D02*
D03*
Y762093D02*
D03*
Y722093D02*
D03*
Y732093D02*
D03*
Y772093D02*
D03*
Y782093D02*
D03*
X68018Y843526D02*
D03*
X78018D02*
D03*
X88018D02*
D03*
X98018D02*
D03*
X108018D02*
D03*
X118018D02*
D03*
X128018D02*
D03*
X138018D02*
D03*
X148018D02*
D03*
X158018D02*
D03*
X168018D02*
D03*
X178018D02*
D03*
X188018D02*
D03*
X198018D02*
D03*
X208018D02*
D03*
X218018D02*
D03*
X228018D02*
D03*
X238018D02*
D03*
X248018D02*
D03*
X258018D02*
D03*
X268018D02*
D03*
X278018D02*
D03*
X288018D02*
D03*
X298018D02*
D03*
X308018D02*
D03*
X318018D02*
D03*
X328018D02*
D03*
X338018D02*
D03*
X348018D02*
D03*
X358018D02*
D03*
X368018D02*
D03*
X378018D02*
D03*
X388018D02*
D03*
X398018D02*
D03*
X408018D02*
D03*
X428018D02*
D03*
X418018D02*
D03*
X508017D02*
D03*
X518017D02*
D03*
X528017D02*
D03*
X548017D02*
D03*
X558017D02*
D03*
X598017D02*
D03*
X568017D02*
D03*
X538017D02*
D03*
X578017D02*
D03*
X588017D02*
D03*
X498017D02*
D03*
X608017D02*
D03*
X618017D02*
D03*
X628017D02*
D03*
X638017D02*
D03*
X648017D02*
D03*
X658017D02*
D03*
X668017D02*
D03*
X678017D02*
D03*
X688017D02*
D03*
X698017D02*
D03*
X708017D02*
D03*
X718017D02*
D03*
X728017D02*
D03*
X738017D02*
D03*
X748017D02*
D03*
X758017D02*
D03*
X768017D02*
D03*
X778017D02*
D03*
X788017D02*
D03*
X228600Y269240D02*
D03*
Y126556D02*
D03*
Y120650D02*
D03*
Y274320D02*
D03*
X748030Y320040D02*
D03*
Y304800D02*
D03*
X740071Y320040D02*
D03*
X137160D02*
D03*
X152400Y302260D02*
D03*
X145020D02*
D03*
X160020Y311490D02*
D03*
X152400D02*
D03*
X145020D02*
D03*
X137160Y312420D02*
D03*
X152400Y320040D02*
D03*
X145020D02*
D03*
X410070Y521491D02*
D03*
X415070Y451490D02*
D03*
X400070Y521491D02*
D03*
X405070Y451490D02*
D03*
X395070Y591491D02*
D03*
X390070Y521491D02*
D03*
X395070Y451490D02*
D03*
X380070Y721491D02*
D03*
X385070Y711491D02*
D03*
X380070Y701491D02*
D03*
Y661490D02*
D03*
X385070Y651490D02*
D03*
X380070Y641490D02*
D03*
X385070Y631491D02*
D03*
Y591491D02*
D03*
X380070Y581491D02*
D03*
X385070Y571491D02*
D03*
X380070Y561491D02*
D03*
Y521491D02*
D03*
X385070Y511491D02*
D03*
X380070Y501491D02*
D03*
X385070Y491491D02*
D03*
Y451490D02*
D03*
X380070Y441490D02*
D03*
X385070Y431490D02*
D03*
X380070Y421490D02*
D03*
X385070Y371490D02*
D03*
X380070Y361490D02*
D03*
X385070Y351490D02*
D03*
X370070Y721491D02*
D03*
X375070Y711491D02*
D03*
X370070Y701491D02*
D03*
Y661490D02*
D03*
X375070Y651490D02*
D03*
X370070Y641490D02*
D03*
X375070Y631491D02*
D03*
Y591491D02*
D03*
X370070Y581491D02*
D03*
X375070Y571491D02*
D03*
X370070Y561491D02*
D03*
Y521491D02*
D03*
X375070Y511491D02*
D03*
X370070Y501491D02*
D03*
X375070Y491491D02*
D03*
Y451490D02*
D03*
X370070Y441490D02*
D03*
X375070Y431490D02*
D03*
X370070Y421490D02*
D03*
X375070Y371490D02*
D03*
X370070Y361490D02*
D03*
X375070Y351490D02*
D03*
X365070Y711491D02*
D03*
Y651490D02*
D03*
Y631491D02*
D03*
Y591491D02*
D03*
Y571491D02*
D03*
X360070Y521491D02*
D03*
X365070Y511491D02*
D03*
Y491491D02*
D03*
Y451490D02*
D03*
Y431490D02*
D03*
Y371490D02*
D03*
Y351490D02*
D03*
X355070Y591491D02*
D03*
X350070Y521491D02*
D03*
X355070Y451490D02*
D03*
X345070Y591491D02*
D03*
X340070Y521491D02*
D03*
X345070Y451490D02*
D03*
X320070Y601491D02*
D03*
X315070Y671491D02*
D03*
X310070Y601491D02*
D03*
X315070Y531491D02*
D03*
X310070Y521491D02*
D03*
X315070Y451490D02*
D03*
X310070Y381490D02*
D03*
X305070Y671491D02*
D03*
X300070Y601491D02*
D03*
X305070Y591491D02*
D03*
Y531491D02*
D03*
X300070Y521491D02*
D03*
X305070Y451490D02*
D03*
X300070Y381490D02*
D03*
X290070Y721491D02*
D03*
Y701491D02*
D03*
X295070Y671491D02*
D03*
X290070Y661490D02*
D03*
Y641490D02*
D03*
Y601491D02*
D03*
X295070Y591491D02*
D03*
X290070Y581491D02*
D03*
X295070Y571491D02*
D03*
X290070Y561491D02*
D03*
X295070Y531491D02*
D03*
X290070Y521491D02*
D03*
Y501491D02*
D03*
X295070Y451490D02*
D03*
X290070Y441490D02*
D03*
Y421490D02*
D03*
Y381490D02*
D03*
Y361490D02*
D03*
X280070Y721491D02*
D03*
X285070Y711491D02*
D03*
X280070Y701491D02*
D03*
X285070Y671491D02*
D03*
X280070Y661490D02*
D03*
X285070Y651490D02*
D03*
X280070Y641490D02*
D03*
X285070Y631491D02*
D03*
X280070Y601491D02*
D03*
X285070Y591491D02*
D03*
X280070Y581491D02*
D03*
X285070Y571491D02*
D03*
X280070Y561491D02*
D03*
X285070Y531491D02*
D03*
X280070Y521491D02*
D03*
X285070Y511491D02*
D03*
X280070Y501491D02*
D03*
X285070Y491491D02*
D03*
Y451490D02*
D03*
X280070Y441490D02*
D03*
X285070Y431490D02*
D03*
X280070Y421490D02*
D03*
Y381490D02*
D03*
X285070Y371490D02*
D03*
X280070Y361490D02*
D03*
X285070Y351490D02*
D03*
X270070Y721491D02*
D03*
X275070Y711491D02*
D03*
X270070Y701491D02*
D03*
X275070Y671491D02*
D03*
X270070Y661490D02*
D03*
X275070Y651490D02*
D03*
X270070Y641490D02*
D03*
X275070Y631491D02*
D03*
X270070Y601491D02*
D03*
X275070Y591491D02*
D03*
X270070Y581491D02*
D03*
X275070Y571491D02*
D03*
X270070Y561491D02*
D03*
X275070Y531491D02*
D03*
X270070Y521491D02*
D03*
X275070Y511491D02*
D03*
X270070Y501491D02*
D03*
X275070Y491491D02*
D03*
Y451490D02*
D03*
X270070Y441490D02*
D03*
X275070Y431490D02*
D03*
X270070Y421490D02*
D03*
Y381490D02*
D03*
X275070Y371490D02*
D03*
X270070Y361490D02*
D03*
X275070Y351490D02*
D03*
X265070Y671491D02*
D03*
X260070Y601491D02*
D03*
X265070Y591491D02*
D03*
Y531491D02*
D03*
X260070Y521491D02*
D03*
X265070Y451490D02*
D03*
X260070Y381490D02*
D03*
X255070Y671491D02*
D03*
X250070Y601491D02*
D03*
X255070Y591491D02*
D03*
Y531491D02*
D03*
X250070Y521491D02*
D03*
X255070Y451490D02*
D03*
X250070Y381490D02*
D03*
X245070Y671491D02*
D03*
Y451490D02*
D03*
X220070Y681491D02*
D03*
X225070Y671491D02*
D03*
Y611491D02*
D03*
X220070Y601491D02*
D03*
X225070Y531491D02*
D03*
X220070Y521491D02*
D03*
Y461490D02*
D03*
X225070Y451490D02*
D03*
Y391490D02*
D03*
X220070Y381490D02*
D03*
X210070Y681491D02*
D03*
X215070Y671491D02*
D03*
Y611491D02*
D03*
X210070Y601491D02*
D03*
X215070Y591491D02*
D03*
Y531491D02*
D03*
X210070Y521491D02*
D03*
Y461490D02*
D03*
X215070Y451490D02*
D03*
Y391490D02*
D03*
X210070Y381490D02*
D03*
X200070Y721491D02*
D03*
Y701491D02*
D03*
Y681491D02*
D03*
X205070Y671491D02*
D03*
X200070Y661490D02*
D03*
Y641490D02*
D03*
X205070Y611491D02*
D03*
X200070Y601491D02*
D03*
X205070Y591491D02*
D03*
X200070Y581491D02*
D03*
Y561491D02*
D03*
X205070Y531491D02*
D03*
X200070Y521491D02*
D03*
Y501491D02*
D03*
Y461490D02*
D03*
X205070Y451490D02*
D03*
X200070Y441490D02*
D03*
Y421490D02*
D03*
X205070Y391490D02*
D03*
X200070Y381490D02*
D03*
Y361490D02*
D03*
X190070Y721491D02*
D03*
X195070Y711491D02*
D03*
X190070Y701491D02*
D03*
Y681491D02*
D03*
X195070Y671491D02*
D03*
X190070Y661490D02*
D03*
X195070Y651490D02*
D03*
X190070Y641490D02*
D03*
X195070Y631491D02*
D03*
Y611491D02*
D03*
X190070Y601491D02*
D03*
X195070Y591491D02*
D03*
X190070Y581491D02*
D03*
X195070Y571491D02*
D03*
X190070Y561491D02*
D03*
X195070Y531491D02*
D03*
X190070Y521491D02*
D03*
X195070Y511491D02*
D03*
X190070Y501491D02*
D03*
X195070Y491491D02*
D03*
X190070Y461490D02*
D03*
X195070Y451490D02*
D03*
X190070Y441490D02*
D03*
X195070Y431490D02*
D03*
X190070Y421490D02*
D03*
X195070Y391490D02*
D03*
X190070Y381490D02*
D03*
X195070Y371490D02*
D03*
X190070Y361490D02*
D03*
X195070Y351490D02*
D03*
X180070Y721491D02*
D03*
X185070Y711491D02*
D03*
X180070Y701491D02*
D03*
Y681491D02*
D03*
X185070Y671491D02*
D03*
X180070Y661490D02*
D03*
X185070Y651490D02*
D03*
X180070Y641490D02*
D03*
X185070Y631491D02*
D03*
Y611491D02*
D03*
X180070Y601491D02*
D03*
X185070Y591491D02*
D03*
X180070Y581491D02*
D03*
X185070Y571491D02*
D03*
X180070Y561491D02*
D03*
X185070Y531491D02*
D03*
X180070Y521491D02*
D03*
X185070Y511491D02*
D03*
X180070Y501491D02*
D03*
X185070Y491491D02*
D03*
X180070Y461490D02*
D03*
X185070Y451490D02*
D03*
X180070Y441490D02*
D03*
X185070Y431490D02*
D03*
X180070Y421490D02*
D03*
X185070Y391490D02*
D03*
X180070Y381490D02*
D03*
X185070Y371490D02*
D03*
X180070Y361490D02*
D03*
X185070Y351490D02*
D03*
X170070Y681491D02*
D03*
X175070Y671491D02*
D03*
Y611491D02*
D03*
X170070Y601491D02*
D03*
X175070Y591491D02*
D03*
Y571491D02*
D03*
Y531491D02*
D03*
X170070Y521491D02*
D03*
Y461490D02*
D03*
X175070Y451490D02*
D03*
Y391490D02*
D03*
X170070Y381490D02*
D03*
X175070Y371490D02*
D03*
Y351490D02*
D03*
X160070Y681491D02*
D03*
X165070Y671491D02*
D03*
Y611491D02*
D03*
X160070Y601491D02*
D03*
X165070Y591491D02*
D03*
Y531491D02*
D03*
X160070Y521491D02*
D03*
Y461490D02*
D03*
X165070Y451490D02*
D03*
Y391490D02*
D03*
X160070Y381490D02*
D03*
X150070Y681491D02*
D03*
X155070Y671491D02*
D03*
Y611491D02*
D03*
X150070Y601491D02*
D03*
X155070Y531491D02*
D03*
X150070Y521491D02*
D03*
Y461490D02*
D03*
X155070Y451490D02*
D03*
Y391490D02*
D03*
X150070Y381490D02*
D03*
X135070Y691491D02*
D03*
X130070Y681491D02*
D03*
Y601491D02*
D03*
Y541491D02*
D03*
Y521491D02*
D03*
Y461490D02*
D03*
Y401490D02*
D03*
Y381490D02*
D03*
X125070Y691491D02*
D03*
X120070Y681491D02*
D03*
X125070Y671491D02*
D03*
X120070Y621491D02*
D03*
X125070Y611491D02*
D03*
X120070Y601491D02*
D03*
Y541491D02*
D03*
X125070Y531491D02*
D03*
X120070Y521491D02*
D03*
X125070Y471490D02*
D03*
X120070Y461490D02*
D03*
X125070Y451490D02*
D03*
X120070Y401490D02*
D03*
X125070Y391490D02*
D03*
X120070Y381490D02*
D03*
X115070Y691491D02*
D03*
X110070Y681491D02*
D03*
X115070Y671491D02*
D03*
X110070Y621491D02*
D03*
X115070Y611491D02*
D03*
X110070Y601491D02*
D03*
X115070Y591491D02*
D03*
X110070Y541491D02*
D03*
X115070Y531491D02*
D03*
X110070Y521491D02*
D03*
X115070Y471490D02*
D03*
X110070Y461490D02*
D03*
X115070Y451490D02*
D03*
X110070Y401490D02*
D03*
X115070Y391490D02*
D03*
X110070Y381490D02*
D03*
X647700Y230440D02*
D03*
X482768Y223343D02*
D03*
X647700Y459740D02*
D03*
X704850Y571546D02*
D03*
X647700Y286893D02*
D03*
Y431800D02*
D03*
Y749300D02*
D03*
Y652780D02*
D03*
Y557546D02*
D03*
X648011Y626038D02*
D03*
X681990Y723900D02*
D03*
X689610Y701040D02*
D03*
X701130Y626038D02*
D03*
X740071Y304800D02*
D03*
X755650D02*
D03*
Y320040D02*
D03*
X228600Y263438D02*
D03*
Y114300D02*
D03*
X729336Y331470D02*
D03*
X538950D02*
D03*
X704850Y348810D02*
D03*
X559450D02*
D03*
X712630Y607538D02*
D03*
X546450Y585470D02*
D03*
X681990Y217170D02*
D03*
X689610Y150485D02*
D03*
X697230Y243117D02*
D03*
X531410Y153290D02*
D03*
X721380Y134620D02*
D03*
X729336Y115570D02*
D03*
X721380Y637688D02*
D03*
X704850Y128270D02*
D03*
X712630Y121920D02*
D03*
X712630Y588538D02*
D03*
X729336Y560070D02*
D03*
X596900Y171988D02*
D03*
X559900Y172426D02*
D03*
X431518Y162000D02*
D03*
X407670Y155500D02*
D03*
Y168500D02*
D03*
Y142462D02*
D03*
X431518Y181500D02*
D03*
X398780Y175000D02*
D03*
X462218Y98870D02*
D03*
X449518D02*
D03*
X137160Y302260D02*
D03*
X160020D02*
D03*
Y320040D02*
D03*
X517650Y348810D02*
D03*
X526320D02*
D03*
X491640D02*
D03*
X449313Y286815D02*
D03*
X543560Y286893D02*
D03*
X462280Y256540D02*
D03*
X421018Y274320D02*
D03*
X551717D02*
D03*
X429820Y203150D02*
D03*
X510540D02*
D03*
X421018Y252462D02*
D03*
Y115570D02*
D03*
X398780Y216993D02*
D03*
X407670Y243117D02*
D03*
X526320Y640311D02*
D03*
Y496311D02*
D03*
X491640Y718820D02*
D03*
Y574040D02*
D03*
Y429260D02*
D03*
X517479Y574040D02*
D03*
X517650Y718040D02*
D03*
Y430040D02*
D03*
X538898Y650806D02*
D03*
Y362806D02*
D03*
Y506806D02*
D03*
X585450Y532383D02*
D03*
X572450Y596020D02*
D03*
Y524020D02*
D03*
X611450Y548349D02*
D03*
X559450Y637540D02*
D03*
X559450Y576580D02*
D03*
X585450Y604383D02*
D03*
X546450Y431800D02*
D03*
Y718820D02*
D03*
X611450Y620349D02*
D03*
X598450Y540530D02*
D03*
Y612530D02*
D03*
X559450Y431800D02*
D03*
X559450Y495300D02*
D03*
X585450Y676383D02*
D03*
X611450Y404349D02*
D03*
X598450Y396530D02*
D03*
X585450Y388383D02*
D03*
X572450Y380020D02*
D03*
X611450Y692349D02*
D03*
X598450Y684530D02*
D03*
X572450Y668020D02*
D03*
Y452020D02*
D03*
X585450Y460383D02*
D03*
X598450Y468530D02*
D03*
X611450Y476349D02*
D03*
Y765629D02*
D03*
X598450Y757810D02*
D03*
X585450Y749663D02*
D03*
X572450Y741300D02*
D03*
M02*
