G04*
G04 #@! TF.GenerationSoftware,Altium Limited,Altium Designer,25.8.1 (18)*
G04*
G04 Layer_Physical_Order=3*
G04 Layer_Color=16440176*
%FSLAX44Y44*%
%MOMM*%
G71*
G04*
G04 #@! TF.SameCoordinates,CB4A00FE-05D9-49C1-B717-2607D131DABB*
G04*
G04*
G04 #@! TF.FilePolarity,Positive*
G04*
G01*
G75*
%ADD44C,1.2700*%
%ADD65R,35.0520X39.6240*%
%ADD67C,6.0000*%
%ADD76C,0.9000*%
%ADD77C,0.3810*%
%ADD78C,0.6096*%
%ADD79C,0.3302*%
%ADD80C,0.4000*%
%ADD83C,0.8000*%
%ADD84C,0.7000*%
%ADD85C,0.6000*%
%ADD86C,0.3500*%
G36*
X12000Y852176D02*
X836783D01*
X838000Y852176D01*
X838050Y852178D01*
X839272Y852057D01*
X841682Y851740D01*
X845113Y850319D01*
X848059Y848058D01*
X850319Y845112D01*
X851740Y841682D01*
X852206Y838148D01*
X852176Y838000D01*
Y684290D01*
X852176Y683057D01*
X852178Y683022D01*
X852043Y681806D01*
X851792Y679898D01*
X850572Y676954D01*
X848632Y674425D01*
X846104Y672485D01*
X843160Y671266D01*
X840096Y670862D01*
X840000Y670882D01*
X828860D01*
X827779Y670667D01*
X826863Y670054D01*
X826251Y669138D01*
X826036Y668057D01*
Y515497D01*
X826251Y514416D01*
X826863Y513500D01*
X827779Y512888D01*
X828860Y512673D01*
X840000D01*
X840096Y512692D01*
X843160Y512289D01*
X846104Y511069D01*
X848632Y509129D01*
X850572Y506601D01*
X851792Y503657D01*
X852195Y500593D01*
X852176Y500497D01*
Y13233D01*
X852176Y12000D01*
X852177Y11965D01*
X852059Y10743D01*
X851740Y8318D01*
X850319Y4888D01*
X848058Y1942D01*
X845112Y-319D01*
X841682Y-1740D01*
X838148Y-2205D01*
X838000Y-2176D01*
X13218D01*
X12000Y-2176D01*
X11950Y-2177D01*
X10729Y-2057D01*
X8318Y-1740D01*
X4888Y-319D01*
X1942Y1942D01*
X-319Y4888D01*
X-1740Y8319D01*
X-2205Y11852D01*
X-2176Y12000D01*
Y836783D01*
X-2176Y838000D01*
X-2177Y838050D01*
X-2057Y839272D01*
X-1740Y841682D01*
X-319Y845113D01*
X1942Y848059D01*
X4888Y850319D01*
X8319Y851740D01*
X11852Y852206D01*
X12000Y852176D01*
D02*
G37*
%LPC*%
G36*
X823942Y841120D02*
X822969D01*
X823974Y838694D01*
X819354Y836780D01*
X818349Y839206D01*
X817662Y838519D01*
X816748Y836313D01*
Y835341D01*
X819174Y836346D01*
X821088Y831726D01*
X818662Y830721D01*
X819349Y830033D01*
X821555Y829120D01*
X822527D01*
X821523Y831546D01*
X826142Y833459D01*
X827147Y831033D01*
X827835Y831721D01*
X828748Y833926D01*
Y834899D01*
X826322Y833894D01*
X824408Y838514D01*
X826835Y839519D01*
X826147Y840206D01*
X823942Y841120D01*
D02*
G37*
G36*
X45942D02*
X44969D01*
X45974Y838694D01*
X41354Y836780D01*
X40349Y839206D01*
X39662Y838519D01*
X39662Y838519D01*
X38748Y836313D01*
Y835341D01*
X41174Y836346D01*
X43088Y831726D01*
X40662Y830721D01*
X41349Y830033D01*
X43555Y829120D01*
X44527D01*
X43523Y831546D01*
X48142Y833459D01*
X49147Y831033D01*
X49835Y831721D01*
X50748Y833926D01*
Y834899D01*
X48322Y833894D01*
X46409Y838514D01*
X48835Y839519D01*
X48147Y840206D01*
X45942Y841120D01*
D02*
G37*
G36*
X804878Y840751D02*
X801600Y839954D01*
X801165Y839519D01*
X803592Y838514D01*
X801678Y833894D01*
X799252Y834899D01*
Y833926D01*
X800165Y831721D01*
X800853Y831033D01*
X801858Y833459D01*
X806478Y831546D01*
X805473Y829120D01*
X806445D01*
X808651Y830033D01*
X809338Y830721D01*
X806912Y831726D01*
X808826Y836346D01*
X811252Y835341D01*
Y836313D01*
X810338Y838519D01*
X809651Y839206D01*
X808646Y836780D01*
X804026Y838694D01*
X804878Y840751D01*
D02*
G37*
G36*
X27031Y841120D02*
X26058D01*
X23853Y840206D01*
X23165Y839519D01*
X25591Y838514D01*
X23678Y833894D01*
X21252Y834899D01*
Y833926D01*
X22165Y831721D01*
X22853Y831033D01*
X23858Y833459D01*
X28477Y831546D01*
X27473Y829120D01*
X28445D01*
X30651Y830033D01*
X31338Y830721D01*
X28912Y831726D01*
X30826Y836346D01*
X33252Y835341D01*
Y836313D01*
X32338Y838519D01*
X31651Y839206D01*
X30646Y836780D01*
X26026Y838694D01*
X27031Y841120D01*
D02*
G37*
G36*
X794074Y828748D02*
X793101D01*
X794106Y826322D01*
X789486Y824408D01*
X788481Y826835D01*
X787794Y826147D01*
X786880Y823942D01*
Y822969D01*
X789306Y823974D01*
X791220Y819354D01*
X788793Y818349D01*
X789481Y817662D01*
X791687Y816748D01*
X792659D01*
X791655Y819174D01*
X796274Y821088D01*
X797279Y818662D01*
X797967Y819349D01*
X798880Y821555D01*
Y822527D01*
X796454Y821523D01*
X794540Y826142D01*
X796967Y827147D01*
X796279Y827835D01*
X794074Y828748D01*
D02*
G37*
G36*
X16074D02*
X15101D01*
X16106Y826322D01*
X11486Y824408D01*
X10481Y826835D01*
X9794Y826147D01*
X8880Y823942D01*
Y822969D01*
X11306Y823974D01*
X13220Y819354D01*
X10794Y818349D01*
X11481Y817662D01*
X13687Y816748D01*
X14659D01*
X13655Y819174D01*
X18274Y821088D01*
X19279Y818662D01*
X19967Y819349D01*
X20880Y821555D01*
Y822527D01*
X18454Y821523D01*
X16540Y826142D01*
X18967Y827147D01*
X18279Y827835D01*
X16074Y828748D01*
D02*
G37*
G36*
X834899D02*
X833926D01*
X831721Y827835D01*
X831033Y827147D01*
X833459Y826142D01*
X831546Y821523D01*
X829120Y822527D01*
Y821555D01*
X830033Y819349D01*
X830721Y818662D01*
X831726Y821088D01*
X836346Y819174D01*
X835341Y816748D01*
X836313D01*
X838519Y817662D01*
X839206Y818349D01*
X836780Y819354D01*
X838694Y823974D01*
X841120Y822969D01*
Y823942D01*
X840206Y826147D01*
X839707Y826646D01*
X839441D01*
X838514Y824408D01*
X833894Y826322D01*
X834899Y828748D01*
D02*
G37*
G36*
X56899D02*
X55926D01*
X53721Y827835D01*
X53033Y827147D01*
X55459Y826142D01*
X53546Y821523D01*
X51120Y822527D01*
Y821555D01*
X52033Y819349D01*
X52721Y818662D01*
X53726Y821088D01*
X58346Y819174D01*
X57341Y816748D01*
X58313D01*
X60519Y817662D01*
X61206Y818349D01*
X58780Y819354D01*
X60694Y823974D01*
X63120Y822969D01*
Y823942D01*
X62207Y826147D01*
X61519Y826835D01*
X60514Y824408D01*
X55894Y826322D01*
X56899Y828748D01*
D02*
G37*
G36*
X836313Y811252D02*
X835341D01*
X836346Y808826D01*
X831726Y806912D01*
X830721Y809338D01*
X830033Y808651D01*
X829120Y806445D01*
Y805473D01*
X831546Y806478D01*
X833459Y801858D01*
X831033Y800853D01*
X831721Y800165D01*
X833926Y799252D01*
X834899D01*
X833894Y801678D01*
X838514Y803592D01*
X839519Y801165D01*
X840206Y801853D01*
X841120Y804058D01*
Y805031D01*
X838694Y804026D01*
X836780Y808646D01*
X839206Y809651D01*
X838519Y810338D01*
X836313Y811252D01*
D02*
G37*
G36*
X58313D02*
X57341D01*
X58345Y808826D01*
X53726Y806912D01*
X52721Y809338D01*
X52033Y808651D01*
X51120Y806445D01*
Y805473D01*
X53546Y806478D01*
X55459Y801858D01*
X53033Y800853D01*
X53721Y800165D01*
X55926Y799252D01*
X56899D01*
X55894Y801678D01*
X60514Y803592D01*
X61519Y801165D01*
X62206Y801853D01*
X63120Y804058D01*
Y805031D01*
X60694Y804026D01*
X58780Y808646D01*
X61206Y809651D01*
X60519Y810338D01*
X58313Y811252D01*
D02*
G37*
G36*
X792659D02*
X791687D01*
X789481Y810338D01*
X788793Y809651D01*
X791220Y808646D01*
X789306Y804026D01*
X786880Y805031D01*
Y804058D01*
X787794Y801853D01*
X788481Y801165D01*
X789486Y803592D01*
X794106Y801678D01*
X793101Y799252D01*
X794074D01*
X796279Y800165D01*
X796967Y800853D01*
X794540Y801858D01*
X796454Y806478D01*
X798880Y805473D01*
Y806445D01*
X797967Y808651D01*
X797279Y809338D01*
X796274Y806912D01*
X791654Y808826D01*
X792659Y811252D01*
D02*
G37*
G36*
X14659D02*
X13687D01*
X11481Y810338D01*
X10793Y809651D01*
X13220Y808646D01*
X11306Y804026D01*
X8880Y805031D01*
Y804058D01*
X9794Y801853D01*
X10481Y801165D01*
X11486Y803592D01*
X16106Y801678D01*
X15101Y799252D01*
X16074D01*
X18279Y800165D01*
X18967Y800853D01*
X16540Y801858D01*
X18454Y806478D01*
X20880Y805473D01*
Y806445D01*
X19967Y808651D01*
X19279Y809338D01*
X18274Y806912D01*
X13655Y808826D01*
X14659Y811252D01*
D02*
G37*
G36*
X806445Y798880D02*
X805473D01*
X806478Y796454D01*
X801858Y794540D01*
X800853Y796967D01*
X800165Y796279D01*
X799252Y794074D01*
Y793101D01*
X801678Y794106D01*
X803592Y789486D01*
X801165Y788481D01*
X801853Y787794D01*
X804058Y786880D01*
X805031D01*
X804026Y789306D01*
X808646Y791220D01*
X809651Y788793D01*
X810338Y789481D01*
X811252Y791687D01*
Y792659D01*
X808826Y791655D01*
X806912Y796274D01*
X809338Y797279D01*
X808651Y797967D01*
X806445Y798880D01*
D02*
G37*
G36*
X28445D02*
X27473D01*
X28477Y796454D01*
X23858Y794540D01*
X22853Y796967D01*
X22165Y796279D01*
X21252Y794074D01*
Y793101D01*
X23678Y794106D01*
X25591Y789486D01*
X23165Y788481D01*
X23853Y787794D01*
X26058Y786880D01*
X27031D01*
X26026Y789306D01*
X30646Y791220D01*
X31651Y788793D01*
X32338Y789481D01*
X33252Y791687D01*
Y792659D01*
X30826Y791655D01*
X28912Y796274D01*
X31338Y797279D01*
X30651Y797967D01*
X28445Y798880D01*
D02*
G37*
G36*
X822527Y798880D02*
X821555D01*
X819349Y797967D01*
X818662Y797279D01*
X821088Y796274D01*
X819174Y791654D01*
X816748Y792659D01*
Y791687D01*
X817662Y789481D01*
X818349Y788793D01*
X819354Y791220D01*
X823974Y789306D01*
X822969Y786880D01*
X823942D01*
X826147Y787794D01*
X826835Y788481D01*
X824408Y789486D01*
X826322Y794106D01*
X828748Y793101D01*
Y794074D01*
X827835Y796279D01*
X827147Y796967D01*
X826142Y794540D01*
X821523Y796454D01*
X822527Y798880D01*
D02*
G37*
G36*
X44527D02*
X43555D01*
X41349Y797967D01*
X40662Y797279D01*
X43088Y796274D01*
X41174Y791654D01*
X38748Y792659D01*
Y791687D01*
X39662Y789481D01*
X40349Y788793D01*
X41354Y791220D01*
X45974Y789306D01*
X44969Y786880D01*
X45942D01*
X48147Y787794D01*
X48835Y788481D01*
X46409Y789486D01*
X48322Y794106D01*
X50748Y793101D01*
Y794074D01*
X49835Y796279D01*
X49147Y796967D01*
X48142Y794540D01*
X43523Y796454D01*
X44527Y798880D01*
D02*
G37*
G36*
X612345Y770129D02*
X610555D01*
X608901Y769444D01*
X607635Y768178D01*
X606950Y766524D01*
Y764734D01*
X607635Y763080D01*
X608901Y761814D01*
X610555Y761129D01*
X612345D01*
X613999Y761814D01*
X615265Y763080D01*
X615950Y764734D01*
Y766524D01*
X615265Y768178D01*
X613999Y769444D01*
X612345Y770129D01*
D02*
G37*
G36*
X599345Y762310D02*
X597555D01*
X595901Y761625D01*
X594635Y760359D01*
X593950Y758705D01*
Y756915D01*
X594635Y755261D01*
X595901Y753995D01*
X597555Y753310D01*
X599345D01*
X600999Y753995D01*
X602265Y755261D01*
X602950Y756915D01*
Y758705D01*
X602265Y760359D01*
X600999Y761625D01*
X599345Y762310D01*
D02*
G37*
G36*
X586345Y754163D02*
X584555D01*
X582901Y753478D01*
X581635Y752212D01*
X580950Y750558D01*
Y748768D01*
X581635Y747114D01*
X582901Y745848D01*
X584555Y745163D01*
X586345D01*
X587999Y745848D01*
X589265Y747114D01*
X589950Y748768D01*
Y750558D01*
X589265Y752212D01*
X587999Y753478D01*
X586345Y754163D01*
D02*
G37*
G36*
X648595Y753800D02*
X646805D01*
X645151Y753115D01*
X643885Y751849D01*
X643200Y750195D01*
Y748405D01*
X643885Y746751D01*
X645151Y745485D01*
X646805Y744800D01*
X648595D01*
X650249Y745485D01*
X651515Y746751D01*
X652200Y748405D01*
Y750195D01*
X651515Y751849D01*
X650249Y753115D01*
X648595Y753800D01*
D02*
G37*
G36*
X573345Y745800D02*
X571555D01*
X569901Y745115D01*
X568635Y743849D01*
X567950Y742195D01*
Y740405D01*
X568635Y738751D01*
X569901Y737485D01*
X571555Y736800D01*
X573345D01*
X574999Y737485D01*
X576265Y738751D01*
X576950Y740405D01*
Y742195D01*
X576265Y743849D01*
X574999Y745115D01*
X573345Y745800D01*
D02*
G37*
G36*
X612345Y696849D02*
X610555D01*
X608901Y696164D01*
X607635Y694898D01*
X606950Y693244D01*
Y691454D01*
X607635Y689800D01*
X608901Y688534D01*
X610555Y687849D01*
X612345D01*
X613999Y688534D01*
X615265Y689800D01*
X615950Y691454D01*
Y693244D01*
X615265Y694898D01*
X613999Y696164D01*
X612345Y696849D01*
D02*
G37*
G36*
X599345Y689030D02*
X597555D01*
X595901Y688345D01*
X594635Y687079D01*
X593950Y685425D01*
Y683635D01*
X594635Y681981D01*
X595901Y680715D01*
X597555Y680030D01*
X599345D01*
X600999Y680715D01*
X602265Y681981D01*
X602950Y683635D01*
Y685425D01*
X602265Y687079D01*
X600999Y688345D01*
X599345Y689030D01*
D02*
G37*
G36*
X586345Y680883D02*
X584555D01*
X582901Y680198D01*
X581635Y678932D01*
X580950Y677278D01*
Y675488D01*
X581635Y673834D01*
X582901Y672568D01*
X584555Y671883D01*
X586345D01*
X587999Y672568D01*
X589265Y673834D01*
X589950Y675488D01*
Y677278D01*
X589265Y678932D01*
X587999Y680198D01*
X586345Y680883D01*
D02*
G37*
G36*
X573345Y672520D02*
X571555D01*
X569901Y671835D01*
X568635Y670569D01*
X567950Y668915D01*
Y667125D01*
X568635Y665471D01*
X569901Y664205D01*
X571555Y663520D01*
X573345D01*
X574999Y664205D01*
X576265Y665471D01*
X576950Y667125D01*
Y668915D01*
X576265Y670569D01*
X574999Y671835D01*
X573345Y672520D01*
D02*
G37*
G36*
X547345Y723320D02*
X545555D01*
X543901Y722635D01*
X542635Y721369D01*
X541950Y719715D01*
Y717925D01*
X542635Y716271D01*
X542847Y716059D01*
X542920Y714984D01*
X542921Y714693D01*
X542978Y714558D01*
Y654886D01*
X541708Y654360D01*
X541447Y654621D01*
X539793Y655306D01*
X538003D01*
X536349Y654621D01*
X535083Y653355D01*
X534398Y651701D01*
Y649911D01*
X535083Y648257D01*
X535200Y648140D01*
X535277Y646684D01*
X535330Y646574D01*
Y510979D01*
X535275Y510847D01*
X535274Y510521D01*
X535251Y509552D01*
X535248Y509520D01*
X535083Y509355D01*
X534398Y507701D01*
Y505911D01*
X535083Y504257D01*
X535200Y504140D01*
X535277Y502684D01*
X535330Y502574D01*
Y366978D01*
X535275Y366847D01*
X535274Y366521D01*
X535251Y365552D01*
X535248Y365520D01*
X535083Y365355D01*
X534398Y363701D01*
Y361911D01*
X535083Y360257D01*
X535240Y360101D01*
X535299Y359041D01*
X535300Y358742D01*
X535303Y358735D01*
X535301Y358728D01*
X535355Y358600D01*
Y335636D01*
X535301Y335510D01*
X535278Y334184D01*
X535277Y334161D01*
X535135Y334019D01*
X534450Y332365D01*
Y330575D01*
X535135Y328921D01*
X536401Y327655D01*
X538055Y326970D01*
X539845D01*
X541499Y327655D01*
X542765Y328921D01*
X543450Y330575D01*
Y332365D01*
X542765Y334019D01*
X542608Y334175D01*
X542549Y335235D01*
X542548Y335534D01*
X542545Y335541D01*
X542547Y335548D01*
X542493Y335676D01*
Y358640D01*
X542547Y358766D01*
X542570Y360092D01*
X542571Y360115D01*
X542713Y360257D01*
X543398Y361911D01*
Y363701D01*
X542713Y365355D01*
X542596Y365472D01*
X542519Y366928D01*
X542467Y367038D01*
Y427623D01*
X543737Y428149D01*
X543901Y427985D01*
X545555Y427300D01*
X547345D01*
X548999Y427985D01*
X550265Y429251D01*
X550950Y430905D01*
Y432695D01*
X550265Y434349D01*
X550053Y434561D01*
X549980Y435636D01*
X549979Y435927D01*
X549922Y436062D01*
Y581200D01*
X549978Y581333D01*
X549986Y581956D01*
X550006Y582409D01*
X550034Y582690D01*
X550265Y582921D01*
X550950Y584575D01*
Y586365D01*
X550265Y588019D01*
X550053Y588231D01*
X549980Y589306D01*
X549979Y589597D01*
X549922Y589732D01*
Y714550D01*
X549978Y714683D01*
X549986Y715306D01*
X550006Y715759D01*
X550034Y716040D01*
X550265Y716271D01*
X550950Y717925D01*
Y719715D01*
X550265Y721369D01*
X548999Y722635D01*
X547345Y723320D01*
D02*
G37*
G36*
X648595Y657280D02*
X646805D01*
X645151Y656595D01*
X643885Y655329D01*
X643200Y653675D01*
Y651885D01*
X643885Y650231D01*
X645151Y648965D01*
X646805Y648280D01*
X648595D01*
X650249Y648965D01*
X651515Y650231D01*
X652200Y651885D01*
Y653675D01*
X651515Y655329D01*
X650249Y656595D01*
X648595Y657280D01*
D02*
G37*
G36*
X648906Y630538D02*
X647115D01*
X645462Y629852D01*
X644196Y628587D01*
X643511Y626933D01*
Y625143D01*
X644196Y623489D01*
X645462Y622223D01*
X647115Y621538D01*
X648906D01*
X650560Y622223D01*
X651825Y623489D01*
X652511Y625143D01*
Y626933D01*
X651825Y628587D01*
X650560Y629852D01*
X648906Y630538D01*
D02*
G37*
G36*
X612345Y624849D02*
X610555D01*
X608901Y624164D01*
X607635Y622898D01*
X606950Y621244D01*
Y619454D01*
X607635Y617800D01*
X608901Y616534D01*
X610555Y615849D01*
X612345D01*
X613999Y616534D01*
X615265Y617800D01*
X615950Y619454D01*
Y621244D01*
X615265Y622898D01*
X613999Y624164D01*
X612345Y624849D01*
D02*
G37*
G36*
X599345Y617030D02*
X597555D01*
X595901Y616345D01*
X594635Y615079D01*
X593950Y613425D01*
Y611635D01*
X594635Y609981D01*
X595901Y608715D01*
X597555Y608030D01*
X599345D01*
X600999Y608715D01*
X602265Y609981D01*
X602950Y611635D01*
Y613425D01*
X602265Y615079D01*
X600999Y616345D01*
X599345Y617030D01*
D02*
G37*
G36*
X586345Y608883D02*
X584555D01*
X582901Y608198D01*
X581635Y606932D01*
X580950Y605278D01*
Y603488D01*
X581635Y601834D01*
X582901Y600568D01*
X584555Y599883D01*
X586345D01*
X587999Y600568D01*
X589265Y601834D01*
X589950Y603488D01*
Y605278D01*
X589265Y606932D01*
X587999Y608198D01*
X586345Y608883D01*
D02*
G37*
G36*
X573345Y600520D02*
X571555D01*
X569901Y599835D01*
X568635Y598569D01*
X567950Y596915D01*
Y595125D01*
X568635Y593471D01*
X569901Y592205D01*
X571555Y591520D01*
X573345D01*
X574999Y592205D01*
X576265Y593471D01*
X576950Y595125D01*
Y596915D01*
X576265Y598569D01*
X574999Y599835D01*
X573345Y600520D01*
D02*
G37*
G36*
X560345Y642040D02*
X558555D01*
X556901Y641355D01*
X555635Y640089D01*
X554950Y638435D01*
Y636645D01*
X555635Y634991D01*
X555847Y634780D01*
X555920Y633703D01*
X555921Y633413D01*
X555978Y633278D01*
Y580849D01*
X555922Y580717D01*
X555914Y580094D01*
X555894Y579641D01*
X555866Y579360D01*
X555635Y579129D01*
X554950Y577475D01*
Y575685D01*
X555635Y574031D01*
X556901Y572765D01*
X558555Y572080D01*
X560345D01*
X561999Y572765D01*
X563265Y574031D01*
X563950Y575685D01*
Y577475D01*
X563265Y579129D01*
X563053Y579341D01*
X562980Y580417D01*
X562979Y580707D01*
X562922Y580842D01*
Y633270D01*
X562979Y633403D01*
X562986Y634026D01*
X563006Y634479D01*
X563034Y634760D01*
X563265Y634991D01*
X563950Y636645D01*
Y638435D01*
X563265Y640089D01*
X561999Y641355D01*
X560345Y642040D01*
D02*
G37*
G36*
X648595Y562046D02*
X646805D01*
X645151Y561361D01*
X643885Y560095D01*
X643200Y558441D01*
Y556651D01*
X643885Y554997D01*
X645151Y553731D01*
X646805Y553046D01*
X648595D01*
X650249Y553731D01*
X651515Y554997D01*
X652200Y556651D01*
Y558441D01*
X651515Y560095D01*
X650249Y561361D01*
X648595Y562046D01*
D02*
G37*
G36*
X612345Y552849D02*
X610555D01*
X608901Y552164D01*
X607635Y550898D01*
X606950Y549244D01*
Y547454D01*
X607635Y545800D01*
X608901Y544534D01*
X610555Y543849D01*
X612345D01*
X613999Y544534D01*
X615265Y545800D01*
X615950Y547454D01*
Y549244D01*
X615265Y550898D01*
X613999Y552164D01*
X612345Y552849D01*
D02*
G37*
G36*
X599345Y545030D02*
X597555D01*
X595901Y544345D01*
X594635Y543079D01*
X593950Y541425D01*
Y539635D01*
X594635Y537981D01*
X595901Y536715D01*
X597555Y536030D01*
X599345D01*
X600999Y536715D01*
X602265Y537981D01*
X602950Y539635D01*
Y541425D01*
X602265Y543079D01*
X600999Y544345D01*
X599345Y545030D01*
D02*
G37*
G36*
X586345Y536883D02*
X584555D01*
X582901Y536198D01*
X581635Y534932D01*
X580950Y533278D01*
Y531488D01*
X581635Y529834D01*
X582901Y528568D01*
X584555Y527883D01*
X586345D01*
X587999Y528568D01*
X589265Y529834D01*
X589950Y531488D01*
Y533278D01*
X589265Y534932D01*
X587999Y536198D01*
X586345Y536883D01*
D02*
G37*
G36*
X573345Y528520D02*
X571555D01*
X569901Y527835D01*
X568635Y526569D01*
X567950Y524915D01*
Y523125D01*
X568635Y521471D01*
X569901Y520205D01*
X571555Y519520D01*
X573345D01*
X574999Y520205D01*
X576265Y521471D01*
X576950Y523125D01*
Y524915D01*
X576265Y526569D01*
X574999Y527835D01*
X573345Y528520D01*
D02*
G37*
G36*
X612345Y480849D02*
X610555D01*
X608901Y480164D01*
X607635Y478898D01*
X606950Y477244D01*
Y475454D01*
X607635Y473800D01*
X608901Y472534D01*
X610555Y471849D01*
X612345D01*
X613999Y472534D01*
X615265Y473800D01*
X615950Y475454D01*
Y477244D01*
X615265Y478898D01*
X613999Y480164D01*
X612345Y480849D01*
D02*
G37*
G36*
X599345Y473030D02*
X597555D01*
X595901Y472345D01*
X594635Y471079D01*
X593950Y469425D01*
Y467635D01*
X594635Y465981D01*
X595901Y464715D01*
X597555Y464030D01*
X599345D01*
X600999Y464715D01*
X602265Y465981D01*
X602950Y467635D01*
Y469425D01*
X602265Y471079D01*
X600999Y472345D01*
X599345Y473030D01*
D02*
G37*
G36*
X586345Y464883D02*
X584555D01*
X582901Y464198D01*
X581635Y462932D01*
X580950Y461278D01*
Y459488D01*
X581635Y457834D01*
X582901Y456568D01*
X584555Y455883D01*
X586345D01*
X587999Y456568D01*
X589265Y457834D01*
X589950Y459488D01*
Y461278D01*
X589265Y462932D01*
X587999Y464198D01*
X586345Y464883D01*
D02*
G37*
G36*
X648595Y464240D02*
X646805D01*
X645151Y463555D01*
X643885Y462289D01*
X643200Y460635D01*
Y458845D01*
X643885Y457191D01*
X645151Y455925D01*
X646805Y455240D01*
X648595D01*
X650249Y455925D01*
X651515Y457191D01*
X652200Y458845D01*
Y460635D01*
X651515Y462289D01*
X650249Y463555D01*
X648595Y464240D01*
D02*
G37*
G36*
X573345Y456520D02*
X571555D01*
X569901Y455835D01*
X568635Y454569D01*
X567950Y452915D01*
Y451125D01*
X568635Y449471D01*
X569901Y448205D01*
X571555Y447520D01*
X573345D01*
X574999Y448205D01*
X576265Y449471D01*
X576950Y451125D01*
Y452915D01*
X576265Y454569D01*
X574999Y455835D01*
X573345Y456520D01*
D02*
G37*
G36*
X648595Y436300D02*
X646805D01*
X645151Y435615D01*
X643885Y434349D01*
X643200Y432695D01*
Y430905D01*
X643885Y429251D01*
X645151Y427985D01*
X646805Y427300D01*
X648595D01*
X650249Y427985D01*
X651515Y429251D01*
X652200Y430905D01*
Y432695D01*
X651515Y434349D01*
X650249Y435615D01*
X648595Y436300D01*
D02*
G37*
G36*
X560345Y499800D02*
X558555D01*
X556901Y499115D01*
X555635Y497849D01*
X554950Y496195D01*
Y494405D01*
X555635Y492751D01*
X555847Y492539D01*
X555920Y491464D01*
X555921Y491173D01*
X555978Y491038D01*
Y436069D01*
X555922Y435937D01*
X555914Y435314D01*
X555894Y434861D01*
X555866Y434580D01*
X555635Y434349D01*
X554950Y432695D01*
Y430905D01*
X555635Y429251D01*
X556901Y427985D01*
X558555Y427300D01*
X560345D01*
X561999Y427985D01*
X563265Y429251D01*
X563950Y430905D01*
Y432695D01*
X563265Y434349D01*
X563053Y434561D01*
X562980Y435637D01*
X562979Y435927D01*
X562922Y436062D01*
Y491031D01*
X562979Y491163D01*
X562986Y491786D01*
X563006Y492239D01*
X563034Y492520D01*
X563265Y492751D01*
X563950Y494405D01*
Y496195D01*
X563265Y497849D01*
X561999Y499115D01*
X560345Y499800D01*
D02*
G37*
G36*
X612345Y408849D02*
X610555D01*
X608901Y408164D01*
X607635Y406898D01*
X606950Y405244D01*
Y403454D01*
X607635Y401800D01*
X608901Y400534D01*
X610555Y399849D01*
X612345D01*
X613999Y400534D01*
X615265Y401800D01*
X615950Y403454D01*
Y405244D01*
X615265Y406898D01*
X613999Y408164D01*
X612345Y408849D01*
D02*
G37*
G36*
X599345Y401030D02*
X597555D01*
X595901Y400345D01*
X594635Y399079D01*
X593950Y397425D01*
Y395635D01*
X594635Y393981D01*
X595901Y392715D01*
X597555Y392030D01*
X599345D01*
X600999Y392715D01*
X602265Y393981D01*
X602950Y395635D01*
Y397425D01*
X602265Y399079D01*
X600999Y400345D01*
X599345Y401030D01*
D02*
G37*
G36*
X823942Y391120D02*
X822969D01*
X823974Y388694D01*
X819354Y386780D01*
X818349Y389207D01*
X817662Y388519D01*
X816748Y386313D01*
Y385341D01*
X819174Y386345D01*
X821088Y381726D01*
X818662Y380721D01*
X819349Y380033D01*
X821555Y379120D01*
X822527D01*
X821523Y381546D01*
X826142Y383460D01*
X827147Y381033D01*
X827835Y381721D01*
X828748Y383926D01*
Y384899D01*
X826322Y383894D01*
X824408Y388514D01*
X826835Y389519D01*
X826147Y390206D01*
X823942Y391120D01*
D02*
G37*
G36*
X45942D02*
X44969D01*
X45974Y388694D01*
X41354Y386780D01*
X40349Y389207D01*
X39662Y388519D01*
X38748Y386313D01*
Y385341D01*
X41174Y386345D01*
X43088Y381726D01*
X40662Y380721D01*
X41349Y380033D01*
X43555Y379120D01*
X44527D01*
X43523Y381546D01*
X48142Y383460D01*
X49147Y381033D01*
X49835Y381721D01*
X50748Y383926D01*
Y384899D01*
X48322Y383894D01*
X46409Y388514D01*
X48835Y389519D01*
X48147Y390206D01*
X45942Y391120D01*
D02*
G37*
G36*
X805031Y391120D02*
X804058D01*
X801853Y390206D01*
X801165Y389519D01*
X803592Y388514D01*
X801678Y383894D01*
X799252Y384899D01*
Y383926D01*
X800165Y381721D01*
X800853Y381033D01*
X801858Y383460D01*
X806478Y381546D01*
X805473Y379120D01*
X806445D01*
X808651Y380033D01*
X809338Y380721D01*
X806912Y381726D01*
X808826Y386346D01*
X811252Y385341D01*
Y386313D01*
X810338Y388519D01*
X809651Y389207D01*
X808646Y386780D01*
X804026Y388694D01*
X805031Y391120D01*
D02*
G37*
G36*
X27031D02*
X26058D01*
X23853Y390206D01*
X23165Y389519D01*
X25591Y388514D01*
X23678Y383894D01*
X21252Y384899D01*
Y383926D01*
X22165Y381721D01*
X22853Y381033D01*
X23858Y383460D01*
X28477Y381546D01*
X27473Y379120D01*
X28445D01*
X30651Y380033D01*
X31338Y380721D01*
X28912Y381726D01*
X30826Y386346D01*
X33252Y385341D01*
Y386313D01*
X32338Y388519D01*
X31651Y389207D01*
X30646Y386780D01*
X26026Y388694D01*
X27031Y391120D01*
D02*
G37*
G36*
X586345Y392883D02*
X584555D01*
X582901Y392198D01*
X581635Y390932D01*
X580950Y389278D01*
Y387488D01*
X581635Y385834D01*
X582901Y384568D01*
X584555Y383883D01*
X586345D01*
X587999Y384568D01*
X589265Y385834D01*
X589950Y387488D01*
Y389278D01*
X589265Y390932D01*
X587999Y392198D01*
X586345Y392883D01*
D02*
G37*
G36*
X573345Y384520D02*
X571555D01*
X569901Y383835D01*
X568635Y382569D01*
X567950Y380915D01*
Y379125D01*
X568635Y377471D01*
X569901Y376205D01*
X571555Y375520D01*
X573345D01*
X574999Y376205D01*
X576265Y377471D01*
X576950Y379125D01*
Y380915D01*
X576265Y382569D01*
X574999Y383835D01*
X573345Y384520D01*
D02*
G37*
G36*
X794074Y378748D02*
X793101D01*
X794106Y376322D01*
X789486Y374408D01*
X788481Y376835D01*
X787794Y376147D01*
X786880Y373942D01*
Y372969D01*
X789306Y373974D01*
X791220Y369354D01*
X788793Y368349D01*
X789481Y367662D01*
X791687Y366748D01*
X792659D01*
X791655Y369174D01*
X796274Y371088D01*
X797279Y368662D01*
X797967Y369349D01*
X798880Y371555D01*
Y372527D01*
X796454Y371522D01*
X794540Y376142D01*
X796967Y377147D01*
X796279Y377835D01*
X794074Y378748D01*
D02*
G37*
G36*
X16074D02*
X15101D01*
X16106Y376322D01*
X11486Y374408D01*
X10481Y376835D01*
X9794Y376147D01*
X8880Y373942D01*
Y372969D01*
X11306Y373974D01*
X13220Y369354D01*
X10794Y368349D01*
X11481Y367662D01*
X13687Y366748D01*
X14659D01*
X13655Y369174D01*
X18274Y371088D01*
X19279Y368662D01*
X19967Y369349D01*
X20880Y371555D01*
Y372527D01*
X18454Y371522D01*
X16540Y376142D01*
X18967Y377147D01*
X18279Y377835D01*
X16074Y378748D01*
D02*
G37*
G36*
X834899D02*
X833926D01*
X831721Y377835D01*
X831033Y377147D01*
X833459Y376142D01*
X831546Y371522D01*
X829120Y372527D01*
Y371555D01*
X830033Y369349D01*
X830721Y368662D01*
X831726Y371088D01*
X836346Y369174D01*
X835341Y366748D01*
X836313D01*
X838519Y367662D01*
X839206Y368349D01*
X836780Y369354D01*
X838694Y373974D01*
X841120Y372969D01*
Y373942D01*
X840206Y376147D01*
X839519Y376835D01*
X838514Y374408D01*
X833894Y376322D01*
X834899Y378748D01*
D02*
G37*
G36*
X56899D02*
X55926D01*
X53721Y377835D01*
X53033Y377147D01*
X55459Y376142D01*
X53546Y371522D01*
X51120Y372527D01*
Y371555D01*
X52033Y369349D01*
X52721Y368662D01*
X53726Y371088D01*
X58346Y369174D01*
X57341Y366748D01*
X58313D01*
X60519Y367662D01*
X61206Y368349D01*
X58780Y369354D01*
X60694Y373974D01*
X63120Y372969D01*
Y373942D01*
X62207Y376147D01*
X61519Y376835D01*
X60514Y374408D01*
X55894Y376322D01*
X56899Y378748D01*
D02*
G37*
G36*
X836313Y361252D02*
X835341D01*
X836346Y358826D01*
X831726Y356912D01*
X830721Y359338D01*
X830033Y358651D01*
X829120Y356445D01*
Y355473D01*
X831546Y356478D01*
X833459Y351858D01*
X831033Y350853D01*
X831721Y350165D01*
X833926Y349252D01*
X834899D01*
X833894Y351678D01*
X838514Y353591D01*
X839425Y351390D01*
X839744D01*
X840206Y351853D01*
X841120Y354058D01*
Y355031D01*
X838694Y354026D01*
X836780Y358646D01*
X839206Y359651D01*
X838519Y360338D01*
X836313Y361252D01*
D02*
G37*
G36*
X58313D02*
X57341D01*
X58345Y358826D01*
X53726Y356912D01*
X52721Y359338D01*
X52033Y358651D01*
X51120Y356445D01*
Y355473D01*
X53546Y356478D01*
X55459Y351858D01*
X53033Y350853D01*
X53721Y350165D01*
X55926Y349252D01*
X56899D01*
X55894Y351678D01*
X60514Y353591D01*
X61519Y351165D01*
X62206Y351853D01*
X63120Y354058D01*
Y355031D01*
X60694Y354026D01*
X58780Y358646D01*
X61206Y359651D01*
X60519Y360338D01*
X58313Y361252D01*
D02*
G37*
G36*
X792659D02*
X791687D01*
X789481Y360338D01*
X788793Y359651D01*
X791220Y358646D01*
X789306Y354026D01*
X786880Y355031D01*
Y354058D01*
X787794Y351853D01*
X788481Y351165D01*
X789486Y353591D01*
X794106Y351678D01*
X793101Y349252D01*
X794074D01*
X796279Y350165D01*
X796967Y350853D01*
X794540Y351858D01*
X796454Y356478D01*
X798880Y355473D01*
Y356445D01*
X797967Y358651D01*
X797279Y359338D01*
X796274Y356912D01*
X791654Y358826D01*
X792659Y361252D01*
D02*
G37*
G36*
X14659D02*
X13687D01*
X11481Y360338D01*
X10793Y359651D01*
X13220Y358646D01*
X11306Y354026D01*
X8880Y355031D01*
Y354058D01*
X9794Y351853D01*
X10481Y351165D01*
X11486Y353591D01*
X16106Y351678D01*
X15101Y349252D01*
X16074D01*
X18279Y350165D01*
X18967Y350853D01*
X16540Y351858D01*
X18454Y356478D01*
X20880Y355473D01*
Y356445D01*
X19967Y358651D01*
X19279Y359338D01*
X18274Y356912D01*
X13655Y358826D01*
X14659Y361252D01*
D02*
G37*
G36*
X806445Y348880D02*
X805473D01*
X806478Y346454D01*
X801858Y344540D01*
X800853Y346967D01*
X800165Y346279D01*
X799252Y344074D01*
Y343101D01*
X801678Y344106D01*
X803592Y339486D01*
X801165Y338481D01*
X801853Y337794D01*
X804058Y336880D01*
X805031D01*
X804026Y339306D01*
X808646Y341220D01*
X809651Y338794D01*
X810338Y339481D01*
X811252Y341687D01*
Y342659D01*
X808826Y341655D01*
X806912Y346274D01*
X809338Y347279D01*
X808651Y347967D01*
X806445Y348880D01*
D02*
G37*
G36*
X28445D02*
X27473D01*
X28477Y346454D01*
X23858Y344540D01*
X22853Y346967D01*
X22165Y346279D01*
X21252Y344074D01*
Y343101D01*
X23678Y344106D01*
X25591Y339486D01*
X23165Y338481D01*
X23853Y337794D01*
X26058Y336880D01*
X27031D01*
X26026Y339306D01*
X30646Y341220D01*
X31651Y338794D01*
X32338Y339481D01*
X33252Y341687D01*
Y342659D01*
X30826Y341655D01*
X28912Y346274D01*
X31338Y347279D01*
X30651Y347967D01*
X28445Y348880D01*
D02*
G37*
G36*
X560345Y353310D02*
X558555D01*
X556901Y352625D01*
X555635Y351359D01*
X554950Y349705D01*
Y347915D01*
X555635Y346261D01*
X556901Y344995D01*
X558555Y344310D01*
X560345D01*
X561999Y344995D01*
X563265Y346261D01*
X563950Y347915D01*
Y349705D01*
X563265Y351359D01*
X561999Y352625D01*
X560345Y353310D01*
D02*
G37*
G36*
X517650Y722677D02*
X516961Y722540D01*
X516755D01*
X516565Y722461D01*
X515876Y722324D01*
X515291Y721934D01*
X515101Y721855D01*
X514955Y721709D01*
X514371Y721319D01*
X513981Y720734D01*
X513835Y720589D01*
X513756Y720399D01*
X513366Y719815D01*
X513229Y719125D01*
X513150Y718935D01*
Y718729D01*
X513013Y718040D01*
Y575018D01*
X512979Y574935D01*
Y573145D01*
X513013Y573062D01*
Y430040D01*
Y348810D01*
X513150Y348121D01*
Y347915D01*
X513229Y347725D01*
X513366Y347035D01*
X513756Y346451D01*
X513835Y346261D01*
X513981Y346115D01*
X514371Y345531D01*
X514955Y345141D01*
X515101Y344995D01*
X515291Y344916D01*
X515876Y344526D01*
X516565Y344389D01*
X516755Y344310D01*
X516961D01*
X517650Y344173D01*
X518339Y344310D01*
X518545D01*
X518735Y344389D01*
X519425Y344526D01*
X520009Y344916D01*
X520199Y344995D01*
X520345Y345141D01*
X520929Y345531D01*
X521221Y345969D01*
X521423Y346049D01*
X521985Y346159D01*
X522547Y346049D01*
X522749Y345969D01*
X523041Y345531D01*
X523625Y345141D01*
X523771Y344995D01*
X523961Y344916D01*
X524546Y344526D01*
X525235Y344389D01*
X525425Y344310D01*
X525631D01*
X526320Y344173D01*
X527009Y344310D01*
X527215D01*
X527405Y344389D01*
X528094Y344526D01*
X528679Y344916D01*
X528869Y344995D01*
X529015Y345141D01*
X529599Y345531D01*
X529989Y346115D01*
X530135Y346261D01*
X530214Y346451D01*
X530604Y347035D01*
X530741Y347725D01*
X530820Y347915D01*
Y348121D01*
X530957Y348810D01*
Y496311D01*
Y640311D01*
X530820Y641000D01*
Y641206D01*
X530741Y641396D01*
X530604Y642085D01*
X530214Y642670D01*
X530135Y642860D01*
X529989Y643006D01*
X529599Y643590D01*
X529015Y643980D01*
X528869Y644126D01*
X528679Y644205D01*
X528094Y644595D01*
X527405Y644732D01*
X527215Y644811D01*
X527009D01*
X526320Y644948D01*
X525631Y644811D01*
X525425D01*
X525235Y644732D01*
X524546Y644595D01*
X523961Y644205D01*
X523771Y644126D01*
X523625Y643980D01*
X523557Y643935D01*
X522287Y644574D01*
Y718040D01*
X522150Y718729D01*
Y718935D01*
X522071Y719125D01*
X521934Y719815D01*
X521544Y720399D01*
X521465Y720589D01*
X521319Y720734D01*
X520929Y721319D01*
X520345Y721709D01*
X520199Y721855D01*
X520009Y721934D01*
X519425Y722324D01*
X518735Y722461D01*
X518545Y722540D01*
X518339D01*
X517650Y722677D01*
D02*
G37*
G36*
X491640Y723457D02*
X490951Y723320D01*
X490745D01*
X490555Y723241D01*
X489865Y723104D01*
X489281Y722714D01*
X489091Y722635D01*
X488946Y722489D01*
X488361Y722099D01*
X487971Y721515D01*
X487825Y721369D01*
X487746Y721179D01*
X487356Y720594D01*
X487219Y719905D01*
X487140Y719715D01*
Y719509D01*
X487003Y718820D01*
Y574040D01*
X487003Y574040D01*
X487003Y574040D01*
Y429260D01*
X487003Y429260D01*
X487003Y429260D01*
Y348810D01*
X487140Y348121D01*
Y347915D01*
X487219Y347725D01*
X487356Y347035D01*
X487746Y346451D01*
X487825Y346261D01*
X487971Y346115D01*
X488361Y345531D01*
X488946Y345141D01*
X489091Y344995D01*
X489281Y344916D01*
X489865Y344526D01*
X490555Y344389D01*
X490745Y344310D01*
X490951D01*
X491640Y344173D01*
X492329Y344310D01*
X492535D01*
X492725Y344389D01*
X493415Y344526D01*
X493999Y344916D01*
X494189Y344995D01*
X494334Y345141D01*
X494919Y345531D01*
X495309Y346115D01*
X495455Y346261D01*
X495534Y346451D01*
X495924Y347035D01*
X496061Y347725D01*
X496140Y347915D01*
Y348121D01*
X496277Y348810D01*
Y429260D01*
X496277Y429260D01*
Y574040D01*
X496277Y574040D01*
Y718820D01*
X496140Y719509D01*
Y719715D01*
X496061Y719905D01*
X495924Y720594D01*
X495534Y721179D01*
X495455Y721369D01*
X495309Y721515D01*
X494919Y722099D01*
X494334Y722489D01*
X494189Y722635D01*
X493999Y722714D01*
X493415Y723104D01*
X492725Y723241D01*
X492535Y723320D01*
X492329D01*
X491640Y723457D01*
D02*
G37*
G36*
X822527Y348880D02*
X821555D01*
X819349Y347967D01*
X818662Y347279D01*
X821088Y346274D01*
X819174Y341655D01*
X816748Y342659D01*
Y341687D01*
X817662Y339481D01*
X818349Y338793D01*
X819354Y341220D01*
X823974Y339306D01*
X822969Y336880D01*
X823942D01*
X826147Y337794D01*
X826835Y338481D01*
X824408Y339486D01*
X826322Y344106D01*
X828748Y343101D01*
Y344074D01*
X827835Y346279D01*
X827147Y346967D01*
X826142Y344540D01*
X821523Y346454D01*
X822527Y348880D01*
D02*
G37*
G36*
X44527D02*
X43555D01*
X41349Y347967D01*
X40662Y347279D01*
X43088Y346274D01*
X41174Y341655D01*
X38748Y342659D01*
Y341687D01*
X39662Y339481D01*
X40349Y338793D01*
X41354Y341220D01*
X45974Y339306D01*
X44969Y336880D01*
X45942D01*
X48147Y337794D01*
X48835Y338481D01*
X46409Y339486D01*
X48322Y344106D01*
X50748Y343101D01*
Y344074D01*
X49835Y346279D01*
X49147Y346967D01*
X48142Y344540D01*
X43523Y346454D01*
X44527Y348880D01*
D02*
G37*
G36*
X459740Y741689D02*
X99060D01*
X98085Y741495D01*
X97258Y740942D01*
X96705Y740115D01*
X96511Y739140D01*
Y332740D01*
X96705Y331765D01*
X97258Y330938D01*
X98085Y330385D01*
X99060Y330191D01*
X459740D01*
X460715Y330385D01*
X461542Y330938D01*
X462095Y331765D01*
X462289Y332740D01*
X462289Y739140D01*
X462095Y740115D01*
X461542Y740942D01*
X460715Y741495D01*
X459740Y741689D01*
D02*
G37*
G36*
X756545Y324540D02*
X754755D01*
X753101Y323855D01*
X751840Y322594D01*
X750579Y323855D01*
X748925Y324540D01*
X747135D01*
X745481Y323855D01*
X744880Y323254D01*
X744050Y322699D01*
X743221Y323254D01*
X742620Y323855D01*
X740966Y324540D01*
X739175D01*
X737522Y323855D01*
X736256Y322589D01*
X735571Y320935D01*
Y319145D01*
X736256Y317491D01*
X737522Y316225D01*
X739175Y315540D01*
X740966D01*
X742620Y316225D01*
X743221Y316826D01*
X744050Y317381D01*
X744880Y316826D01*
X745481Y316225D01*
X747135Y315540D01*
X748925D01*
X750579Y316225D01*
X751840Y317486D01*
X753101Y316225D01*
X754755Y315540D01*
X756545D01*
X758199Y316225D01*
X759465Y317491D01*
X760150Y319145D01*
Y320935D01*
X759465Y322589D01*
X758199Y323855D01*
X756545Y324540D01*
D02*
G37*
G36*
X160915D02*
X159125D01*
X157471Y323855D01*
X156210Y322594D01*
X154949Y323855D01*
X153295Y324540D01*
X151505D01*
X149851Y323855D01*
X148710Y322714D01*
X147569Y323855D01*
X145915Y324540D01*
X144125D01*
X142471Y323855D01*
X141920Y323304D01*
X141090Y322676D01*
X140260Y323304D01*
X139709Y323855D01*
X138055Y324540D01*
X136265D01*
X134611Y323855D01*
X133345Y322589D01*
X132660Y320935D01*
Y319145D01*
X133345Y317491D01*
X134606Y316230D01*
X133345Y314969D01*
X132660Y313315D01*
Y311525D01*
X133345Y309871D01*
X134530Y308686D01*
X134573Y307975D01*
X134530Y307264D01*
X133345Y306079D01*
X132660Y304425D01*
Y302635D01*
X133345Y300981D01*
X134611Y299715D01*
X136265Y299030D01*
X138055D01*
X139709Y299715D01*
X140970Y300976D01*
X142231Y299715D01*
X143885Y299030D01*
X145675D01*
X147329Y299715D01*
X148590Y300976D01*
X149851Y299715D01*
X151505Y299030D01*
X153295D01*
X154949Y299715D01*
X156210Y300976D01*
X157471Y299715D01*
X159125Y299030D01*
X160915D01*
X162569Y299715D01*
X163835Y300981D01*
X164520Y302635D01*
Y304425D01*
X163835Y306079D01*
X163233Y306681D01*
X162679Y307510D01*
X163233Y308340D01*
X163835Y308941D01*
X164520Y310595D01*
Y312386D01*
X163835Y314039D01*
X162891Y314984D01*
X162688Y315765D01*
X162891Y316547D01*
X163835Y317491D01*
X164520Y319145D01*
Y320935D01*
X163835Y322589D01*
X162569Y323855D01*
X160915Y324540D01*
D02*
G37*
G36*
X756545Y309300D02*
X754755D01*
X753101Y308615D01*
X751840Y307354D01*
X750579Y308615D01*
X748925Y309300D01*
X747135D01*
X745481Y308615D01*
X744880Y308014D01*
X744050Y307459D01*
X743221Y308014D01*
X742620Y308615D01*
X740966Y309300D01*
X739175D01*
X737522Y308615D01*
X736256Y307349D01*
X735571Y305695D01*
Y303905D01*
X736256Y302251D01*
X737522Y300985D01*
X739175Y300300D01*
X740966D01*
X742620Y300985D01*
X743221Y301586D01*
X744050Y302141D01*
X744880Y301586D01*
X745481Y300985D01*
X747135Y300300D01*
X748925D01*
X750579Y300985D01*
X751840Y302246D01*
X753101Y300985D01*
X754755Y300300D01*
X756545D01*
X758199Y300985D01*
X759465Y302251D01*
X760150Y303905D01*
Y305695D01*
X759465Y307349D01*
X758199Y308615D01*
X756545Y309300D01*
D02*
G37*
G36*
X648595Y291393D02*
X646805D01*
X645151Y290708D01*
X643885Y289442D01*
X643200Y287788D01*
Y285998D01*
X643885Y284344D01*
X645151Y283078D01*
X646805Y282393D01*
X648595D01*
X650249Y283078D01*
X651515Y284344D01*
X652200Y285998D01*
Y287788D01*
X651515Y289442D01*
X650249Y290708D01*
X648595Y291393D01*
D02*
G37*
G36*
X544455D02*
X542665D01*
X541011Y290708D01*
X539745Y289442D01*
X539060Y287788D01*
Y285998D01*
X539745Y284344D01*
X541011Y283078D01*
X542665Y282393D01*
X544455D01*
X546109Y283078D01*
X547375Y284344D01*
X548060Y285998D01*
Y287788D01*
X547375Y289442D01*
X546109Y290708D01*
X544455Y291393D01*
D02*
G37*
G36*
X824418Y283120D02*
X823446D01*
X824451Y280694D01*
X819831Y278780D01*
X818826Y281206D01*
X818139Y280519D01*
X817225Y278313D01*
Y277341D01*
X819651Y278346D01*
X821565Y273726D01*
X819138Y272721D01*
X819826Y272033D01*
X822032Y271120D01*
X823004D01*
X821999Y273546D01*
X826619Y275459D01*
X827624Y273033D01*
X828312Y273721D01*
X829225Y275926D01*
Y276899D01*
X826799Y275894D01*
X824885Y280514D01*
X827312Y281519D01*
X826624Y282206D01*
X824418Y283120D01*
D02*
G37*
G36*
X45942D02*
X44969D01*
X45974Y280694D01*
X41354Y278780D01*
X40349Y281206D01*
X39662Y280519D01*
X38748Y278313D01*
Y277341D01*
X41174Y278346D01*
X43088Y273726D01*
X40662Y272721D01*
X41349Y272033D01*
X43555Y271120D01*
X44527D01*
X43523Y273546D01*
X48142Y275459D01*
X49147Y273033D01*
X49835Y273721D01*
X50748Y275926D01*
Y276899D01*
X48322Y275894D01*
X46409Y280514D01*
X48835Y281519D01*
X48147Y282206D01*
X45942Y283120D01*
D02*
G37*
G36*
X805508Y283120D02*
X804535D01*
X802330Y282206D01*
X801642Y281519D01*
X804068Y280514D01*
X802155Y275894D01*
X799729Y276899D01*
Y275926D01*
X800642Y273721D01*
X801330Y273033D01*
X802335Y275459D01*
X806954Y273546D01*
X805949Y271120D01*
X806922D01*
X809128Y272033D01*
X809815Y272721D01*
X807389Y273726D01*
X809303Y278346D01*
X811729Y277341D01*
Y278313D01*
X810815Y280519D01*
X810127Y281206D01*
X809122Y278780D01*
X804503Y280694D01*
X805508Y283120D01*
D02*
G37*
G36*
X27031D02*
X26058D01*
X23853Y282206D01*
X23165Y281519D01*
X25591Y280514D01*
X23678Y275894D01*
X21252Y276899D01*
Y275926D01*
X22165Y273721D01*
X22853Y273033D01*
X23858Y275459D01*
X28477Y273546D01*
X27473Y271120D01*
X28445D01*
X30651Y272033D01*
X31338Y272721D01*
X28912Y273726D01*
X30826Y278346D01*
X33252Y277341D01*
Y278313D01*
X32338Y280519D01*
X31651Y281206D01*
X30646Y278780D01*
X26026Y280694D01*
X27031Y283120D01*
D02*
G37*
G36*
X552612Y278820D02*
X550822D01*
X549168Y278135D01*
X547902Y276869D01*
X547217Y275215D01*
Y273425D01*
X547902Y271771D01*
X549168Y270505D01*
X550822Y269820D01*
X552612D01*
X554266Y270505D01*
X555532Y271771D01*
X556217Y273425D01*
Y275215D01*
X555532Y276869D01*
X554266Y278135D01*
X552612Y278820D01*
D02*
G37*
G36*
X421913D02*
X420123D01*
X418469Y278135D01*
X417203Y276869D01*
X416518Y275215D01*
Y273425D01*
X417203Y271771D01*
X418469Y270505D01*
X420123Y269820D01*
X421913D01*
X423567Y270505D01*
X424833Y271771D01*
X425518Y273425D01*
Y275215D01*
X424833Y276869D01*
X423567Y278135D01*
X421913Y278820D01*
D02*
G37*
G36*
X794550Y270748D02*
X793578D01*
X794583Y268322D01*
X789963Y266409D01*
X788958Y268835D01*
X788270Y268147D01*
X787357Y265942D01*
Y264969D01*
X789783Y265974D01*
X791697Y261354D01*
X789270Y260349D01*
X789958Y259662D01*
X792163Y258748D01*
X793136D01*
X792131Y261174D01*
X796751Y263088D01*
X797756Y260662D01*
X798444Y261349D01*
X799357Y263555D01*
Y264527D01*
X796931Y263522D01*
X795017Y268142D01*
X797444Y269147D01*
X796756Y269835D01*
X794550Y270748D01*
D02*
G37*
G36*
X16074D02*
X15101D01*
X16106Y268322D01*
X11486Y266409D01*
X10481Y268835D01*
X10112Y268465D01*
X9304Y265144D01*
X11306Y265974D01*
X13220Y261354D01*
X10794Y260349D01*
X11481Y259662D01*
X13687Y258748D01*
X14659D01*
X13655Y261174D01*
X18274Y263088D01*
X19279Y260662D01*
X19967Y261349D01*
X20880Y263555D01*
Y264527D01*
X18454Y263522D01*
X16540Y268142D01*
X18967Y269147D01*
X18279Y269835D01*
X16074Y270748D01*
D02*
G37*
G36*
X835376D02*
X834403D01*
X832198Y269835D01*
X831510Y269147D01*
X833936Y268142D01*
X832023Y263522D01*
X829597Y264527D01*
Y263555D01*
X830510Y261349D01*
X831198Y260662D01*
X832203Y263088D01*
X836822Y261174D01*
X835817Y258748D01*
X836790D01*
X838996Y259662D01*
X839683Y260349D01*
X837257Y261354D01*
X839171Y265974D01*
X841597Y264969D01*
Y265942D01*
X840683Y268147D01*
X839995Y268835D01*
X838990Y266409D01*
X834371Y268322D01*
X835376Y270748D01*
D02*
G37*
G36*
X56899D02*
X55926D01*
X53721Y269835D01*
X53033Y269147D01*
X55459Y268142D01*
X53546Y263522D01*
X51120Y264527D01*
Y263555D01*
X52033Y261349D01*
X52721Y260662D01*
X53726Y263088D01*
X58346Y261174D01*
X57341Y258748D01*
X58313D01*
X60519Y259662D01*
X61206Y260349D01*
X58780Y261354D01*
X60694Y265974D01*
X63120Y264969D01*
Y265942D01*
X62207Y268147D01*
X61519Y268835D01*
X60514Y266409D01*
X55894Y268322D01*
X56899Y270748D01*
D02*
G37*
G36*
X229495Y278820D02*
X227705D01*
X226051Y278135D01*
X224785Y276869D01*
X224100Y275215D01*
Y273425D01*
X224781Y271780D01*
X224100Y270135D01*
Y268345D01*
X224785Y266691D01*
X225137Y266339D01*
X224785Y265987D01*
X224100Y264333D01*
Y262543D01*
X224785Y260889D01*
X226051Y259624D01*
X227705Y258938D01*
X229495D01*
X231149Y259624D01*
X232415Y260889D01*
X233100Y262543D01*
Y264333D01*
X232415Y265987D01*
X232063Y266339D01*
X232415Y266691D01*
X233100Y268345D01*
Y270135D01*
X232419Y271780D01*
X233100Y273425D01*
Y275215D01*
X232415Y276869D01*
X231149Y278135D01*
X229495Y278820D01*
D02*
G37*
G36*
X836790Y253252D02*
X835817D01*
X836822Y250826D01*
X832203Y248912D01*
X831198Y251338D01*
X830510Y250651D01*
X829597Y248445D01*
Y247473D01*
X832023Y248477D01*
X833936Y243858D01*
X831510Y242853D01*
X832198Y242165D01*
X834403Y241252D01*
X835376D01*
X834371Y243678D01*
X838990Y245592D01*
X839995Y243165D01*
X840683Y243853D01*
X841597Y246058D01*
Y247031D01*
X839171Y246026D01*
X837257Y250646D01*
X839683Y251651D01*
X838996Y252338D01*
X836790Y253252D01*
D02*
G37*
G36*
X58313D02*
X57341D01*
X58345Y250826D01*
X53726Y248912D01*
X52721Y251338D01*
X52033Y250651D01*
X51120Y248445D01*
Y247473D01*
X53546Y248477D01*
X55459Y243858D01*
X53033Y242853D01*
X53721Y242165D01*
X55926Y241252D01*
X56899D01*
X55894Y243678D01*
X60514Y245592D01*
X61519Y243165D01*
X62206Y243853D01*
X63120Y246058D01*
Y247031D01*
X60694Y246026D01*
X58780Y250646D01*
X61206Y251651D01*
X60519Y252338D01*
X58313Y253252D01*
D02*
G37*
G36*
X793136D02*
X792163D01*
X789958Y252338D01*
X789270Y251651D01*
X791697Y250646D01*
X789783Y246026D01*
X787357Y247031D01*
Y246058D01*
X788270Y243853D01*
X788958Y243165D01*
X789963Y245592D01*
X794583Y243678D01*
X793578Y241252D01*
X794550D01*
X796756Y242165D01*
X797444Y242853D01*
X795017Y243858D01*
X796931Y248477D01*
X799357Y247473D01*
Y248445D01*
X798444Y250651D01*
X797756Y251338D01*
X796751Y248912D01*
X792131Y250826D01*
X793136Y253252D01*
D02*
G37*
G36*
X14659D02*
X13687D01*
X11481Y252338D01*
X10793Y251651D01*
X13220Y250646D01*
X11306Y246026D01*
X8880Y247031D01*
Y246058D01*
X9794Y243853D01*
X10481Y243165D01*
X11486Y245592D01*
X16106Y243678D01*
X15101Y241252D01*
X16074D01*
X18279Y242165D01*
X18967Y242853D01*
X16540Y243858D01*
X18454Y248477D01*
X20880Y247473D01*
Y248445D01*
X19967Y250651D01*
X19279Y251338D01*
X18274Y248912D01*
X13655Y250826D01*
X14659Y253252D01*
D02*
G37*
G36*
X806922Y240880D02*
X805949D01*
X806954Y238454D01*
X802335Y236541D01*
X801330Y238967D01*
X800642Y238279D01*
X799729Y236074D01*
Y235101D01*
X802155Y236106D01*
X804068Y231486D01*
X801642Y230481D01*
X802330Y229794D01*
X804535Y228880D01*
X805508D01*
X804503Y231306D01*
X809122Y233220D01*
X810127Y230793D01*
X810815Y231481D01*
X811729Y233687D01*
Y234659D01*
X809303Y233654D01*
X807389Y238274D01*
X809815Y239279D01*
X809128Y239967D01*
X806922Y240880D01*
D02*
G37*
G36*
X28445D02*
X27473D01*
X28477Y238454D01*
X23858Y236541D01*
X22853Y238967D01*
X22165Y238279D01*
X21252Y236074D01*
Y235101D01*
X23678Y236106D01*
X25591Y231486D01*
X23165Y230481D01*
X23853Y229794D01*
X26058Y228880D01*
X27031D01*
X26026Y231306D01*
X30646Y233220D01*
X31651Y230793D01*
X32338Y231481D01*
X33252Y233687D01*
Y234659D01*
X30826Y233654D01*
X28912Y238274D01*
X31338Y239279D01*
X30651Y239967D01*
X28445Y240880D01*
D02*
G37*
G36*
X823004Y240880D02*
X822032D01*
X819826Y239967D01*
X819138Y239279D01*
X821565Y238274D01*
X819651Y233654D01*
X817225Y234659D01*
Y233687D01*
X818139Y231481D01*
X818826Y230793D01*
X819831Y233220D01*
X824451Y231306D01*
X823446Y228880D01*
X824418D01*
X826624Y229793D01*
X827312Y230481D01*
X824885Y231486D01*
X826799Y236106D01*
X829225Y235101D01*
Y236074D01*
X828312Y238279D01*
X827624Y238967D01*
X826619Y236541D01*
X821999Y238454D01*
X823004Y240880D01*
D02*
G37*
G36*
X44527D02*
X43555D01*
X41349Y239967D01*
X40662Y239279D01*
X43088Y238274D01*
X41174Y233654D01*
X38748Y234659D01*
Y233687D01*
X39662Y231481D01*
X40349Y230793D01*
X41354Y233220D01*
X45974Y231306D01*
X44969Y228880D01*
X45942D01*
X48147Y229793D01*
X48835Y230481D01*
X46409Y231486D01*
X48322Y236106D01*
X50748Y235101D01*
Y236074D01*
X49835Y238279D01*
X49147Y238967D01*
X48142Y236541D01*
X43523Y238454D01*
X44527Y240880D01*
D02*
G37*
G36*
X648595Y234940D02*
X646805D01*
X645151Y234255D01*
X643885Y232989D01*
X643200Y231335D01*
Y229545D01*
X643885Y227891D01*
X645151Y226625D01*
X646805Y225940D01*
X648595D01*
X650249Y226625D01*
X651515Y227891D01*
X652200Y229545D01*
Y231335D01*
X651515Y232989D01*
X650249Y234255D01*
X648595Y234940D01*
D02*
G37*
G36*
X483663Y227843D02*
X481873D01*
X480219Y227158D01*
X478953Y225892D01*
X478268Y224238D01*
Y222448D01*
X478953Y220794D01*
X480219Y219528D01*
X481873Y218843D01*
X483663D01*
X485317Y219528D01*
X486583Y220794D01*
X487268Y222448D01*
Y224238D01*
X486583Y225892D01*
X485317Y227158D01*
X483663Y227843D01*
D02*
G37*
G36*
X408565Y247617D02*
X406775D01*
X405121Y246931D01*
X403855Y245666D01*
X403170Y244012D01*
Y242222D01*
X403855Y240568D01*
X404243Y240179D01*
X404245Y240168D01*
X404247Y240090D01*
X404262Y240056D01*
X404265Y240034D01*
X404285Y240002D01*
X404295Y239972D01*
X404317Y239881D01*
X404335Y239778D01*
X404392Y239068D01*
X404396Y238790D01*
X404457Y238646D01*
Y218112D01*
X403280Y217888D01*
X402595Y219542D01*
X401329Y220808D01*
X399675Y221493D01*
X397885D01*
X396231Y220808D01*
X394965Y219542D01*
X394280Y217888D01*
Y216098D01*
X394965Y214444D01*
X395353Y214056D01*
X395355Y214044D01*
X395357Y213967D01*
X395372Y213932D01*
X395375Y213911D01*
X395395Y213879D01*
X395405Y213848D01*
X395427Y213757D01*
X395445Y213655D01*
X395502Y212944D01*
X395506Y212666D01*
X395567Y212523D01*
Y179470D01*
X395506Y179327D01*
X395501Y179020D01*
X395491Y178784D01*
X395448Y178355D01*
X395427Y178236D01*
X395405Y178145D01*
X395395Y178114D01*
X395375Y178082D01*
X395372Y178061D01*
X395357Y178027D01*
X395355Y177949D01*
X395353Y177937D01*
X394965Y177549D01*
X394280Y175895D01*
Y174105D01*
X394965Y172451D01*
X396231Y171185D01*
X397885Y170500D01*
X399675D01*
X401329Y171185D01*
X402595Y172451D01*
X402860Y173091D01*
X404250Y173129D01*
X404396Y172827D01*
X404391Y172520D01*
X404381Y172284D01*
X404338Y171855D01*
X404317Y171736D01*
X404295Y171645D01*
X404285Y171614D01*
X404265Y171582D01*
X404262Y171561D01*
X404247Y171527D01*
X404245Y171449D01*
X404243Y171437D01*
X403855Y171049D01*
X403170Y169395D01*
Y167605D01*
X403855Y165951D01*
X405121Y164685D01*
X406775Y164000D01*
X408565D01*
X410219Y164685D01*
X411485Y165951D01*
X412170Y167605D01*
Y169395D01*
X411485Y171049D01*
X411097Y171437D01*
X411095Y171449D01*
X411093Y171527D01*
X411078Y171561D01*
X411075Y171582D01*
X411055Y171614D01*
X411045Y171645D01*
X411023Y171736D01*
X411005Y171838D01*
X410948Y172549D01*
X410944Y172827D01*
X410883Y172970D01*
Y238646D01*
X410944Y238790D01*
X410949Y239097D01*
X410959Y239332D01*
X411002Y239762D01*
X411023Y239881D01*
X411045Y239972D01*
X411055Y240002D01*
X411075Y240034D01*
X411078Y240056D01*
X411093Y240090D01*
X411095Y240168D01*
X411097Y240179D01*
X411485Y240568D01*
X412170Y242222D01*
Y244012D01*
X411485Y245666D01*
X410219Y246931D01*
X408565Y247617D01*
D02*
G37*
G36*
X511435Y207650D02*
X509645D01*
X507991Y206965D01*
X506725Y205699D01*
X506040Y204045D01*
Y202255D01*
X506725Y200601D01*
X507991Y199335D01*
X509645Y198650D01*
X511435D01*
X513089Y199335D01*
X514355Y200601D01*
X515040Y202255D01*
Y204045D01*
X514355Y205699D01*
X513089Y206965D01*
X511435Y207650D01*
D02*
G37*
G36*
X421913Y256962D02*
X420123D01*
X418469Y256277D01*
X417203Y255011D01*
X416518Y253357D01*
Y251567D01*
X417203Y249913D01*
X417591Y249525D01*
X417593Y249513D01*
X417595Y249435D01*
X417610Y249401D01*
X417613Y249380D01*
X417633Y249348D01*
X417643Y249317D01*
X417665Y249226D01*
X417683Y249123D01*
X417740Y248413D01*
X417744Y248135D01*
X417805Y247992D01*
Y120040D01*
X417744Y119897D01*
X417739Y119590D01*
X417729Y119354D01*
X417686Y118925D01*
X417665Y118806D01*
X417643Y118715D01*
X417633Y118684D01*
X417613Y118652D01*
X417610Y118631D01*
X417595Y118597D01*
X417593Y118519D01*
X417591Y118507D01*
X417203Y118119D01*
X416518Y116465D01*
Y114675D01*
X417203Y113021D01*
X418469Y111755D01*
X420123Y111070D01*
X421913D01*
X423567Y111755D01*
X424833Y113021D01*
X425518Y114675D01*
Y116465D01*
X424833Y118119D01*
X424445Y118507D01*
X424443Y118519D01*
X424441Y118597D01*
X424426Y118631D01*
X424423Y118652D01*
X424403Y118684D01*
X424393Y118715D01*
X424371Y118806D01*
X424353Y118909D01*
X424296Y119619D01*
X424292Y119897D01*
X424231Y120040D01*
Y201566D01*
X425501Y201818D01*
X426005Y200601D01*
X427271Y199335D01*
X428925Y198650D01*
X430715D01*
X432369Y199335D01*
X433635Y200601D01*
X434320Y202255D01*
Y204045D01*
X433635Y205699D01*
X432369Y206965D01*
X430715Y207650D01*
X428925D01*
X427271Y206965D01*
X426005Y205699D01*
X425501Y204482D01*
X424231Y204734D01*
Y247992D01*
X424292Y248135D01*
X424297Y248442D01*
X424307Y248678D01*
X424350Y249107D01*
X424371Y249226D01*
X424393Y249317D01*
X424403Y249348D01*
X424423Y249380D01*
X424426Y249401D01*
X424441Y249435D01*
X424443Y249513D01*
X424445Y249525D01*
X424833Y249913D01*
X425518Y251567D01*
Y253357D01*
X424833Y255011D01*
X423567Y256277D01*
X421913Y256962D01*
D02*
G37*
G36*
X432413Y186000D02*
X430623D01*
X428969Y185315D01*
X427703Y184049D01*
X427018Y182395D01*
Y180605D01*
X427703Y178951D01*
X428969Y177685D01*
X430623Y177000D01*
X432413D01*
X434067Y177685D01*
X435333Y178951D01*
X436018Y180605D01*
Y182395D01*
X435333Y184049D01*
X434067Y185315D01*
X432413Y186000D01*
D02*
G37*
G36*
X560795Y176926D02*
X559005D01*
X557351Y176241D01*
X556085Y174975D01*
X555400Y173321D01*
Y171531D01*
X556085Y169877D01*
X557351Y168611D01*
X559005Y167926D01*
X560795D01*
X562449Y168611D01*
X563715Y169877D01*
X564400Y171531D01*
Y173321D01*
X563715Y174975D01*
X562449Y176241D01*
X560795Y176926D01*
D02*
G37*
G36*
X597795Y176488D02*
X596005D01*
X594351Y175803D01*
X593085Y174537D01*
X592400Y172883D01*
Y171093D01*
X593085Y169439D01*
X594351Y168173D01*
X596005Y167488D01*
X597795D01*
X599449Y168173D01*
X600715Y169439D01*
X601400Y171093D01*
Y172883D01*
X600715Y174537D01*
X599449Y175803D01*
X597795Y176488D01*
D02*
G37*
G36*
X432413Y166500D02*
X430623D01*
X428969Y165815D01*
X427703Y164549D01*
X427018Y162895D01*
Y161105D01*
X427703Y159451D01*
X428969Y158185D01*
X430623Y157500D01*
X432413D01*
X434067Y158185D01*
X435333Y159451D01*
X436018Y161105D01*
Y162895D01*
X435333Y164549D01*
X434067Y165815D01*
X432413Y166500D01*
D02*
G37*
G36*
X408565Y160000D02*
X406775D01*
X405121Y159315D01*
X403855Y158049D01*
X403170Y156395D01*
Y154605D01*
X403855Y152951D01*
X405121Y151685D01*
X406775Y151000D01*
X408565D01*
X410219Y151685D01*
X411485Y152951D01*
X412170Y154605D01*
Y156395D01*
X411485Y158049D01*
X410219Y159315D01*
X408565Y160000D01*
D02*
G37*
G36*
X532305Y157790D02*
X530515D01*
X528861Y157105D01*
X527595Y155839D01*
X526910Y154185D01*
Y152395D01*
X527595Y150741D01*
X528861Y149475D01*
X530515Y148790D01*
X532305D01*
X533959Y149475D01*
X535225Y150741D01*
X535910Y152395D01*
Y154185D01*
X535225Y155839D01*
X533959Y157105D01*
X532305Y157790D01*
D02*
G37*
G36*
X408565Y146962D02*
X406775D01*
X405121Y146277D01*
X403855Y145011D01*
X403170Y143357D01*
Y141567D01*
X403855Y139913D01*
X405121Y138647D01*
X406775Y137962D01*
X408565D01*
X410219Y138647D01*
X411485Y139913D01*
X412170Y141567D01*
Y143357D01*
X411485Y145011D01*
X410219Y146277D01*
X408565Y146962D01*
D02*
G37*
G36*
X682885Y728400D02*
X681095D01*
X679441Y727715D01*
X678175Y726449D01*
X677490Y724795D01*
Y723005D01*
X678175Y721351D01*
X678563Y720963D01*
X678565Y720950D01*
X678567Y720873D01*
X678582Y720839D01*
X678585Y720818D01*
X678605Y720786D01*
X678615Y720755D01*
X678637Y720664D01*
X678655Y720562D01*
X678712Y719851D01*
X678716Y719573D01*
X678777Y719430D01*
X678777Y221640D01*
X678716Y221497D01*
X678711Y221190D01*
X678701Y220954D01*
X678658Y220525D01*
X678637Y220406D01*
X678615Y220315D01*
X678605Y220284D01*
X678585Y220252D01*
X678582Y220231D01*
X678567Y220197D01*
X678565Y220119D01*
X678563Y220107D01*
X678175Y219719D01*
X677490Y218065D01*
Y216275D01*
X678175Y214621D01*
X679441Y213355D01*
X681095Y212670D01*
X682885D01*
X684539Y213355D01*
X684868Y213684D01*
X686138Y213158D01*
Y154755D01*
X686081Y154622D01*
X686074Y153999D01*
X686054Y153546D01*
X686026Y153265D01*
X685795Y153034D01*
X685110Y151380D01*
Y149590D01*
X685795Y147936D01*
X687061Y146670D01*
X688715Y145985D01*
X690505D01*
X692159Y146670D01*
X693425Y147936D01*
X694110Y149590D01*
Y151380D01*
X693425Y153034D01*
X693213Y153246D01*
X693140Y154322D01*
X693139Y154612D01*
X693082Y154747D01*
Y239105D01*
X694352Y239631D01*
X694681Y239302D01*
X696335Y238617D01*
X698125D01*
X699779Y239302D01*
X700108Y239631D01*
X701378Y239105D01*
Y132540D01*
X701321Y132407D01*
X701314Y131784D01*
X701294Y131331D01*
X701266Y131050D01*
X701035Y130819D01*
X700350Y129165D01*
Y127375D01*
X701035Y125721D01*
X702301Y124455D01*
X703955Y123770D01*
X705745D01*
X707399Y124455D01*
X707460Y124516D01*
X708536Y123796D01*
X708130Y122815D01*
Y121025D01*
X708815Y119371D01*
X710081Y118105D01*
X711735Y117420D01*
X713525D01*
X715179Y118105D01*
X716445Y119371D01*
X717130Y121025D01*
Y122815D01*
X716445Y124469D01*
X716233Y124681D01*
X716160Y125757D01*
X716159Y126047D01*
X716102Y126182D01*
Y132285D01*
X717372Y132538D01*
X717565Y132071D01*
X718831Y130805D01*
X720485Y130120D01*
X722275D01*
X723929Y130805D01*
X724594Y131470D01*
X725864Y130944D01*
Y119839D01*
X725807Y119707D01*
X725800Y119084D01*
X725780Y118631D01*
X725752Y118350D01*
X725521Y118119D01*
X724836Y116465D01*
Y114675D01*
X725521Y113021D01*
X726787Y111755D01*
X728441Y111070D01*
X730231D01*
X731885Y111755D01*
X733151Y113021D01*
X733836Y114675D01*
Y116465D01*
X733151Y118119D01*
X732939Y118330D01*
X732866Y119406D01*
X732864Y119697D01*
X732807Y119832D01*
Y327201D01*
X732864Y327333D01*
X732872Y327956D01*
X732892Y328409D01*
X732920Y328690D01*
X733151Y328921D01*
X733836Y330575D01*
Y332365D01*
X733151Y334019D01*
X732939Y334230D01*
X732866Y335307D01*
X732864Y335597D01*
X732807Y335732D01*
X732808Y555801D01*
X732864Y555933D01*
X732872Y556556D01*
X732892Y557009D01*
X732920Y557290D01*
X733151Y557521D01*
X733836Y559175D01*
Y560965D01*
X733151Y562619D01*
X731885Y563885D01*
X730231Y564570D01*
X728441D01*
X726787Y563885D01*
X726122Y563220D01*
X724852Y563746D01*
Y633419D01*
X724908Y633551D01*
X724916Y634174D01*
X724936Y634627D01*
X724964Y634908D01*
X725195Y635139D01*
X725880Y636793D01*
Y638583D01*
X725195Y640237D01*
X723929Y641503D01*
X722275Y642188D01*
X720485D01*
X718831Y641503D01*
X717565Y640237D01*
X716880Y638583D01*
Y636793D01*
X717565Y635139D01*
X717776Y634927D01*
X717850Y633852D01*
X717851Y633561D01*
X717908Y633426D01*
Y609872D01*
X716638Y609620D01*
X716445Y610087D01*
X715179Y611353D01*
X713525Y612038D01*
X711735D01*
X710081Y611353D01*
X708815Y610087D01*
X708130Y608433D01*
Y606642D01*
X708815Y604989D01*
X710081Y603723D01*
X711735Y603038D01*
X713525D01*
X715179Y603723D01*
X716445Y604989D01*
X716638Y605455D01*
X717908Y605203D01*
Y590872D01*
X716638Y590620D01*
X716445Y591087D01*
X715179Y592352D01*
X713525Y593037D01*
X711735D01*
X710081Y592352D01*
X708815Y591087D01*
X708130Y589433D01*
Y587643D01*
X708815Y585989D01*
X709026Y585777D01*
X709100Y584701D01*
X709101Y584411D01*
X709158Y584276D01*
Y575398D01*
X707888Y574872D01*
X707399Y575361D01*
X705745Y576046D01*
X703955D01*
X702301Y575361D01*
X701972Y575032D01*
X700702Y575558D01*
Y620081D01*
X701198Y620577D01*
X701335Y620634D01*
X701569Y620867D01*
X702441Y621710D01*
X703679Y622223D01*
X704945Y623489D01*
X705630Y625143D01*
Y626933D01*
X704945Y628587D01*
X703679Y629852D01*
X702025Y630538D01*
X700235D01*
X698581Y629852D01*
X697315Y628587D01*
X696630Y626933D01*
Y626007D01*
X696614Y625985D01*
X696015Y625298D01*
X695811Y625090D01*
X695757Y624955D01*
X695736Y624935D01*
X695623Y624860D01*
X695613Y624812D01*
X694775Y623974D01*
X694352Y623340D01*
X693082Y623725D01*
Y696770D01*
X693138Y696903D01*
X693146Y697526D01*
X693166Y697979D01*
X693194Y698260D01*
X693425Y698491D01*
X694110Y700145D01*
Y701935D01*
X693425Y703589D01*
X692159Y704855D01*
X690505Y705540D01*
X688715D01*
X687061Y704855D01*
X686473Y704267D01*
X685203Y704793D01*
Y719430D01*
X685264Y719573D01*
X685269Y719880D01*
X685279Y720116D01*
X685322Y720545D01*
X685343Y720664D01*
X685365Y720755D01*
X685375Y720786D01*
X685395Y720818D01*
X685398Y720839D01*
X685413Y720873D01*
X685415Y720951D01*
X685417Y720963D01*
X685805Y721351D01*
X686490Y723005D01*
Y724795D01*
X685805Y726449D01*
X684539Y727715D01*
X682885Y728400D01*
D02*
G37*
G36*
X229495Y131056D02*
X227705D01*
X226051Y130371D01*
X224785Y129105D01*
X224100Y127451D01*
Y125661D01*
X224785Y124007D01*
X225189Y123603D01*
X224785Y123199D01*
X224100Y121545D01*
Y119755D01*
X224785Y118101D01*
X225411Y117475D01*
X224785Y116849D01*
X224100Y115195D01*
Y113405D01*
X224785Y111751D01*
X226051Y110485D01*
X227705Y109800D01*
X229495D01*
X231149Y110485D01*
X232415Y111751D01*
X233100Y113405D01*
Y115195D01*
X232415Y116849D01*
X231789Y117475D01*
X232415Y118101D01*
X233100Y119755D01*
Y121545D01*
X232415Y123199D01*
X232011Y123603D01*
X232415Y124007D01*
X233100Y125661D01*
Y127451D01*
X232415Y129105D01*
X231149Y130371D01*
X229495Y131056D01*
D02*
G37*
G36*
X462280Y261177D02*
X461591Y261040D01*
X461385D01*
X461195Y260961D01*
X460505Y260824D01*
X459921Y260434D01*
X459731Y260355D01*
X459585Y260209D01*
X459001Y259819D01*
X458939Y259757D01*
X458549Y259173D01*
X458465Y259089D01*
X458420Y258980D01*
X457934Y258253D01*
X457581Y256478D01*
X457934Y254704D01*
X458452Y253928D01*
X458691Y247938D01*
X458746Y247818D01*
Y108069D01*
X458690Y107942D01*
X458672Y107268D01*
X458625Y106733D01*
X458553Y106302D01*
X458467Y105982D01*
X458383Y105777D01*
X458346Y105716D01*
X458238Y105704D01*
X457761Y105445D01*
X457260Y105238D01*
X457225Y105154D01*
X457170Y105124D01*
X457146Y105111D01*
X456992Y104591D01*
X456784Y104089D01*
X456819Y104006D01*
X456793Y103919D01*
X457052Y103443D01*
X457260Y102941D01*
X457285Y102931D01*
X457343Y102907D01*
X457386Y102828D01*
X457413Y102820D01*
X457907Y102674D01*
X457973Y102646D01*
X458235Y101898D01*
X458335Y101376D01*
X458325Y101230D01*
X457718Y99765D01*
Y97975D01*
X458403Y96321D01*
X459669Y95055D01*
X461323Y94370D01*
X463113D01*
X464767Y95055D01*
X466033Y96321D01*
X466718Y97975D01*
Y99765D01*
X466111Y101230D01*
X466101Y101376D01*
X466207Y101929D01*
X466449Y102640D01*
X466529Y102674D01*
X467050Y102828D01*
X467093Y102907D01*
X467151Y102931D01*
X467176Y102941D01*
X467384Y103443D01*
X467630Y103896D01*
X467643Y103919D01*
X467617Y104006D01*
X467652Y104089D01*
X467444Y104591D01*
X467290Y105111D01*
X467267Y105124D01*
X467211Y105154D01*
X467176Y105238D01*
X467151Y105248D01*
X466675Y105445D01*
X466198Y105704D01*
X466091Y105716D01*
X466053Y105777D01*
X465969Y105982D01*
X465883Y106302D01*
X465811Y106733D01*
X465764Y107268D01*
X465746Y107942D01*
X465690Y108069D01*
Y247853D01*
X465746Y247986D01*
X465787Y251880D01*
X465866Y253521D01*
X465891Y253750D01*
X465893Y253761D01*
X465949Y253845D01*
X466095Y253991D01*
X466174Y254181D01*
X466564Y254765D01*
X466701Y255455D01*
X466780Y255645D01*
Y255851D01*
X466917Y256540D01*
X466780Y257229D01*
Y257435D01*
X466701Y257625D01*
X466564Y258314D01*
X466174Y258899D01*
X466095Y259089D01*
X465949Y259235D01*
X465559Y259819D01*
X464975Y260209D01*
X464829Y260355D01*
X464639Y260434D01*
X464054Y260824D01*
X463365Y260961D01*
X463175Y261040D01*
X462969D01*
X462280Y261177D01*
D02*
G37*
G36*
X450208Y291315D02*
X448418D01*
X446764Y290630D01*
X445498Y289364D01*
X444813Y287710D01*
Y285920D01*
X445498Y284266D01*
X445709Y284054D01*
X445783Y282978D01*
X445784Y282688D01*
X445841Y282553D01*
Y108069D01*
X445785Y107942D01*
X445767Y107268D01*
X445720Y106733D01*
X445648Y106302D01*
X445562Y105982D01*
X445478Y105777D01*
X445440Y105716D01*
X445333Y105704D01*
X444856Y105445D01*
X444355Y105238D01*
X444320Y105154D01*
X444265Y105124D01*
X444241Y105111D01*
X444087Y104591D01*
X443879Y104089D01*
X443914Y104006D01*
X443888Y103919D01*
X444147Y103443D01*
X444355Y102941D01*
X444380Y102931D01*
X444438Y102907D01*
X444481Y102828D01*
X444507Y102820D01*
X445002Y102674D01*
X445211Y102587D01*
X445586Y101482D01*
X445611Y101196D01*
X445018Y99765D01*
Y97975D01*
X445703Y96321D01*
X446969Y95055D01*
X448623Y94370D01*
X450413D01*
X452067Y95055D01*
X453333Y96321D01*
X454018Y97975D01*
Y99765D01*
X453385Y101293D01*
X453399Y101703D01*
X453484Y102070D01*
X453817Y102731D01*
X454145Y102828D01*
X454188Y102907D01*
X454246Y102931D01*
X454271Y102941D01*
X454479Y103443D01*
X454725Y103896D01*
X454738Y103919D01*
X454712Y104006D01*
X454747Y104089D01*
X454539Y104591D01*
X454385Y105111D01*
X454362Y105124D01*
X454306Y105154D01*
X454271Y105238D01*
X454246Y105248D01*
X453770Y105445D01*
X453293Y105704D01*
X453185Y105716D01*
X453148Y105777D01*
X453064Y105982D01*
X452978Y106302D01*
X452906Y106733D01*
X452859Y107268D01*
X452841Y107942D01*
X452785Y108069D01*
Y282545D01*
X452841Y282678D01*
X452849Y283301D01*
X452869Y283754D01*
X452897Y284035D01*
X453128Y284266D01*
X453813Y285920D01*
Y287710D01*
X453128Y289364D01*
X451862Y290630D01*
X450208Y291315D01*
D02*
G37*
G36*
X823942Y63120D02*
X822969D01*
X823974Y60694D01*
X819354Y58780D01*
X818349Y61206D01*
X817662Y60519D01*
X816748Y58313D01*
Y57341D01*
X819174Y58345D01*
X821088Y53726D01*
X818662Y52721D01*
X819349Y52033D01*
X821555Y51120D01*
X822527D01*
X821523Y53546D01*
X826142Y55459D01*
X827147Y53033D01*
D01*
X827835Y53721D01*
X828748Y55926D01*
Y56899D01*
X826322Y55894D01*
X824408Y60514D01*
X826835Y61519D01*
X826147Y62206D01*
X823942Y63120D01*
D02*
G37*
G36*
X45942D02*
X44969D01*
X45974Y60694D01*
X41354Y58780D01*
X40349Y61206D01*
X39662Y60519D01*
X38748Y58313D01*
Y57341D01*
X41174Y58345D01*
X43088Y53726D01*
X40662Y52721D01*
X41349Y52033D01*
X43555Y51120D01*
X44527D01*
X43523Y53546D01*
X48142Y55459D01*
X49147Y53033D01*
X49835Y53721D01*
X50748Y55926D01*
Y56899D01*
X48322Y55894D01*
X46409Y60514D01*
X48835Y61519D01*
X48147Y62206D01*
X45942Y63120D01*
D02*
G37*
G36*
X805031Y63120D02*
X804058D01*
X801853Y62207D01*
X801165Y61519D01*
X803592Y60514D01*
X801678Y55894D01*
X799252Y56899D01*
Y55926D01*
X800165Y53721D01*
X800853Y53033D01*
X801858Y55459D01*
X806478Y53546D01*
X805473Y51120D01*
X806445D01*
X808651Y52033D01*
X809338Y52721D01*
X806912Y53726D01*
X808826Y58346D01*
X811252Y57341D01*
Y58313D01*
X810338Y60519D01*
X810163Y60694D01*
X809651Y61206D01*
X808646Y58780D01*
X804026Y60694D01*
X805031Y63120D01*
D02*
G37*
G36*
X27031D02*
X26058D01*
X23853Y62207D01*
X23165Y61519D01*
X25591Y60514D01*
X23678Y55894D01*
X21252Y56899D01*
Y55926D01*
X22165Y53721D01*
X22853Y53033D01*
X23858Y55459D01*
X28477Y53546D01*
X27473Y51120D01*
X28445D01*
X30651Y52033D01*
X31338Y52721D01*
X28912Y53726D01*
X30826Y58346D01*
X33252Y57341D01*
Y58313D01*
X32338Y60519D01*
X31651Y61206D01*
X30646Y58780D01*
X26026Y60694D01*
X27031Y63120D01*
D02*
G37*
G36*
X794074Y50748D02*
X793101D01*
X794106Y48322D01*
X789486Y46409D01*
X788481Y48835D01*
X787794Y48147D01*
X786880Y45942D01*
Y44969D01*
X789306Y45974D01*
X791220Y41354D01*
X788793Y40349D01*
X789481Y39662D01*
X791687Y38748D01*
X792659D01*
X791655Y41174D01*
X796274Y43088D01*
X797260Y40707D01*
X797279Y40662D01*
X797325Y40707D01*
X797967Y41349D01*
X798880Y43555D01*
Y44527D01*
X796454Y43523D01*
X794540Y48142D01*
X796967Y49147D01*
X796279Y49835D01*
X794074Y50748D01*
D02*
G37*
G36*
X16074D02*
X15101D01*
X16106Y48322D01*
X11486Y46409D01*
X10481Y48835D01*
X10112Y48465D01*
X9304Y45144D01*
X11306Y45974D01*
X13220Y41354D01*
X10794Y40349D01*
X11481Y39662D01*
X13687Y38748D01*
X14659D01*
X13655Y41174D01*
X18274Y43088D01*
X19279Y40662D01*
X19967Y41349D01*
X20880Y43555D01*
Y44527D01*
X18454Y43523D01*
X16540Y48142D01*
X18967Y49147D01*
X18279Y49835D01*
X16074Y50748D01*
D02*
G37*
G36*
X834899D02*
X833926D01*
X831721Y49835D01*
X831033Y49147D01*
X833459Y48142D01*
X831546Y43523D01*
X829120Y44527D01*
Y43555D01*
X830033Y41349D01*
X830721Y40662D01*
D01*
X830740Y40707D01*
X831726Y43088D01*
X836346Y41174D01*
X835341Y38748D01*
X836313D01*
X838519Y39662D01*
X839206Y40349D01*
X836780Y41354D01*
X838694Y45974D01*
X841031Y45005D01*
X840354Y47791D01*
X840206Y48147D01*
X839519Y48835D01*
X838514Y46409D01*
X833894Y48322D01*
X834899Y50748D01*
D02*
G37*
G36*
X56899D02*
X55926D01*
X53721Y49835D01*
X53033Y49147D01*
X55459Y48142D01*
X53546Y43523D01*
X51120Y44527D01*
Y43555D01*
X52033Y41349D01*
X52721Y40662D01*
X53726Y43088D01*
X58346Y41174D01*
X57341Y38748D01*
X58313D01*
X60519Y39662D01*
X61206Y40349D01*
X58780Y41354D01*
X60694Y45974D01*
X63120Y44969D01*
Y45942D01*
X62207Y48147D01*
X61519Y48835D01*
X60514Y46409D01*
X55894Y48322D01*
X56899Y50748D01*
D02*
G37*
G36*
X836313Y33252D02*
X835341D01*
X836346Y30826D01*
X831726Y28912D01*
X830721Y31338D01*
X830033Y30651D01*
X829120Y28445D01*
Y27473D01*
X831546Y28477D01*
X833459Y23858D01*
X831033Y22853D01*
X831721Y22165D01*
X833926Y21252D01*
X834899D01*
X833894Y23678D01*
X838514Y25591D01*
X839519Y23165D01*
X840206Y23853D01*
X841090Y25986D01*
X841120Y26110D01*
Y27031D01*
X838694Y26026D01*
X836780Y30646D01*
X839206Y31651D01*
X838519Y32338D01*
X836313Y33252D01*
D02*
G37*
G36*
X58313D02*
X57341D01*
X58345Y30826D01*
X53726Y28912D01*
X52721Y31338D01*
X52033Y30651D01*
X51120Y28445D01*
Y27473D01*
X53546Y28477D01*
X55459Y23858D01*
X53033Y22853D01*
X53721Y22165D01*
X55926Y21252D01*
X56899D01*
X55894Y23678D01*
X60514Y25591D01*
X61519Y23165D01*
X62206Y23853D01*
X63120Y26058D01*
Y27031D01*
X60694Y26026D01*
X58780Y30646D01*
X61206Y31651D01*
X60519Y32338D01*
X58313Y33252D01*
D02*
G37*
G36*
X792659D02*
X791687D01*
X789481Y32338D01*
X788793Y31651D01*
X791220Y30646D01*
X789306Y26026D01*
X786880Y27031D01*
Y26058D01*
X787794Y23853D01*
X788481Y23165D01*
X789486Y25591D01*
X794106Y23678D01*
X793101Y21252D01*
X794074D01*
X796279Y22165D01*
X796967Y22853D01*
X794540Y23858D01*
X796454Y28477D01*
X798880Y27473D01*
Y28445D01*
X797967Y30651D01*
X797279Y31338D01*
X796274Y28912D01*
X791654Y30826D01*
X792659Y33252D01*
D02*
G37*
G36*
X14659D02*
X13687D01*
X11481Y32338D01*
X10793Y31651D01*
X13220Y30646D01*
X11306Y26026D01*
X8880Y27031D01*
Y26058D01*
X9794Y23853D01*
X10481Y23165D01*
X11486Y25591D01*
X16106Y23678D01*
X15101Y21252D01*
X16074D01*
X18279Y22165D01*
X18967Y22853D01*
X16540Y23858D01*
X18454Y28477D01*
X20880Y27473D01*
Y28445D01*
X19967Y30651D01*
X19279Y31338D01*
X18274Y28912D01*
X13655Y30826D01*
X14659Y33252D01*
D02*
G37*
G36*
X806445Y20880D02*
X805473D01*
X806478Y18454D01*
X801858Y16540D01*
X800853Y18967D01*
X800165Y18279D01*
X799252Y16074D01*
Y15101D01*
X801678Y16106D01*
X803592Y11486D01*
X801165Y10481D01*
X801853Y9794D01*
X804058Y8880D01*
X805031D01*
X804026Y11306D01*
X808646Y13220D01*
X809366Y11481D01*
X809651Y10794D01*
X810338Y11481D01*
X811252Y13687D01*
Y14659D01*
X808826Y13655D01*
X806912Y18274D01*
X809338Y19279D01*
X808651Y19967D01*
X806445Y20880D01*
D02*
G37*
G36*
X28445D02*
X27473D01*
X28477Y18454D01*
X23858Y16540D01*
X22853Y18967D01*
X22165Y18279D01*
X21252Y16074D01*
Y15101D01*
X23678Y16106D01*
X25591Y11486D01*
X23165Y10481D01*
X23853Y9794D01*
X26058Y8880D01*
X27031D01*
X26026Y11306D01*
X30646Y13220D01*
X31651Y10794D01*
X32338Y11481D01*
X33252Y13687D01*
Y14659D01*
X30826Y13655D01*
X28912Y18274D01*
X31338Y19279D01*
X30651Y19967D01*
X28445Y20880D01*
D02*
G37*
G36*
X44527Y20880D02*
X43555D01*
X41349Y19967D01*
X40662Y19279D01*
X43088Y18274D01*
X41174Y13655D01*
X38748Y14659D01*
Y13687D01*
X39662Y11481D01*
X40349Y10793D01*
X41354Y13220D01*
X45974Y11306D01*
X44969Y8880D01*
X45942D01*
X48147Y9794D01*
X48835Y10481D01*
X46409Y11486D01*
X48322Y16106D01*
X50748Y15101D01*
Y16074D01*
X49835Y18279D01*
X49147Y18967D01*
X48142Y16540D01*
X43523Y18454D01*
X44527Y20880D01*
D02*
G37*
G36*
X822527D02*
X821555D01*
X819349Y19967D01*
X818662Y19279D01*
X821088Y18274D01*
X819174Y13655D01*
X816748Y14659D01*
Y13687D01*
X817662Y11481D01*
X818349Y10793D01*
X818634Y11481D01*
X819354Y13220D01*
X823974Y11306D01*
X822969Y8880D01*
X823942D01*
X826147Y9794D01*
X826835Y10481D01*
X826081Y10793D01*
X824408Y11486D01*
X826322Y16106D01*
X828748Y15101D01*
Y16074D01*
X827835Y18279D01*
X827147Y18967D01*
X826142Y16540D01*
X821523Y18454D01*
X822527Y20880D01*
D02*
G37*
%LPD*%
G36*
X548513Y716623D02*
X548480Y716537D01*
X548451Y716420D01*
X548425Y716270D01*
X548386Y715875D01*
X548363Y715352D01*
X548355Y714703D01*
X544545D01*
X544543Y715043D01*
X544450Y716420D01*
X544420Y716537D01*
X544387Y716623D01*
X544350Y716678D01*
X548550D01*
X548513Y716623D01*
D02*
G37*
G36*
X540979Y648627D02*
X540962Y648557D01*
X540947Y648452D01*
X540923Y648141D01*
X540899Y647112D01*
X540898Y646770D01*
X536898D01*
X536798Y648664D01*
X540998D01*
X540979Y648627D01*
D02*
G37*
G36*
X548357Y589247D02*
X548451Y587870D01*
X548480Y587753D01*
X548513Y587667D01*
X548550Y587612D01*
X544350D01*
X544387Y587667D01*
X544420Y587753D01*
X544450Y587870D01*
X544475Y588020D01*
X544514Y588415D01*
X544537Y588938D01*
X544545Y589588D01*
X548355D01*
X548357Y589247D01*
D02*
G37*
G36*
X548513Y583273D02*
X548480Y583187D01*
X548451Y583069D01*
X548425Y582920D01*
X548386Y582525D01*
X548363Y582002D01*
X548355Y581353D01*
X544545D01*
X544543Y581693D01*
X544450Y583069D01*
X544420Y583187D01*
X544387Y583273D01*
X544350Y583328D01*
X548550D01*
X548513Y583273D01*
D02*
G37*
G36*
X540998Y508948D02*
X536798D01*
X536817Y508985D01*
X536834Y509055D01*
X536849Y509160D01*
X536873Y509471D01*
X536897Y510500D01*
X536898Y510842D01*
X540898D01*
X540998Y508948D01*
D02*
G37*
G36*
X540979Y504627D02*
X540962Y504556D01*
X540947Y504452D01*
X540923Y504141D01*
X540899Y503112D01*
X540898Y502770D01*
X536898D01*
X536798Y504664D01*
X540998D01*
X540979Y504627D01*
D02*
G37*
G36*
X548357Y435577D02*
X548451Y434201D01*
X548480Y434083D01*
X548513Y433997D01*
X548550Y433942D01*
X544350D01*
X544387Y433997D01*
X544420Y434083D01*
X544450Y434201D01*
X544475Y434350D01*
X544514Y434745D01*
X544537Y435268D01*
X544545Y435918D01*
X548355D01*
X548357Y435577D01*
D02*
G37*
G36*
X540998Y364948D02*
X536798D01*
X536817Y364985D01*
X536834Y365056D01*
X536849Y365160D01*
X536873Y365471D01*
X536897Y366500D01*
X536898Y366842D01*
X540898D01*
X540998Y364948D01*
D02*
G37*
G36*
X540999Y360646D02*
X540983Y360577D01*
X540969Y360473D01*
X540947Y360164D01*
X540924Y358793D01*
X536924Y358747D01*
X536923Y359089D01*
X536837Y360608D01*
X536817Y360645D01*
X541017Y360682D01*
X540999Y360646D01*
D02*
G37*
G36*
X540925Y335187D02*
X541011Y333668D01*
X541031Y333630D01*
X536832Y333594D01*
X536849Y333630D01*
X536865Y333699D01*
X536879Y333803D01*
X536901Y334112D01*
X536924Y335483D01*
X540924Y335529D01*
X540925Y335187D01*
D02*
G37*
G36*
X561513Y635343D02*
X561480Y635257D01*
X561451Y635140D01*
X561425Y634990D01*
X561386Y634595D01*
X561363Y634072D01*
X561355Y633423D01*
X557545D01*
X557543Y633763D01*
X557449Y635140D01*
X557420Y635257D01*
X557387Y635343D01*
X557350Y635398D01*
X561550D01*
X561513Y635343D01*
D02*
G37*
G36*
X561357Y580357D02*
X561451Y578980D01*
X561480Y578863D01*
X561513Y578777D01*
X561550Y578722D01*
X557350Y578722D01*
X557387Y578777D01*
X557420Y578863D01*
X557449Y578980D01*
X557475Y579130D01*
X557514Y579525D01*
X557537Y580048D01*
X557545Y580698D01*
X561355Y580698D01*
X561357Y580357D01*
D02*
G37*
G36*
X561513Y493103D02*
X561480Y493017D01*
X561451Y492900D01*
X561425Y492750D01*
X561386Y492355D01*
X561363Y491832D01*
X561355Y491183D01*
X557545D01*
X557543Y491523D01*
X557449Y492900D01*
X557420Y493017D01*
X557387Y493103D01*
X557350Y493158D01*
X561550D01*
X561513Y493103D01*
D02*
G37*
G36*
X561357Y435577D02*
X561451Y434201D01*
X561480Y434083D01*
X561513Y433997D01*
X561550Y433942D01*
X557350Y433942D01*
X557387Y433997D01*
X557420Y434083D01*
X557449Y434201D01*
X557475Y434350D01*
X557514Y434745D01*
X557537Y435268D01*
X557545Y435918D01*
X561355Y435918D01*
X561357Y435577D01*
D02*
G37*
G36*
X454651Y337829D02*
X104149D01*
Y734051D01*
X454651D01*
Y337829D01*
D02*
G37*
G36*
X409685Y240873D02*
X409608Y240747D01*
X409541Y240595D01*
X409483Y240417D01*
X409433Y240214D01*
X409393Y239984D01*
X409339Y239449D01*
X409325Y239143D01*
X409321Y238812D01*
X406019D01*
X406015Y239143D01*
X405947Y239984D01*
X405907Y240214D01*
X405857Y240417D01*
X405799Y240595D01*
X405732Y240747D01*
X405655Y240873D01*
X405570Y240974D01*
X409770D01*
X409685Y240873D01*
D02*
G37*
G36*
X400795Y214750D02*
X400718Y214624D01*
X400651Y214471D01*
X400593Y214294D01*
X400543Y214090D01*
X400503Y213861D01*
X400449Y213326D01*
X400435Y213020D01*
X400431Y212689D01*
X397129D01*
X397124Y213020D01*
X397057Y213861D01*
X397017Y214090D01*
X396967Y214294D01*
X396909Y214471D01*
X396842Y214624D01*
X396765Y214750D01*
X396680Y214851D01*
X400880D01*
X400795Y214750D01*
D02*
G37*
G36*
X400435Y178973D02*
X400503Y178132D01*
X400543Y177903D01*
X400593Y177700D01*
X400651Y177522D01*
X400718Y177370D01*
X400795Y177243D01*
X400880Y177142D01*
X396680D01*
X396765Y177243D01*
X396842Y177370D01*
X396909Y177522D01*
X396967Y177700D01*
X397017Y177903D01*
X397057Y178132D01*
X397111Y178667D01*
X397124Y178973D01*
X397129Y179305D01*
X400431D01*
X400435Y178973D01*
D02*
G37*
G36*
X409325Y172473D02*
X409393Y171632D01*
X409433Y171403D01*
X409483Y171200D01*
X409541Y171022D01*
X409608Y170870D01*
X409685Y170743D01*
X409770Y170642D01*
X405570D01*
X405655Y170743D01*
X405732Y170870D01*
X405799Y171022D01*
X405857Y171200D01*
X405907Y171403D01*
X405947Y171632D01*
X406001Y172167D01*
X406015Y172473D01*
X406019Y172805D01*
X409321D01*
X409325Y172473D01*
D02*
G37*
G36*
X423033Y250219D02*
X422956Y250092D01*
X422889Y249940D01*
X422831Y249762D01*
X422781Y249559D01*
X422741Y249330D01*
X422687Y248795D01*
X422674Y248489D01*
X422669Y248157D01*
X419367D01*
X419363Y248489D01*
X419295Y249330D01*
X419255Y249559D01*
X419205Y249762D01*
X419147Y249940D01*
X419080Y250092D01*
X419003Y250219D01*
X418918Y250319D01*
X423118D01*
X423033Y250219D01*
D02*
G37*
G36*
X422674Y119543D02*
X422741Y118702D01*
X422781Y118473D01*
X422831Y118270D01*
X422889Y118092D01*
X422956Y117940D01*
X423033Y117813D01*
X423118Y117712D01*
X418918D01*
X419003Y117813D01*
X419080Y117940D01*
X419147Y118092D01*
X419205Y118270D01*
X419255Y118473D01*
X419295Y118702D01*
X419349Y119237D01*
X419363Y119543D01*
X419367Y119875D01*
X422669D01*
X422674Y119543D01*
D02*
G37*
G36*
X684090Y721758D02*
X684005Y721657D01*
X683928Y721530D01*
X683861Y721378D01*
X683803Y721200D01*
X683753Y720997D01*
X683713Y720768D01*
X683659Y720233D01*
X683645Y719927D01*
X683641Y719595D01*
X680339Y719595D01*
X680334Y719927D01*
X680267Y720768D01*
X680227Y720997D01*
X680177Y721200D01*
X680119Y721378D01*
X680052Y721530D01*
X679975Y721657D01*
X679890Y721758D01*
X684090Y721758D01*
D02*
G37*
G36*
X691710Y698898D02*
X691673Y698843D01*
X691640Y698757D01*
X691610Y698640D01*
X691585Y698490D01*
X691546Y698095D01*
X691523Y697572D01*
X691515Y696923D01*
X687705Y696923D01*
X687703Y697263D01*
X687609Y698640D01*
X687580Y698757D01*
X687547Y698843D01*
X687510Y698898D01*
X691710Y698898D01*
D02*
G37*
G36*
X723443Y635491D02*
X723410Y635405D01*
X723381Y635288D01*
X723355Y635138D01*
X723316Y634743D01*
X723293Y634220D01*
X723285Y633571D01*
X719475D01*
X719473Y633911D01*
X719379Y635288D01*
X719350Y635405D01*
X719317Y635491D01*
X719280Y635546D01*
X723480D01*
X723443Y635491D01*
D02*
G37*
G36*
X701538Y623065D02*
X701510Y623051D01*
X701459Y623011D01*
X701384Y622946D01*
X700431Y622025D01*
X700188Y621783D01*
X696969Y623952D01*
X697207Y624194D01*
X697896Y624984D01*
X698002Y625137D01*
X698083Y625272D01*
X698137Y625389D01*
X698165Y625489D01*
X698167Y625570D01*
X701538Y623065D01*
D02*
G37*
G36*
X714693Y586341D02*
X714660Y586255D01*
X714631Y586137D01*
X714605Y585987D01*
X714566Y585592D01*
X714543Y585070D01*
X714535Y584420D01*
X710725D01*
X710723Y584761D01*
X710629Y586137D01*
X710600Y586255D01*
X710567Y586341D01*
X710530Y586395D01*
X714730D01*
X714693Y586341D01*
D02*
G37*
G36*
X706913Y569350D02*
X706880Y569263D01*
X706851Y569146D01*
X706825Y568996D01*
X706786Y568601D01*
X706763Y568078D01*
X706755Y567429D01*
X702945D01*
X702943Y567770D01*
X702849Y569146D01*
X702820Y569263D01*
X702787Y569350D01*
X702750Y569404D01*
X706950D01*
X706913Y569350D01*
D02*
G37*
G36*
X731399Y557873D02*
X731366Y557787D01*
X731336Y557669D01*
X731311Y557520D01*
X731272Y557125D01*
X731249Y556602D01*
X731241Y555952D01*
X727431D01*
X727429Y556293D01*
X727335Y557669D01*
X727306Y557787D01*
X727273Y557873D01*
X727236Y557928D01*
X731436D01*
X731399Y557873D01*
D02*
G37*
G36*
X706757Y352587D02*
X706851Y351210D01*
X706880Y351093D01*
X706913Y351007D01*
X706950Y350952D01*
X702750D01*
X702787Y351007D01*
X702820Y351093D01*
X702849Y351210D01*
X702875Y351360D01*
X702914Y351755D01*
X702937Y352278D01*
X702945Y352928D01*
X706755D01*
X706757Y352587D01*
D02*
G37*
G36*
X706913Y346613D02*
X706880Y346527D01*
X706851Y346409D01*
X706825Y346260D01*
X706786Y345865D01*
X706763Y345342D01*
X706755Y344692D01*
X702945D01*
X702943Y345033D01*
X702849Y346409D01*
X702820Y346527D01*
X702787Y346613D01*
X702750Y346668D01*
X706950D01*
X706913Y346613D01*
D02*
G37*
G36*
X731243Y335247D02*
X731336Y333871D01*
X731366Y333753D01*
X731399Y333667D01*
X731436Y333612D01*
X727236D01*
X727273Y333667D01*
X727306Y333753D01*
X727335Y333871D01*
X727361Y334020D01*
X727400Y334415D01*
X727423Y334938D01*
X727431Y335588D01*
X731241D01*
X731243Y335247D01*
D02*
G37*
G36*
X731399Y329273D02*
X731366Y329187D01*
X731336Y329070D01*
X731311Y328920D01*
X731272Y328525D01*
X731249Y328002D01*
X731241Y327352D01*
X727431D01*
X727429Y327693D01*
X727335Y329070D01*
X727306Y329187D01*
X727273Y329273D01*
X727236Y329328D01*
X731436D01*
X731399Y329273D01*
D02*
G37*
G36*
X699137Y246893D02*
X699230Y245517D01*
X699260Y245399D01*
X699293Y245313D01*
X699330Y245259D01*
X695130D01*
X695167Y245313D01*
X695200Y245399D01*
X695229Y245517D01*
X695255Y245667D01*
X695294Y246062D01*
X695317Y246584D01*
X695325Y247234D01*
X699135D01*
X699137Y246893D01*
D02*
G37*
G36*
X683645Y221143D02*
X683713Y220302D01*
X683753Y220073D01*
X683803Y219870D01*
X683861Y219692D01*
X683928Y219540D01*
X684005Y219413D01*
X684090Y219312D01*
X679890D01*
X679975Y219413D01*
X680052Y219540D01*
X680119Y219692D01*
X680177Y219870D01*
X680227Y220073D01*
X680267Y220302D01*
X680321Y220837D01*
X680334Y221143D01*
X680339Y221475D01*
X683641D01*
X683645Y221143D01*
D02*
G37*
G36*
X691517Y154262D02*
X691611Y152886D01*
X691640Y152768D01*
X691673Y152682D01*
X691710Y152627D01*
X687510D01*
X687547Y152682D01*
X687580Y152768D01*
X687609Y152886D01*
X687635Y153035D01*
X687674Y153430D01*
X687697Y153953D01*
X687705Y154603D01*
X691515D01*
X691517Y154262D01*
D02*
G37*
G36*
X723287Y138397D02*
X723380Y137021D01*
X723410Y136903D01*
X723443Y136817D01*
X723480Y136762D01*
X719280D01*
X719317Y136817D01*
X719350Y136903D01*
X719379Y137021D01*
X719405Y137170D01*
X719444Y137565D01*
X719467Y138088D01*
X719475Y138737D01*
X723285D01*
X723287Y138397D01*
D02*
G37*
G36*
X706757Y132047D02*
X706851Y130670D01*
X706880Y130553D01*
X706913Y130467D01*
X706950Y130412D01*
X702750D01*
X702787Y130467D01*
X702820Y130553D01*
X702849Y130670D01*
X702875Y130820D01*
X702914Y131215D01*
X702937Y131738D01*
X702945Y132388D01*
X706755D01*
X706757Y132047D01*
D02*
G37*
G36*
X714537Y125697D02*
X714631Y124320D01*
X714660Y124203D01*
X714693Y124117D01*
X714730Y124062D01*
X710530D01*
X710567Y124117D01*
X710600Y124203D01*
X710629Y124320D01*
X710655Y124470D01*
X710694Y124865D01*
X710717Y125388D01*
X710725Y126038D01*
X714535D01*
X714537Y125697D01*
D02*
G37*
G36*
X731243Y119347D02*
X731336Y117971D01*
X731366Y117853D01*
X731399Y117767D01*
X731436Y117712D01*
X727236D01*
X727273Y117767D01*
X727306Y117853D01*
X727335Y117971D01*
X727361Y118120D01*
X727400Y118515D01*
X727423Y119038D01*
X727431Y119688D01*
X731241D01*
X731243Y119347D01*
D02*
G37*
G36*
X464335Y254355D02*
X464313Y254324D01*
X464375D01*
X464327Y254216D01*
X464284Y253991D01*
X464246Y253649D01*
X464163Y251928D01*
X464123Y248003D01*
X460313D01*
X460061Y254324D01*
X460193D01*
X460170Y254389D01*
X460136Y254441D01*
X464335Y254355D01*
D02*
G37*
G36*
X464142Y107176D02*
X464199Y106528D01*
X464295Y105956D01*
X464428Y105461D01*
X464599Y105042D01*
X464809Y104699D01*
X465056Y104432D01*
X465342Y104242D01*
X465666Y104128D01*
X466028Y104089D01*
X458408D01*
X458770Y104128D01*
X459094Y104242D01*
X459380Y104432D01*
X459627Y104699D01*
X459837Y105042D01*
X460008Y105461D01*
X460142Y105956D01*
X460237Y106528D01*
X460294Y107176D01*
X460313Y107900D01*
X464123D01*
X464142Y107176D01*
D02*
G37*
G36*
X464125Y102647D02*
X464219Y101270D01*
X464248Y101153D01*
X464281Y101067D01*
X464318Y101012D01*
X460118D01*
X460155Y101067D01*
X460188Y101153D01*
X460218Y101270D01*
X460243Y101420D01*
X460282Y101815D01*
X460305Y102338D01*
X460313Y102987D01*
X464123D01*
X464125Y102647D01*
D02*
G37*
G36*
X451376Y284618D02*
X451343Y284532D01*
X451313Y284414D01*
X451288Y284265D01*
X451249Y283870D01*
X451226Y283347D01*
X451218Y282697D01*
X447408D01*
X447406Y283038D01*
X447312Y284414D01*
X447283Y284532D01*
X447250Y284618D01*
X447213Y284673D01*
X451413D01*
X451376Y284618D01*
D02*
G37*
G36*
X451237Y107176D02*
X451294Y106528D01*
X451389Y105956D01*
X451523Y105461D01*
X451694Y105042D01*
X451904Y104699D01*
X452151Y104432D01*
X452437Y104242D01*
X452761Y104128D01*
X453123Y104089D01*
X445503D01*
X445865Y104128D01*
X446189Y104242D01*
X446474Y104432D01*
X446722Y104699D01*
X446932Y105042D01*
X447103Y105461D01*
X447236Y105956D01*
X447332Y106528D01*
X447389Y107176D01*
X447408Y107900D01*
X451218D01*
X451237Y107176D01*
D02*
G37*
G36*
X451220Y102802D02*
X451307Y101572D01*
X451340Y101419D01*
X451377Y101299D01*
X451419Y101209D01*
X451467Y101151D01*
X447276Y100864D01*
X447301Y100910D01*
X447324Y100989D01*
X447343Y101100D01*
X447361Y101245D01*
X447396Y101876D01*
X447408Y102802D01*
X451218Y103142D01*
X451220Y102802D01*
D02*
G37*
D44*
X838000Y6850D02*
X840575Y7540D01*
X842460Y9425D01*
X843150Y12000D01*
X817010Y515497D02*
X817307Y512860D01*
X818184Y510356D01*
X819595Y508109D01*
X821472Y506232D01*
X823719Y504821D01*
X826223Y503944D01*
X828860Y503647D01*
X840000Y679908D02*
X842227Y680830D01*
X843150Y683057D01*
X12000Y843150D02*
X9425Y842460D01*
X7540Y840575D01*
X6850Y838000D01*
X843150Y838000D02*
X842460Y840575D01*
X840575Y842460D01*
X838000Y843150D01*
X6850Y12000D02*
X7540Y9425D01*
X9425Y7540D01*
X12000Y6850D01*
X828860Y679908D02*
X826223Y679610D01*
X823719Y678734D01*
X821472Y677322D01*
X819595Y675446D01*
X818184Y673199D01*
X817307Y670694D01*
X817010Y668057D01*
X843150Y500497D02*
X842227Y502724D01*
X840000Y503647D01*
X6850Y12000D02*
Y22095D01*
X843150Y12042D02*
Y21391D01*
X817010Y515497D02*
Y523163D01*
X843150Y683099D02*
Y696646D01*
X828860Y503647D02*
X840000D01*
X12059Y6850D02*
X24745D01*
X12000Y843150D02*
X28018D01*
X828860Y679908D02*
X840000D01*
X6850Y22095D02*
Y32095D01*
X28018Y843150D02*
X38018D01*
X24745Y6850D02*
X34745D01*
X817010Y573163D02*
Y583163D01*
Y563163D02*
Y573163D01*
Y553163D02*
Y563163D01*
Y523163D02*
Y533163D01*
X843150Y21391D02*
Y31391D01*
X843150Y706646D02*
Y716646D01*
Y696646D02*
Y706646D01*
X6850Y32095D02*
Y42095D01*
X38018Y843150D02*
X48018D01*
X114745Y6850D02*
X124745D01*
X34745D02*
X44745D01*
X817010Y613163D02*
Y623163D01*
Y603163D02*
Y613163D01*
Y583163D02*
Y593163D01*
Y543163D02*
Y553163D01*
Y533163D02*
Y543163D01*
X843150Y31391D02*
Y41391D01*
X843150Y726646D02*
Y736646D01*
Y716646D02*
Y726646D01*
X6850Y42095D02*
Y52095D01*
X48018Y843150D02*
X58018D01*
X134745Y6850D02*
X144745D01*
X124745D02*
X134745D01*
X104745D02*
X114745D01*
X44745D02*
X54745D01*
X817010Y623163D02*
Y633163D01*
Y593163D02*
Y603163D01*
X843150Y41391D02*
Y51391D01*
X843150Y736646D02*
Y746646D01*
X6850Y52095D02*
Y62095D01*
X58018Y843150D02*
X68018D01*
X164745Y6850D02*
X174745D01*
X144745D02*
X154745D01*
X54745D02*
X64745D01*
X817010Y643163D02*
Y653163D01*
Y633163D02*
Y643163D01*
X843150Y51391D02*
Y61391D01*
X843150Y746646D02*
Y756646D01*
X6850Y62095D02*
Y72095D01*
X68018Y843150D02*
X78018D01*
X194745Y6850D02*
X204745D01*
X174745D02*
X184745D01*
X154745D02*
X164745D01*
X64745D02*
X74745D01*
X817010Y653163D02*
Y668057D01*
X843150Y61391D02*
Y71391D01*
X843150Y756646D02*
Y766646D01*
X6850Y72095D02*
Y82095D01*
X78018Y843150D02*
X88018D01*
X254745Y6850D02*
X264745D01*
X234745D02*
X244745D01*
X204745D02*
X214745D01*
X184745D02*
X194745D01*
X74745D02*
X84745D01*
X843150Y71391D02*
Y81391D01*
X843150Y766646D02*
Y776646D01*
X6850Y82095D02*
Y92094D01*
X88018Y843150D02*
X98018D01*
X354745Y6850D02*
X364745D01*
X344745D02*
X354745D01*
X264745D02*
X274745D01*
X244745D02*
X254745D01*
X214745D02*
X224745D01*
X84745D02*
X94745D01*
X843150Y81391D02*
Y91391D01*
X843150Y776646D02*
Y786646D01*
X6850Y92094D02*
Y102094D01*
X98018Y843150D02*
X108018D01*
X364745Y6850D02*
X374745D01*
X274745D02*
X284745D01*
X224745D02*
X234745D01*
X94745D02*
X104745D01*
X843150Y91391D02*
Y101391D01*
X843150Y786646D02*
Y796646D01*
X6850Y102094D02*
Y112094D01*
X108018Y843150D02*
X118018D01*
X374745Y6850D02*
X384745D01*
X284745D02*
X294745D01*
X843150Y101391D02*
Y111391D01*
X843150Y796646D02*
Y806646D01*
X6850Y112094D02*
Y122094D01*
X118018Y843150D02*
X128018D01*
X394745Y6850D02*
X404745D01*
X384745D02*
X394745D01*
X294745D02*
X304745D01*
X843150Y111391D02*
Y121391D01*
X843150Y806646D02*
Y816646D01*
X6850Y122094D02*
Y132094D01*
X128018Y843150D02*
X138018D01*
X444744Y6850D02*
X454744D01*
X404745D02*
X425000D01*
X314745D02*
X324745D01*
X304745D02*
X314745D01*
X843150Y121391D02*
Y131391D01*
X843150Y816646D02*
Y826646D01*
X6850Y132094D02*
Y142094D01*
X138018Y843150D02*
X148018D01*
X484744Y6850D02*
X494744D01*
X454744D02*
X464744D01*
X425000D02*
X444744D01*
X324745D02*
X334745D01*
X843150Y131391D02*
Y141391D01*
X843150Y826646D02*
Y838000D01*
X6850Y142094D02*
Y152094D01*
X148018Y843150D02*
X158018D01*
X504744Y6850D02*
X514744D01*
X494744D02*
X504744D01*
X464744D02*
X474744D01*
X334745D02*
X344745D01*
X843150Y141391D02*
Y151391D01*
X6850Y152094D02*
Y162094D01*
X158018Y843150D02*
X168018D01*
X594744Y6850D02*
X604744D01*
X524744D02*
X534744D01*
X514744D02*
X524744D01*
X474744D02*
X484744D01*
X843150Y151391D02*
Y161391D01*
X6850Y162094D02*
Y172094D01*
X168018Y843150D02*
X178018D01*
X614744Y6850D02*
X624744D01*
X604744D02*
X614744D01*
X584744D02*
X594744D01*
X554744D02*
X564744D01*
X544744D02*
X554744D01*
X534744D02*
X544744D01*
X843150Y161391D02*
Y171391D01*
X6850Y172094D02*
Y182094D01*
X178018Y843150D02*
X188018D01*
X624744Y6850D02*
X634744D01*
X574744D02*
X584744D01*
X564744D02*
X574744D01*
X843150Y171391D02*
Y181391D01*
X6850Y182094D02*
Y192094D01*
X188018Y843150D02*
X198018D01*
X634744Y6850D02*
X644744D01*
X843150Y181391D02*
Y191391D01*
X6850Y192094D02*
Y202094D01*
X198018Y843150D02*
X208018D01*
X644744Y6850D02*
X654744D01*
X843150Y191391D02*
Y201391D01*
X6850Y332094D02*
Y342094D01*
Y222094D02*
Y232094D01*
Y202094D02*
Y212094D01*
X208018Y843150D02*
X218018D01*
X654744Y6850D02*
X664744D01*
X843150Y271391D02*
Y281391D01*
Y211391D02*
Y221391D01*
Y201391D02*
Y211391D01*
X6850Y342094D02*
Y352094D01*
Y302094D02*
Y312094D01*
Y232094D02*
Y242094D01*
Y212094D02*
Y222094D01*
X218018Y843150D02*
X228018D01*
X664744Y6850D02*
X674744D01*
X843150Y281391D02*
Y291391D01*
Y251391D02*
Y261391D01*
Y241391D02*
Y251391D01*
Y231391D02*
Y241391D01*
Y221391D02*
Y231391D01*
X6850Y352094D02*
Y362094D01*
Y322094D02*
Y332094D01*
Y312094D02*
Y322094D01*
Y292094D02*
Y302094D01*
Y282094D02*
Y292094D01*
Y272094D02*
Y282094D01*
Y262094D02*
Y272094D01*
Y252094D02*
Y262094D01*
Y242094D02*
Y252094D01*
X228018Y843150D02*
X238018D01*
X674744Y6850D02*
X684744D01*
X843150Y291391D02*
Y301391D01*
Y261391D02*
Y271391D01*
X6850Y362094D02*
Y372094D01*
X238018Y843150D02*
X248018D01*
X684744Y6850D02*
X694744D01*
X843150Y301391D02*
Y311391D01*
X6850Y462094D02*
Y472094D01*
Y412094D02*
Y422094D01*
Y402094D02*
Y412094D01*
Y382094D02*
Y392094D01*
Y372094D02*
Y382094D01*
X248018Y843150D02*
X258018D01*
X694744Y6850D02*
X704744D01*
X843150Y311391D02*
Y321390D01*
X6850Y502094D02*
Y512094D01*
Y472094D02*
Y482094D01*
Y432094D02*
Y442094D01*
Y422094D02*
Y432094D01*
Y392094D02*
Y402094D01*
X258018Y843150D02*
X268018D01*
X704744Y6850D02*
X714744D01*
X843150Y321390D02*
Y331390D01*
X6850Y542094D02*
Y552094D01*
Y532094D02*
Y542094D01*
Y512094D02*
Y522094D01*
Y492094D02*
Y502094D01*
Y482094D02*
Y492094D01*
Y442094D02*
Y452094D01*
X268018Y843150D02*
X278018D01*
X714744Y6850D02*
X724744D01*
X843150Y331390D02*
Y341390D01*
X6850Y602094D02*
Y612094D01*
Y582094D02*
Y592094D01*
Y562094D02*
Y572094D01*
Y552094D02*
Y562094D01*
Y522094D02*
Y532094D01*
Y452094D02*
Y462094D01*
X278018Y843150D02*
X288018D01*
X724744Y6850D02*
X734744D01*
X843150Y341390D02*
Y351390D01*
X6850Y612094D02*
Y622094D01*
Y592094D02*
Y602094D01*
Y572094D02*
Y582094D01*
X288018Y843150D02*
X298018D01*
X734744Y6850D02*
X744744D01*
X843150Y351390D02*
Y361390D01*
X6850Y652093D02*
Y662093D01*
Y632094D02*
Y642093D01*
Y622094D02*
Y632094D01*
X298018Y843150D02*
X308018D01*
X744744Y6850D02*
X754744D01*
X843150Y361390D02*
Y371390D01*
X6850Y662093D02*
Y672093D01*
Y642093D02*
Y652093D01*
X308018Y843150D02*
X318018D01*
X754744Y6850D02*
X764744D01*
X843150Y371390D02*
Y381390D01*
X6850Y672093D02*
Y682093D01*
X318018Y843150D02*
X328018D01*
X764744Y6850D02*
X774744D01*
X843150Y381390D02*
Y391390D01*
X6850Y682093D02*
Y692093D01*
X328018Y843150D02*
X338018D01*
X774744Y6850D02*
X784744D01*
X843150Y391390D02*
Y401390D01*
X6850Y692093D02*
Y702093D01*
X338018Y843150D02*
X348018D01*
X784744Y6850D02*
X794744D01*
X843150Y401390D02*
Y411390D01*
X6850Y702093D02*
Y712093D01*
X348018Y843150D02*
X358018D01*
X794744Y6850D02*
X804744D01*
X843150Y411390D02*
Y421390D01*
X6850Y712093D02*
Y722093D01*
X358018Y843150D02*
X368018D01*
X804744Y6850D02*
X814744D01*
X843150Y421390D02*
Y431390D01*
X6850Y722093D02*
Y732093D01*
X368018Y843150D02*
X378018D01*
X824744Y6850D02*
X838000D01*
X814744D02*
X824744D01*
X843150Y431390D02*
Y441390D01*
X6850Y732093D02*
Y742093D01*
X378018Y843150D02*
X388018D01*
X843150Y441390D02*
Y451390D01*
X6850Y742093D02*
Y752093D01*
X388018Y843150D02*
X398018D01*
X843150Y451390D02*
Y461390D01*
X6850Y752093D02*
Y762093D01*
X438018Y843150D02*
X448018D01*
X398018D02*
X408018D01*
X843150Y461390D02*
Y471390D01*
X6850Y762093D02*
Y772093D01*
X465300Y843150D02*
X474048D01*
X448018D02*
X456552D01*
X408018D02*
X418018D01*
X843150Y471390D02*
Y481390D01*
X6850Y772093D02*
Y782093D01*
X474048Y843150D02*
X488018D01*
X456552D02*
X465300D01*
X418018D02*
X428018D01*
X843150Y481390D02*
Y491390D01*
X6850Y782093D02*
Y792093D01*
X488018Y843150D02*
X498017D01*
X428018D02*
X438018D01*
X843150Y491390D02*
Y500497D01*
X6850Y792093D02*
Y802093D01*
X498017Y843150D02*
X508017D01*
X6850Y802093D02*
Y812093D01*
X508017Y843150D02*
X518017D01*
X6850Y812093D02*
Y822093D01*
X518017Y843150D02*
X528017D01*
X6850Y822093D02*
Y837941D01*
X528017Y843150D02*
X538017D01*
X548017D01*
X558017D01*
X568017D01*
X578017D01*
X588017D01*
X598017D01*
X608017D01*
X618017D01*
X628017D01*
X638017D01*
X648017D01*
X658017D01*
X668017D01*
X678017D01*
X688017D01*
X698017D01*
X708017D01*
X718017D01*
X728017D01*
X738017D01*
X748017D01*
X758017D01*
X768017D01*
X778017D01*
X788017D01*
X798017D01*
X808017D01*
X818017D01*
X828017D01*
X837941D01*
D65*
X279400Y535940D02*
D03*
D67*
X36000Y36000D02*
D03*
X425000Y21000D02*
D03*
X36000Y364000D02*
D03*
Y256000D02*
D03*
X814000Y36000D02*
D03*
X814477Y256000D02*
D03*
X814000Y364000D02*
D03*
Y814000D02*
D03*
X36000D02*
D03*
X465300Y824000D02*
D03*
D76*
X421020Y727490D02*
Y733220D01*
X449087Y380020D02*
X466867D01*
X449087Y388383D02*
X466867D01*
X449087Y396530D02*
X466867D01*
X449087Y404349D02*
X466867D01*
X449087Y452020D02*
X466867D01*
X449087Y460383D02*
X466867D01*
X449087Y468530D02*
X466867D01*
X449087Y476349D02*
X466867D01*
X449087Y524020D02*
X466867D01*
X449087Y532383D02*
X466867D01*
X449087Y540530D02*
X466867D01*
X449087Y548349D02*
X466867D01*
X449087Y596020D02*
X466867D01*
X449087Y604383D02*
X466867D01*
X449087Y612530D02*
X466867D01*
X449087Y620349D02*
X466867D01*
X449087Y668020D02*
X466867D01*
X449087Y676383D02*
X466867D01*
X449087Y684530D02*
X466867D01*
X449087Y692349D02*
X466867D01*
X421020Y733220D02*
X432020Y744220D01*
X327680Y728685D02*
Y746465D01*
X234340Y727490D02*
Y745270D01*
X141000Y727490D02*
Y745270D01*
D77*
X729336Y331636D02*
X729336Y560070D01*
X704850Y128270D02*
Y348810D01*
Y571546D01*
X689610Y701040D02*
X689610Y150485D01*
X697230Y621519D02*
X701130Y625419D01*
X697230Y243117D02*
Y621519D01*
X701130Y625419D02*
Y626038D01*
X546450Y585470D02*
Y718820D01*
Y431800D02*
Y585470D01*
X721380Y134620D02*
X721380Y637688D01*
X729336Y115570D02*
Y331636D01*
X712630Y121920D02*
X712630Y588538D01*
X449313Y99075D02*
X449518Y98870D01*
X449313Y99075D02*
Y286815D01*
X462218Y98870D02*
Y256478D01*
X559450Y576580D02*
Y637540D01*
Y576580D02*
X559450Y576580D01*
X559450Y431800D02*
Y495300D01*
Y431800D02*
X559450Y431800D01*
D78*
X526320Y496311D02*
Y640311D01*
X517650Y430040D02*
Y718040D01*
X526320Y348810D02*
Y496311D01*
X491640Y348810D02*
Y429260D01*
X517650Y348810D02*
Y430040D01*
X491640Y429260D02*
Y574040D01*
X491640Y574040D01*
X491640Y429260D02*
X491640Y429260D01*
Y574040D02*
Y718820D01*
X462218Y256478D02*
X462280Y256540D01*
D79*
X681990Y723900D02*
X681990Y217170D01*
X421018Y115570D02*
Y252462D01*
X407670Y168500D02*
Y243117D01*
X398780Y175000D02*
Y216993D01*
D80*
X538924Y331496D02*
Y362780D01*
Y331496D02*
X538950Y331470D01*
X538898Y362806D02*
X538924Y362780D01*
X538898Y362806D02*
Y506806D01*
Y650806D01*
D83*
X57120Y27252D02*
D03*
X27252Y14880D02*
D03*
X14880Y44748D02*
D03*
X44748Y57120D02*
D03*
X57120Y44748D02*
D03*
X44748Y14880D02*
D03*
X14880Y27252D02*
D03*
X27252Y57120D02*
D03*
Y385120D02*
D03*
X14880Y355252D02*
D03*
X44748Y342880D02*
D03*
X57120Y372748D02*
D03*
X44748Y385120D02*
D03*
X14880Y372748D02*
D03*
X27252Y342880D02*
D03*
X57120Y355252D02*
D03*
X27252Y277120D02*
D03*
X14880Y247252D02*
D03*
X44748Y234880D02*
D03*
X57120Y264748D02*
D03*
X44748Y277120D02*
D03*
X14880Y264748D02*
D03*
X27252Y234880D02*
D03*
X57120Y247252D02*
D03*
X805252Y57120D02*
D03*
X792880Y27252D02*
D03*
X822748Y14880D02*
D03*
X835120Y44748D02*
D03*
X822748Y57120D02*
D03*
X792880Y44748D02*
D03*
X805252Y14880D02*
D03*
X835120Y27252D02*
D03*
X805729Y277120D02*
D03*
X793357Y247252D02*
D03*
X823225Y234880D02*
D03*
X835597Y264748D02*
D03*
X823225Y277120D02*
D03*
X793357Y264748D02*
D03*
X805729Y234880D02*
D03*
X835597Y247252D02*
D03*
X805252Y385120D02*
D03*
X792880Y355252D02*
D03*
X822748Y342880D02*
D03*
X835120Y372748D02*
D03*
X822748Y385120D02*
D03*
X792880Y372748D02*
D03*
X805252Y342880D02*
D03*
X835120Y355252D02*
D03*
X805252Y835120D02*
D03*
X792880Y805252D02*
D03*
X822748Y792880D02*
D03*
X835120Y822748D02*
D03*
X822748Y835120D02*
D03*
X792880Y822748D02*
D03*
X805252Y792880D02*
D03*
X835120Y805252D02*
D03*
X27252Y835120D02*
D03*
X14880Y805252D02*
D03*
X44748Y792880D02*
D03*
X57120Y822748D02*
D03*
X44748Y835120D02*
D03*
X14880Y822748D02*
D03*
X27252Y792880D02*
D03*
X57120Y805252D02*
D03*
D84*
X456552Y845120D02*
D03*
X444180Y815252D02*
D03*
X474048Y802880D02*
D03*
X486420Y832748D02*
D03*
X474048Y845120D02*
D03*
X444180Y832748D02*
D03*
X456552Y802880D02*
D03*
X486420Y815252D02*
D03*
D85*
X137160Y303530D02*
D03*
X329692Y172466D02*
D03*
X312420D02*
D03*
X329692Y197866D02*
D03*
X312420D02*
D03*
X175006Y187198D02*
D03*
X158242D02*
D03*
X175006Y209042D02*
D03*
X158242D02*
D03*
X6474Y792093D02*
D03*
X58018Y843526D02*
D03*
X820071Y771491D02*
D03*
X830071Y751491D02*
D03*
X820071Y731491D02*
D03*
X830071Y711491D02*
D03*
X820071Y691491D02*
D03*
Y491491D02*
D03*
X830071Y471490D02*
D03*
X820071Y451490D02*
D03*
X830071Y431490D02*
D03*
X820071Y411490D02*
D03*
X830071Y311490D02*
D03*
X820071Y291490D02*
D03*
Y211490D02*
D03*
X830071Y191490D02*
D03*
X820071Y171490D02*
D03*
X830071Y151490D02*
D03*
X820071Y131490D02*
D03*
X830071Y111490D02*
D03*
X820071Y91490D02*
D03*
X830071Y71490D02*
D03*
X800071Y771491D02*
D03*
X810071Y751491D02*
D03*
X800071Y731491D02*
D03*
X810071Y711491D02*
D03*
X800071Y691491D02*
D03*
X810071Y671491D02*
D03*
X800071Y611491D02*
D03*
Y571491D02*
D03*
X810071Y511491D02*
D03*
X800071Y491491D02*
D03*
X810071Y471490D02*
D03*
X800071Y451490D02*
D03*
X810071Y431490D02*
D03*
X800071Y411490D02*
D03*
Y331490D02*
D03*
X810071Y311490D02*
D03*
X800071Y291490D02*
D03*
Y211490D02*
D03*
X810071Y191490D02*
D03*
X800071Y171490D02*
D03*
X810071Y151490D02*
D03*
X800071Y131490D02*
D03*
X810071Y111490D02*
D03*
X800071Y91490D02*
D03*
X810071Y71490D02*
D03*
X780071Y771491D02*
D03*
X790071Y751491D02*
D03*
X780071Y731491D02*
D03*
X790071Y711491D02*
D03*
X780071Y691491D02*
D03*
X790071Y631491D02*
D03*
X780071Y611491D02*
D03*
X790071Y591491D02*
D03*
X780071Y571491D02*
D03*
X790071Y551491D02*
D03*
X780071Y491491D02*
D03*
X790071Y471490D02*
D03*
X780071Y451490D02*
D03*
X790071Y431490D02*
D03*
X780071Y411490D02*
D03*
X790071Y391490D02*
D03*
X780071Y331490D02*
D03*
X790071Y311490D02*
D03*
X780071Y291490D02*
D03*
Y211490D02*
D03*
X790071Y191490D02*
D03*
X780071Y171490D02*
D03*
X790071Y151490D02*
D03*
X780071Y131490D02*
D03*
X790071Y111490D02*
D03*
X780071Y91490D02*
D03*
X790071Y71490D02*
D03*
X780071Y51490D02*
D03*
X770071Y831491D02*
D03*
X760071Y811491D02*
D03*
X770071Y791491D02*
D03*
X760071Y771491D02*
D03*
X770071Y751491D02*
D03*
X760071Y731491D02*
D03*
X770071Y711491D02*
D03*
X760071Y691491D02*
D03*
X770071Y631491D02*
D03*
Y591491D02*
D03*
Y551491D02*
D03*
Y471490D02*
D03*
Y431490D02*
D03*
Y391490D02*
D03*
Y351490D02*
D03*
Y311490D02*
D03*
X760071Y291490D02*
D03*
X770071Y271490D02*
D03*
X760071Y251490D02*
D03*
X770071Y231490D02*
D03*
X760071Y211490D02*
D03*
X770071Y191490D02*
D03*
X760071Y171490D02*
D03*
X770071Y151490D02*
D03*
X760071Y131490D02*
D03*
X770071Y111490D02*
D03*
X760071Y91490D02*
D03*
X770071Y71490D02*
D03*
X760071Y51490D02*
D03*
X770071Y31490D02*
D03*
X750071Y831491D02*
D03*
X740071Y811491D02*
D03*
X750071Y791491D02*
D03*
X740071Y771491D02*
D03*
X750071Y751491D02*
D03*
X740071Y731491D02*
D03*
X750071Y711491D02*
D03*
X740071Y691491D02*
D03*
X750071Y671491D02*
D03*
X740071Y291490D02*
D03*
X750071Y271490D02*
D03*
X740071Y251490D02*
D03*
X750071Y231490D02*
D03*
X740071Y211490D02*
D03*
X750071Y191490D02*
D03*
X740071Y171490D02*
D03*
X750071Y151490D02*
D03*
X740071Y131490D02*
D03*
X750071Y111490D02*
D03*
X740071Y91490D02*
D03*
X750071Y71490D02*
D03*
X740071Y51490D02*
D03*
X750071Y31490D02*
D03*
X730070Y831491D02*
D03*
X720070Y811491D02*
D03*
X730070Y791491D02*
D03*
X720070Y771491D02*
D03*
X730070Y751491D02*
D03*
X720070Y91490D02*
D03*
X730070Y71490D02*
D03*
X720070Y51490D02*
D03*
X730070Y31490D02*
D03*
X710070Y831491D02*
D03*
X700070Y811491D02*
D03*
X710070Y791491D02*
D03*
X700070Y771491D02*
D03*
X710070Y751491D02*
D03*
Y711491D02*
D03*
Y671491D02*
D03*
X700070Y651490D02*
D03*
Y91490D02*
D03*
X710070Y71490D02*
D03*
X700070Y51490D02*
D03*
X710070Y31490D02*
D03*
X690070Y831491D02*
D03*
X680070Y811491D02*
D03*
X690070Y791491D02*
D03*
X680070Y771491D02*
D03*
X690070Y751491D02*
D03*
Y711491D02*
D03*
X680070Y171490D02*
D03*
Y91490D02*
D03*
X690070Y71490D02*
D03*
X680070Y51490D02*
D03*
X690070Y31490D02*
D03*
X670070Y831491D02*
D03*
X660070Y811491D02*
D03*
X670070Y791491D02*
D03*
X660070Y771491D02*
D03*
X670070Y751491D02*
D03*
X660070Y731491D02*
D03*
X670070Y711491D02*
D03*
X660070Y691491D02*
D03*
X670070Y671491D02*
D03*
Y591491D02*
D03*
Y551491D02*
D03*
X660070Y531491D02*
D03*
Y491491D02*
D03*
X670070Y471490D02*
D03*
X660070Y451490D02*
D03*
X670070Y431490D02*
D03*
Y391490D02*
D03*
X660070Y371490D02*
D03*
Y291490D02*
D03*
X670070Y271490D02*
D03*
X660070Y251490D02*
D03*
X670070Y231490D02*
D03*
Y191490D02*
D03*
X660070Y171490D02*
D03*
Y91490D02*
D03*
X670070Y71490D02*
D03*
X660070Y51490D02*
D03*
X670070Y31490D02*
D03*
X650070Y831491D02*
D03*
X640070Y811491D02*
D03*
X650070Y791491D02*
D03*
X640070Y771491D02*
D03*
X650070Y671491D02*
D03*
X640070Y571491D02*
D03*
Y531491D02*
D03*
Y491491D02*
D03*
X650070Y391490D02*
D03*
X640070Y251490D02*
D03*
X650070Y191490D02*
D03*
X640070Y171490D02*
D03*
Y91490D02*
D03*
X650070Y71490D02*
D03*
X640070Y51490D02*
D03*
X650070Y31490D02*
D03*
X630070Y831491D02*
D03*
X620070Y811491D02*
D03*
X630070Y791491D02*
D03*
X620070Y771491D02*
D03*
X630070Y751491D02*
D03*
Y711491D02*
D03*
Y671491D02*
D03*
Y631491D02*
D03*
Y551491D02*
D03*
Y511491D02*
D03*
Y391490D02*
D03*
Y191490D02*
D03*
X620070Y171490D02*
D03*
Y91490D02*
D03*
X630070Y71490D02*
D03*
X620070Y51490D02*
D03*
X630070Y31490D02*
D03*
X610070Y831491D02*
D03*
X600070Y811491D02*
D03*
X610070Y791491D02*
D03*
Y271490D02*
D03*
X600070Y91490D02*
D03*
X610070Y71490D02*
D03*
X600070Y51490D02*
D03*
X610070Y31490D02*
D03*
X590070Y831491D02*
D03*
X580070Y811491D02*
D03*
X590070Y791491D02*
D03*
X580070Y91490D02*
D03*
X590070Y71490D02*
D03*
X580070Y51490D02*
D03*
X590070Y31490D02*
D03*
X570070Y831491D02*
D03*
X560070Y811491D02*
D03*
X570070Y791491D02*
D03*
Y631491D02*
D03*
X560070Y91490D02*
D03*
X570070Y71490D02*
D03*
X560070Y51490D02*
D03*
X570070Y31490D02*
D03*
X550070Y831491D02*
D03*
X540070Y811491D02*
D03*
X550070Y791491D02*
D03*
X540070Y91490D02*
D03*
X550070Y71490D02*
D03*
X540070Y51490D02*
D03*
X550070Y31490D02*
D03*
X530070Y831491D02*
D03*
X520070Y811491D02*
D03*
X530070Y791491D02*
D03*
Y231490D02*
D03*
X520070Y91490D02*
D03*
X530070Y71490D02*
D03*
X520070Y51490D02*
D03*
X530070Y31490D02*
D03*
X510070Y831491D02*
D03*
X500070Y811491D02*
D03*
X510070Y791491D02*
D03*
X500070Y731491D02*
D03*
Y91490D02*
D03*
X510070Y71490D02*
D03*
X500070Y51490D02*
D03*
X510070Y31490D02*
D03*
X490070Y791491D02*
D03*
X480070Y731491D02*
D03*
Y651490D02*
D03*
Y571491D02*
D03*
Y491491D02*
D03*
Y371490D02*
D03*
Y91490D02*
D03*
X490070Y71490D02*
D03*
X480070Y51490D02*
D03*
X490070Y31490D02*
D03*
X470070Y711491D02*
D03*
Y631491D02*
D03*
Y511491D02*
D03*
Y431490D02*
D03*
Y351490D02*
D03*
Y71490D02*
D03*
X460070Y51490D02*
D03*
X470070Y31490D02*
D03*
X450070Y791491D02*
D03*
X440070Y291490D02*
D03*
X450070Y71490D02*
D03*
X430070Y831491D02*
D03*
X420070Y811491D02*
D03*
X430070Y791491D02*
D03*
X420070Y291490D02*
D03*
Y91490D02*
D03*
X430070Y71490D02*
D03*
X410070Y831491D02*
D03*
X400070Y811491D02*
D03*
X410070Y791491D02*
D03*
X400070Y291490D02*
D03*
X410070Y271490D02*
D03*
X400070Y131490D02*
D03*
X410070Y111490D02*
D03*
Y71490D02*
D03*
X400070Y51490D02*
D03*
X390070Y831491D02*
D03*
X380070Y811491D02*
D03*
X390070Y791491D02*
D03*
Y71490D02*
D03*
Y31490D02*
D03*
X370070Y831491D02*
D03*
X360070Y811491D02*
D03*
X370070Y791491D02*
D03*
X360070Y291490D02*
D03*
Y251490D02*
D03*
Y211490D02*
D03*
Y171490D02*
D03*
X370070Y71490D02*
D03*
X360070Y51490D02*
D03*
X370070Y31490D02*
D03*
X350070Y831491D02*
D03*
X340070Y811491D02*
D03*
X350070Y791491D02*
D03*
X340070Y291490D02*
D03*
X350070Y271490D02*
D03*
X340070Y251490D02*
D03*
Y211490D02*
D03*
X350070Y191490D02*
D03*
X340070Y171490D02*
D03*
X350070Y151490D02*
D03*
Y71490D02*
D03*
X340070Y51490D02*
D03*
X350070Y31490D02*
D03*
X330070Y831491D02*
D03*
X320070Y811491D02*
D03*
X330070Y791491D02*
D03*
X320070Y291490D02*
D03*
Y251490D02*
D03*
Y211490D02*
D03*
X330070Y151490D02*
D03*
Y71490D02*
D03*
X320070Y51490D02*
D03*
X330070Y31490D02*
D03*
X310070Y831491D02*
D03*
X300070Y811491D02*
D03*
X310070Y791491D02*
D03*
Y271490D02*
D03*
X300070Y251490D02*
D03*
X310070Y231490D02*
D03*
Y151490D02*
D03*
X300070Y131490D02*
D03*
X310070Y71490D02*
D03*
X300070Y51490D02*
D03*
X310070Y31490D02*
D03*
X290070Y831491D02*
D03*
X280070Y811491D02*
D03*
X290070Y791491D02*
D03*
Y231490D02*
D03*
Y151490D02*
D03*
Y71490D02*
D03*
X280070Y51490D02*
D03*
X290070Y31490D02*
D03*
X270070Y831491D02*
D03*
X260070Y811491D02*
D03*
X270070Y791491D02*
D03*
Y231490D02*
D03*
Y151490D02*
D03*
Y71490D02*
D03*
X260070Y51490D02*
D03*
X270070Y31490D02*
D03*
X250070Y831491D02*
D03*
X240070Y811491D02*
D03*
X250070Y791491D02*
D03*
X240070Y251490D02*
D03*
X250070Y231490D02*
D03*
X240070Y211490D02*
D03*
X250070Y191490D02*
D03*
Y151490D02*
D03*
Y71490D02*
D03*
Y31490D02*
D03*
X230070Y831491D02*
D03*
X220070Y811491D02*
D03*
X230070Y791491D02*
D03*
Y71490D02*
D03*
Y31490D02*
D03*
X210070Y831491D02*
D03*
X200070Y811491D02*
D03*
X210070Y791491D02*
D03*
Y751491D02*
D03*
Y231490D02*
D03*
Y191490D02*
D03*
Y151490D02*
D03*
X200070Y131490D02*
D03*
X210070Y71490D02*
D03*
X200070Y51490D02*
D03*
X210070Y31490D02*
D03*
X190070Y831491D02*
D03*
X180070Y811491D02*
D03*
X190070Y791491D02*
D03*
Y751491D02*
D03*
Y231490D02*
D03*
X180070Y171490D02*
D03*
Y131490D02*
D03*
X190070Y71490D02*
D03*
X180070Y51490D02*
D03*
X190070Y31490D02*
D03*
X170070Y831491D02*
D03*
X160070Y811491D02*
D03*
X170070Y791491D02*
D03*
Y751491D02*
D03*
Y231490D02*
D03*
Y71490D02*
D03*
X160070Y51490D02*
D03*
X170070Y31490D02*
D03*
X150070Y831491D02*
D03*
X140070Y811491D02*
D03*
X150070Y791491D02*
D03*
X140070Y771491D02*
D03*
X150070Y751491D02*
D03*
Y231490D02*
D03*
Y71490D02*
D03*
X140070Y51490D02*
D03*
X150070Y31490D02*
D03*
X130070Y831491D02*
D03*
X120070Y811491D02*
D03*
X130070Y791491D02*
D03*
X120070Y771491D02*
D03*
X130070Y751491D02*
D03*
X120070Y291490D02*
D03*
X130070Y231490D02*
D03*
X120070Y171490D02*
D03*
Y131490D02*
D03*
X130070Y71490D02*
D03*
X120070Y51490D02*
D03*
X130070Y31490D02*
D03*
X110070Y831491D02*
D03*
X100070Y811491D02*
D03*
X110070Y791491D02*
D03*
X100070Y771491D02*
D03*
X110070Y751491D02*
D03*
Y311490D02*
D03*
X100070Y291490D02*
D03*
X110070Y271490D02*
D03*
Y71490D02*
D03*
X100070Y51490D02*
D03*
X110070Y31490D02*
D03*
X90070Y831491D02*
D03*
X80070Y811491D02*
D03*
X90070Y791491D02*
D03*
X80070Y771491D02*
D03*
X90070Y751491D02*
D03*
X80070Y731491D02*
D03*
X90070Y711491D02*
D03*
X80070Y691491D02*
D03*
X90070Y671491D02*
D03*
X80070Y651490D02*
D03*
X90070Y631491D02*
D03*
X80070Y611491D02*
D03*
X90070Y591491D02*
D03*
X80070Y571491D02*
D03*
X90070Y551491D02*
D03*
X80070Y531491D02*
D03*
X90070Y511491D02*
D03*
X80070Y491491D02*
D03*
X90070Y471490D02*
D03*
X80070Y451490D02*
D03*
X90070Y431490D02*
D03*
X80070Y411490D02*
D03*
X90070Y391490D02*
D03*
X80070Y371490D02*
D03*
X90070Y351490D02*
D03*
X80070Y331490D02*
D03*
X90070Y311490D02*
D03*
X80070Y291490D02*
D03*
X90070Y271490D02*
D03*
X80070Y251490D02*
D03*
X90070Y231490D02*
D03*
X80070Y211490D02*
D03*
Y171490D02*
D03*
X90070Y71490D02*
D03*
X80070Y51490D02*
D03*
X90070Y31490D02*
D03*
X70070Y831491D02*
D03*
Y791491D02*
D03*
X60070Y771491D02*
D03*
X70070Y751491D02*
D03*
X60070Y731491D02*
D03*
X70070Y711491D02*
D03*
X60070Y691491D02*
D03*
X70070Y671491D02*
D03*
X60070Y651490D02*
D03*
X70070Y631491D02*
D03*
X60070Y611491D02*
D03*
X70070Y591491D02*
D03*
X60070Y571491D02*
D03*
X70070Y551491D02*
D03*
X60070Y531491D02*
D03*
X70070Y511491D02*
D03*
X60070Y491491D02*
D03*
X70070Y471490D02*
D03*
X60070Y451490D02*
D03*
X70070Y431490D02*
D03*
X60070Y411490D02*
D03*
X70070Y391490D02*
D03*
Y351490D02*
D03*
X60070Y331490D02*
D03*
X70070Y311490D02*
D03*
X60070Y291490D02*
D03*
X70070Y271490D02*
D03*
Y231490D02*
D03*
X60070Y211490D02*
D03*
X70070Y191490D02*
D03*
X60070Y171490D02*
D03*
X70070Y151490D02*
D03*
X60070Y131490D02*
D03*
X70070Y111490D02*
D03*
X60070Y91490D02*
D03*
X70070Y71490D02*
D03*
X40070Y771491D02*
D03*
X50070Y751491D02*
D03*
X40070Y731491D02*
D03*
X50070Y711491D02*
D03*
X40070Y691491D02*
D03*
X50070Y671491D02*
D03*
X40070Y651490D02*
D03*
X50070Y631491D02*
D03*
X40070Y611491D02*
D03*
X50070Y591491D02*
D03*
X40070Y571491D02*
D03*
X50070Y551491D02*
D03*
X40070Y531491D02*
D03*
X50070Y511491D02*
D03*
X40070Y491491D02*
D03*
X50070Y471490D02*
D03*
X40070Y451490D02*
D03*
X50070Y431490D02*
D03*
X40070Y411490D02*
D03*
X50070Y311490D02*
D03*
X40070Y291490D02*
D03*
Y211490D02*
D03*
X50070Y191490D02*
D03*
X40070Y171490D02*
D03*
X50070Y151490D02*
D03*
X40070Y131490D02*
D03*
X50070Y111490D02*
D03*
X40070Y91490D02*
D03*
X50070Y71490D02*
D03*
X20070Y771491D02*
D03*
X30070Y751491D02*
D03*
X20070Y731491D02*
D03*
X30070Y711491D02*
D03*
X20070Y691491D02*
D03*
X30070Y671491D02*
D03*
X20070Y651490D02*
D03*
X30070Y631491D02*
D03*
X20070Y611491D02*
D03*
X30070Y591491D02*
D03*
X20070Y571491D02*
D03*
X30070Y551491D02*
D03*
X20070Y531491D02*
D03*
X30070Y511491D02*
D03*
X20070Y491491D02*
D03*
X30070Y471490D02*
D03*
X20070Y451490D02*
D03*
X30070Y431490D02*
D03*
X20070Y411490D02*
D03*
Y331490D02*
D03*
X30070Y311490D02*
D03*
X20070Y291490D02*
D03*
Y211490D02*
D03*
X30070Y191490D02*
D03*
X20070Y171490D02*
D03*
X30070Y151490D02*
D03*
X20070Y131490D02*
D03*
X30070Y111490D02*
D03*
X20070Y91490D02*
D03*
X30070Y71490D02*
D03*
X836499Y679532D02*
D03*
X843526Y686646D02*
D03*
Y696646D02*
D03*
Y706646D02*
D03*
Y716646D02*
D03*
Y726646D02*
D03*
Y736646D02*
D03*
Y746646D02*
D03*
Y756646D02*
D03*
Y766646D02*
D03*
Y776646D02*
D03*
Y786646D02*
D03*
X817946Y513383D02*
D03*
X817652Y523379D02*
D03*
Y533379D02*
D03*
Y543379D02*
D03*
Y553379D02*
D03*
Y563379D02*
D03*
Y573379D02*
D03*
Y583379D02*
D03*
Y593379D02*
D03*
Y603379D02*
D03*
Y613379D02*
D03*
Y623379D02*
D03*
Y633379D02*
D03*
Y643379D02*
D03*
Y653379D02*
D03*
Y663379D02*
D03*
X818883Y673303D02*
D03*
X826770Y679450D02*
D03*
X843375Y501389D02*
D03*
X833728Y504023D02*
D03*
X824072Y505479D02*
D03*
X843526Y421390D02*
D03*
Y431390D02*
D03*
Y441390D02*
D03*
Y451390D02*
D03*
Y461390D02*
D03*
Y471390D02*
D03*
Y481390D02*
D03*
Y491390D02*
D03*
Y391390D02*
D03*
Y401390D02*
D03*
Y411390D02*
D03*
Y291391D02*
D03*
Y301391D02*
D03*
Y311391D02*
D03*
Y321390D02*
D03*
Y331390D02*
D03*
Y141391D02*
D03*
Y151391D02*
D03*
Y161391D02*
D03*
Y171391D02*
D03*
Y181391D02*
D03*
Y191391D02*
D03*
Y201391D02*
D03*
Y211391D02*
D03*
Y221391D02*
D03*
Y231391D02*
D03*
Y281391D02*
D03*
Y61391D02*
D03*
Y71391D02*
D03*
Y81391D02*
D03*
Y91391D02*
D03*
Y101391D02*
D03*
Y111391D02*
D03*
Y121391D02*
D03*
Y131391D02*
D03*
X374745Y6474D02*
D03*
X384745D02*
D03*
X394745D02*
D03*
X454744D02*
D03*
X464744D02*
D03*
X474744D02*
D03*
X514744D02*
D03*
X484744D02*
D03*
X574744D02*
D03*
X584744D02*
D03*
X564744D02*
D03*
X554744D02*
D03*
X524744D02*
D03*
X544744D02*
D03*
X534744D02*
D03*
X504744D02*
D03*
X494744D02*
D03*
X594744D02*
D03*
X664744D02*
D03*
X604744D02*
D03*
X674744D02*
D03*
X644744D02*
D03*
X714744D02*
D03*
X614744D02*
D03*
X624744D02*
D03*
X634744D02*
D03*
X694744D02*
D03*
X654744D02*
D03*
X734744D02*
D03*
X704744D02*
D03*
X684744D02*
D03*
X724744D02*
D03*
X744744D02*
D03*
X754744D02*
D03*
X764744D02*
D03*
X784744D02*
D03*
X774744D02*
D03*
X64745D02*
D03*
X74745D02*
D03*
X84745D02*
D03*
X94745D02*
D03*
X104745D02*
D03*
X114745D02*
D03*
X124745D02*
D03*
X134745D02*
D03*
X144745D02*
D03*
X154745D02*
D03*
X164745D02*
D03*
X174745D02*
D03*
X184745D02*
D03*
X194745D02*
D03*
X244745D02*
D03*
X204745D02*
D03*
X314745D02*
D03*
X284745D02*
D03*
X304745D02*
D03*
X294745D02*
D03*
X344745D02*
D03*
X234745D02*
D03*
X224745D02*
D03*
X214745D02*
D03*
X274745D02*
D03*
X334745D02*
D03*
X324745D02*
D03*
X264745D02*
D03*
X254745D02*
D03*
X354745D02*
D03*
X364745D02*
D03*
X6474Y132094D02*
D03*
Y142094D02*
D03*
Y152094D02*
D03*
Y162094D02*
D03*
Y202094D02*
D03*
Y232094D02*
D03*
Y222094D02*
D03*
Y192094D02*
D03*
Y212094D02*
D03*
Y182094D02*
D03*
Y172094D02*
D03*
Y72095D02*
D03*
Y82095D02*
D03*
Y62095D02*
D03*
Y92094D02*
D03*
Y102094D02*
D03*
Y112094D02*
D03*
Y122094D02*
D03*
Y282094D02*
D03*
Y292094D02*
D03*
Y302094D02*
D03*
Y312094D02*
D03*
Y322094D02*
D03*
Y332094D02*
D03*
Y342094D02*
D03*
Y392094D02*
D03*
Y402094D02*
D03*
Y412094D02*
D03*
Y422094D02*
D03*
Y442094D02*
D03*
Y452094D02*
D03*
Y432094D02*
D03*
Y462094D02*
D03*
Y542094D02*
D03*
Y532094D02*
D03*
Y502094D02*
D03*
Y522094D02*
D03*
Y512094D02*
D03*
Y552094D02*
D03*
Y562094D02*
D03*
Y572094D02*
D03*
Y582094D02*
D03*
Y592094D02*
D03*
Y662093D02*
D03*
Y652093D02*
D03*
Y642093D02*
D03*
Y602094D02*
D03*
Y612094D02*
D03*
Y622094D02*
D03*
Y632094D02*
D03*
Y672093D02*
D03*
Y682093D02*
D03*
Y472094D02*
D03*
Y492094D02*
D03*
Y482094D02*
D03*
Y692093D02*
D03*
Y712093D02*
D03*
Y742093D02*
D03*
Y702093D02*
D03*
Y752093D02*
D03*
Y762093D02*
D03*
Y722093D02*
D03*
Y732093D02*
D03*
Y772093D02*
D03*
Y782093D02*
D03*
X68018Y843526D02*
D03*
X78018D02*
D03*
X88018D02*
D03*
X98018D02*
D03*
X108018D02*
D03*
X118018D02*
D03*
X128018D02*
D03*
X138018D02*
D03*
X148018D02*
D03*
X158018D02*
D03*
X168018D02*
D03*
X178018D02*
D03*
X188018D02*
D03*
X198018D02*
D03*
X208018D02*
D03*
X218018D02*
D03*
X228018D02*
D03*
X238018D02*
D03*
X248018D02*
D03*
X258018D02*
D03*
X268018D02*
D03*
X278018D02*
D03*
X288018D02*
D03*
X298018D02*
D03*
X308018D02*
D03*
X318018D02*
D03*
X328018D02*
D03*
X338018D02*
D03*
X348018D02*
D03*
X358018D02*
D03*
X368018D02*
D03*
X378018D02*
D03*
X388018D02*
D03*
X398018D02*
D03*
X408018D02*
D03*
X428018D02*
D03*
X418018D02*
D03*
X508017D02*
D03*
X518017D02*
D03*
X528017D02*
D03*
X548017D02*
D03*
X558017D02*
D03*
X598017D02*
D03*
X568017D02*
D03*
X538017D02*
D03*
X578017D02*
D03*
X588017D02*
D03*
X498017D02*
D03*
X608017D02*
D03*
X618017D02*
D03*
X628017D02*
D03*
X638017D02*
D03*
X648017D02*
D03*
X658017D02*
D03*
X668017D02*
D03*
X678017D02*
D03*
X688017D02*
D03*
X698017D02*
D03*
X708017D02*
D03*
X718017D02*
D03*
X728017D02*
D03*
X738017D02*
D03*
X748017D02*
D03*
X758017D02*
D03*
X768017D02*
D03*
X778017D02*
D03*
X788017D02*
D03*
X228600Y269240D02*
D03*
Y126556D02*
D03*
Y120650D02*
D03*
Y274320D02*
D03*
X748030Y320040D02*
D03*
Y304800D02*
D03*
X740071Y320040D02*
D03*
X137160D02*
D03*
X152400Y303530D02*
D03*
X144780D02*
D03*
X160020Y311490D02*
D03*
X152400D02*
D03*
X145020D02*
D03*
X137160Y312420D02*
D03*
X152400Y320040D02*
D03*
X145020D02*
D03*
X410070Y521491D02*
D03*
X415070Y451490D02*
D03*
X400070Y521491D02*
D03*
X405070Y451490D02*
D03*
X395070Y591491D02*
D03*
X390070Y521491D02*
D03*
X395070Y451490D02*
D03*
X380070Y721491D02*
D03*
X385070Y711491D02*
D03*
X380070Y701491D02*
D03*
Y661490D02*
D03*
X385070Y651490D02*
D03*
X380070Y641490D02*
D03*
X385070Y631491D02*
D03*
Y591491D02*
D03*
X380070Y581491D02*
D03*
X385070Y571491D02*
D03*
X380070Y561491D02*
D03*
Y521491D02*
D03*
X385070Y511491D02*
D03*
X380070Y501491D02*
D03*
X385070Y491491D02*
D03*
Y451490D02*
D03*
X380070Y441490D02*
D03*
X385070Y431490D02*
D03*
X380070Y421490D02*
D03*
X385070Y371490D02*
D03*
X380070Y361490D02*
D03*
X385070Y351490D02*
D03*
X370070Y721491D02*
D03*
X375070Y711491D02*
D03*
X370070Y701491D02*
D03*
Y661490D02*
D03*
X375070Y651490D02*
D03*
X370070Y641490D02*
D03*
X375070Y631491D02*
D03*
Y591491D02*
D03*
X370070Y581491D02*
D03*
X375070Y571491D02*
D03*
X370070Y561491D02*
D03*
Y521491D02*
D03*
X375070Y511491D02*
D03*
X370070Y501491D02*
D03*
X375070Y491491D02*
D03*
Y451490D02*
D03*
X370070Y441490D02*
D03*
X375070Y431490D02*
D03*
X370070Y421490D02*
D03*
X375070Y371490D02*
D03*
X370070Y361490D02*
D03*
X375070Y351490D02*
D03*
X365070Y711491D02*
D03*
Y651490D02*
D03*
Y631491D02*
D03*
Y591491D02*
D03*
Y571491D02*
D03*
X360070Y521491D02*
D03*
X365070Y511491D02*
D03*
Y491491D02*
D03*
Y451490D02*
D03*
Y431490D02*
D03*
Y371490D02*
D03*
Y351490D02*
D03*
X355070Y591491D02*
D03*
X350070Y521491D02*
D03*
X355070Y451490D02*
D03*
X345070Y591491D02*
D03*
X340070Y521491D02*
D03*
X345070Y451490D02*
D03*
X320070Y601491D02*
D03*
X315070Y671491D02*
D03*
X310070Y601491D02*
D03*
X315070Y531491D02*
D03*
X310070Y521491D02*
D03*
X315070Y451490D02*
D03*
X310070Y381490D02*
D03*
X305070Y671491D02*
D03*
X300070Y601491D02*
D03*
X305070Y591491D02*
D03*
Y531491D02*
D03*
X300070Y521491D02*
D03*
X305070Y451490D02*
D03*
X300070Y381490D02*
D03*
X290070Y721491D02*
D03*
Y701491D02*
D03*
X295070Y671491D02*
D03*
X290070Y661490D02*
D03*
Y641490D02*
D03*
Y601491D02*
D03*
X295070Y591491D02*
D03*
X290070Y581491D02*
D03*
X295070Y571491D02*
D03*
X290070Y561491D02*
D03*
X295070Y531491D02*
D03*
X290070Y521491D02*
D03*
Y501491D02*
D03*
X295070Y451490D02*
D03*
X290070Y441490D02*
D03*
Y421490D02*
D03*
Y381490D02*
D03*
Y361490D02*
D03*
X280070Y721491D02*
D03*
X285070Y711491D02*
D03*
X280070Y701491D02*
D03*
X285070Y671491D02*
D03*
X280070Y661490D02*
D03*
X285070Y651490D02*
D03*
X280070Y641490D02*
D03*
X285070Y631491D02*
D03*
X280070Y601491D02*
D03*
X285070Y591491D02*
D03*
X280070Y581491D02*
D03*
X285070Y571491D02*
D03*
X280070Y561491D02*
D03*
X285070Y531491D02*
D03*
X280070Y521491D02*
D03*
X285070Y511491D02*
D03*
X280070Y501491D02*
D03*
X285070Y491491D02*
D03*
Y451490D02*
D03*
X280070Y441490D02*
D03*
X285070Y431490D02*
D03*
X280070Y421490D02*
D03*
Y381490D02*
D03*
X285070Y371490D02*
D03*
X280070Y361490D02*
D03*
X285070Y351490D02*
D03*
X270070Y721491D02*
D03*
X275070Y711491D02*
D03*
X270070Y701491D02*
D03*
X275070Y671491D02*
D03*
X270070Y661490D02*
D03*
X275070Y651490D02*
D03*
X270070Y641490D02*
D03*
X275070Y631491D02*
D03*
X270070Y601491D02*
D03*
X275070Y591491D02*
D03*
X270070Y581491D02*
D03*
X275070Y571491D02*
D03*
X270070Y561491D02*
D03*
X275070Y531491D02*
D03*
X270070Y521491D02*
D03*
X275070Y511491D02*
D03*
X270070Y501491D02*
D03*
X275070Y491491D02*
D03*
Y451490D02*
D03*
X270070Y441490D02*
D03*
X275070Y431490D02*
D03*
X270070Y421490D02*
D03*
Y381490D02*
D03*
X275070Y371490D02*
D03*
X270070Y361490D02*
D03*
X275070Y351490D02*
D03*
X265070Y671491D02*
D03*
X260070Y601491D02*
D03*
X265070Y591491D02*
D03*
Y531491D02*
D03*
X260070Y521491D02*
D03*
X265070Y451490D02*
D03*
X260070Y381490D02*
D03*
X255070Y671491D02*
D03*
X250070Y601491D02*
D03*
X255070Y591491D02*
D03*
Y531491D02*
D03*
X250070Y521491D02*
D03*
X255070Y451490D02*
D03*
X250070Y381490D02*
D03*
X245070Y671491D02*
D03*
Y451490D02*
D03*
X220070Y681491D02*
D03*
X225070Y671491D02*
D03*
Y611491D02*
D03*
X220070Y601491D02*
D03*
X225070Y531491D02*
D03*
X220070Y521491D02*
D03*
Y461490D02*
D03*
X225070Y451490D02*
D03*
Y391490D02*
D03*
X220070Y381490D02*
D03*
X210070Y681491D02*
D03*
X215070Y671491D02*
D03*
Y611491D02*
D03*
X210070Y601491D02*
D03*
X215070Y591491D02*
D03*
Y531491D02*
D03*
X210070Y521491D02*
D03*
Y461490D02*
D03*
X215070Y451490D02*
D03*
Y391490D02*
D03*
X210070Y381490D02*
D03*
X200070Y721491D02*
D03*
Y701491D02*
D03*
Y681491D02*
D03*
X205070Y671491D02*
D03*
X200070Y661490D02*
D03*
Y641490D02*
D03*
X205070Y611491D02*
D03*
X200070Y601491D02*
D03*
X205070Y591491D02*
D03*
X200070Y581491D02*
D03*
Y561491D02*
D03*
X205070Y531491D02*
D03*
X200070Y521491D02*
D03*
Y501491D02*
D03*
Y461490D02*
D03*
X205070Y451490D02*
D03*
X200070Y441490D02*
D03*
Y421490D02*
D03*
X205070Y391490D02*
D03*
X200070Y381490D02*
D03*
Y361490D02*
D03*
X190070Y721491D02*
D03*
X195070Y711491D02*
D03*
X190070Y701491D02*
D03*
Y681491D02*
D03*
X195070Y671491D02*
D03*
X190070Y661490D02*
D03*
X195070Y651490D02*
D03*
X190070Y641490D02*
D03*
X195070Y631491D02*
D03*
Y611491D02*
D03*
X190070Y601491D02*
D03*
X195070Y591491D02*
D03*
X190070Y581491D02*
D03*
X195070Y571491D02*
D03*
X190070Y561491D02*
D03*
X195070Y531491D02*
D03*
X190070Y521491D02*
D03*
X195070Y511491D02*
D03*
X190070Y501491D02*
D03*
X195070Y491491D02*
D03*
X190070Y461490D02*
D03*
X195070Y451490D02*
D03*
X190070Y441490D02*
D03*
X195070Y431490D02*
D03*
X190070Y421490D02*
D03*
X195070Y391490D02*
D03*
X190070Y381490D02*
D03*
X195070Y371490D02*
D03*
X190070Y361490D02*
D03*
X195070Y351490D02*
D03*
X180070Y721491D02*
D03*
X185070Y711491D02*
D03*
X180070Y701491D02*
D03*
Y681491D02*
D03*
X185070Y671491D02*
D03*
X180070Y661490D02*
D03*
X185070Y651490D02*
D03*
X180070Y641490D02*
D03*
X185070Y631491D02*
D03*
Y611491D02*
D03*
X180070Y601491D02*
D03*
X185070Y591491D02*
D03*
X180070Y581491D02*
D03*
X185070Y571491D02*
D03*
X180070Y561491D02*
D03*
X185070Y531491D02*
D03*
X180070Y521491D02*
D03*
X185070Y511491D02*
D03*
X180070Y501491D02*
D03*
X185070Y491491D02*
D03*
X180070Y461490D02*
D03*
X185070Y451490D02*
D03*
X180070Y441490D02*
D03*
X185070Y431490D02*
D03*
X180070Y421490D02*
D03*
X185070Y391490D02*
D03*
X180070Y381490D02*
D03*
X185070Y371490D02*
D03*
X180070Y361490D02*
D03*
X185070Y351490D02*
D03*
X170070Y681491D02*
D03*
X175070Y671491D02*
D03*
Y611491D02*
D03*
X170070Y601491D02*
D03*
X175070Y591491D02*
D03*
Y571491D02*
D03*
Y531491D02*
D03*
X170070Y521491D02*
D03*
Y461490D02*
D03*
X175070Y451490D02*
D03*
Y391490D02*
D03*
X170070Y381490D02*
D03*
X175070Y371490D02*
D03*
Y351490D02*
D03*
X160070Y681491D02*
D03*
X165070Y671491D02*
D03*
Y611491D02*
D03*
X160070Y601491D02*
D03*
X165070Y591491D02*
D03*
Y531491D02*
D03*
X160070Y521491D02*
D03*
Y461490D02*
D03*
X165070Y451490D02*
D03*
Y391490D02*
D03*
X160070Y381490D02*
D03*
X150070Y681491D02*
D03*
X155070Y671491D02*
D03*
Y611491D02*
D03*
X150070Y601491D02*
D03*
X155070Y531491D02*
D03*
X150070Y521491D02*
D03*
Y461490D02*
D03*
X155070Y451490D02*
D03*
Y391490D02*
D03*
X150070Y381490D02*
D03*
X135070Y691491D02*
D03*
X130070Y681491D02*
D03*
Y601491D02*
D03*
Y541491D02*
D03*
Y521491D02*
D03*
Y461490D02*
D03*
Y401490D02*
D03*
Y381490D02*
D03*
X125070Y691491D02*
D03*
X120070Y681491D02*
D03*
X125070Y671491D02*
D03*
X120070Y621491D02*
D03*
X125070Y611491D02*
D03*
X120070Y601491D02*
D03*
Y541491D02*
D03*
X125070Y531491D02*
D03*
X120070Y521491D02*
D03*
X125070Y471490D02*
D03*
X120070Y461490D02*
D03*
X125070Y451490D02*
D03*
X120070Y401490D02*
D03*
X125070Y391490D02*
D03*
X120070Y381490D02*
D03*
X115070Y691491D02*
D03*
X110070Y681491D02*
D03*
X115070Y671491D02*
D03*
X110070Y621491D02*
D03*
X115070Y611491D02*
D03*
X110070Y601491D02*
D03*
X115070Y591491D02*
D03*
X110070Y541491D02*
D03*
X115070Y531491D02*
D03*
X110070Y521491D02*
D03*
X115070Y471490D02*
D03*
X110070Y461490D02*
D03*
X115070Y451490D02*
D03*
X110070Y401490D02*
D03*
X115070Y391490D02*
D03*
X110070Y381490D02*
D03*
X647700Y230440D02*
D03*
X482768Y223343D02*
D03*
X647700Y459740D02*
D03*
X704850Y571546D02*
D03*
X647700Y286893D02*
D03*
Y431800D02*
D03*
Y749300D02*
D03*
Y652780D02*
D03*
Y557546D02*
D03*
X648011Y626038D02*
D03*
X681990Y723900D02*
D03*
X689610Y701040D02*
D03*
X701130Y626038D02*
D03*
X740071Y304800D02*
D03*
X755650D02*
D03*
Y320040D02*
D03*
X228600Y263438D02*
D03*
Y114300D02*
D03*
X729336Y331470D02*
D03*
X538950D02*
D03*
X704850Y348810D02*
D03*
X559450D02*
D03*
X712630Y607538D02*
D03*
X546450Y585470D02*
D03*
X681990Y217170D02*
D03*
X689610Y150485D02*
D03*
X697230Y243117D02*
D03*
X531410Y153290D02*
D03*
X721380Y134620D02*
D03*
X729336Y115570D02*
D03*
X721380Y637688D02*
D03*
X704850Y128270D02*
D03*
X712630Y121920D02*
D03*
X712630Y588538D02*
D03*
X729336Y560070D02*
D03*
X596900Y171988D02*
D03*
X559900Y172426D02*
D03*
X431518Y162000D02*
D03*
X407670Y155500D02*
D03*
Y168500D02*
D03*
Y142462D02*
D03*
X431518Y181500D02*
D03*
X398780Y175000D02*
D03*
X462218Y98870D02*
D03*
X449518D02*
D03*
X160020Y303530D02*
D03*
Y320040D02*
D03*
X517650Y348810D02*
D03*
X526320D02*
D03*
X491640D02*
D03*
X449313Y286815D02*
D03*
X543560Y286893D02*
D03*
X462280Y256540D02*
D03*
X421018Y274320D02*
D03*
X551717D02*
D03*
X429820Y203150D02*
D03*
X510540D02*
D03*
X421018Y252462D02*
D03*
Y115570D02*
D03*
X398780Y216993D02*
D03*
X407670Y243117D02*
D03*
X526320Y640311D02*
D03*
Y496311D02*
D03*
X491640Y718820D02*
D03*
Y574040D02*
D03*
Y429260D02*
D03*
X517479Y574040D02*
D03*
X517650Y718040D02*
D03*
Y430040D02*
D03*
X538898Y650806D02*
D03*
Y362806D02*
D03*
Y506806D02*
D03*
X585450Y532383D02*
D03*
X572450Y596020D02*
D03*
Y524020D02*
D03*
X611450Y548349D02*
D03*
X559450Y637540D02*
D03*
X559450Y576580D02*
D03*
X585450Y604383D02*
D03*
X546450Y431800D02*
D03*
Y718820D02*
D03*
X611450Y620349D02*
D03*
X598450Y540530D02*
D03*
Y612530D02*
D03*
X559450Y431800D02*
D03*
X559450Y495300D02*
D03*
X585450Y676383D02*
D03*
X611450Y404349D02*
D03*
X598450Y396530D02*
D03*
X585450Y388383D02*
D03*
X572450Y380020D02*
D03*
X611450Y692349D02*
D03*
X598450Y684530D02*
D03*
X572450Y668020D02*
D03*
Y452020D02*
D03*
X585450Y460383D02*
D03*
X598450Y468530D02*
D03*
X611450Y476349D02*
D03*
Y765629D02*
D03*
X598450Y757810D02*
D03*
X585450Y749663D02*
D03*
X572450Y741300D02*
D03*
D86*
X141000Y674340D02*
X183960Y631380D01*
X279400Y535940D01*
M02*
