G04*
G04 #@! TF.GenerationSoftware,Altium Limited,Altium Designer,24.1.2 (44)*
G04*
G04 Layer_Color=16711935*
%FSLAX44Y44*%
%MOMM*%
G71*
G04*
G04 #@! TF.SameCoordinates,5A935687-884A-4F64-8E33-7EEF87A7B93E*
G04*
G04*
G04 #@! TF.FilePolarity,Positive*
G04*
G01*
G75*
%ADD19C,0.2540*%
D19*
X855000Y500497D02*
X854772Y503102D01*
X854096Y505628D01*
X852991Y507997D01*
X851491Y510139D01*
X849642Y511988D01*
X847500Y513488D01*
X845130Y514593D01*
X842605Y515269D01*
X840000Y515497D01*
X838000Y-5000D02*
X840655Y-4791D01*
X843245Y-4171D01*
X845707Y-3153D01*
X847979Y-1763D01*
X850006Y-36D01*
X851739Y1987D01*
X853134Y4256D01*
X854158Y6715D01*
X854785Y9303D01*
X855000Y11958D01*
X12000Y855000D02*
X9347Y854792D01*
X6758Y854172D01*
X4298Y853156D01*
X2027Y851768D01*
X0Y850042D01*
X-1732Y848022D01*
X-3128Y845755D01*
X-4153Y843299D01*
X-4782Y840713D01*
X-5000Y838060D01*
X-5000Y12000D02*
X-4792Y9347D01*
X-4172Y6758D01*
X-3155Y4298D01*
X-1767Y2027D01*
X-42Y0D01*
X1979Y-1732D01*
X4245Y-3128D01*
X6701Y-4153D01*
X9288Y-4782D01*
X11940Y-5000D01*
X855000Y838000D02*
X854792Y840654D01*
X854172Y843242D01*
X853156Y845702D01*
X851768Y847973D01*
X850042Y850000D01*
X848022Y851732D01*
X845755Y853128D01*
X843299Y854153D01*
X840713Y854782D01*
X838060Y855000D01*
X840000Y668057D02*
X842600Y668284D01*
X845122Y668959D01*
X847488Y670060D01*
X849627Y671554D01*
X851475Y673397D01*
X852976Y675532D01*
X854084Y677895D01*
X854766Y680415D01*
X855000Y683014D01*
X828860Y668057D02*
X840000D01*
X855000Y12000D02*
Y500497D01*
X828860Y515497D02*
Y668057D01*
X12000Y855000D02*
X838000D01*
X12000Y-5000D02*
X838000D01*
X855000Y683057D02*
Y838000D01*
X-5000Y12000D02*
Y838000D01*
X828860Y515497D02*
X840000D01*
M02*
