G04*
G04 #@! TF.GenerationSoftware,Altium Limited,Altium Designer,25.8.1 (18)*
G04*
G04 Layer_Color=8388736*
%FSLAX44Y44*%
%MOMM*%
G71*
G04*
G04 #@! TF.SameCoordinates,FED8D01D-8D25-4793-B94F-4791862208F0*
G04*
G04*
G04 #@! TF.FilePolarity,Negative*
G04*
G01*
G75*
%ADD21R,1.0500X1.0500*%
%ADD29R,0.9500X0.9000*%
%ADD32R,1.2696X1.3462*%
%ADD37R,1.7018X0.8128*%
%ADD42R,0.5080X0.4834*%
%ADD43R,1.1355X0.4834*%
%ADD44C,1.2700*%
%ADD45R,0.4500X1.9000*%
%ADD46R,1.0032X0.9032*%
%ADD47R,2.4455X0.7325*%
%ADD48R,2.4455X3.2725*%
%ADD49R,0.9032X1.0032*%
%ADD50R,2.5032X3.0032*%
%ADD51O,2.0032X0.8032*%
%ADD52R,1.9796X2.4622*%
%ADD53R,1.1532X1.1032*%
%ADD54R,0.5100X1.6600*%
%ADD55O,0.8032X2.0032*%
%ADD56R,2.5032X2.4892*%
%ADD57R,2.4622X1.9796*%
%ADD58O,1.4000X0.4500*%
%ADD59R,0.8032X1.2032*%
%ADD60R,3.3020X2.4130*%
%ADD61R,1.0032X0.9032*%
%ADD62C,1.7032*%
%ADD63R,3.5032X3.3532*%
%ADD64R,0.8032X1.1032*%
%ADD65R,35.0520X39.6240*%
%ADD66C,1.0032*%
%ADD67C,6.0000*%
%ADD68C,6.2032*%
%ADD69C,0.5000*%
%ADD70C,0.9032*%
%ADD71C,0.8040*%
%ADD72C,0.3000*%
G36*
X480032Y850230D02*
X480820Y850077D01*
X481910Y849942D01*
X484999Y849725D01*
X498017Y849500D01*
Y836800D01*
X497020Y836763D01*
X496153Y836653D01*
X495415Y836468D01*
X494807Y836210D01*
X494328Y835879D01*
X493979Y835473D01*
X493760Y834994D01*
X493671Y834441D01*
X493712Y833815D01*
X493882Y833115D01*
X479546Y850402D01*
X480032Y850230D01*
D02*
G37*
G36*
X190738Y293598D02*
X191735Y293274D01*
X192678Y292814D01*
X193547Y292227D01*
X194327Y291525D01*
X195001Y290722D01*
X195557Y289832D01*
X195984Y288874D01*
X196273Y287866D01*
X196419Y286827D01*
Y285778D01*
X196273Y284739D01*
X195984Y283731D01*
X195557Y282773D01*
X195001Y281884D01*
X194327Y281080D01*
X193547Y280378D01*
X192678Y279792D01*
X191735Y279332D01*
X190738Y279008D01*
X190221Y278916D01*
X190221D01*
X190221Y293689D01*
X190738Y293598D01*
D02*
G37*
G36*
X187619Y278916D02*
X187102Y279008D01*
X186105Y279332D01*
X185162Y279792D01*
X184293Y280378D01*
X183513Y281080D01*
X182839Y281884D01*
X182283Y282773D01*
X181856Y283731D01*
X181567Y284739D01*
X181421Y285778D01*
Y286827D01*
X181567Y287866D01*
X181856Y288874D01*
X182283Y289832D01*
X182839Y290722D01*
X183513Y291525D01*
X184293Y292227D01*
X185162Y292814D01*
X186105Y293274D01*
X187102Y293598D01*
X187619Y293689D01*
X187619D01*
X187619Y278916D01*
D02*
G37*
G36*
X13200Y272094D02*
X10994D01*
X11178Y272848D01*
X13200Y272094D01*
D02*
G37*
G36*
X6654Y254252D02*
X9612Y242094D01*
X500D01*
X5398Y255238D01*
X500Y272094D01*
X10994D01*
X6654Y254252D01*
D02*
G37*
G36*
X9772Y241437D02*
X9612Y242094D01*
X13200D01*
X9772Y241437D01*
D02*
G37*
G36*
X13200Y52095D02*
X10995D01*
X11178Y52849D01*
X13200Y52095D01*
D02*
G37*
G36*
X6654Y34252D02*
X9612Y22095D01*
X13200D01*
X9771Y21438D01*
X9612Y22095D01*
X500D01*
X5398Y35238D01*
X500Y52095D01*
X10995D01*
X6654Y34252D01*
D02*
G37*
G36*
X839478Y51391D02*
X836800D01*
X839301Y52120D01*
X839478Y51391D01*
D02*
G37*
G36*
X844633Y35729D02*
X849500Y21391D01*
X839972D01*
X839803Y20696D01*
X836800Y21391D01*
X839972D01*
X843374Y35376D01*
X839478Y51391D01*
X849500D01*
X844633Y35729D01*
D02*
G37*
G36*
X849500Y241391D02*
X840565D01*
X844400Y253855D01*
X849500Y241391D01*
D02*
G37*
G36*
X840429Y240951D02*
X836800Y241391D01*
X840565D01*
X840429Y240951D01*
D02*
G37*
G36*
X840088Y271391D02*
X849500D01*
X844453Y257208D01*
X840088Y271391D01*
X836800D01*
X839946Y271854D01*
X840088Y271391D01*
D02*
G37*
G36*
X849500Y351390D02*
X841088D01*
X843992Y363331D01*
X849500Y351390D01*
D02*
G37*
G36*
X840949Y350818D02*
X836800Y351390D01*
X841088D01*
X840949Y350818D01*
D02*
G37*
G36*
X841069Y826646D02*
X849500D01*
X843994Y814624D01*
X841069Y826646D01*
X836800D01*
X840930Y827221D01*
X841069Y826646D01*
D02*
G37*
G36*
X828017Y840324D02*
X828680Y840163D01*
X828017Y836800D01*
Y840324D01*
X815570Y843352D01*
X798017Y839082D01*
Y849500D01*
X814684Y844609D01*
X828017Y849500D01*
Y840324D01*
D02*
G37*
G36*
X798017Y836800D02*
X797266Y838899D01*
X798017Y839082D01*
Y836800D01*
D02*
G37*
D21*
X449518Y98870D02*
D03*
X462218D02*
D03*
X436818D02*
D03*
D29*
X721380Y571546D02*
D03*
Y681266D02*
D03*
Y645038D02*
D03*
Y607538D02*
D03*
D32*
X252732Y291099D02*
D03*
X269582D02*
D03*
X520696Y297180D02*
D03*
X543560D02*
D03*
X292446Y291099D02*
D03*
X291179Y177100D02*
D03*
X268314D02*
D03*
X229868Y291099D02*
D03*
D37*
X750955Y554252D02*
D03*
Y641752D02*
D03*
Y629252D02*
D03*
Y616752D02*
D03*
Y591752D02*
D03*
Y579252D02*
D03*
Y604252D02*
D03*
Y566752D02*
D03*
Y541752D02*
D03*
D42*
X835914Y13585D02*
D03*
X14540Y835613D02*
D03*
X836129Y836006D02*
D03*
D43*
X12898Y15189D02*
D03*
D44*
X817010Y515497D02*
X817307Y512860D01*
X818184Y510356D01*
X819595Y508109D01*
X821472Y506232D01*
X823719Y504821D01*
X826223Y503944D01*
X828860Y503647D01*
Y679908D02*
X826223Y679610D01*
X823719Y678734D01*
X821472Y677322D01*
X819595Y675446D01*
X818184Y673199D01*
X817307Y670694D01*
X817010Y668057D01*
X6850Y12000D02*
X7540Y9425D01*
X9425Y7540D01*
X12000Y6850D01*
X843150Y838000D02*
X842460Y840575D01*
X840575Y842460D01*
X838000Y843150D01*
X12000Y843150D02*
X9425Y842460D01*
X7540Y840575D01*
X6850Y838000D01*
X840000Y679908D02*
X842227Y680830D01*
X843150Y683057D01*
X838000Y6850D02*
X840575Y7540D01*
X842460Y9425D01*
X843150Y12000D01*
X843150Y500497D02*
X842227Y502724D01*
X840000Y503647D01*
X12000Y843150D02*
X28018D01*
X828860Y503647D02*
X840000D01*
X817010Y515497D02*
Y523163D01*
X843150Y12042D02*
Y21391D01*
X6850Y12000D02*
Y22095D01*
X828860Y679908D02*
X840000D01*
X12059Y6850D02*
X24745D01*
X843150Y683099D02*
Y696646D01*
X6850Y22095D02*
Y32095D01*
X28018Y843150D02*
X38018D01*
X24745Y6850D02*
X34745D01*
X817010Y573163D02*
Y583163D01*
Y563163D02*
Y573163D01*
Y553163D02*
Y563163D01*
Y523163D02*
Y533163D01*
X843150Y21391D02*
Y31391D01*
X843150Y706646D02*
Y716646D01*
Y696646D02*
Y706646D01*
X6850Y32095D02*
Y42095D01*
X38018Y843150D02*
X48018D01*
X114745Y6850D02*
X124745D01*
X34745D02*
X44745D01*
X817010Y613163D02*
Y623163D01*
Y603163D02*
Y613163D01*
Y583163D02*
Y593163D01*
Y543163D02*
Y553163D01*
Y533163D02*
Y543163D01*
X843150Y31391D02*
Y41391D01*
X843150Y726646D02*
Y736646D01*
Y716646D02*
Y726646D01*
X6850Y42095D02*
Y52095D01*
X48018Y843150D02*
X58018D01*
X134745Y6850D02*
X144745D01*
X124745D02*
X134745D01*
X104745D02*
X114745D01*
X44745D02*
X54745D01*
X817010Y623163D02*
Y633163D01*
Y593163D02*
Y603163D01*
X843150Y41391D02*
Y51391D01*
X843150Y736646D02*
Y746646D01*
X6850Y52095D02*
Y62095D01*
X58018Y843150D02*
X68018D01*
X164745Y6850D02*
X174745D01*
X144745D02*
X154745D01*
X54745D02*
X64745D01*
X817010Y643163D02*
Y653163D01*
Y633163D02*
Y643163D01*
X843150Y51391D02*
Y61391D01*
X843150Y746646D02*
Y756646D01*
X6850Y62095D02*
Y72095D01*
X68018Y843150D02*
X78018D01*
X194745Y6850D02*
X204745D01*
X174745D02*
X184745D01*
X154745D02*
X164745D01*
X64745D02*
X74745D01*
X817010Y653163D02*
Y668057D01*
X843150Y61391D02*
Y71391D01*
X843150Y756646D02*
Y766646D01*
X6850Y72095D02*
Y82095D01*
X78018Y843150D02*
X88018D01*
X254745Y6850D02*
X264745D01*
X234745D02*
X244745D01*
X204745D02*
X214745D01*
X184745D02*
X194745D01*
X74745D02*
X84745D01*
X843150Y71391D02*
Y81391D01*
X843150Y766646D02*
Y776646D01*
X6850Y82095D02*
Y92094D01*
X88018Y843150D02*
X98018D01*
X354745Y6850D02*
X364745D01*
X344745D02*
X354745D01*
X264745D02*
X274745D01*
X244745D02*
X254745D01*
X214745D02*
X224745D01*
X84745D02*
X94745D01*
X843150Y81391D02*
Y91391D01*
X843150Y776646D02*
Y786646D01*
X6850Y92094D02*
Y102094D01*
X98018Y843150D02*
X108018D01*
X364745Y6850D02*
X374745D01*
X274745D02*
X284745D01*
X224745D02*
X234745D01*
X94745D02*
X104745D01*
X843150Y91391D02*
Y101391D01*
X843150Y786646D02*
Y796646D01*
X6850Y102094D02*
Y112094D01*
X108018Y843150D02*
X118018D01*
X374745Y6850D02*
X384745D01*
X284745D02*
X294745D01*
X843150Y101391D02*
Y111391D01*
X843150Y796646D02*
Y806646D01*
X6850Y112094D02*
Y122094D01*
X118018Y843150D02*
X128018D01*
X394745Y6850D02*
X404745D01*
X384745D02*
X394745D01*
X294745D02*
X304745D01*
X843150Y111391D02*
Y121391D01*
X843150Y806646D02*
Y816646D01*
X6850Y122094D02*
Y132094D01*
X128018Y843150D02*
X138018D01*
X444744Y6850D02*
X454744D01*
X404745D02*
X425000D01*
X314745D02*
X324745D01*
X304745D02*
X314745D01*
X843150Y121391D02*
Y131391D01*
X843150Y816646D02*
Y826646D01*
X6850Y132094D02*
Y142094D01*
X138018Y843150D02*
X148018D01*
X484744Y6850D02*
X494744D01*
X454744D02*
X464744D01*
X425000D02*
X444744D01*
X324745D02*
X334745D01*
X843150Y131391D02*
Y141391D01*
X843150Y826646D02*
Y838000D01*
X6850Y142094D02*
Y152094D01*
X148018Y843150D02*
X158018D01*
X504744Y6850D02*
X514744D01*
X494744D02*
X504744D01*
X464744D02*
X474744D01*
X334745D02*
X344745D01*
X843150Y141391D02*
Y151391D01*
X6850Y152094D02*
Y162094D01*
X158018Y843150D02*
X168018D01*
X594744Y6850D02*
X604744D01*
X524744D02*
X534744D01*
X514744D02*
X524744D01*
X474744D02*
X484744D01*
X843150Y151391D02*
Y161391D01*
X6850Y162094D02*
Y172094D01*
X168018Y843150D02*
X178018D01*
X614744Y6850D02*
X624744D01*
X604744D02*
X614744D01*
X584744D02*
X594744D01*
X554744D02*
X564744D01*
X544744D02*
X554744D01*
X534744D02*
X544744D01*
X843150Y161391D02*
Y171391D01*
X6850Y172094D02*
Y182094D01*
X178018Y843150D02*
X188018D01*
X624744Y6850D02*
X634744D01*
X574744D02*
X584744D01*
X564744D02*
X574744D01*
X843150Y171391D02*
Y181391D01*
X6850Y182094D02*
Y192094D01*
X188018Y843150D02*
X198018D01*
X634744Y6850D02*
X644744D01*
X843150Y181391D02*
Y191391D01*
X6850Y192094D02*
Y202094D01*
X198018Y843150D02*
X208018D01*
X644744Y6850D02*
X654744D01*
X843150Y191391D02*
Y201391D01*
X6850Y332094D02*
Y342094D01*
Y222094D02*
Y232094D01*
Y202094D02*
Y212094D01*
X208018Y843150D02*
X218018D01*
X654744Y6850D02*
X664744D01*
X843150Y271391D02*
Y281391D01*
Y211391D02*
Y221391D01*
Y201391D02*
Y211391D01*
X6850Y342094D02*
Y352094D01*
Y302094D02*
Y312094D01*
Y232094D02*
Y242094D01*
Y212094D02*
Y222094D01*
X218018Y843150D02*
X228018D01*
X664744Y6850D02*
X674744D01*
X843150Y281391D02*
Y291391D01*
Y251391D02*
Y261391D01*
Y241391D02*
Y251391D01*
Y231391D02*
Y241391D01*
Y221391D02*
Y231391D01*
X6850Y352094D02*
Y362094D01*
Y322094D02*
Y332094D01*
Y312094D02*
Y322094D01*
Y292094D02*
Y302094D01*
Y282094D02*
Y292094D01*
Y272094D02*
Y282094D01*
Y262094D02*
Y272094D01*
Y252094D02*
Y262094D01*
Y242094D02*
Y252094D01*
X228018Y843150D02*
X238018D01*
X674744Y6850D02*
X684744D01*
X843150Y291391D02*
Y301391D01*
Y261391D02*
Y271391D01*
X6850Y362094D02*
Y372094D01*
X238018Y843150D02*
X248018D01*
X684744Y6850D02*
X694744D01*
X843150Y301391D02*
Y311391D01*
X6850Y462094D02*
Y472094D01*
Y412094D02*
Y422094D01*
Y402094D02*
Y412094D01*
Y382094D02*
Y392094D01*
Y372094D02*
Y382094D01*
X248018Y843150D02*
X258018D01*
X694744Y6850D02*
X704744D01*
X843150Y311391D02*
Y321390D01*
X6850Y502094D02*
Y512094D01*
Y472094D02*
Y482094D01*
Y432094D02*
Y442094D01*
Y422094D02*
Y432094D01*
Y392094D02*
Y402094D01*
X258018Y843150D02*
X268018D01*
X704744Y6850D02*
X714744D01*
X843150Y321390D02*
Y331390D01*
X6850Y542094D02*
Y552094D01*
Y532094D02*
Y542094D01*
Y512094D02*
Y522094D01*
Y492094D02*
Y502094D01*
Y482094D02*
Y492094D01*
Y442094D02*
Y452094D01*
X268018Y843150D02*
X278018D01*
X714744Y6850D02*
X724744D01*
X843150Y331390D02*
Y341390D01*
X6850Y602094D02*
Y612094D01*
Y582094D02*
Y592094D01*
Y562094D02*
Y572094D01*
Y552094D02*
Y562094D01*
Y522094D02*
Y532094D01*
Y452094D02*
Y462094D01*
X278018Y843150D02*
X288018D01*
X724744Y6850D02*
X734744D01*
X843150Y341390D02*
Y351390D01*
X6850Y612094D02*
Y622094D01*
Y592094D02*
Y602094D01*
Y572094D02*
Y582094D01*
X288018Y843150D02*
X298018D01*
X734744Y6850D02*
X744744D01*
X843150Y351390D02*
Y361390D01*
X6850Y652093D02*
Y662093D01*
Y632094D02*
Y642093D01*
Y622094D02*
Y632094D01*
X298018Y843150D02*
X308018D01*
X744744Y6850D02*
X754744D01*
X843150Y361390D02*
Y371390D01*
X6850Y662093D02*
Y672093D01*
Y642093D02*
Y652093D01*
X308018Y843150D02*
X318018D01*
X754744Y6850D02*
X764744D01*
X843150Y371390D02*
Y381390D01*
X6850Y672093D02*
Y682093D01*
X318018Y843150D02*
X328018D01*
X764744Y6850D02*
X774744D01*
X843150Y381390D02*
Y391390D01*
X6850Y682093D02*
Y692093D01*
X328018Y843150D02*
X338018D01*
X774744Y6850D02*
X784744D01*
X843150Y391390D02*
Y401390D01*
X6850Y692093D02*
Y702093D01*
X338018Y843150D02*
X348018D01*
X784744Y6850D02*
X794744D01*
X843150Y401390D02*
Y411390D01*
X6850Y702093D02*
Y712093D01*
X348018Y843150D02*
X358018D01*
X794744Y6850D02*
X804744D01*
X843150Y411390D02*
Y421390D01*
X6850Y712093D02*
Y722093D01*
X358018Y843150D02*
X368018D01*
X804744Y6850D02*
X814744D01*
X843150Y421390D02*
Y431390D01*
X6850Y722093D02*
Y732093D01*
X368018Y843150D02*
X378018D01*
X824744Y6850D02*
X838000D01*
X814744D02*
X824744D01*
X843150Y431390D02*
Y441390D01*
X6850Y732093D02*
Y742093D01*
X378018Y843150D02*
X388018D01*
X843150Y441390D02*
Y451390D01*
X6850Y742093D02*
Y752093D01*
X388018Y843150D02*
X398018D01*
X843150Y451390D02*
Y461390D01*
X6850Y752093D02*
Y762093D01*
X438018Y843150D02*
X448018D01*
X398018D02*
X408018D01*
X843150Y461390D02*
Y471390D01*
X6850Y762093D02*
Y772093D01*
X465300Y843150D02*
X474048D01*
X448018D02*
X456552D01*
X408018D02*
X418018D01*
X843150Y471390D02*
Y481390D01*
X6850Y772093D02*
Y782093D01*
X474048Y843150D02*
X488018D01*
X456552D02*
X465300D01*
X418018D02*
X428018D01*
X843150Y481390D02*
Y491390D01*
X6850Y782093D02*
Y792093D01*
X488018Y843150D02*
X498017D01*
X428018D02*
X438018D01*
X843150Y491390D02*
Y500497D01*
X6850Y792093D02*
Y802093D01*
X498017Y843150D02*
X508017D01*
X6850Y802093D02*
Y812093D01*
X508017Y843150D02*
X518017D01*
X6850Y812093D02*
Y822093D01*
X518017Y843150D02*
X528017D01*
X6850Y822093D02*
Y837941D01*
X528017Y843150D02*
X538017D01*
X548017D01*
X558017D01*
X568017D01*
X578017D01*
X588017D01*
X598017D01*
X608017D01*
X618017D01*
X628017D01*
X638017D01*
X648017D01*
X658017D01*
X668017D01*
X678017D01*
X688017D01*
X698017D01*
X708017D01*
X718017D01*
X728017D01*
X738017D01*
X748017D01*
X758017D01*
X768017D01*
X778017D01*
X788017D01*
X798017D01*
X808017D01*
X818017D01*
X828017D01*
X837941D01*
D45*
X566250Y233807D02*
D03*
X578950D02*
D03*
X547200D02*
D03*
X553550D02*
D03*
X572600D02*
D03*
X585300D02*
D03*
X559900D02*
D03*
X540850D02*
D03*
Y182753D02*
D03*
X547200D02*
D03*
X553550D02*
D03*
X559900D02*
D03*
X572600D02*
D03*
X578950D02*
D03*
X585300D02*
D03*
X566250D02*
D03*
D46*
X475018Y255650D02*
D03*
X508980Y648760D02*
D03*
Y504760D02*
D03*
X244600Y161100D02*
D03*
X596900Y144020D02*
D03*
X491640Y360760D02*
D03*
X508980D02*
D03*
X491640Y504760D02*
D03*
Y648760D02*
D03*
Y693240D02*
D03*
Y709240D02*
D03*
Y664760D02*
D03*
Y549240D02*
D03*
Y565240D02*
D03*
Y520760D02*
D03*
Y405240D02*
D03*
Y421240D02*
D03*
X526320Y376760D02*
D03*
Y360760D02*
D03*
X508980Y376760D02*
D03*
X491640D02*
D03*
X521970Y159650D02*
D03*
Y143650D02*
D03*
X502920Y160020D02*
D03*
Y144020D02*
D03*
X540850Y160020D02*
D03*
Y144020D02*
D03*
X559900Y160020D02*
D03*
Y144020D02*
D03*
X578950D02*
D03*
Y160020D02*
D03*
X596900D02*
D03*
X244600Y177100D02*
D03*
X228600D02*
D03*
Y161100D02*
D03*
X526320Y504760D02*
D03*
Y648760D02*
D03*
X508980Y693240D02*
D03*
Y549240D02*
D03*
Y405240D02*
D03*
X526320D02*
D03*
Y693240D02*
D03*
X475018Y239650D02*
D03*
X508980Y565240D02*
D03*
Y421240D02*
D03*
X526320Y709240D02*
D03*
Y520760D02*
D03*
Y421240D02*
D03*
Y664760D02*
D03*
X508980Y520760D02*
D03*
Y664760D02*
D03*
Y709240D02*
D03*
D47*
X381254Y185207D02*
D03*
Y172507D02*
D03*
Y159806D02*
D03*
Y210606D02*
D03*
Y197906D02*
D03*
D48*
X321047Y185207D02*
D03*
D49*
X457108Y236767D02*
D03*
X556850Y121920D02*
D03*
X476518D02*
D03*
X519810Y176237D02*
D03*
X287814Y139320D02*
D03*
X110490Y172530D02*
D03*
X327219Y138240D02*
D03*
Y236920D02*
D03*
X441108Y198120D02*
D03*
X510540Y214550D02*
D03*
X494457Y256540D02*
D03*
Y274320D02*
D03*
X620985Y182753D02*
D03*
X604985Y233807D02*
D03*
X407670Y236767D02*
D03*
X423670D02*
D03*
X407670Y198120D02*
D03*
X423670D02*
D03*
X620985Y233807D02*
D03*
X604985Y199771D02*
D03*
X620985D02*
D03*
X604985Y182753D02*
D03*
X594950Y275590D02*
D03*
X578950D02*
D03*
Y256540D02*
D03*
X594950D02*
D03*
X510457Y274320D02*
D03*
X494540Y238760D02*
D03*
X510540D02*
D03*
X510457Y256540D02*
D03*
X526540Y214550D02*
D03*
X437018Y121920D02*
D03*
X421018D02*
D03*
X526540Y196800D02*
D03*
X510540D02*
D03*
X457108Y198120D02*
D03*
X369926Y236920D02*
D03*
X385926D02*
D03*
X343219D02*
D03*
X369926Y138216D02*
D03*
X385926D02*
D03*
X343219Y138240D02*
D03*
X94490Y191811D02*
D03*
X110490D02*
D03*
X94490Y172530D02*
D03*
X244600Y139320D02*
D03*
X228600D02*
D03*
X271814D02*
D03*
X407670Y216993D02*
D03*
X423670D02*
D03*
X545746Y256540D02*
D03*
Y274320D02*
D03*
X502920Y121920D02*
D03*
X174570Y156020D02*
D03*
X158570D02*
D03*
X503810Y176237D02*
D03*
X604985Y216789D02*
D03*
X620985D02*
D03*
X441108Y236767D02*
D03*
X457016Y256540D02*
D03*
X441016D02*
D03*
Y216993D02*
D03*
X457016D02*
D03*
X540850Y121920D02*
D03*
X460518D02*
D03*
X518920D02*
D03*
X529746Y274320D02*
D03*
Y256540D02*
D03*
D50*
X166570Y198161D02*
D03*
D51*
X138320Y204511D02*
D03*
Y191811D02*
D03*
Y217211D02*
D03*
Y179111D02*
D03*
X194820Y217211D02*
D03*
Y204511D02*
D03*
Y191811D02*
D03*
Y179111D02*
D03*
D52*
X334872Y272811D02*
D03*
X188922Y255080D02*
D03*
X144218D02*
D03*
X379576Y272811D02*
D03*
D53*
X696380Y562046D02*
D03*
Y671766D02*
D03*
Y635538D02*
D03*
Y598038D02*
D03*
X721380Y588538D02*
D03*
Y552546D02*
D03*
Y662266D02*
D03*
Y626038D02*
D03*
D54*
X565950Y650806D02*
D03*
Y362806D02*
D03*
Y506806D02*
D03*
X559450D02*
D03*
X598450Y563194D02*
D03*
X598450Y506806D02*
D03*
X611450Y563194D02*
D03*
X546450D02*
D03*
X578950Y506806D02*
D03*
X578950Y563194D02*
D03*
X591950Y506806D02*
D03*
Y563194D02*
D03*
X604950D02*
D03*
X617950Y506806D02*
D03*
X604950D02*
D03*
X617950Y563194D02*
D03*
X585450D02*
D03*
X559450D02*
D03*
X546450Y506806D02*
D03*
X611450D02*
D03*
X552950Y563194D02*
D03*
X572450Y506806D02*
D03*
X572450Y563194D02*
D03*
X585450Y506806D02*
D03*
X565950Y563194D02*
D03*
X552950Y506806D02*
D03*
Y362806D02*
D03*
Y650806D02*
D03*
X565950Y419194D02*
D03*
Y707194D02*
D03*
X546450Y650806D02*
D03*
Y362806D02*
D03*
X559450Y650806D02*
D03*
X617950Y707194D02*
D03*
Y650806D02*
D03*
X604950D02*
D03*
Y707194D02*
D03*
X617950Y419194D02*
D03*
Y362806D02*
D03*
X604950D02*
D03*
Y419194D02*
D03*
X591950Y707194D02*
D03*
Y650806D02*
D03*
Y419194D02*
D03*
X578950Y707194D02*
D03*
X578950Y650806D02*
D03*
X578950Y419194D02*
D03*
X591950Y362806D02*
D03*
X578950D02*
D03*
X546450Y707194D02*
D03*
Y419194D02*
D03*
X559450D02*
D03*
X559450Y362806D02*
D03*
X572450D02*
D03*
X585450D02*
D03*
X598450D02*
D03*
X611450D02*
D03*
X611450Y419194D02*
D03*
X598450D02*
D03*
X585450D02*
D03*
X572450D02*
D03*
X552950D02*
D03*
X572450Y650806D02*
D03*
X585450D02*
D03*
X598450D02*
D03*
X611450D02*
D03*
X611450Y707194D02*
D03*
X598450D02*
D03*
X585450D02*
D03*
X572450D02*
D03*
X559450D02*
D03*
X552950D02*
D03*
D55*
X279746Y263438D02*
D03*
Y206938D02*
D03*
X292446Y263438D02*
D03*
X254347Y206938D02*
D03*
X267047D02*
D03*
X292446D02*
D03*
X254347Y263438D02*
D03*
X267047D02*
D03*
D56*
X94490Y140140D02*
D03*
Y100140D02*
D03*
D57*
X234188Y55436D02*
D03*
X381254Y54166D02*
D03*
Y98870D02*
D03*
X234188Y100140D02*
D03*
D58*
X478018Y162000D02*
D03*
Y168500D02*
D03*
X421018Y149000D02*
D03*
X478018Y142500D02*
D03*
Y181500D02*
D03*
X421018Y155500D02*
D03*
Y168500D02*
D03*
Y175000D02*
D03*
Y181500D02*
D03*
Y162000D02*
D03*
X478018Y175000D02*
D03*
Y155500D02*
D03*
Y149000D02*
D03*
X421018Y142500D02*
D03*
X478018Y136000D02*
D03*
X421018D02*
D03*
D59*
X484518Y196800D02*
D03*
X475018Y222300D02*
D03*
Y196800D02*
D03*
X494018D02*
D03*
Y222300D02*
D03*
D60*
X779955Y516252D02*
D03*
Y667252D02*
D03*
D61*
X526320Y565240D02*
D03*
X526321Y549240D02*
D03*
D62*
X647700Y701040D02*
D03*
Y508000D02*
D03*
Y459740D02*
D03*
Y363220D02*
D03*
Y749300D02*
D03*
Y411480D02*
D03*
Y218440D02*
D03*
Y314960D02*
D03*
Y266700D02*
D03*
Y652780D02*
D03*
Y604520D02*
D03*
Y556260D02*
D03*
D63*
X194070Y100140D02*
D03*
X139070D02*
D03*
D64*
X703221Y701039D02*
D03*
Y723899D02*
D03*
X721380Y723900D02*
D03*
Y701040D02*
D03*
D65*
X279400Y535940D02*
D03*
D66*
X57120Y27252D02*
D03*
X27252Y14880D02*
D03*
X14880Y44748D02*
D03*
X44748Y57120D02*
D03*
X57120Y44748D02*
D03*
X44748Y14880D02*
D03*
X14880Y27252D02*
D03*
X27252Y57120D02*
D03*
Y385120D02*
D03*
X14880Y355252D02*
D03*
X44748Y342880D02*
D03*
X57120Y372748D02*
D03*
X44748Y385120D02*
D03*
X14880Y372748D02*
D03*
X27252Y342880D02*
D03*
X57120Y355252D02*
D03*
X44748Y234880D02*
D03*
X57120Y264748D02*
D03*
X44748Y277120D02*
D03*
X14880Y264748D02*
D03*
X57120Y247252D02*
D03*
X805252Y57120D02*
D03*
X792880Y27252D02*
D03*
X822748Y14880D02*
D03*
X835120Y44748D02*
D03*
X822748Y57120D02*
D03*
X792880Y44748D02*
D03*
X805252Y14880D02*
D03*
X835120Y27252D02*
D03*
X805729Y277120D02*
D03*
X793357Y247252D02*
D03*
X823225Y234880D02*
D03*
Y277120D02*
D03*
X793357Y264748D02*
D03*
X805729Y234880D02*
D03*
X805252Y385120D02*
D03*
X792880Y355252D02*
D03*
X822748Y342880D02*
D03*
Y385120D02*
D03*
X792880Y372748D02*
D03*
X805252Y342880D02*
D03*
Y835120D02*
D03*
X792880Y805252D02*
D03*
X822748Y792880D02*
D03*
X835120Y822748D02*
D03*
X822748Y835120D02*
D03*
X792880Y822748D02*
D03*
X805252Y792880D02*
D03*
X835120Y805252D02*
D03*
X27252Y835120D02*
D03*
X14880Y805252D02*
D03*
X44748Y792880D02*
D03*
X57120Y822748D02*
D03*
X44748Y835120D02*
D03*
X14880Y822748D02*
D03*
X27252Y792880D02*
D03*
X57120Y805252D02*
D03*
D67*
X36000Y36000D02*
D03*
Y256000D02*
D03*
D68*
X425000Y21000D02*
D03*
X36000Y364000D02*
D03*
X814000Y36000D02*
D03*
X814477Y256000D02*
D03*
X814000Y364000D02*
D03*
Y814000D02*
D03*
X36000D02*
D03*
X465300Y824000D02*
D03*
D69*
X27252Y277120D02*
D03*
X14880Y247252D02*
D03*
X27252Y234880D02*
D03*
X835597Y264748D02*
D03*
X835597Y247252D02*
D03*
X835120Y372748D02*
D03*
X835120Y355252D02*
D03*
D70*
X456552Y845120D02*
D03*
X444180Y815252D02*
D03*
X474048Y802880D02*
D03*
X486420Y832748D02*
D03*
X474048Y845120D02*
D03*
X444180Y832748D02*
D03*
X456552Y802880D02*
D03*
X486420Y815252D02*
D03*
D71*
X6474Y792093D02*
D03*
X58018Y843526D02*
D03*
X836499Y679532D02*
D03*
X843526Y686646D02*
D03*
Y696646D02*
D03*
Y706646D02*
D03*
Y716646D02*
D03*
Y726646D02*
D03*
Y736646D02*
D03*
Y746646D02*
D03*
Y756646D02*
D03*
Y766646D02*
D03*
X817946Y513383D02*
D03*
X817652Y523379D02*
D03*
Y533379D02*
D03*
Y543379D02*
D03*
Y553379D02*
D03*
Y563379D02*
D03*
Y573379D02*
D03*
Y583379D02*
D03*
Y593379D02*
D03*
Y603379D02*
D03*
Y613379D02*
D03*
Y623379D02*
D03*
Y633379D02*
D03*
Y643379D02*
D03*
Y653379D02*
D03*
Y663379D02*
D03*
X818883Y673303D02*
D03*
X826770Y679450D02*
D03*
X843375Y501389D02*
D03*
X833728Y504023D02*
D03*
X824072Y505479D02*
D03*
X843526Y421390D02*
D03*
Y431390D02*
D03*
Y441390D02*
D03*
Y451390D02*
D03*
Y461390D02*
D03*
Y471390D02*
D03*
Y481390D02*
D03*
Y491390D02*
D03*
Y391390D02*
D03*
Y401390D02*
D03*
Y411390D02*
D03*
Y291391D02*
D03*
Y301391D02*
D03*
Y311391D02*
D03*
Y321390D02*
D03*
Y331390D02*
D03*
Y141391D02*
D03*
Y151391D02*
D03*
Y161391D02*
D03*
Y171391D02*
D03*
Y181391D02*
D03*
Y191391D02*
D03*
Y201391D02*
D03*
Y211391D02*
D03*
Y221391D02*
D03*
Y231391D02*
D03*
Y61391D02*
D03*
Y71391D02*
D03*
Y81391D02*
D03*
Y91391D02*
D03*
Y101391D02*
D03*
Y111391D02*
D03*
Y121391D02*
D03*
Y131391D02*
D03*
X374745Y6474D02*
D03*
X384745D02*
D03*
X394745D02*
D03*
X454744D02*
D03*
X464744D02*
D03*
X474744D02*
D03*
X514744D02*
D03*
X484744D02*
D03*
X574744D02*
D03*
X584744D02*
D03*
X564744D02*
D03*
X554744D02*
D03*
X524744D02*
D03*
X544744D02*
D03*
X534744D02*
D03*
X504744D02*
D03*
X494744D02*
D03*
X594744D02*
D03*
X664744D02*
D03*
X604744D02*
D03*
X674744D02*
D03*
X644744D02*
D03*
X714744D02*
D03*
X614744D02*
D03*
X624744D02*
D03*
X634744D02*
D03*
X694744D02*
D03*
X654744D02*
D03*
X734744D02*
D03*
X704744D02*
D03*
X684744D02*
D03*
X724744D02*
D03*
X744744D02*
D03*
X754744D02*
D03*
X764744D02*
D03*
X784744D02*
D03*
X774744D02*
D03*
X64745D02*
D03*
X74745D02*
D03*
X84745D02*
D03*
X94745D02*
D03*
X104745D02*
D03*
X114745D02*
D03*
X124745D02*
D03*
X134745D02*
D03*
X144745D02*
D03*
X154745D02*
D03*
X164745D02*
D03*
X174745D02*
D03*
X184745D02*
D03*
X194745D02*
D03*
X244745D02*
D03*
X204745D02*
D03*
X314745D02*
D03*
X284745D02*
D03*
X304745D02*
D03*
X294745D02*
D03*
X344745D02*
D03*
X234745D02*
D03*
X224745D02*
D03*
X214745D02*
D03*
X274745D02*
D03*
X334745D02*
D03*
X324745D02*
D03*
X264745D02*
D03*
X254745D02*
D03*
X354745D02*
D03*
X364745D02*
D03*
X6474Y132094D02*
D03*
Y142094D02*
D03*
Y152094D02*
D03*
Y162094D02*
D03*
Y202094D02*
D03*
Y232094D02*
D03*
Y222094D02*
D03*
Y192094D02*
D03*
Y212094D02*
D03*
Y182094D02*
D03*
Y172094D02*
D03*
Y72095D02*
D03*
Y82095D02*
D03*
Y62095D02*
D03*
Y92094D02*
D03*
Y102094D02*
D03*
Y112094D02*
D03*
Y122094D02*
D03*
Y282094D02*
D03*
Y292094D02*
D03*
Y302094D02*
D03*
Y312094D02*
D03*
Y322094D02*
D03*
Y332094D02*
D03*
Y342094D02*
D03*
Y392094D02*
D03*
Y402094D02*
D03*
Y412094D02*
D03*
Y422094D02*
D03*
Y442094D02*
D03*
Y452094D02*
D03*
Y432094D02*
D03*
Y462094D02*
D03*
Y542094D02*
D03*
Y532094D02*
D03*
Y502094D02*
D03*
Y522094D02*
D03*
Y512094D02*
D03*
Y552094D02*
D03*
Y562094D02*
D03*
Y572094D02*
D03*
Y582094D02*
D03*
Y592094D02*
D03*
Y662093D02*
D03*
Y652093D02*
D03*
Y642093D02*
D03*
Y602094D02*
D03*
Y612094D02*
D03*
Y622094D02*
D03*
Y632094D02*
D03*
Y672093D02*
D03*
Y682093D02*
D03*
Y472094D02*
D03*
Y492094D02*
D03*
Y482094D02*
D03*
Y692093D02*
D03*
Y712093D02*
D03*
Y742093D02*
D03*
Y702093D02*
D03*
Y752093D02*
D03*
Y762093D02*
D03*
Y722093D02*
D03*
Y732093D02*
D03*
Y772093D02*
D03*
Y782093D02*
D03*
X68018Y843526D02*
D03*
X78018D02*
D03*
X88018D02*
D03*
X98018D02*
D03*
X108018D02*
D03*
X118018D02*
D03*
X128018D02*
D03*
X138018D02*
D03*
X148018D02*
D03*
X158018D02*
D03*
X168018D02*
D03*
X178018D02*
D03*
X188018D02*
D03*
X198018D02*
D03*
X208018D02*
D03*
X218018D02*
D03*
X228018D02*
D03*
X238018D02*
D03*
X248018D02*
D03*
X258018D02*
D03*
X268018D02*
D03*
X278018D02*
D03*
X288018D02*
D03*
X298018D02*
D03*
X308018D02*
D03*
X318018D02*
D03*
X328018D02*
D03*
X338018D02*
D03*
X348018D02*
D03*
X358018D02*
D03*
X368018D02*
D03*
X378018D02*
D03*
X388018D02*
D03*
X398018D02*
D03*
X408018D02*
D03*
X428018D02*
D03*
X418018D02*
D03*
X508017D02*
D03*
X518017D02*
D03*
X528017D02*
D03*
X548017D02*
D03*
X558017D02*
D03*
X598017D02*
D03*
X568017D02*
D03*
X538017D02*
D03*
X578017D02*
D03*
X588017D02*
D03*
X498017D02*
D03*
X608017D02*
D03*
X618017D02*
D03*
X628017D02*
D03*
X638017D02*
D03*
X648017D02*
D03*
X658017D02*
D03*
X668017D02*
D03*
X678017D02*
D03*
X688017D02*
D03*
X698017D02*
D03*
X708017D02*
D03*
X718017D02*
D03*
X728017D02*
D03*
X738017D02*
D03*
X748017D02*
D03*
X758017D02*
D03*
X768017D02*
D03*
X778017D02*
D03*
X788017D02*
D03*
D72*
X843526Y776646D02*
D03*
Y786646D02*
D03*
X843526Y281391D02*
D03*
M02*
