G04*
G04 #@! TF.GenerationSoftware,Altium Limited,Altium Designer,24.1.2 (44)*
G04*
G04 Layer_Physical_Order=2*
G04 Layer_Color=36540*
%FSLAX44Y44*%
%MOMM*%
G71*
G04*
G04 #@! TF.SameCoordinates,5A935687-884A-4F64-8E33-7EEF87A7B93E*
G04*
G04*
G04 #@! TF.FilePolarity,Positive*
G04*
G01*
G75*
%ADD39C,1.2700*%
%ADD72C,5.3000*%
%ADD73C,4.5000*%
%ADD74C,0.7000*%
%ADD75C,6.0000*%
%ADD76C,0.8000*%
%ADD78C,1.0500*%
%ADD79C,0.4000*%
%ADD80C,0.9000*%
G36*
X779376Y809293D02*
X779376Y809293D01*
X779376Y807438D01*
X779419Y807335D01*
X779390Y807226D01*
X779874Y803549D01*
X779930Y803452D01*
X779916Y803341D01*
X780876Y799759D01*
X780944Y799669D01*
Y799557D01*
X782363Y796131D01*
X782443Y796052D01*
X782457Y795940D01*
X784312Y792729D01*
X784400Y792660D01*
X784430Y792552D01*
X786687Y789610D01*
X786785Y789554D01*
X786827Y789450D01*
X789450Y786827D01*
X789554Y786785D01*
X789610Y786687D01*
X792552Y784430D01*
X792660Y784401D01*
X792729Y784312D01*
X795940Y782457D01*
X796052Y782443D01*
X796131Y782363D01*
X799557Y780944D01*
X799669D01*
X799759Y780876D01*
X803341Y779916D01*
X803452Y779930D01*
X803549Y779874D01*
X807226Y779390D01*
X807335Y779419D01*
X807438Y779376D01*
X809293Y779376D01*
X835232Y779376D01*
Y766646D01*
Y756646D01*
Y746646D01*
Y736646D01*
Y726646D01*
Y716646D01*
Y706646D01*
Y696646D01*
Y687825D01*
X828860D01*
X828860Y687853D01*
X824998Y687472D01*
X821285Y686346D01*
X817862Y684517D01*
X814863Y682055D01*
X812401Y679055D01*
X810572Y675633D01*
X809445Y671919D01*
X809065Y668057D01*
X809092D01*
Y653163D01*
Y643163D01*
Y633163D01*
Y623163D01*
Y613163D01*
Y603163D01*
Y593163D01*
Y583163D01*
Y573163D01*
Y563163D01*
Y553163D01*
Y543163D01*
Y533163D01*
Y523163D01*
Y515497D01*
X809065D01*
X809445Y511635D01*
X810572Y507922D01*
X812401Y504499D01*
X814863Y501500D01*
X817862Y499038D01*
X821285Y497209D01*
X824998Y496082D01*
X828860Y495702D01*
X828860Y495729D01*
X835232D01*
Y491390D01*
Y481390D01*
Y471390D01*
Y461390D01*
Y451390D01*
Y441390D01*
Y431390D01*
Y421390D01*
Y411390D01*
Y401390D01*
Y388808D01*
X834079Y388276D01*
X832572Y389563D01*
X828345Y392154D01*
X823764Y394051D01*
X818943Y395208D01*
X814000Y395597D01*
X809057Y395208D01*
X804236Y394051D01*
X799655Y392154D01*
X795427Y389563D01*
X791657Y386343D01*
X788437Y382573D01*
X785846Y378345D01*
X783949Y373764D01*
X782792Y368943D01*
X782403Y364000D01*
X782792Y359057D01*
X783949Y354236D01*
X785846Y349655D01*
X788437Y345428D01*
X791657Y341657D01*
X795427Y338437D01*
X799655Y335846D01*
X804236Y333949D01*
X809057Y332792D01*
X814000Y332403D01*
X818943Y332792D01*
X823764Y333949D01*
X828345Y335846D01*
X832572Y338437D01*
X834079Y339724D01*
X835232Y339192D01*
Y331390D01*
Y321390D01*
Y311391D01*
Y301391D01*
Y291391D01*
Y281215D01*
X834079Y280683D01*
X833049Y281563D01*
X828822Y284153D01*
X824241Y286051D01*
X819420Y287208D01*
X814477Y287597D01*
X809534Y287208D01*
X804713Y286051D01*
X800132Y284153D01*
X795904Y281563D01*
X792134Y278343D01*
X788914Y274573D01*
X786323Y270345D01*
X784426Y265764D01*
X783269Y260943D01*
X782879Y256000D01*
X783269Y251057D01*
X784426Y246236D01*
X786323Y241655D01*
X788914Y237428D01*
X792134Y233657D01*
X795904Y230437D01*
X800132Y227847D01*
X804713Y225949D01*
X809534Y224792D01*
X814477Y224403D01*
X819420Y224792D01*
X824241Y225949D01*
X828822Y227847D01*
X833049Y230437D01*
X833962Y231217D01*
X835232Y230631D01*
Y221391D01*
Y211391D01*
Y201391D01*
Y191391D01*
Y181391D01*
Y171391D01*
Y161391D01*
Y151391D01*
Y141391D01*
Y131391D01*
Y121391D01*
Y111391D01*
Y101391D01*
Y91391D01*
Y81391D01*
Y70624D01*
X809293Y70624D01*
X807438Y70624D01*
X807335Y70581D01*
X807226Y70610D01*
X803549Y70126D01*
X803452Y70069D01*
X803341Y70084D01*
X799759Y69124D01*
X799669Y69056D01*
X799557D01*
X796131Y67637D01*
X796052Y67557D01*
X795940Y67543D01*
X792729Y65688D01*
X792660Y65599D01*
X792552Y65570D01*
X789610Y63313D01*
X789554Y63215D01*
X789450Y63173D01*
X786827Y60550D01*
X786785Y60447D01*
X786687Y60390D01*
X784430Y57448D01*
X784400Y57340D01*
X784312Y57271D01*
X782457Y54060D01*
X782443Y53948D01*
X782363Y53869D01*
X780944Y50443D01*
Y50331D01*
X780876Y50241D01*
X779916Y46659D01*
X779930Y46548D01*
X779874Y46451D01*
X779390Y42774D01*
X779419Y42665D01*
X779376Y42562D01*
X779376Y40707D01*
X779376Y40707D01*
Y14768D01*
X457755D01*
X456918Y15723D01*
X457333Y18881D01*
Y23119D01*
X456780Y27322D01*
X455683Y31416D01*
X454061Y35331D01*
X451942Y39002D01*
X449362Y42365D01*
X446365Y45362D01*
X443002Y47942D01*
X439331Y50061D01*
X435416Y51683D01*
X431321Y52780D01*
X427119Y53334D01*
X422881D01*
X418679Y52780D01*
X414584Y51683D01*
X410668Y50061D01*
X406998Y47942D01*
X403635Y45362D01*
X400638Y42365D01*
X398058Y39002D01*
X395939Y35331D01*
X394317Y31416D01*
X393220Y27322D01*
X392666Y23119D01*
Y18881D01*
X393082Y15723D01*
X392245Y14768D01*
X70624D01*
Y40707D01*
X70624Y40708D01*
X70624Y42562D01*
X70581Y42665D01*
X70610Y42774D01*
X70126Y46451D01*
X70069Y46548D01*
X70084Y46659D01*
X69124Y50241D01*
X69056Y50331D01*
Y50443D01*
X67637Y53869D01*
X67557Y53948D01*
X67543Y54060D01*
X65688Y57271D01*
X65599Y57340D01*
X65570Y57448D01*
X63313Y60390D01*
X63215Y60447D01*
X63173Y60550D01*
X60550Y63173D01*
X60447Y63215D01*
X60390Y63313D01*
X57448Y65570D01*
X57340Y65599D01*
X57271Y65688D01*
X54060Y67543D01*
X53948Y67557D01*
X53869Y67637D01*
X50443Y69056D01*
X50331D01*
X50241Y69124D01*
X46659Y70084D01*
X46548Y70069D01*
X46451Y70126D01*
X42774Y70610D01*
X42665Y70581D01*
X42562Y70624D01*
X40707Y70624D01*
X14768Y70624D01*
Y82095D01*
Y92094D01*
Y102094D01*
Y112094D01*
Y122094D01*
Y132094D01*
Y142094D01*
Y152094D01*
Y162094D01*
Y172094D01*
Y182094D01*
Y192094D01*
Y202094D01*
Y212094D01*
Y222094D01*
Y231039D01*
X16038Y231624D01*
X17428Y230437D01*
X21655Y227847D01*
X26236Y225949D01*
X31057Y224792D01*
X36000Y224403D01*
X40943Y224792D01*
X45764Y225949D01*
X50345Y227847D01*
X54573Y230437D01*
X58343Y233657D01*
X61563Y237428D01*
X64153Y241655D01*
X66051Y246236D01*
X67208Y251057D01*
X67597Y256000D01*
X67208Y260943D01*
X66051Y265764D01*
X64153Y270345D01*
X61563Y274573D01*
X58343Y278343D01*
X54573Y281563D01*
X50345Y284153D01*
X45764Y286051D01*
X40943Y287208D01*
X36000Y287597D01*
X31057Y287208D01*
X26236Y286051D01*
X21655Y284153D01*
X17428Y281563D01*
X15921Y280276D01*
X14768Y280808D01*
Y292094D01*
Y302094D01*
Y312094D01*
Y322094D01*
Y332094D01*
Y339192D01*
X15921Y339724D01*
X17428Y338437D01*
X21655Y335846D01*
X26236Y333949D01*
X31057Y332792D01*
X36000Y332403D01*
X40943Y332792D01*
X45764Y333949D01*
X50345Y335846D01*
X54573Y338437D01*
X58343Y341657D01*
X61563Y345428D01*
X64153Y349655D01*
X66051Y354236D01*
X67208Y359057D01*
X67597Y364000D01*
X67208Y368943D01*
X66051Y373764D01*
X64153Y378345D01*
X61563Y382573D01*
X58343Y386343D01*
X54573Y389563D01*
X50345Y392154D01*
X45764Y394051D01*
X40943Y395208D01*
X36000Y395597D01*
X31057Y395208D01*
X26236Y394051D01*
X21655Y392154D01*
X17428Y389563D01*
X15921Y388276D01*
X14768Y388808D01*
Y402094D01*
Y412094D01*
Y422094D01*
Y432094D01*
Y442094D01*
Y452094D01*
Y462094D01*
Y472094D01*
Y482094D01*
Y492094D01*
Y502094D01*
Y512094D01*
Y522094D01*
Y532094D01*
Y542094D01*
Y552094D01*
Y562094D01*
Y572094D01*
Y582094D01*
Y592094D01*
Y602094D01*
Y612094D01*
Y622094D01*
Y632094D01*
Y642093D01*
Y652093D01*
Y662093D01*
Y672093D01*
Y682093D01*
Y692093D01*
Y702093D01*
Y712093D01*
Y722093D01*
Y732093D01*
Y742093D01*
Y752093D01*
Y762093D01*
Y772093D01*
Y779376D01*
X40707Y779376D01*
X42562Y779376D01*
X42665Y779419D01*
X42774Y779390D01*
X46451Y779874D01*
X46548Y779930D01*
X46659Y779916D01*
X50241Y780876D01*
X50331Y780944D01*
X50443D01*
X53869Y782363D01*
X53948Y782443D01*
X54060Y782457D01*
X57271Y784312D01*
X57340Y784401D01*
X57448Y784430D01*
X60390Y786687D01*
X60447Y786785D01*
X60550Y786827D01*
X63173Y789450D01*
X63215Y789554D01*
X63313Y789610D01*
X65570Y792552D01*
X65599Y792660D01*
X65688Y792729D01*
X67543Y795940D01*
X67557Y796052D01*
X67637Y796131D01*
X69056Y799557D01*
Y799669D01*
X69124Y799759D01*
X70084Y803341D01*
X70069Y803452D01*
X70126Y803549D01*
X70610Y807226D01*
X70581Y807335D01*
X70624Y807438D01*
X70624Y809292D01*
X70624Y809293D01*
Y835232D01*
X433764D01*
X434495Y833962D01*
X433520Y830322D01*
X432966Y826119D01*
Y821881D01*
X433520Y817679D01*
X434617Y813584D01*
X436239Y809669D01*
X438358Y805998D01*
X440938Y802635D01*
X443935Y799638D01*
X447298Y797058D01*
X450969Y794939D01*
X454884Y793317D01*
X458979Y792220D01*
X463181Y791666D01*
X467419D01*
X471622Y792220D01*
X475716Y793317D01*
X479632Y794939D01*
X483302Y797058D01*
X486665Y799638D01*
X489662Y802635D01*
X492242Y805998D01*
X494361Y809669D01*
X495983Y813584D01*
X497080Y817679D01*
X497634Y821881D01*
Y826119D01*
X497080Y830322D01*
X496105Y833962D01*
X496836Y835232D01*
X779376D01*
Y809293D01*
D02*
G37*
G36*
X843526Y781000D02*
X809293Y781000D01*
X807438Y781000D01*
X803761Y781484D01*
X800179Y782444D01*
X796752Y783863D01*
X793540Y785718D01*
X790598Y787975D01*
X787975Y790598D01*
X785718Y793540D01*
X783863Y796752D01*
X782444Y800179D01*
X781484Y803761D01*
X781000Y807438D01*
X781000Y809293D01*
X781000D01*
Y843526D01*
X843526D01*
Y781000D01*
D02*
G37*
G36*
X69000Y809293D02*
X69000D01*
X69000Y807438D01*
X68516Y803761D01*
X67556Y800179D01*
X66137Y796752D01*
X64282Y793540D01*
X62024Y790598D01*
X59402Y787975D01*
X56460Y785718D01*
X53248Y783863D01*
X49821Y782444D01*
X46239Y781484D01*
X42562Y781000D01*
X40707Y781000D01*
X6474Y781000D01*
Y843526D01*
X69000D01*
Y809293D01*
D02*
G37*
G36*
X843526Y6474D02*
X781000D01*
Y40707D01*
X781000Y40707D01*
X781000Y40707D01*
X781000Y42562D01*
X781484Y46239D01*
X782444Y49821D01*
X783863Y53248D01*
X785718Y56460D01*
X787975Y59402D01*
X790598Y62024D01*
X793540Y64282D01*
X796752Y66137D01*
X800179Y67556D01*
X803761Y68516D01*
X807438Y69000D01*
X809293Y69000D01*
X843526Y69000D01*
Y6474D01*
D02*
G37*
G36*
X40707Y69000D02*
X42562Y69000D01*
X46239Y68516D01*
X49821Y67556D01*
X53248Y66137D01*
X56460Y64282D01*
X59402Y62024D01*
X62024Y59402D01*
X64282Y56460D01*
X66137Y53248D01*
X67556Y49821D01*
X68516Y46239D01*
X69000Y42562D01*
X69000Y40707D01*
X69000D01*
X69000Y40707D01*
Y6474D01*
X6474D01*
Y69000D01*
X40707Y69000D01*
D02*
G37*
%LPC*%
G36*
X333714Y764918D02*
X332322D01*
X331035Y764385D01*
X330051Y763401D01*
X329518Y762114D01*
Y760722D01*
X330051Y759436D01*
X331035Y758451D01*
X332322Y757918D01*
X333714D01*
X335000Y758451D01*
X335985Y759436D01*
X336518Y760722D01*
Y762114D01*
X335985Y763401D01*
X335000Y764385D01*
X333714Y764918D01*
D02*
G37*
G36*
X346706Y759685D02*
X345314D01*
X344027Y759152D01*
X343043Y758167D01*
X342510Y756881D01*
Y755488D01*
X343043Y754202D01*
X344027Y753217D01*
X345314Y752684D01*
X346706D01*
X347993Y753217D01*
X348977Y754202D01*
X349510Y755488D01*
Y756881D01*
X348977Y758167D01*
X347993Y759152D01*
X346706Y759685D01*
D02*
G37*
G36*
X251365Y740008D02*
X249972D01*
X248686Y739475D01*
X247701Y738491D01*
X247169Y737204D01*
Y735812D01*
X247701Y734526D01*
X248686Y733541D01*
X249972Y733008D01*
X251365D01*
X252651Y733541D01*
X253636Y734526D01*
X254169Y735812D01*
Y737204D01*
X253636Y738491D01*
X252651Y739475D01*
X251365Y740008D01*
D02*
G37*
G36*
X281706Y732741D02*
X280314D01*
X279027Y732208D01*
X278043Y731223D01*
X277510Y729937D01*
Y728544D01*
X278043Y727258D01*
X279027Y726273D01*
X280314Y725741D01*
X281706D01*
X282993Y726273D01*
X283977Y727258D01*
X284510Y728544D01*
Y729937D01*
X283977Y731223D01*
X282993Y732208D01*
X281706Y732741D01*
D02*
G37*
G36*
X689570Y729940D02*
X688178D01*
X686891Y729407D01*
X685907Y728423D01*
X685374Y727136D01*
Y725744D01*
X685907Y724457D01*
X686891Y723473D01*
X688178Y722940D01*
X689570D01*
X690857Y723473D01*
X691841Y724457D01*
X692374Y725744D01*
Y727136D01*
X691841Y728423D01*
X690857Y729407D01*
X689570Y729940D01*
D02*
G37*
G36*
X294706Y722320D02*
X293314D01*
X292027Y721787D01*
X291043Y720803D01*
X290510Y719516D01*
Y718124D01*
X291043Y716837D01*
X292027Y715853D01*
X293314Y715320D01*
X294706D01*
X295993Y715853D01*
X296977Y716837D01*
X297510Y718124D01*
Y719516D01*
X296977Y720803D01*
X295993Y721787D01*
X294706Y722320D01*
D02*
G37*
G36*
X288436Y709722D02*
X287044D01*
X285757Y709190D01*
X284773Y708205D01*
X284240Y706919D01*
Y705526D01*
X284773Y704240D01*
X285757Y703255D01*
X287044Y702722D01*
X288436D01*
X289722Y703255D01*
X290707Y704240D01*
X291240Y705526D01*
Y706919D01*
X290707Y708205D01*
X289722Y709190D01*
X288436Y709722D01*
D02*
G37*
G36*
X671412Y692745D02*
X670019D01*
X668733Y692212D01*
X667748Y691227D01*
X667215Y689941D01*
Y688548D01*
X667748Y687262D01*
X668733Y686277D01*
X670019Y685745D01*
X671412D01*
X672698Y686277D01*
X673682Y687262D01*
X674215Y688548D01*
Y689941D01*
X673682Y691227D01*
X672698Y692212D01*
X671412Y692745D01*
D02*
G37*
G36*
X363916Y691840D02*
X362524D01*
X361237Y691307D01*
X360253Y690323D01*
X359720Y689036D01*
Y687644D01*
X360253Y686357D01*
X361237Y685373D01*
X362524Y684840D01*
X363916D01*
X365203Y685373D01*
X366187Y686357D01*
X366720Y687644D01*
Y689036D01*
X366187Y690323D01*
X365203Y691307D01*
X363916Y691840D01*
D02*
G37*
G36*
X272476Y690306D02*
X271084D01*
X269797Y689773D01*
X268813Y688789D01*
X268280Y687502D01*
Y686110D01*
X268813Y684823D01*
X269797Y683839D01*
X271084Y683306D01*
X272476D01*
X273763Y683839D01*
X274747Y684823D01*
X275280Y686110D01*
Y687502D01*
X274747Y688789D01*
X273763Y689773D01*
X272476Y690306D01*
D02*
G37*
G36*
X530846Y687992D02*
X529454D01*
X528167Y687459D01*
X527183Y686475D01*
X526650Y685188D01*
Y683796D01*
X527183Y682509D01*
X528167Y681525D01*
X529454Y680992D01*
X530846D01*
X532133Y681525D01*
X533117Y682509D01*
X533650Y683796D01*
Y685188D01*
X533117Y686475D01*
X532133Y687459D01*
X530846Y687992D01*
D02*
G37*
G36*
X517846D02*
X516454D01*
X515167Y687459D01*
X514183Y686475D01*
X513650Y685188D01*
Y683796D01*
X514183Y682509D01*
X515167Y681525D01*
X516454Y680992D01*
X517846D01*
X519133Y681525D01*
X520117Y682509D01*
X520650Y683796D01*
Y685188D01*
X520117Y686475D01*
X519133Y687459D01*
X517846Y687992D01*
D02*
G37*
G36*
X393750Y685593D02*
X392358D01*
X391072Y685061D01*
X390087Y684076D01*
X389554Y682790D01*
Y681397D01*
X390087Y680111D01*
X391072Y679126D01*
X392358Y678593D01*
X393750D01*
X395037Y679126D01*
X396021Y680111D01*
X396554Y681397D01*
Y682790D01*
X396021Y684076D01*
X395037Y685061D01*
X393750Y685593D01*
D02*
G37*
G36*
X376616D02*
X375224D01*
X373937Y685061D01*
X372953Y684076D01*
X372420Y682790D01*
Y681397D01*
X372953Y680111D01*
X373937Y679126D01*
X375224Y678593D01*
X376616D01*
X377903Y679126D01*
X378887Y680111D01*
X379420Y681397D01*
Y682790D01*
X378887Y684076D01*
X377903Y685061D01*
X376616Y685593D01*
D02*
G37*
G36*
X465846Y684739D02*
X464454D01*
X463167Y684207D01*
X462183Y683222D01*
X461650Y681936D01*
Y680543D01*
X462183Y679257D01*
X463167Y678272D01*
X464454Y677739D01*
X465846D01*
X467133Y678272D01*
X468117Y679257D01*
X468650Y680543D01*
Y681936D01*
X468117Y683222D01*
X467133Y684207D01*
X465846Y684739D01*
D02*
G37*
G36*
X327206Y679140D02*
X325814D01*
X324527Y678607D01*
X323543Y677623D01*
X323010Y676336D01*
Y674944D01*
X323543Y673657D01*
X324527Y672673D01*
X325814Y672140D01*
X327206D01*
X328493Y672673D01*
X329477Y673657D01*
X330010Y674944D01*
Y676336D01*
X329477Y677623D01*
X328493Y678607D01*
X327206Y679140D01*
D02*
G37*
G36*
X307706Y674245D02*
X306314D01*
X305027Y673712D01*
X304043Y672728D01*
X303510Y671441D01*
Y670049D01*
X304043Y668762D01*
X305027Y667778D01*
X306314Y667245D01*
X307706D01*
X308993Y667778D01*
X309977Y668762D01*
X310510Y670049D01*
Y671441D01*
X309977Y672728D01*
X308993Y673712D01*
X307706Y674245D01*
D02*
G37*
G36*
X437576Y669739D02*
X436184D01*
X434897Y669206D01*
X433913Y668222D01*
X433380Y666936D01*
Y665543D01*
X433913Y664257D01*
X434897Y663272D01*
X436184Y662739D01*
X437576D01*
X438863Y663272D01*
X439847Y664257D01*
X440380Y665543D01*
Y666936D01*
X439847Y668222D01*
X438863Y669206D01*
X437576Y669739D01*
D02*
G37*
G36*
X384236Y656208D02*
X382844D01*
X381557Y655676D01*
X380573Y654691D01*
X380040Y653405D01*
Y652012D01*
X380573Y650726D01*
X381557Y649741D01*
X382844Y649209D01*
X384236D01*
X385523Y649741D01*
X386507Y650726D01*
X387040Y652012D01*
Y653405D01*
X386507Y654691D01*
X385523Y655676D01*
X384236Y656208D01*
D02*
G37*
G36*
X451971Y646113D02*
X450579D01*
X449293Y645580D01*
X448308Y644595D01*
X447775Y643309D01*
Y641917D01*
X448308Y640630D01*
X449293Y639646D01*
X450579Y639113D01*
X451971D01*
X453258Y639646D01*
X454242Y640630D01*
X454775Y641917D01*
Y643309D01*
X454242Y644595D01*
X453258Y645580D01*
X451971Y646113D01*
D02*
G37*
G36*
X680680Y641820D02*
X679288D01*
X678001Y641287D01*
X677017Y640302D01*
X676484Y639016D01*
Y637623D01*
X677017Y636337D01*
X678001Y635352D01*
X679288Y634820D01*
X680680D01*
X681967Y635352D01*
X682951Y636337D01*
X683484Y637623D01*
Y639016D01*
X682951Y640302D01*
X681967Y641287D01*
X680680Y641820D01*
D02*
G37*
G36*
X478846Y634878D02*
X477454D01*
X476167Y634345D01*
X475183Y633360D01*
X474650Y632074D01*
Y630681D01*
X475183Y629395D01*
X476167Y628410D01*
X477454Y627878D01*
X478846D01*
X480132Y628410D01*
X481117Y629395D01*
X481650Y630681D01*
Y632074D01*
X481117Y633360D01*
X480132Y634345D01*
X478846Y634878D01*
D02*
G37*
G36*
X305208Y626839D02*
X303816D01*
X302529Y626306D01*
X301545Y625322D01*
X301012Y624035D01*
Y622643D01*
X301545Y621356D01*
X302529Y620372D01*
X303816Y619839D01*
X305208D01*
X306495Y620372D01*
X307479Y621356D01*
X308012Y622643D01*
Y624035D01*
X307479Y625322D01*
X306495Y626306D01*
X305208Y626839D01*
D02*
G37*
G36*
X630494Y623260D02*
X629102D01*
X627815Y622727D01*
X626831Y621743D01*
X626298Y620456D01*
Y619064D01*
X626831Y617777D01*
X627815Y616793D01*
X629102Y616260D01*
X630494D01*
X631781Y616793D01*
X632765Y617777D01*
X633298Y619064D01*
Y620456D01*
X632765Y621743D01*
X631781Y622727D01*
X630494Y623260D01*
D02*
G37*
G36*
X680680Y622820D02*
X679288D01*
X678001Y622287D01*
X677017Y621302D01*
X676484Y620016D01*
Y618623D01*
X677017Y617337D01*
X678001Y616352D01*
X679288Y615820D01*
X680680D01*
X681967Y616352D01*
X682951Y617337D01*
X683484Y618623D01*
Y620016D01*
X682951Y621302D01*
X681967Y622287D01*
X680680Y622820D01*
D02*
G37*
G36*
X511346Y620923D02*
X509954D01*
X508667Y620390D01*
X507683Y619406D01*
X507150Y618119D01*
Y616727D01*
X507683Y615440D01*
X508667Y614456D01*
X509954Y613923D01*
X511346D01*
X512633Y614456D01*
X513617Y615440D01*
X514150Y616727D01*
Y618119D01*
X513617Y619406D01*
X512633Y620390D01*
X511346Y620923D01*
D02*
G37*
G36*
X457896D02*
X456504D01*
X455217Y620390D01*
X454233Y619406D01*
X453700Y618119D01*
Y616727D01*
X454233Y615440D01*
X455217Y614456D01*
X456504Y613923D01*
X457896D01*
X459183Y614456D01*
X460167Y615440D01*
X460700Y616727D01*
Y618119D01*
X460167Y619406D01*
X459183Y620390D01*
X457896Y620923D01*
D02*
G37*
G36*
X344166Y620381D02*
X342774D01*
X341487Y619848D01*
X340503Y618864D01*
X339970Y617577D01*
Y616185D01*
X340503Y614898D01*
X341487Y613914D01*
X342774Y613381D01*
X344166D01*
X345453Y613914D01*
X346437Y614898D01*
X346970Y616185D01*
Y617577D01*
X346437Y618864D01*
X345453Y619848D01*
X344166Y620381D01*
D02*
G37*
G36*
X331166D02*
X329774D01*
X328487Y619848D01*
X327503Y618864D01*
X326970Y617577D01*
Y616185D01*
X327503Y614898D01*
X328487Y613914D01*
X329774Y613381D01*
X331166D01*
X332453Y613914D01*
X333437Y614898D01*
X333970Y616185D01*
Y617577D01*
X333437Y618864D01*
X332453Y619848D01*
X331166Y620381D01*
D02*
G37*
G36*
X437576Y610555D02*
X436184D01*
X434897Y610023D01*
X433913Y609038D01*
X433380Y607752D01*
Y606359D01*
X433913Y605073D01*
X434897Y604088D01*
X436184Y603555D01*
X437576D01*
X438863Y604088D01*
X439847Y605073D01*
X440380Y606359D01*
Y607752D01*
X439847Y609038D01*
X438863Y610023D01*
X437576Y610555D01*
D02*
G37*
G36*
X537346Y604823D02*
X535954D01*
X534667Y604290D01*
X534230Y603852D01*
X533400Y603444D01*
X532570Y603852D01*
X532132Y604290D01*
X530846Y604823D01*
X529454D01*
X528167Y604290D01*
X527183Y603305D01*
X526650Y602019D01*
Y600626D01*
X527183Y599340D01*
X528167Y598355D01*
X529454Y597823D01*
X530846D01*
X532132Y598355D01*
X532570Y598793D01*
X533400Y599201D01*
X534230Y598793D01*
X534667Y598355D01*
X535954Y597823D01*
X537346D01*
X538633Y598355D01*
X539617Y599340D01*
X540150Y600626D01*
Y602019D01*
X539617Y603305D01*
X538633Y604290D01*
X537346Y604823D01*
D02*
G37*
G36*
X517846Y610437D02*
X516454D01*
X515167Y609904D01*
X514183Y608919D01*
X513650Y607633D01*
Y606241D01*
X514183Y604954D01*
X515167Y603970D01*
X516454Y603437D01*
X517846D01*
X519132Y603970D01*
X520117Y604954D01*
X520650Y606241D01*
Y607633D01*
X520117Y608919D01*
X519132Y609904D01*
X517846Y610437D01*
D02*
G37*
G36*
X705295Y602856D02*
X703903D01*
X702616Y602323D01*
X701631Y601339D01*
X701099Y600052D01*
Y598660D01*
X701631Y597374D01*
X702616Y596389D01*
X703903Y595856D01*
X705295D01*
X706581Y596389D01*
X707566Y597374D01*
X708099Y598660D01*
Y600052D01*
X707566Y601339D01*
X706581Y602323D01*
X705295Y602856D01*
D02*
G37*
G36*
X251365Y599183D02*
X249972D01*
X248686Y598650D01*
X247701Y597666D01*
X247169Y596380D01*
Y594987D01*
X247701Y593701D01*
X248686Y592716D01*
X249972Y592183D01*
X251365D01*
X252651Y592716D01*
X253636Y593701D01*
X254169Y594987D01*
Y596380D01*
X253636Y597666D01*
X252651Y598650D01*
X251365Y599183D01*
D02*
G37*
G36*
X503880Y598758D02*
X502488D01*
X501201Y598225D01*
X500217Y597240D01*
X499684Y595954D01*
Y594561D01*
X500217Y593275D01*
X501201Y592290D01*
X502488Y591758D01*
X503880D01*
X505167Y592290D01*
X506151Y593275D01*
X506684Y594561D01*
Y595954D01*
X506151Y597240D01*
X505167Y598225D01*
X503880Y598758D01*
D02*
G37*
G36*
X279166Y592801D02*
X277774D01*
X276487Y592268D01*
X275503Y591283D01*
X274970Y589997D01*
Y588605D01*
X275503Y587318D01*
X276487Y586334D01*
X277774Y585801D01*
X279166D01*
X280453Y586334D01*
X281437Y587318D01*
X281970Y588605D01*
Y589997D01*
X281437Y591283D01*
X280453Y592268D01*
X279166Y592801D01*
D02*
G37*
G36*
X680680Y583928D02*
X679288D01*
X678001Y583395D01*
X677017Y582410D01*
X676484Y581124D01*
Y579732D01*
X677017Y578445D01*
X678001Y577461D01*
X679288Y576928D01*
X680680D01*
X681967Y577461D01*
X682951Y578445D01*
X683484Y579732D01*
Y581124D01*
X682951Y582410D01*
X681967Y583395D01*
X680680Y583928D01*
D02*
G37*
G36*
X297034Y574472D02*
X295642D01*
X294356Y573939D01*
X293371Y572955D01*
X292838Y571668D01*
Y570276D01*
X293371Y568989D01*
X294356Y568005D01*
X295642Y567472D01*
X297034D01*
X298321Y568005D01*
X299305Y568989D01*
X299838Y570276D01*
Y571668D01*
X299305Y572955D01*
X298321Y573939D01*
X297034Y574472D01*
D02*
G37*
G36*
X285666D02*
X284274D01*
X282987Y573939D01*
X282003Y572955D01*
X281470Y571668D01*
Y570276D01*
X282003Y568989D01*
X282987Y568005D01*
X284274Y567472D01*
X285666D01*
X286953Y568005D01*
X287937Y568989D01*
X288470Y570276D01*
Y571668D01*
X287937Y572955D01*
X286953Y573939D01*
X285666Y574472D01*
D02*
G37*
G36*
X676336Y564036D02*
X674944D01*
X673657Y563503D01*
X672673Y562519D01*
X672140Y561232D01*
Y559840D01*
X672673Y558553D01*
X673657Y557569D01*
X674944Y557036D01*
X676336D01*
X677623Y557569D01*
X678607Y558553D01*
X679140Y559840D01*
Y561232D01*
X678607Y562519D01*
X677623Y563503D01*
X676336Y564036D01*
D02*
G37*
G36*
X344237Y550642D02*
X342844D01*
X341558Y550109D01*
X340573Y549125D01*
X340041Y547839D01*
Y546446D01*
X340573Y545160D01*
X341558Y544175D01*
X342844Y543642D01*
X344237D01*
X345523Y544175D01*
X346508Y545160D01*
X347040Y546446D01*
Y547839D01*
X346508Y549125D01*
X345523Y550109D01*
X344237Y550642D01*
D02*
G37*
G36*
X272476Y550367D02*
X271084D01*
X269797Y549834D01*
X268813Y548849D01*
X268280Y547563D01*
Y546171D01*
X268813Y544884D01*
X269797Y543900D01*
X271084Y543367D01*
X272476D01*
X273763Y543900D01*
X274747Y544884D01*
X275280Y546171D01*
Y547563D01*
X274747Y548849D01*
X273763Y549834D01*
X272476Y550367D01*
D02*
G37*
G36*
X517846Y548410D02*
X516454D01*
X515167Y547877D01*
X514183Y546893D01*
X513650Y545606D01*
Y544214D01*
X514183Y542928D01*
X515167Y541943D01*
X516454Y541410D01*
X517846D01*
X519133Y541943D01*
X520117Y542928D01*
X520650Y544214D01*
Y545606D01*
X520117Y546893D01*
X519133Y547877D01*
X517846Y548410D01*
D02*
G37*
G36*
X331166Y539440D02*
X329774D01*
X328487Y538907D01*
X328050Y538469D01*
X327220Y538062D01*
X326390Y538469D01*
X325953Y538907D01*
X324666Y539440D01*
X323274D01*
X321987Y538907D01*
X321003Y537923D01*
X320470Y536636D01*
Y535244D01*
X321003Y533957D01*
X321987Y532973D01*
X323274Y532440D01*
X324666D01*
X325953Y532973D01*
X326390Y533411D01*
X327220Y533818D01*
X328050Y533411D01*
X328487Y532973D01*
X329774Y532440D01*
X331166D01*
X332453Y532973D01*
X333437Y533957D01*
X333970Y535244D01*
Y536636D01*
X333437Y537923D01*
X332453Y538907D01*
X331166Y539440D01*
D02*
G37*
G36*
X530846Y544181D02*
X529454D01*
X528167Y543648D01*
X527183Y542664D01*
X526650Y541377D01*
Y539985D01*
X527183Y538698D01*
X528167Y537714D01*
X529454Y537181D01*
X530846D01*
X532133Y537714D01*
X533117Y538698D01*
X533650Y539985D01*
Y541377D01*
X533117Y542664D01*
X532133Y543648D01*
X530846Y544181D01*
D02*
G37*
G36*
X465846Y540739D02*
X464454D01*
X463167Y540206D01*
X462183Y539222D01*
X461650Y537936D01*
Y536543D01*
X462183Y535257D01*
X463167Y534272D01*
X464454Y533739D01*
X465846D01*
X467133Y534272D01*
X468117Y535257D01*
X468650Y536543D01*
Y537936D01*
X468117Y539222D01*
X467133Y540206D01*
X465846Y540739D01*
D02*
G37*
G36*
X305166Y539440D02*
X303774D01*
X302487Y538907D01*
X301503Y537923D01*
X300970Y536636D01*
Y535244D01*
X301503Y533957D01*
X302487Y532973D01*
X303774Y532440D01*
X305166D01*
X306453Y532973D01*
X307437Y533957D01*
X307970Y535244D01*
Y536636D01*
X307437Y537923D01*
X306453Y538907D01*
X305166Y539440D01*
D02*
G37*
G36*
X295336Y535381D02*
X293944D01*
X292657Y534848D01*
X291673Y533863D01*
X291140Y532577D01*
Y531185D01*
X291673Y529898D01*
X292657Y528914D01*
X293944Y528381D01*
X295336D01*
X296623Y528914D01*
X297607Y529898D01*
X298140Y531185D01*
Y532577D01*
X297607Y533863D01*
X296623Y534848D01*
X295336Y535381D01*
D02*
G37*
G36*
X259036D02*
X257644D01*
X256357Y534848D01*
X255373Y533863D01*
X254840Y532577D01*
Y531185D01*
X255373Y529898D01*
X256357Y528914D01*
X257644Y528381D01*
X259036D01*
X260323Y528914D01*
X261307Y529898D01*
X261840Y531185D01*
Y532577D01*
X261307Y533863D01*
X260323Y534848D01*
X259036Y535381D01*
D02*
G37*
G36*
X437046Y525209D02*
X435654D01*
X434367Y524677D01*
X433383Y523692D01*
X432850Y522406D01*
Y521013D01*
X433383Y519727D01*
X434367Y518742D01*
X435654Y518209D01*
X437046D01*
X438333Y518742D01*
X439317Y519727D01*
X439850Y521013D01*
Y522406D01*
X439317Y523692D01*
X438333Y524677D01*
X437046Y525209D01*
D02*
G37*
G36*
X384236Y515813D02*
X382844D01*
X381557Y515280D01*
X380573Y514296D01*
X380040Y513009D01*
Y511617D01*
X380573Y510330D01*
X381557Y509346D01*
X382844Y508813D01*
X384236D01*
X385523Y509346D01*
X386507Y510330D01*
X387040Y511617D01*
Y513009D01*
X386507Y514296D01*
X385523Y515280D01*
X384236Y515813D01*
D02*
G37*
G36*
X485322Y505117D02*
X483930D01*
X482643Y504584D01*
X481659Y503599D01*
X481126Y502313D01*
Y500921D01*
X481659Y499634D01*
X482643Y498650D01*
X483930Y498117D01*
X485322D01*
X486608Y498650D01*
X487593Y499634D01*
X488126Y500921D01*
Y502313D01*
X487593Y503599D01*
X486608Y504584D01*
X485322Y505117D01*
D02*
G37*
G36*
X451716Y502245D02*
X450324D01*
X449038Y501712D01*
X448053Y500727D01*
X447520Y499441D01*
Y498049D01*
X448053Y496762D01*
X449038Y495778D01*
X450324Y495245D01*
X451716D01*
X453003Y495778D01*
X453987Y496762D01*
X454520Y498049D01*
Y499441D01*
X453987Y500727D01*
X453003Y501712D01*
X451716Y502245D01*
D02*
G37*
G36*
X693180Y493720D02*
X691788D01*
X690501Y493187D01*
X689517Y492203D01*
X688984Y490916D01*
Y489524D01*
X689517Y488237D01*
X690076Y487679D01*
X690364Y486867D01*
X690076Y486055D01*
X689517Y485496D01*
X688984Y484210D01*
Y482817D01*
X689517Y481531D01*
X690501Y480546D01*
X691788Y480013D01*
X693180D01*
X694467Y480546D01*
X695451Y481531D01*
X695984Y482817D01*
Y484210D01*
X695451Y485496D01*
X694893Y486055D01*
X694604Y486867D01*
X694893Y487679D01*
X695451Y488237D01*
X695984Y489524D01*
Y490916D01*
X695451Y492203D01*
X694467Y493187D01*
X693180Y493720D01*
D02*
G37*
G36*
X511346Y476923D02*
X509954D01*
X508667Y476390D01*
X507683Y475405D01*
X507150Y474119D01*
Y472727D01*
X507683Y471440D01*
X508667Y470456D01*
X509954Y469923D01*
X511346D01*
X512633Y470456D01*
X513617Y471440D01*
X514150Y472727D01*
Y474119D01*
X513617Y475405D01*
X512633Y476390D01*
X511346Y476923D01*
D02*
G37*
G36*
X457896D02*
X456504D01*
X455217Y476390D01*
X454233Y475405D01*
X453700Y474119D01*
Y472727D01*
X454233Y471440D01*
X455217Y470456D01*
X456504Y469923D01*
X457896D01*
X459183Y470456D01*
X460167Y471440D01*
X460700Y472727D01*
Y474119D01*
X460167Y475405D01*
X459183Y476390D01*
X457896Y476923D01*
D02*
G37*
G36*
X344119Y474018D02*
X342727D01*
X341441Y473485D01*
X340456Y472500D01*
X339923Y471214D01*
Y469822D01*
X340456Y468535D01*
X341441Y467551D01*
X342727Y467018D01*
X344119D01*
X345406Y467551D01*
X346390Y468535D01*
X346923Y469822D01*
Y471214D01*
X346390Y472500D01*
X345406Y473485D01*
X344119Y474018D01*
D02*
G37*
G36*
X331070D02*
X329677D01*
X328391Y473485D01*
X327406Y472500D01*
X326874Y471214D01*
Y469822D01*
X327406Y468535D01*
X328391Y467551D01*
X329677Y467018D01*
X331070D01*
X332356Y467551D01*
X333341Y468535D01*
X333873Y469822D01*
Y471214D01*
X333341Y472500D01*
X332356Y473485D01*
X331070Y474018D01*
D02*
G37*
G36*
X597596Y473400D02*
X596204D01*
X594917Y472867D01*
X593933Y471883D01*
X593400Y470596D01*
Y469204D01*
X593933Y467917D01*
X594917Y466933D01*
X596204Y466400D01*
X597596D01*
X598883Y466933D01*
X599867Y467917D01*
X600400Y469204D01*
Y470596D01*
X599867Y471883D01*
X598883Y472867D01*
X597596Y473400D01*
D02*
G37*
G36*
X530864Y467008D02*
X529471D01*
X528185Y466475D01*
X527200Y465491D01*
X526668Y464204D01*
Y462812D01*
X527200Y461525D01*
X528185Y460541D01*
X529471Y460008D01*
X530864D01*
X532150Y460541D01*
X533135Y461525D01*
X533667Y462812D01*
Y464204D01*
X533135Y465491D01*
X532150Y466475D01*
X530864Y467008D01*
D02*
G37*
G36*
X517846D02*
X516454D01*
X515167Y466475D01*
X514183Y465491D01*
X513650Y464204D01*
Y462812D01*
X514183Y461525D01*
X515167Y460541D01*
X516454Y460008D01*
X517846D01*
X519132Y460541D01*
X520117Y461525D01*
X520650Y462812D01*
Y464204D01*
X520117Y465491D01*
X519132Y466475D01*
X517846Y467008D01*
D02*
G37*
G36*
X437576Y465709D02*
X436184D01*
X434897Y465176D01*
X433913Y464191D01*
X433380Y462905D01*
Y461512D01*
X433913Y460226D01*
X434897Y459241D01*
X436184Y458708D01*
X437576D01*
X438863Y459241D01*
X439847Y460226D01*
X440380Y461512D01*
Y462905D01*
X439847Y464191D01*
X438863Y465176D01*
X437576Y465709D01*
D02*
G37*
G36*
X434704Y455549D02*
X433312D01*
X432026Y455016D01*
X431041Y454031D01*
X430508Y452745D01*
Y451352D01*
X431041Y450066D01*
X432026Y449081D01*
X433312Y448549D01*
X434704D01*
X435991Y449081D01*
X436975Y450066D01*
X437508Y451352D01*
Y452745D01*
X436975Y454031D01*
X435991Y455016D01*
X434704Y455549D01*
D02*
G37*
G36*
X251365Y453739D02*
X249972D01*
X248686Y453206D01*
X247701Y452222D01*
X247169Y450936D01*
Y449543D01*
X247701Y448257D01*
X248686Y447272D01*
X249972Y446739D01*
X251365D01*
X252651Y447272D01*
X253636Y448257D01*
X254169Y449543D01*
Y450936D01*
X253636Y452222D01*
X252651Y453206D01*
X251365Y453739D01*
D02*
G37*
G36*
X279166Y448000D02*
X277774D01*
X276487Y447467D01*
X275503Y446483D01*
X274970Y445196D01*
Y443804D01*
X275503Y442517D01*
X276487Y441533D01*
X277774Y441000D01*
X279166D01*
X280453Y441533D01*
X281437Y442517D01*
X281970Y443804D01*
Y445196D01*
X281437Y446483D01*
X280453Y447467D01*
X279166Y448000D01*
D02*
G37*
G36*
X292166Y443785D02*
X290774D01*
X289487Y443252D01*
X288503Y442268D01*
X287970Y440981D01*
Y439589D01*
X288503Y438303D01*
X289487Y437318D01*
X290774Y436785D01*
X292166D01*
X293453Y437318D01*
X294437Y438303D01*
X294970Y439589D01*
Y440981D01*
X294437Y442268D01*
X293453Y443252D01*
X292166Y443785D01*
D02*
G37*
G36*
X384236Y419989D02*
X382844D01*
X381557Y419456D01*
X380573Y418471D01*
X380040Y417185D01*
Y415792D01*
X380573Y414506D01*
X381557Y413521D01*
X382844Y412989D01*
X384236D01*
X385523Y413521D01*
X386507Y414506D01*
X387040Y415792D01*
Y417185D01*
X386507Y418471D01*
X385523Y419456D01*
X384236Y419989D01*
D02*
G37*
G36*
X292166Y418805D02*
X290774D01*
X289487Y418272D01*
X288503Y417287D01*
X287970Y416001D01*
Y414608D01*
X288503Y413322D01*
X289487Y412337D01*
X290774Y411805D01*
X292166D01*
X293453Y412337D01*
X294437Y413322D01*
X294970Y414608D01*
Y416001D01*
X294437Y417287D01*
X293453Y418272D01*
X292166Y418805D01*
D02*
G37*
G36*
X272476Y404923D02*
X271084D01*
X269797Y404390D01*
X268813Y403405D01*
X268280Y402119D01*
Y400727D01*
X268813Y399440D01*
X269797Y398456D01*
X271084Y397923D01*
X272476D01*
X273763Y398456D01*
X274747Y399440D01*
X275280Y400727D01*
Y402119D01*
X274747Y403405D01*
X273763Y404390D01*
X272476Y404923D01*
D02*
G37*
G36*
X344131Y404784D02*
X342738D01*
X341452Y404251D01*
X340467Y403267D01*
X339934Y401980D01*
Y400588D01*
X340467Y399302D01*
X341452Y398317D01*
X342738Y397784D01*
X344131D01*
X345417Y398317D01*
X346402Y399302D01*
X346934Y400588D01*
Y401980D01*
X346402Y403267D01*
X345417Y404251D01*
X344131Y404784D01*
D02*
G37*
G36*
X331166Y397423D02*
X329774D01*
X328487Y396890D01*
X327503Y395905D01*
X326970Y394619D01*
Y393343D01*
X326466Y392924D01*
X325852Y392606D01*
X324666Y393097D01*
X323274D01*
X321987Y392565D01*
X321003Y391580D01*
X320470Y390294D01*
Y388901D01*
X321003Y387615D01*
X321987Y386630D01*
X323274Y386097D01*
X324666D01*
X325953Y386630D01*
X326937Y387615D01*
X327470Y388901D01*
Y390177D01*
X327974Y390597D01*
X328587Y390914D01*
X329774Y390423D01*
X331166D01*
X332453Y390956D01*
X333437Y391940D01*
X333970Y393227D01*
Y394619D01*
X333437Y395905D01*
X332453Y396890D01*
X331166Y397423D01*
D02*
G37*
G36*
X530846Y397531D02*
X529454D01*
X528167Y396998D01*
X527183Y396013D01*
X526650Y394727D01*
Y393335D01*
X527183Y392048D01*
X528167Y391064D01*
X529454Y390531D01*
X530846D01*
X532133Y391064D01*
X533117Y392048D01*
X533650Y393335D01*
Y394727D01*
X533117Y396013D01*
X532133Y396998D01*
X530846Y397531D01*
D02*
G37*
G36*
X517846D02*
X516454D01*
X515167Y396998D01*
X514183Y396013D01*
X513650Y394727D01*
Y393335D01*
X514183Y392048D01*
X515167Y391064D01*
X516454Y390531D01*
X517846D01*
X519133Y391064D01*
X520117Y392048D01*
X520650Y393335D01*
Y394727D01*
X520117Y396013D01*
X519133Y396998D01*
X517846Y397531D01*
D02*
G37*
G36*
X465846Y394122D02*
X464454D01*
X463167Y393590D01*
X462183Y392605D01*
X461650Y391319D01*
Y389926D01*
X462183Y388640D01*
X463167Y387655D01*
X464454Y387122D01*
X465846D01*
X467133Y387655D01*
X468117Y388640D01*
X468650Y389926D01*
Y391319D01*
X468117Y392605D01*
X467133Y393590D01*
X465846Y394122D01*
D02*
G37*
G36*
X305166Y393097D02*
X303774D01*
X302487Y392565D01*
X301503Y391580D01*
X300970Y390294D01*
Y388901D01*
X301503Y387615D01*
X302487Y386630D01*
X303774Y386097D01*
X305166D01*
X306453Y386630D01*
X307437Y387615D01*
X307970Y388901D01*
Y390294D01*
X307437Y391580D01*
X306453Y392565D01*
X305166Y393097D01*
D02*
G37*
G36*
X259036Y390460D02*
X257644D01*
X256357Y389927D01*
X255373Y388942D01*
X254840Y387656D01*
Y386263D01*
X255373Y384977D01*
X256357Y383992D01*
X257644Y383460D01*
X259036D01*
X260323Y383992D01*
X261307Y384977D01*
X261840Y386263D01*
Y387656D01*
X261307Y388942D01*
X260323Y389927D01*
X259036Y390460D01*
D02*
G37*
G36*
X457896Y369168D02*
X456504D01*
X455217Y368635D01*
X454233Y367651D01*
X453700Y366365D01*
Y364972D01*
X454233Y363686D01*
X455217Y362701D01*
X456504Y362168D01*
X457896D01*
X459183Y362701D01*
X460167Y363686D01*
X460700Y364972D01*
Y366365D01*
X460167Y367651D01*
X459183Y368635D01*
X457896Y369168D01*
D02*
G37*
G36*
X485346Y358986D02*
X483954D01*
X482667Y358453D01*
X482215Y358001D01*
X481418Y357594D01*
X480556Y358001D01*
X480132Y358424D01*
X478846Y358957D01*
X477454D01*
X476167Y358424D01*
X475183Y357440D01*
X474650Y356153D01*
Y354761D01*
X475183Y353474D01*
X476167Y352490D01*
X477454Y351957D01*
X478846D01*
X480132Y352490D01*
X480585Y352942D01*
X481381Y353350D01*
X482244Y352942D01*
X482667Y352519D01*
X483954Y351986D01*
X485346D01*
X486633Y352519D01*
X487617Y353504D01*
X488150Y354790D01*
Y356182D01*
X487617Y357469D01*
X486633Y358453D01*
X485346Y358986D01*
D02*
G37*
G36*
X450276Y359029D02*
X448884D01*
X447597Y358496D01*
X446613Y357511D01*
X446080Y356225D01*
Y354832D01*
X446613Y353546D01*
X447597Y352561D01*
X448884Y352029D01*
X450276D01*
X451563Y352561D01*
X452547Y353546D01*
X453080Y354832D01*
Y356225D01*
X452547Y357511D01*
X451563Y358496D01*
X450276Y359029D01*
D02*
G37*
G36*
X457896Y330306D02*
X456504D01*
X455217Y329773D01*
X454233Y328788D01*
X453700Y327502D01*
Y326110D01*
X454233Y324823D01*
X455217Y323839D01*
X456504Y323306D01*
X457896D01*
X459183Y323839D01*
X460167Y324823D01*
X460700Y326110D01*
Y327502D01*
X460167Y328788D01*
X459183Y329773D01*
X457896Y330306D01*
D02*
G37*
G36*
X511397Y330287D02*
X510005D01*
X508718Y329754D01*
X507734Y328770D01*
X507201Y327483D01*
Y326091D01*
X507734Y324805D01*
X508718Y323820D01*
X510005Y323287D01*
X511397D01*
X512683Y323820D01*
X513668Y324805D01*
X514201Y326091D01*
Y327483D01*
X513668Y328770D01*
X512683Y329754D01*
X511397Y330287D01*
D02*
G37*
G36*
X509451Y316375D02*
X508059D01*
X506772Y315842D01*
X505788Y314857D01*
X505255Y313571D01*
Y312178D01*
X505788Y310892D01*
X506772Y309907D01*
X508059Y309375D01*
X509451D01*
X510737Y309907D01*
X511722Y310892D01*
X512255Y312178D01*
Y313571D01*
X511722Y314857D01*
X510737Y315842D01*
X509451Y316375D01*
D02*
G37*
G36*
X693180Y310793D02*
X691788D01*
X690501Y310260D01*
X689517Y309276D01*
X688984Y307990D01*
Y306597D01*
X689517Y305311D01*
X690501Y304326D01*
X691788Y303793D01*
X693180D01*
X694467Y304326D01*
X695451Y305311D01*
X695984Y306597D01*
Y307990D01*
X695451Y309276D01*
X694467Y310260D01*
X693180Y310793D01*
D02*
G37*
G36*
X530846Y310644D02*
X529454D01*
X528167Y310111D01*
X527183Y309126D01*
X526650Y307840D01*
Y306448D01*
X527183Y305161D01*
X528167Y304177D01*
X529454Y303644D01*
X530846D01*
X532132Y304177D01*
X533117Y305161D01*
X533650Y306448D01*
Y307840D01*
X533117Y309126D01*
X532132Y310111D01*
X530846Y310644D01*
D02*
G37*
G36*
X517846Y310483D02*
X516454D01*
X515167Y309950D01*
X514183Y308965D01*
X513650Y307679D01*
Y306286D01*
X514183Y305000D01*
X515167Y304015D01*
X516454Y303482D01*
X517846D01*
X519132Y304015D01*
X520117Y305000D01*
X520650Y306286D01*
Y307679D01*
X520117Y308965D01*
X519132Y309950D01*
X517846Y310483D01*
D02*
G37*
G36*
X350666Y306376D02*
X349274D01*
X347987Y305844D01*
X347003Y304859D01*
X346470Y303573D01*
Y302180D01*
X347003Y300894D01*
X347987Y299909D01*
X349274Y299376D01*
X350666D01*
X351953Y299909D01*
X352937Y300894D01*
X353470Y302180D01*
Y303573D01*
X352937Y304859D01*
X351953Y305844D01*
X350666Y306376D01*
D02*
G37*
G36*
X695734Y298428D02*
X694342D01*
X693056Y297896D01*
X692298Y297138D01*
X691541Y297896D01*
X690255Y298428D01*
X688862D01*
X687576Y297896D01*
X686591Y296911D01*
X686059Y295625D01*
Y294232D01*
X686591Y292946D01*
X687576Y291961D01*
X688862Y291429D01*
X690255D01*
X691541Y291961D01*
X692298Y292719D01*
X693056Y291961D01*
X694342Y291429D01*
X695734D01*
X697021Y291961D01*
X698006Y292946D01*
X698538Y294232D01*
Y295625D01*
X698006Y296911D01*
X697021Y297896D01*
X695734Y298428D01*
D02*
G37*
G36*
X363452Y298909D02*
X362060D01*
X360773Y298376D01*
X359789Y297392D01*
X359256Y296105D01*
Y294713D01*
X359789Y293427D01*
X360773Y292442D01*
X362060Y291909D01*
X363452D01*
X364738Y292442D01*
X365723Y293427D01*
X366256Y294713D01*
Y296105D01*
X365723Y297392D01*
X364738Y298376D01*
X363452Y298909D01*
D02*
G37*
G36*
X225248Y280360D02*
X223855D01*
X222569Y279827D01*
X221584Y278843D01*
X221052Y277556D01*
Y276164D01*
X221584Y274877D01*
X222569Y273893D01*
X223855Y273360D01*
X225248D01*
X226534Y273893D01*
X227519Y274877D01*
X228052Y276164D01*
Y277556D01*
X227519Y278843D01*
X226534Y279827D01*
X225248Y280360D01*
D02*
G37*
G36*
X350666Y250420D02*
X349274D01*
X347987Y249887D01*
X347003Y248903D01*
X346470Y247616D01*
Y246224D01*
X347003Y244937D01*
X347987Y243953D01*
X349274Y243420D01*
X350666D01*
X351953Y243953D01*
X352937Y244937D01*
X353470Y246224D01*
Y247616D01*
X352937Y248903D01*
X351953Y249887D01*
X350666Y250420D01*
D02*
G37*
G36*
X245281Y224977D02*
X243888D01*
X242602Y224444D01*
X241617Y223459D01*
X241085Y222173D01*
Y220781D01*
X241617Y219494D01*
X242602Y218510D01*
X243888Y217977D01*
X245281D01*
X246567Y218510D01*
X247552Y219494D01*
X248085Y220781D01*
Y222173D01*
X247552Y223459D01*
X246567Y224444D01*
X245281Y224977D01*
D02*
G37*
G36*
X355446Y218627D02*
X354053D01*
X352767Y218094D01*
X351782Y217109D01*
X351249Y215823D01*
Y214431D01*
X351782Y213144D01*
X352767Y212160D01*
X354053Y211627D01*
X355446D01*
X356732Y212160D01*
X357716Y213144D01*
X358249Y214431D01*
Y215823D01*
X357716Y217109D01*
X356732Y218094D01*
X355446Y218627D01*
D02*
G37*
G36*
X168833Y206373D02*
X166446D01*
X164241Y205460D01*
X162553Y203772D01*
X161640Y201567D01*
Y199180D01*
X162553Y196974D01*
X164241Y195287D01*
X166446Y194373D01*
X168833D01*
X171039Y195287D01*
X172726Y196974D01*
X173640Y199180D01*
Y201567D01*
X172726Y203772D01*
X171039Y205460D01*
X168833Y206373D01*
D02*
G37*
G36*
X130014D02*
X127626D01*
X125421Y205460D01*
X123733Y203772D01*
X122820Y201567D01*
Y199180D01*
X123733Y196974D01*
X125421Y195287D01*
X127626Y194373D01*
X130014D01*
X132219Y195287D01*
X133906Y196974D01*
X134820Y199180D01*
Y201567D01*
X133906Y203772D01*
X132219Y205460D01*
X130014Y206373D01*
D02*
G37*
G36*
X581366Y184257D02*
X579973D01*
X578687Y183724D01*
X577703Y182740D01*
X577170Y181453D01*
Y180061D01*
X577703Y178774D01*
X578445Y178032D01*
X578589Y177274D01*
X578445Y176515D01*
X577703Y175773D01*
X577170Y174486D01*
Y173094D01*
X577703Y171808D01*
X578687Y170823D01*
X579973Y170290D01*
X581366D01*
X582652Y170823D01*
X583637Y171808D01*
X584170Y173094D01*
Y174486D01*
X583637Y175773D01*
X582894Y176515D01*
X582750Y177274D01*
X582894Y178032D01*
X583637Y178774D01*
X584170Y180061D01*
Y181453D01*
X583637Y182740D01*
X582652Y183724D01*
X581366Y184257D01*
D02*
G37*
G36*
X747787Y178300D02*
X746395D01*
X745108Y177767D01*
X744124Y176783D01*
X743591Y175496D01*
Y174104D01*
X744124Y172817D01*
X744451Y172490D01*
X744124Y172163D01*
X743591Y170876D01*
Y169484D01*
X744124Y168197D01*
X745108Y167213D01*
X746395Y166680D01*
X747787D01*
X749074Y167213D01*
X750058Y168197D01*
X750591Y169484D01*
Y170876D01*
X750058Y172163D01*
X749731Y172490D01*
X750058Y172817D01*
X750591Y174104D01*
Y175496D01*
X750058Y176783D01*
X749074Y177767D01*
X747787Y178300D01*
D02*
G37*
G36*
X457711Y164669D02*
X456318D01*
X455032Y164136D01*
X454048Y163152D01*
X452676D01*
X451692Y164136D01*
X450405Y164669D01*
X449013D01*
X447727Y164136D01*
X446742Y163152D01*
X446209Y161865D01*
Y160473D01*
X446742Y159187D01*
X447727Y158202D01*
X449013Y157669D01*
X450405D01*
X451692Y158202D01*
X452676Y159187D01*
X454048D01*
X455032Y158202D01*
X456318Y157669D01*
X457711D01*
X458997Y158202D01*
X459982Y159187D01*
X460515Y160473D01*
Y161865D01*
X459982Y163152D01*
X458997Y164136D01*
X457711Y164669D01*
D02*
G37*
G36*
X239807Y154500D02*
X238415D01*
X237128Y153968D01*
X236144Y152983D01*
X235611Y151697D01*
Y150304D01*
X236144Y149018D01*
X237128Y148033D01*
X238415Y147500D01*
X239807D01*
X241093Y148033D01*
X242078Y149018D01*
X242611Y150304D01*
Y151697D01*
X242078Y152983D01*
X241093Y153968D01*
X239807Y154500D01*
D02*
G37*
G36*
X353377Y154000D02*
X351985D01*
X350698Y153467D01*
X349714Y152482D01*
X349181Y151196D01*
Y149803D01*
X349714Y148517D01*
X350698Y147532D01*
X351985Y147000D01*
X353377D01*
X354663Y147532D01*
X355648Y148517D01*
X356181Y149803D01*
Y151196D01*
X355648Y152482D01*
X354663Y153467D01*
X353377Y154000D01*
D02*
G37*
G36*
X326406Y148820D02*
X325014D01*
X323727Y148287D01*
X322743Y147303D01*
X322210Y146016D01*
Y144624D01*
X322743Y143337D01*
X323727Y142353D01*
X325014Y141820D01*
X326406D01*
X327693Y142353D01*
X328677Y143337D01*
X329210Y144624D01*
Y146016D01*
X328677Y147303D01*
X327693Y148287D01*
X326406Y148820D01*
D02*
G37*
G36*
X387579Y143240D02*
X386187D01*
X384901Y142707D01*
X383916Y141723D01*
X383383Y140436D01*
Y139044D01*
X383916Y137757D01*
X384901Y136773D01*
X386187Y136240D01*
X387579D01*
X388866Y136773D01*
X389850Y137757D01*
X390383Y139044D01*
Y140436D01*
X389850Y141723D01*
X388866Y142707D01*
X387579Y143240D01*
D02*
G37*
G36*
X168833Y139120D02*
X166446D01*
X164241Y138206D01*
X162553Y136518D01*
X161640Y134313D01*
Y131926D01*
X162553Y129721D01*
X164241Y128033D01*
X166446Y127120D01*
X168833D01*
X171039Y128033D01*
X172726Y129721D01*
X173640Y131926D01*
Y134313D01*
X172726Y136518D01*
X171039Y138206D01*
X168833Y139120D01*
D02*
G37*
G36*
X130014D02*
X127626D01*
X125421Y138206D01*
X123733Y136518D01*
X122820Y134313D01*
Y131926D01*
X123733Y129721D01*
X125421Y128033D01*
X127626Y127120D01*
X130014D01*
X132219Y128033D01*
X133906Y129721D01*
X134820Y131926D01*
Y134313D01*
X133906Y136518D01*
X132219Y138206D01*
X130014Y139120D01*
D02*
G37*
G36*
X91194D02*
X88806D01*
X86601Y138206D01*
X84913Y136518D01*
X84000Y134313D01*
Y131926D01*
X84913Y129721D01*
X86601Y128033D01*
X88806Y127120D01*
X91194D01*
X93399Y128033D01*
X95087Y129721D01*
X96000Y131926D01*
Y134313D01*
X95087Y136518D01*
X93399Y138206D01*
X91194Y139120D01*
D02*
G37*
G36*
X387579Y130379D02*
X386187D01*
X384901Y129846D01*
X383916Y128862D01*
X383383Y127575D01*
Y126183D01*
X383916Y124896D01*
X384901Y123912D01*
X385226Y123777D01*
X385350Y123235D01*
X385345Y122353D01*
X384528Y121537D01*
X383995Y120250D01*
Y118858D01*
X384528Y117571D01*
X385512Y116587D01*
X386799Y116054D01*
X388191D01*
X389478Y116587D01*
X390462Y117571D01*
X390995Y118858D01*
Y120250D01*
X390462Y121537D01*
X389478Y122521D01*
X389152Y122656D01*
X389029Y123198D01*
X389034Y124080D01*
X389850Y124896D01*
X390383Y126183D01*
Y127575D01*
X389850Y128862D01*
X388866Y129846D01*
X387579Y130379D01*
D02*
G37*
G36*
X378733Y113990D02*
X377340D01*
X376054Y113457D01*
X375069Y112473D01*
X374537Y111186D01*
Y109794D01*
X375069Y108507D01*
X376054Y107523D01*
X377340Y106990D01*
X378733D01*
X380019Y107523D01*
X381004Y108507D01*
X381536Y109794D01*
Y111186D01*
X381004Y112473D01*
X380019Y113457D01*
X378733Y113990D01*
D02*
G37*
G36*
X353376D02*
X351984D01*
X350697Y113457D01*
X349713Y112473D01*
X349180Y111186D01*
Y109794D01*
X349713Y108507D01*
X350697Y107523D01*
X351984Y106990D01*
X353376D01*
X354663Y107523D01*
X355647Y108507D01*
X356180Y109794D01*
Y111186D01*
X355647Y112473D01*
X354663Y113457D01*
X353376Y113990D01*
D02*
G37*
G36*
X334769Y99010D02*
X333377D01*
X332091Y98477D01*
X331106Y97493D01*
X330573Y96206D01*
Y94814D01*
X331106Y93527D01*
X332091Y92543D01*
X333377Y92010D01*
X334769D01*
X336056Y92543D01*
X337040Y93527D01*
X337573Y94814D01*
Y96206D01*
X337040Y97493D01*
X336056Y98477D01*
X334769Y99010D01*
D02*
G37*
G36*
X442276Y96620D02*
X440883D01*
X439597Y96087D01*
X438612Y95102D01*
X438079Y93816D01*
Y92423D01*
X438612Y91137D01*
X439597Y90152D01*
X440883Y89620D01*
X442276D01*
X443562Y90152D01*
X444547Y91137D01*
X445079Y92423D01*
Y93816D01*
X444547Y95102D01*
X443562Y96087D01*
X442276Y96620D01*
D02*
G37*
G36*
X361376D02*
X359984D01*
X358697Y96087D01*
X357713Y95102D01*
X357180Y93816D01*
Y92423D01*
X357713Y91137D01*
X358697Y90152D01*
X359984Y89620D01*
X361376D01*
X362663Y90152D01*
X363647Y91137D01*
X364180Y92423D01*
Y93816D01*
X363647Y95102D01*
X362663Y96087D01*
X361376Y96620D01*
D02*
G37*
G36*
X304437Y86010D02*
X303045D01*
X301758Y85477D01*
X300774Y84493D01*
X300241Y83206D01*
Y81814D01*
X300774Y80527D01*
X301758Y79543D01*
X303045Y79010D01*
X304437D01*
X305723Y79543D01*
X306708Y80527D01*
X307241Y81814D01*
Y83206D01*
X306708Y84493D01*
X305723Y85477D01*
X304437Y86010D01*
D02*
G37*
G36*
X334769Y79510D02*
X333377D01*
X332091Y78977D01*
X331106Y77993D01*
X330573Y76706D01*
Y75314D01*
X331106Y74028D01*
X332091Y73043D01*
X333377Y72510D01*
X334769D01*
X336056Y73043D01*
X337040Y74028D01*
X337573Y75314D01*
Y76706D01*
X337040Y77993D01*
X336056Y78977D01*
X334769Y79510D01*
D02*
G37*
G36*
X361376Y77700D02*
X359984D01*
X358697Y77167D01*
X357713Y76183D01*
X357180Y74896D01*
Y73504D01*
X357713Y72217D01*
X358697Y71233D01*
X359984Y70700D01*
X361376D01*
X362663Y71233D01*
X363647Y72217D01*
X364180Y73504D01*
Y74896D01*
X363647Y76183D01*
X362663Y77167D01*
X361376Y77700D01*
D02*
G37*
G36*
X513969Y69570D02*
X512191D01*
X510475Y69110D01*
X508935Y68221D01*
X507679Y66965D01*
X507463Y66592D01*
X505997D01*
X505781Y66965D01*
X504525Y68221D01*
X502985Y69110D01*
X501269Y69570D01*
X499491D01*
X497775Y69110D01*
X496235Y68221D01*
X494979Y66965D01*
X494763Y66592D01*
X493297D01*
X493279Y66623D01*
X492048Y65392D01*
X490252Y67188D01*
X491483Y68419D01*
X490285Y69110D01*
X488569Y69570D01*
X486791D01*
X485075Y69110D01*
X483877Y68419D01*
X485108Y67188D01*
X483312Y65392D01*
X482081Y66623D01*
X481390Y65426D01*
X480930Y63709D01*
Y61931D01*
X481390Y60215D01*
X482081Y59017D01*
X483312Y60248D01*
X485108Y58452D01*
X483877Y57221D01*
X485075Y56530D01*
X486791Y56070D01*
X488569D01*
X490285Y56530D01*
X491483Y57221D01*
X490252Y58452D01*
X492048Y60248D01*
X493279Y59017D01*
X493297Y59049D01*
X494763D01*
X494979Y58675D01*
X496235Y57419D01*
X497775Y56530D01*
X499491Y56070D01*
X501269D01*
X502985Y56530D01*
X504525Y57419D01*
X505781Y58675D01*
X505997Y59049D01*
X507463D01*
X507679Y58675D01*
X508935Y57419D01*
X510475Y56530D01*
X512191Y56070D01*
X513969D01*
X515685Y56530D01*
X517225Y57419D01*
X518481Y58675D01*
X519370Y60215D01*
X519830Y61931D01*
Y63709D01*
X519370Y65426D01*
X518481Y66965D01*
X517225Y68221D01*
X515685Y69110D01*
X513969Y69570D01*
D02*
G37*
G36*
X341849Y73010D02*
X340457D01*
X339171Y72477D01*
X338186Y71493D01*
X337653Y70206D01*
Y68814D01*
X338186Y67527D01*
X339171Y66543D01*
X340457Y66010D01*
X341849D01*
X343136Y66543D01*
X344120Y67527D01*
X344653Y68814D01*
Y70206D01*
X344120Y71493D01*
X343136Y72477D01*
X341849Y73010D01*
D02*
G37*
G36*
X130014Y71866D02*
X127626D01*
X125421Y70953D01*
X123733Y69265D01*
X122820Y67060D01*
Y64673D01*
X123733Y62467D01*
X125421Y60780D01*
X127626Y59866D01*
X130014D01*
X132219Y60780D01*
X133906Y62467D01*
X134820Y64673D01*
Y67060D01*
X133906Y69265D01*
X132219Y70953D01*
X130014Y71866D01*
D02*
G37*
G36*
X91194D02*
X88806D01*
X86601Y70953D01*
X84913Y69265D01*
X84000Y67060D01*
Y64673D01*
X84913Y62467D01*
X86601Y60780D01*
X88806Y59866D01*
X91194D01*
X93399Y60780D01*
X95087Y62467D01*
X96000Y64673D01*
Y67060D01*
X95087Y69265D01*
X93399Y70953D01*
X91194Y71866D01*
D02*
G37*
G36*
X633106Y64171D02*
X631714D01*
X630427Y63638D01*
X629443Y62653D01*
X628910Y61367D01*
Y59975D01*
X629443Y58688D01*
X630427Y57704D01*
X631714Y57171D01*
X633106D01*
X634393Y57704D01*
X635377Y58688D01*
X635910Y59975D01*
Y61367D01*
X635377Y62653D01*
X634393Y63638D01*
X633106Y64171D01*
D02*
G37*
G36*
X341849Y60010D02*
X340457D01*
X339171Y59477D01*
X338186Y58493D01*
X337653Y57206D01*
Y55814D01*
X338186Y54527D01*
X339171Y53543D01*
X340457Y53010D01*
X341849D01*
X343136Y53543D01*
X344120Y54527D01*
X344653Y55814D01*
Y57206D01*
X344120Y58493D01*
X343136Y59477D01*
X341849Y60010D01*
D02*
G37*
G36*
X233245Y54300D02*
X231852D01*
X230566Y53767D01*
X229581Y52783D01*
X229048Y51496D01*
Y50104D01*
X229581Y48817D01*
X230566Y47833D01*
X231852Y47300D01*
X233245D01*
X234531Y47833D01*
X235515Y48817D01*
X236048Y50104D01*
Y51496D01*
X235515Y52783D01*
X234531Y53767D01*
X233245Y54300D01*
D02*
G37*
G36*
X823842Y840620D02*
X821845Y840620D01*
X822542Y838937D01*
X820195Y837965D01*
X819498Y839648D01*
X818085Y838235D01*
X817248Y836214D01*
X817248Y834216D01*
X818931Y834913D01*
X819903Y832567D01*
X818220Y831870D01*
X819633Y830457D01*
X821654Y829620D01*
X823652Y829620D01*
X822955Y831302D01*
X825301Y832274D01*
X825998Y830592D01*
X827411Y832004D01*
X828248Y834026D01*
X828248Y836023D01*
X826566Y835327D01*
X825594Y837673D01*
X827276Y838370D01*
X825864Y839782D01*
X823842Y840620D01*
D02*
G37*
G36*
X804158Y840620D02*
X802136Y839783D01*
X800724Y838370D01*
X802406Y837673D01*
X801434Y835327D01*
X799752Y836023D01*
X799752Y834026D01*
X800589Y832004D01*
X802002Y830592D01*
X802699Y832274D01*
X805045Y831302D01*
X804348Y829620D01*
X806346Y829620D01*
X808367Y830457D01*
X809780Y831870D01*
X808097Y832567D01*
X809069Y834913D01*
X810752Y834216D01*
X810752Y836214D01*
X809914Y838235D01*
X808502Y839648D01*
X807805Y837965D01*
X805459Y838937D01*
X806155Y840620D01*
X804158Y840620D01*
D02*
G37*
G36*
X793974Y828248D02*
X791977Y828248D01*
X792673Y826566D01*
X790327Y825594D01*
X789630Y827276D01*
X788217Y825864D01*
X787380Y823842D01*
X787380Y821845D01*
X789063Y822542D01*
X790035Y820195D01*
X788352Y819498D01*
X789765Y818085D01*
X791786Y817248D01*
X793784Y817248D01*
X793087Y818931D01*
X795433Y819903D01*
X796130Y818220D01*
X797543Y819633D01*
X798380Y821654D01*
X798380Y823652D01*
X796698Y822955D01*
X795726Y825301D01*
X797408Y825998D01*
X795996Y827411D01*
X793974Y828248D01*
D02*
G37*
G36*
X834026D02*
X832004Y827411D01*
X830592Y825998D01*
X832274Y825301D01*
X831302Y822955D01*
X829620Y823652D01*
X829620Y821654D01*
X830457Y819633D01*
X831870Y818220D01*
X832567Y819903D01*
X834913Y818931D01*
X834216Y817248D01*
X836214Y817248D01*
X838235Y818085D01*
X839648Y819498D01*
X837965Y820195D01*
X838937Y822542D01*
X840620Y821845D01*
X840620Y823842D01*
X839783Y825864D01*
X838370Y827276D01*
X837673Y825594D01*
X835327Y826566D01*
X836023Y828248D01*
X834026Y828248D01*
D02*
G37*
G36*
X836214Y810752D02*
X834216Y810752D01*
X834913Y809069D01*
X832567Y808097D01*
X831870Y809780D01*
X830457Y808367D01*
X829620Y806346D01*
X829620Y804348D01*
X831302Y805045D01*
X832274Y802699D01*
X830592Y802002D01*
X832004Y800589D01*
X834026Y799752D01*
X836023Y799752D01*
X835327Y801434D01*
X837673Y802406D01*
X838370Y800724D01*
X839782Y802136D01*
X840620Y804158D01*
X840620Y806155D01*
X838937Y805459D01*
X837965Y807805D01*
X839648Y808502D01*
X838235Y809914D01*
X836214Y810752D01*
D02*
G37*
G36*
X791786D02*
X789765Y809914D01*
X788352Y808502D01*
X790035Y807805D01*
X789063Y805459D01*
X787380Y806155D01*
X787380Y804158D01*
X788217Y802136D01*
X789630Y800724D01*
X790327Y802406D01*
X792673Y801434D01*
X791977Y799752D01*
X793974Y799752D01*
X795996Y800589D01*
X797408Y802002D01*
X795726Y802699D01*
X796698Y805045D01*
X798380Y804348D01*
X798380Y806346D01*
X797543Y808367D01*
X796130Y809780D01*
X795433Y808097D01*
X793087Y809069D01*
X793784Y810752D01*
X791786Y810752D01*
D02*
G37*
G36*
X806346Y798380D02*
X804348Y798380D01*
X805045Y796698D01*
X802699Y795726D01*
X802002Y797408D01*
X800589Y795996D01*
X799752Y793974D01*
X799752Y791977D01*
X801434Y792673D01*
X802406Y790327D01*
X800724Y789630D01*
X802136Y788217D01*
X804158Y787380D01*
X806155Y787380D01*
X805459Y789063D01*
X807805Y790035D01*
X808502Y788352D01*
X809914Y789765D01*
X810752Y791786D01*
X810752Y793784D01*
X809069Y793087D01*
X808097Y795433D01*
X809780Y796130D01*
X808367Y797543D01*
X806346Y798380D01*
D02*
G37*
G36*
X821654Y798380D02*
X819633Y797543D01*
X818220Y796130D01*
X819903Y795433D01*
X818931Y793087D01*
X817248Y793784D01*
X817248Y791786D01*
X818085Y789765D01*
X819498Y788352D01*
X820195Y790035D01*
X822542Y789063D01*
X821845Y787380D01*
X823842Y787380D01*
X825864Y788217D01*
X827276Y789630D01*
X825594Y790327D01*
X826566Y792673D01*
X828248Y791977D01*
X828248Y793974D01*
X827411Y795996D01*
X825998Y797408D01*
X825301Y795726D01*
X822955Y796698D01*
X823652Y798380D01*
X821654Y798380D01*
D02*
G37*
G36*
X45842Y840620D02*
X43845Y840620D01*
X44542Y838937D01*
X42195Y837965D01*
X41498Y839648D01*
X40086Y838235D01*
X39248Y836214D01*
X39248Y834216D01*
X40931Y834913D01*
X41903Y832567D01*
X40220Y831870D01*
X41633Y830457D01*
X43654Y829620D01*
X45652Y829620D01*
X44955Y831302D01*
X47301Y832274D01*
X47998Y830592D01*
X49411Y832004D01*
X50248Y834026D01*
X50248Y836023D01*
X48566Y835327D01*
X47594Y837673D01*
X49276Y838370D01*
X47864Y839782D01*
X45842Y840620D01*
D02*
G37*
G36*
X26158Y840620D02*
X24136Y839783D01*
X22724Y838370D01*
X24406Y837673D01*
X23434Y835327D01*
X21752Y836023D01*
X21752Y834026D01*
X22589Y832004D01*
X24002Y830592D01*
X24699Y832274D01*
X27045Y831302D01*
X26348Y829620D01*
X28346Y829620D01*
X30367Y830457D01*
X31780Y831870D01*
X30097Y832567D01*
X31069Y834913D01*
X32752Y834216D01*
X32752Y836214D01*
X31915Y838235D01*
X30502Y839648D01*
X29805Y837965D01*
X27459Y838937D01*
X28155Y840620D01*
X26158Y840620D01*
D02*
G37*
G36*
X15974Y828248D02*
X13977Y828248D01*
X14674Y826566D01*
X12327Y825594D01*
X11630Y827276D01*
X10217Y825864D01*
X9380Y823842D01*
X9380Y821845D01*
X11063Y822542D01*
X12035Y820195D01*
X10352Y819498D01*
X11765Y818085D01*
X13786Y817248D01*
X15784Y817248D01*
X15087Y818931D01*
X17433Y819903D01*
X18130Y818220D01*
X19543Y819633D01*
X20380Y821654D01*
X20380Y823652D01*
X18698Y822955D01*
X17726Y825301D01*
X19408Y825998D01*
X17996Y827411D01*
X15974Y828248D01*
D02*
G37*
G36*
X56026D02*
X54004Y827411D01*
X52592Y825998D01*
X54274Y825301D01*
X53302Y822955D01*
X51620Y823652D01*
X51620Y821654D01*
X52457Y819633D01*
X53870Y818220D01*
X54567Y819903D01*
X56913Y818931D01*
X56216Y817248D01*
X58214Y817248D01*
X60235Y818085D01*
X61648Y819498D01*
X59965Y820195D01*
X60937Y822542D01*
X62620Y821845D01*
X62620Y823842D01*
X61783Y825864D01*
X60370Y827276D01*
X59673Y825594D01*
X57326Y826566D01*
X58023Y828248D01*
X56026Y828248D01*
D02*
G37*
G36*
X58214Y810752D02*
X56216Y810752D01*
X56913Y809069D01*
X54567Y808097D01*
X53870Y809780D01*
X52457Y808367D01*
X51620Y806346D01*
X51620Y804348D01*
X53302Y805045D01*
X54274Y802699D01*
X52592Y802002D01*
X54004Y800589D01*
X56026Y799752D01*
X58023Y799752D01*
X57326Y801434D01*
X59673Y802406D01*
X60370Y800724D01*
X61783Y802136D01*
X62620Y804158D01*
X62620Y806155D01*
X60937Y805459D01*
X59965Y807805D01*
X61648Y808502D01*
X60235Y809914D01*
X58214Y810752D01*
D02*
G37*
G36*
X13786D02*
X11765Y809914D01*
X10352Y808502D01*
X12035Y807805D01*
X11063Y805459D01*
X9380Y806155D01*
X9380Y804158D01*
X10217Y802136D01*
X11630Y800724D01*
X12327Y802406D01*
X14674Y801434D01*
X13977Y799752D01*
X15974Y799752D01*
X17996Y800589D01*
X19408Y802002D01*
X17726Y802699D01*
X18698Y805045D01*
X20380Y804348D01*
X20380Y806346D01*
X19543Y808367D01*
X18130Y809780D01*
X17433Y808097D01*
X15087Y809069D01*
X15784Y810752D01*
X13786Y810752D01*
D02*
G37*
G36*
X28346Y798380D02*
X26348Y798380D01*
X27045Y796698D01*
X24699Y795726D01*
X24002Y797408D01*
X22589Y795996D01*
X21752Y793974D01*
X21752Y791977D01*
X23434Y792673D01*
X24406Y790327D01*
X22724Y789630D01*
X24136Y788217D01*
X26158Y787380D01*
X28155Y787380D01*
X27459Y789063D01*
X29805Y790035D01*
X30502Y788352D01*
X31915Y789765D01*
X32752Y791786D01*
X32752Y793784D01*
X31069Y793087D01*
X30097Y795433D01*
X31780Y796130D01*
X30367Y797543D01*
X28346Y798380D01*
D02*
G37*
G36*
X43654Y798380D02*
X41633Y797543D01*
X40220Y796130D01*
X41903Y795433D01*
X40931Y793087D01*
X39248Y793784D01*
X39248Y791786D01*
X40086Y789765D01*
X41498Y788352D01*
X42195Y790035D01*
X44542Y789063D01*
X43845Y787380D01*
X45842Y787380D01*
X47864Y788217D01*
X49276Y789630D01*
X47594Y790327D01*
X48566Y792673D01*
X50248Y791977D01*
X50248Y793974D01*
X49411Y795996D01*
X47998Y797408D01*
X47301Y795726D01*
X44955Y796698D01*
X45652Y798380D01*
X43654Y798380D01*
D02*
G37*
G36*
X823842Y62620D02*
X821845Y62620D01*
X822542Y60937D01*
X820195Y59965D01*
X819498Y61648D01*
X818085Y60235D01*
X817248Y58214D01*
X817248Y56216D01*
X818931Y56913D01*
X819903Y54567D01*
X818220Y53870D01*
X819633Y52457D01*
X821654Y51620D01*
X823652Y51620D01*
X822955Y53302D01*
X825301Y54274D01*
X825998Y52592D01*
X827411Y54004D01*
X828248Y56026D01*
X828248Y58023D01*
X826566Y57326D01*
X825594Y59673D01*
X827276Y60370D01*
X825864Y61783D01*
X823842Y62620D01*
D02*
G37*
G36*
X804158Y62620D02*
X802136Y61783D01*
X800724Y60370D01*
X802406Y59673D01*
X801434Y57326D01*
X799752Y58023D01*
X799752Y56026D01*
X800589Y54004D01*
X802002Y52592D01*
X802699Y54274D01*
X805045Y53302D01*
X804348Y51620D01*
X806346Y51620D01*
X808367Y52457D01*
X809780Y53870D01*
X808097Y54567D01*
X809069Y56913D01*
X810752Y56216D01*
X810752Y58214D01*
X809914Y60235D01*
X808502Y61648D01*
X807805Y59965D01*
X805459Y60937D01*
X806155Y62620D01*
X804158Y62620D01*
D02*
G37*
G36*
X793974Y50248D02*
X791977Y50248D01*
X792673Y48566D01*
X790327Y47594D01*
X789630Y49276D01*
X788217Y47864D01*
X787380Y45842D01*
X787380Y43845D01*
X789063Y44542D01*
X790035Y42195D01*
X788352Y41498D01*
X789765Y40086D01*
X791786Y39248D01*
X793784Y39248D01*
X793087Y40931D01*
X795433Y41903D01*
X796130Y40220D01*
X797543Y41633D01*
X798380Y43654D01*
X798380Y45652D01*
X796698Y44955D01*
X795726Y47301D01*
X797408Y47998D01*
X795996Y49411D01*
X793974Y50248D01*
D02*
G37*
G36*
X834026D02*
X832004Y49411D01*
X830592Y47998D01*
X832274Y47301D01*
X831302Y44955D01*
X829620Y45652D01*
X829620Y43654D01*
X830457Y41633D01*
X831870Y40220D01*
X832567Y41903D01*
X834913Y40931D01*
X834216Y39248D01*
X836214Y39248D01*
X838235Y40086D01*
X839648Y41498D01*
X837965Y42195D01*
X838937Y44542D01*
X840620Y43845D01*
X840620Y45842D01*
X839783Y47864D01*
X838370Y49276D01*
X837673Y47594D01*
X835327Y48566D01*
X836023Y50248D01*
X834026Y50248D01*
D02*
G37*
G36*
X836214Y32752D02*
X834216Y32752D01*
X834913Y31069D01*
X832567Y30097D01*
X831870Y31780D01*
X830457Y30367D01*
X829620Y28346D01*
X829620Y26348D01*
X831302Y27045D01*
X832274Y24699D01*
X830592Y24002D01*
X832004Y22589D01*
X834026Y21752D01*
X836023Y21752D01*
X835327Y23434D01*
X837673Y24406D01*
X838370Y22724D01*
X839782Y24136D01*
X840620Y26158D01*
X840620Y28155D01*
X838937Y27459D01*
X837965Y29805D01*
X839648Y30502D01*
X838235Y31915D01*
X836214Y32752D01*
D02*
G37*
G36*
X791786D02*
X789765Y31915D01*
X788352Y30502D01*
X790035Y29805D01*
X789063Y27459D01*
X787380Y28155D01*
X787380Y26158D01*
X788217Y24136D01*
X789630Y22724D01*
X790327Y24406D01*
X792673Y23434D01*
X791977Y21752D01*
X793974Y21752D01*
X795996Y22589D01*
X797408Y24002D01*
X795726Y24699D01*
X796698Y27045D01*
X798380Y26348D01*
X798380Y28346D01*
X797543Y30367D01*
X796130Y31780D01*
X795433Y30097D01*
X793087Y31069D01*
X793784Y32752D01*
X791786Y32752D01*
D02*
G37*
G36*
X806346Y20380D02*
X804348Y20380D01*
X805045Y18698D01*
X802699Y17726D01*
X802002Y19408D01*
X800589Y17996D01*
X799752Y15974D01*
X799752Y13977D01*
X801434Y14674D01*
X802406Y12327D01*
X800724Y11630D01*
X802136Y10217D01*
X804158Y9380D01*
X806155Y9380D01*
X805459Y11063D01*
X807805Y12035D01*
X808502Y10352D01*
X809914Y11765D01*
X810752Y13786D01*
X810752Y15784D01*
X809069Y15087D01*
X808097Y17433D01*
X809780Y18130D01*
X808367Y19543D01*
X806346Y20380D01*
D02*
G37*
G36*
X821654Y20380D02*
X819633Y19543D01*
X818220Y18130D01*
X819903Y17433D01*
X818931Y15087D01*
X817248Y15784D01*
X817248Y13786D01*
X818085Y11765D01*
X819498Y10352D01*
X820195Y12035D01*
X822542Y11063D01*
X821845Y9380D01*
X823842Y9380D01*
X825864Y10217D01*
X827276Y11630D01*
X825594Y12327D01*
X826566Y14674D01*
X828248Y13977D01*
X828248Y15974D01*
X827411Y17996D01*
X825998Y19408D01*
X825301Y17726D01*
X822955Y18698D01*
X823652Y20380D01*
X821654Y20380D01*
D02*
G37*
G36*
X45842Y62620D02*
X43845Y62620D01*
X44542Y60937D01*
X42195Y59965D01*
X41498Y61648D01*
X40086Y60235D01*
X39248Y58214D01*
X39248Y56216D01*
X40931Y56913D01*
X41903Y54567D01*
X40220Y53870D01*
X41633Y52457D01*
X43654Y51620D01*
X45652Y51620D01*
X44955Y53302D01*
X47301Y54274D01*
X47998Y52592D01*
X49411Y54004D01*
X50248Y56026D01*
X50248Y58023D01*
X48566Y57326D01*
X47594Y59673D01*
X49276Y60370D01*
X47864Y61783D01*
X45842Y62620D01*
D02*
G37*
G36*
X26158Y62620D02*
X24136Y61783D01*
X22724Y60370D01*
X24406Y59673D01*
X23434Y57326D01*
X21752Y58023D01*
X21752Y56026D01*
X22589Y54004D01*
X24002Y52592D01*
X24699Y54274D01*
X27045Y53302D01*
X26348Y51620D01*
X28346Y51620D01*
X30367Y52457D01*
X31780Y53870D01*
X30097Y54567D01*
X31069Y56913D01*
X32752Y56216D01*
X32752Y58214D01*
X31915Y60235D01*
X30502Y61648D01*
X29805Y59965D01*
X27459Y60937D01*
X28155Y62620D01*
X26158Y62620D01*
D02*
G37*
G36*
X15974Y50248D02*
X13977Y50248D01*
X14674Y48566D01*
X12327Y47594D01*
X11630Y49276D01*
X10217Y47864D01*
X9380Y45842D01*
X9380Y43845D01*
X11063Y44542D01*
X12035Y42195D01*
X10352Y41498D01*
X11765Y40086D01*
X13786Y39248D01*
X15784Y39248D01*
X15087Y40931D01*
X17433Y41903D01*
X18130Y40220D01*
X19543Y41633D01*
X20380Y43654D01*
X20380Y45652D01*
X18698Y44955D01*
X17726Y47301D01*
X19408Y47998D01*
X17996Y49411D01*
X15974Y50248D01*
D02*
G37*
G36*
X56026D02*
X54004Y49411D01*
X52592Y47998D01*
X54274Y47301D01*
X53302Y44955D01*
X51620Y45652D01*
X51620Y43654D01*
X52457Y41633D01*
X53870Y40220D01*
X54567Y41903D01*
X56913Y40931D01*
X56216Y39248D01*
X58214Y39248D01*
X60235Y40086D01*
X61648Y41498D01*
X59965Y42195D01*
X60937Y44542D01*
X62620Y43845D01*
X62620Y45842D01*
X61783Y47864D01*
X60370Y49276D01*
X59673Y47594D01*
X57326Y48566D01*
X58023Y50248D01*
X56026Y50248D01*
D02*
G37*
G36*
X58214Y32752D02*
X56216Y32752D01*
X56913Y31069D01*
X54567Y30097D01*
X53870Y31780D01*
X52457Y30367D01*
X51620Y28346D01*
X51620Y26348D01*
X53302Y27045D01*
X54274Y24699D01*
X52592Y24002D01*
X54004Y22589D01*
X56026Y21752D01*
X58023Y21752D01*
X57326Y23434D01*
X59673Y24406D01*
X60370Y22724D01*
X61783Y24136D01*
X62620Y26158D01*
X62620Y28155D01*
X60937Y27459D01*
X59965Y29805D01*
X61648Y30502D01*
X60235Y31915D01*
X58214Y32752D01*
D02*
G37*
G36*
X13786D02*
X11765Y31915D01*
X10352Y30502D01*
X12035Y29805D01*
X11063Y27459D01*
X9380Y28155D01*
X9380Y26158D01*
X10217Y24136D01*
X11630Y22724D01*
X12327Y24406D01*
X14674Y23434D01*
X13977Y21752D01*
X15974Y21752D01*
X17996Y22589D01*
X19408Y24002D01*
X17726Y24699D01*
X18698Y27045D01*
X20380Y26348D01*
X20380Y28346D01*
X19543Y30367D01*
X18130Y31780D01*
X17433Y30097D01*
X15087Y31069D01*
X15784Y32752D01*
X13786Y32752D01*
D02*
G37*
G36*
X28346Y20380D02*
X26348Y20380D01*
X27045Y18698D01*
X24699Y17726D01*
X24002Y19408D01*
X22589Y17996D01*
X21752Y15974D01*
X21752Y13977D01*
X23434Y14674D01*
X24406Y12327D01*
X22724Y11630D01*
X24136Y10217D01*
X26158Y9380D01*
X28155Y9380D01*
X27459Y11063D01*
X29805Y12035D01*
X30502Y10352D01*
X31915Y11765D01*
X32752Y13786D01*
X32752Y15784D01*
X31069Y15087D01*
X30097Y17433D01*
X31780Y18130D01*
X30367Y19543D01*
X28346Y20380D01*
D02*
G37*
G36*
X43654Y20380D02*
X41633Y19543D01*
X40220Y18130D01*
X41903Y17433D01*
X40931Y15087D01*
X39248Y15784D01*
X39248Y13786D01*
X40086Y11765D01*
X41498Y10352D01*
X42195Y12035D01*
X44542Y11063D01*
X43845Y9380D01*
X45842Y9380D01*
X47864Y10217D01*
X49276Y11630D01*
X47594Y12327D01*
X48566Y14674D01*
X50248Y13977D01*
X50248Y15974D01*
X49411Y17996D01*
X47998Y19408D01*
X47301Y17726D01*
X44955Y18698D01*
X45652Y20380D01*
X43654Y20380D01*
D02*
G37*
%LPD*%
D39*
X817010Y515497D02*
X817307Y512860D01*
X818184Y510356D01*
X819595Y508109D01*
X821472Y506232D01*
X823719Y504821D01*
X826223Y503944D01*
X828860Y503647D01*
Y679908D02*
X826223Y679610D01*
X823719Y678734D01*
X821472Y677322D01*
X819595Y675446D01*
X818184Y673199D01*
X817307Y670694D01*
X817010Y668057D01*
X6850Y12000D02*
X7540Y9425D01*
X9425Y7540D01*
X12000Y6850D01*
X843150Y838000D02*
X842460Y840575D01*
X840575Y842460D01*
X838000Y843150D01*
X840000Y679908D02*
X842227Y680830D01*
X843150Y683057D01*
X12000Y843150D02*
X9425Y842460D01*
X7540Y840575D01*
X6850Y838000D01*
X838000Y6850D02*
X840575Y7540D01*
X842460Y9425D01*
X843150Y12000D01*
X843150Y500497D02*
X842227Y502724D01*
X840000Y503647D01*
X828017Y843150D02*
X837941D01*
X818017D02*
X828017D01*
X808017D02*
X818017D01*
X798017D02*
X808017D01*
X788017D02*
X798017D01*
X778017D02*
X788017D01*
X768017D02*
X778017D01*
X758017D02*
X768017D01*
X748017D02*
X758017D01*
X738017D02*
X748017D01*
X728017D02*
X738017D01*
X718017D02*
X728017D01*
X708017D02*
X718017D01*
X698017D02*
X708017D01*
X688017D02*
X698017D01*
X678017D02*
X688017D01*
X668017D02*
X678017D01*
X658017D02*
X668017D01*
X648017D02*
X658017D01*
X638017D02*
X648017D01*
X628017D02*
X638017D01*
X618017D02*
X628017D01*
X608017D02*
X618017D01*
X598017D02*
X608017D01*
X588017D02*
X598017D01*
X578017D02*
X588017D01*
X568017D02*
X578017D01*
X558017D02*
X568017D01*
X548017D02*
X558017D01*
X538017D02*
X548017D01*
X528017D02*
X538017D01*
X6850Y822093D02*
Y837941D01*
X518017Y843150D02*
X528017D01*
X6850Y812093D02*
Y822093D01*
X508017Y843150D02*
X518017D01*
X6850Y802093D02*
Y812093D01*
X498017Y843150D02*
X508017D01*
X6850Y792093D02*
Y802093D01*
X843150Y491390D02*
Y500497D01*
X428018Y843150D02*
X438018D01*
X488018D02*
X498017D01*
X6850Y782093D02*
Y792093D01*
X843150Y481390D02*
Y491390D01*
X418018Y843150D02*
X428018D01*
X456552D02*
X465300D01*
X474048D02*
X488018D01*
X6850Y772093D02*
Y782093D01*
X843150Y471390D02*
Y481390D01*
X408018Y843150D02*
X418018D01*
X448018D02*
X456552D01*
X465300D02*
X474048D01*
X6850Y762093D02*
Y772093D01*
X843150Y461390D02*
Y471390D01*
X398018Y843150D02*
X408018D01*
X438018D02*
X448018D01*
X6850Y752093D02*
Y762093D01*
X843150Y451390D02*
Y461390D01*
X388018Y843150D02*
X398018D01*
X6850Y742093D02*
Y752093D01*
X843150Y441390D02*
Y451390D01*
X378018Y843150D02*
X388018D01*
X6850Y732093D02*
Y742093D01*
X843150Y431390D02*
Y441390D01*
X814744Y6850D02*
X824744D01*
X838000D01*
X368018Y843150D02*
X378018D01*
X6850Y722093D02*
Y732093D01*
X843150Y421390D02*
Y431390D01*
X804744Y6850D02*
X814744D01*
X358018Y843150D02*
X368018D01*
X6850Y712093D02*
Y722093D01*
X843150Y411390D02*
Y421390D01*
X794744Y6850D02*
X804744D01*
X348018Y843150D02*
X358018D01*
X6850Y702093D02*
Y712093D01*
X843150Y401390D02*
Y411390D01*
X784744Y6850D02*
X794744D01*
X338018Y843150D02*
X348018D01*
X6850Y692093D02*
Y702093D01*
X843150Y391390D02*
Y401390D01*
X774744Y6850D02*
X784744D01*
X328018Y843150D02*
X338018D01*
X6850Y682093D02*
Y692093D01*
X843150Y381390D02*
Y391390D01*
X764744Y6850D02*
X774744D01*
X318018Y843150D02*
X328018D01*
X6850Y672093D02*
Y682093D01*
X843150Y371390D02*
Y381390D01*
X754744Y6850D02*
X764744D01*
X308018Y843150D02*
X318018D01*
X6850Y642093D02*
Y652093D01*
Y662093D02*
Y672093D01*
X843150Y361390D02*
Y371390D01*
X744744Y6850D02*
X754744D01*
X298018Y843150D02*
X308018D01*
X6850Y622094D02*
Y632094D01*
Y642093D01*
Y652093D02*
Y662093D01*
X843150Y351390D02*
Y361390D01*
X734744Y6850D02*
X744744D01*
X288018Y843150D02*
X298018D01*
X6850Y572094D02*
Y582094D01*
Y592094D02*
Y602094D01*
Y612094D02*
Y622094D01*
X843150Y341390D02*
Y351390D01*
X724744Y6850D02*
X734744D01*
X278018Y843150D02*
X288018D01*
X6850Y452094D02*
Y462094D01*
Y522094D02*
Y532094D01*
Y552094D02*
Y562094D01*
Y572094D01*
Y582094D02*
Y592094D01*
Y602094D02*
Y612094D01*
X843150Y331390D02*
Y341390D01*
X714744Y6850D02*
X724744D01*
X268018Y843150D02*
X278018D01*
X6850Y442094D02*
Y452094D01*
Y482094D02*
Y492094D01*
Y502094D01*
Y512094D02*
Y522094D01*
Y532094D02*
Y542094D01*
Y552094D01*
X843150Y321390D02*
Y331390D01*
X704744Y6850D02*
X714744D01*
X258018Y843150D02*
X268018D01*
X6850Y392094D02*
Y402094D01*
Y422094D02*
Y432094D01*
Y442094D01*
Y472094D02*
Y482094D01*
Y502094D02*
Y512094D01*
X843150Y311391D02*
Y321390D01*
X694744Y6850D02*
X704744D01*
X248018Y843150D02*
X258018D01*
X6850Y372094D02*
Y382094D01*
Y392094D01*
Y402094D02*
Y412094D01*
Y422094D01*
Y462094D02*
Y472094D01*
X843150Y301391D02*
Y311391D01*
X684744Y6850D02*
X694744D01*
X238018Y843150D02*
X248018D01*
X6850Y362094D02*
Y372094D01*
X843150Y261391D02*
Y271391D01*
Y291391D02*
Y301391D01*
X674744Y6850D02*
X684744D01*
X228018Y843150D02*
X238018D01*
X6850Y242094D02*
Y252094D01*
Y262094D01*
Y272094D01*
Y282094D01*
Y292094D01*
Y302094D01*
Y312094D02*
Y322094D01*
Y332094D01*
Y352094D02*
Y362094D01*
X843150Y221391D02*
Y231391D01*
Y241391D01*
Y251391D01*
Y261391D01*
Y281391D02*
Y291391D01*
X664744Y6850D02*
X674744D01*
X218018Y843150D02*
X228018D01*
X6850Y212094D02*
Y222094D01*
Y232094D02*
Y242094D01*
Y302094D02*
Y312094D01*
Y342094D02*
Y352094D01*
X843150Y201391D02*
Y211391D01*
Y221391D01*
Y271391D02*
Y281391D01*
X654744Y6850D02*
X664744D01*
X208018Y843150D02*
X218018D01*
X6850Y202094D02*
Y212094D01*
Y222094D02*
Y232094D01*
Y332094D02*
Y342094D01*
X843150Y191391D02*
Y201391D01*
X644744Y6850D02*
X654744D01*
X198018Y843150D02*
X208018D01*
X6850Y192094D02*
Y202094D01*
X843150Y181391D02*
Y191391D01*
X634744Y6850D02*
X644744D01*
X188018Y843150D02*
X198018D01*
X6850Y182094D02*
Y192094D01*
X843150Y171391D02*
Y181391D01*
X564744Y6850D02*
X574744D01*
X584744D01*
X624744D02*
X634744D01*
X178018Y843150D02*
X188018D01*
X6850Y172094D02*
Y182094D01*
X843150Y161391D02*
Y171391D01*
X534744Y6850D02*
X544744D01*
X554744D01*
X564744D01*
X584744D02*
X594744D01*
X604744D02*
X614744D01*
X624744D01*
X168018Y843150D02*
X178018D01*
X6850Y162094D02*
Y172094D01*
X843150Y151391D02*
Y161391D01*
X474744Y6850D02*
X484744D01*
X514744D02*
X524744D01*
X534744D01*
X594744D02*
X604744D01*
X158018Y843150D02*
X168018D01*
X6850Y152094D02*
Y162094D01*
X843150Y141391D02*
Y151391D01*
X334745Y6850D02*
X344745D01*
X464744D02*
X474744D01*
X494744D02*
X504744D01*
X514744D01*
X148018Y843150D02*
X158018D01*
X6850Y142094D02*
Y152094D01*
X843150Y826646D02*
Y838000D01*
X843150Y131391D02*
Y141391D01*
X324745Y6850D02*
X334745D01*
X425000D02*
X444744D01*
X454744D02*
X464744D01*
X484744D02*
X494744D01*
X138018Y843150D02*
X148018D01*
X6850Y132094D02*
Y142094D01*
X843150Y816646D02*
Y826646D01*
X843150Y121391D02*
Y131391D01*
X304745Y6850D02*
X314745D01*
X324745D01*
X404745D02*
X425000D01*
X444744D02*
X454744D01*
X128018Y843150D02*
X138018D01*
X6850Y122094D02*
Y132094D01*
X843150Y806646D02*
Y816646D01*
X843150Y111391D02*
Y121391D01*
X294745Y6850D02*
X304745D01*
X384745D02*
X394745D01*
X404745D01*
X118018Y843150D02*
X128018D01*
X6850Y112094D02*
Y122094D01*
X843150Y796646D02*
Y806646D01*
X843150Y101391D02*
Y111391D01*
X284745Y6850D02*
X294745D01*
X374745D02*
X384745D01*
X108018Y843150D02*
X118018D01*
X6850Y102094D02*
Y112094D01*
X843150Y786646D02*
Y796646D01*
X843150Y91391D02*
Y101391D01*
X94745Y6850D02*
X104745D01*
X224745D02*
X234745D01*
X274745D02*
X284745D01*
X364745D02*
X374745D01*
X98018Y843150D02*
X108018D01*
X6850Y92094D02*
Y102094D01*
X843150Y776646D02*
Y786646D01*
X843150Y81391D02*
Y91391D01*
X84745Y6850D02*
X94745D01*
X214745D02*
X224745D01*
X244745D02*
X254745D01*
X264745D02*
X274745D01*
X344745D02*
X354745D01*
X364745D01*
X88018Y843150D02*
X98018D01*
X6850Y82095D02*
Y92094D01*
X843150Y766646D02*
Y776646D01*
X843150Y71391D02*
Y81391D01*
X74745Y6850D02*
X84745D01*
X184745D02*
X194745D01*
X204745D02*
X214745D01*
X234745D02*
X244745D01*
X254745D02*
X264745D01*
X78018Y843150D02*
X88018D01*
X6850Y72095D02*
Y82095D01*
X843150Y756646D02*
Y766646D01*
X843150Y61391D02*
Y71391D01*
X817010Y653163D02*
Y668057D01*
X64745Y6850D02*
X74745D01*
X154745D02*
X164745D01*
X174745D02*
X184745D01*
X194745D02*
X204745D01*
X68018Y843150D02*
X78018D01*
X6850Y62095D02*
Y72095D01*
X843150Y746646D02*
Y756646D01*
X843150Y51391D02*
Y61391D01*
X817010Y633163D02*
Y643163D01*
Y653163D01*
X54745Y6850D02*
X64745D01*
X144745D02*
X154745D01*
X164745D02*
X174745D01*
X58018Y843150D02*
X68018D01*
X6850Y52095D02*
Y62095D01*
X843150Y736646D02*
Y746646D01*
X843150Y41391D02*
Y51391D01*
X817010Y593163D02*
Y603163D01*
Y623163D02*
Y633163D01*
X44745Y6850D02*
X54745D01*
X104745D02*
X114745D01*
X124745D02*
X134745D01*
X144745D01*
X48018Y843150D02*
X58018D01*
X6850Y42095D02*
Y52095D01*
X843150Y716646D02*
Y726646D01*
Y736646D01*
X843150Y31391D02*
Y41391D01*
X817010Y533163D02*
Y543163D01*
Y553163D01*
Y583163D02*
Y593163D01*
Y603163D02*
Y613163D01*
Y623163D01*
X34745Y6850D02*
X44745D01*
X114745D02*
X124745D01*
X38018Y843150D02*
X48018D01*
X6850Y32095D02*
Y42095D01*
X843150Y696646D02*
Y706646D01*
Y716646D01*
X843150Y21391D02*
Y31391D01*
X817010Y523163D02*
Y533163D01*
Y553163D02*
Y563163D01*
Y573163D01*
Y583163D01*
X24745Y6850D02*
X34745D01*
X28018Y843150D02*
X38018D01*
X6850Y22095D02*
Y32095D01*
X12000Y843150D02*
X28018D01*
X828860Y503647D02*
X840000D01*
X817010Y515497D02*
Y523163D01*
X843150Y12042D02*
Y21391D01*
X6850Y12000D02*
Y22095D01*
X828860Y679908D02*
X840000D01*
X843150Y683099D02*
Y696646D01*
X12059Y6850D02*
X24745D01*
D72*
X465300Y824000D02*
D03*
D73*
X425000Y21000D02*
D03*
D74*
X486420Y815252D02*
D03*
X456552Y802880D02*
D03*
X444180Y832748D02*
D03*
X474048Y845120D02*
D03*
X486420Y832748D02*
D03*
X474048Y802880D02*
D03*
X444180Y815252D02*
D03*
X456552Y845120D02*
D03*
D75*
X36000Y814000D02*
D03*
Y256000D02*
D03*
Y364000D02*
D03*
X814477Y256000D02*
D03*
X814000Y364000D02*
D03*
Y36000D02*
D03*
Y814000D02*
D03*
X36000Y36000D02*
D03*
D76*
X27252Y835120D02*
D03*
X14880Y805252D02*
D03*
X44748Y792880D02*
D03*
X57120Y822748D02*
D03*
X44748Y835120D02*
D03*
X14880Y822748D02*
D03*
X27252Y792880D02*
D03*
X57120Y805252D02*
D03*
X27252Y277120D02*
D03*
X14880Y247252D02*
D03*
X44748Y234880D02*
D03*
X57120Y264748D02*
D03*
X44748Y277120D02*
D03*
X14880Y264748D02*
D03*
X27252Y234880D02*
D03*
X57120Y247252D02*
D03*
X27252Y385120D02*
D03*
X14880Y355252D02*
D03*
X44748Y342880D02*
D03*
X57120Y372748D02*
D03*
X44748Y385120D02*
D03*
X14880Y372748D02*
D03*
X27252Y342880D02*
D03*
X57120Y355252D02*
D03*
X805729Y277120D02*
D03*
X793357Y247252D02*
D03*
X823225Y234880D02*
D03*
X835597Y264748D02*
D03*
X823225Y277120D02*
D03*
X793357Y264748D02*
D03*
X805729Y234880D02*
D03*
X835597Y247252D02*
D03*
X805252Y385120D02*
D03*
X792880Y355252D02*
D03*
X822748Y342880D02*
D03*
X835120Y372748D02*
D03*
X822748Y385120D02*
D03*
X792880Y372748D02*
D03*
X805252Y342880D02*
D03*
X835120Y355252D02*
D03*
X805252Y57120D02*
D03*
X792880Y27252D02*
D03*
X822748Y14880D02*
D03*
X835120Y44748D02*
D03*
X822748Y57120D02*
D03*
X792880Y44748D02*
D03*
X805252Y14880D02*
D03*
X835120Y27252D02*
D03*
X805252Y835120D02*
D03*
X792880Y805252D02*
D03*
X822748Y792880D02*
D03*
X835120Y822748D02*
D03*
X822748Y835120D02*
D03*
X792880Y822748D02*
D03*
X805252Y792880D02*
D03*
X835120Y805252D02*
D03*
X27252Y57120D02*
D03*
X14880Y27252D02*
D03*
X44748Y14880D02*
D03*
X57120Y44748D02*
D03*
X44748Y57120D02*
D03*
X14880Y44748D02*
D03*
X27252Y14880D02*
D03*
X57120Y27252D02*
D03*
D78*
X487680Y62820D02*
D03*
X500380D02*
D03*
X513080D02*
D03*
D79*
X125784Y406400D02*
D03*
X126814Y770114D02*
D03*
Y663675D02*
D03*
Y530626D02*
D03*
Y610455D02*
D03*
Y690285D02*
D03*
Y743504D02*
D03*
Y623760D02*
D03*
Y597150D02*
D03*
Y543931D02*
D03*
Y676980D02*
D03*
Y756809D02*
D03*
Y477406D02*
D03*
Y450796D02*
D03*
Y464101D02*
D03*
X100204Y344357D02*
D03*
Y317747D02*
D03*
Y304442D02*
D03*
Y331052D02*
D03*
Y397576D02*
D03*
Y370966D02*
D03*
Y384271D02*
D03*
Y357662D02*
D03*
X86899D02*
D03*
Y384271D02*
D03*
Y370966D02*
D03*
Y397576D02*
D03*
Y331052D02*
D03*
Y304442D02*
D03*
Y317747D02*
D03*
Y344357D02*
D03*
X33679Y770114D02*
D03*
Y490711D02*
D03*
Y464101D02*
D03*
Y437491D02*
D03*
Y410881D02*
D03*
Y424186D02*
D03*
Y450796D02*
D03*
Y477406D02*
D03*
Y756809D02*
D03*
Y730200D02*
D03*
Y703590D02*
D03*
Y676980D02*
D03*
Y543931D02*
D03*
Y570540D02*
D03*
Y597150D02*
D03*
Y623760D02*
D03*
Y650370D02*
D03*
Y517321D02*
D03*
Y743504D02*
D03*
Y690285D02*
D03*
Y637065D02*
D03*
Y610455D02*
D03*
Y530626D02*
D03*
Y504016D02*
D03*
Y557235D02*
D03*
Y583845D02*
D03*
Y663675D02*
D03*
Y716895D02*
D03*
X113509Y464101D02*
D03*
Y410881D02*
D03*
Y450796D02*
D03*
Y477406D02*
D03*
Y756809D02*
D03*
Y676980D02*
D03*
Y543931D02*
D03*
Y570540D02*
D03*
Y597150D02*
D03*
Y623760D02*
D03*
Y743504D02*
D03*
Y690285D02*
D03*
Y610455D02*
D03*
Y530626D02*
D03*
Y663675D02*
D03*
Y716895D02*
D03*
X100204Y490711D02*
D03*
Y464101D02*
D03*
Y437491D02*
D03*
Y410881D02*
D03*
Y424186D02*
D03*
Y450796D02*
D03*
Y477406D02*
D03*
Y756809D02*
D03*
Y730200D02*
D03*
Y703590D02*
D03*
Y676980D02*
D03*
Y543931D02*
D03*
Y570540D02*
D03*
Y597150D02*
D03*
Y623760D02*
D03*
Y650370D02*
D03*
Y517321D02*
D03*
Y743504D02*
D03*
Y690285D02*
D03*
Y637065D02*
D03*
Y610455D02*
D03*
Y530626D02*
D03*
Y504016D02*
D03*
Y557235D02*
D03*
Y583845D02*
D03*
Y663675D02*
D03*
Y716895D02*
D03*
X86899Y490711D02*
D03*
Y464101D02*
D03*
Y437491D02*
D03*
Y410881D02*
D03*
Y424186D02*
D03*
Y450796D02*
D03*
Y477406D02*
D03*
Y756809D02*
D03*
Y730200D02*
D03*
Y703590D02*
D03*
Y676980D02*
D03*
Y543931D02*
D03*
Y570540D02*
D03*
Y597150D02*
D03*
Y623760D02*
D03*
Y650370D02*
D03*
Y517321D02*
D03*
Y743504D02*
D03*
Y690285D02*
D03*
Y637065D02*
D03*
Y610455D02*
D03*
Y530626D02*
D03*
Y504016D02*
D03*
Y557235D02*
D03*
Y583845D02*
D03*
Y663675D02*
D03*
Y716895D02*
D03*
X73594Y490711D02*
D03*
Y464101D02*
D03*
Y437491D02*
D03*
Y410881D02*
D03*
Y424186D02*
D03*
Y450796D02*
D03*
Y477406D02*
D03*
Y756809D02*
D03*
Y730200D02*
D03*
Y703590D02*
D03*
Y676980D02*
D03*
Y543931D02*
D03*
Y570540D02*
D03*
Y597150D02*
D03*
Y623760D02*
D03*
Y650370D02*
D03*
Y517321D02*
D03*
Y743504D02*
D03*
Y690285D02*
D03*
Y637065D02*
D03*
Y610455D02*
D03*
Y530626D02*
D03*
Y504016D02*
D03*
Y557235D02*
D03*
Y583845D02*
D03*
Y663675D02*
D03*
Y716895D02*
D03*
X60289Y490711D02*
D03*
Y464101D02*
D03*
Y437491D02*
D03*
Y410881D02*
D03*
Y424186D02*
D03*
Y450796D02*
D03*
Y477406D02*
D03*
Y756809D02*
D03*
Y730200D02*
D03*
Y703590D02*
D03*
Y676980D02*
D03*
Y543931D02*
D03*
Y570540D02*
D03*
Y597150D02*
D03*
Y623760D02*
D03*
Y650370D02*
D03*
Y517321D02*
D03*
Y743504D02*
D03*
Y690285D02*
D03*
Y637065D02*
D03*
Y610455D02*
D03*
Y530626D02*
D03*
Y504016D02*
D03*
Y557235D02*
D03*
Y583845D02*
D03*
Y663675D02*
D03*
Y716895D02*
D03*
X113509Y770114D02*
D03*
X60289D02*
D03*
X86899D02*
D03*
X73594D02*
D03*
X100204D02*
D03*
X46985Y716895D02*
D03*
Y663675D02*
D03*
Y583845D02*
D03*
Y557235D02*
D03*
Y504016D02*
D03*
Y530626D02*
D03*
Y610455D02*
D03*
Y637065D02*
D03*
Y690285D02*
D03*
X224552Y276860D02*
D03*
X239111Y151000D02*
D03*
X677311Y689245D02*
D03*
X695397Y726579D02*
D03*
X688874Y726440D02*
D03*
X670715Y689245D02*
D03*
X390181Y552161D02*
D03*
X374785Y552299D02*
D03*
X375111Y565270D02*
D03*
X374785Y577253D02*
D03*
X427422Y306982D02*
D03*
X409460D02*
D03*
X482600Y561340D02*
D03*
X576580Y561000D02*
D03*
Y489000D02*
D03*
X585602Y424180D02*
D03*
X492262Y423952D02*
D03*
X389886Y423106D02*
D03*
X402180Y479970D02*
D03*
X305201Y496025D02*
D03*
X302743Y424400D02*
D03*
X295039Y345237D02*
D03*
X215178Y336454D02*
D03*
X214283Y409142D02*
D03*
X214999Y568660D02*
D03*
X213978Y499000D02*
D03*
X296180Y640579D02*
D03*
X389995Y633222D02*
D03*
X585960Y641511D02*
D03*
X585970Y715000D02*
D03*
X492262D02*
D03*
X305613Y712488D02*
D03*
X215208Y625045D02*
D03*
X215900Y695960D02*
D03*
X478150Y487378D02*
D03*
X679984Y551036D02*
D03*
Y568998D02*
D03*
Y512144D02*
D03*
Y530106D02*
D03*
X649480Y562374D02*
D03*
Y580336D02*
D03*
X650240Y612140D02*
D03*
Y630102D02*
D03*
Y650240D02*
D03*
Y668202D02*
D03*
X297970Y389597D02*
D03*
X222780Y387031D02*
D03*
X240742D02*
D03*
X484650Y312875D02*
D03*
X409460Y295409D02*
D03*
X427422D02*
D03*
X409460Y463517D02*
D03*
X427422D02*
D03*
X484650Y631377D02*
D03*
X409460Y607056D02*
D03*
X427422D02*
D03*
X300510Y670745D02*
D03*
X294010Y653858D02*
D03*
X225320Y675782D02*
D03*
X243282D02*
D03*
X632823Y320040D02*
D03*
X650785D02*
D03*
X614862D02*
D03*
X596900D02*
D03*
X620123Y388620D02*
D03*
X638085D02*
D03*
X602162D02*
D03*
X584200D02*
D03*
X383540Y205377D02*
D03*
Y187415D02*
D03*
Y223338D02*
D03*
Y241300D02*
D03*
X604883Y535940D02*
D03*
X622845D02*
D03*
X586922D02*
D03*
X568960D02*
D03*
X558800Y508987D02*
D03*
Y491025D02*
D03*
Y526948D02*
D03*
Y544910D02*
D03*
X612503Y673811D02*
D03*
X630465D02*
D03*
X594542D02*
D03*
X576580D02*
D03*
X368300Y609582D02*
D03*
X363220Y682093D02*
D03*
X368300Y656356D02*
D03*
Y591620D02*
D03*
Y483850D02*
D03*
Y465889D02*
D03*
Y412004D02*
D03*
Y429965D02*
D03*
Y501812D02*
D03*
X558800Y718638D02*
D03*
Y664753D02*
D03*
Y646792D02*
D03*
Y610868D02*
D03*
Y628830D02*
D03*
Y682715D02*
D03*
Y700677D02*
D03*
X559802Y433140D02*
D03*
Y379255D02*
D03*
Y361294D02*
D03*
Y307409D02*
D03*
Y325370D02*
D03*
Y343332D02*
D03*
Y415179D02*
D03*
X532835Y233799D02*
D03*
X550797D02*
D03*
X604682D02*
D03*
X586720D02*
D03*
X568759D02*
D03*
X514874D02*
D03*
X496912D02*
D03*
X550258Y276860D02*
D03*
X568219D02*
D03*
X622104D02*
D03*
X604143D02*
D03*
X586181D02*
D03*
X532296D02*
D03*
X514334D02*
D03*
X370641D02*
D03*
X424526D02*
D03*
X442488D02*
D03*
X478411D02*
D03*
X460449D02*
D03*
X406564D02*
D03*
X388603D02*
D03*
X223702Y317500D02*
D03*
X277587D02*
D03*
X295548D02*
D03*
X331472D02*
D03*
X313510D02*
D03*
X259625D02*
D03*
X241663D02*
D03*
X660400Y459558D02*
D03*
Y405673D02*
D03*
Y387712D02*
D03*
Y333826D02*
D03*
Y351788D02*
D03*
Y369750D02*
D03*
Y423635D02*
D03*
Y441597D02*
D03*
X819337Y734192D02*
D03*
Y716230D02*
D03*
X711567Y734192D02*
D03*
Y716230D02*
D03*
X801375Y698268D02*
D03*
X783414D02*
D03*
X765452D02*
D03*
X801375Y734192D02*
D03*
X783414D02*
D03*
X765452D02*
D03*
X801375Y716230D02*
D03*
X783414D02*
D03*
X765452D02*
D03*
X747490Y698268D02*
D03*
Y716230D02*
D03*
Y734192D02*
D03*
X729529Y698268D02*
D03*
Y716230D02*
D03*
Y734192D02*
D03*
X819337Y770115D02*
D03*
X801375D02*
D03*
X783414D02*
D03*
X819337Y752153D02*
D03*
X801375D02*
D03*
X783414D02*
D03*
X531950Y824000D02*
D03*
X567873D02*
D03*
X585835D02*
D03*
X729529D02*
D03*
X639720D02*
D03*
X657682D02*
D03*
X675643D02*
D03*
X693605D02*
D03*
X711567D02*
D03*
X621758D02*
D03*
X603797D02*
D03*
X549912D02*
D03*
X747490D02*
D03*
X765452D02*
D03*
Y806038D02*
D03*
X747490D02*
D03*
X549912D02*
D03*
X603797D02*
D03*
X621758D02*
D03*
X711567D02*
D03*
X693605D02*
D03*
X675643D02*
D03*
X657682D02*
D03*
X639720D02*
D03*
X729529D02*
D03*
X585835D02*
D03*
X567873D02*
D03*
X531950D02*
D03*
X460103Y752153D02*
D03*
X388256D02*
D03*
X406218D02*
D03*
X424180D02*
D03*
X442142D02*
D03*
X496027D02*
D03*
X531950D02*
D03*
X567873D02*
D03*
X585835D02*
D03*
X729529D02*
D03*
X639720D02*
D03*
X657682D02*
D03*
X675643D02*
D03*
X693605D02*
D03*
X711567D02*
D03*
X621758D02*
D03*
X603797D02*
D03*
X549912D02*
D03*
X513988D02*
D03*
X478065D02*
D03*
X747490D02*
D03*
X765452D02*
D03*
X460103Y770115D02*
D03*
X388256D02*
D03*
X406218D02*
D03*
X424180D02*
D03*
X442142D02*
D03*
X496027D02*
D03*
X531950D02*
D03*
X567873D02*
D03*
X585835D02*
D03*
X729529D02*
D03*
X639720D02*
D03*
X657682D02*
D03*
X675643D02*
D03*
X693605D02*
D03*
X711567D02*
D03*
X621758D02*
D03*
X603797D02*
D03*
X549912D02*
D03*
X513988D02*
D03*
X478065D02*
D03*
X747490D02*
D03*
X765452D02*
D03*
X370295Y752153D02*
D03*
Y770115D02*
D03*
X765452Y788077D02*
D03*
X747490D02*
D03*
X513988Y824000D02*
D03*
Y806038D02*
D03*
X226601D02*
D03*
X262525D02*
D03*
X298448D02*
D03*
X316410D02*
D03*
X370295D02*
D03*
X388256D02*
D03*
X406218D02*
D03*
X424180D02*
D03*
X352333D02*
D03*
X334371D02*
D03*
X280486D02*
D03*
X244563D02*
D03*
X208640D02*
D03*
X118831Y231264D02*
D03*
Y159418D02*
D03*
Y123494D02*
D03*
Y141456D02*
D03*
Y213303D02*
D03*
X136793Y450796D02*
D03*
Y392920D02*
D03*
Y321073D02*
D03*
Y303111D02*
D03*
Y285149D02*
D03*
Y374958D02*
D03*
Y177379D02*
D03*
Y141456D02*
D03*
Y105533D02*
D03*
Y231264D02*
D03*
X118831Y788077D02*
D03*
Y806038D02*
D03*
X136793D02*
D03*
Y770115D02*
D03*
Y752153D02*
D03*
Y608460D02*
D03*
Y680306D02*
D03*
Y788077D02*
D03*
Y536613D02*
D03*
Y464766D02*
D03*
Y523240D02*
D03*
Y594360D02*
D03*
X46985Y743504D02*
D03*
Y517321D02*
D03*
Y650370D02*
D03*
Y623760D02*
D03*
Y597150D02*
D03*
Y570540D02*
D03*
Y543931D02*
D03*
Y676980D02*
D03*
Y703590D02*
D03*
Y730200D02*
D03*
Y756809D02*
D03*
Y477406D02*
D03*
Y450796D02*
D03*
Y424186D02*
D03*
Y410881D02*
D03*
Y437491D02*
D03*
Y464101D02*
D03*
Y490711D02*
D03*
Y770114D02*
D03*
X736422Y374958D02*
D03*
X754384D02*
D03*
X718460D02*
D03*
X736422Y356996D02*
D03*
X754384D02*
D03*
X718460D02*
D03*
X736422Y339035D02*
D03*
X754384D02*
D03*
X718460D02*
D03*
X736422Y321073D02*
D03*
X754384D02*
D03*
X718460D02*
D03*
X736422Y303111D02*
D03*
X754384D02*
D03*
X718460D02*
D03*
Y392920D02*
D03*
X754384D02*
D03*
X736422D02*
D03*
X718460Y410881D02*
D03*
X754384D02*
D03*
X808269D02*
D03*
X790307D02*
D03*
X736422D02*
D03*
X718460Y428843D02*
D03*
X754384D02*
D03*
X808269D02*
D03*
X790307D02*
D03*
X736422D02*
D03*
X718460Y446805D02*
D03*
X754384D02*
D03*
X808269D02*
D03*
X790307D02*
D03*
X736422D02*
D03*
X718460Y464766D02*
D03*
X754384D02*
D03*
X808269D02*
D03*
X790307D02*
D03*
X736422D02*
D03*
X718460Y482728D02*
D03*
X754384D02*
D03*
X808269D02*
D03*
X790307D02*
D03*
X736422D02*
D03*
X826230Y177379D02*
D03*
Y159418D02*
D03*
Y105533D02*
D03*
Y87571D02*
D03*
Y123494D02*
D03*
Y141456D02*
D03*
Y195341D02*
D03*
X808269Y177379D02*
D03*
Y159418D02*
D03*
Y105533D02*
D03*
Y87571D02*
D03*
Y123494D02*
D03*
Y141456D02*
D03*
Y195341D02*
D03*
X790307Y177379D02*
D03*
Y159418D02*
D03*
Y105533D02*
D03*
Y87571D02*
D03*
Y123494D02*
D03*
Y141456D02*
D03*
Y195341D02*
D03*
X826230Y213303D02*
D03*
X790307D02*
D03*
X808269D02*
D03*
X772345Y267188D02*
D03*
Y231264D02*
D03*
Y195341D02*
D03*
Y141456D02*
D03*
Y123494D02*
D03*
Y33686D02*
D03*
Y51648D02*
D03*
Y69609D02*
D03*
Y87571D02*
D03*
Y105533D02*
D03*
Y159418D02*
D03*
Y177379D02*
D03*
Y213303D02*
D03*
Y249226D02*
D03*
Y536613D02*
D03*
Y464766D02*
D03*
Y410881D02*
D03*
Y392920D02*
D03*
Y303111D02*
D03*
Y321073D02*
D03*
Y339035D02*
D03*
Y356996D02*
D03*
Y374958D02*
D03*
Y285149D02*
D03*
Y428843D02*
D03*
Y446805D02*
D03*
Y482728D02*
D03*
Y572536D02*
D03*
Y590498D02*
D03*
Y608460D02*
D03*
Y626422D02*
D03*
Y644383D02*
D03*
Y554575D02*
D03*
X478065Y788077D02*
D03*
X513988D02*
D03*
X549912D02*
D03*
X603797D02*
D03*
X621758D02*
D03*
X711567D02*
D03*
X693605D02*
D03*
X675643D02*
D03*
X657682D02*
D03*
X639720D02*
D03*
X729529D02*
D03*
X585835D02*
D03*
X567873D02*
D03*
X531950D02*
D03*
X496027D02*
D03*
X208640D02*
D03*
X244563D02*
D03*
X280486D02*
D03*
X334371D02*
D03*
X352333D02*
D03*
X442142D02*
D03*
X424180D02*
D03*
X406218D02*
D03*
X388256D02*
D03*
X370295D02*
D03*
X460103D02*
D03*
X316410D02*
D03*
X298448D02*
D03*
X262525D02*
D03*
X226601D02*
D03*
X172716Y536613D02*
D03*
Y500690D02*
D03*
Y464766D02*
D03*
Y410881D02*
D03*
Y392920D02*
D03*
Y303111D02*
D03*
Y321073D02*
D03*
Y339035D02*
D03*
Y356996D02*
D03*
Y374958D02*
D03*
Y428843D02*
D03*
Y446805D02*
D03*
Y482728D02*
D03*
Y518651D02*
D03*
Y806038D02*
D03*
Y770115D02*
D03*
Y734192D02*
D03*
Y680306D02*
D03*
Y662345D02*
D03*
Y572536D02*
D03*
Y590498D02*
D03*
Y608460D02*
D03*
Y626422D02*
D03*
Y644383D02*
D03*
Y554575D02*
D03*
Y698268D02*
D03*
Y716230D02*
D03*
Y752153D02*
D03*
Y788077D02*
D03*
X190678Y536613D02*
D03*
Y500690D02*
D03*
Y464766D02*
D03*
Y410881D02*
D03*
Y392920D02*
D03*
Y303111D02*
D03*
Y321073D02*
D03*
Y339035D02*
D03*
Y356996D02*
D03*
Y428843D02*
D03*
Y482728D02*
D03*
Y806038D02*
D03*
Y770115D02*
D03*
Y680306D02*
D03*
Y572536D02*
D03*
Y608460D02*
D03*
Y626422D02*
D03*
Y644383D02*
D03*
Y554575D02*
D03*
Y698268D02*
D03*
Y716230D02*
D03*
Y752153D02*
D03*
Y788077D02*
D03*
X100870Y806038D02*
D03*
Y788077D02*
D03*
X82908D02*
D03*
Y806038D02*
D03*
Y824000D02*
D03*
X118831D02*
D03*
X154755D02*
D03*
X190678D02*
D03*
X208640D02*
D03*
X352333D02*
D03*
X370295D02*
D03*
X388256D02*
D03*
X406218D02*
D03*
X424180D02*
D03*
X262525D02*
D03*
X280486D02*
D03*
X298448D02*
D03*
X316410D02*
D03*
X334371D02*
D03*
X244563D02*
D03*
X226601D02*
D03*
X172716D02*
D03*
X136793D02*
D03*
X100870D02*
D03*
X457200Y365668D02*
D03*
X383540Y416488D02*
D03*
Y512313D02*
D03*
X436350Y521709D02*
D03*
X436880Y607056D02*
D03*
X383540Y652709D02*
D03*
X436880Y666239D02*
D03*
X250669Y450239D02*
D03*
Y595683D02*
D03*
Y736508D02*
D03*
X704599Y599356D02*
D03*
X692484Y307293D02*
D03*
X258340Y386959D02*
D03*
Y531881D02*
D03*
X294640D02*
D03*
X304512Y623339D02*
D03*
X436880Y462209D02*
D03*
X692484Y483513D02*
D03*
X695038Y294928D02*
D03*
X689558D02*
D03*
X352681Y150499D02*
D03*
X362756Y295409D02*
D03*
X349970Y302876D02*
D03*
X536650Y601323D02*
D03*
X484626Y501617D02*
D03*
X349970Y246920D02*
D03*
X484650Y355486D02*
D03*
X503184Y595258D02*
D03*
X478150Y355457D02*
D03*
X449580Y355528D02*
D03*
X291470Y440285D02*
D03*
X675640Y560536D02*
D03*
X596900Y469900D02*
D03*
X508755Y312875D02*
D03*
X291470Y415305D02*
D03*
X451020Y498745D02*
D03*
X434008Y452048D02*
D03*
X284970Y570972D02*
D03*
X296338D02*
D03*
X451275Y642613D02*
D03*
X478150Y631378D02*
D03*
X287740Y706222D02*
D03*
X294010Y718820D02*
D03*
X393054Y682093D02*
D03*
X363220Y688340D02*
D03*
X457200Y617423D02*
D03*
Y473423D02*
D03*
Y326806D02*
D03*
X465150Y390622D02*
D03*
Y537239D02*
D03*
Y681239D02*
D03*
X271780Y686806D02*
D03*
Y546867D02*
D03*
Y401423D02*
D03*
X281010Y729241D02*
D03*
X278470Y589301D02*
D03*
Y444500D02*
D03*
X530150Y307144D02*
D03*
X517150Y306982D02*
D03*
X510701Y326787D02*
D03*
X530150Y394031D02*
D03*
X517150D02*
D03*
X343434Y401284D02*
D03*
X323970Y389597D02*
D03*
X304470D02*
D03*
X330470Y393923D02*
D03*
X343423Y470518D02*
D03*
X330373D02*
D03*
X517150Y544910D02*
D03*
X530150Y540681D02*
D03*
X530167Y463508D02*
D03*
X517150D02*
D03*
X510650Y473423D02*
D03*
X343540Y547142D02*
D03*
X304470Y535940D02*
D03*
X323970D02*
D03*
X330470D02*
D03*
X330470Y616881D02*
D03*
X343470D02*
D03*
X375920Y682093D02*
D03*
X326510Y675640D02*
D03*
X307010Y670745D02*
D03*
X530150Y684492D02*
D03*
X517150D02*
D03*
X530150Y601323D02*
D03*
X510650Y617423D02*
D03*
X517150Y606937D02*
D03*
X333018Y761418D02*
D03*
X346010Y756184D02*
D03*
X629798Y619760D02*
D03*
X541918Y131197D02*
D03*
X517650D02*
D03*
X655596Y189655D02*
D03*
X631328D02*
D03*
X58651Y183431D02*
D03*
Y159164D02*
D03*
Y110628D02*
D03*
Y86360D02*
D03*
X33020Y183431D02*
D03*
Y159164D02*
D03*
Y110628D02*
D03*
Y86360D02*
D03*
X553733Y30947D02*
D03*
X529466D02*
D03*
X505198D02*
D03*
X480930D02*
D03*
X578001D02*
D03*
X602269D02*
D03*
X626537D02*
D03*
X650805D02*
D03*
X699341D02*
D03*
X723608D02*
D03*
X122501D02*
D03*
X146769D02*
D03*
X195305D02*
D03*
X219573D02*
D03*
X243841D02*
D03*
X268109D02*
D03*
X365180D02*
D03*
X340912D02*
D03*
X316644D02*
D03*
X292376D02*
D03*
X389850Y93119D02*
D03*
X468820Y91364D02*
D03*
X456640Y63716D02*
D03*
X468632D02*
D03*
X441579Y93119D02*
D03*
X386883Y79510D02*
D03*
X328018Y843526D02*
D03*
X338018D02*
D03*
X348018D02*
D03*
X358018D02*
D03*
X368018D02*
D03*
X378018D02*
D03*
X388018D02*
D03*
X398018D02*
D03*
X408018D02*
D03*
X418018D02*
D03*
X428018D02*
D03*
X438018D02*
D03*
X488018D02*
D03*
X498017D02*
D03*
X508017D02*
D03*
X518017D02*
D03*
X528017D02*
D03*
X538017D02*
D03*
X548017D02*
D03*
X558017D02*
D03*
X568017D02*
D03*
X578017D02*
D03*
X588017D02*
D03*
X598017D02*
D03*
X608017D02*
D03*
X618017D02*
D03*
X628017D02*
D03*
X638017D02*
D03*
X648017D02*
D03*
X658017D02*
D03*
X668017D02*
D03*
X678017D02*
D03*
X688017D02*
D03*
X698017D02*
D03*
X708017D02*
D03*
X718017D02*
D03*
X728017D02*
D03*
X738017D02*
D03*
X748017D02*
D03*
X758017D02*
D03*
X768017D02*
D03*
X778017D02*
D03*
X788017D02*
D03*
X798017D02*
D03*
X808017D02*
D03*
X818017D02*
D03*
X828017D02*
D03*
X838017Y843529D02*
D03*
X6474Y522094D02*
D03*
Y532094D02*
D03*
Y542094D02*
D03*
Y552094D02*
D03*
Y562094D02*
D03*
Y572094D02*
D03*
Y582094D02*
D03*
Y592094D02*
D03*
Y602094D02*
D03*
Y612094D02*
D03*
Y622094D02*
D03*
Y632094D02*
D03*
Y642093D02*
D03*
Y652093D02*
D03*
Y662093D02*
D03*
Y672093D02*
D03*
Y682093D02*
D03*
Y692093D02*
D03*
Y702093D02*
D03*
Y712093D02*
D03*
Y722093D02*
D03*
Y732093D02*
D03*
Y742093D02*
D03*
Y752093D02*
D03*
Y762093D02*
D03*
Y772093D02*
D03*
Y782093D02*
D03*
Y792093D02*
D03*
Y802093D02*
D03*
Y812093D02*
D03*
Y822093D02*
D03*
Y832093D02*
D03*
X8143Y841953D02*
D03*
X18018Y843526D02*
D03*
X28018D02*
D03*
X38018D02*
D03*
X48018D02*
D03*
X58018D02*
D03*
X68018D02*
D03*
X78018D02*
D03*
X88018D02*
D03*
X98018D02*
D03*
X108018D02*
D03*
X118018D02*
D03*
X128018D02*
D03*
X138018D02*
D03*
X148018D02*
D03*
X158018D02*
D03*
X168018D02*
D03*
X178018D02*
D03*
X188018D02*
D03*
X198018D02*
D03*
X208018D02*
D03*
X218018D02*
D03*
X228018D02*
D03*
X238018D02*
D03*
X248018D02*
D03*
X258018D02*
D03*
X268018D02*
D03*
X278018D02*
D03*
X288018D02*
D03*
X298018D02*
D03*
X308018D02*
D03*
X318018D02*
D03*
X134745Y6474D02*
D03*
X124745D02*
D03*
X114745D02*
D03*
X104745D02*
D03*
X94745D02*
D03*
X84745D02*
D03*
X74745D02*
D03*
X64745D02*
D03*
X54745D02*
D03*
X44745D02*
D03*
X34745D02*
D03*
X24745D02*
D03*
X14745D02*
D03*
X6474Y12095D02*
D03*
Y22095D02*
D03*
Y32095D02*
D03*
Y42095D02*
D03*
Y52095D02*
D03*
Y62095D02*
D03*
Y72095D02*
D03*
Y82095D02*
D03*
Y92094D02*
D03*
Y102094D02*
D03*
Y112094D02*
D03*
Y122094D02*
D03*
Y132094D02*
D03*
Y142094D02*
D03*
Y152094D02*
D03*
Y162094D02*
D03*
Y172094D02*
D03*
Y182094D02*
D03*
Y192094D02*
D03*
Y202094D02*
D03*
Y212094D02*
D03*
Y222094D02*
D03*
Y232094D02*
D03*
Y242094D02*
D03*
Y252094D02*
D03*
Y262094D02*
D03*
Y272094D02*
D03*
Y282094D02*
D03*
Y292094D02*
D03*
Y302094D02*
D03*
Y312094D02*
D03*
Y322094D02*
D03*
Y332094D02*
D03*
Y342094D02*
D03*
Y352094D02*
D03*
Y362094D02*
D03*
Y372094D02*
D03*
Y382094D02*
D03*
Y392094D02*
D03*
Y402094D02*
D03*
Y412094D02*
D03*
Y422094D02*
D03*
Y432094D02*
D03*
Y442094D02*
D03*
Y452094D02*
D03*
Y462094D02*
D03*
Y472094D02*
D03*
Y482094D02*
D03*
Y492094D02*
D03*
Y502094D02*
D03*
Y512094D02*
D03*
X774744Y6474D02*
D03*
X764744D02*
D03*
X754744D02*
D03*
X744744D02*
D03*
X734744D02*
D03*
X724744D02*
D03*
X714744D02*
D03*
X704744D02*
D03*
X694744D02*
D03*
X684744D02*
D03*
X674744D02*
D03*
X664744D02*
D03*
X654744D02*
D03*
X644744D02*
D03*
X634744D02*
D03*
X624744D02*
D03*
X614744D02*
D03*
X604744D02*
D03*
X594744D02*
D03*
X584744D02*
D03*
X574744D02*
D03*
X564744D02*
D03*
X554744D02*
D03*
X544744D02*
D03*
X534744D02*
D03*
X524744D02*
D03*
X514744D02*
D03*
X504744D02*
D03*
X494744D02*
D03*
X484744D02*
D03*
X474744D02*
D03*
X464744D02*
D03*
X454744D02*
D03*
X444744D02*
D03*
X404745D02*
D03*
X394745D02*
D03*
X384745D02*
D03*
X374745D02*
D03*
X364745D02*
D03*
X354745D02*
D03*
X344745D02*
D03*
X334745D02*
D03*
X324745D02*
D03*
X314745D02*
D03*
X304745D02*
D03*
X294745D02*
D03*
X284745D02*
D03*
X274745D02*
D03*
X264745D02*
D03*
X254745D02*
D03*
X244745D02*
D03*
X234745D02*
D03*
X224745D02*
D03*
X214745D02*
D03*
X204745D02*
D03*
X194745D02*
D03*
X184745D02*
D03*
X174745D02*
D03*
X164745D02*
D03*
X154745D02*
D03*
X144745D02*
D03*
X817386Y583163D02*
D03*
Y573163D02*
D03*
Y563163D02*
D03*
Y553163D02*
D03*
Y543163D02*
D03*
Y533163D02*
D03*
Y523163D02*
D03*
X817680Y513168D02*
D03*
X823805Y505263D02*
D03*
X833728Y504023D02*
D03*
X843375Y501389D02*
D03*
X843526Y491390D02*
D03*
Y481390D02*
D03*
Y471390D02*
D03*
Y461390D02*
D03*
Y451390D02*
D03*
Y441390D02*
D03*
Y431390D02*
D03*
Y421390D02*
D03*
Y411390D02*
D03*
Y401390D02*
D03*
Y391390D02*
D03*
Y381390D02*
D03*
Y371390D02*
D03*
Y361390D02*
D03*
Y351390D02*
D03*
Y341390D02*
D03*
Y331390D02*
D03*
Y321390D02*
D03*
Y311391D02*
D03*
Y301391D02*
D03*
Y291391D02*
D03*
Y281391D02*
D03*
Y271391D02*
D03*
Y241391D02*
D03*
Y231391D02*
D03*
Y221391D02*
D03*
Y211391D02*
D03*
Y201391D02*
D03*
Y191391D02*
D03*
Y181391D02*
D03*
Y171391D02*
D03*
Y161391D02*
D03*
Y151391D02*
D03*
Y141391D02*
D03*
Y131391D02*
D03*
Y121391D02*
D03*
Y111391D02*
D03*
Y101391D02*
D03*
Y91391D02*
D03*
Y81391D02*
D03*
Y71391D02*
D03*
Y61391D02*
D03*
Y51391D02*
D03*
Y41391D02*
D03*
Y31391D02*
D03*
Y21391D02*
D03*
X843451Y11391D02*
D03*
X834744Y6474D02*
D03*
X824744D02*
D03*
X814744D02*
D03*
X804744D02*
D03*
X794744D02*
D03*
X784744D02*
D03*
X843526Y261391D02*
D03*
Y251391D02*
D03*
X843526Y836646D02*
D03*
Y826646D02*
D03*
Y816646D02*
D03*
Y806646D02*
D03*
Y796646D02*
D03*
Y786646D02*
D03*
Y776646D02*
D03*
Y766646D02*
D03*
Y756646D02*
D03*
Y746646D02*
D03*
Y736646D02*
D03*
Y726646D02*
D03*
Y716646D02*
D03*
Y706646D02*
D03*
Y696646D02*
D03*
Y686646D02*
D03*
X836499Y679532D02*
D03*
X826504Y679234D02*
D03*
X818616Y673087D02*
D03*
X817386Y663163D02*
D03*
Y653163D02*
D03*
Y643163D02*
D03*
Y633163D02*
D03*
Y623163D02*
D03*
Y613163D02*
D03*
Y603163D02*
D03*
Y593163D02*
D03*
X668020Y63671D02*
D03*
X589280Y98201D02*
D03*
X562697D02*
D03*
X515620Y177800D02*
D03*
X352401Y238021D02*
D03*
X243568Y238640D02*
D03*
X205740Y195287D02*
D03*
X254441Y144780D02*
D03*
X216550Y74260D02*
D03*
X272926Y69510D02*
D03*
Y76010D02*
D03*
X306210Y89120D02*
D03*
X747060Y126712D02*
D03*
X651310Y122984D02*
D03*
Y128984D02*
D03*
Y135684D02*
D03*
Y141670D02*
D03*
X408672Y139740D02*
D03*
Y223520D02*
D03*
X302260Y215127D02*
D03*
X387495Y119554D02*
D03*
X386883Y126879D02*
D03*
X457015Y161169D02*
D03*
X449709D02*
D03*
X580670Y173790D02*
D03*
Y180757D02*
D03*
X232548Y50800D02*
D03*
X244585Y221477D02*
D03*
X747091Y170180D02*
D03*
Y174800D02*
D03*
X386883Y139740D02*
D03*
X352680Y110490D02*
D03*
X378036D02*
D03*
X325710Y145320D02*
D03*
X354749Y215127D02*
D03*
X360680Y74200D02*
D03*
Y93119D02*
D03*
X679984Y619320D02*
D03*
Y638320D02*
D03*
X303741Y82510D02*
D03*
X334073Y76010D02*
D03*
X692484Y490220D02*
D03*
X341153Y69510D02*
D03*
X679984Y580428D02*
D03*
X341153Y56510D02*
D03*
X632410Y60671D02*
D03*
X334073Y95510D02*
D03*
D80*
X128820Y65866D02*
D03*
Y133120D02*
D03*
X167640D02*
D03*
Y200373D02*
D03*
X128820D02*
D03*
X90000Y65866D02*
D03*
Y133120D02*
D03*
M02*
