G04*
G04 #@! TF.GenerationSoftware,Altium Limited,Altium Designer,24.1.2 (44)*
G04*
G04 Layer_Color=8388736*
%FSLAX44Y44*%
%MOMM*%
G71*
G04*
G04 #@! TF.SameCoordinates,5A935687-884A-4F64-8E33-7EEF87A7B93E*
G04*
G04*
G04 #@! TF.FilePolarity,Negative*
G04*
G01*
G75*
%ADD23R,1.7018X0.8128*%
%ADD27R,1.2696X1.3462*%
%ADD30R,0.9500X0.9000*%
%ADD39C,1.2700*%
%ADD40R,0.8032X1.1032*%
%ADD41R,2.4622X1.9796*%
%ADD42R,3.3020X2.4130*%
%ADD43R,0.6032X1.7032*%
%ADD44R,1.0032X0.9032*%
%ADD45R,0.9032X1.0032*%
%ADD46O,0.8032X2.0032*%
%ADD47C,1.7032*%
%ADD48R,1.2032X0.8032*%
%ADD49R,1.1532X1.1032*%
%ADD50R,2.5032X2.4892*%
%ADD51R,3.5032X3.3532*%
%ADD52O,2.0032X0.8032*%
%ADD53R,2.5032X3.0032*%
%ADD54R,3.2725X2.4455*%
%ADD55R,0.7325X2.4455*%
%ADD56O,1.4000X0.4500*%
%ADD57R,1.9000X0.5000*%
%ADD58R,10.2032X30.2032*%
%ADD59C,5.5032*%
%ADD60C,4.7032*%
%ADD61C,0.9032*%
%ADD62C,6.2032*%
%ADD63C,1.0032*%
%ADD64R,1.2532X1.2532*%
%ADD65C,1.2532*%
%ADD66C,0.6032*%
G36*
X843526Y781000D02*
X809293D01*
Y781000D01*
X807438Y781000D01*
X803761Y781484D01*
X800179Y782444D01*
X796752Y783863D01*
X793540Y785718D01*
X790598Y787975D01*
X787975Y790598D01*
X785718Y793540D01*
X783863Y796752D01*
X782444Y800179D01*
X781484Y803761D01*
X781000Y807438D01*
X781000Y809293D01*
X781000Y843526D01*
X843526D01*
Y781000D01*
D02*
G37*
G36*
X69000Y809293D02*
X69000D01*
X69000Y807438D01*
X68516Y803761D01*
X67556Y800179D01*
X66137Y796752D01*
X64282Y793540D01*
X62024Y790598D01*
X59402Y787975D01*
X56460Y785718D01*
X53248Y783863D01*
X49821Y782444D01*
X46239Y781484D01*
X42562Y781000D01*
X40707Y781000D01*
X6474Y781000D01*
Y843526D01*
X69000D01*
Y809293D01*
D02*
G37*
G36*
X675222Y303401D02*
X675266Y303400D01*
X675288Y303397D01*
X675311Y303396D01*
X675354Y303387D01*
X675398Y303380D01*
X675419Y303374D01*
X675441Y303370D01*
X675484Y303355D01*
X675526Y303343D01*
X675546Y303334D01*
X675567Y303327D01*
X675608Y303307D01*
X675648Y303289D01*
X675667Y303278D01*
X675687Y303268D01*
X675724Y303243D01*
X675762Y303220D01*
X675779Y303206D01*
X675798Y303194D01*
X675831Y303164D01*
X675865Y303137D01*
X675881Y303121D01*
X675898Y303106D01*
X675927Y303072D01*
X675958Y303041D01*
X675971Y303023D01*
X675985Y303006D01*
X676010Y302969D01*
X676036Y302933D01*
X676047Y302914D01*
X676059Y302895D01*
X676079Y302855D01*
X676100Y302816D01*
X676108Y302796D01*
X676118Y302776D01*
X676133Y302733D01*
X676149Y302692D01*
X676154Y302671D01*
X676161Y302650D01*
X676170Y302606D01*
X676180Y302563D01*
X676183Y302541D01*
X676187Y302519D01*
X676190Y302474D01*
X676195Y302430D01*
X676194Y302409D01*
X676196Y302386D01*
X676196Y287614D01*
X676194Y287592D01*
X676195Y287570D01*
X676190Y287525D01*
X676187Y287481D01*
X676183Y287459D01*
X676180Y287437D01*
X676170Y287394D01*
X676161Y287350D01*
X676154Y287329D01*
X676149Y287308D01*
X676133Y287267D01*
X676118Y287224D01*
X676108Y287204D01*
X676100Y287184D01*
X676079Y287145D01*
X676059Y287105D01*
X676047Y287087D01*
X676036Y287067D01*
X676010Y287031D01*
X675985Y286994D01*
X675971Y286977D01*
X675957Y286959D01*
X675927Y286927D01*
X675898Y286894D01*
X675881Y286879D01*
X675865Y286863D01*
X675831Y286835D01*
X675797Y286806D01*
X675779Y286794D01*
X675762Y286780D01*
X675724Y286757D01*
X675687Y286732D01*
X675667Y286722D01*
X675648Y286711D01*
X675607Y286693D01*
X675567Y286673D01*
X675546Y286666D01*
X675526Y286657D01*
X675483Y286645D01*
X675441Y286630D01*
X675419Y286626D01*
X675398Y286620D01*
X675354Y286613D01*
X675311Y286604D01*
X675288Y286603D01*
X675266Y286600D01*
X675222Y286599D01*
X675178Y286596D01*
X675155Y286597D01*
X675133Y286597D01*
X675089Y286602D01*
X675045Y286604D01*
X675023Y286609D01*
X675001Y286611D01*
X674484Y286702D01*
X674480Y286703D01*
X674476Y286704D01*
X674415Y286719D01*
X674355Y286734D01*
X674351Y286735D01*
X674346Y286737D01*
X673349Y287061D01*
X673345Y287062D01*
X673341Y287064D01*
X673283Y287087D01*
X673225Y287110D01*
X673221Y287112D01*
X673217Y287114D01*
X672274Y287574D01*
X672271Y287576D01*
X672266Y287578D01*
X672212Y287609D01*
X672159Y287640D01*
X672155Y287643D01*
X672151Y287645D01*
X671282Y288231D01*
X671279Y288234D01*
X671275Y288236D01*
X671224Y288276D01*
X671177Y288313D01*
X671174Y288316D01*
X671170Y288319D01*
X670390Y289021D01*
X670387Y289024D01*
X670384Y289027D01*
X670341Y289072D01*
X670297Y289116D01*
X670295Y289119D01*
X670292Y289123D01*
X669618Y289926D01*
X669615Y289930D01*
X669612Y289933D01*
X669576Y289983D01*
X669539Y290034D01*
X669537Y290038D01*
X669534Y290041D01*
X668978Y290931D01*
X668976Y290935D01*
X668974Y290938D01*
X668945Y290993D01*
X668915Y291048D01*
X668914Y291052D01*
X668912Y291056D01*
X668485Y292015D01*
X668483Y292019D01*
X668481Y292023D01*
X668461Y292080D01*
X668439Y292139D01*
X668438Y292144D01*
X668436Y292148D01*
X668147Y293156D01*
X668146Y293160D01*
X668145Y293165D01*
X668132Y293226D01*
X668119Y293286D01*
X668119Y293291D01*
X668118Y293295D01*
X667972Y294334D01*
X667971Y294338D01*
X667971Y294343D01*
X667966Y294405D01*
X667962Y294467D01*
X667962Y294471D01*
X667962Y294476D01*
Y295524D01*
X667962Y295529D01*
X667962Y295533D01*
X667966Y295595D01*
X667971Y295657D01*
X667971Y295662D01*
X667972Y295666D01*
X668118Y296705D01*
X668119Y296709D01*
X668119Y296714D01*
X668132Y296774D01*
X668145Y296835D01*
X668146Y296840D01*
X668147Y296844D01*
X668436Y297852D01*
X668438Y297856D01*
X668439Y297861D01*
X668461Y297920D01*
X668481Y297977D01*
X668483Y297981D01*
X668485Y297985D01*
X668912Y298944D01*
X668914Y298948D01*
X668915Y298952D01*
X668945Y299007D01*
X668974Y299062D01*
X668976Y299065D01*
X668978Y299069D01*
X669534Y299959D01*
X669537Y299962D01*
X669539Y299966D01*
X669575Y300016D01*
X669612Y300067D01*
X669615Y300070D01*
X669618Y300074D01*
X670292Y300877D01*
X670295Y300880D01*
X670297Y300884D01*
X670341Y300928D01*
X670384Y300973D01*
X670387Y300976D01*
X670390Y300979D01*
X671170Y301681D01*
X671173Y301684D01*
X671177Y301687D01*
X671225Y301724D01*
X671275Y301764D01*
X671279Y301766D01*
X671282Y301769D01*
X672151Y302355D01*
X672155Y302357D01*
X672159Y302360D01*
X672213Y302391D01*
X672266Y302422D01*
X672271Y302424D01*
X672274Y302426D01*
X673217Y302886D01*
X673221Y302888D01*
X673225Y302890D01*
X673283Y302913D01*
X673341Y302936D01*
X673345Y302938D01*
X673349Y302939D01*
X674346Y303263D01*
X674351Y303264D01*
X674355Y303266D01*
X674414Y303281D01*
X674475Y303296D01*
X674480Y303297D01*
X674484Y303298D01*
X675001Y303389D01*
X675023Y303391D01*
X675045Y303396D01*
X675089Y303398D01*
X675133Y303403D01*
X675155Y303403D01*
X675178Y303404D01*
X675178D01*
X675222Y303401D01*
D02*
G37*
G36*
X677804Y303403D02*
X677827Y303403D01*
X677871Y303398D01*
X677915Y303396D01*
X677937Y303391D01*
X677959Y303389D01*
X678476Y303298D01*
X678480Y303297D01*
X678484Y303296D01*
X678545Y303281D01*
X678605Y303266D01*
X678609Y303264D01*
X678614Y303263D01*
X679611Y302939D01*
X679615Y302938D01*
X679620Y302936D01*
X679677Y302913D01*
X679735Y302890D01*
X679739Y302888D01*
X679743Y302886D01*
X680686Y302426D01*
X680689Y302424D01*
X680694Y302422D01*
X680748Y302391D01*
X680801Y302360D01*
X680805Y302357D01*
X680808Y302355D01*
X681678Y301769D01*
X681682Y301766D01*
X681685Y301764D01*
X681736Y301724D01*
X681783Y301687D01*
X681786Y301684D01*
X681790Y301681D01*
X682570Y300979D01*
X682573Y300976D01*
X682576Y300973D01*
X682619Y300928D01*
X682662Y300884D01*
X682665Y300880D01*
X682668Y300877D01*
X683342Y300074D01*
X683345Y300070D01*
X683348Y300067D01*
X683384Y300017D01*
X683421Y299966D01*
X683423Y299962D01*
X683426Y299959D01*
X683982Y299069D01*
X683984Y299065D01*
X683986Y299062D01*
X684015Y299007D01*
X684045Y298952D01*
X684046Y298948D01*
X684048Y298944D01*
X684475Y297985D01*
X684477Y297981D01*
X684479Y297977D01*
X684499Y297920D01*
X684521Y297861D01*
X684522Y297856D01*
X684524Y297852D01*
X684813Y296844D01*
X684814Y296840D01*
X684815Y296835D01*
X684828Y296774D01*
X684841Y296714D01*
X684841Y296709D01*
X684842Y296705D01*
X684988Y295666D01*
X684989Y295662D01*
X684989Y295657D01*
X684994Y295595D01*
X684998Y295533D01*
X684998Y295529D01*
X684998Y295524D01*
Y294476D01*
X684998Y294471D01*
X684998Y294467D01*
X684994Y294405D01*
X684989Y294343D01*
X684989Y294338D01*
X684988Y294334D01*
X684842Y293295D01*
X684841Y293291D01*
X684841Y293286D01*
X684828Y293226D01*
X684815Y293165D01*
X684814Y293160D01*
X684813Y293156D01*
X684524Y292148D01*
X684522Y292144D01*
X684521Y292139D01*
X684499Y292080D01*
X684479Y292023D01*
X684477Y292019D01*
X684475Y292015D01*
X684048Y291056D01*
X684046Y291052D01*
X684045Y291048D01*
X684015Y290993D01*
X683986Y290938D01*
X683984Y290935D01*
X683982Y290931D01*
X683426Y290041D01*
X683423Y290037D01*
X683421Y290034D01*
X683385Y289984D01*
X683348Y289933D01*
X683345Y289930D01*
X683342Y289926D01*
X682668Y289123D01*
X682665Y289119D01*
X682662Y289116D01*
X682619Y289072D01*
X682576Y289027D01*
X682573Y289024D01*
X682570Y289021D01*
X681790Y288319D01*
X681786Y288316D01*
X681783Y288313D01*
X681735Y288276D01*
X681685Y288236D01*
X681682Y288234D01*
X681678Y288231D01*
X680808Y287645D01*
X680805Y287643D01*
X680801Y287640D01*
X680747Y287609D01*
X680694Y287578D01*
X680689Y287576D01*
X680686Y287574D01*
X679743Y287114D01*
X679739Y287112D01*
X679735Y287110D01*
X679677Y287087D01*
X679620Y287064D01*
X679615Y287062D01*
X679611Y287061D01*
X678614Y286737D01*
X678609Y286735D01*
X678605Y286734D01*
X678546Y286719D01*
X678484Y286704D01*
X678480Y286703D01*
X678476Y286702D01*
X677959Y286611D01*
X677937Y286609D01*
X677915Y286604D01*
X677871Y286602D01*
X677827Y286597D01*
X677804Y286597D01*
X677782Y286596D01*
X677782D01*
X677738Y286599D01*
X677694Y286600D01*
X677672Y286603D01*
X677649Y286604D01*
X677606Y286613D01*
X677562Y286620D01*
X677541Y286626D01*
X677519Y286630D01*
X677476Y286645D01*
X677434Y286657D01*
X677414Y286666D01*
X677393Y286673D01*
X677353Y286693D01*
X677312Y286711D01*
X677293Y286722D01*
X677273Y286732D01*
X677236Y286757D01*
X677198Y286780D01*
X677181Y286794D01*
X677162Y286806D01*
X677129Y286836D01*
X677094Y286863D01*
X677079Y286879D01*
X677062Y286894D01*
X677033Y286928D01*
X677002Y286959D01*
X676989Y286977D01*
X676975Y286994D01*
X676950Y287031D01*
X676924Y287067D01*
X676913Y287086D01*
X676901Y287105D01*
X676881Y287145D01*
X676860Y287184D01*
X676852Y287204D01*
X676842Y287224D01*
X676827Y287267D01*
X676811Y287308D01*
X676806Y287329D01*
X676799Y287350D01*
X676790Y287394D01*
X676780Y287437D01*
X676777Y287459D01*
X676773Y287481D01*
X676770Y287526D01*
X676765Y287570D01*
X676766Y287591D01*
X676764Y287614D01*
X676764Y302386D01*
X676766Y302408D01*
X676765Y302430D01*
X676770Y302475D01*
X676773Y302519D01*
X676777Y302541D01*
X676780Y302563D01*
X676790Y302606D01*
X676799Y302650D01*
X676806Y302671D01*
X676811Y302692D01*
X676827Y302733D01*
X676842Y302776D01*
X676852Y302796D01*
X676860Y302816D01*
X676881Y302855D01*
X676901Y302895D01*
X676913Y302913D01*
X676924Y302933D01*
X676950Y302969D01*
X676975Y303006D01*
X676989Y303023D01*
X677002Y303041D01*
X677033Y303072D01*
X677062Y303106D01*
X677079Y303121D01*
X677094Y303137D01*
X677129Y303165D01*
X677162Y303194D01*
X677181Y303206D01*
X677198Y303220D01*
X677236Y303243D01*
X677273Y303268D01*
X677293Y303278D01*
X677312Y303289D01*
X677353Y303307D01*
X677393Y303327D01*
X677414Y303334D01*
X677434Y303343D01*
X677476Y303355D01*
X677519Y303370D01*
X677541Y303374D01*
X677562Y303380D01*
X677606Y303387D01*
X677650Y303396D01*
X677672Y303397D01*
X677694Y303400D01*
X677738Y303401D01*
X677782Y303404D01*
X677804Y303403D01*
D02*
G37*
G36*
X843526Y6474D02*
X781000D01*
Y40707D01*
X781000Y40707D01*
X781000Y40707D01*
X781000Y42562D01*
X781484Y46239D01*
X782444Y49821D01*
X783863Y53248D01*
X785718Y56460D01*
X787975Y59402D01*
X790598Y62024D01*
X793540Y64282D01*
X796752Y66137D01*
X800179Y67556D01*
X803761Y68516D01*
X807438Y69000D01*
X809293Y69000D01*
X843526Y69000D01*
Y6474D01*
D02*
G37*
G36*
X40707Y69000D02*
X42562Y69000D01*
X46239Y68516D01*
X49821Y67556D01*
X53248Y66137D01*
X56460Y64282D01*
X59402Y62024D01*
X62024Y59402D01*
X64282Y56460D01*
X66137Y53248D01*
X67556Y49821D01*
X68516Y46239D01*
X69000Y42562D01*
X69000Y40707D01*
X69000D01*
X69000Y40707D01*
Y6474D01*
X6474D01*
Y69000D01*
X40707Y69000D01*
D02*
G37*
D23*
X750955Y641752D02*
D03*
Y629252D02*
D03*
Y616752D02*
D03*
Y604252D02*
D03*
Y591752D02*
D03*
Y579252D02*
D03*
Y566752D02*
D03*
Y554252D02*
D03*
Y541752D02*
D03*
D27*
X428216Y93119D02*
D03*
X405352D02*
D03*
X428216Y119554D02*
D03*
X405352D02*
D03*
X427604Y256278D02*
D03*
X404740D02*
D03*
D30*
X692484Y521644D02*
D03*
Y560536D02*
D03*
Y599428D02*
D03*
Y638320D02*
D03*
Y677211D02*
D03*
D39*
X843150Y500497D02*
X842227Y502724D01*
X840000Y503647D01*
X838000Y6850D02*
X840575Y7540D01*
X842460Y9425D01*
X843150Y12000D01*
X840000Y679908D02*
X842227Y680830D01*
X843150Y683057D01*
X12000Y843150D02*
X9425Y842460D01*
X7540Y840575D01*
X6850Y838000D01*
X843150Y838000D02*
X842460Y840575D01*
X840575Y842460D01*
X838000Y843150D01*
X6850Y12000D02*
X7540Y9425D01*
X9425Y7540D01*
X12000Y6850D01*
X828860Y679908D02*
X826223Y679610D01*
X823719Y678734D01*
X821472Y677322D01*
X819595Y675446D01*
X818184Y673199D01*
X817307Y670694D01*
X817010Y668057D01*
Y515497D02*
X817307Y512860D01*
X818184Y510356D01*
X819595Y508109D01*
X821472Y506232D01*
X823719Y504821D01*
X826223Y503944D01*
X828860Y503647D01*
X828017Y843150D02*
X837941D01*
X818017D02*
X828017D01*
X808017D02*
X818017D01*
X798017D02*
X808017D01*
X788017D02*
X798017D01*
X778017D02*
X788017D01*
X768017D02*
X778017D01*
X758017D02*
X768017D01*
X748017D02*
X758017D01*
X738017D02*
X748017D01*
X728017D02*
X738017D01*
X718017D02*
X728017D01*
X708017D02*
X718017D01*
X698017D02*
X708017D01*
X688017D02*
X698017D01*
X678017D02*
X688017D01*
X668017D02*
X678017D01*
X658017D02*
X668017D01*
X648017D02*
X658017D01*
X638017D02*
X648017D01*
X628017D02*
X638017D01*
X618017D02*
X628017D01*
X608017D02*
X618017D01*
X598017D02*
X608017D01*
X588017D02*
X598017D01*
X578017D02*
X588017D01*
X568017D02*
X578017D01*
X558017D02*
X568017D01*
X548017D02*
X558017D01*
X538017D02*
X548017D01*
X528017D02*
X538017D01*
X6850Y822093D02*
Y837941D01*
X518017Y843150D02*
X528017D01*
X6850Y812093D02*
Y822093D01*
X508017Y843150D02*
X518017D01*
X6850Y802093D02*
Y812093D01*
X498017Y843150D02*
X508017D01*
X6850Y792093D02*
Y802093D01*
X843150Y491390D02*
Y500497D01*
X428018Y843150D02*
X438018D01*
X488018D02*
X498017D01*
X6850Y782093D02*
Y792093D01*
X843150Y481390D02*
Y491390D01*
X418018Y843150D02*
X428018D01*
X456552D02*
X465300D01*
X474048D02*
X488018D01*
X6850Y772093D02*
Y782093D01*
X843150Y471390D02*
Y481390D01*
X408018Y843150D02*
X418018D01*
X448018D02*
X456552D01*
X465300D02*
X474048D01*
X6850Y762093D02*
Y772093D01*
X843150Y461390D02*
Y471390D01*
X398018Y843150D02*
X408018D01*
X438018D02*
X448018D01*
X6850Y752093D02*
Y762093D01*
X843150Y451390D02*
Y461390D01*
X388018Y843150D02*
X398018D01*
X6850Y742093D02*
Y752093D01*
X843150Y441390D02*
Y451390D01*
X378018Y843150D02*
X388018D01*
X6850Y732093D02*
Y742093D01*
X843150Y431390D02*
Y441390D01*
X814744Y6850D02*
X824744D01*
X838000D01*
X368018Y843150D02*
X378018D01*
X6850Y722093D02*
Y732093D01*
X843150Y421390D02*
Y431390D01*
X804744Y6850D02*
X814744D01*
X358018Y843150D02*
X368018D01*
X6850Y712093D02*
Y722093D01*
X843150Y411390D02*
Y421390D01*
X794744Y6850D02*
X804744D01*
X348018Y843150D02*
X358018D01*
X6850Y702093D02*
Y712093D01*
X843150Y401390D02*
Y411390D01*
X784744Y6850D02*
X794744D01*
X338018Y843150D02*
X348018D01*
X6850Y692093D02*
Y702093D01*
X843150Y391390D02*
Y401390D01*
X774744Y6850D02*
X784744D01*
X328018Y843150D02*
X338018D01*
X6850Y682093D02*
Y692093D01*
X843150Y381390D02*
Y391390D01*
X764744Y6850D02*
X774744D01*
X318018Y843150D02*
X328018D01*
X6850Y672093D02*
Y682093D01*
X843150Y371390D02*
Y381390D01*
X754744Y6850D02*
X764744D01*
X308018Y843150D02*
X318018D01*
X6850Y642093D02*
Y652093D01*
Y662093D02*
Y672093D01*
X843150Y361390D02*
Y371390D01*
X744744Y6850D02*
X754744D01*
X298018Y843150D02*
X308018D01*
X6850Y622094D02*
Y632094D01*
Y642093D01*
Y652093D02*
Y662093D01*
X843150Y351390D02*
Y361390D01*
X734744Y6850D02*
X744744D01*
X288018Y843150D02*
X298018D01*
X6850Y572094D02*
Y582094D01*
Y592094D02*
Y602094D01*
Y612094D02*
Y622094D01*
X843150Y341390D02*
Y351390D01*
X724744Y6850D02*
X734744D01*
X278018Y843150D02*
X288018D01*
X6850Y452094D02*
Y462094D01*
Y522094D02*
Y532094D01*
Y552094D02*
Y562094D01*
Y572094D01*
Y582094D02*
Y592094D01*
Y602094D02*
Y612094D01*
X843150Y331390D02*
Y341390D01*
X714744Y6850D02*
X724744D01*
X268018Y843150D02*
X278018D01*
X6850Y442094D02*
Y452094D01*
Y482094D02*
Y492094D01*
Y502094D01*
Y512094D02*
Y522094D01*
Y532094D02*
Y542094D01*
Y552094D01*
X843150Y321390D02*
Y331390D01*
X704744Y6850D02*
X714744D01*
X258018Y843150D02*
X268018D01*
X6850Y392094D02*
Y402094D01*
Y422094D02*
Y432094D01*
Y442094D01*
Y472094D02*
Y482094D01*
Y502094D02*
Y512094D01*
X843150Y311391D02*
Y321390D01*
X694744Y6850D02*
X704744D01*
X248018Y843150D02*
X258018D01*
X6850Y372094D02*
Y382094D01*
Y392094D01*
Y402094D02*
Y412094D01*
Y422094D01*
Y462094D02*
Y472094D01*
X843150Y301391D02*
Y311391D01*
X684744Y6850D02*
X694744D01*
X238018Y843150D02*
X248018D01*
X6850Y362094D02*
Y372094D01*
X843150Y261391D02*
Y271391D01*
Y291391D02*
Y301391D01*
X674744Y6850D02*
X684744D01*
X228018Y843150D02*
X238018D01*
X6850Y242094D02*
Y252094D01*
Y262094D01*
Y272094D01*
Y282094D01*
Y292094D01*
Y302094D01*
Y312094D02*
Y322094D01*
Y332094D01*
Y352094D02*
Y362094D01*
X843150Y221391D02*
Y231391D01*
Y241391D01*
Y251391D01*
Y261391D01*
Y281391D02*
Y291391D01*
X664744Y6850D02*
X674744D01*
X218018Y843150D02*
X228018D01*
X6850Y212094D02*
Y222094D01*
Y232094D02*
Y242094D01*
Y302094D02*
Y312094D01*
Y342094D02*
Y352094D01*
X843150Y201391D02*
Y211391D01*
Y221391D01*
Y271391D02*
Y281391D01*
X654744Y6850D02*
X664744D01*
X208018Y843150D02*
X218018D01*
X6850Y202094D02*
Y212094D01*
Y222094D02*
Y232094D01*
Y332094D02*
Y342094D01*
X843150Y191391D02*
Y201391D01*
X644744Y6850D02*
X654744D01*
X198018Y843150D02*
X208018D01*
X6850Y192094D02*
Y202094D01*
X843150Y181391D02*
Y191391D01*
X634744Y6850D02*
X644744D01*
X188018Y843150D02*
X198018D01*
X6850Y182094D02*
Y192094D01*
X843150Y171391D02*
Y181391D01*
X564744Y6850D02*
X574744D01*
X584744D01*
X624744D02*
X634744D01*
X178018Y843150D02*
X188018D01*
X6850Y172094D02*
Y182094D01*
X843150Y161391D02*
Y171391D01*
X534744Y6850D02*
X544744D01*
X554744D01*
X564744D01*
X584744D02*
X594744D01*
X604744D02*
X614744D01*
X624744D01*
X168018Y843150D02*
X178018D01*
X6850Y162094D02*
Y172094D01*
X843150Y151391D02*
Y161391D01*
X474744Y6850D02*
X484744D01*
X514744D02*
X524744D01*
X534744D01*
X594744D02*
X604744D01*
X158018Y843150D02*
X168018D01*
X6850Y152094D02*
Y162094D01*
X843150Y141391D02*
Y151391D01*
X334745Y6850D02*
X344745D01*
X464744D02*
X474744D01*
X494744D02*
X504744D01*
X514744D01*
X148018Y843150D02*
X158018D01*
X6850Y142094D02*
Y152094D01*
X843150Y826646D02*
Y838000D01*
X843150Y131391D02*
Y141391D01*
X324745Y6850D02*
X334745D01*
X425000D02*
X444744D01*
X454744D02*
X464744D01*
X484744D02*
X494744D01*
X138018Y843150D02*
X148018D01*
X6850Y132094D02*
Y142094D01*
X843150Y816646D02*
Y826646D01*
X843150Y121391D02*
Y131391D01*
X304745Y6850D02*
X314745D01*
X324745D01*
X404745D02*
X425000D01*
X444744D02*
X454744D01*
X128018Y843150D02*
X138018D01*
X6850Y122094D02*
Y132094D01*
X843150Y806646D02*
Y816646D01*
X843150Y111391D02*
Y121391D01*
X294745Y6850D02*
X304745D01*
X384745D02*
X394745D01*
X404745D01*
X118018Y843150D02*
X128018D01*
X6850Y112094D02*
Y122094D01*
X843150Y796646D02*
Y806646D01*
X843150Y101391D02*
Y111391D01*
X284745Y6850D02*
X294745D01*
X374745D02*
X384745D01*
X108018Y843150D02*
X118018D01*
X6850Y102094D02*
Y112094D01*
X843150Y786646D02*
Y796646D01*
X843150Y91391D02*
Y101391D01*
X94745Y6850D02*
X104745D01*
X224745D02*
X234745D01*
X274745D02*
X284745D01*
X364745D02*
X374745D01*
X98018Y843150D02*
X108018D01*
X6850Y92094D02*
Y102094D01*
X843150Y776646D02*
Y786646D01*
X843150Y81391D02*
Y91391D01*
X84745Y6850D02*
X94745D01*
X214745D02*
X224745D01*
X244745D02*
X254745D01*
X264745D02*
X274745D01*
X344745D02*
X354745D01*
X364745D01*
X88018Y843150D02*
X98018D01*
X6850Y82095D02*
Y92094D01*
X843150Y766646D02*
Y776646D01*
X843150Y71391D02*
Y81391D01*
X74745Y6850D02*
X84745D01*
X184745D02*
X194745D01*
X204745D02*
X214745D01*
X234745D02*
X244745D01*
X254745D02*
X264745D01*
X78018Y843150D02*
X88018D01*
X6850Y72095D02*
Y82095D01*
X843150Y756646D02*
Y766646D01*
X843150Y61391D02*
Y71391D01*
X817010Y653163D02*
Y668057D01*
X64745Y6850D02*
X74745D01*
X154745D02*
X164745D01*
X174745D02*
X184745D01*
X194745D02*
X204745D01*
X68018Y843150D02*
X78018D01*
X6850Y62095D02*
Y72095D01*
X843150Y746646D02*
Y756646D01*
X843150Y51391D02*
Y61391D01*
X817010Y633163D02*
Y643163D01*
Y653163D01*
X54745Y6850D02*
X64745D01*
X144745D02*
X154745D01*
X164745D02*
X174745D01*
X58018Y843150D02*
X68018D01*
X6850Y52095D02*
Y62095D01*
X843150Y736646D02*
Y746646D01*
X843150Y41391D02*
Y51391D01*
X817010Y593163D02*
Y603163D01*
Y623163D02*
Y633163D01*
X44745Y6850D02*
X54745D01*
X104745D02*
X114745D01*
X124745D02*
X134745D01*
X144745D01*
X48018Y843150D02*
X58018D01*
X6850Y42095D02*
Y52095D01*
X843150Y716646D02*
Y726646D01*
Y736646D01*
X843150Y31391D02*
Y41391D01*
X817010Y533163D02*
Y543163D01*
Y553163D01*
Y583163D02*
Y593163D01*
Y603163D02*
Y613163D01*
Y623163D01*
X34745Y6850D02*
X44745D01*
X114745D02*
X124745D01*
X38018Y843150D02*
X48018D01*
X6850Y32095D02*
Y42095D01*
X843150Y696646D02*
Y706646D01*
Y716646D01*
X843150Y21391D02*
Y31391D01*
X817010Y523163D02*
Y533163D01*
Y553163D02*
Y563163D01*
Y573163D01*
Y583163D01*
X24745Y6850D02*
X34745D01*
X28018Y843150D02*
X38018D01*
X6850Y22095D02*
Y32095D01*
X843150Y683099D02*
Y696646D01*
X12059Y6850D02*
X24745D01*
X828860Y679908D02*
X840000D01*
X6850Y12000D02*
Y22095D01*
X843150Y12042D02*
Y21391D01*
X817010Y515497D02*
Y523163D01*
X828860Y503647D02*
X840000D01*
X12000Y843150D02*
X28018D01*
D40*
X688874Y698268D02*
D03*
X670715Y698267D02*
D03*
X233441Y150985D02*
D03*
X215282Y150984D02*
D03*
D41*
X476120Y211447D02*
D03*
Y256151D02*
D03*
X747061Y156464D02*
D03*
Y111760D02*
D03*
X586740Y211328D02*
D03*
Y256032D02*
D03*
X530860D02*
D03*
Y211328D02*
D03*
D42*
X779955Y516252D02*
D03*
Y667252D02*
D03*
D43*
X281010Y686806D02*
D03*
X287510D02*
D03*
X294010D02*
D03*
X300510D02*
D03*
X307010D02*
D03*
X313510D02*
D03*
X320010D02*
D03*
X326510D02*
D03*
X333010D02*
D03*
X339510D02*
D03*
X346010D02*
D03*
X352510D02*
D03*
Y743194D02*
D03*
X346010D02*
D03*
X339510D02*
D03*
X333010D02*
D03*
X326510D02*
D03*
X320010D02*
D03*
X313510D02*
D03*
X307010D02*
D03*
X300510D02*
D03*
X294010D02*
D03*
X287510D02*
D03*
X281010D02*
D03*
X465150Y673811D02*
D03*
X471650D02*
D03*
X478150D02*
D03*
X484650D02*
D03*
X491150D02*
D03*
X497650D02*
D03*
X504150D02*
D03*
X510650D02*
D03*
X517150D02*
D03*
X523650D02*
D03*
X530150D02*
D03*
X536650D02*
D03*
Y617423D02*
D03*
X530150D02*
D03*
X523650D02*
D03*
X517150D02*
D03*
X510650D02*
D03*
X504150D02*
D03*
X497650D02*
D03*
X491150D02*
D03*
X484650D02*
D03*
X478150D02*
D03*
X471650D02*
D03*
X465150D02*
D03*
Y326806D02*
D03*
X471650D02*
D03*
X478150D02*
D03*
X484650D02*
D03*
X491150D02*
D03*
X497650D02*
D03*
X504150D02*
D03*
X510650D02*
D03*
X517150D02*
D03*
X523650D02*
D03*
X530150D02*
D03*
X536650D02*
D03*
Y383194D02*
D03*
X530150D02*
D03*
X523650D02*
D03*
X517150D02*
D03*
X510650D02*
D03*
X504150D02*
D03*
X497650D02*
D03*
X491150D02*
D03*
X484650D02*
D03*
X478150D02*
D03*
X471650D02*
D03*
X465150D02*
D03*
X278470Y401423D02*
D03*
X284970D02*
D03*
X291470D02*
D03*
X297970D02*
D03*
X304470D02*
D03*
X310970D02*
D03*
X317470D02*
D03*
X323970D02*
D03*
X330470D02*
D03*
X336970D02*
D03*
X343470D02*
D03*
X349970D02*
D03*
Y457811D02*
D03*
X343470D02*
D03*
X336970D02*
D03*
X330470D02*
D03*
X323970D02*
D03*
X317470D02*
D03*
X310970D02*
D03*
X304470D02*
D03*
X297970D02*
D03*
X291470D02*
D03*
X284970D02*
D03*
X278470D02*
D03*
Y546867D02*
D03*
X284970D02*
D03*
X291470D02*
D03*
X297970D02*
D03*
X304470D02*
D03*
X310970D02*
D03*
X317470D02*
D03*
X323970D02*
D03*
X330470D02*
D03*
X336970D02*
D03*
X343470D02*
D03*
X349970D02*
D03*
Y603255D02*
D03*
X343470D02*
D03*
X336970D02*
D03*
X330470D02*
D03*
X323970D02*
D03*
X317470D02*
D03*
X310970D02*
D03*
X304470D02*
D03*
X297970D02*
D03*
X291470D02*
D03*
X284970D02*
D03*
X278470D02*
D03*
X465150Y473423D02*
D03*
X471650D02*
D03*
X478150D02*
D03*
X484650D02*
D03*
X491150D02*
D03*
X497650D02*
D03*
X504150D02*
D03*
X510650D02*
D03*
X517150D02*
D03*
X523650D02*
D03*
X530150D02*
D03*
X536650D02*
D03*
Y529811D02*
D03*
X530150D02*
D03*
X523650D02*
D03*
X517150D02*
D03*
X510650D02*
D03*
X504150D02*
D03*
X497650D02*
D03*
X491150D02*
D03*
X484650D02*
D03*
X478150D02*
D03*
X471650D02*
D03*
X465150D02*
D03*
D44*
X445020Y675857D02*
D03*
Y659857D02*
D03*
X225320Y700759D02*
D03*
Y684759D02*
D03*
Y745239D02*
D03*
Y729239D02*
D03*
X260880Y729241D02*
D03*
Y745241D02*
D03*
X243540Y729241D02*
D03*
Y745241D02*
D03*
Y700759D02*
D03*
Y684759D02*
D03*
X260880Y684761D02*
D03*
Y700761D02*
D03*
X409460Y631376D02*
D03*
Y615376D02*
D03*
Y675856D02*
D03*
Y659856D02*
D03*
X427680Y659857D02*
D03*
Y675857D02*
D03*
Y631376D02*
D03*
Y615376D02*
D03*
X445020Y615378D02*
D03*
Y631378D02*
D03*
X427680Y369240D02*
D03*
Y385240D02*
D03*
X241000Y459857D02*
D03*
Y443857D02*
D03*
X427680Y531857D02*
D03*
Y515857D02*
D03*
X241000Y605301D02*
D03*
Y589301D02*
D03*
X445020Y385240D02*
D03*
Y369240D02*
D03*
Y340761D02*
D03*
Y324761D02*
D03*
X427680Y324759D02*
D03*
Y340759D02*
D03*
X258340Y459857D02*
D03*
Y443857D02*
D03*
X241000Y399376D02*
D03*
Y415376D02*
D03*
X258340Y415378D02*
D03*
Y399378D02*
D03*
X445020Y515857D02*
D03*
Y531857D02*
D03*
X427680Y471376D02*
D03*
Y487376D02*
D03*
X445020Y487378D02*
D03*
Y471378D02*
D03*
X241000Y544820D02*
D03*
Y560820D02*
D03*
X258340Y605301D02*
D03*
Y589301D02*
D03*
X222780Y589300D02*
D03*
Y605300D02*
D03*
X258340Y560822D02*
D03*
Y544822D02*
D03*
X409460Y369239D02*
D03*
Y385239D02*
D03*
Y324759D02*
D03*
Y340759D02*
D03*
X222780Y443856D02*
D03*
Y459856D02*
D03*
X409460Y515856D02*
D03*
Y531856D02*
D03*
X222780Y399376D02*
D03*
Y415376D02*
D03*
X409460Y471376D02*
D03*
Y487376D02*
D03*
X222780Y544820D02*
D03*
Y560820D02*
D03*
X709740Y71671D02*
D03*
Y55671D02*
D03*
X580670Y71671D02*
D03*
Y55671D02*
D03*
X687080D02*
D03*
Y71671D02*
D03*
X601970D02*
D03*
Y55671D02*
D03*
X709740Y123053D02*
D03*
Y107053D02*
D03*
X580670Y123054D02*
D03*
Y107054D02*
D03*
X709740Y161169D02*
D03*
Y145169D02*
D03*
X580670Y161170D02*
D03*
Y145170D02*
D03*
X597970Y123054D02*
D03*
Y107054D02*
D03*
Y161170D02*
D03*
Y145170D02*
D03*
X562469Y107054D02*
D03*
Y123054D02*
D03*
X464820Y107054D02*
D03*
Y123054D02*
D03*
Y145169D02*
D03*
Y161169D02*
D03*
X562469Y145169D02*
D03*
Y161169D02*
D03*
D45*
X232550Y263917D02*
D03*
X216550D02*
D03*
X232551Y128579D02*
D03*
X216551D02*
D03*
X216550Y174291D02*
D03*
X232550D02*
D03*
X216550Y196698D02*
D03*
X232550D02*
D03*
X216550Y219104D02*
D03*
X232550D02*
D03*
X232552Y241510D02*
D03*
X216552D02*
D03*
X216550Y107073D02*
D03*
X232550D02*
D03*
X232551Y83766D02*
D03*
X216551D02*
D03*
X216550Y62260D02*
D03*
X232550D02*
D03*
X309710Y135881D02*
D03*
X325710D02*
D03*
X663560Y172720D02*
D03*
X679560D02*
D03*
X270441Y135881D02*
D03*
X254441D02*
D03*
X254442Y261917D02*
D03*
X270442D02*
D03*
X325711D02*
D03*
X309711D02*
D03*
X270442Y161088D02*
D03*
X254442D02*
D03*
X309711D02*
D03*
X325711D02*
D03*
X368679Y229057D02*
D03*
X352679D02*
D03*
X352681Y161539D02*
D03*
X368681D02*
D03*
X352680Y194398D02*
D03*
X368680D02*
D03*
X368680Y261917D02*
D03*
X352680D02*
D03*
X368680Y126879D02*
D03*
X352680D02*
D03*
X368680Y59360D02*
D03*
X352680D02*
D03*
X368680Y93119D02*
D03*
X352680D02*
D03*
D46*
X434072Y208922D02*
D03*
X421372D02*
D03*
X408672D02*
D03*
X395972D02*
D03*
X434072Y152422D02*
D03*
X421372D02*
D03*
X408672D02*
D03*
X395972D02*
D03*
D47*
X90000Y267627D02*
D03*
X167640Y267627D02*
D03*
X128820D02*
D03*
X167640Y200373D02*
D03*
X128820D02*
D03*
X90000D02*
D03*
Y65866D02*
D03*
X128820D02*
D03*
X167640D02*
D03*
Y133120D02*
D03*
X128820D02*
D03*
X90000D02*
D03*
D48*
X632410Y54171D02*
D03*
Y73171D02*
D03*
X657910D02*
D03*
Y63671D02*
D03*
Y54171D02*
D03*
D49*
X667484Y512144D02*
D03*
X692484Y502644D02*
D03*
X667484Y551036D02*
D03*
X692484Y541536D02*
D03*
X667484Y589928D02*
D03*
X692484Y580428D02*
D03*
X667484Y628820D02*
D03*
X692484Y619320D02*
D03*
Y658211D02*
D03*
X667484Y667711D02*
D03*
D50*
X747061Y207957D02*
D03*
Y247957D02*
D03*
D51*
X692980Y233680D02*
D03*
X637980D02*
D03*
D52*
X623060Y151384D02*
D03*
Y138684D02*
D03*
Y125984D02*
D03*
Y113284D02*
D03*
X679560Y151384D02*
D03*
Y138684D02*
D03*
Y125984D02*
D03*
Y113284D02*
D03*
D53*
X651310Y132334D02*
D03*
D54*
X515620Y101977D02*
D03*
D55*
X490220Y162183D02*
D03*
X502920D02*
D03*
X515620D02*
D03*
X528320D02*
D03*
X541020D02*
D03*
D56*
X262426Y102010D02*
D03*
Y95510D02*
D03*
Y89010D02*
D03*
Y82510D02*
D03*
Y76010D02*
D03*
Y69510D02*
D03*
Y63010D02*
D03*
Y56510D02*
D03*
X319426Y102010D02*
D03*
Y95510D02*
D03*
Y89010D02*
D03*
Y82510D02*
D03*
Y76010D02*
D03*
Y69510D02*
D03*
Y63010D02*
D03*
Y56510D02*
D03*
D57*
X316453Y234177D02*
D03*
Y227827D02*
D03*
Y221477D02*
D03*
Y215127D02*
D03*
Y208777D02*
D03*
Y202427D02*
D03*
Y196077D02*
D03*
Y189727D02*
D03*
X265399D02*
D03*
Y196077D02*
D03*
Y202427D02*
D03*
Y208777D02*
D03*
Y215127D02*
D03*
Y221477D02*
D03*
Y227827D02*
D03*
Y234177D02*
D03*
D58*
X78554Y583939D02*
D03*
D59*
X465300Y824000D02*
D03*
D60*
X425000Y21000D02*
D03*
D61*
X486420Y815252D02*
D03*
X456552Y802880D02*
D03*
X444180Y832748D02*
D03*
X474048Y845120D02*
D03*
X486420Y832748D02*
D03*
X474048Y802880D02*
D03*
X444180Y815252D02*
D03*
X456552Y845120D02*
D03*
D62*
X36000Y814000D02*
D03*
Y256000D02*
D03*
Y364000D02*
D03*
X814477Y256000D02*
D03*
X814000Y364000D02*
D03*
Y36000D02*
D03*
Y814000D02*
D03*
X36000Y36000D02*
D03*
D63*
X27252Y835120D02*
D03*
X14880Y805252D02*
D03*
X44748Y792880D02*
D03*
X57120Y822748D02*
D03*
X44748Y835120D02*
D03*
X14880Y822748D02*
D03*
X27252Y792880D02*
D03*
X57120Y805252D02*
D03*
X27252Y277120D02*
D03*
X14880Y247252D02*
D03*
X44748Y234880D02*
D03*
X57120Y264748D02*
D03*
X44748Y277120D02*
D03*
X14880Y264748D02*
D03*
X27252Y234880D02*
D03*
X57120Y247252D02*
D03*
X27252Y385120D02*
D03*
X14880Y355252D02*
D03*
X44748Y342880D02*
D03*
X57120Y372748D02*
D03*
X44748Y385120D02*
D03*
X14880Y372748D02*
D03*
X27252Y342880D02*
D03*
X57120Y355252D02*
D03*
X805729Y277120D02*
D03*
X793357Y247252D02*
D03*
X823225Y234880D02*
D03*
X835597Y264748D02*
D03*
X823225Y277120D02*
D03*
X793357Y264748D02*
D03*
X805729Y234880D02*
D03*
X835597Y247252D02*
D03*
X805252Y385120D02*
D03*
X792880Y355252D02*
D03*
X822748Y342880D02*
D03*
X835120Y372748D02*
D03*
X822748Y385120D02*
D03*
X792880Y372748D02*
D03*
X805252Y342880D02*
D03*
X835120Y355252D02*
D03*
X805252Y57120D02*
D03*
X792880Y27252D02*
D03*
X822748Y14880D02*
D03*
X835120Y44748D02*
D03*
X822748Y57120D02*
D03*
X792880Y44748D02*
D03*
X805252Y14880D02*
D03*
X835120Y27252D02*
D03*
X805252Y835120D02*
D03*
X792880Y805252D02*
D03*
X822748Y792880D02*
D03*
X835120Y822748D02*
D03*
X822748Y835120D02*
D03*
X792880Y822748D02*
D03*
X805252Y792880D02*
D03*
X835120Y805252D02*
D03*
X27252Y57120D02*
D03*
X14880Y27252D02*
D03*
X44748Y14880D02*
D03*
X57120Y44748D02*
D03*
X44748Y57120D02*
D03*
X14880Y44748D02*
D03*
X27252Y14880D02*
D03*
X57120Y27252D02*
D03*
D64*
X487680Y62820D02*
D03*
D65*
X500380D02*
D03*
X513080D02*
D03*
D66*
X328018Y843526D02*
D03*
X338018D02*
D03*
X348018D02*
D03*
X358018D02*
D03*
X368018D02*
D03*
X378018D02*
D03*
X388018D02*
D03*
X398018D02*
D03*
X408018D02*
D03*
X418018D02*
D03*
X428018D02*
D03*
X438018D02*
D03*
X488018D02*
D03*
X498017D02*
D03*
X508017D02*
D03*
X518017D02*
D03*
X528017D02*
D03*
X538017D02*
D03*
X548017D02*
D03*
X558017D02*
D03*
X568017D02*
D03*
X578017D02*
D03*
X588017D02*
D03*
X598017D02*
D03*
X608017D02*
D03*
X618017D02*
D03*
X628017D02*
D03*
X638017D02*
D03*
X648017D02*
D03*
X658017D02*
D03*
X668017D02*
D03*
X678017D02*
D03*
X688017D02*
D03*
X698017D02*
D03*
X708017D02*
D03*
X718017D02*
D03*
X728017D02*
D03*
X738017D02*
D03*
X748017D02*
D03*
X758017D02*
D03*
X768017D02*
D03*
X778017D02*
D03*
X788017D02*
D03*
X798017D02*
D03*
X808017D02*
D03*
X818017D02*
D03*
X828017D02*
D03*
X838017Y843529D02*
D03*
X6474Y522094D02*
D03*
Y532094D02*
D03*
Y542094D02*
D03*
Y552094D02*
D03*
Y562094D02*
D03*
Y572094D02*
D03*
Y582094D02*
D03*
Y592094D02*
D03*
Y602094D02*
D03*
Y612094D02*
D03*
Y622094D02*
D03*
Y632094D02*
D03*
Y642093D02*
D03*
Y652093D02*
D03*
Y662093D02*
D03*
Y672093D02*
D03*
Y682093D02*
D03*
Y692093D02*
D03*
Y702093D02*
D03*
Y712093D02*
D03*
Y722093D02*
D03*
Y732093D02*
D03*
Y742093D02*
D03*
Y752093D02*
D03*
Y762093D02*
D03*
Y772093D02*
D03*
Y782093D02*
D03*
Y792093D02*
D03*
Y802093D02*
D03*
Y812093D02*
D03*
Y822093D02*
D03*
Y832093D02*
D03*
X8143Y841953D02*
D03*
X18018Y843526D02*
D03*
X28018D02*
D03*
X38018D02*
D03*
X48018D02*
D03*
X58018D02*
D03*
X68018D02*
D03*
X78018D02*
D03*
X88018D02*
D03*
X98018D02*
D03*
X108018D02*
D03*
X118018D02*
D03*
X128018D02*
D03*
X138018D02*
D03*
X148018D02*
D03*
X158018D02*
D03*
X168018D02*
D03*
X178018D02*
D03*
X188018D02*
D03*
X198018D02*
D03*
X208018D02*
D03*
X218018D02*
D03*
X228018D02*
D03*
X238018D02*
D03*
X248018D02*
D03*
X258018D02*
D03*
X268018D02*
D03*
X278018D02*
D03*
X288018D02*
D03*
X298018D02*
D03*
X308018D02*
D03*
X318018D02*
D03*
X134745Y6474D02*
D03*
X124745D02*
D03*
X114745D02*
D03*
X104745D02*
D03*
X94745D02*
D03*
X84745D02*
D03*
X74745D02*
D03*
X64745D02*
D03*
X54745D02*
D03*
X44745D02*
D03*
X34745D02*
D03*
X24745D02*
D03*
X14745D02*
D03*
X6474Y12095D02*
D03*
Y22095D02*
D03*
Y32095D02*
D03*
Y42095D02*
D03*
Y52095D02*
D03*
Y62095D02*
D03*
Y72095D02*
D03*
Y82095D02*
D03*
Y92094D02*
D03*
Y102094D02*
D03*
Y112094D02*
D03*
Y122094D02*
D03*
Y132094D02*
D03*
Y142094D02*
D03*
Y152094D02*
D03*
Y162094D02*
D03*
Y172094D02*
D03*
Y182094D02*
D03*
Y192094D02*
D03*
Y202094D02*
D03*
Y212094D02*
D03*
Y222094D02*
D03*
Y232094D02*
D03*
Y242094D02*
D03*
Y252094D02*
D03*
Y262094D02*
D03*
Y272094D02*
D03*
Y282094D02*
D03*
Y292094D02*
D03*
Y302094D02*
D03*
Y312094D02*
D03*
Y322094D02*
D03*
Y332094D02*
D03*
Y342094D02*
D03*
Y352094D02*
D03*
Y362094D02*
D03*
Y372094D02*
D03*
Y382094D02*
D03*
Y392094D02*
D03*
Y402094D02*
D03*
Y412094D02*
D03*
Y422094D02*
D03*
Y432094D02*
D03*
Y442094D02*
D03*
Y452094D02*
D03*
Y462094D02*
D03*
Y472094D02*
D03*
Y482094D02*
D03*
Y492094D02*
D03*
Y502094D02*
D03*
Y512094D02*
D03*
X774744Y6474D02*
D03*
X764744D02*
D03*
X754744D02*
D03*
X744744D02*
D03*
X734744D02*
D03*
X724744D02*
D03*
X714744D02*
D03*
X704744D02*
D03*
X694744D02*
D03*
X684744D02*
D03*
X674744D02*
D03*
X664744D02*
D03*
X654744D02*
D03*
X644744D02*
D03*
X634744D02*
D03*
X624744D02*
D03*
X614744D02*
D03*
X604744D02*
D03*
X594744D02*
D03*
X584744D02*
D03*
X574744D02*
D03*
X564744D02*
D03*
X554744D02*
D03*
X544744D02*
D03*
X534744D02*
D03*
X524744D02*
D03*
X514744D02*
D03*
X504744D02*
D03*
X494744D02*
D03*
X484744D02*
D03*
X474744D02*
D03*
X464744D02*
D03*
X454744D02*
D03*
X444744D02*
D03*
X404745D02*
D03*
X394745D02*
D03*
X384745D02*
D03*
X374745D02*
D03*
X364745D02*
D03*
X354745D02*
D03*
X344745D02*
D03*
X334745D02*
D03*
X324745D02*
D03*
X314745D02*
D03*
X304745D02*
D03*
X294745D02*
D03*
X284745D02*
D03*
X274745D02*
D03*
X264745D02*
D03*
X254745D02*
D03*
X244745D02*
D03*
X234745D02*
D03*
X224745D02*
D03*
X214745D02*
D03*
X204745D02*
D03*
X194745D02*
D03*
X184745D02*
D03*
X174745D02*
D03*
X164745D02*
D03*
X154745D02*
D03*
X144745D02*
D03*
X817386Y583163D02*
D03*
Y573163D02*
D03*
Y563163D02*
D03*
Y553163D02*
D03*
Y543163D02*
D03*
Y533163D02*
D03*
Y523163D02*
D03*
X817680Y513168D02*
D03*
X823805Y505263D02*
D03*
X833728Y504023D02*
D03*
X843375Y501389D02*
D03*
X843526Y491390D02*
D03*
Y481390D02*
D03*
Y471390D02*
D03*
Y461390D02*
D03*
Y451390D02*
D03*
Y441390D02*
D03*
Y431390D02*
D03*
Y421390D02*
D03*
Y411390D02*
D03*
Y401390D02*
D03*
Y391390D02*
D03*
Y381390D02*
D03*
Y371390D02*
D03*
Y361390D02*
D03*
Y351390D02*
D03*
Y341390D02*
D03*
Y331390D02*
D03*
Y321390D02*
D03*
Y311391D02*
D03*
Y301391D02*
D03*
Y291391D02*
D03*
Y281391D02*
D03*
Y271391D02*
D03*
Y241391D02*
D03*
Y231391D02*
D03*
Y221391D02*
D03*
Y211391D02*
D03*
Y201391D02*
D03*
Y191391D02*
D03*
Y181391D02*
D03*
Y171391D02*
D03*
Y161391D02*
D03*
Y151391D02*
D03*
Y141391D02*
D03*
Y131391D02*
D03*
Y121391D02*
D03*
Y111391D02*
D03*
Y101391D02*
D03*
Y91391D02*
D03*
Y81391D02*
D03*
Y71391D02*
D03*
Y61391D02*
D03*
Y51391D02*
D03*
Y41391D02*
D03*
Y31391D02*
D03*
Y21391D02*
D03*
X843451Y11391D02*
D03*
X834744Y6474D02*
D03*
X824744D02*
D03*
X814744D02*
D03*
X804744D02*
D03*
X794744D02*
D03*
X784744D02*
D03*
X843526Y261391D02*
D03*
Y251391D02*
D03*
X843526Y836646D02*
D03*
Y826646D02*
D03*
Y816646D02*
D03*
Y806646D02*
D03*
Y796646D02*
D03*
Y786646D02*
D03*
Y776646D02*
D03*
Y766646D02*
D03*
Y756646D02*
D03*
Y746646D02*
D03*
Y736646D02*
D03*
Y726646D02*
D03*
Y716646D02*
D03*
Y706646D02*
D03*
Y696646D02*
D03*
Y686646D02*
D03*
X836499Y679532D02*
D03*
X826504Y679234D02*
D03*
X818616Y673087D02*
D03*
X817386Y663163D02*
D03*
Y653163D02*
D03*
Y643163D02*
D03*
Y633163D02*
D03*
Y623163D02*
D03*
Y613163D02*
D03*
Y603163D02*
D03*
Y593163D02*
D03*
M02*
