G04*
G04 #@! TF.GenerationSoftware,Altium Limited,Altium Designer,24.1.2 (44)*
G04*
G04 Layer_Physical_Order=1*
G04 Layer_Color=255*
%FSLAX44Y44*%
%MOMM*%
G71*
G04*
G04 #@! TF.SameCoordinates,5A935687-884A-4F64-8E33-7EEF87A7B93E*
G04*
G04*
G04 #@! TF.FilePolarity,Positive*
G04*
G01*
G75*
%ADD16C,0.6000*%
%ADD19C,0.2540*%
%ADD20R,0.6000X0.9000*%
%ADD21R,2.3622X1.8796*%
%ADD22R,3.0988X2.2098*%
%ADD23R,1.7018X0.8128*%
%ADD24R,0.4000X1.5000*%
%ADD25R,0.8000X0.7000*%
%ADD26R,0.7000X0.8000*%
%ADD27R,1.2696X1.3462*%
%ADD28O,0.6000X1.8000*%
%ADD29R,1.0000X0.6000*%
%ADD30R,0.9500X0.9000*%
%ADD31R,2.3000X2.2860*%
%ADD32R,3.3000X3.1500*%
%ADD33O,1.8000X0.6000*%
%ADD34R,2.3000X2.8000*%
%ADD35R,3.1725X2.3455*%
%ADD36R,0.6325X2.3455*%
%ADD37O,1.3000X0.3500*%
%ADD38R,1.8000X0.4000*%
%ADD39C,1.2700*%
%ADD67C,0.3500*%
%ADD68C,1.5000*%
%ADD69C,0.4000*%
%ADD70C,0.5000*%
%ADD71R,10.0000X30.0000*%
%ADD72C,5.3000*%
%ADD73C,4.5000*%
%ADD74C,0.7000*%
%ADD75C,6.0000*%
%ADD76C,0.8000*%
%ADD77R,1.0500X1.0500*%
%ADD78C,1.0500*%
%ADD79C,0.4000*%
%ADD80C,0.9000*%
G36*
X779376Y809293D02*
X779376Y809293D01*
X779376Y807438D01*
X779419Y807335D01*
X779390Y807226D01*
X779874Y803549D01*
X779930Y803452D01*
X779916Y803341D01*
X780876Y799759D01*
X780944Y799669D01*
Y799557D01*
X782363Y796131D01*
X782443Y796052D01*
X782457Y795940D01*
X784312Y792729D01*
X784400Y792660D01*
X784430Y792552D01*
X786687Y789610D01*
X786785Y789554D01*
X786827Y789450D01*
X789450Y786827D01*
X789554Y786785D01*
X789610Y786687D01*
X792552Y784430D01*
X792660Y784401D01*
X792729Y784312D01*
X795940Y782457D01*
X796052Y782443D01*
X796131Y782363D01*
X799557Y780944D01*
X799669D01*
X799759Y780876D01*
X803341Y779916D01*
X803452Y779930D01*
X803549Y779874D01*
X807226Y779390D01*
X807335Y779419D01*
X807438Y779376D01*
X809293Y779376D01*
X835232Y779376D01*
Y766646D01*
Y756646D01*
Y746646D01*
Y736646D01*
Y726646D01*
Y716646D01*
Y706646D01*
Y696646D01*
Y687825D01*
X828860D01*
X828860Y687853D01*
X824998Y687472D01*
X821285Y686346D01*
X817862Y684517D01*
X814863Y682055D01*
X812401Y679055D01*
X810572Y675633D01*
X809445Y671919D01*
X809065Y668057D01*
X809092D01*
Y653163D01*
Y643163D01*
Y633163D01*
Y623163D01*
Y613163D01*
Y603163D01*
Y593163D01*
Y583163D01*
Y573163D01*
Y563163D01*
Y553163D01*
Y543163D01*
Y533163D01*
Y523163D01*
Y515497D01*
X809065D01*
X809445Y511635D01*
X810572Y507922D01*
X812401Y504499D01*
X814863Y501500D01*
X817862Y499038D01*
X821285Y497209D01*
X824998Y496082D01*
X828860Y495702D01*
X828860Y495729D01*
X835232D01*
Y491390D01*
Y481390D01*
Y471390D01*
Y461390D01*
Y451390D01*
Y441390D01*
Y431390D01*
Y421390D01*
Y411390D01*
Y401390D01*
Y388808D01*
X834079Y388276D01*
X832572Y389563D01*
X828345Y392154D01*
X823764Y394051D01*
X818943Y395208D01*
X814000Y395597D01*
X809057Y395208D01*
X804236Y394051D01*
X799655Y392154D01*
X795427Y389563D01*
X791657Y386343D01*
X788437Y382573D01*
X785846Y378345D01*
X783949Y373764D01*
X782792Y368943D01*
X782403Y364000D01*
X782792Y359057D01*
X783949Y354236D01*
X785846Y349655D01*
X788437Y345428D01*
X791657Y341657D01*
X795427Y338437D01*
X799655Y335846D01*
X804236Y333949D01*
X809057Y332792D01*
X814000Y332403D01*
X818943Y332792D01*
X823764Y333949D01*
X828345Y335846D01*
X832572Y338437D01*
X834079Y339724D01*
X835232Y339192D01*
Y331390D01*
Y321390D01*
Y311391D01*
Y301391D01*
Y291391D01*
Y281215D01*
X834079Y280683D01*
X833049Y281563D01*
X828822Y284153D01*
X824241Y286051D01*
X819420Y287208D01*
X814477Y287597D01*
X809534Y287208D01*
X804713Y286051D01*
X800132Y284153D01*
X795904Y281563D01*
X792134Y278343D01*
X788914Y274573D01*
X786323Y270345D01*
X784426Y265764D01*
X783269Y260943D01*
X782879Y256000D01*
X783269Y251057D01*
X784426Y246236D01*
X786323Y241655D01*
X788914Y237428D01*
X792134Y233657D01*
X795904Y230437D01*
X800132Y227847D01*
X804713Y225949D01*
X809534Y224792D01*
X814477Y224403D01*
X819420Y224792D01*
X824241Y225949D01*
X828822Y227847D01*
X833049Y230437D01*
X833962Y231217D01*
X835232Y230631D01*
Y221391D01*
Y211391D01*
Y201391D01*
Y191391D01*
Y181391D01*
Y171391D01*
Y161391D01*
Y151391D01*
Y141391D01*
Y131391D01*
Y121391D01*
Y111391D01*
Y101391D01*
Y91391D01*
Y81391D01*
Y70624D01*
X809293Y70624D01*
X807438Y70624D01*
X807335Y70581D01*
X807226Y70610D01*
X803549Y70126D01*
X803452Y70069D01*
X803341Y70084D01*
X799759Y69124D01*
X799669Y69056D01*
X799557D01*
X796131Y67637D01*
X796052Y67557D01*
X795940Y67543D01*
X792729Y65688D01*
X792660Y65599D01*
X792552Y65570D01*
X789610Y63313D01*
X789554Y63215D01*
X789450Y63173D01*
X786827Y60550D01*
X786785Y60447D01*
X786687Y60390D01*
X784430Y57448D01*
X784400Y57340D01*
X784312Y57271D01*
X782457Y54060D01*
X782443Y53948D01*
X782363Y53869D01*
X780944Y50443D01*
Y50331D01*
X780876Y50241D01*
X779916Y46659D01*
X779930Y46548D01*
X779874Y46451D01*
X779390Y42774D01*
X779419Y42665D01*
X779376Y42562D01*
X779376Y40707D01*
X779376Y40707D01*
Y14768D01*
X457755D01*
X456918Y15723D01*
X457333Y18881D01*
Y23119D01*
X456780Y27322D01*
X455683Y31416D01*
X454061Y35331D01*
X451942Y39002D01*
X449362Y42365D01*
X446365Y45362D01*
X443002Y47942D01*
X439331Y50061D01*
X435416Y51683D01*
X431321Y52780D01*
X427119Y53334D01*
X422881D01*
X418679Y52780D01*
X414584Y51683D01*
X410668Y50061D01*
X406998Y47942D01*
X403635Y45362D01*
X400638Y42365D01*
X398058Y39002D01*
X395939Y35331D01*
X394317Y31416D01*
X393220Y27322D01*
X392666Y23119D01*
Y18881D01*
X393082Y15723D01*
X392245Y14768D01*
X70624D01*
Y40707D01*
X70624Y40708D01*
X70624Y42562D01*
X70581Y42665D01*
X70610Y42774D01*
X70126Y46451D01*
X70069Y46548D01*
X70084Y46659D01*
X69124Y50241D01*
X69056Y50331D01*
Y50443D01*
X67637Y53869D01*
X67557Y53948D01*
X67543Y54060D01*
X65688Y57271D01*
X65599Y57340D01*
X65570Y57448D01*
X63313Y60390D01*
X63215Y60447D01*
X63173Y60550D01*
X60550Y63173D01*
X60447Y63215D01*
X60390Y63313D01*
X57448Y65570D01*
X57340Y65599D01*
X57271Y65688D01*
X54060Y67543D01*
X53948Y67557D01*
X53869Y67637D01*
X50443Y69056D01*
X50331D01*
X50241Y69124D01*
X46659Y70084D01*
X46548Y70069D01*
X46451Y70126D01*
X42774Y70610D01*
X42665Y70581D01*
X42562Y70624D01*
X40707Y70624D01*
X14768Y70624D01*
Y82095D01*
Y92094D01*
Y102094D01*
Y112094D01*
Y122094D01*
Y132094D01*
Y142094D01*
Y152094D01*
Y162094D01*
Y172094D01*
Y182094D01*
Y192094D01*
Y202094D01*
Y212094D01*
Y222094D01*
Y231039D01*
X16038Y231624D01*
X17428Y230437D01*
X21655Y227847D01*
X26236Y225949D01*
X31057Y224792D01*
X36000Y224403D01*
X40943Y224792D01*
X45764Y225949D01*
X50345Y227847D01*
X54573Y230437D01*
X58343Y233657D01*
X61563Y237428D01*
X64153Y241655D01*
X66051Y246236D01*
X67208Y251057D01*
X67597Y256000D01*
X67208Y260943D01*
X66051Y265764D01*
X64153Y270345D01*
X61563Y274573D01*
X58343Y278343D01*
X54573Y281563D01*
X50345Y284153D01*
X45764Y286051D01*
X40943Y287208D01*
X36000Y287597D01*
X31057Y287208D01*
X26236Y286051D01*
X21655Y284153D01*
X17428Y281563D01*
X15921Y280276D01*
X14768Y280808D01*
Y292094D01*
Y302094D01*
Y312094D01*
Y322094D01*
Y332094D01*
Y339192D01*
X15921Y339724D01*
X17428Y338437D01*
X21655Y335846D01*
X26236Y333949D01*
X31057Y332792D01*
X36000Y332403D01*
X40943Y332792D01*
X45764Y333949D01*
X50345Y335846D01*
X54573Y338437D01*
X58343Y341657D01*
X61563Y345428D01*
X64153Y349655D01*
X66051Y354236D01*
X67208Y359057D01*
X67597Y364000D01*
X67208Y368943D01*
X66051Y373764D01*
X64153Y378345D01*
X61563Y382573D01*
X58343Y386343D01*
X54573Y389563D01*
X50345Y392154D01*
X45764Y394051D01*
X40943Y395208D01*
X36000Y395597D01*
X31057Y395208D01*
X26236Y394051D01*
X21655Y392154D01*
X17428Y389563D01*
X15921Y388276D01*
X14768Y388808D01*
Y402094D01*
Y412094D01*
Y422094D01*
Y432094D01*
Y442094D01*
Y452094D01*
Y462094D01*
Y472094D01*
Y482094D01*
Y492094D01*
Y502094D01*
Y512094D01*
Y522094D01*
Y532094D01*
Y542094D01*
Y552094D01*
Y562094D01*
Y572094D01*
Y582094D01*
Y592094D01*
Y602094D01*
Y612094D01*
Y622094D01*
Y632094D01*
Y642093D01*
Y652093D01*
Y662093D01*
Y672093D01*
Y682093D01*
Y692093D01*
Y702093D01*
Y712093D01*
Y722093D01*
Y732093D01*
Y742093D01*
Y752093D01*
Y762093D01*
Y772093D01*
Y779376D01*
X40707Y779376D01*
X42562Y779376D01*
X42665Y779419D01*
X42774Y779390D01*
X46451Y779874D01*
X46548Y779930D01*
X46659Y779916D01*
X50241Y780876D01*
X50331Y780944D01*
X50443D01*
X53869Y782363D01*
X53948Y782443D01*
X54060Y782457D01*
X57271Y784312D01*
X57340Y784401D01*
X57448Y784430D01*
X60390Y786687D01*
X60447Y786785D01*
X60550Y786827D01*
X63173Y789450D01*
X63215Y789554D01*
X63313Y789610D01*
X65570Y792552D01*
X65599Y792660D01*
X65688Y792729D01*
X67543Y795940D01*
X67557Y796052D01*
X67637Y796131D01*
X69056Y799557D01*
Y799669D01*
X69124Y799759D01*
X70084Y803341D01*
X70069Y803452D01*
X70126Y803549D01*
X70610Y807226D01*
X70581Y807335D01*
X70624Y807438D01*
X70624Y809292D01*
X70624Y809293D01*
Y835232D01*
X433764D01*
X434495Y833962D01*
X433520Y830322D01*
X432966Y826119D01*
Y821881D01*
X433520Y817679D01*
X434617Y813584D01*
X436239Y809669D01*
X438358Y805998D01*
X440938Y802635D01*
X443935Y799638D01*
X447298Y797058D01*
X450969Y794939D01*
X454884Y793317D01*
X458979Y792220D01*
X463181Y791666D01*
X467419D01*
X471622Y792220D01*
X475716Y793317D01*
X479632Y794939D01*
X483302Y797058D01*
X486665Y799638D01*
X489662Y802635D01*
X492242Y805998D01*
X494361Y809669D01*
X495983Y813584D01*
X497080Y817679D01*
X497634Y821881D01*
Y826119D01*
X497080Y830322D01*
X496105Y833962D01*
X496836Y835232D01*
X779376D01*
Y809293D01*
D02*
G37*
G36*
X843526Y781000D02*
X809293Y781000D01*
X807438Y781000D01*
X803761Y781484D01*
X800179Y782444D01*
X796752Y783863D01*
X793540Y785718D01*
X790598Y787975D01*
X787975Y790598D01*
X785718Y793540D01*
X783863Y796752D01*
X782444Y800179D01*
X781484Y803761D01*
X781000Y807438D01*
X781000Y809293D01*
X781000D01*
Y843526D01*
X843526D01*
Y781000D01*
D02*
G37*
G36*
X69000Y809293D02*
X69000D01*
X69000Y807438D01*
X68516Y803761D01*
X67556Y800179D01*
X66137Y796752D01*
X64282Y793540D01*
X62024Y790598D01*
X59402Y787975D01*
X56460Y785718D01*
X53248Y783863D01*
X49821Y782444D01*
X46239Y781484D01*
X42562Y781000D01*
X40707Y781000D01*
X6474Y781000D01*
Y843526D01*
X69000D01*
Y809293D01*
D02*
G37*
G36*
X843526Y6474D02*
X781000D01*
Y40707D01*
X781000Y40707D01*
X781000Y40707D01*
X781000Y42562D01*
X781484Y46239D01*
X782444Y49821D01*
X783863Y53248D01*
X785718Y56460D01*
X787975Y59402D01*
X790598Y62024D01*
X793540Y64282D01*
X796752Y66137D01*
X800179Y67556D01*
X803761Y68516D01*
X807438Y69000D01*
X809293Y69000D01*
X843526Y69000D01*
Y6474D01*
D02*
G37*
G36*
X40707Y69000D02*
X42562Y69000D01*
X46239Y68516D01*
X49821Y67556D01*
X53248Y66137D01*
X56460Y64282D01*
X59402Y62024D01*
X62024Y59402D01*
X64282Y56460D01*
X66137Y53248D01*
X67556Y49821D01*
X68516Y46239D01*
X69000Y42562D01*
X69000Y40707D01*
X69000D01*
X69000Y40707D01*
Y6474D01*
X6474D01*
Y69000D01*
X40707Y69000D01*
D02*
G37*
%LPC*%
G36*
X675215Y704267D02*
X666215D01*
Y692267D01*
X667147D01*
Y689245D01*
X667215Y688900D01*
Y688548D01*
X667350Y688224D01*
X667418Y687879D01*
X667614Y687587D01*
X667748Y687262D01*
X667997Y687013D01*
X668192Y686721D01*
X668484Y686526D01*
X668733Y686277D01*
X669057Y686143D01*
X669350Y685948D01*
X669694Y685879D01*
X670019Y685745D01*
X670370D01*
X670715Y685676D01*
X671060Y685745D01*
X671412D01*
X671736Y685879D01*
X672081Y685948D01*
X672373Y686143D01*
X672698Y686277D01*
X672946Y686526D01*
X673239Y686721D01*
X673434Y687013D01*
X673682Y687262D01*
X673817Y687587D01*
X674012Y687879D01*
X674081Y688224D01*
X674215Y688548D01*
Y688900D01*
X674284Y689245D01*
Y692267D01*
X675215D01*
Y704267D01*
D02*
G37*
G36*
X673734Y673711D02*
X668754D01*
Y672024D01*
X666214D01*
Y673711D01*
X661234D01*
Y668981D01*
X662922D01*
Y666441D01*
X661234D01*
Y661711D01*
X666214D01*
Y663399D01*
X668754D01*
Y661711D01*
X673734D01*
Y666441D01*
X672047D01*
Y668981D01*
X673734D01*
Y673711D01*
D02*
G37*
G36*
X436880Y669879D02*
X435514Y669608D01*
X434941Y669224D01*
X434897Y669206D01*
X434864Y669173D01*
X434357Y668834D01*
X434017Y668327D01*
X433913Y668222D01*
X433856Y668085D01*
X433583Y667676D01*
X433487Y667194D01*
X433380Y666936D01*
Y666656D01*
X433311Y666311D01*
Y666072D01*
X433180Y664857D01*
X422180D01*
Y654857D01*
X433180D01*
Y656288D01*
X439520D01*
Y654857D01*
X450520D01*
Y664857D01*
X440449D01*
Y666311D01*
X440380Y666656D01*
Y666936D01*
X440273Y667194D01*
X440177Y667676D01*
X439904Y668085D01*
X439847Y668222D01*
X439743Y668327D01*
X439403Y668834D01*
X438896Y669173D01*
X438863Y669206D01*
X438819Y669224D01*
X438246Y669608D01*
X436880Y669879D01*
D02*
G37*
G36*
X796949Y679801D02*
X762961D01*
Y654703D01*
X796949D01*
Y679801D01*
D02*
G37*
G36*
X698734Y644320D02*
X686234D01*
Y641144D01*
X682110D01*
X681967Y641287D01*
X680680Y641820D01*
X679288D01*
X678001Y641287D01*
X677017Y640302D01*
X676484Y639016D01*
Y637623D01*
X677017Y636337D01*
X678001Y635352D01*
X679288Y634820D01*
X680680D01*
X681967Y635352D01*
X682110Y635495D01*
X686234D01*
Y632320D01*
X698734D01*
Y634751D01*
X707274D01*
X715296Y626729D01*
X716454Y625955D01*
X717820Y625683D01*
X740946D01*
Y623688D01*
X760964D01*
Y634816D01*
X740946D01*
Y632821D01*
X719298D01*
X711275Y640843D01*
X710118Y641617D01*
X708752Y641888D01*
X698734D01*
Y644320D01*
D02*
G37*
G36*
X688874Y730009D02*
X688529Y729940D01*
X688178D01*
X687853Y729806D01*
X687508Y729737D01*
X687216Y729542D01*
X686891Y729407D01*
X686643Y729159D01*
X686351Y728963D01*
X686155Y728671D01*
X685907Y728423D01*
X685772Y728098D01*
X685577Y727806D01*
X685509Y727461D01*
X685374Y727136D01*
Y726785D01*
X685305Y726440D01*
Y704268D01*
X684374D01*
Y692268D01*
X685305D01*
Y689245D01*
X685577Y687879D01*
X686351Y686721D01*
X688591Y684481D01*
X688131Y683211D01*
X686234D01*
Y671211D01*
X688915D01*
Y664211D01*
X686234D01*
Y652211D01*
X698734D01*
Y654643D01*
X708274D01*
X723688Y639229D01*
X724846Y638455D01*
X726211Y638183D01*
X740946D01*
Y636188D01*
X760964D01*
Y647316D01*
X740946D01*
Y645321D01*
X727690D01*
X712275Y660735D01*
X711118Y661508D01*
X709752Y661780D01*
X698734D01*
Y664211D01*
X696053D01*
Y671211D01*
X698734D01*
Y683211D01*
X696053D01*
Y685635D01*
X695781Y687000D01*
X695007Y688158D01*
X692443Y690723D01*
Y692268D01*
X693374D01*
Y704268D01*
X692443D01*
Y726440D01*
X692374Y726785D01*
Y727136D01*
X692240Y727461D01*
X692171Y727806D01*
X691976Y728098D01*
X691841Y728423D01*
X691593Y728671D01*
X691397Y728963D01*
X691105Y729159D01*
X690857Y729407D01*
X690532Y729542D01*
X690240Y729737D01*
X689895Y729806D01*
X689570Y729940D01*
X689219D01*
X688874Y730009D01*
D02*
G37*
G36*
X450520Y636378D02*
X439520D01*
Y634945D01*
X433180D01*
Y636376D01*
X422180D01*
Y626376D01*
X433180D01*
Y627808D01*
X439520D01*
Y626378D01*
X450520D01*
Y636378D01*
D02*
G37*
G36*
X673734Y634820D02*
X668754D01*
Y633132D01*
X666214D01*
Y634820D01*
X661234D01*
Y630090D01*
X662922D01*
Y627550D01*
X661234D01*
Y622820D01*
X666214D01*
Y624507D01*
X668754D01*
Y622820D01*
X673734D01*
Y627550D01*
X672047D01*
Y630090D01*
X673734D01*
Y634820D01*
D02*
G37*
G36*
X414960Y664856D02*
X403960D01*
Y654856D01*
X405891D01*
Y636376D01*
X403960D01*
Y626376D01*
X414960D01*
Y636376D01*
X413028D01*
Y654856D01*
X414960D01*
Y664856D01*
D02*
G37*
G36*
X433180Y620376D02*
X428950D01*
Y618689D01*
X426410D01*
Y620376D01*
X422180D01*
Y616646D01*
X423868D01*
Y614106D01*
X422180D01*
Y610376D01*
X426410D01*
Y612064D01*
X428950D01*
Y610376D01*
X433180D01*
Y614106D01*
X431492D01*
Y616646D01*
X433180D01*
Y620376D01*
D02*
G37*
G36*
X414960D02*
X410730D01*
Y618689D01*
X408190D01*
Y620376D01*
X403960D01*
Y616646D01*
X405648D01*
Y614106D01*
X403960D01*
Y610376D01*
X408190D01*
Y612064D01*
X410730D01*
Y610376D01*
X414960D01*
Y614106D01*
X413272D01*
Y616646D01*
X414960D01*
Y620376D01*
D02*
G37*
G36*
X698734Y625320D02*
X686234D01*
Y622888D01*
X679984D01*
X679639Y622820D01*
X679288D01*
X678963Y622685D01*
X678618Y622617D01*
X678326Y622421D01*
X678001Y622287D01*
X677753Y622038D01*
X677461Y621843D01*
X677265Y621551D01*
X677017Y621302D01*
X676882Y620977D01*
X676687Y620685D01*
X676619Y620340D01*
X676484Y620016D01*
Y619664D01*
X676415Y619320D01*
X676484Y618975D01*
Y618623D01*
X676619Y618299D01*
X676687Y617954D01*
X676882Y617662D01*
X677017Y617337D01*
X677265Y617089D01*
X677461Y616796D01*
X677753Y616601D01*
X678001Y616352D01*
X678326Y616218D01*
X678618Y616023D01*
X678963Y615954D01*
X679288Y615820D01*
X679639D01*
X679984Y615751D01*
X686234D01*
Y613320D01*
X698734D01*
Y615751D01*
X708274D01*
X709796Y614229D01*
X710954Y613455D01*
X712320Y613183D01*
X740946D01*
Y611188D01*
X760964D01*
Y622316D01*
X740946D01*
Y620321D01*
X713798D01*
X712275Y621843D01*
X711118Y622617D01*
X709752Y622888D01*
X698734D01*
Y625320D01*
D02*
G37*
G36*
X760964Y609816D02*
X740946D01*
Y607821D01*
X713576D01*
X712211Y607549D01*
X711053Y606775D01*
X707274Y602996D01*
X698734D01*
Y605428D01*
X686234D01*
Y593428D01*
X698734D01*
Y595859D01*
X703895D01*
X703903Y595856D01*
X705295D01*
X705302Y595859D01*
X708752D01*
X710118Y596131D01*
X711275Y596904D01*
X715054Y600683D01*
X740946D01*
Y598688D01*
X760964D01*
Y609816D01*
D02*
G37*
G36*
X673734Y595928D02*
X668754D01*
Y594240D01*
X666214D01*
Y595928D01*
X661234D01*
Y591198D01*
X662922D01*
Y588658D01*
X661234D01*
Y583928D01*
X666214D01*
Y585615D01*
X668754D01*
Y583928D01*
X673734D01*
Y588658D01*
X672047D01*
Y591198D01*
X673734D01*
Y595928D01*
D02*
G37*
G36*
X760964Y597316D02*
X740946D01*
Y595321D01*
X720400D01*
X719035Y595049D01*
X717877Y594275D01*
X707598Y583996D01*
X698734D01*
Y586428D01*
X686234D01*
Y583996D01*
X679984D01*
X679639Y583928D01*
X679288D01*
X678963Y583793D01*
X678618Y583725D01*
X678326Y583529D01*
X678001Y583395D01*
X677753Y583146D01*
X677461Y582951D01*
X677265Y582659D01*
X677017Y582410D01*
X676882Y582086D01*
X676687Y581793D01*
X676619Y581449D01*
X676484Y581124D01*
Y580773D01*
X676415Y580428D01*
X676484Y580083D01*
Y579732D01*
X676619Y579407D01*
X676687Y579062D01*
X676882Y578770D01*
X677017Y578445D01*
X677265Y578197D01*
X677461Y577904D01*
X677753Y577709D01*
X678001Y577461D01*
X678326Y577326D01*
X678618Y577131D01*
X678963Y577062D01*
X679288Y576928D01*
X679639D01*
X679984Y576859D01*
X686234D01*
Y574428D01*
X698734D01*
Y576859D01*
X709076D01*
X710442Y577131D01*
X711600Y577904D01*
X721879Y588183D01*
X740946D01*
Y586188D01*
X760964D01*
Y597316D01*
D02*
G37*
G36*
X288596Y774984D02*
X235296D01*
X233930Y774712D01*
X232773Y773938D01*
X222797Y763962D01*
X222023Y762804D01*
X221751Y761439D01*
Y750239D01*
X219820D01*
Y748808D01*
X216858D01*
X215493Y748536D01*
X214335Y747763D01*
X205757Y739184D01*
X204983Y738026D01*
X204711Y736661D01*
Y605301D01*
Y459857D01*
Y313085D01*
X204983Y311719D01*
X205757Y310561D01*
X222800Y293518D01*
X222274Y292248D01*
X150617D01*
X150617Y292248D01*
X149536Y292033D01*
X148620Y291421D01*
X132876Y275677D01*
X132294Y276013D01*
X130005Y276627D01*
X127635D01*
X125346Y276013D01*
X123294Y274828D01*
X121618Y273153D01*
X120433Y271101D01*
X119820Y268812D01*
Y266442D01*
X120433Y264153D01*
X121618Y262101D01*
X123294Y260425D01*
X125346Y259240D01*
X127635Y258627D01*
X130005D01*
X132294Y259240D01*
X134346Y260425D01*
X136022Y262101D01*
X137207Y264153D01*
X137820Y266442D01*
Y268812D01*
X137207Y271101D01*
X136870Y271683D01*
X151787Y286600D01*
X180054D01*
X180580Y285329D01*
X171209Y275958D01*
X171114Y276013D01*
X168825Y276627D01*
X166455D01*
X164166Y276013D01*
X162114Y274828D01*
X160438Y273153D01*
X159253Y271101D01*
X158640Y268812D01*
Y266442D01*
X159253Y264153D01*
X160438Y262101D01*
X162114Y260425D01*
X164166Y259240D01*
X166455Y258627D01*
X168825D01*
X171114Y259240D01*
X173166Y260425D01*
X174842Y262101D01*
X176027Y264153D01*
X176640Y266442D01*
Y268812D01*
X176027Y271101D01*
X175409Y272170D01*
X184895Y281656D01*
X222902D01*
X223863Y280386D01*
X223855Y280360D01*
X223531Y280226D01*
X223186Y280157D01*
X222894Y279962D01*
X222569Y279827D01*
X222320Y279579D01*
X222028Y279383D01*
X221833Y279091D01*
X221584Y278843D01*
X221450Y278518D01*
X221255Y278226D01*
X221186Y277881D01*
X221052Y277556D01*
Y277205D01*
X220983Y276860D01*
X221052Y276515D01*
Y276164D01*
X221186Y275839D01*
X221255Y275494D01*
X221450Y275202D01*
X221584Y274877D01*
X221833Y274629D01*
X222028Y274337D01*
X222320Y274141D01*
X222569Y273893D01*
X222894Y273758D01*
X223186Y273563D01*
X223531Y273494D01*
X223855Y273360D01*
X224207D01*
X224552Y273291D01*
X226953D01*
X228980Y271265D01*
Y269417D01*
X227550D01*
Y258417D01*
X231681D01*
X231882Y258121D01*
X231210Y256852D01*
X105822D01*
X98415Y264258D01*
X99000Y266442D01*
Y268811D01*
X98387Y271101D01*
X97202Y273153D01*
X95526Y274828D01*
X93474Y276013D01*
X91185Y276627D01*
X88815D01*
X86526Y276013D01*
X84474Y274828D01*
X82798Y273153D01*
X81613Y271101D01*
X81000Y268811D01*
Y266442D01*
X81613Y264153D01*
X82798Y262101D01*
X84474Y260425D01*
X86526Y259240D01*
X88815Y258627D01*
X91185D01*
X93368Y259212D01*
X101820Y250760D01*
X102978Y249986D01*
X104344Y249714D01*
X241204D01*
X245890Y245029D01*
Y226195D01*
X245910Y226091D01*
X245753Y225812D01*
X244837Y224977D01*
X243888D01*
X243438Y224790D01*
X235637D01*
X234700Y224604D01*
X227550D01*
Y213604D01*
X232864D01*
X233684Y212784D01*
X233911Y212632D01*
X233934Y211120D01*
X230207Y207393D01*
X229489Y206318D01*
X229236Y205050D01*
Y202198D01*
X227550D01*
Y191198D01*
X237550D01*
Y202198D01*
X235864D01*
Y203677D01*
X237649Y205463D01*
X247488D01*
X247824Y204853D01*
X248001Y204193D01*
X247051Y202772D01*
X246681Y200913D01*
X246711D01*
Y190884D01*
X244758Y188931D01*
X220096D01*
X218828Y188679D01*
X217753Y187961D01*
X214207Y184415D01*
X213489Y183340D01*
X213236Y182072D01*
Y179792D01*
X211550D01*
Y168792D01*
X213236D01*
Y166402D01*
X128657D01*
X98304Y196756D01*
X98387Y196899D01*
X99000Y199188D01*
Y201558D01*
X98387Y203847D01*
X97202Y205899D01*
X95526Y207575D01*
X93474Y208760D01*
X91185Y209373D01*
X88815D01*
X86526Y208760D01*
X84474Y207575D01*
X82798Y205899D01*
X81613Y203847D01*
X81000Y201558D01*
Y199188D01*
X81613Y196899D01*
X82798Y194847D01*
X84474Y193171D01*
X86526Y191987D01*
X88815Y191373D01*
X91185D01*
X93474Y191987D01*
X93617Y192069D01*
X124942Y160745D01*
X126017Y160027D01*
X127285Y159775D01*
X213235D01*
Y156984D01*
X210782D01*
Y144984D01*
X216212D01*
X216532Y144920D01*
X217710D01*
X227360Y135270D01*
X227551Y134079D01*
X227551D01*
Y125758D01*
X226378Y125272D01*
X222978Y128672D01*
X221903Y129390D01*
X221551Y129460D01*
Y134079D01*
X211551D01*
Y123079D01*
X217981D01*
X218301Y123015D01*
X219262D01*
X228435Y113843D01*
X227909Y112573D01*
X227550D01*
Y101573D01*
X233980D01*
X234300Y101509D01*
X236183D01*
X250598Y87094D01*
X250072Y85824D01*
X246963D01*
X246677Y86110D01*
X245602Y86828D01*
X244334Y87080D01*
X237551D01*
Y89266D01*
X231737D01*
X220701Y100303D01*
X221227Y101573D01*
X221550D01*
Y112573D01*
X211550D01*
Y101573D01*
X213236D01*
Y99767D01*
X213489Y98499D01*
X214207Y97424D01*
X221095Y90536D01*
X220569Y89266D01*
X217821D01*
Y87579D01*
X215281D01*
Y89266D01*
X211551D01*
Y85036D01*
X213238D01*
Y82496D01*
X211551D01*
Y78266D01*
X215281D01*
Y79954D01*
X217821D01*
Y78266D01*
X221551D01*
Y82496D01*
X219863D01*
Y85036D01*
X221551D01*
Y88284D01*
X222821Y88810D01*
X227551Y84080D01*
Y78266D01*
X237551D01*
Y80453D01*
X242961D01*
X243247Y80167D01*
X244322Y79449D01*
X245590Y79196D01*
X254483D01*
X255048Y77926D01*
X254615Y77278D01*
X254363Y76010D01*
X254615Y74744D01*
X256059Y76189D01*
X257855Y74393D01*
X256222Y72760D01*
X257855Y71127D01*
X256059Y69331D01*
X254615Y70776D01*
X254363Y69510D01*
X254615Y68242D01*
X255171Y67410D01*
X254886Y66533D01*
X254608Y66140D01*
X237550D01*
Y67760D01*
X227550D01*
Y56760D01*
X229235D01*
Y54114D01*
X184079D01*
X175944Y62249D01*
X176027Y62392D01*
X176640Y64681D01*
Y67051D01*
X176027Y69340D01*
X174842Y71392D01*
X173166Y73068D01*
X171114Y74253D01*
X168825Y74866D01*
X166455D01*
X164166Y74253D01*
X162114Y73068D01*
X160438Y71392D01*
X159253Y69340D01*
X158640Y67051D01*
Y64681D01*
X159253Y62392D01*
X160438Y60340D01*
X162114Y58664D01*
X164166Y57480D01*
X166455Y56866D01*
X168825D01*
X171114Y57480D01*
X171257Y57562D01*
X180363Y48457D01*
X181438Y47739D01*
X182706Y47486D01*
X231402D01*
X231852Y47300D01*
X233245D01*
X234531Y47833D01*
X235515Y48817D01*
X236048Y50104D01*
Y51496D01*
X235862Y51946D01*
Y56760D01*
X237550D01*
Y59513D01*
X254247D01*
X254925Y58243D01*
X254615Y57778D01*
X254363Y56510D01*
X254615Y55242D01*
X255333Y54167D01*
X256408Y53449D01*
X257676Y53196D01*
X267176D01*
X268444Y53449D01*
X269520Y54167D01*
X270238Y55242D01*
X270490Y56510D01*
X270238Y57778D01*
X269520Y58853D01*
X269664Y60284D01*
X269963Y60483D01*
X270681Y61558D01*
X270933Y62826D01*
X270681Y64095D01*
X269963Y65170D01*
X269389Y65553D01*
X269282Y66966D01*
X269300Y67015D01*
X269305Y67024D01*
X269520Y67167D01*
X270238Y68242D01*
X270490Y69510D01*
X270238Y70776D01*
X268794Y69331D01*
X266998Y71127D01*
X268630Y72760D01*
X266998Y74393D01*
X268794Y76189D01*
X270238Y74744D01*
X270490Y76010D01*
X270238Y77278D01*
X269520Y78353D01*
X269305Y78496D01*
Y80024D01*
X269520Y80167D01*
X270238Y81242D01*
X270490Y82510D01*
X270238Y83778D01*
X269520Y84853D01*
X269305Y84996D01*
Y86524D01*
X269520Y86667D01*
X270238Y87742D01*
X270490Y89010D01*
X270238Y90278D01*
X269520Y91353D01*
X269305Y91496D01*
Y93024D01*
X269520Y93167D01*
X270238Y94242D01*
X270490Y95510D01*
X270238Y96778D01*
X269520Y97853D01*
X269305Y97996D01*
Y99524D01*
X269520Y99667D01*
X270238Y100742D01*
X270490Y102010D01*
X270238Y103278D01*
X269520Y104353D01*
X268444Y105071D01*
X267176Y105324D01*
X265740D01*
Y114367D01*
X270122Y118749D01*
X315975D01*
X316653Y117479D01*
X316365Y117047D01*
X316113Y115779D01*
Y105324D01*
X314676D01*
X313408Y105071D01*
X312333Y104353D01*
X311615Y103278D01*
X311363Y102010D01*
X311615Y100742D01*
X312333Y99667D01*
X312548Y99524D01*
Y97996D01*
X312333Y97853D01*
X311615Y96778D01*
X311363Y95510D01*
X311615Y94242D01*
X312333Y93167D01*
X312548Y93024D01*
Y92935D01*
X314855Y90627D01*
X313059Y88831D01*
X311614Y90276D01*
X311363Y89010D01*
X311615Y87742D01*
X311878Y87349D01*
X311199Y86079D01*
X303741D01*
X303396Y86010D01*
X303045D01*
X302720Y85876D01*
X302375Y85807D01*
X302083Y85612D01*
X301758Y85477D01*
X301510Y85229D01*
X301217Y85033D01*
X301022Y84741D01*
X300774Y84493D01*
X300639Y84168D01*
X300444Y83876D01*
X300375Y83531D01*
X300241Y83206D01*
Y82855D01*
X300172Y82510D01*
X300241Y82165D01*
Y81814D01*
X300375Y81489D01*
X300444Y81144D01*
X300639Y80852D01*
X300774Y80527D01*
X301022Y80279D01*
X301217Y79987D01*
X301510Y79791D01*
X301758Y79543D01*
X302083Y79408D01*
X302375Y79213D01*
X302720Y79145D01*
X303045Y79010D01*
X303396D01*
X303741Y78941D01*
X311199D01*
X311878Y77671D01*
X311615Y77278D01*
X311363Y76010D01*
X311615Y74742D01*
X312333Y73667D01*
X312548Y73524D01*
Y71996D01*
X312333Y71853D01*
X311615Y70778D01*
X311363Y69510D01*
X311615Y68242D01*
X312333Y67167D01*
X312548Y67024D01*
Y65496D01*
X312333Y65353D01*
X311615Y64278D01*
X311363Y63010D01*
X311615Y61742D01*
X312333Y60667D01*
X312548Y60524D01*
Y58996D01*
X312333Y58853D01*
X311615Y57778D01*
X311363Y56510D01*
X311615Y55242D01*
X312333Y54167D01*
X313408Y53449D01*
X314676Y53196D01*
X324176D01*
X325444Y53449D01*
X325799Y53686D01*
X339028D01*
X339171Y53543D01*
X340457Y53010D01*
X341849D01*
X343136Y53543D01*
X343279Y53686D01*
X349686D01*
X349686Y53686D01*
X350562Y53860D01*
X357680D01*
Y56409D01*
X358502D01*
X359770Y56661D01*
X360845Y57379D01*
X362410Y58944D01*
X363680Y58418D01*
Y53860D01*
X373680D01*
Y64860D01*
X372249D01*
Y87620D01*
X373680D01*
Y98619D01*
X372249D01*
Y121379D01*
X373680D01*
Y123310D01*
X383065D01*
X383744Y122040D01*
X383256Y121310D01*
X382907Y119554D01*
X383256Y117798D01*
X384251Y116310D01*
X385739Y115315D01*
X387495Y114966D01*
X397504D01*
Y111323D01*
X413200D01*
Y127785D01*
X406592D01*
Y131902D01*
X406243Y133657D01*
X405248Y135146D01*
X400560Y139834D01*
Y152422D01*
Y158422D01*
X400211Y160177D01*
X399216Y161666D01*
X397728Y162661D01*
X395972Y163010D01*
X394216Y162661D01*
X392728Y161666D01*
X391733Y160177D01*
X391384Y158422D01*
Y152422D01*
Y141987D01*
X391182Y141851D01*
X391135Y141833D01*
X390304Y141762D01*
X389457Y142188D01*
X389407Y142263D01*
X389114Y142459D01*
X388866Y142707D01*
X388541Y142842D01*
X388249Y143037D01*
X387904Y143105D01*
X387579Y143240D01*
X387228D01*
X386883Y143309D01*
X347100D01*
X345734Y143037D01*
X344577Y142263D01*
X337712Y135399D01*
X336939Y134241D01*
X336667Y132876D01*
Y99525D01*
X335397Y98750D01*
X334769Y99010D01*
X333377D01*
X332091Y98477D01*
X331948Y98334D01*
X326811D01*
X326426Y99604D01*
X326520Y99667D01*
X327238Y100742D01*
X327490Y102010D01*
X327238Y103278D01*
X326520Y104353D01*
X325444Y105071D01*
X324176Y105324D01*
X322740D01*
Y114406D01*
X328053Y119719D01*
X328771Y120794D01*
X329024Y122063D01*
Y130381D01*
X330710D01*
Y141381D01*
X329024D01*
Y144174D01*
X329210Y144624D01*
Y146016D01*
X328677Y147303D01*
X327693Y148287D01*
X326406Y148820D01*
X325014D01*
X323727Y148287D01*
X322743Y147303D01*
X322210Y146016D01*
Y144624D01*
X322396Y144174D01*
Y141381D01*
X320710D01*
Y130381D01*
X320710D01*
X321159Y129298D01*
X317237Y125376D01*
X268750D01*
X267482Y125124D01*
X266407Y124406D01*
X260083Y118082D01*
X259365Y117007D01*
X259113Y115739D01*
Y105324D01*
X257676D01*
X256408Y105071D01*
X255333Y104353D01*
X254615Y103278D01*
X254363Y102010D01*
X254615Y100742D01*
X255333Y99667D01*
X255548Y99524D01*
Y97996D01*
X255333Y97853D01*
X254615Y96778D01*
X254363Y95510D01*
X254615Y94242D01*
X253622Y93442D01*
X239898Y107166D01*
X238824Y107884D01*
X237555Y108136D01*
X237550D01*
Y112573D01*
X235864D01*
Y114413D01*
X235611Y115681D01*
X234893Y116756D01*
X229744Y121906D01*
X230230Y123079D01*
X237551D01*
Y134079D01*
X234995D01*
Y135634D01*
X234743Y136903D01*
X234025Y137978D01*
X221425Y150577D01*
X220350Y151295D01*
X219782Y151408D01*
Y153079D01*
X219862Y153481D01*
Y163582D01*
X219864Y163590D01*
Y168792D01*
X221550D01*
Y179792D01*
X220739D01*
X220226Y181061D01*
X221469Y182304D01*
X246131D01*
X247399Y182556D01*
X248474Y183274D01*
X252368Y187169D01*
X253086Y188244D01*
X253338Y189512D01*
Y192763D01*
X254899D01*
Y186227D01*
X275899D01*
Y192577D01*
Y198927D01*
Y205463D01*
X278967D01*
X281569Y202861D01*
Y166718D01*
X279282Y164431D01*
X275442D01*
Y166588D01*
X265442D01*
Y156746D01*
X265441Y156071D01*
X264202Y155514D01*
X259442Y160275D01*
Y166588D01*
X249442D01*
Y164637D01*
X239203D01*
X236318Y167521D01*
X236844Y168792D01*
X237550D01*
Y179792D01*
X227550D01*
Y168792D01*
X229236D01*
Y166604D01*
X229489Y165336D01*
X230207Y164261D01*
X235487Y158980D01*
X236562Y158262D01*
X236597Y158255D01*
X236472Y156985D01*
X228941D01*
Y144985D01*
X237941D01*
Y146922D01*
X239111D01*
X240672Y147232D01*
X241995Y148117D01*
X242879Y149440D01*
X243189Y151000D01*
X242879Y152561D01*
X241995Y153884D01*
X240672Y154768D01*
X239111Y155079D01*
X237941D01*
Y156740D01*
X237941Y156985D01*
X238533Y158010D01*
X249442D01*
Y155588D01*
X254755D01*
X262827Y147517D01*
X263902Y146799D01*
X265170Y146546D01*
X298982D01*
X300250Y146799D01*
X301325Y147517D01*
X309397Y155588D01*
X314711D01*
Y166588D01*
X304711D01*
Y160275D01*
X297610Y153174D01*
X266542D01*
X265367Y154349D01*
X265924Y155588D01*
X266512Y155588D01*
X275442D01*
Y157803D01*
X280655D01*
X281923Y158056D01*
X282998Y158774D01*
X287226Y163003D01*
X287945Y164078D01*
X288197Y165346D01*
Y204234D01*
X287945Y205502D01*
X287226Y206577D01*
X282683Y211120D01*
X281608Y211838D01*
X280340Y212090D01*
X275899D01*
Y224258D01*
X282883D01*
X284249Y224530D01*
X285406Y225303D01*
X292600Y232497D01*
X293374Y233655D01*
X293645Y235020D01*
Y258348D01*
X304711D01*
Y256417D01*
X306142D01*
Y252420D01*
X306414Y251054D01*
X307187Y249897D01*
X312687Y244397D01*
X313845Y243623D01*
X315211Y243351D01*
X349970D01*
X350315Y243420D01*
X350666D01*
X350991Y243554D01*
X351336Y243623D01*
X351628Y243818D01*
X351953Y243953D01*
X352201Y244201D01*
X352493Y244397D01*
X352689Y244689D01*
X352937Y244937D01*
X353072Y245262D01*
X353267Y245554D01*
X353335Y245899D01*
X353470Y246224D01*
Y246575D01*
X353539Y246920D01*
X353470Y247265D01*
Y247616D01*
X353335Y247941D01*
X353267Y248286D01*
X353072Y248578D01*
X352937Y248903D01*
X352689Y249151D01*
X352493Y249443D01*
X352201Y249639D01*
X351953Y249887D01*
X351628Y250022D01*
X351336Y250217D01*
X350991Y250285D01*
X350666Y250420D01*
X350315D01*
X349970Y250489D01*
X316689D01*
X313279Y253898D01*
Y256417D01*
X314711D01*
Y267417D01*
X304711D01*
Y265485D01*
X275442D01*
Y267417D01*
X265442D01*
Y256417D01*
X275442D01*
Y258348D01*
X286508D01*
Y236498D01*
X281405Y231395D01*
X275899D01*
Y237677D01*
X268968D01*
Y242003D01*
X268696Y243369D01*
X267923Y244526D01*
X258011Y254438D01*
Y256417D01*
X259442D01*
Y267417D01*
X258011D01*
Y270842D01*
X260460Y273291D01*
X319833D01*
X322142Y270983D01*
Y267417D01*
X320711D01*
Y256417D01*
X330711D01*
Y258348D01*
X347680D01*
Y256417D01*
X357680D01*
Y267417D01*
X347680D01*
Y265485D01*
X330711D01*
Y267417D01*
X329279D01*
Y272461D01*
X329008Y273827D01*
X328234Y274984D01*
X323835Y279383D01*
X322677Y280157D01*
X321527Y280386D01*
X321652Y281656D01*
X373893D01*
X373893Y281656D01*
X374974Y281871D01*
X375890Y282483D01*
X390220Y296813D01*
X390220Y296813D01*
X390832Y297729D01*
X391047Y298810D01*
X391047Y298810D01*
Y322845D01*
X398356Y330154D01*
X402854D01*
X403960Y329759D01*
X403960Y328884D01*
Y326029D01*
X405648D01*
Y323489D01*
X403960D01*
Y319759D01*
X408190D01*
Y321447D01*
X410730D01*
Y319759D01*
X414960D01*
Y323489D01*
X413272D01*
Y326029D01*
X414960D01*
Y329759D01*
X416066Y330154D01*
X416166D01*
X416167Y330154D01*
X417247Y330369D01*
X418164Y330982D01*
X420597Y333414D01*
X420597Y333414D01*
X421209Y334331D01*
X421312Y334849D01*
X422025Y335597D01*
X422551Y335759D01*
X422694Y335759D01*
X433180D01*
Y337191D01*
X439520D01*
Y335761D01*
X450520D01*
Y345761D01*
X439520D01*
Y344328D01*
X433180D01*
Y345759D01*
X422694D01*
X422180Y345759D01*
X421424Y346716D01*
Y363283D01*
X422180Y364240D01*
X433180D01*
Y365671D01*
X439520D01*
Y364240D01*
X450520D01*
Y365671D01*
X452222D01*
X454677Y363217D01*
X454753Y363165D01*
X455217Y362701D01*
X455824Y362450D01*
X455834Y362443D01*
X455847Y362440D01*
X456504Y362168D01*
X457896D01*
X458553Y362440D01*
X458566Y362443D01*
X458576Y362450D01*
X459183Y362701D01*
X459646Y363165D01*
X459723Y363217D01*
X459775Y363293D01*
X460167Y363686D01*
X460379Y364198D01*
X460497Y364374D01*
X460538Y364581D01*
X460700Y364972D01*
Y365395D01*
X460769Y365740D01*
X460700Y366085D01*
Y366365D01*
X460593Y366623D01*
X460497Y367105D01*
X460224Y367514D01*
X460167Y367651D01*
X460063Y367756D01*
X459723Y368263D01*
X456223Y371763D01*
X455066Y372537D01*
X453700Y372808D01*
X450520D01*
Y374240D01*
X451639Y374605D01*
X461650D01*
Y374194D01*
X520081D01*
Y359055D01*
X484650D01*
X484305Y358986D01*
X483954D01*
X483629Y358852D01*
X483284Y358783D01*
X482992Y358588D01*
X482667Y358453D01*
X482419Y358205D01*
X482174Y358042D01*
X482095Y357997D01*
X482094Y357996D01*
X481135Y357929D01*
X480684Y358049D01*
X480633Y358079D01*
X480165Y358391D01*
X480132Y358424D01*
X480089Y358442D01*
X479516Y358825D01*
X478150Y359097D01*
X476784Y358825D01*
X476211Y358442D01*
X476167Y358424D01*
X476134Y358391D01*
X475627Y358052D01*
X475287Y357544D01*
X475183Y357440D01*
X475126Y357303D01*
X474853Y356894D01*
X474757Y356412D01*
X474650Y356153D01*
Y355873D01*
X474581Y355528D01*
Y335806D01*
X461650D01*
Y330374D01*
X457200D01*
X456855Y330306D01*
X456504D01*
X456179Y330171D01*
X455834Y330103D01*
X455542Y329907D01*
X455217Y329773D01*
X454969Y329524D01*
X454677Y329329D01*
X454481Y329037D01*
X454233Y328788D01*
X454098Y328464D01*
X453903Y328172D01*
X453834Y327827D01*
X453700Y327502D01*
Y327151D01*
X453631Y326806D01*
X453700Y326461D01*
Y326110D01*
X453834Y325785D01*
X453903Y325440D01*
X454098Y325148D01*
X454233Y324823D01*
X454481Y324575D01*
X454677Y324282D01*
X454969Y324087D01*
X455217Y323839D01*
X455542Y323704D01*
X455834Y323509D01*
X456179Y323440D01*
X456504Y323306D01*
X456855D01*
X457200Y323237D01*
X461650D01*
Y317806D01*
X468081D01*
Y316501D01*
X451371D01*
X449381Y318491D01*
X449907Y319761D01*
X450520D01*
Y329761D01*
X439520D01*
Y319761D01*
X441652D01*
Y317604D01*
X441924Y316238D01*
X442697Y315081D01*
X447369Y310409D01*
X448527Y309635D01*
X449892Y309364D01*
X468081D01*
Y306220D01*
X468353Y304854D01*
X469127Y303697D01*
X478167Y294657D01*
X479324Y293883D01*
X480690Y293611D01*
X627020D01*
X628386Y293883D01*
X629543Y294657D01*
X638658Y303771D01*
X670897D01*
X671286Y302501D01*
X670943Y302271D01*
X670877Y302171D01*
X670765Y302131D01*
X669985Y301429D01*
X669934Y301321D01*
X669828Y301266D01*
X669154Y300463D01*
X669118Y300349D01*
X669021Y300280D01*
X668589Y299588D01*
X643420D01*
X641664Y299239D01*
X640176Y298244D01*
X634736Y292804D01*
X633741Y291316D01*
X633392Y289560D01*
Y250930D01*
X619980D01*
Y222169D01*
X613727Y215916D01*
X600051D01*
Y222226D01*
X573429D01*
Y215916D01*
X544171D01*
Y222226D01*
X517549D01*
Y200430D01*
X544171D01*
Y206740D01*
X553852D01*
X576082Y184510D01*
Y173790D01*
Y166170D01*
X575170D01*
Y165758D01*
X567969D01*
Y166169D01*
X556969D01*
Y165758D01*
X545682D01*
Y175411D01*
X536358D01*
Y165758D01*
X532982D01*
Y175411D01*
X523658D01*
Y148956D01*
X532982D01*
Y156582D01*
X536358D01*
Y148956D01*
X545682D01*
Y156582D01*
X556969D01*
Y156169D01*
X567969D01*
Y156582D01*
X575170D01*
Y156170D01*
X586170D01*
Y157092D01*
X592470D01*
Y156170D01*
X603470D01*
Y166170D01*
X592470D01*
Y165248D01*
X586170D01*
Y166170D01*
X585258D01*
Y173790D01*
Y186410D01*
X584909Y188166D01*
X583914Y189655D01*
X574409Y199160D01*
X574935Y200430D01*
X600051D01*
Y206740D01*
X615628D01*
X617384Y207089D01*
X618872Y208084D01*
X627219Y216430D01*
X655980D01*
Y250930D01*
X642568D01*
Y287659D01*
X645321Y290412D01*
X668589D01*
X669021Y289720D01*
X669118Y289651D01*
X669154Y289537D01*
X669828Y288734D01*
X669934Y288679D01*
X669985Y288571D01*
X670765Y287869D01*
X670877Y287829D01*
X670943Y287729D01*
X671813Y287143D01*
X671930Y287119D01*
X672009Y287030D01*
X672952Y286570D01*
X673071Y286563D01*
X673162Y286485D01*
X674159Y286161D01*
X674278Y286170D01*
X674379Y286106D01*
X674896Y286015D01*
X675041Y286047D01*
X675178Y285990D01*
X675630Y286178D01*
X676109Y286284D01*
X676851D01*
X677329Y286178D01*
X677782Y285990D01*
X677919Y286047D01*
X678064Y286015D01*
X678581Y286106D01*
X678681Y286170D01*
X678801Y286161D01*
X679798Y286485D01*
X679889Y286563D01*
X680008Y286570D01*
X680951Y287030D01*
X681030Y287119D01*
X681147Y287143D01*
X682017Y287729D01*
X682083Y287829D01*
X682195Y287869D01*
X682975Y288571D01*
X683026Y288679D01*
X683132Y288734D01*
X683806Y289537D01*
X683842Y289651D01*
X683939Y289720D01*
X684371Y290412D01*
X695038D01*
X696794Y290761D01*
X698283Y291756D01*
X699277Y293244D01*
X699626Y295000D01*
X699277Y296756D01*
X698283Y298244D01*
X696794Y299239D01*
X695038Y299588D01*
X684371D01*
X683939Y300280D01*
X683842Y300349D01*
X683806Y300463D01*
X683132Y301266D01*
X683026Y301321D01*
X682975Y301429D01*
X682195Y302131D01*
X682083Y302171D01*
X682017Y302271D01*
X681674Y302501D01*
X682063Y303771D01*
X692459D01*
X692569Y303793D01*
X693180D01*
X693745Y304027D01*
X693825Y304043D01*
X693893Y304088D01*
X694467Y304326D01*
X694906Y304765D01*
X694983Y304817D01*
X695007Y304841D01*
X695059Y304918D01*
X695451Y305311D01*
X695664Y305823D01*
X695781Y305999D01*
X695822Y306206D01*
X695984Y306597D01*
Y307020D01*
X696053Y307365D01*
X695984Y307710D01*
Y307990D01*
X695877Y308248D01*
X695781Y308730D01*
X695508Y309139D01*
X695451Y309276D01*
X695347Y309380D01*
X695007Y309888D01*
X694500Y310227D01*
X694467Y310260D01*
X694423Y310278D01*
X693850Y310662D01*
X692484Y310933D01*
X692360Y310909D01*
X637180D01*
X635814Y310637D01*
X634657Y309863D01*
X625542Y300749D01*
X482168D01*
X475219Y307698D01*
Y317806D01*
X483380D01*
Y319494D01*
X485920D01*
Y317806D01*
X487581D01*
Y316367D01*
X487853Y315001D01*
X488627Y313844D01*
X492119Y310351D01*
X493277Y309578D01*
X494642Y309306D01*
X508755D01*
X509100Y309375D01*
X509451D01*
X509776Y309509D01*
X510120Y309578D01*
X510413Y309773D01*
X510737Y309907D01*
X510986Y310156D01*
X511278Y310351D01*
X511473Y310643D01*
X511722Y310892D01*
X511856Y311217D01*
X512052Y311509D01*
X512120Y311854D01*
X512255Y312178D01*
Y312530D01*
X512323Y312875D01*
X512255Y313219D01*
Y313571D01*
X512120Y313895D01*
X512052Y314240D01*
X511856Y314532D01*
X511722Y314857D01*
X511473Y315106D01*
X511278Y315398D01*
X510986Y315593D01*
X510737Y315842D01*
X510413Y315976D01*
X510120Y316171D01*
X509776Y316240D01*
X509451Y316375D01*
X509100D01*
X508755Y316443D01*
X497227D01*
X497165Y316536D01*
X497844Y317806D01*
X513581D01*
Y307144D01*
X513650Y306799D01*
Y306286D01*
X513846Y305813D01*
X513853Y305778D01*
X513873Y305749D01*
X514183Y305000D01*
X515167Y304015D01*
X516454Y303482D01*
X517846D01*
X519132Y304015D01*
X520117Y305000D01*
X520427Y305749D01*
X520447Y305778D01*
X520454Y305813D01*
X520650Y306286D01*
Y306799D01*
X520718Y307144D01*
Y317806D01*
X526581D01*
Y307144D01*
X526650Y306799D01*
Y306448D01*
X526784Y306123D01*
X526853Y305778D01*
X527048Y305486D01*
X527183Y305161D01*
X527431Y304913D01*
X527627Y304620D01*
X527919Y304425D01*
X528167Y304177D01*
X528492Y304042D01*
X528784Y303847D01*
X529129Y303778D01*
X529454Y303644D01*
X529805D01*
X530150Y303575D01*
X530495Y303644D01*
X530846D01*
X531171Y303778D01*
X531516Y303847D01*
X531808Y304042D01*
X532132Y304177D01*
X532381Y304425D01*
X532673Y304620D01*
X532869Y304913D01*
X533117Y305161D01*
X533252Y305486D01*
X533447Y305778D01*
X533515Y306123D01*
X533650Y306448D01*
Y306799D01*
X533718Y307144D01*
Y317806D01*
X540150D01*
Y326461D01*
X540219Y326806D01*
Y355486D01*
Y383194D01*
X540150Y383539D01*
Y392194D01*
X533718D01*
Y394031D01*
X533650Y394375D01*
Y394727D01*
X533516Y395052D01*
X533447Y395396D01*
X533252Y395689D01*
X533117Y396013D01*
X532869Y396262D01*
X532673Y396554D01*
X532381Y396749D01*
X532133Y396998D01*
X531808Y397132D01*
X531516Y397328D01*
X531171Y397396D01*
X530846Y397531D01*
X530495D01*
X530150Y397599D01*
X529805Y397531D01*
X529454D01*
X529129Y397396D01*
X528784Y397328D01*
X528492Y397132D01*
X528167Y396998D01*
X527919Y396749D01*
X527627Y396554D01*
X527431Y396262D01*
X527183Y396013D01*
X527048Y395689D01*
X526853Y395396D01*
X526785Y395052D01*
X526650Y394727D01*
Y394375D01*
X526581Y394031D01*
Y392194D01*
X520718D01*
Y394031D01*
X520650Y394375D01*
Y394727D01*
X520516Y395052D01*
X520447Y395396D01*
X520252Y395689D01*
X520117Y396013D01*
X519869Y396262D01*
X519673Y396554D01*
X519381Y396749D01*
X519133Y396998D01*
X518808Y397132D01*
X518516Y397328D01*
X518171Y397396D01*
X517846Y397531D01*
X517495D01*
X517150Y397599D01*
X516805Y397531D01*
X516454D01*
X516129Y397396D01*
X515784Y397328D01*
X515492Y397132D01*
X515167Y396998D01*
X514919Y396749D01*
X514627Y396554D01*
X514431Y396262D01*
X514183Y396013D01*
X514048Y395689D01*
X513853Y395396D01*
X513784Y395052D01*
X513650Y394727D01*
Y394375D01*
X513581Y394031D01*
Y392194D01*
X488219D01*
Y397616D01*
X487947Y398982D01*
X487173Y400140D01*
X474944Y412368D01*
X473787Y413142D01*
X472421Y413414D01*
X419644D01*
X418279Y413142D01*
X417121Y412368D01*
X406937Y402184D01*
X406163Y401026D01*
X405891Y399661D01*
Y390239D01*
X403960D01*
Y388808D01*
X399737D01*
Y528288D01*
X403960D01*
Y526856D01*
X414960D01*
Y536856D01*
X413028D01*
Y546098D01*
X419059Y552128D01*
X429589D01*
X430115Y550858D01*
X425157Y545900D01*
X424383Y544743D01*
X424111Y543377D01*
Y536857D01*
X422180D01*
Y526857D01*
X433180D01*
Y536857D01*
X431249D01*
Y541899D01*
X435238Y545888D01*
X445015D01*
X445501Y544715D01*
X442497Y541711D01*
X441723Y540553D01*
X441451Y539188D01*
Y536857D01*
X439520D01*
Y526857D01*
X444675D01*
X445020Y526788D01*
X445365Y526857D01*
X450520D01*
Y536857D01*
X449532D01*
X449006Y538127D01*
X450687Y539808D01*
X460992D01*
X461650Y538811D01*
Y520811D01*
X474581D01*
Y513379D01*
X463516Y502313D01*
X451020D01*
X450676Y502245D01*
X450324D01*
X449999Y502110D01*
X449655Y502042D01*
X449362Y501846D01*
X449038Y501712D01*
X448789Y501463D01*
X448497Y501268D01*
X448302Y500976D01*
X448053Y500727D01*
X447919Y500403D01*
X447723Y500110D01*
X447655Y499766D01*
X447520Y499441D01*
Y499090D01*
X447452Y498745D01*
X447520Y498400D01*
Y498049D01*
X447655Y497724D01*
X447723Y497379D01*
X447919Y497087D01*
X448053Y496762D01*
X448302Y496514D01*
X448497Y496221D01*
X448789Y496026D01*
X449038Y495778D01*
X449362Y495643D01*
X449655Y495448D01*
X449999Y495379D01*
X450324Y495245D01*
X450676D01*
X451020Y495176D01*
X464994D01*
X466360Y495448D01*
X467518Y496221D01*
X480673Y509377D01*
X481447Y510535D01*
X481718Y511900D01*
Y520811D01*
X520081D01*
Y505185D01*
X484626D01*
X484281Y505117D01*
X483930D01*
X483605Y504982D01*
X483260Y504914D01*
X482968Y504719D01*
X482643Y504584D01*
X482395Y504336D01*
X482102Y504140D01*
X481907Y503848D01*
X481659Y503599D01*
X481524Y503275D01*
X481329Y502982D01*
X481260Y502638D01*
X481126Y502313D01*
Y501962D01*
X481057Y501617D01*
X481126Y501272D01*
Y500921D01*
X481260Y500596D01*
X481329Y500251D01*
X481524Y499959D01*
X481659Y499634D01*
X481907Y499386D01*
X482102Y499094D01*
X482395Y498898D01*
X482643Y498650D01*
X482968Y498515D01*
X483260Y498320D01*
X483605Y498251D01*
X483930Y498117D01*
X484281D01*
X484626Y498048D01*
X494081D01*
Y482423D01*
X485920D01*
Y480735D01*
X483380D01*
Y482423D01*
X461650D01*
Y476991D01*
X457200D01*
X456855Y476923D01*
X456504D01*
X456179Y476788D01*
X455834Y476720D01*
X455542Y476525D01*
X455217Y476390D01*
X454969Y476142D01*
X454677Y475946D01*
X454481Y475654D01*
X454233Y475405D01*
X454098Y475081D01*
X453903Y474789D01*
X453834Y474444D01*
X453700Y474119D01*
Y473768D01*
X453631Y473423D01*
X453700Y473078D01*
Y472727D01*
X453834Y472402D01*
X453903Y472057D01*
X454098Y471765D01*
X454233Y471440D01*
X454481Y471192D01*
X454677Y470900D01*
X454969Y470704D01*
X455217Y470456D01*
X455542Y470321D01*
X455834Y470126D01*
X456179Y470057D01*
X456504Y469923D01*
X456855D01*
X457200Y469854D01*
X461650D01*
Y464423D01*
X466293D01*
X466819Y463153D01*
X465672Y462005D01*
X451578D01*
X448588Y464995D01*
Y466378D01*
X450520D01*
Y476378D01*
X439520D01*
Y466378D01*
X438499Y465777D01*
X436880D01*
X436535Y465709D01*
X436184D01*
X435859Y465574D01*
X435514Y465505D01*
X435222Y465310D01*
X434897Y465176D01*
X434649Y464927D01*
X434357Y464732D01*
X434161Y464440D01*
X433913Y464191D01*
X433778Y463866D01*
X433583Y463574D01*
X433515Y463229D01*
X433380Y462905D01*
Y462553D01*
X433311Y462209D01*
X433380Y461864D01*
Y461512D01*
X433515Y461188D01*
X433583Y460843D01*
X433778Y460551D01*
X433913Y460226D01*
X434161Y459977D01*
X434357Y459685D01*
X434649Y459490D01*
X434897Y459241D01*
X435222Y459107D01*
X435514Y458912D01*
X435859Y458843D01*
X436184Y458708D01*
X436535D01*
X436880Y458640D01*
X444850D01*
X446531Y456959D01*
X446006Y455689D01*
X434008D01*
X432643Y455417D01*
X432069Y455034D01*
X432026Y455016D01*
X431992Y454983D01*
X431485Y454643D01*
X431146Y454136D01*
X431041Y454031D01*
X430984Y453894D01*
X430711Y453486D01*
X430615Y453003D01*
X430508Y452745D01*
Y452465D01*
X430440Y452120D01*
X430508Y451775D01*
Y451352D01*
X430670Y450962D01*
X430711Y450754D01*
X430829Y450579D01*
X431041Y450066D01*
X431433Y449674D01*
X431485Y449597D01*
X431562Y449545D01*
X432026Y449081D01*
X432632Y448830D01*
X432643Y448823D01*
X432655Y448820D01*
X433312Y448549D01*
X434704D01*
X434711Y448551D01*
X469110D01*
X470476Y448823D01*
X471633Y449597D01*
X480673Y458637D01*
X481447Y459794D01*
X481718Y461160D01*
Y464423D01*
X483380D01*
Y466110D01*
X485920D01*
Y464423D01*
X487581D01*
Y461160D01*
X487853Y459794D01*
X488627Y458637D01*
X492587Y454677D01*
X493744Y453903D01*
X495110Y453631D01*
X584200D01*
X585566Y453903D01*
X586723Y454677D01*
X599423Y467377D01*
X599619Y467669D01*
X599867Y467917D01*
X600002Y468242D01*
X600197Y468534D01*
X600266Y468879D01*
X600400Y469204D01*
Y469555D01*
X600469Y469900D01*
X600400Y470245D01*
Y470596D01*
X600266Y470921D01*
X600197Y471266D01*
X600002Y471558D01*
X599867Y471883D01*
X599619Y472131D01*
X599423Y472423D01*
X599131Y472619D01*
X598883Y472867D01*
X598558Y473002D01*
X598266Y473197D01*
X597921Y473265D01*
X597596Y473400D01*
X597245D01*
X596900Y473469D01*
X596555Y473400D01*
X596204D01*
X595879Y473265D01*
X595534Y473197D01*
X595242Y473002D01*
X594917Y472867D01*
X594669Y472619D01*
X594377Y472423D01*
X582722Y460769D01*
X534091D01*
X533981Y460856D01*
X533474Y461646D01*
X533377Y462039D01*
X533447Y462142D01*
X533499Y462406D01*
X533667Y462812D01*
Y463251D01*
X533718Y463508D01*
Y464423D01*
X540150D01*
Y473078D01*
X540219Y473423D01*
Y501617D01*
Y529811D01*
X540150Y530156D01*
Y538811D01*
X533718D01*
Y540681D01*
X533650Y541026D01*
Y541377D01*
X533516Y541702D01*
X533447Y542047D01*
X533252Y542339D01*
X533117Y542664D01*
X532869Y542912D01*
X532673Y543204D01*
X532381Y543400D01*
X532133Y543648D01*
X531808Y543783D01*
X531516Y543978D01*
X531171Y544047D01*
X530846Y544181D01*
X530495D01*
X530150Y544250D01*
X529805Y544181D01*
X529454D01*
X529129Y544047D01*
X528784Y543978D01*
X528492Y543783D01*
X528167Y543648D01*
X527919Y543400D01*
X527627Y543204D01*
X527431Y542912D01*
X527183Y542664D01*
X527048Y542339D01*
X526853Y542047D01*
X526785Y541702D01*
X526650Y541377D01*
Y541026D01*
X526581Y540681D01*
Y538811D01*
X520718D01*
Y544910D01*
X520650Y545255D01*
Y545606D01*
X520516Y545931D01*
X520447Y546276D01*
X520252Y546568D01*
X520117Y546893D01*
X519869Y547141D01*
X519673Y547434D01*
X519381Y547629D01*
X519133Y547877D01*
X518808Y548012D01*
X518516Y548207D01*
X518171Y548276D01*
X517846Y548410D01*
X517495D01*
X517150Y548479D01*
X516805Y548410D01*
X516454D01*
X516129Y548276D01*
X515784Y548207D01*
X515492Y548012D01*
X515167Y547877D01*
X514919Y547629D01*
X514627Y547434D01*
X514431Y547141D01*
X514183Y546893D01*
X514048Y546568D01*
X513853Y546276D01*
X513784Y545931D01*
X513650Y545606D01*
Y545255D01*
X513581Y544910D01*
Y538811D01*
X488219D01*
Y546194D01*
X487947Y547560D01*
X487173Y548717D01*
X477670Y558220D01*
X476512Y558994D01*
X475147Y559266D01*
X417581D01*
X416216Y558994D01*
X415058Y558220D01*
X406937Y550099D01*
X406163Y548941D01*
X405891Y547576D01*
Y536856D01*
X403960D01*
Y535425D01*
X399737D01*
Y668118D01*
X402690Y671071D01*
X403960Y670856D01*
Y670856D01*
X414960D01*
Y680856D01*
X413028D01*
Y689557D01*
X420740Y697268D01*
X428365D01*
X428851Y696095D01*
X425157Y692400D01*
X424383Y691243D01*
X424111Y689877D01*
Y680857D01*
X422180D01*
Y670857D01*
X433180D01*
Y680857D01*
X431249D01*
Y688399D01*
X434261Y691411D01*
X443670D01*
X444156Y690238D01*
X442497Y688578D01*
X441723Y687421D01*
X441451Y686055D01*
Y680857D01*
X439520D01*
Y670857D01*
X450520D01*
Y680857D01*
X448588D01*
Y684577D01*
X449360Y685348D01*
X462650D01*
X462953Y684678D01*
X463039Y684078D01*
X462183Y683222D01*
X462012Y682811D01*
X461650D01*
Y664811D01*
X474581D01*
Y654870D01*
X465964Y646253D01*
X451275D01*
X449910Y645981D01*
X449336Y645598D01*
X449293Y645580D01*
X449259Y645547D01*
X448752Y645208D01*
X448413Y644700D01*
X448308Y644595D01*
X448251Y644459D01*
X447978Y644050D01*
X447882Y643568D01*
X447775Y643309D01*
Y643029D01*
X447707Y642684D01*
X447775Y642340D01*
Y641917D01*
X447937Y641526D01*
X447978Y641319D01*
X448096Y641143D01*
X448308Y640630D01*
X448700Y640238D01*
X448752Y640161D01*
X448829Y640110D01*
X449293Y639646D01*
X449899Y639395D01*
X449910Y639388D01*
X449922Y639385D01*
X450579Y639113D01*
X451971D01*
X451978Y639116D01*
X467442D01*
X468808Y639388D01*
X469966Y640161D01*
X480673Y650869D01*
X481447Y652027D01*
X481718Y653392D01*
Y664811D01*
X520081D01*
Y649185D01*
X506150D01*
X504784Y648914D01*
X503627Y648140D01*
X495127Y639640D01*
X494353Y638483D01*
X494081Y637117D01*
Y626423D01*
X485920D01*
Y624735D01*
X483380D01*
Y626423D01*
X481718D01*
Y631378D01*
X481650Y631722D01*
Y632074D01*
X481515Y632399D01*
X481447Y632743D01*
X481252Y633036D01*
X481117Y633360D01*
X480869Y633609D01*
X480673Y633901D01*
X480381Y634096D01*
X480132Y634345D01*
X479808Y634479D01*
X479516Y634675D01*
X479171Y634743D01*
X478846Y634878D01*
X478495D01*
X478150Y634946D01*
X477805Y634878D01*
X477454D01*
X477129Y634743D01*
X476784Y634675D01*
X476492Y634479D01*
X476167Y634345D01*
X475919Y634096D01*
X475627Y633901D01*
X475431Y633609D01*
X475183Y633360D01*
X475048Y633036D01*
X474853Y632743D01*
X474784Y632399D01*
X474650Y632074D01*
Y631722D01*
X474581Y631378D01*
Y626423D01*
X461650D01*
Y620991D01*
X457200D01*
X456855Y620923D01*
X456504D01*
X456179Y620788D01*
X455834Y620720D01*
X455542Y620524D01*
X455217Y620390D01*
X454969Y620141D01*
X454677Y619946D01*
X454481Y619654D01*
X454233Y619406D01*
X454098Y619081D01*
X453903Y618788D01*
X453834Y618444D01*
X453700Y618119D01*
Y617768D01*
X453631Y617423D01*
X453700Y617078D01*
Y616727D01*
X453834Y616402D01*
X453903Y616057D01*
X454098Y615765D01*
X454233Y615440D01*
X454481Y615192D01*
X454677Y614899D01*
X454969Y614704D01*
X455217Y614456D01*
X455542Y614321D01*
X455834Y614126D01*
X456179Y614057D01*
X456504Y613923D01*
X456855D01*
X457200Y613854D01*
X461650D01*
Y608423D01*
X468081D01*
Y606005D01*
X451188D01*
X448588Y608605D01*
Y610378D01*
X450520D01*
Y620378D01*
X439520D01*
Y610695D01*
X436880D01*
X435514Y610424D01*
X434941Y610041D01*
X434897Y610023D01*
X434864Y609990D01*
X434357Y609650D01*
X434017Y609143D01*
X433913Y609038D01*
X433856Y608901D01*
X433583Y608493D01*
X433487Y608010D01*
X433380Y607752D01*
Y607472D01*
X433311Y607127D01*
X433380Y606782D01*
Y606359D01*
X433542Y605969D01*
X433583Y605761D01*
X433700Y605586D01*
X433913Y605073D01*
X434305Y604680D01*
X434357Y604604D01*
X434434Y604552D01*
X434897Y604088D01*
X435504Y603837D01*
X435514Y603830D01*
X435527Y603828D01*
X436184Y603555D01*
X437576D01*
X437583Y603558D01*
X443542D01*
X447187Y599913D01*
X448344Y599140D01*
X449710Y598868D01*
X468081D01*
Y588382D01*
X468353Y587016D01*
X469127Y585858D01*
X483468Y571517D01*
X484626Y570743D01*
X485992Y570471D01*
X598372D01*
X649723Y519121D01*
X650881Y518347D01*
X652246Y518075D01*
X661234D01*
Y513414D01*
X662922D01*
Y510874D01*
X661234D01*
Y506144D01*
X666214D01*
Y507832D01*
X668754D01*
Y506144D01*
X673734D01*
Y510874D01*
X672047D01*
Y513414D01*
X673734D01*
Y518075D01*
X686234D01*
Y515644D01*
X687896D01*
Y508644D01*
X686234D01*
Y496644D01*
X687896D01*
Y483585D01*
X688245Y481829D01*
X689240Y480341D01*
X690728Y479346D01*
X692484Y478997D01*
X694240Y479346D01*
X695728Y480341D01*
X696723Y481829D01*
X697072Y483585D01*
Y496644D01*
X698734D01*
Y508644D01*
X697072D01*
Y515644D01*
X698734D01*
Y517056D01*
X713445D01*
X715201Y517405D01*
X716689Y518400D01*
X735453Y537164D01*
X740946D01*
Y536188D01*
X760964D01*
Y547316D01*
X740946D01*
Y546340D01*
X733553D01*
X731797Y545991D01*
X730308Y544996D01*
X711544Y526232D01*
X698734D01*
Y527644D01*
X686234D01*
Y525213D01*
X653724D01*
X602374Y576563D01*
X601216Y577337D01*
X599850Y577609D01*
X487470D01*
X475219Y589860D01*
Y602437D01*
Y608423D01*
X483380D01*
Y610111D01*
X485920D01*
Y608423D01*
X487581D01*
Y596900D01*
X487853Y595534D01*
X488627Y594377D01*
X496247Y586757D01*
X497404Y585983D01*
X498770Y585711D01*
X599318D01*
X600684Y585983D01*
X601841Y586757D01*
X632321Y617237D01*
X632517Y617529D01*
X632765Y617777D01*
X632900Y618102D01*
X633095Y618394D01*
X633163Y618739D01*
X633298Y619064D01*
Y619415D01*
X633367Y619760D01*
X633298Y620105D01*
Y620456D01*
X633163Y620781D01*
X633095Y621126D01*
X632900Y621418D01*
X632765Y621743D01*
X632517Y621991D01*
X632321Y622283D01*
X632029Y622479D01*
X631781Y622727D01*
X631456Y622862D01*
X631164Y623057D01*
X630819Y623125D01*
X630494Y623260D01*
X630143D01*
X629798Y623329D01*
X629453Y623260D01*
X629102D01*
X628777Y623125D01*
X628432Y623057D01*
X628140Y622862D01*
X627815Y622727D01*
X627567Y622479D01*
X627275Y622283D01*
X597840Y592849D01*
X507349D01*
X506501Y594119D01*
X506684Y594561D01*
Y595954D01*
X506151Y597240D01*
X505167Y598225D01*
X503880Y598758D01*
X502488D01*
X501201Y598225D01*
X500217Y597240D01*
X499684Y595954D01*
Y595209D01*
X498414Y594683D01*
X494719Y598378D01*
Y608423D01*
X513581D01*
Y606937D01*
X513650Y606592D01*
Y606241D01*
X513784Y605916D01*
X513853Y605571D01*
X514048Y605279D01*
X514183Y604954D01*
X514431Y604706D01*
X514627Y604413D01*
X514919Y604218D01*
X515167Y603970D01*
X515492Y603835D01*
X515784Y603640D01*
X516129Y603571D01*
X516454Y603437D01*
X516805D01*
X517150Y603368D01*
X517495Y603437D01*
X517846D01*
X518171Y603571D01*
X518516Y603640D01*
X518808Y603835D01*
X519132Y603970D01*
X519381Y604218D01*
X519673Y604413D01*
X519869Y604706D01*
X520117Y604954D01*
X520252Y605279D01*
X520447Y605571D01*
X520515Y605916D01*
X520650Y606241D01*
Y606592D01*
X520718Y606937D01*
Y608423D01*
X526581D01*
Y601323D01*
X526650Y600978D01*
Y600626D01*
X526784Y600302D01*
X526853Y599957D01*
X527048Y599665D01*
X527183Y599340D01*
X527431Y599091D01*
X527627Y598799D01*
X527919Y598604D01*
X528167Y598355D01*
X528492Y598221D01*
X528784Y598026D01*
X529129Y597957D01*
X529454Y597823D01*
X529805D01*
X530150Y597754D01*
X530495Y597823D01*
X530846D01*
X531171Y597957D01*
X531516Y598026D01*
X531808Y598221D01*
X532132Y598355D01*
X532381Y598604D01*
X532608Y598756D01*
X532699Y598805D01*
X533268Y598937D01*
X533532D01*
X534100Y598805D01*
X534192Y598756D01*
X534419Y598604D01*
X534667Y598355D01*
X534992Y598221D01*
X535284Y598026D01*
X535629Y597957D01*
X535954Y597823D01*
X536305D01*
X536650Y597754D01*
X536995Y597823D01*
X537346D01*
X537671Y597957D01*
X538016Y598026D01*
X538308Y598221D01*
X538633Y598355D01*
X538881Y598604D01*
X539173Y598799D01*
X539369Y599091D01*
X539617Y599340D01*
X539752Y599665D01*
X539947Y599957D01*
X540015Y600302D01*
X540150Y600626D01*
Y600978D01*
X540219Y601323D01*
Y617423D01*
Y645617D01*
Y673811D01*
X540150Y674156D01*
Y682811D01*
X533718D01*
Y684153D01*
X533650Y684498D01*
Y685188D01*
X533117Y686475D01*
X532133Y687459D01*
X530846Y687992D01*
X529454D01*
X528167Y687459D01*
X527183Y686475D01*
X526650Y685188D01*
Y684498D01*
X526581Y684153D01*
Y682811D01*
X520718D01*
Y684492D01*
X520650Y684837D01*
Y685188D01*
X520516Y685513D01*
X520447Y685858D01*
X520252Y686150D01*
X520117Y686475D01*
X519869Y686723D01*
X519673Y687015D01*
X519381Y687211D01*
X519133Y687459D01*
X518808Y687594D01*
X518516Y687789D01*
X518171Y687858D01*
X517846Y687992D01*
X517495D01*
X517150Y688061D01*
X516805Y687992D01*
X516454D01*
X516129Y687858D01*
X515784Y687789D01*
X515492Y687594D01*
X515167Y687459D01*
X514919Y687211D01*
X514627Y687015D01*
X514431Y686723D01*
X514183Y686475D01*
X514048Y686150D01*
X513853Y685858D01*
X513784Y685513D01*
X513650Y685188D01*
Y684837D01*
X513581Y684492D01*
Y682811D01*
X488219D01*
Y690875D01*
X487947Y692240D01*
X487173Y693398D01*
X477624Y702948D01*
X478150Y704218D01*
X616616D01*
X636511Y684322D01*
Y552850D01*
X636783Y551484D01*
X637557Y550326D01*
X648870Y539013D01*
X650028Y538239D01*
X651394Y537967D01*
X686234D01*
Y535536D01*
X698734D01*
Y537967D01*
X709837D01*
X711202Y538239D01*
X712360Y539013D01*
X736531Y563183D01*
X740946D01*
Y561188D01*
X760964D01*
Y572316D01*
X740946D01*
Y570321D01*
X735053D01*
X733687Y570049D01*
X732529Y569275D01*
X708358Y545104D01*
X698734D01*
Y547536D01*
X686234D01*
Y545104D01*
X673734D01*
Y549766D01*
X672047D01*
Y552306D01*
X673734D01*
Y556150D01*
X673777Y556236D01*
X674091Y556585D01*
X674944Y557036D01*
X675004Y557036D01*
X675295D01*
X675640Y556967D01*
X686234D01*
Y554536D01*
X698734D01*
Y556967D01*
X710120D01*
X711486Y557239D01*
X712644Y558013D01*
X730315Y575683D01*
X740946D01*
Y573688D01*
X760964D01*
Y584816D01*
X740946D01*
Y582821D01*
X728837D01*
X727471Y582549D01*
X726313Y581775D01*
X708642Y564104D01*
X698734D01*
Y566536D01*
X686234D01*
Y564104D01*
X675640D01*
X675295Y564036D01*
X674944D01*
X674619Y563901D01*
X674274Y563833D01*
X673982Y563638D01*
X673657Y563503D01*
X673409Y563255D01*
X673117Y563059D01*
X672921Y562767D01*
X672673Y562519D01*
X672538Y562194D01*
X672343Y561902D01*
X672274Y561557D01*
X672140Y561232D01*
Y560881D01*
X672071Y560536D01*
X672140Y560191D01*
Y559840D01*
X672274Y559515D01*
X672343Y559170D01*
X672538Y558878D01*
X672673Y558553D01*
X672920Y558306D01*
X672920Y558302D01*
X672559Y557295D01*
X672358Y557036D01*
X668754D01*
Y555348D01*
X666214D01*
Y557036D01*
X661234D01*
Y552306D01*
X662922D01*
Y549766D01*
X661234D01*
Y545104D01*
X652872D01*
X643649Y554328D01*
Y685800D01*
X643377Y687166D01*
X642603Y688323D01*
X620617Y710310D01*
X619459Y711083D01*
X618094Y711355D01*
X382666D01*
X381301Y711083D01*
X380143Y710310D01*
X360697Y690863D01*
X360501Y690571D01*
X360253Y690323D01*
X360118Y689998D01*
X359923Y689706D01*
X359855Y689361D01*
X359720Y689036D01*
Y688685D01*
X359651Y688340D01*
X359720Y687995D01*
Y687644D01*
X359855Y687319D01*
X359923Y686974D01*
X360118Y686682D01*
X360253Y686357D01*
X360501Y686109D01*
X360697Y685817D01*
X360989Y685621D01*
X361237Y685373D01*
X361562Y685238D01*
X361854Y685043D01*
X362199Y684975D01*
X362524Y684840D01*
X362875D01*
X363220Y684771D01*
X363565Y684840D01*
X363916D01*
X364241Y684975D01*
X364586Y685043D01*
X364878Y685238D01*
X365203Y685373D01*
X365451Y685621D01*
X365743Y685817D01*
X384144Y704218D01*
X415800D01*
X416326Y702948D01*
X406937Y693558D01*
X406163Y692401D01*
X405891Y691035D01*
Y680856D01*
X403960D01*
Y679209D01*
X402213D01*
X400847Y678937D01*
X399689Y678163D01*
X393645Y672119D01*
X392872Y670962D01*
X392600Y669596D01*
Y531857D01*
Y388808D01*
X374977D01*
X373611Y388536D01*
X372453Y387762D01*
X360232Y375541D01*
X359459Y374384D01*
X359187Y373018D01*
Y298978D01*
X352770D01*
X352291Y300248D01*
X352416Y300373D01*
X352493Y300424D01*
X352545Y300501D01*
X352937Y300894D01*
X353149Y301406D01*
X353267Y301582D01*
X353308Y301789D01*
X353470Y302180D01*
Y302603D01*
X353539Y302948D01*
Y401423D01*
Y429617D01*
Y457811D01*
Y546867D01*
Y577190D01*
Y603255D01*
X353470Y603600D01*
Y612255D01*
X347038D01*
Y616881D01*
X346970Y617226D01*
Y617577D01*
X346836Y617902D01*
X346767Y618247D01*
X346572Y618539D01*
X346437Y618864D01*
X346189Y619112D01*
X345993Y619404D01*
X345701Y619600D01*
X345453Y619848D01*
X345128Y619983D01*
X344836Y620178D01*
X344491Y620247D01*
X344166Y620381D01*
X343815D01*
X343470Y620450D01*
X343125Y620381D01*
X342774D01*
X342449Y620247D01*
X342104Y620178D01*
X341812Y619983D01*
X341809Y619981D01*
X340851Y620417D01*
X340538Y620695D01*
Y632153D01*
X340267Y633519D01*
X339493Y634676D01*
X323578Y650591D01*
Y671826D01*
X323890Y672104D01*
X324849Y672540D01*
X324852Y672538D01*
X325144Y672343D01*
X325489Y672274D01*
X325814Y672140D01*
X326165D01*
X326510Y672071D01*
X326855Y672140D01*
X327206D01*
X327531Y672274D01*
X327876Y672343D01*
X328168Y672538D01*
X328493Y672673D01*
X328741Y672921D01*
X328878Y673013D01*
X329263Y673111D01*
X330070Y673089D01*
X330452Y672944D01*
X330487Y672892D01*
X340163Y663215D01*
X341321Y662442D01*
X342686Y662170D01*
X376699D01*
X378065Y662442D01*
X379223Y663215D01*
X395578Y679570D01*
X395773Y679862D01*
X396021Y680111D01*
X396156Y680435D01*
X396351Y680728D01*
X396420Y681072D01*
X396554Y681397D01*
Y681749D01*
X396623Y682093D01*
X396554Y682438D01*
Y682790D01*
X396420Y683114D01*
X396351Y683459D01*
X396156Y683751D01*
X396021Y684076D01*
X395773Y684324D01*
X395578Y684617D01*
X395285Y684812D01*
X395037Y685061D01*
X394712Y685195D01*
X394420Y685390D01*
X394075Y685459D01*
X393750Y685593D01*
X393399D01*
X393054Y685662D01*
X392709Y685593D01*
X392358D01*
X392033Y685459D01*
X391688Y685390D01*
X391396Y685195D01*
X391072Y685061D01*
X390823Y684812D01*
X390531Y684617D01*
X375221Y669307D01*
X369631D01*
X369074Y670483D01*
X369089Y670577D01*
X370179Y671305D01*
X378443Y679570D01*
X378639Y679862D01*
X378887Y680111D01*
X379022Y680435D01*
X379217Y680728D01*
X379286Y681072D01*
X379420Y681397D01*
Y681749D01*
X379489Y682093D01*
X379420Y682438D01*
Y682790D01*
X379286Y683114D01*
X379217Y683459D01*
X379022Y683751D01*
X378887Y684076D01*
X378639Y684324D01*
X378443Y684617D01*
X378151Y684812D01*
X377903Y685061D01*
X377578Y685195D01*
X377286Y685390D01*
X376941Y685459D01*
X376616Y685593D01*
X376265D01*
X375920Y685662D01*
X375575Y685593D01*
X375224D01*
X374899Y685459D01*
X374554Y685390D01*
X374262Y685195D01*
X373937Y685061D01*
X373689Y684812D01*
X373397Y684617D01*
X366177Y677397D01*
X357111D01*
X356010Y677806D01*
Y686461D01*
X356078Y686806D01*
Y715000D01*
Y743194D01*
X356010Y743539D01*
Y752194D01*
X349579D01*
Y756184D01*
X349510Y756529D01*
Y756881D01*
X349375Y757205D01*
X349307Y757550D01*
X349112Y757842D01*
X348977Y758167D01*
X348729Y758416D01*
X348533Y758708D01*
X348241Y758903D01*
X347993Y759152D01*
X347668Y759286D01*
X347376Y759482D01*
X347031Y759550D01*
X346706Y759685D01*
X346355D01*
X346010Y759753D01*
X345665Y759685D01*
X345314D01*
X344989Y759550D01*
X344644Y759482D01*
X344352Y759286D01*
X344027Y759152D01*
X343779Y758903D01*
X343487Y758708D01*
X343291Y758416D01*
X343043Y758167D01*
X342908Y757842D01*
X342713Y757550D01*
X342645Y757205D01*
X342510Y756881D01*
Y756529D01*
X342441Y756184D01*
Y752194D01*
X336578D01*
Y761380D01*
X336586Y761418D01*
X336518Y761763D01*
Y762114D01*
X336383Y762439D01*
X336315Y762784D01*
X336119Y763076D01*
X335985Y763401D01*
X335736Y763649D01*
X335541Y763942D01*
X335249Y764137D01*
X335000Y764385D01*
X334675Y764520D01*
X334383Y764715D01*
X334039Y764784D01*
X333714Y764918D01*
X333362D01*
X333018Y764987D01*
X332673Y764918D01*
X332322D01*
X331997Y764784D01*
X331652Y764715D01*
X331360Y764520D01*
X331035Y764385D01*
X330787Y764137D01*
X330494Y763942D01*
X330487Y763934D01*
X330291Y763642D01*
X330051Y763401D01*
X329920Y763086D01*
X329713Y762776D01*
X329640Y762411D01*
X329518Y762114D01*
Y761794D01*
X329441Y761411D01*
Y752194D01*
X304079D01*
Y759501D01*
X303807Y760866D01*
X303033Y762024D01*
X291119Y773938D01*
X289961Y774712D01*
X288596Y774984D01*
D02*
G37*
G36*
X760964Y559816D02*
X752225D01*
Y558128D01*
X749685D01*
Y559816D01*
X740946D01*
Y555522D01*
X742634D01*
Y552982D01*
X740946D01*
Y548688D01*
X749685D01*
Y550376D01*
X752225D01*
Y548688D01*
X760964D01*
Y552982D01*
X759276D01*
Y555522D01*
X760964D01*
Y559816D01*
D02*
G37*
G36*
X436350Y525349D02*
X434984Y525078D01*
X434411Y524694D01*
X434367Y524677D01*
X434334Y524643D01*
X433827Y524304D01*
X433487Y523797D01*
X433383Y523692D01*
X433326Y523555D01*
X433053Y523147D01*
X432957Y522664D01*
X432850Y522406D01*
Y522126D01*
X432781Y521781D01*
Y520857D01*
X422180D01*
Y510857D01*
X433180D01*
Y512288D01*
X439520D01*
Y510857D01*
X450520D01*
Y520857D01*
X439919D01*
Y521781D01*
X439850Y522126D01*
Y522406D01*
X439743Y522664D01*
X439647Y523147D01*
X439374Y523555D01*
X439317Y523692D01*
X439212Y523797D01*
X438873Y524304D01*
X438366Y524643D01*
X438333Y524677D01*
X438289Y524694D01*
X437716Y525078D01*
X436350Y525349D01*
D02*
G37*
G36*
X796949Y528801D02*
X762961D01*
Y503703D01*
X796949D01*
Y528801D01*
D02*
G37*
G36*
X450520Y492378D02*
X439520D01*
Y490945D01*
X433180D01*
Y492376D01*
X422180D01*
Y482376D01*
X433180D01*
Y483808D01*
X439520D01*
Y482378D01*
X450520D01*
Y492378D01*
D02*
G37*
G36*
X414960Y520856D02*
X403960D01*
Y510856D01*
X405891D01*
Y492376D01*
X403960D01*
Y482376D01*
X414960D01*
Y492376D01*
X413028D01*
Y510856D01*
X414960D01*
Y520856D01*
D02*
G37*
G36*
X433180Y476376D02*
X428950D01*
Y474688D01*
X426410D01*
Y476376D01*
X422180D01*
Y472646D01*
X423868D01*
Y470106D01*
X422180D01*
Y466376D01*
X426410D01*
Y468064D01*
X428950D01*
Y466376D01*
X433180D01*
Y470106D01*
X431492D01*
Y472646D01*
X433180D01*
Y476376D01*
D02*
G37*
G36*
X414960D02*
X410730D01*
Y474688D01*
X408190D01*
Y476376D01*
X403960D01*
Y472646D01*
X405648D01*
Y470106D01*
X403960D01*
Y466376D01*
X408190D01*
Y468064D01*
X410730D01*
Y466376D01*
X414960D01*
Y470106D01*
X413272D01*
Y472646D01*
X414960D01*
Y476376D01*
D02*
G37*
G36*
X383540Y656277D02*
X383195Y656208D01*
X382844D01*
X382519Y656074D01*
X382174Y656005D01*
X381882Y655810D01*
X381557Y655676D01*
X381309Y655427D01*
X381017Y655232D01*
X380821Y654940D01*
X380573Y654691D01*
X380438Y654366D01*
X380243Y654074D01*
X380174Y653729D01*
X380040Y653405D01*
Y653053D01*
X379971Y652709D01*
Y512313D01*
Y416560D01*
X380040Y416215D01*
Y415792D01*
X380202Y415402D01*
X380243Y415194D01*
X380360Y415019D01*
X380573Y414506D01*
X380965Y414114D01*
X381017Y414037D01*
X381093Y413985D01*
X381557Y413521D01*
X382164Y413270D01*
X382174Y413263D01*
X382187Y413260D01*
X382844Y412989D01*
X384236D01*
X384893Y413260D01*
X384906Y413263D01*
X384916Y413270D01*
X385523Y413521D01*
X385987Y413985D01*
X386063Y414037D01*
X386115Y414114D01*
X386507Y414506D01*
X386720Y415019D01*
X386837Y415194D01*
X386878Y415402D01*
X387040Y415792D01*
Y416215D01*
X387109Y416560D01*
Y512313D01*
Y652709D01*
X387040Y653053D01*
Y653405D01*
X386906Y653729D01*
X386837Y654074D01*
X386642Y654366D01*
X386507Y654691D01*
X386259Y654940D01*
X386063Y655232D01*
X385771Y655427D01*
X385523Y655676D01*
X385198Y655810D01*
X384906Y656005D01*
X384561Y656074D01*
X384236Y656208D01*
X383885D01*
X383540Y656277D01*
D02*
G37*
G36*
X450276Y359029D02*
X448884D01*
X447597Y358496D01*
X446613Y357511D01*
X446080Y356225D01*
Y354832D01*
X446613Y353546D01*
X447597Y352561D01*
X448884Y352029D01*
X450276D01*
X451563Y352561D01*
X452547Y353546D01*
X453080Y354832D01*
Y356225D01*
X452547Y357511D01*
X451563Y358496D01*
X450276Y359029D01*
D02*
G37*
G36*
X433180Y329759D02*
X428950D01*
Y328072D01*
X426410D01*
Y329759D01*
X422180D01*
Y326029D01*
X423868D01*
Y323489D01*
X422180D01*
Y319759D01*
X426410D01*
Y321447D01*
X428950D01*
Y319759D01*
X433180D01*
Y323489D01*
X431492D01*
Y326029D01*
X433180D01*
Y329759D01*
D02*
G37*
G36*
X221550Y269417D02*
X217820D01*
Y267729D01*
X215280D01*
Y269417D01*
X211550D01*
Y265187D01*
X213238D01*
Y262647D01*
X211550D01*
Y258417D01*
X215280D01*
Y260104D01*
X217820D01*
Y258417D01*
X221550D01*
Y262647D01*
X219862D01*
Y265187D01*
X221550D01*
Y269417D01*
D02*
G37*
G36*
X489431Y267049D02*
X477390D01*
Y265361D01*
X474850D01*
Y267049D01*
X462809D01*
Y257421D01*
X464497D01*
Y254881D01*
X462809D01*
Y245253D01*
X474850D01*
Y246940D01*
X477390D01*
Y245253D01*
X489431D01*
Y254881D01*
X487743D01*
Y257421D01*
X489431D01*
Y267049D01*
D02*
G37*
G36*
X600051Y266930D02*
X588010D01*
Y265242D01*
X585470D01*
Y266930D01*
X573429D01*
Y257302D01*
X575117D01*
Y254762D01*
X573429D01*
Y245134D01*
X585470D01*
Y246822D01*
X588010D01*
Y245134D01*
X600051D01*
Y254762D01*
X598363D01*
Y257302D01*
X600051D01*
Y266930D01*
D02*
G37*
G36*
X544171D02*
X532130D01*
Y265242D01*
X529590D01*
Y266930D01*
X517549D01*
Y257302D01*
X519237D01*
Y254762D01*
X517549D01*
Y245134D01*
X529590D01*
Y246822D01*
X532130D01*
Y245134D01*
X544171D01*
Y254762D01*
X542483D01*
Y257302D01*
X544171D01*
Y266930D01*
D02*
G37*
G36*
X760061Y260887D02*
X748331D01*
Y259199D01*
X745791D01*
Y260887D01*
X734061D01*
Y249227D01*
X735749D01*
Y246687D01*
X734061D01*
Y235027D01*
X745791D01*
Y236714D01*
X748331D01*
Y235027D01*
X760061D01*
Y246687D01*
X758373D01*
Y249227D01*
X760061D01*
Y260887D01*
D02*
G37*
G36*
X237552Y247010D02*
X233822D01*
Y245323D01*
X231282D01*
Y247010D01*
X227552D01*
Y242780D01*
X229239D01*
Y240240D01*
X227552D01*
Y236010D01*
X231282D01*
Y237698D01*
X233822D01*
Y236010D01*
X237552D01*
Y240240D01*
X235864D01*
Y242780D01*
X237552D01*
Y247010D01*
D02*
G37*
G36*
X373680Y267417D02*
X363680D01*
Y256417D01*
X365111D01*
Y234557D01*
X363679D01*
Y229104D01*
X358949Y224374D01*
X357679Y224900D01*
Y227787D01*
X355992D01*
Y230327D01*
X357679D01*
Y234557D01*
X353949D01*
Y232870D01*
X351409D01*
Y234557D01*
X347679D01*
Y230327D01*
X349367D01*
Y227787D01*
X347679D01*
Y223557D01*
X351409D01*
Y225245D01*
X353949D01*
Y223557D01*
X356336D01*
X356862Y222287D01*
X352226Y217651D01*
X352029Y217356D01*
X351782Y217109D01*
X351649Y216787D01*
X351452Y216493D01*
X351384Y216147D01*
X351249Y215823D01*
Y215472D01*
X351181Y215128D01*
Y215127D01*
X351249Y214782D01*
Y214431D01*
X351384Y214106D01*
X351452Y213761D01*
X351648Y213469D01*
X351782Y213144D01*
X352031Y212896D01*
X352226Y212603D01*
X352518Y212408D01*
X352767Y212160D01*
X353092Y212025D01*
X353384Y211830D01*
X353728Y211761D01*
X354053Y211627D01*
X354405D01*
X354749Y211558D01*
X355094Y211627D01*
X355446D01*
X355770Y211761D01*
X356115Y211830D01*
X356407Y212025D01*
X356732Y212160D01*
X356981Y212408D01*
X357273Y212603D01*
X357274Y212606D01*
X363938Y219270D01*
X365111Y218784D01*
Y199898D01*
X363680D01*
Y188898D01*
X373680D01*
Y199898D01*
X372249D01*
Y223557D01*
X373679D01*
Y234557D01*
X372249D01*
Y256417D01*
X373680D01*
Y267417D01*
D02*
G37*
G36*
X408672Y219510D02*
X406916Y219160D01*
X406504Y218885D01*
X407780Y217609D01*
X405984Y215813D01*
X404708Y217089D01*
X404433Y216677D01*
X404084Y214922D01*
Y210192D01*
X405860D01*
Y207652D01*
X404084D01*
Y202922D01*
X404433Y201166D01*
X404708Y200754D01*
X405984Y202030D01*
X407780Y200234D01*
X406504Y198958D01*
X406916Y198683D01*
X408672Y198333D01*
X410428Y198683D01*
X410840Y198958D01*
X409564Y200234D01*
X411360Y202030D01*
X412636Y200754D01*
X412911Y201166D01*
X413260Y202922D01*
Y207652D01*
X411484D01*
Y210192D01*
X413260D01*
Y214922D01*
X412911Y216677D01*
X412636Y217089D01*
X411360Y215813D01*
X409564Y217609D01*
X410840Y218885D01*
X410428Y219160D01*
X408672Y219510D01*
D02*
G37*
G36*
X221552Y247010D02*
X211552D01*
Y236010D01*
X212981D01*
Y224604D01*
X211550D01*
Y213604D01*
X221550D01*
Y224604D01*
X220119D01*
Y236010D01*
X221552D01*
Y247010D01*
D02*
G37*
G36*
X221550Y202198D02*
X217820D01*
Y200510D01*
X215280D01*
Y202198D01*
X211550D01*
Y197968D01*
X213238D01*
Y195428D01*
X211550D01*
Y191198D01*
X215280D01*
Y192885D01*
X217820D01*
Y191198D01*
X221550D01*
Y195428D01*
X219862D01*
Y197968D01*
X221550D01*
Y202198D01*
D02*
G37*
G36*
X434072Y219510D02*
X432316Y219160D01*
X430828Y218166D01*
X429833Y216677D01*
X429484Y214922D01*
Y202922D01*
X429833Y201166D01*
X430828Y199677D01*
X432316Y198683D01*
X434072Y198333D01*
X435828Y198683D01*
X437316Y199677D01*
X438311Y201166D01*
X438660Y202922D01*
Y214922D01*
X438311Y216677D01*
X437316Y218166D01*
X435828Y219160D01*
X434072Y219510D01*
D02*
G37*
G36*
X435452Y264509D02*
X419756D01*
Y248047D01*
X423016D01*
Y235699D01*
X418128Y230811D01*
X417133Y229323D01*
X416784Y227567D01*
Y214922D01*
Y202922D01*
X417133Y201166D01*
X418128Y199677D01*
X419616Y198683D01*
X421372Y198333D01*
X423128Y198683D01*
X424616Y199677D01*
X425611Y201166D01*
X425960Y202922D01*
Y214922D01*
Y225666D01*
X430849Y230555D01*
X431843Y232043D01*
X432192Y233799D01*
Y248047D01*
X435452D01*
Y264509D01*
D02*
G37*
G36*
X412588D02*
X396892D01*
Y254536D01*
X392728Y250371D01*
X391733Y248883D01*
X391384Y247127D01*
Y214922D01*
Y202922D01*
X391733Y201166D01*
X392728Y199677D01*
X394216Y198683D01*
X395972Y198333D01*
X397728Y198683D01*
X399216Y199677D01*
X400211Y201166D01*
X400560Y202922D01*
Y214922D01*
Y245226D01*
X403381Y248047D01*
X412588D01*
Y264509D01*
D02*
G37*
G36*
X710980Y250930D02*
X674980D01*
Y216430D01*
X688392D01*
Y203764D01*
X676316Y191688D01*
X675321Y190200D01*
X674972Y188444D01*
Y178220D01*
X674560D01*
Y167220D01*
X674972D01*
Y155972D01*
X673560D01*
X671804Y155623D01*
X670316Y154628D01*
X669321Y153140D01*
X668972Y151384D01*
X669321Y149628D01*
X670316Y148140D01*
X671804Y147145D01*
X673560Y146796D01*
X685560D01*
X687316Y147145D01*
X688804Y148140D01*
X689799Y149628D01*
X690148Y151384D01*
X689799Y153140D01*
X688804Y154628D01*
X687316Y155623D01*
X685560Y155972D01*
X684148D01*
Y167220D01*
X684560D01*
Y178220D01*
X684148D01*
Y186544D01*
X696224Y198620D01*
X697219Y200108D01*
X697568Y201864D01*
Y216430D01*
X703741D01*
X715459Y204713D01*
X716947Y203718D01*
X718703Y203369D01*
X734061D01*
Y195027D01*
X760061D01*
Y220887D01*
X734061D01*
Y212545D01*
X720604D01*
X710980Y222169D01*
Y250930D01*
D02*
G37*
G36*
X168825Y209373D02*
X166455D01*
X164166Y208760D01*
X162114Y207575D01*
X160438Y205899D01*
X159253Y203847D01*
X158640Y201558D01*
Y199188D01*
X159253Y196899D01*
X160438Y194847D01*
X162114Y193171D01*
X164166Y191987D01*
X166455Y191373D01*
X168825D01*
X171114Y191987D01*
X173166Y193171D01*
X174842Y194847D01*
X176027Y196899D01*
X176640Y199188D01*
Y201558D01*
X176027Y203847D01*
X174842Y205899D01*
X173166Y207575D01*
X171114Y208760D01*
X168825Y209373D01*
D02*
G37*
G36*
X130005D02*
X127635D01*
X125346Y208760D01*
X123294Y207575D01*
X121618Y205899D01*
X120433Y203847D01*
X119820Y201558D01*
Y199188D01*
X120433Y196899D01*
X121618Y194847D01*
X123294Y193171D01*
X125346Y191987D01*
X127635Y191373D01*
X130005D01*
X132294Y191987D01*
X134346Y193171D01*
X136022Y194847D01*
X137207Y196899D01*
X137820Y199188D01*
Y201558D01*
X137207Y203847D01*
X136022Y205899D01*
X134346Y207575D01*
X132294Y208760D01*
X130005Y209373D01*
D02*
G37*
G36*
X520282Y175411D02*
X516890D01*
Y173723D01*
X514350D01*
Y175411D01*
X510958D01*
Y163453D01*
X512645D01*
Y160913D01*
X510958D01*
Y148956D01*
X514350D01*
Y150643D01*
X516890D01*
Y148956D01*
X520282D01*
Y160913D01*
X518595D01*
Y163453D01*
X520282D01*
Y175411D01*
D02*
G37*
G36*
X668560Y178220D02*
X658560D01*
Y177308D01*
X630450D01*
X628694Y176959D01*
X627206Y175964D01*
X619816Y168574D01*
X618821Y167086D01*
X618472Y165330D01*
Y155972D01*
X617060D01*
X615304Y155623D01*
X613816Y154628D01*
X612821Y153140D01*
X612472Y151384D01*
X612821Y149628D01*
X613816Y148140D01*
X615304Y147145D01*
X617060Y146796D01*
X629060D01*
X630816Y147145D01*
X632304Y148140D01*
X633299Y149628D01*
X633648Y151384D01*
X633299Y153140D01*
X632304Y154628D01*
X630816Y155623D01*
X629060Y155972D01*
X627648D01*
Y163430D01*
X632350Y168132D01*
X658560D01*
Y167220D01*
X668560D01*
Y178220D01*
D02*
G37*
G36*
X758872Y179844D02*
X735246D01*
X734098Y179368D01*
X733623Y178220D01*
Y165757D01*
X715240D01*
Y166169D01*
X704240D01*
Y165757D01*
X700734D01*
X698978Y165408D01*
X697489Y164414D01*
X693975Y160899D01*
X692980Y159410D01*
X692631Y157654D01*
Y144099D01*
X691804Y143272D01*
X673560D01*
X671804Y142923D01*
X670316Y141928D01*
X669321Y140440D01*
X668972Y138684D01*
X669321Y136928D01*
X670316Y135440D01*
X671804Y134445D01*
X673560Y134096D01*
X693704D01*
X695460Y134445D01*
X696948Y135440D01*
X700463Y138954D01*
X701458Y140443D01*
X701807Y142199D01*
Y155754D01*
X702634Y156581D01*
X704240D01*
Y156169D01*
X715240D01*
Y156581D01*
X733623D01*
Y147066D01*
X733750Y146759D01*
Y145566D01*
X734948D01*
X735246Y145442D01*
X758872D01*
X759170Y145566D01*
X760372D01*
Y146768D01*
X760496Y147066D01*
Y178220D01*
X760020Y179368D01*
X758872Y179844D01*
D02*
G37*
G36*
X373681Y167038D02*
X369951D01*
Y165351D01*
X367411D01*
Y167038D01*
X363681D01*
Y162808D01*
X365368D01*
Y160268D01*
X363681D01*
Y156039D01*
X367411D01*
Y157726D01*
X369951D01*
Y156039D01*
X373681D01*
Y160268D01*
X371993D01*
Y162808D01*
X373681D01*
Y167038D01*
D02*
G37*
G36*
X408672Y163010D02*
X406916Y162661D01*
X406504Y162385D01*
X407780Y161109D01*
X405984Y159313D01*
X404708Y160589D01*
X404433Y160177D01*
X404084Y158422D01*
Y153692D01*
X405860D01*
Y151152D01*
X404084D01*
Y146422D01*
X404433Y144666D01*
X404708Y144254D01*
X405984Y145530D01*
X407780Y143734D01*
X406504Y142458D01*
X406916Y142183D01*
X408672Y141833D01*
X410428Y142183D01*
X410840Y142458D01*
X409564Y143734D01*
X411360Y145530D01*
X412636Y144254D01*
X412911Y144666D01*
X413260Y146422D01*
Y151152D01*
X411484D01*
Y153692D01*
X413260D01*
Y158422D01*
X412911Y160177D01*
X412636Y160589D01*
X411360Y159313D01*
X409564Y161109D01*
X410840Y162385D01*
X410428Y162661D01*
X408672Y163010D01*
D02*
G37*
G36*
X326953Y237677D02*
X305953D01*
Y230677D01*
Y224327D01*
Y217977D01*
Y216397D01*
X307641D01*
Y213857D01*
X305953D01*
Y211627D01*
Y205277D01*
Y198927D01*
Y192577D01*
Y186227D01*
X326953D01*
Y192508D01*
X330203D01*
X332115Y190596D01*
Y171639D01*
X327064Y166588D01*
X320711D01*
Y155588D01*
X330711D01*
Y160226D01*
X330964Y160395D01*
X338206Y167638D01*
X338980Y168795D01*
X339252Y170161D01*
Y192074D01*
X338980Y193440D01*
X338206Y194598D01*
X335249Y197555D01*
Y200939D01*
X334978Y202304D01*
X334204Y203462D01*
X333728Y203938D01*
X334254Y205208D01*
X346853D01*
X349112Y202949D01*
Y199898D01*
X347680D01*
Y188898D01*
X349112D01*
Y167038D01*
X347681D01*
Y156039D01*
X357681D01*
Y167038D01*
X356249D01*
Y188898D01*
X357680D01*
Y199898D01*
X356249D01*
Y204427D01*
X355978Y205793D01*
X355204Y206950D01*
X350854Y211300D01*
X349696Y212074D01*
X348331Y212345D01*
X326953D01*
Y213857D01*
X325266D01*
Y216397D01*
X326953D01*
Y224327D01*
Y230677D01*
Y237677D01*
D02*
G37*
G36*
X489431Y222345D02*
X462809D01*
Y200549D01*
X465592D01*
Y190047D01*
X461936Y186392D01*
X461052Y185069D01*
X460742Y183508D01*
X460742Y183508D01*
Y166169D01*
X459320D01*
Y165247D01*
X449709D01*
X448148Y164937D01*
X446825Y164053D01*
X445941Y162730D01*
X445631Y161169D01*
X445941Y159608D01*
X446825Y158285D01*
X448148Y157401D01*
X449709Y157091D01*
X452815D01*
X453301Y155918D01*
X450257Y152874D01*
X449373Y151551D01*
X449063Y149990D01*
X449063Y149990D01*
Y90302D01*
X449063Y90302D01*
X449373Y88741D01*
X450257Y87418D01*
X461819Y75856D01*
X461819Y75856D01*
X463142Y74972D01*
X464703Y74662D01*
X544539D01*
X544539Y74662D01*
X546099Y74972D01*
X547422Y75856D01*
X553848Y82282D01*
X680646D01*
X683001Y79926D01*
Y76739D01*
X664410D01*
Y77671D01*
X651410D01*
Y76739D01*
X638910D01*
Y77671D01*
X625910D01*
Y68671D01*
X638910D01*
Y69602D01*
X650512D01*
X651410Y68704D01*
X651410Y67401D01*
Y64941D01*
X653098D01*
Y62401D01*
X651410D01*
Y59941D01*
X651410Y59171D01*
X651410Y57901D01*
Y49671D01*
X664410D01*
Y57901D01*
X664410Y58671D01*
X664410Y59941D01*
Y62401D01*
X662722D01*
Y64941D01*
X664410D01*
X664410Y68704D01*
X665308Y69602D01*
X681580D01*
Y66671D01*
X692580D01*
Y76671D01*
X691158D01*
Y81616D01*
X691158Y81616D01*
X690848Y83176D01*
X689964Y84500D01*
X685219Y89244D01*
X683896Y90128D01*
X682336Y90438D01*
X682336Y90438D01*
X552159D01*
X552159Y90438D01*
X550598Y90128D01*
X549275Y89244D01*
X542849Y82818D01*
X466393D01*
X457220Y91991D01*
Y148301D01*
X458050Y149131D01*
X459320Y148605D01*
Y140169D01*
X461251D01*
Y128054D01*
X459320D01*
Y118054D01*
X470320D01*
Y128054D01*
X468389D01*
Y140169D01*
X470320D01*
Y150169D01*
X460884D01*
X460358Y151439D01*
X465088Y156169D01*
X470320D01*
Y166169D01*
X468898D01*
Y181819D01*
X472554Y185474D01*
X473438Y186797D01*
X473748Y188358D01*
X473748Y188358D01*
Y200549D01*
X478445D01*
Y188955D01*
X478445Y188954D01*
X478756Y187394D01*
X479640Y186070D01*
X486142Y179569D01*
Y175411D01*
X485558D01*
Y148956D01*
X494882D01*
Y158105D01*
X498258D01*
Y148956D01*
X507582D01*
Y175411D01*
X498258D01*
Y166262D01*
X494882D01*
Y175411D01*
X494298D01*
Y181258D01*
X493988Y182819D01*
X493104Y184142D01*
X493104Y184142D01*
X486602Y190644D01*
Y200549D01*
X489431D01*
Y222345D01*
D02*
G37*
G36*
X353377Y154000D02*
X351985D01*
X350698Y153467D01*
X349714Y152482D01*
X349181Y151196D01*
Y149803D01*
X349714Y148517D01*
X350698Y147532D01*
X351985Y147000D01*
X353377D01*
X354663Y147532D01*
X355648Y148517D01*
X356181Y149803D01*
Y151196D01*
X355648Y152482D01*
X354663Y153467D01*
X353377Y154000D01*
D02*
G37*
G36*
X664310Y147834D02*
X652580D01*
Y146146D01*
X650040D01*
Y147834D01*
X638310D01*
Y133604D01*
X639998D01*
Y131064D01*
X638310D01*
Y116834D01*
X650040D01*
Y118522D01*
X652580D01*
Y116834D01*
X664310D01*
Y131064D01*
X662622D01*
Y133604D01*
X664310D01*
Y147834D01*
D02*
G37*
G36*
X421372Y163010D02*
X419616Y162661D01*
X418128Y161666D01*
X417133Y160177D01*
X416784Y158422D01*
Y146422D01*
X417133Y144666D01*
X418128Y143177D01*
X419616Y142183D01*
X421372Y141833D01*
X423128Y142183D01*
X424616Y143177D01*
X425611Y144666D01*
X425960Y146422D01*
Y158422D01*
X425611Y160177D01*
X424616Y161666D01*
X423128Y162661D01*
X421372Y163010D01*
D02*
G37*
G36*
X259441Y141381D02*
X255711D01*
Y139694D01*
X253171D01*
Y141381D01*
X249441D01*
Y137151D01*
X251128D01*
Y134611D01*
X249441D01*
Y130381D01*
X253171D01*
Y132069D01*
X255711D01*
Y130381D01*
X259441D01*
Y134611D01*
X257753D01*
Y137151D01*
X259441D01*
Y141381D01*
D02*
G37*
G36*
X314710D02*
X304710D01*
Y139195D01*
X275441D01*
Y141381D01*
X265441D01*
Y130381D01*
X275441D01*
Y132568D01*
X304710D01*
Y130381D01*
X314710D01*
Y141381D01*
D02*
G37*
G36*
X629060Y143272D02*
X617060D01*
X615304Y142923D01*
X613816Y141928D01*
X612821Y140440D01*
X612472Y138684D01*
X612821Y136928D01*
X613816Y135440D01*
X615304Y134445D01*
X617060Y134096D01*
X629060D01*
X630816Y134445D01*
X632304Y135440D01*
X633299Y136928D01*
X633648Y138684D01*
X633299Y140440D01*
X632304Y141928D01*
X630816Y142923D01*
X629060Y143272D01*
D02*
G37*
G36*
X685560Y130572D02*
X680830D01*
Y128796D01*
X678290D01*
Y130572D01*
X673560D01*
X671804Y130223D01*
X671392Y129948D01*
X672669Y128672D01*
X670872Y126875D01*
X669596Y128152D01*
X669321Y127740D01*
X668972Y125984D01*
X669321Y124228D01*
X669596Y123816D01*
X670872Y125092D01*
X672669Y123296D01*
X671392Y122020D01*
X671804Y121745D01*
X673560Y121396D01*
X678290D01*
Y123172D01*
X680830D01*
Y121396D01*
X685560D01*
X687316Y121745D01*
X687728Y122020D01*
X686452Y123296D01*
X688248Y125092D01*
X689524Y123816D01*
X689799Y124228D01*
X690148Y125984D01*
X689799Y127740D01*
X689524Y128152D01*
X688248Y126875D01*
X686452Y128672D01*
X687728Y129948D01*
X687316Y130223D01*
X685560Y130572D01*
D02*
G37*
G36*
X434072Y163010D02*
X432316Y162661D01*
X430828Y161666D01*
X429833Y160177D01*
X429484Y158422D01*
Y146422D01*
Y136949D01*
X429833Y135193D01*
X430828Y133704D01*
X435477Y129055D01*
X434951Y127785D01*
X429486D01*
Y126097D01*
X426946D01*
Y127785D01*
X420368D01*
Y120824D01*
X422056D01*
Y118284D01*
X420368D01*
Y111323D01*
X426946D01*
Y113011D01*
X429486D01*
Y111323D01*
X435721D01*
X436064Y111323D01*
X436991Y110496D01*
Y102178D01*
X436064Y101350D01*
X420368D01*
Y84889D01*
X436064D01*
Y88531D01*
X441579D01*
X443335Y88881D01*
X444824Y89875D01*
X445818Y91364D01*
X446168Y93119D01*
Y129441D01*
X445818Y131197D01*
X444824Y132686D01*
X438660Y138849D01*
Y152422D01*
Y158422D01*
X438311Y160177D01*
X437316Y161666D01*
X435828Y162661D01*
X434072Y163010D01*
D02*
G37*
G36*
X168825Y142120D02*
X166455D01*
X164166Y141506D01*
X162114Y140321D01*
X160438Y138646D01*
X159253Y136594D01*
X158640Y134305D01*
Y131935D01*
X159253Y129646D01*
X160438Y127593D01*
X162114Y125918D01*
X164166Y124733D01*
X166455Y124120D01*
X168825D01*
X171114Y124733D01*
X173166Y125918D01*
X174842Y127593D01*
X176027Y129646D01*
X176640Y131935D01*
Y134305D01*
X176027Y136594D01*
X174842Y138646D01*
X173166Y140321D01*
X171114Y141506D01*
X168825Y142120D01*
D02*
G37*
G36*
X130005D02*
X127635D01*
X125346Y141506D01*
X123294Y140321D01*
X121618Y138646D01*
X120433Y136594D01*
X119820Y134305D01*
Y131935D01*
X120433Y129646D01*
X121618Y127593D01*
X123294Y125918D01*
X125346Y124733D01*
X127635Y124120D01*
X130005D01*
X132294Y124733D01*
X134346Y125918D01*
X136022Y127593D01*
X137207Y129646D01*
X137820Y131935D01*
Y134305D01*
X137207Y136594D01*
X136022Y138646D01*
X134346Y140321D01*
X132294Y141506D01*
X130005Y142120D01*
D02*
G37*
G36*
X91185D02*
X88815D01*
X86526Y141506D01*
X84474Y140321D01*
X82798Y138646D01*
X81613Y136594D01*
X81000Y134305D01*
Y131935D01*
X81613Y129646D01*
X82798Y127593D01*
X84474Y125918D01*
X86526Y124733D01*
X88815Y124120D01*
X91185D01*
X93474Y124733D01*
X95526Y125918D01*
X97202Y127593D01*
X98387Y129646D01*
X99000Y131935D01*
Y134305D01*
X98387Y136594D01*
X97202Y138646D01*
X95526Y140321D01*
X93474Y141506D01*
X91185Y142120D01*
D02*
G37*
G36*
X629060Y130572D02*
X617060D01*
X615304Y130223D01*
X613816Y129228D01*
X612821Y127740D01*
X612472Y125984D01*
X612821Y124228D01*
X613816Y122740D01*
X615304Y121745D01*
X617060Y121396D01*
X629060D01*
X630816Y121745D01*
X632304Y122740D01*
X633299Y124228D01*
X633648Y125984D01*
X633299Y127740D01*
X632304Y129228D01*
X630816Y130223D01*
X629060Y130572D01*
D02*
G37*
G36*
X760372Y122658D02*
X748331D01*
Y120970D01*
X745791D01*
Y122658D01*
X733750D01*
Y113030D01*
X735438D01*
Y110490D01*
X733750D01*
Y100862D01*
X745791D01*
Y102550D01*
X748331D01*
Y100862D01*
X760372D01*
Y110490D01*
X758684D01*
Y113030D01*
X760372D01*
Y122658D01*
D02*
G37*
G36*
X586170Y150170D02*
X575170D01*
Y140170D01*
X577101D01*
Y128054D01*
X575170D01*
Y118054D01*
X586170D01*
Y128054D01*
X584238D01*
Y140170D01*
X586170D01*
Y150170D01*
D02*
G37*
G36*
X567969Y150169D02*
X556969D01*
Y140169D01*
X558901D01*
Y128054D01*
X556969D01*
Y118054D01*
X567969D01*
Y128054D01*
X566038D01*
Y140169D01*
X567969D01*
Y150169D01*
D02*
G37*
G36*
X715240D02*
X704240D01*
Y140169D01*
X705662D01*
Y128053D01*
X704240D01*
Y118053D01*
X715240D01*
Y128053D01*
X713818D01*
Y140169D01*
X715240D01*
Y150169D01*
D02*
G37*
G36*
X532982Y115204D02*
X516890D01*
Y113517D01*
X514350D01*
Y115204D01*
X498258D01*
Y103247D01*
X499945D01*
Y100707D01*
X498258D01*
Y88749D01*
X514350D01*
Y90437D01*
X516890D01*
Y88749D01*
X532982D01*
Y100707D01*
X531295D01*
Y103247D01*
X532982D01*
Y115204D01*
D02*
G37*
G36*
X603470Y150170D02*
X592470D01*
Y140170D01*
X593892D01*
Y128054D01*
X592470D01*
Y118054D01*
X597406D01*
X597816Y117440D01*
X602029Y113227D01*
X601543Y112054D01*
X599240D01*
Y110366D01*
X596700D01*
Y112054D01*
X592470D01*
Y108324D01*
X594158D01*
Y105784D01*
X592470D01*
Y102054D01*
X596700D01*
Y103742D01*
X599240D01*
Y102054D01*
X603470D01*
Y105784D01*
X601782D01*
Y108324D01*
X603470D01*
Y110127D01*
X604643Y110613D01*
X604856Y110400D01*
X604856Y110400D01*
X606179Y109516D01*
X607740Y109206D01*
X607740Y109206D01*
X615064D01*
X615304Y109045D01*
X617060Y108696D01*
X629060D01*
X630816Y109045D01*
X632304Y110040D01*
X633299Y111528D01*
X633648Y113284D01*
X633299Y115040D01*
X632304Y116528D01*
X630816Y117523D01*
X629060Y117872D01*
X617060D01*
X615304Y117523D01*
X615064Y117362D01*
X609429D01*
X604483Y122309D01*
X604468Y122385D01*
X603584Y123708D01*
X603584Y123708D01*
X603470Y123822D01*
Y128054D01*
X602048D01*
Y140170D01*
X603470D01*
Y150170D01*
D02*
G37*
G36*
X586170Y112054D02*
X581940D01*
Y110366D01*
X579400D01*
Y112054D01*
X575170D01*
Y108324D01*
X576857D01*
Y105784D01*
X575170D01*
Y102054D01*
X579400D01*
Y103742D01*
X581940D01*
Y102054D01*
X586170D01*
Y105784D01*
X584482D01*
Y108324D01*
X586170D01*
Y112054D01*
D02*
G37*
G36*
X567969D02*
X563739D01*
Y110366D01*
X561199D01*
Y112054D01*
X556969D01*
Y108324D01*
X558657D01*
Y105784D01*
X556969D01*
Y102054D01*
X561199D01*
Y103742D01*
X563739D01*
Y102054D01*
X567969D01*
Y105784D01*
X566282D01*
Y108324D01*
X567969D01*
Y112054D01*
D02*
G37*
G36*
X470320D02*
X466090D01*
Y110366D01*
X463550D01*
Y112054D01*
X459320D01*
Y108324D01*
X461008D01*
Y105784D01*
X459320D01*
Y102054D01*
X463550D01*
Y103742D01*
X466090D01*
Y102054D01*
X470320D01*
Y105784D01*
X468632D01*
Y108324D01*
X470320D01*
Y112054D01*
D02*
G37*
G36*
X715240Y112053D02*
X711010D01*
Y110366D01*
X708470D01*
Y112053D01*
X704240D01*
Y108323D01*
X705928D01*
Y105783D01*
X704240D01*
Y102053D01*
X708470D01*
Y103741D01*
X711010D01*
Y102053D01*
X715240D01*
Y105783D01*
X713552D01*
Y108323D01*
X715240D01*
Y112053D01*
D02*
G37*
G36*
X685560Y117872D02*
X673560D01*
X671804Y117523D01*
X670316Y116528D01*
X669321Y115040D01*
X668972Y113284D01*
X669321Y111528D01*
X670316Y110040D01*
X671804Y109045D01*
X673560Y108696D01*
X685560D01*
X687316Y109045D01*
X688804Y110040D01*
X689799Y111528D01*
X690148Y113284D01*
X689799Y115040D01*
X688804Y116528D01*
X687316Y117523D01*
X685560Y117872D01*
D02*
G37*
G36*
X378733Y113990D02*
X377340D01*
X376054Y113457D01*
X375069Y112473D01*
X374537Y111186D01*
Y109794D01*
X375069Y108507D01*
X376054Y107523D01*
X377340Y106990D01*
X378733D01*
X380019Y107523D01*
X381004Y108507D01*
X381536Y109794D01*
Y111186D01*
X381004Y112473D01*
X380019Y113457D01*
X378733Y113990D01*
D02*
G37*
G36*
X413200Y101350D02*
X406622D01*
Y99663D01*
X404082D01*
Y101350D01*
X397504D01*
Y94389D01*
X399192D01*
Y91849D01*
X397504D01*
Y84889D01*
X404082D01*
Y86576D01*
X406622D01*
Y84889D01*
X413200D01*
Y91849D01*
X411512D01*
Y94389D01*
X413200D01*
Y101350D01*
D02*
G37*
G36*
X607470Y76671D02*
X596470D01*
Y75749D01*
X586170D01*
Y76671D01*
X575170D01*
Y75749D01*
X558470D01*
X558469Y75749D01*
X556909Y75439D01*
X555586Y74555D01*
X555586Y74555D01*
X547929Y66898D01*
X518520D01*
X518481Y66965D01*
X517225Y68221D01*
X515685Y69110D01*
X513969Y69570D01*
X512191D01*
X510475Y69110D01*
X508935Y68221D01*
X507679Y66965D01*
X507463Y66592D01*
X505997D01*
X505781Y66965D01*
X504525Y68221D01*
X502985Y69110D01*
X501269Y69570D01*
X499491D01*
X497775Y69110D01*
X496235Y68221D01*
X495700Y67686D01*
X494430Y68212D01*
Y69570D01*
X488950D01*
Y67882D01*
X486410D01*
Y69570D01*
X480930D01*
Y64090D01*
X482618D01*
Y61550D01*
X480930D01*
Y56070D01*
X486410D01*
Y57758D01*
X488950D01*
Y56070D01*
X494430D01*
Y57428D01*
X495700Y57954D01*
X496235Y57419D01*
X497775Y56530D01*
X499491Y56070D01*
X501269D01*
X502985Y56530D01*
X504525Y57419D01*
X505781Y58675D01*
X505997Y59049D01*
X507463D01*
X507679Y58675D01*
X508935Y57419D01*
X510475Y56530D01*
X512191Y56070D01*
X513969D01*
X515685Y56530D01*
X517225Y57419D01*
X518481Y58675D01*
X518520Y58742D01*
X549619D01*
X549619Y58742D01*
X551179Y59052D01*
X552503Y59936D01*
X560159Y67592D01*
X575170D01*
Y66671D01*
X586170D01*
Y67592D01*
X596470D01*
Y66671D01*
X607470D01*
Y76671D01*
D02*
G37*
G36*
X715240D02*
X711010D01*
Y74983D01*
X708470D01*
Y76671D01*
X704240D01*
Y72941D01*
X705928D01*
Y70401D01*
X704240D01*
Y66671D01*
X708470D01*
Y68358D01*
X711010D01*
Y66671D01*
X715240D01*
Y70401D01*
X713552D01*
Y72941D01*
X715240D01*
Y76671D01*
D02*
G37*
G36*
X221550Y67760D02*
X217820D01*
Y66073D01*
X215280D01*
Y67760D01*
X211550D01*
Y63530D01*
X213238D01*
Y60990D01*
X211550D01*
Y56760D01*
X215280D01*
Y58448D01*
X217820D01*
Y56760D01*
X221550D01*
Y60990D01*
X219862D01*
Y63530D01*
X221550D01*
Y67760D01*
D02*
G37*
G36*
X715240Y60671D02*
X704240D01*
Y59239D01*
X692580D01*
Y60671D01*
X681580D01*
Y50671D01*
X692580D01*
Y52102D01*
X704240D01*
Y50671D01*
X715240D01*
Y60671D01*
D02*
G37*
G36*
X586170D02*
X581940D01*
Y58983D01*
X579400D01*
Y60671D01*
X575170D01*
Y56941D01*
X576857D01*
Y54401D01*
X575170D01*
Y50671D01*
X579400D01*
Y52358D01*
X581940D01*
Y50671D01*
X586170D01*
Y54401D01*
X584482D01*
Y56941D01*
X586170D01*
Y60671D01*
D02*
G37*
G36*
X632410Y64239D02*
X632065Y64171D01*
X631714D01*
X631389Y64036D01*
X631044Y63968D01*
X630752Y63772D01*
X630427Y63638D01*
X630179Y63389D01*
X629887Y63194D01*
X629691Y62902D01*
X629443Y62653D01*
X629308Y62329D01*
X629113Y62036D01*
X629044Y61692D01*
X628910Y61367D01*
Y61016D01*
X628841Y60671D01*
Y58671D01*
X625910D01*
Y57739D01*
X619137D01*
X618682Y58194D01*
X617524Y58968D01*
X616158Y59239D01*
X607470D01*
Y60671D01*
X596470D01*
Y50671D01*
X607470D01*
Y52102D01*
X614680D01*
X615135Y51647D01*
X616293Y50874D01*
X617658Y50602D01*
X625910D01*
Y49671D01*
X638910D01*
Y58671D01*
X635979D01*
Y60671D01*
X635910Y61016D01*
Y61367D01*
X635775Y61692D01*
X635707Y62036D01*
X635512Y62329D01*
X635377Y62653D01*
X635129Y62902D01*
X634933Y63194D01*
X634641Y63389D01*
X634393Y63638D01*
X634068Y63772D01*
X633776Y63968D01*
X633431Y64036D01*
X633106Y64171D01*
X632755D01*
X632410Y64239D01*
D02*
G37*
G36*
X130005Y74866D02*
X127635D01*
X125346Y74253D01*
X123294Y73068D01*
X121618Y71392D01*
X120433Y69340D01*
X119820Y67051D01*
Y64681D01*
X120433Y62392D01*
X121618Y60340D01*
X123294Y58664D01*
X125346Y57480D01*
X127635Y56866D01*
X130005D01*
X132294Y57480D01*
X134346Y58664D01*
X136022Y60340D01*
X137207Y62392D01*
X137820Y64681D01*
Y67051D01*
X137207Y69340D01*
X136022Y71392D01*
X134346Y73068D01*
X132294Y74253D01*
X130005Y74866D01*
D02*
G37*
G36*
X91185D02*
X88815D01*
X86526Y74253D01*
X84474Y73068D01*
X82798Y71392D01*
X81613Y69340D01*
X81000Y67051D01*
Y64681D01*
X81613Y62392D01*
X82798Y60340D01*
X84474Y58664D01*
X86526Y57480D01*
X88815Y56866D01*
X91185D01*
X93474Y57480D01*
X95526Y58664D01*
X97202Y60340D01*
X98387Y62392D01*
X99000Y64681D01*
Y67051D01*
X98387Y69340D01*
X97202Y71392D01*
X95526Y73068D01*
X93474Y74253D01*
X91185Y74866D01*
D02*
G37*
%LPD*%
G36*
X246848Y766576D02*
X241017Y760744D01*
X240243Y759587D01*
X239971Y758221D01*
Y750241D01*
X238040D01*
Y740241D01*
X247655D01*
X247683Y740205D01*
X248034Y739315D01*
X248104Y738971D01*
X247950Y738739D01*
X247701Y738491D01*
X247567Y738166D01*
X247372Y737874D01*
X247303Y737529D01*
X247169Y737204D01*
Y736853D01*
X247100Y736508D01*
Y734241D01*
X238040D01*
Y724241D01*
X249040D01*
Y725672D01*
X255380D01*
Y724241D01*
X266380D01*
Y734241D01*
X255380D01*
Y734241D01*
X254237Y734548D01*
Y736508D01*
X254169Y736853D01*
Y737204D01*
X254034Y737529D01*
X253965Y737874D01*
X253770Y738166D01*
X253636Y738491D01*
X253387Y738739D01*
X253192Y739032D01*
X252900Y739227D01*
X252651Y739475D01*
X252326Y739610D01*
X252034Y739805D01*
X251689Y739874D01*
X251365Y740008D01*
X251013D01*
X250669Y740077D01*
X250324Y740008D01*
X250214D01*
X249911Y740068D01*
X249163Y740804D01*
X249040Y741041D01*
Y750241D01*
X247108D01*
Y756743D01*
X251407Y761041D01*
X261575D01*
X262101Y759771D01*
X258357Y756027D01*
X257583Y754869D01*
X257311Y753503D01*
Y750241D01*
X255380D01*
Y740241D01*
X266380D01*
Y750241D01*
X264449D01*
Y752025D01*
X266511Y754088D01*
X281010D01*
X281527Y753437D01*
X280974Y752194D01*
X277510D01*
Y743539D01*
X277441Y743194D01*
Y729241D01*
X277510Y728896D01*
Y728544D01*
X277645Y728220D01*
X277713Y727875D01*
X277908Y727583D01*
X278043Y727258D01*
X278291Y727010D01*
X278487Y726717D01*
X278779Y726522D01*
X279027Y726273D01*
X279352Y726139D01*
X279644Y725944D01*
X279989Y725875D01*
X280314Y725741D01*
X280665D01*
X281010Y725672D01*
X281355Y725741D01*
X281706D01*
X282031Y725875D01*
X282376Y725944D01*
X282668Y726139D01*
X282993Y726273D01*
X283241Y726522D01*
X283533Y726717D01*
X283729Y727010D01*
X283977Y727258D01*
X284112Y727583D01*
X284307Y727875D01*
X284375Y728220D01*
X284510Y728544D01*
Y728896D01*
X284579Y729241D01*
Y734194D01*
X290441D01*
Y731225D01*
X285217Y726000D01*
X284443Y724843D01*
X284171Y723477D01*
Y706222D01*
X284240Y705878D01*
Y705526D01*
X284374Y705201D01*
X284443Y704857D01*
X284638Y704565D01*
X284773Y704240D01*
X285021Y703991D01*
X285217Y703699D01*
X285509Y703504D01*
X285757Y703255D01*
X286082Y703121D01*
X286374Y702925D01*
X286719Y702857D01*
X287044Y702722D01*
X287395D01*
X287740Y702654D01*
X288085Y702722D01*
X288436D01*
X288761Y702857D01*
X289106Y702925D01*
X289171Y702969D01*
X289883Y702746D01*
X290387Y702357D01*
X290441Y702283D01*
Y695806D01*
X277510D01*
Y690375D01*
X271780D01*
X271435Y690306D01*
X271084D01*
X270759Y690171D01*
X270414Y690103D01*
X270122Y689908D01*
X269797Y689773D01*
X269549Y689525D01*
X269257Y689329D01*
X269061Y689037D01*
X268813Y688789D01*
X268678Y688464D01*
X268483Y688171D01*
X268414Y687827D01*
X268280Y687502D01*
Y687151D01*
X268211Y686806D01*
X268280Y686461D01*
Y686110D01*
X268414Y685785D01*
X268483Y685440D01*
X268678Y685148D01*
X268813Y684823D01*
X269061Y684575D01*
X269257Y684283D01*
X269549Y684087D01*
X269797Y683839D01*
X270122Y683704D01*
X270414Y683509D01*
X270759Y683440D01*
X271084Y683306D01*
X271435D01*
X271780Y683237D01*
X277510D01*
Y677806D01*
X283941D01*
Y675388D01*
X266320D01*
X264449Y677260D01*
Y679761D01*
X266380D01*
Y689761D01*
X255380D01*
Y679761D01*
X257311D01*
Y675782D01*
X257583Y674416D01*
X258357Y673259D01*
X262319Y669297D01*
X263476Y668523D01*
X264842Y668251D01*
X283941D01*
Y640413D01*
X284213Y639047D01*
X284987Y637889D01*
X288799Y634077D01*
X288563Y633323D01*
X288222Y632858D01*
X232519D01*
X231153Y632586D01*
X229995Y631813D01*
X220257Y622074D01*
X219483Y620916D01*
X219211Y619551D01*
Y610300D01*
X217280D01*
Y608868D01*
X211849D01*
Y735182D01*
X218337Y741671D01*
X219820D01*
Y740239D01*
X230820D01*
Y750239D01*
X228888D01*
Y759961D01*
X236774Y767846D01*
X246322D01*
X246848Y766576D01*
D02*
G37*
G36*
X335941Y718568D02*
X323126D01*
X321760Y718297D01*
X320602Y717523D01*
X317936Y714857D01*
X310987Y707907D01*
X310213Y706750D01*
X309941Y705384D01*
Y695806D01*
X301780D01*
Y694118D01*
X299240D01*
Y695806D01*
X297579D01*
Y718820D01*
X297579Y718820D01*
X297510Y719165D01*
Y719516D01*
X297376Y719841D01*
X297307Y720186D01*
X297112Y720478D01*
X296977Y720803D01*
X296729Y721051D01*
X296533Y721343D01*
X296241Y721539D01*
X295993Y721787D01*
X295668Y721922D01*
X295376Y722117D01*
X295031Y722186D01*
X294706Y722320D01*
X294355D01*
X294010Y722389D01*
X293665Y722320D01*
X293426D01*
X293179Y722614D01*
X292786Y723476D01*
X296533Y727224D01*
X297307Y728381D01*
X297579Y729747D01*
Y734194D01*
X335941D01*
Y718568D01*
D02*
G37*
G36*
X301780Y677806D02*
X303441D01*
Y670745D01*
X303510Y670400D01*
Y670049D01*
X303645Y669724D01*
X303713Y669379D01*
X303908Y669087D01*
X304043Y668762D01*
X304291Y668514D01*
X304487Y668222D01*
X304779Y668026D01*
X305027Y667778D01*
X305352Y667643D01*
X305644Y667448D01*
X305989Y667380D01*
X306314Y667245D01*
X306665D01*
X307010Y667176D01*
X307355Y667245D01*
X307706D01*
X308031Y667380D01*
X308376Y667448D01*
X308668Y667643D01*
X308993Y667778D01*
X309241Y668026D01*
X309533Y668222D01*
X309729Y668514D01*
X309977Y668762D01*
X310112Y669087D01*
X310307Y669379D01*
X310375Y669724D01*
X310510Y670049D01*
Y670400D01*
X310578Y670745D01*
Y677806D01*
X316441D01*
Y649113D01*
X316713Y647747D01*
X317487Y646590D01*
X333401Y630675D01*
Y620998D01*
X332131Y620319D01*
X331836Y620517D01*
X330470Y620789D01*
X329104Y620517D01*
X327947Y619743D01*
X327173Y618586D01*
X326975Y617589D01*
X326970Y617577D01*
Y617565D01*
X326901Y617220D01*
Y612255D01*
X301539D01*
Y619567D01*
X302032Y619968D01*
X302723Y620292D01*
X303136Y620121D01*
X303146Y620113D01*
X303159Y620111D01*
X303816Y619839D01*
X305208D01*
X305865Y620111D01*
X305878Y620113D01*
X305888Y620121D01*
X306495Y620372D01*
X306959Y620836D01*
X307035Y620887D01*
X307087Y620964D01*
X307479Y621356D01*
X307691Y621869D01*
X307809Y622045D01*
X307850Y622252D01*
X308012Y622643D01*
Y623066D01*
X308081Y623410D01*
X308012Y623755D01*
Y624035D01*
X307905Y624294D01*
X307809Y624776D01*
X307536Y625185D01*
X307479Y625322D01*
X307374Y625426D01*
X307035Y625934D01*
X291078Y641891D01*
Y677806D01*
X299240D01*
Y679493D01*
X301780D01*
Y677806D01*
D02*
G37*
G36*
X243946Y624548D02*
X238477Y619078D01*
X237703Y617921D01*
X237431Y616555D01*
Y610301D01*
X235500D01*
Y600301D01*
X246500D01*
Y610301D01*
X244569D01*
Y615077D01*
X249244Y619752D01*
X258642D01*
X259128Y618579D01*
X255817Y615267D01*
X255043Y614109D01*
X254771Y612744D01*
Y610301D01*
X252840D01*
Y600301D01*
X263840D01*
Y610301D01*
X262645D01*
X262214Y611571D01*
X264352Y613709D01*
X278294D01*
X278417Y613525D01*
X277738Y612255D01*
X274970D01*
Y603600D01*
X274901Y603255D01*
Y589301D01*
X274970Y588956D01*
Y588605D01*
X275105Y588280D01*
X275173Y587935D01*
X275368Y587643D01*
X275503Y587318D01*
X275751Y587070D01*
X275947Y586777D01*
X276239Y586582D01*
X276487Y586334D01*
X276812Y586199D01*
X277104Y586004D01*
X277449Y585935D01*
X277774Y585801D01*
X278125D01*
X278470Y585732D01*
X278815Y585801D01*
X279166D01*
X279491Y585935D01*
X279836Y586004D01*
X280128Y586199D01*
X280453Y586334D01*
X280701Y586582D01*
X280993Y586777D01*
X281189Y587070D01*
X281437Y587318D01*
X281572Y587643D01*
X281767Y587935D01*
X281835Y588280D01*
X281970Y588605D01*
Y588956D01*
X282039Y589301D01*
Y594255D01*
X287901D01*
Y578950D01*
X282447Y573495D01*
X282251Y573203D01*
X282003Y572955D01*
X281868Y572630D01*
X281673Y572338D01*
X281604Y571993D01*
X281470Y571668D01*
Y571317D01*
X281401Y570972D01*
X281470Y570627D01*
Y570276D01*
X281604Y569951D01*
X281673Y569606D01*
X281868Y569314D01*
X282003Y568989D01*
X282251Y568741D01*
X282447Y568449D01*
X282739Y568253D01*
X282987Y568005D01*
X283312Y567870D01*
X283604Y567675D01*
X283949Y567607D01*
X284274Y567472D01*
X284625D01*
X284970Y567403D01*
X285315Y567472D01*
X285666D01*
X285991Y567607D01*
X286336Y567675D01*
X286628Y567870D01*
X286952Y568005D01*
X288118Y567402D01*
X288151Y567361D01*
X287901Y566104D01*
Y555867D01*
X274970D01*
Y550435D01*
X271780D01*
X271435Y550367D01*
X271084D01*
X270759Y550232D01*
X270414Y550164D01*
X270122Y549968D01*
X269797Y549834D01*
X269549Y549585D01*
X269257Y549390D01*
X269061Y549098D01*
X268813Y548849D01*
X268678Y548525D01*
X268483Y548232D01*
X268414Y547888D01*
X268280Y547563D01*
Y547211D01*
X268211Y546867D01*
X268280Y546522D01*
Y546171D01*
X268414Y545846D01*
X268483Y545501D01*
X268678Y545209D01*
X268813Y544884D01*
X269061Y544636D01*
X269257Y544343D01*
X269549Y544148D01*
X269797Y543900D01*
X270122Y543765D01*
X270414Y543570D01*
X270759Y543501D01*
X271084Y543367D01*
X271435D01*
X271780Y543298D01*
X274970D01*
Y537867D01*
X281401D01*
Y535449D01*
X261908D01*
Y539822D01*
X263840D01*
Y549822D01*
X252840D01*
Y539822D01*
X254771D01*
Y531881D01*
X254840Y531536D01*
Y531185D01*
X254974Y530860D01*
X255043Y530515D01*
X255238Y530223D01*
X255373Y529898D01*
X255621Y529650D01*
X255817Y529357D01*
X256109Y529162D01*
X256357Y528914D01*
X256682Y528779D01*
X256974Y528584D01*
X257319Y528515D01*
X257644Y528381D01*
X257995D01*
X258340Y528312D01*
X294165D01*
X294640Y528218D01*
X296006Y528489D01*
X297163Y529263D01*
X297549Y529840D01*
X297607Y529898D01*
X297639Y529974D01*
X297937Y530421D01*
X298042Y530947D01*
X298140Y531185D01*
Y531441D01*
X298209Y531786D01*
X298140Y532131D01*
Y532577D01*
X297969Y532989D01*
X297937Y533152D01*
X297845Y533290D01*
X297607Y533863D01*
X297168Y534302D01*
X297163Y534310D01*
X297069Y534404D01*
X297062Y534409D01*
X296623Y534848D01*
X296049Y535085D01*
X295911Y535178D01*
X295748Y535210D01*
X295336Y535381D01*
X294890D01*
X294545Y535449D01*
X288538D01*
Y537867D01*
X296700D01*
Y539554D01*
X299240D01*
Y537867D01*
X300901D01*
Y535940D01*
X300970Y535595D01*
Y535244D01*
X301105Y534919D01*
X301173Y534574D01*
X301368Y534282D01*
X301503Y533957D01*
X301751Y533709D01*
X301947Y533417D01*
X302239Y533221D01*
X302487Y532973D01*
X302812Y532838D01*
X303104Y532643D01*
X303449Y532575D01*
X303774Y532440D01*
X304125D01*
X304470Y532371D01*
X304815Y532440D01*
X305166D01*
X305491Y532575D01*
X305836Y532643D01*
X306128Y532838D01*
X306453Y532973D01*
X306701Y533221D01*
X306993Y533417D01*
X307189Y533709D01*
X307437Y533957D01*
X307572Y534282D01*
X307767Y534574D01*
X307836Y534919D01*
X307970Y535244D01*
Y535595D01*
X308039Y535940D01*
Y537867D01*
X320401D01*
Y535940D01*
X320470Y535595D01*
Y535244D01*
X320605Y534919D01*
X320673Y534574D01*
X320868Y534282D01*
X321003Y533957D01*
X321251Y533709D01*
X321447Y533417D01*
X321739Y533221D01*
X321987Y532973D01*
X322312Y532838D01*
X322604Y532643D01*
X322949Y532575D01*
X323274Y532440D01*
X323625D01*
X323970Y532371D01*
X324315Y532440D01*
X324666D01*
X324991Y532575D01*
X325336Y532643D01*
X325628Y532838D01*
X325953Y532973D01*
X326201Y533221D01*
X326428Y533373D01*
X326519Y533423D01*
X327088Y533555D01*
X327352D01*
X327920Y533423D01*
X328012Y533373D01*
X328239Y533221D01*
X328487Y532973D01*
X328812Y532838D01*
X329104Y532643D01*
X329449Y532575D01*
X329774Y532440D01*
X330125D01*
X330470Y532371D01*
X330815Y532440D01*
X331166D01*
X331491Y532575D01*
X331836Y532643D01*
X332128Y532838D01*
X332131Y532840D01*
X333089Y532404D01*
X333401Y532126D01*
Y474236D01*
X332957Y473917D01*
X332131Y473578D01*
X332031Y473619D01*
X331739Y473815D01*
X331394Y473883D01*
X331070Y474018D01*
X330718D01*
X330373Y474086D01*
X330029Y474018D01*
X329677D01*
X329353Y473883D01*
X329008Y473815D01*
X328716Y473619D01*
X328391Y473485D01*
X328142Y473236D01*
X327850Y473041D01*
X327655Y472749D01*
X327406Y472500D01*
X327272Y472176D01*
X327077Y471883D01*
X327008Y471539D01*
X326874Y471214D01*
Y470863D01*
X326805Y470518D01*
X326874Y470173D01*
Y469822D01*
X326901Y469754D01*
Y466811D01*
X301539D01*
Y472445D01*
X301267Y473811D01*
X300493Y474968D01*
X288730Y486732D01*
X287573Y487505D01*
X286207Y487777D01*
X231745D01*
X230380Y487505D01*
X229222Y486732D01*
X220257Y477766D01*
X219483Y476608D01*
X219211Y475243D01*
Y464856D01*
X217280D01*
Y463425D01*
X211849D01*
Y601731D01*
X217280D01*
Y600300D01*
X228280D01*
Y610300D01*
X226348D01*
Y618073D01*
X233997Y625721D01*
X243460D01*
X243946Y624548D01*
D02*
G37*
G36*
X333401Y580759D02*
X321970D01*
X320604Y580487D01*
X319447Y579713D01*
X316947Y577213D01*
X308447Y568713D01*
X307673Y567556D01*
X307401Y566190D01*
Y555867D01*
X299240D01*
Y554179D01*
X296700D01*
Y555867D01*
X295039D01*
Y564626D01*
X298861Y568449D01*
X299057Y568741D01*
X299305Y568989D01*
X299440Y569314D01*
X299635Y569606D01*
X299704Y569951D01*
X299838Y570276D01*
Y570627D01*
X299907Y570972D01*
X299838Y571317D01*
Y571668D01*
X299704Y571993D01*
X299635Y572338D01*
X299440Y572630D01*
X299305Y572955D01*
X299057Y573203D01*
X298861Y573495D01*
X298569Y573691D01*
X298321Y573939D01*
X297996Y574074D01*
X297704Y574269D01*
X297359Y574338D01*
X297034Y574472D01*
X296683D01*
X296338Y574541D01*
X295993Y574472D01*
X295642D01*
X295317Y574338D01*
X295081Y574291D01*
X294785Y574528D01*
X294227Y575298D01*
X294767Y576106D01*
X295039Y577472D01*
Y594255D01*
X333401D01*
Y580759D01*
D02*
G37*
G36*
X243825Y479370D02*
X238477Y474022D01*
X237703Y472864D01*
X237431Y471498D01*
Y464857D01*
X235500D01*
Y454857D01*
X246500D01*
Y464857D01*
X244569D01*
Y470020D01*
X248857Y474308D01*
X258732D01*
X259258Y473038D01*
X255817Y469596D01*
X255043Y468439D01*
X254771Y467073D01*
Y464857D01*
X252840D01*
Y454857D01*
X263840D01*
Y464857D01*
X262967D01*
X262440Y466127D01*
X264243Y467930D01*
X274605D01*
X274970Y466811D01*
X274970D01*
Y458156D01*
X274901Y457811D01*
Y444500D01*
X274970Y444155D01*
Y443804D01*
X275105Y443479D01*
X275173Y443134D01*
X275368Y442842D01*
X275503Y442517D01*
X275751Y442269D01*
X275947Y441977D01*
X276239Y441781D01*
X276487Y441533D01*
X276812Y441398D01*
X277104Y441203D01*
X277449Y441134D01*
X277774Y441000D01*
X278125D01*
X278470Y440931D01*
X278815Y441000D01*
X279166D01*
X279491Y441134D01*
X279836Y441203D01*
X280128Y441398D01*
X280453Y441533D01*
X280701Y441781D01*
X280993Y441977D01*
X281189Y442269D01*
X281437Y442517D01*
X281572Y442842D01*
X281767Y443134D01*
X281835Y443479D01*
X281970Y443804D01*
Y444155D01*
X282039Y444500D01*
Y448811D01*
X287901D01*
Y440357D01*
X287970Y440012D01*
Y439589D01*
X288132Y439198D01*
X288173Y438991D01*
X288290Y438815D01*
X288503Y438303D01*
X288895Y437910D01*
X288947Y437833D01*
X289023Y437782D01*
X289487Y437318D01*
X290094Y437067D01*
X290104Y437060D01*
X290117Y437057D01*
X290774Y436785D01*
X292166D01*
X292823Y437057D01*
X292836Y437060D01*
X292846Y437067D01*
X293453Y437318D01*
X293916Y437782D01*
X293993Y437833D01*
X294045Y437910D01*
X294437Y438303D01*
X294650Y438815D01*
X294767Y438991D01*
X294808Y439198D01*
X294970Y439589D01*
Y440012D01*
X295039Y440357D01*
Y448811D01*
X333401D01*
Y433185D01*
X319870D01*
X319670Y433146D01*
X319470Y433185D01*
X318104Y432914D01*
X316947Y432140D01*
X314947Y430140D01*
X314833Y429971D01*
X314664Y429857D01*
X308447Y423640D01*
X307673Y422482D01*
X307401Y421117D01*
Y410423D01*
X299240D01*
Y408735D01*
X296700D01*
Y410423D01*
X295039D01*
Y415376D01*
X295039Y415376D01*
X294970Y415721D01*
Y416001D01*
X294863Y416259D01*
X294767Y416742D01*
X294494Y417150D01*
X294437Y417287D01*
X294333Y417392D01*
X293993Y417899D01*
X293486Y418239D01*
X293453Y418272D01*
X293409Y418290D01*
X292836Y418673D01*
X291470Y418945D01*
X290104Y418673D01*
X289531Y418290D01*
X289487Y418272D01*
X289454Y418239D01*
X288947Y417899D01*
X288607Y417392D01*
X288503Y417287D01*
X288446Y417150D01*
X288173Y416742D01*
X288077Y416259D01*
X287970Y416001D01*
Y415721D01*
X287901Y415376D01*
Y410423D01*
X274970D01*
Y404991D01*
X271780D01*
X271435Y404923D01*
X271084D01*
X270759Y404788D01*
X270414Y404720D01*
X270122Y404524D01*
X269797Y404390D01*
X269549Y404142D01*
X269257Y403946D01*
X269061Y403654D01*
X268813Y403405D01*
X268678Y403081D01*
X268483Y402789D01*
X268414Y402444D01*
X268280Y402119D01*
Y401768D01*
X268211Y401423D01*
X268280Y401078D01*
Y400727D01*
X268414Y400402D01*
X268483Y400057D01*
X268678Y399765D01*
X268813Y399440D01*
X269061Y399192D01*
X269257Y398899D01*
X269549Y398704D01*
X269797Y398456D01*
X270122Y398321D01*
X270414Y398126D01*
X270759Y398057D01*
X271084Y397923D01*
X271435D01*
X271780Y397854D01*
X274970D01*
Y392423D01*
X278995D01*
X279617Y391153D01*
X279187Y390600D01*
X261908D01*
Y394378D01*
X263840D01*
Y404378D01*
X252840D01*
Y394378D01*
X254771D01*
Y387031D01*
X254840Y386686D01*
Y386263D01*
X255002Y385872D01*
X255043Y385665D01*
X255160Y385490D01*
X255373Y384977D01*
X255765Y384584D01*
X255817Y384508D01*
X255893Y384456D01*
X256357Y383992D01*
X256964Y383741D01*
X256974Y383734D01*
X256987Y383731D01*
X257644Y383460D01*
X259036D01*
X259043Y383462D01*
X281024D01*
X282390Y383734D01*
X283547Y384508D01*
X287493Y388453D01*
X288267Y389611D01*
X288538Y390977D01*
Y392423D01*
X296700D01*
Y394110D01*
X299240D01*
Y392423D01*
X300901D01*
Y389597D01*
X300970Y389253D01*
Y388901D01*
X301105Y388576D01*
X301173Y388232D01*
X301368Y387939D01*
X301503Y387615D01*
X301751Y387366D01*
X301947Y387074D01*
X302239Y386879D01*
X302487Y386630D01*
X302812Y386496D01*
X303104Y386300D01*
X303449Y386232D01*
X303774Y386097D01*
X304125D01*
X304470Y386029D01*
X304815Y386097D01*
X305166D01*
X305491Y386232D01*
X305836Y386300D01*
X306128Y386496D01*
X306453Y386630D01*
X306701Y386879D01*
X306993Y387074D01*
X307189Y387366D01*
X307437Y387615D01*
X307572Y387939D01*
X307767Y388232D01*
X307836Y388576D01*
X307970Y388901D01*
Y389253D01*
X308039Y389597D01*
Y392423D01*
X320401D01*
Y389597D01*
X320470Y389253D01*
Y388901D01*
X320605Y388576D01*
X320673Y388232D01*
X320868Y387939D01*
X321003Y387615D01*
X321251Y387366D01*
X321447Y387074D01*
X321739Y386879D01*
X321987Y386630D01*
X322312Y386496D01*
X322604Y386300D01*
X322949Y386232D01*
X323274Y386097D01*
X323625D01*
X323970Y386029D01*
X324315Y386097D01*
X324666D01*
X324991Y386232D01*
X325336Y386300D01*
X325628Y386496D01*
X325953Y386630D01*
X326201Y386879D01*
X326493Y387074D01*
X326689Y387366D01*
X326937Y387615D01*
X327072Y387939D01*
X327267Y388232D01*
X327336Y388576D01*
X327470Y388901D01*
Y389253D01*
X327538Y389597D01*
Y390245D01*
X328809Y390823D01*
X329774Y390423D01*
X331166D01*
X332453Y390956D01*
X333437Y391940D01*
X333637Y392423D01*
X346401D01*
Y302948D01*
X346470Y302603D01*
Y302180D01*
X346632Y301789D01*
X346673Y301582D01*
X346790Y301406D01*
X347003Y300894D01*
X347395Y300501D01*
X347447Y300424D01*
X347523Y300373D01*
X347649Y300248D01*
X347170Y298978D01*
X227434D01*
X211849Y314563D01*
Y456288D01*
X217280D01*
Y454856D01*
X228280D01*
Y464856D01*
X226348D01*
Y473764D01*
X233224Y480640D01*
X243299D01*
X243825Y479370D01*
D02*
G37*
G36*
X403960Y380239D02*
X402699Y380218D01*
X392034D01*
X392033Y380218D01*
X390953Y380003D01*
X390036Y379391D01*
X390036Y379391D01*
X379003Y368358D01*
X378391Y367441D01*
X378176Y366360D01*
X378176Y366360D01*
Y303328D01*
X367487Y292640D01*
X367122Y292577D01*
X366622Y292666D01*
X366242Y293206D01*
X365998Y293961D01*
X366053Y294044D01*
X366121Y294388D01*
X366256Y294713D01*
Y295064D01*
X366324Y295409D01*
Y371540D01*
X376455Y381670D01*
X403960D01*
Y380239D01*
D02*
G37*
G36*
Y374239D02*
Y364239D01*
X405891D01*
Y345759D01*
X403960D01*
Y335803D01*
X397187D01*
X396106Y335588D01*
X395189Y334976D01*
X386226Y326012D01*
X385614Y325096D01*
X385399Y324015D01*
X385399Y324015D01*
Y299980D01*
X373110Y287691D01*
X372420Y287787D01*
X371968Y289132D01*
X382997Y300161D01*
X382997Y300161D01*
X383609Y301077D01*
X383824Y302158D01*
Y365191D01*
X393203Y374570D01*
X402827D01*
X403960Y374239D01*
D02*
G37*
G36*
X391384Y137933D02*
X391733Y136178D01*
X392728Y134689D01*
X397416Y130001D01*
Y124142D01*
X390808D01*
X390688Y124237D01*
X390294Y124788D01*
X390112Y125412D01*
X390180Y125513D01*
X390249Y125858D01*
X390383Y126183D01*
Y126534D01*
X390452Y126879D01*
X390383Y127224D01*
Y127575D01*
X390249Y127900D01*
X390180Y128245D01*
X389985Y128537D01*
X389850Y128862D01*
X389602Y129110D01*
X389407Y129402D01*
X389114Y129598D01*
X388866Y129846D01*
X388541Y129981D01*
X388249Y130176D01*
X387904Y130245D01*
X387579Y130379D01*
X387228D01*
X386883Y130448D01*
X373680D01*
Y132379D01*
X363680D01*
Y121379D01*
X365111D01*
Y98619D01*
X363680D01*
Y96865D01*
X363280Y96560D01*
X362410Y96191D01*
X362338Y96221D01*
X362046Y96417D01*
X361701Y96485D01*
X361376Y96620D01*
X361025D01*
X360680Y96688D01*
X357680D01*
Y98619D01*
X348367D01*
Y102183D01*
X353174Y106990D01*
X353376D01*
X354663Y107523D01*
X355647Y108507D01*
X356180Y109794D01*
Y111186D01*
X355647Y112473D01*
X355504Y112615D01*
Y121379D01*
X357680D01*
Y132379D01*
X347680D01*
Y121379D01*
X349856D01*
Y112615D01*
X349713Y112473D01*
X349180Y111186D01*
Y110984D01*
X344978Y106782D01*
X343804Y107268D01*
Y131398D01*
X348578Y136171D01*
X386883D01*
X387228Y136240D01*
X387579D01*
X387904Y136375D01*
X388249Y136443D01*
X388541Y136638D01*
X388866Y136773D01*
X389114Y137021D01*
X389407Y137217D01*
X389602Y137509D01*
X389850Y137757D01*
X389985Y138082D01*
X390114Y138275D01*
X390205Y138285D01*
X391384Y137933D01*
D02*
G37*
%LPC*%
G36*
X266380Y705761D02*
X255380D01*
Y704329D01*
X249040D01*
Y705759D01*
X238040D01*
Y695759D01*
X249040D01*
Y697191D01*
X255380D01*
Y695761D01*
X266380D01*
Y705761D01*
D02*
G37*
G36*
X230820Y734239D02*
X219820D01*
Y724239D01*
X221751D01*
Y705759D01*
X219820D01*
Y695759D01*
X230820D01*
Y705759D01*
X228888D01*
Y724239D01*
X230820D01*
Y734239D01*
D02*
G37*
G36*
X249040Y689759D02*
X244810D01*
Y688072D01*
X242270D01*
Y689759D01*
X238040D01*
Y686029D01*
X239728D01*
Y683489D01*
X238040D01*
Y679759D01*
X242270D01*
Y681447D01*
X244810D01*
Y679759D01*
X249040D01*
Y683489D01*
X247352D01*
Y686029D01*
X249040D01*
Y689759D01*
D02*
G37*
G36*
X230820D02*
X226590D01*
Y688072D01*
X224050D01*
Y689759D01*
X219820D01*
Y686029D01*
X221508D01*
Y683489D01*
X219820D01*
Y679759D01*
X224050D01*
Y681447D01*
X226590D01*
Y679759D01*
X230820D01*
Y683489D01*
X229132D01*
Y686029D01*
X230820D01*
Y689759D01*
D02*
G37*
G36*
X250669Y599252D02*
X250324Y599183D01*
X249972D01*
X249648Y599049D01*
X249303Y598980D01*
X249011Y598785D01*
X248686Y598650D01*
X248438Y598402D01*
X248145Y598207D01*
X247950Y597914D01*
X247701Y597666D01*
X247567Y597341D01*
X247372Y597049D01*
X247303Y596704D01*
X247169Y596380D01*
Y596028D01*
X247100Y595683D01*
Y595322D01*
X246500Y594301D01*
X235500D01*
Y584301D01*
X246500D01*
Y585732D01*
X252840D01*
Y584301D01*
X263840D01*
Y594301D01*
X254237D01*
Y595683D01*
X254169Y596028D01*
Y596380D01*
X254034Y596704D01*
X253965Y597049D01*
X253770Y597341D01*
X253636Y597666D01*
X253387Y597914D01*
X253192Y598207D01*
X252900Y598402D01*
X252651Y598650D01*
X252326Y598785D01*
X252034Y598980D01*
X251689Y599049D01*
X251365Y599183D01*
X251013D01*
X250669Y599252D01*
D02*
G37*
G36*
X263840Y565822D02*
X252840D01*
Y564389D01*
X246500D01*
Y565820D01*
X235500D01*
Y555820D01*
X246500D01*
Y557252D01*
X252840D01*
Y555822D01*
X263840D01*
Y565822D01*
D02*
G37*
G36*
X228280Y594300D02*
X217280D01*
Y584300D01*
X219211D01*
Y565820D01*
X217280D01*
Y555820D01*
X228280D01*
Y565820D01*
X226348D01*
Y584300D01*
X228280D01*
Y594300D01*
D02*
G37*
G36*
X246500Y549820D02*
X242270D01*
Y548132D01*
X239730D01*
Y549820D01*
X235500D01*
Y546090D01*
X237188D01*
Y543550D01*
X235500D01*
Y539820D01*
X239730D01*
Y541508D01*
X242270D01*
Y539820D01*
X246500D01*
Y543550D01*
X244812D01*
Y546090D01*
X246500D01*
Y549820D01*
D02*
G37*
G36*
X228280D02*
X224050D01*
Y548132D01*
X221510D01*
Y549820D01*
X217280D01*
Y546090D01*
X218968D01*
Y543550D01*
X217280D01*
Y539820D01*
X221510D01*
Y541508D01*
X224050D01*
Y539820D01*
X228280D01*
Y543550D01*
X226592D01*
Y546090D01*
X228280D01*
Y549820D01*
D02*
G37*
G36*
X250669Y453808D02*
X250324Y453739D01*
X249972D01*
X249648Y453605D01*
X249303Y453536D01*
X249011Y453341D01*
X248686Y453206D01*
X248438Y452958D01*
X248145Y452763D01*
X247950Y452471D01*
X247701Y452222D01*
X247567Y451897D01*
X247372Y451605D01*
X247303Y451260D01*
X247169Y450936D01*
Y450584D01*
X247100Y450239D01*
Y449878D01*
X246500Y448857D01*
X235500D01*
Y438857D01*
X246500D01*
Y440288D01*
X252840D01*
Y438857D01*
X263840D01*
Y448857D01*
X254237D01*
Y450239D01*
X254169Y450584D01*
Y450936D01*
X254034Y451260D01*
X253965Y451605D01*
X253770Y451897D01*
X253636Y452222D01*
X253387Y452471D01*
X253192Y452763D01*
X252900Y452958D01*
X252651Y453206D01*
X252326Y453341D01*
X252034Y453536D01*
X251689Y453605D01*
X251365Y453739D01*
X251013D01*
X250669Y453808D01*
D02*
G37*
G36*
X263840Y420378D02*
X252840D01*
Y418945D01*
X246500D01*
Y420376D01*
X235500D01*
Y410376D01*
X246500D01*
Y411808D01*
X252840D01*
Y410378D01*
X263840D01*
Y420378D01*
D02*
G37*
G36*
X228280Y448856D02*
X217280D01*
Y438856D01*
X219211D01*
Y420376D01*
X217280D01*
Y410376D01*
X228280D01*
Y420376D01*
X226348D01*
Y438856D01*
X228280D01*
Y448856D01*
D02*
G37*
G36*
X246500Y404376D02*
X242270D01*
Y402688D01*
X239730D01*
Y404376D01*
X235500D01*
Y400646D01*
X237188D01*
Y398106D01*
X235500D01*
Y394376D01*
X239730D01*
Y396064D01*
X242270D01*
Y394376D01*
X246500D01*
Y398106D01*
X244812D01*
Y400646D01*
X246500D01*
Y404376D01*
D02*
G37*
G36*
X228280D02*
X224050D01*
Y402688D01*
X221510D01*
Y404376D01*
X217280D01*
Y400646D01*
X218968D01*
Y398106D01*
X217280D01*
Y394376D01*
X221510D01*
Y396064D01*
X224050D01*
Y394376D01*
X228280D01*
Y398106D01*
X226592D01*
Y400646D01*
X228280D01*
Y404376D01*
D02*
G37*
%LPD*%
G36*
X758872Y147066D02*
X735246D01*
Y156581D01*
X742473D01*
Y156464D01*
X742822Y154708D01*
X743817Y153220D01*
X745305Y152225D01*
X747061Y151876D01*
X748817Y152225D01*
X750305Y153220D01*
X751300Y154708D01*
X751649Y156464D01*
Y161169D01*
X751300Y162925D01*
X750305Y164414D01*
X748817Y165408D01*
X747061Y165757D01*
X735246D01*
Y178220D01*
X758872D01*
Y147066D01*
D02*
G37*
%LPC*%
G36*
X823842Y840620D02*
X821845Y840620D01*
X822542Y838937D01*
X820195Y837965D01*
X819498Y839648D01*
X818085Y838235D01*
X817248Y836214D01*
X817248Y834216D01*
X818931Y834913D01*
X819903Y832567D01*
X818220Y831870D01*
X819633Y830457D01*
X821654Y829620D01*
X823652Y829620D01*
X822955Y831302D01*
X825301Y832274D01*
X825998Y830592D01*
X827411Y832004D01*
X828248Y834026D01*
X828248Y836023D01*
X826566Y835327D01*
X825594Y837673D01*
X827276Y838370D01*
X825864Y839782D01*
X823842Y840620D01*
D02*
G37*
G36*
X804158Y840620D02*
X802136Y839783D01*
X800724Y838370D01*
X802406Y837673D01*
X801434Y835327D01*
X799752Y836023D01*
X799752Y834026D01*
X800589Y832004D01*
X802002Y830592D01*
X802699Y832274D01*
X805045Y831302D01*
X804348Y829620D01*
X806346Y829620D01*
X808367Y830457D01*
X809780Y831870D01*
X808097Y832567D01*
X809069Y834913D01*
X810752Y834216D01*
X810752Y836214D01*
X809914Y838235D01*
X808502Y839648D01*
X807805Y837965D01*
X805459Y838937D01*
X806155Y840620D01*
X804158Y840620D01*
D02*
G37*
G36*
X793974Y828248D02*
X791977Y828248D01*
X792673Y826566D01*
X790327Y825594D01*
X789630Y827276D01*
X788217Y825864D01*
X787380Y823842D01*
X787380Y821845D01*
X789063Y822542D01*
X790035Y820195D01*
X788352Y819498D01*
X789765Y818085D01*
X791786Y817248D01*
X793784Y817248D01*
X793087Y818931D01*
X795433Y819903D01*
X796130Y818220D01*
X797543Y819633D01*
X798380Y821654D01*
X798380Y823652D01*
X796698Y822955D01*
X795726Y825301D01*
X797408Y825998D01*
X795996Y827411D01*
X793974Y828248D01*
D02*
G37*
G36*
X834026D02*
X832004Y827411D01*
X830592Y825998D01*
X832274Y825301D01*
X831302Y822955D01*
X829620Y823652D01*
X829620Y821654D01*
X830457Y819633D01*
X831870Y818220D01*
X832567Y819903D01*
X834913Y818931D01*
X834216Y817248D01*
X836214Y817248D01*
X838235Y818085D01*
X839648Y819498D01*
X837965Y820195D01*
X838937Y822542D01*
X840620Y821845D01*
X840620Y823842D01*
X839783Y825864D01*
X838370Y827276D01*
X837673Y825594D01*
X835327Y826566D01*
X836023Y828248D01*
X834026Y828248D01*
D02*
G37*
G36*
X836214Y810752D02*
X834216Y810752D01*
X834913Y809069D01*
X832567Y808097D01*
X831870Y809780D01*
X830457Y808367D01*
X829620Y806346D01*
X829620Y804348D01*
X831302Y805045D01*
X832274Y802699D01*
X830592Y802002D01*
X832004Y800589D01*
X834026Y799752D01*
X836023Y799752D01*
X835327Y801434D01*
X837673Y802406D01*
X838370Y800724D01*
X839782Y802136D01*
X840620Y804158D01*
X840620Y806155D01*
X838937Y805459D01*
X837965Y807805D01*
X839648Y808502D01*
X838235Y809914D01*
X836214Y810752D01*
D02*
G37*
G36*
X791786D02*
X789765Y809914D01*
X788352Y808502D01*
X790035Y807805D01*
X789063Y805459D01*
X787380Y806155D01*
X787380Y804158D01*
X788217Y802136D01*
X789630Y800724D01*
X790327Y802406D01*
X792673Y801434D01*
X791977Y799752D01*
X793974Y799752D01*
X795996Y800589D01*
X797408Y802002D01*
X795726Y802699D01*
X796698Y805045D01*
X798380Y804348D01*
X798380Y806346D01*
X797543Y808367D01*
X796130Y809780D01*
X795433Y808097D01*
X793087Y809069D01*
X793784Y810752D01*
X791786Y810752D01*
D02*
G37*
G36*
X806346Y798380D02*
X804348Y798380D01*
X805045Y796698D01*
X802699Y795726D01*
X802002Y797408D01*
X800589Y795996D01*
X799752Y793974D01*
X799752Y791977D01*
X801434Y792673D01*
X802406Y790327D01*
X800724Y789630D01*
X802136Y788217D01*
X804158Y787380D01*
X806155Y787380D01*
X805459Y789063D01*
X807805Y790035D01*
X808502Y788352D01*
X809914Y789765D01*
X810752Y791786D01*
X810752Y793784D01*
X809069Y793087D01*
X808097Y795433D01*
X809780Y796130D01*
X808367Y797543D01*
X806346Y798380D01*
D02*
G37*
G36*
X821654Y798380D02*
X819633Y797543D01*
X818220Y796130D01*
X819903Y795433D01*
X818931Y793087D01*
X817248Y793784D01*
X817248Y791786D01*
X818085Y789765D01*
X819498Y788352D01*
X820195Y790035D01*
X822542Y789063D01*
X821845Y787380D01*
X823842Y787380D01*
X825864Y788217D01*
X827276Y789630D01*
X825594Y790327D01*
X826566Y792673D01*
X828248Y791977D01*
X828248Y793974D01*
X827411Y795996D01*
X825998Y797408D01*
X825301Y795726D01*
X822955Y796698D01*
X823652Y798380D01*
X821654Y798380D01*
D02*
G37*
G36*
X45842Y840620D02*
X43845Y840620D01*
X44542Y838937D01*
X42195Y837965D01*
X41498Y839648D01*
X40086Y838235D01*
X39248Y836214D01*
X39248Y834216D01*
X40931Y834913D01*
X41903Y832567D01*
X40220Y831870D01*
X41633Y830457D01*
X43654Y829620D01*
X45652Y829620D01*
X44955Y831302D01*
X47301Y832274D01*
X47998Y830592D01*
X49411Y832004D01*
X50248Y834026D01*
X50248Y836023D01*
X48566Y835327D01*
X47594Y837673D01*
X49276Y838370D01*
X47864Y839782D01*
X45842Y840620D01*
D02*
G37*
G36*
X26158Y840620D02*
X24136Y839783D01*
X22724Y838370D01*
X24406Y837673D01*
X23434Y835327D01*
X21752Y836023D01*
X21752Y834026D01*
X22589Y832004D01*
X24002Y830592D01*
X24699Y832274D01*
X27045Y831302D01*
X26348Y829620D01*
X28346Y829620D01*
X30367Y830457D01*
X31780Y831870D01*
X30097Y832567D01*
X31069Y834913D01*
X32752Y834216D01*
X32752Y836214D01*
X31915Y838235D01*
X30502Y839648D01*
X29805Y837965D01*
X27459Y838937D01*
X28155Y840620D01*
X26158Y840620D01*
D02*
G37*
G36*
X15974Y828248D02*
X13977Y828248D01*
X14674Y826566D01*
X12327Y825594D01*
X11630Y827276D01*
X10217Y825864D01*
X9380Y823842D01*
X9380Y821845D01*
X11063Y822542D01*
X12035Y820195D01*
X10352Y819498D01*
X11765Y818085D01*
X13786Y817248D01*
X15784Y817248D01*
X15087Y818931D01*
X17433Y819903D01*
X18130Y818220D01*
X19543Y819633D01*
X20380Y821654D01*
X20380Y823652D01*
X18698Y822955D01*
X17726Y825301D01*
X19408Y825998D01*
X17996Y827411D01*
X15974Y828248D01*
D02*
G37*
G36*
X56026D02*
X54004Y827411D01*
X52592Y825998D01*
X54274Y825301D01*
X53302Y822955D01*
X51620Y823652D01*
X51620Y821654D01*
X52457Y819633D01*
X53870Y818220D01*
X54567Y819903D01*
X56913Y818931D01*
X56216Y817248D01*
X58214Y817248D01*
X60235Y818085D01*
X61648Y819498D01*
X59965Y820195D01*
X60937Y822542D01*
X62620Y821845D01*
X62620Y823842D01*
X61783Y825864D01*
X60370Y827276D01*
X59673Y825594D01*
X57326Y826566D01*
X58023Y828248D01*
X56026Y828248D01*
D02*
G37*
G36*
X58214Y810752D02*
X56216Y810752D01*
X56913Y809069D01*
X54567Y808097D01*
X53870Y809780D01*
X52457Y808367D01*
X51620Y806346D01*
X51620Y804348D01*
X53302Y805045D01*
X54274Y802699D01*
X52592Y802002D01*
X54004Y800589D01*
X56026Y799752D01*
X58023Y799752D01*
X57326Y801434D01*
X59673Y802406D01*
X60370Y800724D01*
X61783Y802136D01*
X62620Y804158D01*
X62620Y806155D01*
X60937Y805459D01*
X59965Y807805D01*
X61648Y808502D01*
X60235Y809914D01*
X58214Y810752D01*
D02*
G37*
G36*
X13786D02*
X11765Y809914D01*
X10352Y808502D01*
X12035Y807805D01*
X11063Y805459D01*
X9380Y806155D01*
X9380Y804158D01*
X10217Y802136D01*
X11630Y800724D01*
X12327Y802406D01*
X14674Y801434D01*
X13977Y799752D01*
X15974Y799752D01*
X17996Y800589D01*
X19408Y802002D01*
X17726Y802699D01*
X18698Y805045D01*
X20380Y804348D01*
X20380Y806346D01*
X19543Y808367D01*
X18130Y809780D01*
X17433Y808097D01*
X15087Y809069D01*
X15784Y810752D01*
X13786Y810752D01*
D02*
G37*
G36*
X28346Y798380D02*
X26348Y798380D01*
X27045Y796698D01*
X24699Y795726D01*
X24002Y797408D01*
X22589Y795996D01*
X21752Y793974D01*
X21752Y791977D01*
X23434Y792673D01*
X24406Y790327D01*
X22724Y789630D01*
X24136Y788217D01*
X26158Y787380D01*
X28155Y787380D01*
X27459Y789063D01*
X29805Y790035D01*
X30502Y788352D01*
X31915Y789765D01*
X32752Y791786D01*
X32752Y793784D01*
X31069Y793087D01*
X30097Y795433D01*
X31780Y796130D01*
X30367Y797543D01*
X28346Y798380D01*
D02*
G37*
G36*
X43654Y798380D02*
X41633Y797543D01*
X40220Y796130D01*
X41903Y795433D01*
X40931Y793087D01*
X39248Y793784D01*
X39248Y791786D01*
X40086Y789765D01*
X41498Y788352D01*
X42195Y790035D01*
X44542Y789063D01*
X43845Y787380D01*
X45842Y787380D01*
X47864Y788217D01*
X49276Y789630D01*
X47594Y790327D01*
X48566Y792673D01*
X50248Y791977D01*
X50248Y793974D01*
X49411Y795996D01*
X47998Y797408D01*
X47301Y795726D01*
X44955Y796698D01*
X45652Y798380D01*
X43654Y798380D01*
D02*
G37*
G36*
X823842Y62620D02*
X821845Y62620D01*
X822542Y60937D01*
X820195Y59965D01*
X819498Y61648D01*
X818085Y60235D01*
X817248Y58214D01*
X817248Y56216D01*
X818931Y56913D01*
X819903Y54567D01*
X818220Y53870D01*
X819633Y52457D01*
X821654Y51620D01*
X823652Y51620D01*
X822955Y53302D01*
X825301Y54274D01*
X825998Y52592D01*
X827411Y54004D01*
X828248Y56026D01*
X828248Y58023D01*
X826566Y57326D01*
X825594Y59673D01*
X827276Y60370D01*
X825864Y61783D01*
X823842Y62620D01*
D02*
G37*
G36*
X804158Y62620D02*
X802136Y61783D01*
X800724Y60370D01*
X802406Y59673D01*
X801434Y57326D01*
X799752Y58023D01*
X799752Y56026D01*
X800589Y54004D01*
X802002Y52592D01*
X802699Y54274D01*
X805045Y53302D01*
X804348Y51620D01*
X806346Y51620D01*
X808367Y52457D01*
X809780Y53870D01*
X808097Y54567D01*
X809069Y56913D01*
X810752Y56216D01*
X810752Y58214D01*
X809914Y60235D01*
X808502Y61648D01*
X807805Y59965D01*
X805459Y60937D01*
X806155Y62620D01*
X804158Y62620D01*
D02*
G37*
G36*
X793974Y50248D02*
X791977Y50248D01*
X792673Y48566D01*
X790327Y47594D01*
X789630Y49276D01*
X788217Y47864D01*
X787380Y45842D01*
X787380Y43845D01*
X789063Y44542D01*
X790035Y42195D01*
X788352Y41498D01*
X789765Y40086D01*
X791786Y39248D01*
X793784Y39248D01*
X793087Y40931D01*
X795433Y41903D01*
X796130Y40220D01*
X797543Y41633D01*
X798380Y43654D01*
X798380Y45652D01*
X796698Y44955D01*
X795726Y47301D01*
X797408Y47998D01*
X795996Y49411D01*
X793974Y50248D01*
D02*
G37*
G36*
X834026D02*
X832004Y49411D01*
X830592Y47998D01*
X832274Y47301D01*
X831302Y44955D01*
X829620Y45652D01*
X829620Y43654D01*
X830457Y41633D01*
X831870Y40220D01*
X832567Y41903D01*
X834913Y40931D01*
X834216Y39248D01*
X836214Y39248D01*
X838235Y40086D01*
X839648Y41498D01*
X837965Y42195D01*
X838937Y44542D01*
X840620Y43845D01*
X840620Y45842D01*
X839783Y47864D01*
X838370Y49276D01*
X837673Y47594D01*
X835327Y48566D01*
X836023Y50248D01*
X834026Y50248D01*
D02*
G37*
G36*
X836214Y32752D02*
X834216Y32752D01*
X834913Y31069D01*
X832567Y30097D01*
X831870Y31780D01*
X830457Y30367D01*
X829620Y28346D01*
X829620Y26348D01*
X831302Y27045D01*
X832274Y24699D01*
X830592Y24002D01*
X832004Y22589D01*
X834026Y21752D01*
X836023Y21752D01*
X835327Y23434D01*
X837673Y24406D01*
X838370Y22724D01*
X839782Y24136D01*
X840620Y26158D01*
X840620Y28155D01*
X838937Y27459D01*
X837965Y29805D01*
X839648Y30502D01*
X838235Y31915D01*
X836214Y32752D01*
D02*
G37*
G36*
X791786D02*
X789765Y31915D01*
X788352Y30502D01*
X790035Y29805D01*
X789063Y27459D01*
X787380Y28155D01*
X787380Y26158D01*
X788217Y24136D01*
X789630Y22724D01*
X790327Y24406D01*
X792673Y23434D01*
X791977Y21752D01*
X793974Y21752D01*
X795996Y22589D01*
X797408Y24002D01*
X795726Y24699D01*
X796698Y27045D01*
X798380Y26348D01*
X798380Y28346D01*
X797543Y30367D01*
X796130Y31780D01*
X795433Y30097D01*
X793087Y31069D01*
X793784Y32752D01*
X791786Y32752D01*
D02*
G37*
G36*
X806346Y20380D02*
X804348Y20380D01*
X805045Y18698D01*
X802699Y17726D01*
X802002Y19408D01*
X800589Y17996D01*
X799752Y15974D01*
X799752Y13977D01*
X801434Y14674D01*
X802406Y12327D01*
X800724Y11630D01*
X802136Y10217D01*
X804158Y9380D01*
X806155Y9380D01*
X805459Y11063D01*
X807805Y12035D01*
X808502Y10352D01*
X809914Y11765D01*
X810752Y13786D01*
X810752Y15784D01*
X809069Y15087D01*
X808097Y17433D01*
X809780Y18130D01*
X808367Y19543D01*
X806346Y20380D01*
D02*
G37*
G36*
X821654Y20380D02*
X819633Y19543D01*
X818220Y18130D01*
X819903Y17433D01*
X818931Y15087D01*
X817248Y15784D01*
X817248Y13786D01*
X818085Y11765D01*
X819498Y10352D01*
X820195Y12035D01*
X822542Y11063D01*
X821845Y9380D01*
X823842Y9380D01*
X825864Y10217D01*
X827276Y11630D01*
X825594Y12327D01*
X826566Y14674D01*
X828248Y13977D01*
X828248Y15974D01*
X827411Y17996D01*
X825998Y19408D01*
X825301Y17726D01*
X822955Y18698D01*
X823652Y20380D01*
X821654Y20380D01*
D02*
G37*
G36*
X45842Y62620D02*
X43845Y62620D01*
X44542Y60937D01*
X42195Y59965D01*
X41498Y61648D01*
X40086Y60235D01*
X39248Y58214D01*
X39248Y56216D01*
X40931Y56913D01*
X41903Y54567D01*
X40220Y53870D01*
X41633Y52457D01*
X43654Y51620D01*
X45652Y51620D01*
X44955Y53302D01*
X47301Y54274D01*
X47998Y52592D01*
X49411Y54004D01*
X50248Y56026D01*
X50248Y58023D01*
X48566Y57326D01*
X47594Y59673D01*
X49276Y60370D01*
X47864Y61783D01*
X45842Y62620D01*
D02*
G37*
G36*
X26158Y62620D02*
X24136Y61783D01*
X22724Y60370D01*
X24406Y59673D01*
X23434Y57326D01*
X21752Y58023D01*
X21752Y56026D01*
X22589Y54004D01*
X24002Y52592D01*
X24699Y54274D01*
X27045Y53302D01*
X26348Y51620D01*
X28346Y51620D01*
X30367Y52457D01*
X31780Y53870D01*
X30097Y54567D01*
X31069Y56913D01*
X32752Y56216D01*
X32752Y58214D01*
X31915Y60235D01*
X30502Y61648D01*
X29805Y59965D01*
X27459Y60937D01*
X28155Y62620D01*
X26158Y62620D01*
D02*
G37*
G36*
X15974Y50248D02*
X13977Y50248D01*
X14674Y48566D01*
X12327Y47594D01*
X11630Y49276D01*
X10217Y47864D01*
X9380Y45842D01*
X9380Y43845D01*
X11063Y44542D01*
X12035Y42195D01*
X10352Y41498D01*
X11765Y40086D01*
X13786Y39248D01*
X15784Y39248D01*
X15087Y40931D01*
X17433Y41903D01*
X18130Y40220D01*
X19543Y41633D01*
X20380Y43654D01*
X20380Y45652D01*
X18698Y44955D01*
X17726Y47301D01*
X19408Y47998D01*
X17996Y49411D01*
X15974Y50248D01*
D02*
G37*
G36*
X56026D02*
X54004Y49411D01*
X52592Y47998D01*
X54274Y47301D01*
X53302Y44955D01*
X51620Y45652D01*
X51620Y43654D01*
X52457Y41633D01*
X53870Y40220D01*
X54567Y41903D01*
X56913Y40931D01*
X56216Y39248D01*
X58214Y39248D01*
X60235Y40086D01*
X61648Y41498D01*
X59965Y42195D01*
X60937Y44542D01*
X62620Y43845D01*
X62620Y45842D01*
X61783Y47864D01*
X60370Y49276D01*
X59673Y47594D01*
X57326Y48566D01*
X58023Y50248D01*
X56026Y50248D01*
D02*
G37*
G36*
X58214Y32752D02*
X56216Y32752D01*
X56913Y31069D01*
X54567Y30097D01*
X53870Y31780D01*
X52457Y30367D01*
X51620Y28346D01*
X51620Y26348D01*
X53302Y27045D01*
X54274Y24699D01*
X52592Y24002D01*
X54004Y22589D01*
X56026Y21752D01*
X58023Y21752D01*
X57326Y23434D01*
X59673Y24406D01*
X60370Y22724D01*
X61783Y24136D01*
X62620Y26158D01*
X62620Y28155D01*
X60937Y27459D01*
X59965Y29805D01*
X61648Y30502D01*
X60235Y31915D01*
X58214Y32752D01*
D02*
G37*
G36*
X13786D02*
X11765Y31915D01*
X10352Y30502D01*
X12035Y29805D01*
X11063Y27459D01*
X9380Y28155D01*
X9380Y26158D01*
X10217Y24136D01*
X11630Y22724D01*
X12327Y24406D01*
X14674Y23434D01*
X13977Y21752D01*
X15974Y21752D01*
X17996Y22589D01*
X19408Y24002D01*
X17726Y24699D01*
X18698Y27045D01*
X20380Y26348D01*
X20380Y28346D01*
X19543Y30367D01*
X18130Y31780D01*
X17433Y30097D01*
X15087Y31069D01*
X15784Y32752D01*
X13786Y32752D01*
D02*
G37*
G36*
X28346Y20380D02*
X26348Y20380D01*
X27045Y18698D01*
X24699Y17726D01*
X24002Y19408D01*
X22589Y17996D01*
X21752Y15974D01*
X21752Y13977D01*
X23434Y14674D01*
X24406Y12327D01*
X22724Y11630D01*
X24136Y10217D01*
X26158Y9380D01*
X28155Y9380D01*
X27459Y11063D01*
X29805Y12035D01*
X30502Y10352D01*
X31915Y11765D01*
X32752Y13786D01*
X32752Y15784D01*
X31069Y15087D01*
X30097Y17433D01*
X31780Y18130D01*
X30367Y19543D01*
X28346Y20380D01*
D02*
G37*
G36*
X43654Y20380D02*
X41633Y19543D01*
X40220Y18130D01*
X41903Y17433D01*
X40931Y15087D01*
X39248Y15784D01*
X39248Y13786D01*
X40086Y11765D01*
X41498Y10352D01*
X42195Y12035D01*
X44542Y11063D01*
X43845Y9380D01*
X45842Y9380D01*
X47864Y10217D01*
X49276Y11630D01*
X47594Y12327D01*
X48566Y14674D01*
X50248Y13977D01*
X50248Y15974D01*
X49411Y17996D01*
X47998Y19408D01*
X47301Y17726D01*
X44955Y18698D01*
X45652Y20380D01*
X43654Y20380D01*
D02*
G37*
%LPD*%
G36*
G01X675178Y287614D02*
G02Y302386I1302J7386D01*
G01Y287614D01*
D02*
G37*
G36*
G01X677782Y302386D02*
G02Y287614I-1302J-7386D01*
G01Y302386D01*
D02*
G37*
D16*
X680881Y295000D02*
X695038D01*
X623060Y165330D02*
X630450Y172720D01*
X623060Y151384D02*
Y165330D01*
X630450Y172720D02*
X663560D01*
X529333Y161170D02*
X580670D01*
X441579Y93119D02*
Y129441D01*
X434072Y136949D02*
Y152422D01*
Y136949D02*
X441579Y129441D01*
X428216Y93119D02*
X441579D01*
X402004Y122902D02*
Y131902D01*
Y122902D02*
X405352Y119554D01*
X395972Y137933D02*
X402004Y131902D01*
X395972Y137933D02*
Y152422D01*
X387495Y119554D02*
X405352D01*
X580670Y180757D02*
Y186410D01*
Y173790D02*
Y180757D01*
Y161170D02*
Y173790D01*
X427604Y233799D02*
Y256278D01*
X421372Y227567D02*
X427604Y233799D01*
X421372Y208922D02*
Y227567D01*
X395972Y247127D02*
X404740Y255895D01*
X395972Y208922D02*
Y247127D01*
X404740Y255895D02*
Y256278D01*
X709740Y161169D02*
X747061D01*
X700734D02*
X709740D01*
X747061Y156464D02*
Y161169D01*
X697219Y157654D02*
X700734Y161169D01*
X679560Y138684D02*
X693704D01*
X697219Y142199D02*
Y157654D01*
X693704Y138684D02*
X697219Y142199D01*
X637980Y233680D02*
Y289560D01*
X643420Y295000D01*
X672079D01*
X692484Y483585D02*
Y502644D01*
Y521644D01*
X713445D01*
X733553Y541752D01*
X750955D01*
X706480Y220180D02*
X718703Y207957D01*
X692980Y233680D02*
X693730D01*
X706480Y220930D01*
Y220180D02*
Y220930D01*
X718703Y207957D02*
X747061D01*
X679560Y172720D02*
Y188444D01*
Y151384D02*
Y172720D01*
X692980Y201864D02*
Y233680D01*
X679560Y188444D02*
X692980Y201864D01*
X555752Y211328D02*
X586740D01*
X555752D02*
X580670Y186410D01*
X530860Y211328D02*
X555752D01*
X615628D02*
X624480Y220180D01*
Y220930D02*
X637230Y233680D01*
X637980D01*
X624480Y220180D02*
Y220930D01*
X586740Y211328D02*
X615628D01*
D19*
X319426Y63010D02*
X343310D01*
X352680Y72380D02*
Y93119D01*
X343310Y63010D02*
X352680Y72380D01*
X416167Y332979D02*
X418600Y335411D01*
Y373380D01*
X422649Y377429D01*
X464420D02*
X465150Y378159D01*
X422649Y377429D02*
X464420D01*
X465150Y378159D02*
Y383194D01*
X392033Y377394D02*
X414237D01*
X420447Y383604D02*
X426044D01*
X414237Y377394D02*
X420447Y383604D01*
X426044D02*
X427680Y385240D01*
X128820Y267627D02*
X150617Y289424D01*
X368266D02*
X381000Y302158D01*
X150617Y289424D02*
X368266D01*
X373893Y284480D02*
X388223Y298810D01*
X183725Y284480D02*
X373893D01*
X388223Y298810D02*
Y324015D01*
X381000Y302158D02*
Y366360D01*
X392033Y377394D01*
X388223Y324015D02*
X397187Y332979D01*
X416167D01*
X341153Y69510D02*
X345542Y73899D01*
Y103352D02*
X352680Y110490D01*
X345542Y73899D02*
Y103352D01*
X354749Y215127D02*
X354749D01*
X171574Y272329D02*
X183725Y284480D01*
X352680Y59360D02*
X353042Y59722D01*
X319426Y69510D02*
X341153D01*
X352680Y110490D02*
Y126879D01*
X341153Y56510D02*
X349686D01*
X319426D02*
X341153D01*
X679984Y638320D02*
X692484D01*
X319426Y76010D02*
X334073D01*
X319426Y95510D02*
X334073D01*
X349686Y56510D02*
X352536Y59360D01*
X368680Y261917D02*
X368680Y261917D01*
D20*
X688874Y698268D02*
D03*
X670715Y698267D02*
D03*
X233441Y150985D02*
D03*
X215282Y150984D02*
D03*
D21*
X476120Y211447D02*
D03*
Y256151D02*
D03*
X747061Y156464D02*
D03*
Y111760D02*
D03*
X586740Y211328D02*
D03*
Y256032D02*
D03*
X530860D02*
D03*
Y211328D02*
D03*
D22*
X779955Y516252D02*
D03*
Y667252D02*
D03*
D23*
X750955Y641752D02*
D03*
Y629252D02*
D03*
Y616752D02*
D03*
Y604252D02*
D03*
Y591752D02*
D03*
Y579252D02*
D03*
Y566752D02*
D03*
Y554252D02*
D03*
Y541752D02*
D03*
D24*
X281010Y686806D02*
D03*
X287510D02*
D03*
X294010D02*
D03*
X300510D02*
D03*
X307010D02*
D03*
X313510D02*
D03*
X320010D02*
D03*
X326510D02*
D03*
X333010D02*
D03*
X339510D02*
D03*
X346010D02*
D03*
X352510D02*
D03*
Y743194D02*
D03*
X346010D02*
D03*
X339510D02*
D03*
X333010D02*
D03*
X326510D02*
D03*
X320010D02*
D03*
X313510D02*
D03*
X307010D02*
D03*
X300510D02*
D03*
X294010D02*
D03*
X287510D02*
D03*
X281010D02*
D03*
X465150Y673811D02*
D03*
X471650D02*
D03*
X478150D02*
D03*
X484650D02*
D03*
X491150D02*
D03*
X497650D02*
D03*
X504150D02*
D03*
X510650D02*
D03*
X517150D02*
D03*
X523650D02*
D03*
X530150D02*
D03*
X536650D02*
D03*
Y617423D02*
D03*
X530150D02*
D03*
X523650D02*
D03*
X517150D02*
D03*
X510650D02*
D03*
X504150D02*
D03*
X497650D02*
D03*
X491150D02*
D03*
X484650D02*
D03*
X478150D02*
D03*
X471650D02*
D03*
X465150D02*
D03*
Y326806D02*
D03*
X471650D02*
D03*
X478150D02*
D03*
X484650D02*
D03*
X491150D02*
D03*
X497650D02*
D03*
X504150D02*
D03*
X510650D02*
D03*
X517150D02*
D03*
X523650D02*
D03*
X530150D02*
D03*
X536650D02*
D03*
Y383194D02*
D03*
X530150D02*
D03*
X523650D02*
D03*
X517150D02*
D03*
X510650D02*
D03*
X504150D02*
D03*
X497650D02*
D03*
X491150D02*
D03*
X484650D02*
D03*
X478150D02*
D03*
X471650D02*
D03*
X465150D02*
D03*
X278470Y401423D02*
D03*
X284970D02*
D03*
X291470D02*
D03*
X297970D02*
D03*
X304470D02*
D03*
X310970D02*
D03*
X317470D02*
D03*
X323970D02*
D03*
X330470D02*
D03*
X336970D02*
D03*
X343470D02*
D03*
X349970D02*
D03*
Y457811D02*
D03*
X343470D02*
D03*
X336970D02*
D03*
X330470D02*
D03*
X323970D02*
D03*
X317470D02*
D03*
X310970D02*
D03*
X304470D02*
D03*
X297970D02*
D03*
X291470D02*
D03*
X284970D02*
D03*
X278470D02*
D03*
Y546867D02*
D03*
X284970D02*
D03*
X291470D02*
D03*
X297970D02*
D03*
X304470D02*
D03*
X310970D02*
D03*
X317470D02*
D03*
X323970D02*
D03*
X330470D02*
D03*
X336970D02*
D03*
X343470D02*
D03*
X349970D02*
D03*
Y603255D02*
D03*
X343470D02*
D03*
X336970D02*
D03*
X330470D02*
D03*
X323970D02*
D03*
X317470D02*
D03*
X310970D02*
D03*
X304470D02*
D03*
X297970D02*
D03*
X291470D02*
D03*
X284970D02*
D03*
X278470D02*
D03*
X465150Y473423D02*
D03*
X471650D02*
D03*
X478150D02*
D03*
X484650D02*
D03*
X491150D02*
D03*
X497650D02*
D03*
X504150D02*
D03*
X510650D02*
D03*
X517150D02*
D03*
X523650D02*
D03*
X530150D02*
D03*
X536650D02*
D03*
Y529811D02*
D03*
X530150D02*
D03*
X523650D02*
D03*
X517150D02*
D03*
X510650D02*
D03*
X504150D02*
D03*
X497650D02*
D03*
X491150D02*
D03*
X484650D02*
D03*
X478150D02*
D03*
X471650D02*
D03*
X465150D02*
D03*
D25*
X445020Y675857D02*
D03*
Y659857D02*
D03*
X225320Y700759D02*
D03*
Y684759D02*
D03*
Y745239D02*
D03*
Y729239D02*
D03*
X260880Y729241D02*
D03*
Y745241D02*
D03*
X243540Y729241D02*
D03*
Y745241D02*
D03*
Y700759D02*
D03*
Y684759D02*
D03*
X260880Y684761D02*
D03*
Y700761D02*
D03*
X409460Y631376D02*
D03*
Y615376D02*
D03*
Y675856D02*
D03*
Y659856D02*
D03*
X427680Y659857D02*
D03*
Y675857D02*
D03*
Y631376D02*
D03*
Y615376D02*
D03*
X445020Y615378D02*
D03*
Y631378D02*
D03*
X427680Y369240D02*
D03*
Y385240D02*
D03*
X241000Y459857D02*
D03*
Y443857D02*
D03*
X427680Y531857D02*
D03*
Y515857D02*
D03*
X241000Y605301D02*
D03*
Y589301D02*
D03*
X445020Y385240D02*
D03*
Y369240D02*
D03*
Y340761D02*
D03*
Y324761D02*
D03*
X427680Y324759D02*
D03*
Y340759D02*
D03*
X258340Y459857D02*
D03*
Y443857D02*
D03*
X241000Y399376D02*
D03*
Y415376D02*
D03*
X258340Y415378D02*
D03*
Y399378D02*
D03*
X445020Y515857D02*
D03*
Y531857D02*
D03*
X427680Y471376D02*
D03*
Y487376D02*
D03*
X445020Y487378D02*
D03*
Y471378D02*
D03*
X241000Y544820D02*
D03*
Y560820D02*
D03*
X258340Y605301D02*
D03*
Y589301D02*
D03*
X222780Y589300D02*
D03*
Y605300D02*
D03*
X258340Y560822D02*
D03*
Y544822D02*
D03*
X409460Y369239D02*
D03*
Y385239D02*
D03*
Y324759D02*
D03*
Y340759D02*
D03*
X222780Y443856D02*
D03*
Y459856D02*
D03*
X409460Y515856D02*
D03*
Y531856D02*
D03*
X222780Y399376D02*
D03*
Y415376D02*
D03*
X409460Y471376D02*
D03*
Y487376D02*
D03*
X222780Y544820D02*
D03*
Y560820D02*
D03*
X709740Y71671D02*
D03*
Y55671D02*
D03*
X580670Y71671D02*
D03*
Y55671D02*
D03*
X687080D02*
D03*
Y71671D02*
D03*
X601970D02*
D03*
Y55671D02*
D03*
X709740Y123053D02*
D03*
Y107053D02*
D03*
X580670Y123054D02*
D03*
Y107054D02*
D03*
X709740Y161169D02*
D03*
Y145169D02*
D03*
X580670Y161170D02*
D03*
Y145170D02*
D03*
X597970Y123054D02*
D03*
Y107054D02*
D03*
Y161170D02*
D03*
Y145170D02*
D03*
X562469Y107054D02*
D03*
Y123054D02*
D03*
X464820Y107054D02*
D03*
Y123054D02*
D03*
Y145169D02*
D03*
Y161169D02*
D03*
X562469Y145169D02*
D03*
Y161169D02*
D03*
D26*
X232550Y263917D02*
D03*
X216550D02*
D03*
X232551Y128579D02*
D03*
X216551D02*
D03*
X216550Y174291D02*
D03*
X232550D02*
D03*
X216550Y196698D02*
D03*
X232550D02*
D03*
X216550Y219104D02*
D03*
X232550D02*
D03*
X232552Y241510D02*
D03*
X216552D02*
D03*
X216550Y107073D02*
D03*
X232550D02*
D03*
X232551Y83766D02*
D03*
X216551D02*
D03*
X216550Y62260D02*
D03*
X232550D02*
D03*
X309710Y135881D02*
D03*
X325710D02*
D03*
X663560Y172720D02*
D03*
X679560D02*
D03*
X270441Y135881D02*
D03*
X254441D02*
D03*
X254442Y261917D02*
D03*
X270442D02*
D03*
X325711D02*
D03*
X309711D02*
D03*
X270442Y161088D02*
D03*
X254442D02*
D03*
X309711D02*
D03*
X325711D02*
D03*
X368679Y229057D02*
D03*
X352679D02*
D03*
X352681Y161539D02*
D03*
X368681D02*
D03*
X352680Y194398D02*
D03*
X368680D02*
D03*
X368680Y261917D02*
D03*
X352680D02*
D03*
X368680Y126879D02*
D03*
X352680D02*
D03*
X368680Y59360D02*
D03*
X352680D02*
D03*
X368680Y93119D02*
D03*
X352680D02*
D03*
D27*
X428216D02*
D03*
X405352D02*
D03*
X428216Y119554D02*
D03*
X405352D02*
D03*
X427604Y256278D02*
D03*
X404740D02*
D03*
D28*
X434072Y208922D02*
D03*
X421372D02*
D03*
X408672D02*
D03*
X395972D02*
D03*
X434072Y152422D02*
D03*
X421372D02*
D03*
X408672D02*
D03*
X395972D02*
D03*
D29*
X632410Y54171D02*
D03*
Y73171D02*
D03*
X657910D02*
D03*
Y63671D02*
D03*
Y54171D02*
D03*
D30*
X692484Y521644D02*
D03*
X667484Y512144D02*
D03*
X692484Y502644D02*
D03*
Y560536D02*
D03*
X667484Y551036D02*
D03*
X692484Y541536D02*
D03*
Y599428D02*
D03*
X667484Y589928D02*
D03*
X692484Y580428D02*
D03*
Y638320D02*
D03*
X667484Y628820D02*
D03*
X692484Y619320D02*
D03*
Y658211D02*
D03*
X667484Y667711D02*
D03*
X692484Y677211D02*
D03*
D31*
X747061Y207957D02*
D03*
Y247957D02*
D03*
D32*
X692980Y233680D02*
D03*
X637980D02*
D03*
D33*
X623060Y151384D02*
D03*
Y138684D02*
D03*
Y125984D02*
D03*
Y113284D02*
D03*
X679560Y151384D02*
D03*
Y138684D02*
D03*
Y125984D02*
D03*
Y113284D02*
D03*
D34*
X651310Y132334D02*
D03*
D35*
X515620Y101977D02*
D03*
D36*
X490220Y162183D02*
D03*
X502920D02*
D03*
X515620D02*
D03*
X528320D02*
D03*
X541020D02*
D03*
D37*
X262426Y102010D02*
D03*
Y95510D02*
D03*
Y89010D02*
D03*
Y82510D02*
D03*
Y76010D02*
D03*
Y69510D02*
D03*
Y63010D02*
D03*
Y56510D02*
D03*
X319426Y102010D02*
D03*
Y95510D02*
D03*
Y89010D02*
D03*
Y82510D02*
D03*
Y76010D02*
D03*
Y69510D02*
D03*
Y63010D02*
D03*
Y56510D02*
D03*
D38*
X316453Y234177D02*
D03*
Y227827D02*
D03*
Y221477D02*
D03*
Y215127D02*
D03*
Y208777D02*
D03*
Y202427D02*
D03*
Y196077D02*
D03*
Y189727D02*
D03*
X265399D02*
D03*
Y196077D02*
D03*
Y202427D02*
D03*
Y208777D02*
D03*
Y215127D02*
D03*
Y221477D02*
D03*
Y227827D02*
D03*
Y234177D02*
D03*
D39*
X843150Y500497D02*
X842227Y502724D01*
X840000Y503647D01*
X838000Y6850D02*
X840575Y7540D01*
X842460Y9425D01*
X843150Y12000D01*
X840000Y679908D02*
X842227Y680830D01*
X843150Y683057D01*
X12000Y843150D02*
X9425Y842460D01*
X7540Y840575D01*
X6850Y838000D01*
X843150Y838000D02*
X842460Y840575D01*
X840575Y842460D01*
X838000Y843150D01*
X6850Y12000D02*
X7540Y9425D01*
X9425Y7540D01*
X12000Y6850D01*
X828860Y679908D02*
X826223Y679610D01*
X823719Y678734D01*
X821472Y677322D01*
X819595Y675446D01*
X818184Y673199D01*
X817307Y670694D01*
X817010Y668057D01*
Y515497D02*
X817307Y512860D01*
X818184Y510356D01*
X819595Y508109D01*
X821472Y506232D01*
X823719Y504821D01*
X826223Y503944D01*
X828860Y503647D01*
X828017Y843150D02*
X837941D01*
X818017D02*
X828017D01*
X808017D02*
X818017D01*
X798017D02*
X808017D01*
X788017D02*
X798017D01*
X778017D02*
X788017D01*
X768017D02*
X778017D01*
X758017D02*
X768017D01*
X748017D02*
X758017D01*
X738017D02*
X748017D01*
X728017D02*
X738017D01*
X718017D02*
X728017D01*
X708017D02*
X718017D01*
X698017D02*
X708017D01*
X688017D02*
X698017D01*
X678017D02*
X688017D01*
X668017D02*
X678017D01*
X658017D02*
X668017D01*
X648017D02*
X658017D01*
X638017D02*
X648017D01*
X628017D02*
X638017D01*
X618017D02*
X628017D01*
X608017D02*
X618017D01*
X598017D02*
X608017D01*
X588017D02*
X598017D01*
X578017D02*
X588017D01*
X568017D02*
X578017D01*
X558017D02*
X568017D01*
X548017D02*
X558017D01*
X538017D02*
X548017D01*
X528017D02*
X538017D01*
X6850Y822093D02*
Y837941D01*
X518017Y843150D02*
X528017D01*
X6850Y812093D02*
Y822093D01*
X508017Y843150D02*
X518017D01*
X6850Y802093D02*
Y812093D01*
X498017Y843150D02*
X508017D01*
X6850Y792093D02*
Y802093D01*
X843150Y491390D02*
Y500497D01*
X428018Y843150D02*
X438018D01*
X488018D02*
X498017D01*
X6850Y782093D02*
Y792093D01*
X843150Y481390D02*
Y491390D01*
X418018Y843150D02*
X428018D01*
X456552D02*
X465300D01*
X474048D02*
X488018D01*
X6850Y772093D02*
Y782093D01*
X843150Y471390D02*
Y481390D01*
X408018Y843150D02*
X418018D01*
X448018D02*
X456552D01*
X465300D02*
X474048D01*
X6850Y762093D02*
Y772093D01*
X843150Y461390D02*
Y471390D01*
X398018Y843150D02*
X408018D01*
X438018D02*
X448018D01*
X6850Y752093D02*
Y762093D01*
X843150Y451390D02*
Y461390D01*
X388018Y843150D02*
X398018D01*
X6850Y742093D02*
Y752093D01*
X843150Y441390D02*
Y451390D01*
X378018Y843150D02*
X388018D01*
X6850Y732093D02*
Y742093D01*
X843150Y431390D02*
Y441390D01*
X814744Y6850D02*
X824744D01*
X838000D01*
X368018Y843150D02*
X378018D01*
X6850Y722093D02*
Y732093D01*
X843150Y421390D02*
Y431390D01*
X804744Y6850D02*
X814744D01*
X358018Y843150D02*
X368018D01*
X6850Y712093D02*
Y722093D01*
X843150Y411390D02*
Y421390D01*
X794744Y6850D02*
X804744D01*
X348018Y843150D02*
X358018D01*
X6850Y702093D02*
Y712093D01*
X843150Y401390D02*
Y411390D01*
X784744Y6850D02*
X794744D01*
X338018Y843150D02*
X348018D01*
X6850Y692093D02*
Y702093D01*
X843150Y391390D02*
Y401390D01*
X774744Y6850D02*
X784744D01*
X328018Y843150D02*
X338018D01*
X6850Y682093D02*
Y692093D01*
X843150Y381390D02*
Y391390D01*
X764744Y6850D02*
X774744D01*
X318018Y843150D02*
X328018D01*
X6850Y672093D02*
Y682093D01*
X843150Y371390D02*
Y381390D01*
X754744Y6850D02*
X764744D01*
X308018Y843150D02*
X318018D01*
X6850Y642093D02*
Y652093D01*
Y662093D02*
Y672093D01*
X843150Y361390D02*
Y371390D01*
X744744Y6850D02*
X754744D01*
X298018Y843150D02*
X308018D01*
X6850Y622094D02*
Y632094D01*
Y642093D01*
Y652093D02*
Y662093D01*
X843150Y351390D02*
Y361390D01*
X734744Y6850D02*
X744744D01*
X288018Y843150D02*
X298018D01*
X6850Y572094D02*
Y582094D01*
Y592094D02*
Y602094D01*
Y612094D02*
Y622094D01*
X843150Y341390D02*
Y351390D01*
X724744Y6850D02*
X734744D01*
X278018Y843150D02*
X288018D01*
X6850Y452094D02*
Y462094D01*
Y522094D02*
Y532094D01*
Y552094D02*
Y562094D01*
Y572094D01*
Y582094D02*
Y592094D01*
Y602094D02*
Y612094D01*
X843150Y331390D02*
Y341390D01*
X714744Y6850D02*
X724744D01*
X268018Y843150D02*
X278018D01*
X6850Y442094D02*
Y452094D01*
Y482094D02*
Y492094D01*
Y502094D01*
Y512094D02*
Y522094D01*
Y532094D02*
Y542094D01*
Y552094D01*
X843150Y321390D02*
Y331390D01*
X704744Y6850D02*
X714744D01*
X258018Y843150D02*
X268018D01*
X6850Y392094D02*
Y402094D01*
Y422094D02*
Y432094D01*
Y442094D01*
Y472094D02*
Y482094D01*
Y502094D02*
Y512094D01*
X843150Y311391D02*
Y321390D01*
X694744Y6850D02*
X704744D01*
X248018Y843150D02*
X258018D01*
X6850Y372094D02*
Y382094D01*
Y392094D01*
Y402094D02*
Y412094D01*
Y422094D01*
Y462094D02*
Y472094D01*
X843150Y301391D02*
Y311391D01*
X684744Y6850D02*
X694744D01*
X238018Y843150D02*
X248018D01*
X6850Y362094D02*
Y372094D01*
X843150Y261391D02*
Y271391D01*
Y291391D02*
Y301391D01*
X674744Y6850D02*
X684744D01*
X228018Y843150D02*
X238018D01*
X6850Y242094D02*
Y252094D01*
Y262094D01*
Y272094D01*
Y282094D01*
Y292094D01*
Y302094D01*
Y312094D02*
Y322094D01*
Y332094D01*
Y352094D02*
Y362094D01*
X843150Y221391D02*
Y231391D01*
Y241391D01*
Y251391D01*
Y261391D01*
Y281391D02*
Y291391D01*
X664744Y6850D02*
X674744D01*
X218018Y843150D02*
X228018D01*
X6850Y212094D02*
Y222094D01*
Y232094D02*
Y242094D01*
Y302094D02*
Y312094D01*
Y342094D02*
Y352094D01*
X843150Y201391D02*
Y211391D01*
Y221391D01*
Y271391D02*
Y281391D01*
X654744Y6850D02*
X664744D01*
X208018Y843150D02*
X218018D01*
X6850Y202094D02*
Y212094D01*
Y222094D02*
Y232094D01*
Y332094D02*
Y342094D01*
X843150Y191391D02*
Y201391D01*
X644744Y6850D02*
X654744D01*
X198018Y843150D02*
X208018D01*
X6850Y192094D02*
Y202094D01*
X843150Y181391D02*
Y191391D01*
X634744Y6850D02*
X644744D01*
X188018Y843150D02*
X198018D01*
X6850Y182094D02*
Y192094D01*
X843150Y171391D02*
Y181391D01*
X564744Y6850D02*
X574744D01*
X584744D01*
X624744D02*
X634744D01*
X178018Y843150D02*
X188018D01*
X6850Y172094D02*
Y182094D01*
X843150Y161391D02*
Y171391D01*
X534744Y6850D02*
X544744D01*
X554744D01*
X564744D01*
X584744D02*
X594744D01*
X604744D02*
X614744D01*
X624744D01*
X168018Y843150D02*
X178018D01*
X6850Y162094D02*
Y172094D01*
X843150Y151391D02*
Y161391D01*
X474744Y6850D02*
X484744D01*
X514744D02*
X524744D01*
X534744D01*
X594744D02*
X604744D01*
X158018Y843150D02*
X168018D01*
X6850Y152094D02*
Y162094D01*
X843150Y141391D02*
Y151391D01*
X334745Y6850D02*
X344745D01*
X464744D02*
X474744D01*
X494744D02*
X504744D01*
X514744D01*
X148018Y843150D02*
X158018D01*
X6850Y142094D02*
Y152094D01*
X843150Y826646D02*
Y838000D01*
X843150Y131391D02*
Y141391D01*
X324745Y6850D02*
X334745D01*
X425000D02*
X444744D01*
X454744D02*
X464744D01*
X484744D02*
X494744D01*
X138018Y843150D02*
X148018D01*
X6850Y132094D02*
Y142094D01*
X843150Y816646D02*
Y826646D01*
X843150Y121391D02*
Y131391D01*
X304745Y6850D02*
X314745D01*
X324745D01*
X404745D02*
X425000D01*
X444744D02*
X454744D01*
X128018Y843150D02*
X138018D01*
X6850Y122094D02*
Y132094D01*
X843150Y806646D02*
Y816646D01*
X843150Y111391D02*
Y121391D01*
X294745Y6850D02*
X304745D01*
X384745D02*
X394745D01*
X404745D01*
X118018Y843150D02*
X128018D01*
X6850Y112094D02*
Y122094D01*
X843150Y796646D02*
Y806646D01*
X843150Y101391D02*
Y111391D01*
X284745Y6850D02*
X294745D01*
X374745D02*
X384745D01*
X108018Y843150D02*
X118018D01*
X6850Y102094D02*
Y112094D01*
X843150Y786646D02*
Y796646D01*
X843150Y91391D02*
Y101391D01*
X94745Y6850D02*
X104745D01*
X224745D02*
X234745D01*
X274745D02*
X284745D01*
X364745D02*
X374745D01*
X98018Y843150D02*
X108018D01*
X6850Y92094D02*
Y102094D01*
X843150Y776646D02*
Y786646D01*
X843150Y81391D02*
Y91391D01*
X84745Y6850D02*
X94745D01*
X214745D02*
X224745D01*
X244745D02*
X254745D01*
X264745D02*
X274745D01*
X344745D02*
X354745D01*
X364745D01*
X88018Y843150D02*
X98018D01*
X6850Y82095D02*
Y92094D01*
X843150Y766646D02*
Y776646D01*
X843150Y71391D02*
Y81391D01*
X74745Y6850D02*
X84745D01*
X184745D02*
X194745D01*
X204745D02*
X214745D01*
X234745D02*
X244745D01*
X254745D02*
X264745D01*
X78018Y843150D02*
X88018D01*
X6850Y72095D02*
Y82095D01*
X843150Y756646D02*
Y766646D01*
X843150Y61391D02*
Y71391D01*
X817010Y653163D02*
Y668057D01*
X64745Y6850D02*
X74745D01*
X154745D02*
X164745D01*
X174745D02*
X184745D01*
X194745D02*
X204745D01*
X68018Y843150D02*
X78018D01*
X6850Y62095D02*
Y72095D01*
X843150Y746646D02*
Y756646D01*
X843150Y51391D02*
Y61391D01*
X817010Y633163D02*
Y643163D01*
Y653163D01*
X54745Y6850D02*
X64745D01*
X144745D02*
X154745D01*
X164745D02*
X174745D01*
X58018Y843150D02*
X68018D01*
X6850Y52095D02*
Y62095D01*
X843150Y736646D02*
Y746646D01*
X843150Y41391D02*
Y51391D01*
X817010Y593163D02*
Y603163D01*
Y623163D02*
Y633163D01*
X44745Y6850D02*
X54745D01*
X104745D02*
X114745D01*
X124745D02*
X134745D01*
X144745D01*
X48018Y843150D02*
X58018D01*
X6850Y42095D02*
Y52095D01*
X843150Y716646D02*
Y726646D01*
Y736646D01*
X843150Y31391D02*
Y41391D01*
X817010Y533163D02*
Y543163D01*
Y553163D01*
Y583163D02*
Y593163D01*
Y603163D02*
Y613163D01*
Y623163D01*
X34745Y6850D02*
X44745D01*
X114745D02*
X124745D01*
X38018Y843150D02*
X48018D01*
X6850Y32095D02*
Y42095D01*
X843150Y696646D02*
Y706646D01*
Y716646D01*
X843150Y21391D02*
Y31391D01*
X817010Y523163D02*
Y533163D01*
Y553163D02*
Y563163D01*
Y573163D01*
Y583163D01*
X24745Y6850D02*
X34745D01*
X28018Y843150D02*
X38018D01*
X6850Y22095D02*
Y32095D01*
X843150Y683099D02*
Y696646D01*
X12059Y6850D02*
X24745D01*
X828860Y679908D02*
X840000D01*
X6850Y12000D02*
Y22095D01*
X843150Y12042D02*
Y21391D01*
X817010Y515497D02*
Y523163D01*
X828860Y503647D02*
X840000D01*
X12000Y843150D02*
X28018D01*
D67*
X251538Y202427D02*
X250025Y200913D01*
X265399Y208777D02*
X280340D01*
X284883Y165346D02*
Y204234D01*
X280340Y208777D02*
X284883Y204234D01*
X236277Y208777D02*
X265399D01*
X270442Y161117D02*
X280655D01*
X284883Y165346D01*
X220096Y185618D02*
X246131D01*
X250025Y189512D02*
Y196077D01*
X246131Y185618D02*
X250025Y189512D01*
X216550Y174291D02*
Y182072D01*
Y163590D02*
Y174291D01*
Y182072D02*
X220096Y185618D01*
X232550Y196698D02*
Y205050D01*
X236277Y208777D01*
X234150Y219989D02*
X235637Y221477D01*
X244585D01*
X234150Y217005D02*
Y219989D01*
Y217005D02*
X236027Y215127D01*
X265399D01*
X237830Y161324D02*
X254206D01*
X232550Y166604D02*
X237830Y161324D01*
X232550Y166604D02*
Y174025D01*
X231682Y129448D02*
X232551Y128579D01*
X231682Y129448D02*
Y135634D01*
X219082Y148234D02*
X231682Y135634D01*
X216532Y148234D02*
X219082D01*
X218301Y126329D02*
X220634D01*
X232550Y114413D01*
X216551Y128079D02*
Y128579D01*
X232550Y106573D02*
Y114413D01*
X216551Y128079D02*
X218301Y126329D01*
X232550Y106573D02*
Y107073D01*
Y106573D02*
X234300Y104823D01*
X237555D02*
X253368Y89010D01*
X262426D01*
X234300Y104823D02*
X237555D01*
X230801Y86016D02*
X231400Y85418D01*
X244334Y83766D02*
X245590Y82510D01*
X232551Y83766D02*
X244334D01*
X231400Y85418D02*
X232551Y84266D01*
X216550Y99767D02*
Y107073D01*
X230301Y86016D02*
X230801D01*
X232551Y83766D02*
Y84266D01*
X216550Y99767D02*
X230301Y86016D01*
X215282Y149484D02*
Y150984D01*
Y149484D02*
X216532Y148234D01*
X300510Y707339D02*
X305613Y712442D01*
X300510Y686806D02*
Y707339D01*
X305613Y712442D02*
Y712488D01*
X300510Y670745D02*
Y686806D01*
X127285Y163088D02*
X216548D01*
X90000Y200373D02*
X127285Y163088D01*
X316453Y215127D02*
X338507D01*
X302260D02*
X316453D01*
X262426Y69510D02*
X272926D01*
X244830D02*
X262426D01*
X243593Y70747D02*
X244830Y69510D01*
X262426Y76010D02*
X272926D01*
X244020D02*
X262426D01*
X243841Y76189D02*
X244020Y76010D01*
X306441Y89024D02*
X306455Y89010D01*
X306319D02*
X306333Y89024D01*
X306455Y89010D02*
X319426D01*
X306333Y89024D02*
X306441D01*
X182706Y50800D02*
X232548D01*
X167640Y65866D02*
X182706Y50800D01*
X233115Y62826D02*
X267620D01*
X265170Y149860D02*
X298982D01*
X309711Y160588D01*
X254442D02*
X265170Y149860D01*
X251538Y202427D02*
X265399D01*
X250025Y196077D02*
Y200913D01*
X216548Y161048D02*
Y163088D01*
Y153481D02*
Y161048D01*
X268750Y122063D02*
X318610D01*
X325710D02*
Y129163D01*
X318610Y122063D02*
X325710Y129163D01*
Y135881D01*
Y145320D01*
X319426Y115779D02*
X325710Y122063D01*
X319426Y102010D02*
Y115779D01*
X358502Y59722D02*
X360680Y61900D01*
Y74200D01*
X353042Y59722D02*
X358502D01*
X245590Y82510D02*
X262426D01*
X232548Y62260D02*
X233115Y62826D01*
X232548Y50800D02*
Y62260D01*
X216548Y163588D02*
X216550Y163590D01*
X216548Y163088D02*
Y163588D01*
X250025Y196077D02*
X265399D01*
X309711Y160588D02*
Y161088D01*
X262426Y115739D02*
X268750Y122063D01*
X262426Y102010D02*
Y115739D01*
X270441Y135881D02*
X309710D01*
D68*
X90000Y267627D02*
D03*
X167640Y267627D02*
D03*
X128820D02*
D03*
X167640Y200373D02*
D03*
X128820D02*
D03*
X90000D02*
D03*
Y65866D02*
D03*
X128820D02*
D03*
X167640D02*
D03*
Y133120D02*
D03*
X128820D02*
D03*
X90000D02*
D03*
D69*
X249458Y226195D02*
X254177Y221477D01*
X242682Y253283D02*
X249458Y246507D01*
Y226195D02*
Y246507D01*
X232548Y263417D02*
Y272743D01*
X224552Y276860D02*
X228431D01*
X232548Y272743D01*
Y263417D02*
X242682Y253283D01*
X688874Y698268D02*
Y726440D01*
X90000Y267627D02*
X104344Y253283D01*
X242682D01*
X352680Y93119D02*
X360680D01*
X670715Y689245D02*
Y698267D01*
X688874Y689245D02*
X692484Y685635D01*
Y658211D02*
Y685635D01*
X688874Y689245D02*
Y698268D01*
X675640Y560536D02*
X710120D01*
X453700Y369240D02*
X457200Y365740D01*
X445020Y369240D02*
X453700D01*
X383540Y512313D02*
Y652709D01*
Y416560D02*
Y512313D01*
X436350Y521709D02*
Y521781D01*
Y515857D02*
Y521709D01*
Y515857D02*
X445020D01*
X427680D02*
X436350D01*
X436880Y607127D02*
X445020D01*
X436880Y666239D02*
Y666311D01*
Y660387D02*
Y666239D01*
X436350Y659857D02*
X445020D01*
X427680D02*
X436350D01*
X436880Y660387D01*
X249670Y443857D02*
X258340D01*
X241000D02*
X249670D01*
X250669Y444855D01*
Y450239D01*
X249670Y589301D02*
X258340D01*
X241000D02*
X249670D01*
X250669Y590299D02*
Y595683D01*
X249670Y589301D02*
X250669Y590299D01*
Y729561D02*
X250988Y729241D01*
X250669Y729561D02*
Y736508D01*
X250988Y729241D02*
X260880D01*
X243540D02*
X250988D01*
X427680Y369240D02*
X445020D01*
X243540Y729241D02*
X243540Y729241D01*
X651394Y541536D02*
X709837D01*
X640080Y552850D02*
X651394Y541536D01*
X640080Y552850D02*
Y685800D01*
X618094Y707786D02*
X640080Y685800D01*
X382666Y707786D02*
X618094D01*
X363220Y688340D02*
X382666Y707786D01*
X471650Y312932D02*
Y314420D01*
X449892Y312932D02*
X470162D01*
X471650Y314420D01*
Y326806D01*
Y306220D02*
Y312932D01*
X637180Y307340D02*
X692459D01*
X480690Y297180D02*
X627020D01*
X637180Y307340D01*
X692459D02*
X692484Y307365D01*
X471650Y306220D02*
X480690Y297180D01*
X652246Y521644D02*
X692484D01*
X485992Y574040D02*
X599850D01*
X652246Y521644D01*
X471650Y588382D02*
Y602437D01*
Y588382D02*
X485992Y574040D01*
X449710Y602437D02*
X471650D01*
Y617423D01*
X258340Y387031D02*
X281024D01*
X258340Y531881D02*
X284970D01*
X258340D02*
Y544822D01*
X284970Y531881D02*
X294545D01*
X284970D02*
Y546867D01*
X294545Y531881D02*
X294640Y531786D01*
X264842Y671820D02*
X287510D01*
X287510Y671820D01*
Y640413D02*
Y686806D01*
Y640413D02*
X304512Y623410D01*
X446328Y462209D02*
X450100Y458437D01*
X445020Y463517D02*
X446328Y462209D01*
X447560Y460977D01*
X436880Y462209D02*
X446328D01*
X374977Y385239D02*
X409460D01*
X396169Y385239D02*
X396169Y385239D01*
X396169Y385239D02*
Y531857D01*
X208280Y313085D02*
X225956Y295409D01*
X362756D01*
Y373018D01*
X374977Y385239D01*
X208280Y313085D02*
Y459857D01*
X222779D01*
X208280D02*
Y605301D01*
X409460Y385239D02*
Y399661D01*
X419644Y409845D02*
X472421D01*
X409460Y399661D02*
X419644Y409845D01*
X396169Y531857D02*
Y669596D01*
Y531857D02*
X396169Y531856D01*
X409460D01*
Y547576D02*
X417581Y555697D01*
X475147D01*
X208280Y605301D02*
Y736661D01*
Y605301D02*
X208281Y605300D01*
X222780D01*
X222779Y459857D02*
X222780Y459856D01*
X208280Y736661D02*
X216858Y745239D01*
X225320D01*
X396169Y669596D02*
X402213Y675640D01*
X409244D01*
X409460Y675856D01*
X349970Y302948D02*
Y401423D01*
X320010Y649113D02*
X336970Y632153D01*
Y603255D02*
Y632153D01*
X320010Y649113D02*
Y686806D01*
X336970Y457811D02*
Y546867D01*
X349970D02*
Y577190D01*
Y457811D02*
Y546867D01*
X497650Y501617D02*
X504531D01*
X484626D02*
X497650D01*
X536650Y601323D02*
Y617423D01*
X504531Y501617D02*
X523650D01*
X504134Y501220D02*
X504531Y501617D01*
X497650Y355486D02*
X504907D01*
X484650D02*
X497650D01*
X315211Y246920D02*
X349970D01*
X536650Y355486D02*
Y383194D01*
Y326806D02*
Y355486D01*
X523650D02*
Y383194D01*
Y355486D02*
X536650D01*
X504150Y354729D02*
X504907Y355486D01*
X523650D01*
Y326806D02*
Y355486D01*
X478150Y355457D02*
Y355528D01*
Y326806D02*
Y355457D01*
Y355528D02*
X478150Y355528D01*
X291470Y440357D02*
Y457811D01*
X584200Y457200D02*
X596900Y469900D01*
X495110Y457200D02*
X584200D01*
X491150Y316367D02*
Y326806D01*
Y316367D02*
X494642Y312875D01*
X508755D01*
X291470Y415376D02*
X291470Y415376D01*
X291470Y401423D02*
Y415376D01*
X451020Y498745D02*
X464994D01*
X434008Y452120D02*
X469110D01*
X478150Y461160D01*
Y473423D01*
X464994Y498745D02*
X478150Y511900D01*
Y529811D01*
X284970Y570972D02*
X291470Y577472D01*
Y603255D01*
X291470Y546940D02*
Y566104D01*
X296338Y570972D01*
X451275Y642684D02*
X467442D01*
X478150Y653392D01*
Y673811D01*
X478150Y617423D02*
Y631378D01*
X294010Y729747D02*
Y756184D01*
X287740Y706222D02*
Y723477D01*
X294010Y729747D01*
X294010Y686806D02*
Y718820D01*
X294010Y718820D01*
X376699Y665739D02*
X393054Y682093D01*
X342686Y665739D02*
X376699D01*
X349933Y673829D02*
X367655D01*
X375920Y682093D01*
X457200Y617423D02*
X465150D01*
X457200Y473423D02*
X465150D01*
X457200Y326806D02*
X465150D01*
X271780Y686806D02*
X281010D01*
X271780Y546867D02*
X278470D01*
X271780Y401423D02*
X278470D01*
Y589301D02*
Y603255D01*
X281010Y729241D02*
Y743194D01*
X278470Y444500D02*
Y457811D01*
X320010Y711884D02*
X323126Y715000D01*
X313510Y705384D02*
X320010Y711884D01*
X320460Y712334D01*
X320010Y686806D02*
Y711884D01*
X323126Y715000D02*
X339510D01*
X313510Y686806D02*
Y705384D01*
X339510Y715000D02*
X352510D01*
X339510D02*
Y743194D01*
Y686806D02*
Y715000D01*
X352510D02*
Y743194D01*
Y686806D02*
Y715000D01*
X497650Y637117D02*
X504150Y643617D01*
X506150Y645617D01*
X504150Y617423D02*
Y643617D01*
X523650Y645617D02*
Y673811D01*
Y617423D02*
Y645617D01*
X536650D02*
Y673811D01*
Y617423D02*
Y645617D01*
X523650D02*
X536650D01*
X506150D02*
X523650D01*
X497650Y617423D02*
Y637117D01*
X317470Y572690D02*
X321970Y577190D01*
X310970Y566190D02*
X317470Y572690D01*
X319470Y574690D01*
X317470Y546867D02*
Y572690D01*
X349970Y577190D02*
Y603255D01*
X336970Y577190D02*
Y603255D01*
Y546867D02*
Y577190D01*
X349970D01*
X321970D02*
X336970D01*
X310970Y546867D02*
Y566190D01*
X504150Y326806D02*
Y354729D01*
X497650Y326806D02*
Y355486D01*
X504134Y480110D02*
X504150Y480094D01*
X504134Y480110D02*
Y501220D01*
X504150Y473439D02*
Y480094D01*
X497650Y473423D02*
Y501617D01*
X317470Y401423D02*
Y427617D01*
X319870Y429617D02*
X336970D01*
X317470Y427617D02*
X319470Y429617D01*
X310970Y421117D02*
X317187Y427334D01*
X310970Y401423D02*
Y421117D01*
X349970Y429617D02*
Y457811D01*
Y401423D02*
Y429617D01*
X336970D02*
Y457811D01*
Y401423D02*
Y429617D01*
X349970D01*
X530150Y307144D02*
Y326806D01*
X517150Y307144D02*
Y326806D01*
X530150Y383194D02*
Y394031D01*
X517150Y383194D02*
Y394031D01*
X304470Y389597D02*
Y401423D01*
X323970Y389597D02*
Y401423D01*
X343423Y470518D02*
X343470Y470471D01*
Y457811D02*
Y470471D01*
X330373Y470518D02*
X330470Y470421D01*
Y457811D02*
Y470421D01*
X530150Y529811D02*
Y540681D01*
X517150Y529811D02*
Y544910D01*
X523650Y490868D02*
Y501617D01*
X536650Y473423D02*
Y501617D01*
X523650D02*
Y529811D01*
X536650Y501617D02*
Y529811D01*
X523650Y501617D02*
X536650D01*
X523650Y473423D02*
Y490448D01*
X491150Y461160D02*
X495110Y457200D01*
X491150Y461160D02*
Y473423D01*
X530150Y463508D02*
Y473423D01*
X517150Y463508D02*
Y473423D01*
X343470Y546867D02*
Y547072D01*
X343540Y547142D01*
X304470Y535940D02*
Y546867D01*
X323970Y535940D02*
Y546867D01*
X330470Y535940D02*
Y546867D01*
X343470Y603255D02*
Y616881D01*
X330470Y603255D02*
Y617220D01*
X333010Y675415D02*
X342686Y665739D01*
X333010Y675415D02*
Y686806D01*
X346010Y677752D02*
X349933Y673829D01*
X346010Y677752D02*
Y686806D01*
X326510Y675640D02*
Y686806D01*
X307010Y670745D02*
Y686806D01*
X530150Y673811D02*
Y684153D01*
X517150Y673811D02*
Y684492D01*
X530150Y601323D02*
Y617423D01*
X517150Y606937D02*
Y617423D01*
X333010Y761411D02*
X333018Y761418D01*
X333010Y743194D02*
Y761411D01*
X346010Y743194D02*
Y756184D01*
X599318Y589280D02*
X629798Y619760D01*
X498770Y589280D02*
X599318D01*
X491150Y596900D02*
Y617423D01*
Y596900D02*
X498770Y589280D01*
X225320Y745239D02*
Y761439D01*
X235296Y771415D02*
X288596D01*
X225320Y761439D02*
X235296Y771415D01*
X288596D02*
X300510Y759501D01*
Y743194D02*
Y759501D01*
X249929Y764610D02*
X285585D01*
X294010Y756184D01*
X243540Y745241D02*
Y758221D01*
X249929Y764610D01*
X260880Y745241D02*
Y753503D01*
X265033Y757656D01*
X282707D01*
X287510Y743194D02*
Y752853D01*
X282707Y757656D02*
X287510Y752853D01*
X243541Y700760D02*
X260879D01*
X260880Y700761D01*
X243540Y700759D02*
X243541Y700760D01*
X260880Y675782D02*
X264842Y671820D01*
X260880Y675782D02*
Y684761D01*
X225320Y700759D02*
Y729239D01*
X419262Y700837D02*
X474688D01*
X409460Y691035D02*
X419262Y700837D01*
X409460Y675856D02*
Y691035D01*
X470374Y694979D02*
X478150Y687204D01*
X432783Y694979D02*
X470374D01*
X427680Y689877D02*
X432783Y694979D01*
X474688Y700837D02*
X484650Y690875D01*
Y673811D02*
Y690875D01*
X478150Y673811D02*
Y687204D01*
X447882Y688917D02*
X467225D01*
X471650Y673811D02*
Y684492D01*
X467225Y688917D02*
X471650Y684492D01*
X445020Y675857D02*
Y686055D01*
X447882Y688917D01*
X427680Y675857D02*
Y689877D01*
X427681Y631377D02*
X445019D01*
X445020Y631378D01*
X427680Y631376D02*
X427681Y631377D01*
X445020Y607127D02*
Y615378D01*
Y607127D02*
X449710Y602437D01*
X409460Y631376D02*
Y659856D01*
X445221Y317604D02*
X449892Y312932D01*
X445221Y317604D02*
Y324560D01*
X445020Y324761D02*
X445221Y324560D01*
X427681Y340760D02*
X445019D01*
X445020Y340761D01*
X427680Y340759D02*
X427681Y340760D01*
X472421Y409845D02*
X484650Y397616D01*
Y383194D02*
Y397616D01*
X469958Y403260D02*
X478150Y395068D01*
X434008Y403260D02*
X469958D01*
X478150Y383194D02*
Y395068D01*
X427680Y385240D02*
Y396932D01*
X434008Y403260D01*
X445020Y392574D02*
X449377Y396932D01*
X467853D01*
X445020Y383959D02*
Y392574D01*
X467853Y396932D02*
X471650Y393135D01*
Y390694D02*
Y393135D01*
X281024Y387031D02*
X284970Y390977D01*
X258340Y387031D02*
Y399378D01*
X284970Y390977D02*
Y401423D01*
X241001Y415377D02*
X258339D01*
X258340Y415378D01*
X241000Y415376D02*
X241001Y415377D01*
X231745Y484208D02*
X286207D01*
X222780Y475243D02*
X231745Y484208D01*
X222780Y459856D02*
Y475243D01*
X286207Y484208D02*
X297970Y472445D01*
Y457811D02*
Y472445D01*
X241000Y459857D02*
Y471498D01*
X247379Y477877D01*
X283021D01*
X291470Y469427D01*
Y457811D02*
Y469427D01*
X258340Y467073D02*
X262765Y471498D01*
X280500D02*
X284970Y467028D01*
X262765Y471498D02*
X280500D01*
X258340Y459857D02*
Y467073D01*
X284970Y457811D02*
Y467028D01*
X409460Y531856D02*
Y547576D01*
X475147Y555697D02*
X484650Y546194D01*
Y529811D02*
Y546194D01*
X427680Y531857D02*
Y543377D01*
X433760Y549457D01*
X471374D01*
X478150Y542681D01*
Y529811D02*
Y542681D01*
X445020Y539188D02*
X449209Y543377D01*
X445020Y530357D02*
Y539188D01*
X449209Y543377D02*
X467469D01*
X427681Y487377D02*
X445019D01*
X445020Y487378D01*
X427680Y487376D02*
X427681Y487377D01*
X241001Y560821D02*
X258339D01*
X258340Y560822D01*
X241000Y560820D02*
X241001Y560821D01*
X222780Y619551D02*
X232519Y629289D01*
X222780Y605300D02*
Y619551D01*
X232519Y629289D02*
X288417D01*
X297970Y619736D01*
X241000Y605301D02*
Y616555D01*
X247766Y623321D02*
X284970D01*
X241000Y616555D02*
X247766Y623321D01*
X284970D02*
X291470Y616821D01*
Y603255D02*
Y616821D01*
X297970Y603255D02*
Y619736D01*
X258340Y612744D02*
X262873Y617277D01*
X280750D02*
X284970Y613058D01*
X262873Y617277D02*
X280750D01*
X258340Y605301D02*
Y612744D01*
X284970Y603255D02*
Y613058D01*
X409460Y340759D02*
Y369239D01*
X222780Y415376D02*
Y443856D01*
X471650Y529811D02*
Y539196D01*
X467469Y543377D02*
X471650Y539196D01*
X445020Y463517D02*
Y471378D01*
X450100Y458437D02*
X467150D01*
X471650Y462937D01*
Y473423D01*
X409460Y487376D02*
Y515856D01*
X222780Y560820D02*
Y589300D01*
X254177Y221477D02*
X265399D01*
X367179Y227057D02*
X368679Y228557D01*
X354749Y215127D02*
Y215128D01*
X366679Y227057D01*
X368679Y228557D02*
Y229057D01*
X366679Y227057D02*
X367179D01*
X368680Y194398D02*
Y228558D01*
X368680Y93119D02*
Y126879D01*
Y59360D02*
Y93119D01*
Y126879D02*
X386883D01*
X303741Y82510D02*
X319426D01*
X309711Y252420D02*
Y261917D01*
Y252420D02*
X315211Y246920D01*
X352681Y161539D02*
Y204427D01*
X258982Y276860D02*
X321312D01*
X325711Y261917D02*
Y272461D01*
X321312Y276860D02*
X325711Y272461D01*
X254442Y272320D02*
X258982Y276860D01*
X325711Y261917D02*
X352680D01*
X333070Y82510D02*
X340236Y89676D01*
Y132876D02*
X347100Y139740D01*
X340236Y89676D02*
Y132876D01*
X319426Y82510D02*
X333070D01*
X347100Y139740D02*
X386883D01*
X216550Y219104D02*
Y238710D01*
X330193Y202427D02*
X331681Y200939D01*
Y196077D02*
Y200939D01*
X316453Y202427D02*
X330193D01*
X368680Y228558D02*
Y261917D01*
X679984Y619320D02*
X692484D01*
X709837Y541536D02*
X735053Y566752D01*
X750955D01*
X679984Y580428D02*
X692484D01*
X710120Y560536D02*
X728837Y579252D01*
X750955D01*
X692484Y580428D02*
X709076D01*
X720400Y591752D01*
X750955D01*
X692484Y599428D02*
X708752D01*
X713576Y604252D01*
X750955D01*
X692484Y619320D02*
X709752D01*
X712320Y616752D01*
X750955D01*
X692484Y638320D02*
X708752D01*
X717820Y629252D01*
X750955D01*
X726211Y641752D02*
X750955D01*
X692484Y658211D02*
X709752D01*
X726211Y641752D01*
X632410Y54171D02*
Y60671D01*
X687080Y55671D02*
X709740D01*
X657910Y73171D02*
X685580D01*
X632410D02*
X657910D01*
X605970Y55671D02*
X616158D01*
X617658Y54171D01*
X632410D01*
X464820Y123054D02*
Y145169D01*
X528320Y162183D02*
X529333Y161170D01*
X562469Y123054D02*
Y145169D01*
X580670Y123054D02*
Y145170D01*
X325711Y160688D02*
X327941Y162918D01*
X328441D02*
X335683Y170161D01*
X325711Y160188D02*
Y160688D01*
X327941Y162918D02*
X328441D01*
X335683Y170161D02*
Y192074D01*
X331681Y196077D02*
X335683Y192074D01*
X316453Y196077D02*
X331681D01*
X348331Y208777D02*
X352681Y204427D01*
X316453Y208777D02*
X348331D01*
X254442Y261917D02*
Y272320D01*
X290077Y261917D02*
X309711D01*
X270442D02*
X290077D01*
Y235020D02*
Y261917D01*
X282883Y227827D02*
X290077Y235020D01*
X265399Y227827D02*
X282883D01*
X254442Y252960D02*
X265399Y242003D01*
X254442Y252960D02*
Y261917D01*
X265399Y234177D02*
Y242003D01*
D70*
X233456Y151000D02*
X239111D01*
X233441Y150985D02*
X233456Y151000D01*
X453141Y149990D02*
X464320Y161169D01*
X453141Y90302D02*
Y149990D01*
Y90302D02*
X464703Y78740D01*
X464320Y161169D02*
X464820D01*
X464703Y78740D02*
X544539D01*
X457015Y161169D02*
X464320D01*
X449709D02*
X457015D01*
X552159Y86360D02*
X682336D01*
X687080Y71671D02*
Y81616D01*
X682336Y86360D02*
X687080Y81616D01*
X544539Y78740D02*
X552159Y86360D01*
X482524Y188954D02*
Y205043D01*
X490220Y162183D02*
Y181258D01*
X482524Y188954D02*
X490220Y181258D01*
X476120Y211447D02*
X482524Y205043D01*
X464820Y161169D02*
Y183508D01*
X469670Y188358D02*
Y204997D01*
X464820Y183508D02*
X469670Y188358D01*
Y204997D02*
X476120Y211447D01*
X490220Y162183D02*
X502920D01*
X685580Y73171D02*
X687080Y71671D01*
X580670D02*
X601970D01*
X558469D02*
X580670D01*
X513080Y62820D02*
X549619D01*
X558469Y71671D01*
X580670Y161170D02*
X597970D01*
X598470Y123054D02*
X600700Y120824D01*
Y120324D02*
X607740Y113284D01*
X623060D01*
X597970Y123054D02*
X598470D01*
X600700Y120324D02*
Y120824D01*
X597970Y123054D02*
Y145170D01*
X709740Y123053D02*
Y145169D01*
D71*
X78554Y583939D02*
D03*
D72*
X465300Y824000D02*
D03*
D73*
X425000Y21000D02*
D03*
D74*
X486420Y815252D02*
D03*
X456552Y802880D02*
D03*
X444180Y832748D02*
D03*
X474048Y845120D02*
D03*
X486420Y832748D02*
D03*
X474048Y802880D02*
D03*
X444180Y815252D02*
D03*
X456552Y845120D02*
D03*
D75*
X36000Y814000D02*
D03*
Y256000D02*
D03*
Y364000D02*
D03*
X814477Y256000D02*
D03*
X814000Y364000D02*
D03*
Y36000D02*
D03*
Y814000D02*
D03*
X36000Y36000D02*
D03*
D76*
X27252Y835120D02*
D03*
X14880Y805252D02*
D03*
X44748Y792880D02*
D03*
X57120Y822748D02*
D03*
X44748Y835120D02*
D03*
X14880Y822748D02*
D03*
X27252Y792880D02*
D03*
X57120Y805252D02*
D03*
X27252Y277120D02*
D03*
X14880Y247252D02*
D03*
X44748Y234880D02*
D03*
X57120Y264748D02*
D03*
X44748Y277120D02*
D03*
X14880Y264748D02*
D03*
X27252Y234880D02*
D03*
X57120Y247252D02*
D03*
X27252Y385120D02*
D03*
X14880Y355252D02*
D03*
X44748Y342880D02*
D03*
X57120Y372748D02*
D03*
X44748Y385120D02*
D03*
X14880Y372748D02*
D03*
X27252Y342880D02*
D03*
X57120Y355252D02*
D03*
X805729Y277120D02*
D03*
X793357Y247252D02*
D03*
X823225Y234880D02*
D03*
X835597Y264748D02*
D03*
X823225Y277120D02*
D03*
X793357Y264748D02*
D03*
X805729Y234880D02*
D03*
X835597Y247252D02*
D03*
X805252Y385120D02*
D03*
X792880Y355252D02*
D03*
X822748Y342880D02*
D03*
X835120Y372748D02*
D03*
X822748Y385120D02*
D03*
X792880Y372748D02*
D03*
X805252Y342880D02*
D03*
X835120Y355252D02*
D03*
X805252Y57120D02*
D03*
X792880Y27252D02*
D03*
X822748Y14880D02*
D03*
X835120Y44748D02*
D03*
X822748Y57120D02*
D03*
X792880Y44748D02*
D03*
X805252Y14880D02*
D03*
X835120Y27252D02*
D03*
X805252Y835120D02*
D03*
X792880Y805252D02*
D03*
X822748Y792880D02*
D03*
X835120Y822748D02*
D03*
X822748Y835120D02*
D03*
X792880Y822748D02*
D03*
X805252Y792880D02*
D03*
X835120Y805252D02*
D03*
X27252Y57120D02*
D03*
X14880Y27252D02*
D03*
X44748Y14880D02*
D03*
X57120Y44748D02*
D03*
X44748Y57120D02*
D03*
X14880Y44748D02*
D03*
X27252Y14880D02*
D03*
X57120Y27252D02*
D03*
D77*
X487680Y62820D02*
D03*
D78*
X500380D02*
D03*
X513080D02*
D03*
D79*
X125784Y406400D02*
D03*
X126814Y770114D02*
D03*
Y663675D02*
D03*
Y530626D02*
D03*
Y610455D02*
D03*
Y690285D02*
D03*
Y743504D02*
D03*
Y623760D02*
D03*
Y597150D02*
D03*
Y543931D02*
D03*
Y676980D02*
D03*
Y756809D02*
D03*
Y477406D02*
D03*
Y450796D02*
D03*
Y464101D02*
D03*
X100204Y344357D02*
D03*
Y317747D02*
D03*
Y304442D02*
D03*
Y331052D02*
D03*
Y397576D02*
D03*
Y370966D02*
D03*
Y384271D02*
D03*
Y357662D02*
D03*
X86899D02*
D03*
Y384271D02*
D03*
Y370966D02*
D03*
Y397576D02*
D03*
Y331052D02*
D03*
Y304442D02*
D03*
Y317747D02*
D03*
Y344357D02*
D03*
X33679Y770114D02*
D03*
Y490711D02*
D03*
Y464101D02*
D03*
Y437491D02*
D03*
Y410881D02*
D03*
Y424186D02*
D03*
Y450796D02*
D03*
Y477406D02*
D03*
Y756809D02*
D03*
Y730200D02*
D03*
Y703590D02*
D03*
Y676980D02*
D03*
Y543931D02*
D03*
Y570540D02*
D03*
Y597150D02*
D03*
Y623760D02*
D03*
Y650370D02*
D03*
Y517321D02*
D03*
Y743504D02*
D03*
Y690285D02*
D03*
Y637065D02*
D03*
Y610455D02*
D03*
Y530626D02*
D03*
Y504016D02*
D03*
Y557235D02*
D03*
Y583845D02*
D03*
Y663675D02*
D03*
Y716895D02*
D03*
X113509Y464101D02*
D03*
Y410881D02*
D03*
Y450796D02*
D03*
Y477406D02*
D03*
Y756809D02*
D03*
Y676980D02*
D03*
Y543931D02*
D03*
Y570540D02*
D03*
Y597150D02*
D03*
Y623760D02*
D03*
Y743504D02*
D03*
Y690285D02*
D03*
Y610455D02*
D03*
Y530626D02*
D03*
Y663675D02*
D03*
Y716895D02*
D03*
X100204Y490711D02*
D03*
Y464101D02*
D03*
Y437491D02*
D03*
Y410881D02*
D03*
Y424186D02*
D03*
Y450796D02*
D03*
Y477406D02*
D03*
Y756809D02*
D03*
Y730200D02*
D03*
Y703590D02*
D03*
Y676980D02*
D03*
Y543931D02*
D03*
Y570540D02*
D03*
Y597150D02*
D03*
Y623760D02*
D03*
Y650370D02*
D03*
Y517321D02*
D03*
Y743504D02*
D03*
Y690285D02*
D03*
Y637065D02*
D03*
Y610455D02*
D03*
Y530626D02*
D03*
Y504016D02*
D03*
Y557235D02*
D03*
Y583845D02*
D03*
Y663675D02*
D03*
Y716895D02*
D03*
X86899Y490711D02*
D03*
Y464101D02*
D03*
Y437491D02*
D03*
Y410881D02*
D03*
Y424186D02*
D03*
Y450796D02*
D03*
Y477406D02*
D03*
Y756809D02*
D03*
Y730200D02*
D03*
Y703590D02*
D03*
Y676980D02*
D03*
Y543931D02*
D03*
Y570540D02*
D03*
Y597150D02*
D03*
Y623760D02*
D03*
Y650370D02*
D03*
Y517321D02*
D03*
Y743504D02*
D03*
Y690285D02*
D03*
Y637065D02*
D03*
Y610455D02*
D03*
Y530626D02*
D03*
Y504016D02*
D03*
Y557235D02*
D03*
Y583845D02*
D03*
Y663675D02*
D03*
Y716895D02*
D03*
X73594Y490711D02*
D03*
Y464101D02*
D03*
Y437491D02*
D03*
Y410881D02*
D03*
Y424186D02*
D03*
Y450796D02*
D03*
Y477406D02*
D03*
Y756809D02*
D03*
Y730200D02*
D03*
Y703590D02*
D03*
Y676980D02*
D03*
Y543931D02*
D03*
Y570540D02*
D03*
Y597150D02*
D03*
Y623760D02*
D03*
Y650370D02*
D03*
Y517321D02*
D03*
Y743504D02*
D03*
Y690285D02*
D03*
Y637065D02*
D03*
Y610455D02*
D03*
Y530626D02*
D03*
Y504016D02*
D03*
Y557235D02*
D03*
Y583845D02*
D03*
Y663675D02*
D03*
Y716895D02*
D03*
X60289Y490711D02*
D03*
Y464101D02*
D03*
Y437491D02*
D03*
Y410881D02*
D03*
Y424186D02*
D03*
Y450796D02*
D03*
Y477406D02*
D03*
Y756809D02*
D03*
Y730200D02*
D03*
Y703590D02*
D03*
Y676980D02*
D03*
Y543931D02*
D03*
Y570540D02*
D03*
Y597150D02*
D03*
Y623760D02*
D03*
Y650370D02*
D03*
Y517321D02*
D03*
Y743504D02*
D03*
Y690285D02*
D03*
Y637065D02*
D03*
Y610455D02*
D03*
Y530626D02*
D03*
Y504016D02*
D03*
Y557235D02*
D03*
Y583845D02*
D03*
Y663675D02*
D03*
Y716895D02*
D03*
X113509Y770114D02*
D03*
X60289D02*
D03*
X86899D02*
D03*
X73594D02*
D03*
X100204D02*
D03*
X46985Y716895D02*
D03*
Y663675D02*
D03*
Y583845D02*
D03*
Y557235D02*
D03*
Y504016D02*
D03*
Y530626D02*
D03*
Y610455D02*
D03*
Y637065D02*
D03*
Y690285D02*
D03*
X224552Y276860D02*
D03*
X239111Y151000D02*
D03*
X677311Y689245D02*
D03*
X695397Y726579D02*
D03*
X688874Y726440D02*
D03*
X670715Y689245D02*
D03*
X390181Y552161D02*
D03*
X374785Y552299D02*
D03*
X375111Y565270D02*
D03*
X374785Y577253D02*
D03*
X427422Y306982D02*
D03*
X409460D02*
D03*
X482600Y561340D02*
D03*
X576580Y561000D02*
D03*
Y489000D02*
D03*
X585602Y424180D02*
D03*
X492262Y423952D02*
D03*
X389886Y423106D02*
D03*
X402180Y479970D02*
D03*
X305201Y496025D02*
D03*
X302743Y424400D02*
D03*
X295039Y345237D02*
D03*
X215178Y336454D02*
D03*
X214283Y409142D02*
D03*
X214999Y568660D02*
D03*
X213978Y499000D02*
D03*
X296180Y640579D02*
D03*
X389995Y633222D02*
D03*
X585960Y641511D02*
D03*
X585970Y715000D02*
D03*
X492262D02*
D03*
X305613Y712488D02*
D03*
X215208Y625045D02*
D03*
X215900Y695960D02*
D03*
X478150Y487378D02*
D03*
X679984Y551036D02*
D03*
Y568998D02*
D03*
Y512144D02*
D03*
Y530106D02*
D03*
X649480Y562374D02*
D03*
Y580336D02*
D03*
X650240Y612140D02*
D03*
Y630102D02*
D03*
Y650240D02*
D03*
Y668202D02*
D03*
X297970Y389597D02*
D03*
X222780Y387031D02*
D03*
X240742D02*
D03*
X484650Y312875D02*
D03*
X409460Y295409D02*
D03*
X427422D02*
D03*
X409460Y463517D02*
D03*
X427422D02*
D03*
X484650Y631377D02*
D03*
X409460Y607056D02*
D03*
X427422D02*
D03*
X300510Y670745D02*
D03*
X294010Y653858D02*
D03*
X225320Y675782D02*
D03*
X243282D02*
D03*
X632823Y320040D02*
D03*
X650785D02*
D03*
X614862D02*
D03*
X596900D02*
D03*
X620123Y388620D02*
D03*
X638085D02*
D03*
X602162D02*
D03*
X584200D02*
D03*
X383540Y205377D02*
D03*
Y187415D02*
D03*
Y223338D02*
D03*
Y241300D02*
D03*
X604883Y535940D02*
D03*
X622845D02*
D03*
X586922D02*
D03*
X568960D02*
D03*
X558800Y508987D02*
D03*
Y491025D02*
D03*
Y526948D02*
D03*
Y544910D02*
D03*
X612503Y673811D02*
D03*
X630465D02*
D03*
X594542D02*
D03*
X576580D02*
D03*
X368300Y609582D02*
D03*
X363220Y682093D02*
D03*
X368300Y656356D02*
D03*
Y591620D02*
D03*
Y483850D02*
D03*
Y465889D02*
D03*
Y412004D02*
D03*
Y429965D02*
D03*
Y501812D02*
D03*
X558800Y718638D02*
D03*
Y664753D02*
D03*
Y646792D02*
D03*
Y610868D02*
D03*
Y628830D02*
D03*
Y682715D02*
D03*
Y700677D02*
D03*
X559802Y433140D02*
D03*
Y379255D02*
D03*
Y361294D02*
D03*
Y307409D02*
D03*
Y325370D02*
D03*
Y343332D02*
D03*
Y415179D02*
D03*
X532835Y233799D02*
D03*
X550797D02*
D03*
X604682D02*
D03*
X586720D02*
D03*
X568759D02*
D03*
X514874D02*
D03*
X496912D02*
D03*
X550258Y276860D02*
D03*
X568219D02*
D03*
X622104D02*
D03*
X604143D02*
D03*
X586181D02*
D03*
X532296D02*
D03*
X514334D02*
D03*
X370641D02*
D03*
X424526D02*
D03*
X442488D02*
D03*
X478411D02*
D03*
X460449D02*
D03*
X406564D02*
D03*
X388603D02*
D03*
X223702Y317500D02*
D03*
X277587D02*
D03*
X295548D02*
D03*
X331472D02*
D03*
X313510D02*
D03*
X259625D02*
D03*
X241663D02*
D03*
X660400Y459558D02*
D03*
Y405673D02*
D03*
Y387712D02*
D03*
Y333826D02*
D03*
Y351788D02*
D03*
Y369750D02*
D03*
Y423635D02*
D03*
Y441597D02*
D03*
X819337Y734192D02*
D03*
Y716230D02*
D03*
X711567Y734192D02*
D03*
Y716230D02*
D03*
X801375Y698268D02*
D03*
X783414D02*
D03*
X765452D02*
D03*
X801375Y734192D02*
D03*
X783414D02*
D03*
X765452D02*
D03*
X801375Y716230D02*
D03*
X783414D02*
D03*
X765452D02*
D03*
X747490Y698268D02*
D03*
Y716230D02*
D03*
Y734192D02*
D03*
X729529Y698268D02*
D03*
Y716230D02*
D03*
Y734192D02*
D03*
X819337Y770115D02*
D03*
X801375D02*
D03*
X783414D02*
D03*
X819337Y752153D02*
D03*
X801375D02*
D03*
X783414D02*
D03*
X531950Y824000D02*
D03*
X567873D02*
D03*
X585835D02*
D03*
X729529D02*
D03*
X639720D02*
D03*
X657682D02*
D03*
X675643D02*
D03*
X693605D02*
D03*
X711567D02*
D03*
X621758D02*
D03*
X603797D02*
D03*
X549912D02*
D03*
X747490D02*
D03*
X765452D02*
D03*
Y806038D02*
D03*
X747490D02*
D03*
X549912D02*
D03*
X603797D02*
D03*
X621758D02*
D03*
X711567D02*
D03*
X693605D02*
D03*
X675643D02*
D03*
X657682D02*
D03*
X639720D02*
D03*
X729529D02*
D03*
X585835D02*
D03*
X567873D02*
D03*
X531950D02*
D03*
X460103Y752153D02*
D03*
X388256D02*
D03*
X406218D02*
D03*
X424180D02*
D03*
X442142D02*
D03*
X496027D02*
D03*
X531950D02*
D03*
X567873D02*
D03*
X585835D02*
D03*
X729529D02*
D03*
X639720D02*
D03*
X657682D02*
D03*
X675643D02*
D03*
X693605D02*
D03*
X711567D02*
D03*
X621758D02*
D03*
X603797D02*
D03*
X549912D02*
D03*
X513988D02*
D03*
X478065D02*
D03*
X747490D02*
D03*
X765452D02*
D03*
X460103Y770115D02*
D03*
X388256D02*
D03*
X406218D02*
D03*
X424180D02*
D03*
X442142D02*
D03*
X496027D02*
D03*
X531950D02*
D03*
X567873D02*
D03*
X585835D02*
D03*
X729529D02*
D03*
X639720D02*
D03*
X657682D02*
D03*
X675643D02*
D03*
X693605D02*
D03*
X711567D02*
D03*
X621758D02*
D03*
X603797D02*
D03*
X549912D02*
D03*
X513988D02*
D03*
X478065D02*
D03*
X747490D02*
D03*
X765452D02*
D03*
X370295Y752153D02*
D03*
Y770115D02*
D03*
X765452Y788077D02*
D03*
X747490D02*
D03*
X513988Y824000D02*
D03*
Y806038D02*
D03*
X226601D02*
D03*
X262525D02*
D03*
X298448D02*
D03*
X316410D02*
D03*
X370295D02*
D03*
X388256D02*
D03*
X406218D02*
D03*
X424180D02*
D03*
X352333D02*
D03*
X334371D02*
D03*
X280486D02*
D03*
X244563D02*
D03*
X208640D02*
D03*
X118831Y231264D02*
D03*
Y159418D02*
D03*
Y123494D02*
D03*
Y141456D02*
D03*
Y213303D02*
D03*
X136793Y450796D02*
D03*
Y392920D02*
D03*
Y321073D02*
D03*
Y303111D02*
D03*
Y285149D02*
D03*
Y374958D02*
D03*
Y177379D02*
D03*
Y141456D02*
D03*
Y105533D02*
D03*
Y231264D02*
D03*
X118831Y788077D02*
D03*
Y806038D02*
D03*
X136793D02*
D03*
Y770115D02*
D03*
Y752153D02*
D03*
Y608460D02*
D03*
Y680306D02*
D03*
Y788077D02*
D03*
Y536613D02*
D03*
Y464766D02*
D03*
Y523240D02*
D03*
Y594360D02*
D03*
X46985Y743504D02*
D03*
Y517321D02*
D03*
Y650370D02*
D03*
Y623760D02*
D03*
Y597150D02*
D03*
Y570540D02*
D03*
Y543931D02*
D03*
Y676980D02*
D03*
Y703590D02*
D03*
Y730200D02*
D03*
Y756809D02*
D03*
Y477406D02*
D03*
Y450796D02*
D03*
Y424186D02*
D03*
Y410881D02*
D03*
Y437491D02*
D03*
Y464101D02*
D03*
Y490711D02*
D03*
Y770114D02*
D03*
X736422Y374958D02*
D03*
X754384D02*
D03*
X718460D02*
D03*
X736422Y356996D02*
D03*
X754384D02*
D03*
X718460D02*
D03*
X736422Y339035D02*
D03*
X754384D02*
D03*
X718460D02*
D03*
X736422Y321073D02*
D03*
X754384D02*
D03*
X718460D02*
D03*
X736422Y303111D02*
D03*
X754384D02*
D03*
X718460D02*
D03*
Y392920D02*
D03*
X754384D02*
D03*
X736422D02*
D03*
X718460Y410881D02*
D03*
X754384D02*
D03*
X808269D02*
D03*
X790307D02*
D03*
X736422D02*
D03*
X718460Y428843D02*
D03*
X754384D02*
D03*
X808269D02*
D03*
X790307D02*
D03*
X736422D02*
D03*
X718460Y446805D02*
D03*
X754384D02*
D03*
X808269D02*
D03*
X790307D02*
D03*
X736422D02*
D03*
X718460Y464766D02*
D03*
X754384D02*
D03*
X808269D02*
D03*
X790307D02*
D03*
X736422D02*
D03*
X718460Y482728D02*
D03*
X754384D02*
D03*
X808269D02*
D03*
X790307D02*
D03*
X736422D02*
D03*
X826230Y177379D02*
D03*
Y159418D02*
D03*
Y105533D02*
D03*
Y87571D02*
D03*
Y123494D02*
D03*
Y141456D02*
D03*
Y195341D02*
D03*
X808269Y177379D02*
D03*
Y159418D02*
D03*
Y105533D02*
D03*
Y87571D02*
D03*
Y123494D02*
D03*
Y141456D02*
D03*
Y195341D02*
D03*
X790307Y177379D02*
D03*
Y159418D02*
D03*
Y105533D02*
D03*
Y87571D02*
D03*
Y123494D02*
D03*
Y141456D02*
D03*
Y195341D02*
D03*
X826230Y213303D02*
D03*
X790307D02*
D03*
X808269D02*
D03*
X772345Y267188D02*
D03*
Y231264D02*
D03*
Y195341D02*
D03*
Y141456D02*
D03*
Y123494D02*
D03*
Y33686D02*
D03*
Y51648D02*
D03*
Y69609D02*
D03*
Y87571D02*
D03*
Y105533D02*
D03*
Y159418D02*
D03*
Y177379D02*
D03*
Y213303D02*
D03*
Y249226D02*
D03*
Y536613D02*
D03*
Y464766D02*
D03*
Y410881D02*
D03*
Y392920D02*
D03*
Y303111D02*
D03*
Y321073D02*
D03*
Y339035D02*
D03*
Y356996D02*
D03*
Y374958D02*
D03*
Y285149D02*
D03*
Y428843D02*
D03*
Y446805D02*
D03*
Y482728D02*
D03*
Y572536D02*
D03*
Y590498D02*
D03*
Y608460D02*
D03*
Y626422D02*
D03*
Y644383D02*
D03*
Y554575D02*
D03*
X478065Y788077D02*
D03*
X513988D02*
D03*
X549912D02*
D03*
X603797D02*
D03*
X621758D02*
D03*
X711567D02*
D03*
X693605D02*
D03*
X675643D02*
D03*
X657682D02*
D03*
X639720D02*
D03*
X729529D02*
D03*
X585835D02*
D03*
X567873D02*
D03*
X531950D02*
D03*
X496027D02*
D03*
X208640D02*
D03*
X244563D02*
D03*
X280486D02*
D03*
X334371D02*
D03*
X352333D02*
D03*
X442142D02*
D03*
X424180D02*
D03*
X406218D02*
D03*
X388256D02*
D03*
X370295D02*
D03*
X460103D02*
D03*
X316410D02*
D03*
X298448D02*
D03*
X262525D02*
D03*
X226601D02*
D03*
X172716Y536613D02*
D03*
Y500690D02*
D03*
Y464766D02*
D03*
Y410881D02*
D03*
Y392920D02*
D03*
Y303111D02*
D03*
Y321073D02*
D03*
Y339035D02*
D03*
Y356996D02*
D03*
Y374958D02*
D03*
Y428843D02*
D03*
Y446805D02*
D03*
Y482728D02*
D03*
Y518651D02*
D03*
Y806038D02*
D03*
Y770115D02*
D03*
Y734192D02*
D03*
Y680306D02*
D03*
Y662345D02*
D03*
Y572536D02*
D03*
Y590498D02*
D03*
Y608460D02*
D03*
Y626422D02*
D03*
Y644383D02*
D03*
Y554575D02*
D03*
Y698268D02*
D03*
Y716230D02*
D03*
Y752153D02*
D03*
Y788077D02*
D03*
X190678Y536613D02*
D03*
Y500690D02*
D03*
Y464766D02*
D03*
Y410881D02*
D03*
Y392920D02*
D03*
Y303111D02*
D03*
Y321073D02*
D03*
Y339035D02*
D03*
Y356996D02*
D03*
Y428843D02*
D03*
Y482728D02*
D03*
Y806038D02*
D03*
Y770115D02*
D03*
Y680306D02*
D03*
Y572536D02*
D03*
Y608460D02*
D03*
Y626422D02*
D03*
Y644383D02*
D03*
Y554575D02*
D03*
Y698268D02*
D03*
Y716230D02*
D03*
Y752153D02*
D03*
Y788077D02*
D03*
X100870Y806038D02*
D03*
Y788077D02*
D03*
X82908D02*
D03*
Y806038D02*
D03*
Y824000D02*
D03*
X118831D02*
D03*
X154755D02*
D03*
X190678D02*
D03*
X208640D02*
D03*
X352333D02*
D03*
X370295D02*
D03*
X388256D02*
D03*
X406218D02*
D03*
X424180D02*
D03*
X262525D02*
D03*
X280486D02*
D03*
X298448D02*
D03*
X316410D02*
D03*
X334371D02*
D03*
X244563D02*
D03*
X226601D02*
D03*
X172716D02*
D03*
X136793D02*
D03*
X100870D02*
D03*
X457200Y365668D02*
D03*
X383540Y416488D02*
D03*
Y512313D02*
D03*
X436350Y521709D02*
D03*
X436880Y607056D02*
D03*
X383540Y652709D02*
D03*
X436880Y666239D02*
D03*
X250669Y450239D02*
D03*
Y595683D02*
D03*
Y736508D02*
D03*
X704599Y599356D02*
D03*
X692484Y307293D02*
D03*
X258340Y386959D02*
D03*
Y531881D02*
D03*
X294640D02*
D03*
X304512Y623339D02*
D03*
X436880Y462209D02*
D03*
X692484Y483513D02*
D03*
X695038Y294928D02*
D03*
X689558D02*
D03*
X352681Y150499D02*
D03*
X362756Y295409D02*
D03*
X349970Y302876D02*
D03*
X536650Y601323D02*
D03*
X484626Y501617D02*
D03*
X349970Y246920D02*
D03*
X484650Y355486D02*
D03*
X503184Y595258D02*
D03*
X478150Y355457D02*
D03*
X449580Y355528D02*
D03*
X291470Y440285D02*
D03*
X675640Y560536D02*
D03*
X596900Y469900D02*
D03*
X508755Y312875D02*
D03*
X291470Y415305D02*
D03*
X451020Y498745D02*
D03*
X434008Y452048D02*
D03*
X284970Y570972D02*
D03*
X296338D02*
D03*
X451275Y642613D02*
D03*
X478150Y631378D02*
D03*
X287740Y706222D02*
D03*
X294010Y718820D02*
D03*
X393054Y682093D02*
D03*
X363220Y688340D02*
D03*
X457200Y617423D02*
D03*
Y473423D02*
D03*
Y326806D02*
D03*
X465150Y390622D02*
D03*
Y537239D02*
D03*
Y681239D02*
D03*
X271780Y686806D02*
D03*
Y546867D02*
D03*
Y401423D02*
D03*
X281010Y729241D02*
D03*
X278470Y589301D02*
D03*
Y444500D02*
D03*
X530150Y307144D02*
D03*
X517150Y306982D02*
D03*
X510701Y326787D02*
D03*
X530150Y394031D02*
D03*
X517150D02*
D03*
X343434Y401284D02*
D03*
X323970Y389597D02*
D03*
X304470D02*
D03*
X330470Y393923D02*
D03*
X343423Y470518D02*
D03*
X330373D02*
D03*
X517150Y544910D02*
D03*
X530150Y540681D02*
D03*
X530167Y463508D02*
D03*
X517150D02*
D03*
X510650Y473423D02*
D03*
X343540Y547142D02*
D03*
X304470Y535940D02*
D03*
X323970D02*
D03*
X330470D02*
D03*
X330470Y616881D02*
D03*
X343470D02*
D03*
X375920Y682093D02*
D03*
X326510Y675640D02*
D03*
X307010Y670745D02*
D03*
X530150Y684492D02*
D03*
X517150D02*
D03*
X530150Y601323D02*
D03*
X510650Y617423D02*
D03*
X517150Y606937D02*
D03*
X333018Y761418D02*
D03*
X346010Y756184D02*
D03*
X629798Y619760D02*
D03*
X541918Y131197D02*
D03*
X517650D02*
D03*
X655596Y189655D02*
D03*
X631328D02*
D03*
X58651Y183431D02*
D03*
Y159164D02*
D03*
Y110628D02*
D03*
Y86360D02*
D03*
X33020Y183431D02*
D03*
Y159164D02*
D03*
Y110628D02*
D03*
Y86360D02*
D03*
X553733Y30947D02*
D03*
X529466D02*
D03*
X505198D02*
D03*
X480930D02*
D03*
X578001D02*
D03*
X602269D02*
D03*
X626537D02*
D03*
X650805D02*
D03*
X699341D02*
D03*
X723608D02*
D03*
X122501D02*
D03*
X146769D02*
D03*
X195305D02*
D03*
X219573D02*
D03*
X243841D02*
D03*
X268109D02*
D03*
X365180D02*
D03*
X340912D02*
D03*
X316644D02*
D03*
X292376D02*
D03*
X389850Y93119D02*
D03*
X468820Y91364D02*
D03*
X456640Y63716D02*
D03*
X468632D02*
D03*
X441579Y93119D02*
D03*
X386883Y79510D02*
D03*
X328018Y843526D02*
D03*
X338018D02*
D03*
X348018D02*
D03*
X358018D02*
D03*
X368018D02*
D03*
X378018D02*
D03*
X388018D02*
D03*
X398018D02*
D03*
X408018D02*
D03*
X418018D02*
D03*
X428018D02*
D03*
X438018D02*
D03*
X488018D02*
D03*
X498017D02*
D03*
X508017D02*
D03*
X518017D02*
D03*
X528017D02*
D03*
X538017D02*
D03*
X548017D02*
D03*
X558017D02*
D03*
X568017D02*
D03*
X578017D02*
D03*
X588017D02*
D03*
X598017D02*
D03*
X608017D02*
D03*
X618017D02*
D03*
X628017D02*
D03*
X638017D02*
D03*
X648017D02*
D03*
X658017D02*
D03*
X668017D02*
D03*
X678017D02*
D03*
X688017D02*
D03*
X698017D02*
D03*
X708017D02*
D03*
X718017D02*
D03*
X728017D02*
D03*
X738017D02*
D03*
X748017D02*
D03*
X758017D02*
D03*
X768017D02*
D03*
X778017D02*
D03*
X788017D02*
D03*
X798017D02*
D03*
X808017D02*
D03*
X818017D02*
D03*
X828017D02*
D03*
X838017Y843529D02*
D03*
X6474Y522094D02*
D03*
Y532094D02*
D03*
Y542094D02*
D03*
Y552094D02*
D03*
Y562094D02*
D03*
Y572094D02*
D03*
Y582094D02*
D03*
Y592094D02*
D03*
Y602094D02*
D03*
Y612094D02*
D03*
Y622094D02*
D03*
Y632094D02*
D03*
Y642093D02*
D03*
Y652093D02*
D03*
Y662093D02*
D03*
Y672093D02*
D03*
Y682093D02*
D03*
Y692093D02*
D03*
Y702093D02*
D03*
Y712093D02*
D03*
Y722093D02*
D03*
Y732093D02*
D03*
Y742093D02*
D03*
Y752093D02*
D03*
Y762093D02*
D03*
Y772093D02*
D03*
Y782093D02*
D03*
Y792093D02*
D03*
Y802093D02*
D03*
Y812093D02*
D03*
Y822093D02*
D03*
Y832093D02*
D03*
X8143Y841953D02*
D03*
X18018Y843526D02*
D03*
X28018D02*
D03*
X38018D02*
D03*
X48018D02*
D03*
X58018D02*
D03*
X68018D02*
D03*
X78018D02*
D03*
X88018D02*
D03*
X98018D02*
D03*
X108018D02*
D03*
X118018D02*
D03*
X128018D02*
D03*
X138018D02*
D03*
X148018D02*
D03*
X158018D02*
D03*
X168018D02*
D03*
X178018D02*
D03*
X188018D02*
D03*
X198018D02*
D03*
X208018D02*
D03*
X218018D02*
D03*
X228018D02*
D03*
X238018D02*
D03*
X248018D02*
D03*
X258018D02*
D03*
X268018D02*
D03*
X278018D02*
D03*
X288018D02*
D03*
X298018D02*
D03*
X308018D02*
D03*
X318018D02*
D03*
X134745Y6474D02*
D03*
X124745D02*
D03*
X114745D02*
D03*
X104745D02*
D03*
X94745D02*
D03*
X84745D02*
D03*
X74745D02*
D03*
X64745D02*
D03*
X54745D02*
D03*
X44745D02*
D03*
X34745D02*
D03*
X24745D02*
D03*
X14745D02*
D03*
X6474Y12095D02*
D03*
Y22095D02*
D03*
Y32095D02*
D03*
Y42095D02*
D03*
Y52095D02*
D03*
Y62095D02*
D03*
Y72095D02*
D03*
Y82095D02*
D03*
Y92094D02*
D03*
Y102094D02*
D03*
Y112094D02*
D03*
Y122094D02*
D03*
Y132094D02*
D03*
Y142094D02*
D03*
Y152094D02*
D03*
Y162094D02*
D03*
Y172094D02*
D03*
Y182094D02*
D03*
Y192094D02*
D03*
Y202094D02*
D03*
Y212094D02*
D03*
Y222094D02*
D03*
Y232094D02*
D03*
Y242094D02*
D03*
Y252094D02*
D03*
Y262094D02*
D03*
Y272094D02*
D03*
Y282094D02*
D03*
Y292094D02*
D03*
Y302094D02*
D03*
Y312094D02*
D03*
Y322094D02*
D03*
Y332094D02*
D03*
Y342094D02*
D03*
Y352094D02*
D03*
Y362094D02*
D03*
Y372094D02*
D03*
Y382094D02*
D03*
Y392094D02*
D03*
Y402094D02*
D03*
Y412094D02*
D03*
Y422094D02*
D03*
Y432094D02*
D03*
Y442094D02*
D03*
Y452094D02*
D03*
Y462094D02*
D03*
Y472094D02*
D03*
Y482094D02*
D03*
Y492094D02*
D03*
Y502094D02*
D03*
Y512094D02*
D03*
X774744Y6474D02*
D03*
X764744D02*
D03*
X754744D02*
D03*
X744744D02*
D03*
X734744D02*
D03*
X724744D02*
D03*
X714744D02*
D03*
X704744D02*
D03*
X694744D02*
D03*
X684744D02*
D03*
X674744D02*
D03*
X664744D02*
D03*
X654744D02*
D03*
X644744D02*
D03*
X634744D02*
D03*
X624744D02*
D03*
X614744D02*
D03*
X604744D02*
D03*
X594744D02*
D03*
X584744D02*
D03*
X574744D02*
D03*
X564744D02*
D03*
X554744D02*
D03*
X544744D02*
D03*
X534744D02*
D03*
X524744D02*
D03*
X514744D02*
D03*
X504744D02*
D03*
X494744D02*
D03*
X484744D02*
D03*
X474744D02*
D03*
X464744D02*
D03*
X454744D02*
D03*
X444744D02*
D03*
X404745D02*
D03*
X394745D02*
D03*
X384745D02*
D03*
X374745D02*
D03*
X364745D02*
D03*
X354745D02*
D03*
X344745D02*
D03*
X334745D02*
D03*
X324745D02*
D03*
X314745D02*
D03*
X304745D02*
D03*
X294745D02*
D03*
X284745D02*
D03*
X274745D02*
D03*
X264745D02*
D03*
X254745D02*
D03*
X244745D02*
D03*
X234745D02*
D03*
X224745D02*
D03*
X214745D02*
D03*
X204745D02*
D03*
X194745D02*
D03*
X184745D02*
D03*
X174745D02*
D03*
X164745D02*
D03*
X154745D02*
D03*
X144745D02*
D03*
X817386Y583163D02*
D03*
Y573163D02*
D03*
Y563163D02*
D03*
Y553163D02*
D03*
Y543163D02*
D03*
Y533163D02*
D03*
Y523163D02*
D03*
X817680Y513168D02*
D03*
X823805Y505263D02*
D03*
X833728Y504023D02*
D03*
X843375Y501389D02*
D03*
X843526Y491390D02*
D03*
Y481390D02*
D03*
Y471390D02*
D03*
Y461390D02*
D03*
Y451390D02*
D03*
Y441390D02*
D03*
Y431390D02*
D03*
Y421390D02*
D03*
Y411390D02*
D03*
Y401390D02*
D03*
Y391390D02*
D03*
Y381390D02*
D03*
Y371390D02*
D03*
Y361390D02*
D03*
Y351390D02*
D03*
Y341390D02*
D03*
Y331390D02*
D03*
Y321390D02*
D03*
Y311391D02*
D03*
Y301391D02*
D03*
Y291391D02*
D03*
Y281391D02*
D03*
Y271391D02*
D03*
Y241391D02*
D03*
Y231391D02*
D03*
Y221391D02*
D03*
Y211391D02*
D03*
Y201391D02*
D03*
Y191391D02*
D03*
Y181391D02*
D03*
Y171391D02*
D03*
Y161391D02*
D03*
Y151391D02*
D03*
Y141391D02*
D03*
Y131391D02*
D03*
Y121391D02*
D03*
Y111391D02*
D03*
Y101391D02*
D03*
Y91391D02*
D03*
Y81391D02*
D03*
Y71391D02*
D03*
Y61391D02*
D03*
Y51391D02*
D03*
Y41391D02*
D03*
Y31391D02*
D03*
Y21391D02*
D03*
X843451Y11391D02*
D03*
X834744Y6474D02*
D03*
X824744D02*
D03*
X814744D02*
D03*
X804744D02*
D03*
X794744D02*
D03*
X784744D02*
D03*
X843526Y261391D02*
D03*
Y251391D02*
D03*
X843526Y836646D02*
D03*
Y826646D02*
D03*
Y816646D02*
D03*
Y806646D02*
D03*
Y796646D02*
D03*
Y786646D02*
D03*
Y776646D02*
D03*
Y766646D02*
D03*
Y756646D02*
D03*
Y746646D02*
D03*
Y736646D02*
D03*
Y726646D02*
D03*
Y716646D02*
D03*
Y706646D02*
D03*
Y696646D02*
D03*
Y686646D02*
D03*
X836499Y679532D02*
D03*
X826504Y679234D02*
D03*
X818616Y673087D02*
D03*
X817386Y663163D02*
D03*
Y653163D02*
D03*
Y643163D02*
D03*
Y633163D02*
D03*
Y623163D02*
D03*
Y613163D02*
D03*
Y603163D02*
D03*
Y593163D02*
D03*
X668020Y63671D02*
D03*
X589280Y98201D02*
D03*
X562697D02*
D03*
X515620Y177800D02*
D03*
X352401Y238021D02*
D03*
X243568Y238640D02*
D03*
X205740Y195287D02*
D03*
X254441Y144780D02*
D03*
X216550Y74260D02*
D03*
X272926Y69510D02*
D03*
Y76010D02*
D03*
X306210Y89120D02*
D03*
X747060Y126712D02*
D03*
X651310Y122984D02*
D03*
Y128984D02*
D03*
Y135684D02*
D03*
Y141670D02*
D03*
X408672Y139740D02*
D03*
Y223520D02*
D03*
X302260Y215127D02*
D03*
X387495Y119554D02*
D03*
X386883Y126879D02*
D03*
X457015Y161169D02*
D03*
X449709D02*
D03*
X580670Y173790D02*
D03*
Y180757D02*
D03*
X232548Y50800D02*
D03*
X244585Y221477D02*
D03*
X747091Y170180D02*
D03*
Y174800D02*
D03*
X386883Y139740D02*
D03*
X352680Y110490D02*
D03*
X378036D02*
D03*
X325710Y145320D02*
D03*
X354749Y215127D02*
D03*
X360680Y74200D02*
D03*
Y93119D02*
D03*
X679984Y619320D02*
D03*
Y638320D02*
D03*
X303741Y82510D02*
D03*
X334073Y76010D02*
D03*
X692484Y490220D02*
D03*
X341153Y69510D02*
D03*
X679984Y580428D02*
D03*
X341153Y56510D02*
D03*
X632410Y60671D02*
D03*
X334073Y95510D02*
D03*
D80*
X128820Y65866D02*
D03*
Y133120D02*
D03*
X167640D02*
D03*
Y200373D02*
D03*
X128820D02*
D03*
X90000Y65866D02*
D03*
Y133120D02*
D03*
M02*
