G04*
G04 #@! TF.GenerationSoftware,Altium Limited,Altium Designer,25.8.1 (18)*
G04*
G04 Layer_Color=128*
%FSLAX44Y44*%
%MOMM*%
G71*
G04*
G04 #@! TF.SameCoordinates,FED8D01D-8D25-4793-B94F-4791862208F0*
G04*
G04*
G04 #@! TF.FilePolarity,Positive*
G04*
G01*
G75*
%ADD87R,1.1938X0.7620*%
%ADD88R,2.4892X3.0988*%
G36*
X129554Y354000D02*
X152446D01*
Y340506D01*
X129554D01*
Y354000D01*
D02*
G37*
G36*
Y369494D02*
X152446D01*
Y356000D01*
X129554D01*
Y369494D01*
D02*
G37*
G36*
Y426000D02*
X152446D01*
Y412506D01*
X129554D01*
Y426000D01*
D02*
G37*
G36*
X222894Y354000D02*
X245786D01*
Y340506D01*
X222894D01*
Y354000D01*
D02*
G37*
G36*
Y369494D02*
X245786D01*
Y356000D01*
X222894D01*
Y369494D01*
D02*
G37*
G36*
Y426000D02*
X245786D01*
Y412506D01*
X222894D01*
Y426000D01*
D02*
G37*
G36*
X129554Y441494D02*
X152446D01*
Y428000D01*
X129554D01*
Y441494D01*
D02*
G37*
G36*
Y498000D02*
X152446D01*
Y484506D01*
X129554D01*
Y498000D01*
D02*
G37*
G36*
Y513494D02*
X152446D01*
Y500000D01*
X129554D01*
Y513494D01*
D02*
G37*
G36*
X222894Y441494D02*
X245786D01*
Y428000D01*
X222894D01*
Y441494D01*
D02*
G37*
G36*
Y498000D02*
X245786D01*
Y484506D01*
X222894D01*
Y498000D01*
D02*
G37*
G36*
Y513494D02*
X245786D01*
Y500000D01*
X222894D01*
Y513494D01*
D02*
G37*
G36*
X316234Y354000D02*
X339126D01*
Y340506D01*
X316234D01*
Y354000D01*
D02*
G37*
G36*
Y369494D02*
X339126D01*
Y356000D01*
X316234D01*
Y369494D01*
D02*
G37*
G36*
Y426000D02*
X339126D01*
Y412506D01*
X316234D01*
Y426000D01*
D02*
G37*
G36*
X409574Y354000D02*
X432466D01*
Y340506D01*
X409574D01*
Y354000D01*
D02*
G37*
G36*
Y369494D02*
X432466D01*
Y356000D01*
X409574D01*
Y369494D01*
D02*
G37*
G36*
Y426000D02*
X432466D01*
Y412506D01*
X409574D01*
Y426000D01*
D02*
G37*
G36*
X316234Y441494D02*
X339126D01*
Y428000D01*
X316234D01*
Y441494D01*
D02*
G37*
G36*
Y498000D02*
X339126D01*
Y484506D01*
X316234D01*
Y498000D01*
D02*
G37*
G36*
Y513494D02*
X339126D01*
Y500000D01*
X316234D01*
Y513494D01*
D02*
G37*
G36*
X409574Y441494D02*
X432466D01*
Y428000D01*
X409574D01*
Y441494D01*
D02*
G37*
G36*
Y498000D02*
X432466D01*
Y484506D01*
X409574D01*
Y498000D01*
D02*
G37*
G36*
Y513494D02*
X432466D01*
Y500000D01*
X409574D01*
Y513494D01*
D02*
G37*
G36*
X129554Y570000D02*
X152446D01*
Y556506D01*
X129554D01*
Y570000D01*
D02*
G37*
G36*
Y585494D02*
X152446D01*
Y572000D01*
X129554D01*
Y585494D01*
D02*
G37*
G36*
Y642000D02*
X152446D01*
Y628506D01*
X129554D01*
Y642000D01*
D02*
G37*
G36*
X222894Y570000D02*
X245786D01*
Y556506D01*
X222894D01*
Y570000D01*
D02*
G37*
G36*
Y585494D02*
X245786D01*
Y572000D01*
X222894D01*
Y585494D01*
D02*
G37*
G36*
Y642000D02*
X245786D01*
Y628506D01*
X222894D01*
Y642000D01*
D02*
G37*
G36*
X129554Y657494D02*
X152446D01*
Y644000D01*
X129554D01*
Y657494D01*
D02*
G37*
G36*
Y714000D02*
X152446D01*
Y700506D01*
X129554D01*
Y714000D01*
D02*
G37*
G36*
Y729494D02*
X152446D01*
Y716000D01*
X129554D01*
Y729494D01*
D02*
G37*
G36*
X222894Y657494D02*
X245786D01*
Y644000D01*
X222894D01*
Y657494D01*
D02*
G37*
G36*
Y714000D02*
X245786D01*
Y700506D01*
X222894D01*
Y714000D01*
D02*
G37*
G36*
Y729494D02*
X245786D01*
Y716000D01*
X222894D01*
Y729494D01*
D02*
G37*
G36*
X316234Y570000D02*
X339126D01*
Y556506D01*
X316234D01*
Y570000D01*
D02*
G37*
G36*
Y585494D02*
X339126D01*
Y572000D01*
X316234D01*
Y585494D01*
D02*
G37*
G36*
Y642000D02*
X339126D01*
Y628506D01*
X316234D01*
Y642000D01*
D02*
G37*
G36*
X409574Y570000D02*
X432466D01*
Y556506D01*
X409574D01*
Y570000D01*
D02*
G37*
G36*
Y585494D02*
X432466D01*
Y572000D01*
X409574D01*
Y585494D01*
D02*
G37*
G36*
Y642000D02*
X432466D01*
Y628506D01*
X409574D01*
Y642000D01*
D02*
G37*
G36*
X316234Y657494D02*
X339126D01*
Y644000D01*
X316234D01*
Y657494D01*
D02*
G37*
G36*
Y714000D02*
X339126D01*
Y700506D01*
X316234D01*
Y714000D01*
D02*
G37*
G36*
Y729494D02*
X339126D01*
Y716000D01*
X316234D01*
Y729494D01*
D02*
G37*
G36*
X409574Y657494D02*
X432466D01*
Y644000D01*
X409574D01*
Y657494D01*
D02*
G37*
G36*
Y714000D02*
X432466D01*
Y700506D01*
X409574D01*
Y714000D01*
D02*
G37*
G36*
Y729494D02*
X432466D01*
Y716000D01*
X409574D01*
Y729494D01*
D02*
G37*
D87*
X305582Y489000D02*
D03*
Y633000D02*
D03*
X212242D02*
D03*
X398922Y489000D02*
D03*
X118902Y633000D02*
D03*
X398922Y561000D02*
D03*
X305582Y705000D02*
D03*
X212242Y345000D02*
D03*
X118902D02*
D03*
X398922Y417000D02*
D03*
X118902D02*
D03*
Y705000D02*
D03*
X212242Y489000D02*
D03*
X118902D02*
D03*
X212242Y705000D02*
D03*
X398922Y345000D02*
D03*
X212242Y561000D02*
D03*
X118902D02*
D03*
X305582Y417000D02*
D03*
X212242D02*
D03*
X305582Y345000D02*
D03*
X398922Y705000D02*
D03*
X305582Y561000D02*
D03*
X398922Y633000D02*
D03*
Y653000D02*
D03*
X443118D02*
D03*
Y633000D02*
D03*
X305582Y581000D02*
D03*
X349778Y561000D02*
D03*
Y581000D02*
D03*
X398922Y725000D02*
D03*
X443118Y705000D02*
D03*
Y725000D02*
D03*
X349778Y489000D02*
D03*
Y509000D02*
D03*
X443118Y581000D02*
D03*
Y561000D02*
D03*
Y489000D02*
D03*
Y509000D02*
D03*
X163098D02*
D03*
Y489000D02*
D03*
Y581000D02*
D03*
Y561000D02*
D03*
X256438Y509000D02*
D03*
Y489000D02*
D03*
Y581000D02*
D03*
Y561000D02*
D03*
X163098Y633000D02*
D03*
Y653000D02*
D03*
X349778Y725000D02*
D03*
Y705000D02*
D03*
Y653000D02*
D03*
Y633000D02*
D03*
X256438Y653000D02*
D03*
Y633000D02*
D03*
Y705000D02*
D03*
Y725000D02*
D03*
X163098D02*
D03*
Y705000D02*
D03*
X256438Y437000D02*
D03*
Y417000D02*
D03*
X163098Y437000D02*
D03*
Y417000D02*
D03*
X443118Y437000D02*
D03*
Y417000D02*
D03*
X163098Y365000D02*
D03*
Y345000D02*
D03*
X256438D02*
D03*
Y365000D02*
D03*
X443118Y345000D02*
D03*
Y365000D02*
D03*
X349778Y345000D02*
D03*
Y365000D02*
D03*
Y437000D02*
D03*
Y417000D02*
D03*
X118902Y437000D02*
D03*
X305582D02*
D03*
X118902Y725000D02*
D03*
X212242D02*
D03*
X118902Y509000D02*
D03*
X212242D02*
D03*
X305582D02*
D03*
X118902Y653000D02*
D03*
X398922Y509000D02*
D03*
X212242Y653000D02*
D03*
X305582D02*
D03*
Y725000D02*
D03*
X398922Y581000D02*
D03*
X118902D02*
D03*
X212242D02*
D03*
X398922Y365000D02*
D03*
X305582D02*
D03*
X212242Y437000D02*
D03*
X398922D02*
D03*
X118902Y365000D02*
D03*
X212242D02*
D03*
D88*
X421020Y643000D02*
D03*
X327680Y571000D02*
D03*
X421020Y715000D02*
D03*
X327680Y499000D02*
D03*
X421020Y571000D02*
D03*
Y499000D02*
D03*
X141000D02*
D03*
Y571000D02*
D03*
X234340Y499000D02*
D03*
Y571000D02*
D03*
X141000Y643000D02*
D03*
X327680Y715000D02*
D03*
Y643000D02*
D03*
X234340D02*
D03*
Y715000D02*
D03*
X141000D02*
D03*
X234340Y427000D02*
D03*
X141000D02*
D03*
X421020D02*
D03*
X141000Y355000D02*
D03*
X234340D02*
D03*
X421020D02*
D03*
X327680D02*
D03*
Y427000D02*
D03*
M02*
