M48
;Layer_Color=9474304
;FILE_FORMAT=4:2
METRIC,TZ
;TYPE=PLATED
T01F00S00C0.20
T02F00S00C0.40
T03F00S00C0.50
T04F00S00C0.60
T05F00S00C0.65
T06F00S00C3.30
%
T01
X65Y121
Y221
Y321
Y421
Y521
Y621
Y721
Y821
Y921
Y1021
Y1121
Y1221
Y1321
Y1421
Y1521
Y1621
Y1721
Y1821
Y1921
Y2021
Y2121
Y2221
Y2321
Y2421
X330Y1834
Y1592
X587
Y1834
Y1106
Y864
X330
Y1106
X1188Y1235
Y1415
Y1594
X1368Y1774
Y1415
Y1055
X1468Y309
X1225
X1247Y65
X1347
X1447
X1547
X1647
X1747
X1847
X1947
X2047
X2147
X2247
X2347
X2447
X2547
X2647
X2747
X2847
X2947
X3047
X3147
X3166Y309
X2924
X2681
X2438
X2196
X1953
X2325Y508
X2166Y743
X2729Y760
Y695
X3037Y825
X3062Y891
X2544Y1448
X2391Y1510
X2446Y2215
X2436Y2386
X2057Y1953
X1188Y2133
Y2313
X1368
X3023Y2151
X1147Y65
X1047
X947
X847
X747
X647
X547
X447
X347
X247
X147
X3247
X3347
X3447
X3547
X3647
X3747
X3847
X3947
X4047
X4447
X4547
X4647
X4747
X4847
X4947
X5047
X5147
X5247
X5347
X5447
X5547
X5647
X5747
X5847
X5947
X6047
X6147
X6247
X6347
X6447
X6547
X6647
X6747
X6847
X6947
X7047
X6993Y309
X6508
X6265
X6023
X5780
X5537
X5295
X5052
X4809
X4686Y637
X4566
X4688Y914
X4416Y931
X3899
X3869Y795
X3607Y742
Y931
X3527Y1105
X3780
X3875Y1196
X3869Y1269
Y1397
X4087
X4497Y1612
X4570
X5156Y1778
X5177Y1312
X5419
X5627Y982
X5893
X6324Y607
X6680Y637
X6513Y1230
Y1290
Y1357
Y1417
X6556Y1897
X6313
X5807Y1808
Y1738
X5867Y2338
X6047
X5688
X5508
X5328
X5149
X4969
X4087Y2235
X3835Y2233
Y2054
Y1874
Y2413
X3524Y2380
X3500Y2469
X3547Y2151
X3527Y1505
X3257Y1453
X3341Y955
Y760
X3412Y695
Y565
X3409Y309
X3652
X7236
X7247Y65
X7347
X7447
X7547
X7647
X7747
X7847
X7947
X8047
X8147
X8247
X8347
X8435Y114
X8435Y214
Y314
Y414
Y514
Y614
Y714
Y814
Y914
Y1014
Y1114
Y1214
Y1314
Y1414
Y1514
Y1614
Y1714
Y1814
Y1914
Y2014
Y2114
Y2214
Y2314
Y2414
X8262Y2133
Y1953
Y1774
Y1594
Y1415
Y1235
Y1055
Y876
X8083
Y1055
Y1235
Y1415
Y1594
Y1774
Y1953
X7903
Y1774
Y1594
Y1415
Y1235
Y1055
Y876
X7723
Y696
Y516
Y337
Y1055
Y1235
Y1415
Y1594
Y1774
Y1953
Y2133
X7903
X8083
X7723Y2313
X7471Y1748
Y1702
X7471Y1267
X7147Y65
X7185Y3031
Y3211
Y3390
Y3570
Y3750
X7364
X7544
Y3570
X7364
Y3390
X7544
Y3211
X7364
Y3031
X7544
X7723
Y3211
Y3390
Y3570
Y3750
Y3929
X7544
X7364
X7185
Y4109
X7364
X7544
Y4288
X7364
X7185
Y4468
X7364
X7544
Y4648
X7364
X7185
Y4827
X7364
X7544
X7723
X7903
Y4648
Y4468
Y4288
Y4109
X8083
Y4288
Y4468
Y4648
Y4827
X8435Y4814
Y4914
X8434Y5014
X8337Y5040
X8238Y5053
X8177Y5132
X8174Y5232
Y5332
Y5432
Y5532
Y5632
Y5732
Y5832
Y5932
Y6032
Y6132
Y6232
Y6332
Y6432
X7723Y6444
Y6264
Y6085
Y5905
Y5725
Y5546
Y5366
Y4648
Y4468
Y4288
Y4109
X8435Y4114
Y4214
Y4314
Y4414
Y4514
Y4614
Y4714
Y4014
Y3914
Y3814
Y3714
Y3614
Y3514
Y3414
Y3314
Y3214
Y3114
Y3014
Y2914
Y2814
Y2714
Y2614
Y2514
X7723Y2492
Y2672
Y2851
X6950Y2949
X6896
X6925Y3073
X6508Y3200
X6328
X6149
X5969
X5598Y3254
Y3074
X5301Y3071
X5171Y3070
X5088Y3129
X5107Y3268
X4847Y3129
X4572Y3268
X4496Y3555
X4572Y3657
X4781Y3555
X4847Y3555
X4651Y3906
X5172Y3940
X5301
X5598Y3793
Y3613
Y3433
X5842Y3886
X6022
X6201
X6381
X6604Y3877
Y4057
Y4236
Y4416
Y4596
X6925Y4835
Y4902
X6800Y5121
Y5301
Y5510
X6756Y5605
X6800Y5690
Y5804
X6495Y5803
Y5624
X6502Y6121
Y6301
X6298Y6198
X6800Y6193
Y6383
X7046Y5994
X6228Y5359
X6049
X5869
X5690
X5588Y5449
Y5269
Y5090
Y4910
X5766Y4890
X5969Y4699
X5856Y4242
X5598Y4331
Y4152
X4923Y4240
X5171Y4635
X5302
X5106Y4734
X4781Y4874
X4846Y5016
X4510Y4987
X4572Y4734
X4369Y4622
X4274Y4635
X4095
X4022Y4800
X3683Y4839
Y4659
X3434Y4705
X3304
X3305Y5359
X3240
X3435Y5471
X3748Y5523
X3751Y5653
X3748Y5773
X3683Y5916
Y6096
X3435Y6169
X3305
X3900Y6332
X4095Y6071
X4274
X4369
X4572Y6174
X4513Y6426
X4781Y6314
X4847Y6314
X5106Y6174
X5171Y6069
X5301Y6013
X5367
X5588Y6109
Y6288
X5860Y6415
X5766Y5610
X5301Y5407
X5172Y5449
X4826Y5613
X4651Y5372
X4363Y5217
X3835Y5123
X3683Y5018
Y4300
Y4120
X3835Y4165
X3899Y4231
X3434Y4013
X3305Y3939
X3240Y3896
X3315Y3175
X3500Y3029
X3628Y2954
X3706Y2769
X3886
X4066
X4245
X4425
X4604
X4784
X5143
X5323
X5503
X5682
X5862
X6041
X6221
X6604Y3338
Y3518
Y3697
X4274Y3070
Y2954
X4095
Y3070
X4340Y4520
X3902Y5522
X5032Y5953
X3045Y6233
X2962Y6406
X2785Y5893
X2850Y5710
X2963
X2946Y5319
X3045Y5359
X3052Y4960
X2915Y4403
X2785Y4445
X2507Y4502
X2718Y4014
X2583Y3870
X2407Y3870
X2228
X2143Y4091
X1907Y4109
X1727
Y3929
Y3750
Y3570
Y3390
Y3211
Y3031
X1907
Y3211
Y3390
Y3570
Y3929
Y4288
X1727
Y4468
Y4648
Y4827
Y5007
Y5187
Y5366
Y5546
Y5725
Y5905
Y6085
Y6264
Y6444
X1907
Y6264
Y6085
Y5725
Y5546
Y5366
Y5007
Y4827
Y4648
X1368
X1268Y4641
Y4774
X1135
Y4641
Y4508
X1268
X1368
X1002
Y4641
Y4774
Y4907
Y5040
Y5173
Y5306
X1135
X1268
Y5439
X1135
X1002
Y5572
Y5705
X1135
Y5972
X1268
X1368Y5944
Y6085
X1268Y6105
Y6238
X1135
Y6105
X1002
Y5972
Y5838
X869
Y5705
Y5572
Y5439
Y5306
Y5173
Y5040
Y4907
Y4774
Y4641
Y4508
Y4375
X1002
Y4242
Y4109
Y3976
Y3843
Y3710
Y3577
Y3444
Y3311
Y3177
Y3044
X869
Y3177
Y3311
Y3444
Y3577
Y3710
Y3843
Y3976
Y4109
Y4242
X736
Y4375
Y4508
Y4641
Y4774
Y4907
Y5040
Y5173
Y5306
Y5439
Y5572
Y5705
Y5838
Y5972
X869
Y6105
Y6238
X1002
Y6371
X869
X736
Y6238
Y6105
X603
Y5972
Y5838
Y5705
Y5572
Y5439
Y5306
Y5173
Y5040
Y4907
Y4774
Y4641
Y4508
Y4375
Y4242
Y4109
X736
X470
X337
Y4242
Y4375
Y4508
Y4641
Y4774
Y4907
Y5040
Y5173
Y5306
Y5439
Y5572
Y5705
Y5838
Y5972
Y6105
Y6238
Y6371
X470
X603
Y6238
X470
Y6105
Y5972
Y5838
Y5705
Y5572
Y5439
Y5306
Y5173
Y5040
Y4907
Y4774
Y4641
Y4508
Y4375
Y4242
X65Y4221
Y4121
Y4021
Y3921
Y3821
Y3721
Y3621
Y3521
Y3421
Y3321
Y3221
Y3121
Y3021
Y2921
Y2821
Y2721
Y2621
Y2521
X1368Y2851
Y3031
Y3211
Y3750
Y3929
X1258Y4064
X1135Y4109
X65Y4321
Y4421
Y4521
Y4621
Y4721
Y4821
Y4921
Y5021
Y5121
Y5221
Y5321
Y5421
Y5521
Y5621
Y5721
Y5821
Y5921
Y6021
Y6121
Y6221
Y6321
Y6421
X2152Y6250
X2150Y5687
X2507Y5957
X2718Y5469
X2583Y5319
X2140Y4990
X1368Y5232
Y5366
X2915Y4153
X3027Y4244
X3045Y3896
X2980
X2950Y3452
X2955Y3175
X2776
X2596
X2417
X2237
X2152Y3365
X2246Y2769
X3135Y3175
X2940Y6539
X3005Y6707
X3070
X3056Y7125
X2940Y7188
X2877Y7062
X2810Y7292
X2507Y7365
X2446Y7881
Y8060
X2266
X2086
Y7881
X2266
X2625
Y8060
X2805
X2984
X3164
Y7881
X2984
X2805
Y8240
X2625
X2446
X2266
X2086
X1907
Y8060
X1727
Y7881
Y7701
Y7522
Y7342
Y7162
Y6983
Y6803
Y6623
X1907Y6803
Y6983
Y7162
Y7522
Y7701
Y7881
X1368
X1188
Y8060
X1368
Y8240
X1188
X1009
Y8060
Y7881
X829
Y8060
Y8240
X780Y8435
X680
X580
X480
X380
X280
X180
X81Y8420
X65Y8321
Y8221
Y8121
Y8021
Y7921
Y7821
Y7721
Y7621
Y7521
Y7421
Y7321
Y7221
Y7121
Y7021
Y6921
Y6821
Y6721
Y6621
Y6521
X337Y6504
Y6637
Y6770
Y6903
Y7036
Y7169
Y7302
Y7435
Y7568
Y7701
X470
X603
Y7568
X736
X869
X1002
X1135
X1268
Y7701
X1368Y7701
Y7522
X1268Y7435
X1135
X1002
Y7302
Y7169
X1135
Y6903
X1268
Y6770
Y6637
X1135
Y6770
X1002
Y6903
Y7036
X869
Y6903
Y6770
Y6637
X1002
Y6504
X869
X736
Y6637
Y6770
Y6903
Y7036
Y7169
X869
Y7302
Y7435
X736
Y7302
X603
Y7435
X470
Y7302
Y7169
X603
Y7036
Y6903
Y6770
Y6637
Y6504
X470
Y6637
Y6770
Y6903
Y7036
Y7568
X736Y7701
X869
X1002
X1135
X1180Y8435
X1080
X980
X880
X1280
X1380
X1480
X1580
X1680
X1780
X1880
X1980
X2080
X2180
X2280
X2380
X2480
X2580
X2680
X2780
X2880
X2980
X3080
X3164Y8240
X2984
X1727
X1548
X1368Y6803
X2253Y6758
X2433
X2718Y6868
X2159Y6960
X3265Y6756
X3632Y6821
Y6883
X3759Y6821
X3931
X3835Y6527
X3683Y6564
X4369Y6662
X4651Y6812
X5172Y6845
X5301
X5588Y6827
Y6648
Y6468
X5766Y6738
X5945
X6125
X6305
X6502Y6682
Y6502
X6707Y6892
X6773
X6889Y7264
X6954Y7266
X7116Y7342
Y7162
Y7522
X6936
X6756
X6577
X6397
X6218
X6038
X5858
X5679
X5499
X5319
X5140
X4960
X4781
X4601
X4421
X4242
X4062
X3883
Y7701
X4062
X4242
X4421
X4601
X4781
X4960
X5140
X5319
X5499
X5679
X5858
X6038
X6218
X6397
X6577
X6756
X6936
X7116
Y7881
Y8060
Y8240
X6936
X6756
X6577
X6397
X6218
X6038
X5858
X5679
X5499
X5319
Y8060
X5499
X5679
X5858
X6038
X6218
X6397
X6577
X6756
X6936
Y7881
X6756
X6577
X6397
X6218
X6038
X5858
X5679
X5499
X5319
X5140
Y8060
Y8240
X5180Y8435
X5080
X4980
X4880
X5280
X5380
X5480
X5580
X5680
X5780
X5880
X5980
X6080
X6180
X6280
X6380
X6480
X6580
X6680
X6780
X6880
X6980
X7080
X5860Y7150
X5588Y7186
Y7007
X4923Y7150
X4960Y7881
X4781
X4601
X4421
X4242
Y8060
X4062
X3883
X3703
X3523
X3344
Y7881
X3523
X3703
Y7701
Y7522
X3460Y7562
X3330Y7614
X3344Y8240
X3523
X3703
X3883
X4062
X4242
X4280Y8435
X4180
X4080
X3980
X3880
X3780
X3680
X3580
X3480
X3380
X3280
X3180
X4380
X4062Y7881
X3883
X7295
Y8060
Y8240
X7475
X7655
Y8060
X7475
Y7881
Y7701
Y7522
Y7342
X7655
X7834
X8014
X8193
Y7162
X8014
Y6983
X7834
X7655
Y7162
X7834
X7475
Y6983
X7295
Y7162
Y7342
Y7522
Y7701
X7655
X7834
X8014
X8193
Y7522
X8014
X7834
X7655
Y7881
X7680Y8435
X7580
X7480
X7380
X7280
X7180
X7780
X7880
X7980
X8080
X8180
X8280
X8380Y8435
X8435Y8366
Y8266
Y8166
Y8066
Y7966
Y7866
Y7766
Y7666
Y7566
Y7466
Y7366
Y7266
Y7166
Y7066
Y6966
Y6866
X8365Y6795
X8265Y6792
X8186Y6731
X8174Y6632
Y6532
T02
X4442Y8153
X4442Y8327
X4566Y8451
X4740Y8451
X4864Y8327
X4864Y8153
X4740Y8029
X4566Y8029
T03
X149Y273
X149Y447
X273Y571
X447Y571
X571Y447
X571Y273
X447Y149
X273Y149
Y2349
X447Y2349
X571Y2473
X149
X7934
X8057Y2349
X8232Y2349
X8356Y2473
X8351Y447
X8351Y273
X8227Y149
X8053Y149
X7929Y273
X7929Y447
X8053Y571
X8227Y571
X8232Y2771
X8057Y2771
X7934Y2647
X8356
X8227Y3429
X8053Y3429
X7929Y3553
X7929Y3727
X8053Y3851
X8227Y3851
X8351Y3727
X8351Y3553
X571
X571Y3727
X447Y3851
X273Y3851
X149Y3727
X149Y3553
X273Y3429
X447Y3429
Y2771
X273Y2771
X149Y2647
X571
X447Y7929
X273Y7929
X149Y8053
X149Y8227
X273Y8351
X447Y8351
X571Y8227
X571Y8053
X7929
X7929Y8227
X8053Y8351
X8227Y8351
X8351Y8227
X8351Y8053
X8227Y7929
X8053Y7929
T04
X900Y659
X1288
Y1331
X1676
Y2004
X1288
X900Y1331
T05
X4877Y628
X5004
X5131
T06
X360Y360
X4250Y210
X8140Y360
X8145Y2560
X8140Y3640
X360
Y2560
Y8140
X4653Y8240
X8140Y8140
M30
