G04*
G04 #@! TF.GenerationSoftware,Altium Limited,Altium Designer,25.8.1 (18)*
G04*
G04 Layer_Color=8421504*
%FSLAX44Y44*%
%MOMM*%
G71*
G04*
G04 #@! TF.SameCoordinates,FED8D01D-8D25-4793-B94F-4791862208F0*
G04*
G04*
G04 #@! TF.FilePolarity,Positive*
G04*
G01*
G75*
%ADD20R,0.3500X1.8000*%
%ADD21R,1.0500X1.0500*%
%ADD22R,0.8000X0.7000*%
%ADD23R,2.3455X0.6325*%
%ADD24R,2.3455X3.1725*%
%ADD25R,0.7000X0.8000*%
%ADD26R,2.3000X2.8000*%
%ADD27O,1.8000X0.6000*%
%ADD28R,1.8796X2.3622*%
%ADD29R,0.9500X0.9000*%
%ADD30R,0.3500X1.5000*%
%ADD31O,0.6000X1.8000*%
%ADD32R,1.2696X1.3462*%
%ADD33R,2.3000X2.2860*%
%ADD34R,2.3622X1.8796*%
%ADD35O,1.3000X0.3500*%
%ADD36R,0.6000X1.0000*%
%ADD37R,1.7018X0.8128*%
%ADD38R,3.0988X2.2098*%
%ADD39R,0.8000X0.7000*%
%ADD40R,3.3000X3.1500*%
%ADD41R,0.6000X0.9000*%
D20*
X566250Y233807D02*
D03*
X578950D02*
D03*
X547200D02*
D03*
X553550D02*
D03*
X572600D02*
D03*
X585300D02*
D03*
X559900D02*
D03*
X540850D02*
D03*
Y182753D02*
D03*
X547200D02*
D03*
X553550D02*
D03*
X559900D02*
D03*
X572600D02*
D03*
X578950D02*
D03*
X585300D02*
D03*
X566250D02*
D03*
D21*
X449518Y98870D02*
D03*
X462218D02*
D03*
X436818D02*
D03*
D22*
X475018Y255650D02*
D03*
X508980Y648760D02*
D03*
Y504760D02*
D03*
X244600Y161100D02*
D03*
X596900Y144020D02*
D03*
X491640Y360760D02*
D03*
X508980D02*
D03*
X491640Y504760D02*
D03*
Y648760D02*
D03*
Y693240D02*
D03*
Y709240D02*
D03*
Y664760D02*
D03*
Y549240D02*
D03*
Y565240D02*
D03*
Y520760D02*
D03*
Y405240D02*
D03*
Y421240D02*
D03*
X526320Y376760D02*
D03*
Y360760D02*
D03*
X508980Y376760D02*
D03*
X491640D02*
D03*
X521970Y159650D02*
D03*
Y143650D02*
D03*
X502920Y160020D02*
D03*
Y144020D02*
D03*
X540850Y160020D02*
D03*
Y144020D02*
D03*
X559900Y160020D02*
D03*
Y144020D02*
D03*
X578950D02*
D03*
Y160020D02*
D03*
X596900D02*
D03*
X244600Y177100D02*
D03*
X228600D02*
D03*
Y161100D02*
D03*
X526320Y504760D02*
D03*
Y648760D02*
D03*
X508980Y693240D02*
D03*
Y549240D02*
D03*
Y405240D02*
D03*
X526320D02*
D03*
Y693240D02*
D03*
X475018Y239650D02*
D03*
X508980Y565240D02*
D03*
Y421240D02*
D03*
X526320Y709240D02*
D03*
Y520760D02*
D03*
Y421240D02*
D03*
Y664760D02*
D03*
X508980Y520760D02*
D03*
Y664760D02*
D03*
Y709240D02*
D03*
D23*
X381254Y185207D02*
D03*
Y172507D02*
D03*
Y159806D02*
D03*
Y210606D02*
D03*
Y197906D02*
D03*
D24*
X321047Y185207D02*
D03*
D25*
X457108Y236767D02*
D03*
X556850Y121920D02*
D03*
X476518D02*
D03*
X519810Y176237D02*
D03*
X287814Y139320D02*
D03*
X110490Y172530D02*
D03*
X327219Y138240D02*
D03*
Y236920D02*
D03*
X441108Y198120D02*
D03*
X510540Y214550D02*
D03*
X494457Y256540D02*
D03*
Y274320D02*
D03*
X620985Y182753D02*
D03*
X604985Y233807D02*
D03*
X407670Y236767D02*
D03*
X423670D02*
D03*
X407670Y198120D02*
D03*
X423670D02*
D03*
X620985Y233807D02*
D03*
X604985Y199771D02*
D03*
X620985D02*
D03*
X604985Y182753D02*
D03*
X594950Y275590D02*
D03*
X578950D02*
D03*
Y256540D02*
D03*
X594950D02*
D03*
X510457Y274320D02*
D03*
X494540Y238760D02*
D03*
X510540D02*
D03*
X510457Y256540D02*
D03*
X526540Y214550D02*
D03*
X437018Y121920D02*
D03*
X421018D02*
D03*
X526540Y196800D02*
D03*
X510540D02*
D03*
X457108Y198120D02*
D03*
X369926Y236920D02*
D03*
X385926D02*
D03*
X343219D02*
D03*
X369926Y138216D02*
D03*
X385926D02*
D03*
X343219Y138240D02*
D03*
X94490Y191811D02*
D03*
X110490D02*
D03*
X94490Y172530D02*
D03*
X244600Y139320D02*
D03*
X228600D02*
D03*
X271814D02*
D03*
X407670Y216993D02*
D03*
X423670D02*
D03*
X545746Y256540D02*
D03*
Y274320D02*
D03*
X502920Y121920D02*
D03*
X174570Y156020D02*
D03*
X158570D02*
D03*
X503810Y176237D02*
D03*
X604985Y216789D02*
D03*
X620985D02*
D03*
X441108Y236767D02*
D03*
X457016Y256540D02*
D03*
X441016D02*
D03*
Y216993D02*
D03*
X457016D02*
D03*
X540850Y121920D02*
D03*
X460518D02*
D03*
X518920D02*
D03*
X529746Y274320D02*
D03*
Y256540D02*
D03*
D26*
X166570Y198161D02*
D03*
D27*
X138320Y204511D02*
D03*
Y191811D02*
D03*
Y217211D02*
D03*
Y179111D02*
D03*
X194820Y217211D02*
D03*
Y204511D02*
D03*
Y191811D02*
D03*
Y179111D02*
D03*
D28*
X334872Y272811D02*
D03*
X188922Y255080D02*
D03*
X144218D02*
D03*
X379576Y272811D02*
D03*
D29*
X696380Y562046D02*
D03*
Y671766D02*
D03*
Y635538D02*
D03*
Y598038D02*
D03*
X721380Y571546D02*
D03*
Y588538D02*
D03*
Y552546D02*
D03*
Y681266D02*
D03*
Y662266D02*
D03*
Y645038D02*
D03*
Y626038D02*
D03*
Y607538D02*
D03*
D30*
X565950Y650806D02*
D03*
Y362806D02*
D03*
Y506806D02*
D03*
X559450D02*
D03*
X598450Y563194D02*
D03*
X598450Y506806D02*
D03*
X611450Y563194D02*
D03*
X546450D02*
D03*
X578950Y506806D02*
D03*
X578950Y563194D02*
D03*
X591950Y506806D02*
D03*
Y563194D02*
D03*
X604950D02*
D03*
X617950Y506806D02*
D03*
X604950D02*
D03*
X617950Y563194D02*
D03*
X585450D02*
D03*
X559450D02*
D03*
X546450Y506806D02*
D03*
X611450D02*
D03*
X552950Y563194D02*
D03*
X572450Y506806D02*
D03*
X572450Y563194D02*
D03*
X585450Y506806D02*
D03*
X565950Y563194D02*
D03*
X552950Y506806D02*
D03*
Y362806D02*
D03*
Y650806D02*
D03*
X565950Y419194D02*
D03*
Y707194D02*
D03*
X546450Y650806D02*
D03*
Y362806D02*
D03*
X559450Y650806D02*
D03*
X617950Y707194D02*
D03*
Y650806D02*
D03*
X604950D02*
D03*
Y707194D02*
D03*
X617950Y419194D02*
D03*
Y362806D02*
D03*
X604950D02*
D03*
Y419194D02*
D03*
X591950Y707194D02*
D03*
Y650806D02*
D03*
Y419194D02*
D03*
X578950Y707194D02*
D03*
X578950Y650806D02*
D03*
X578950Y419194D02*
D03*
X591950Y362806D02*
D03*
X578950D02*
D03*
X546450Y707194D02*
D03*
Y419194D02*
D03*
X559450D02*
D03*
X559450Y362806D02*
D03*
X572450D02*
D03*
X585450D02*
D03*
X598450D02*
D03*
X611450D02*
D03*
X611450Y419194D02*
D03*
X598450D02*
D03*
X585450D02*
D03*
X572450D02*
D03*
X552950D02*
D03*
X572450Y650806D02*
D03*
X585450D02*
D03*
X598450D02*
D03*
X611450D02*
D03*
X611450Y707194D02*
D03*
X598450D02*
D03*
X585450D02*
D03*
X572450D02*
D03*
X559450D02*
D03*
X552950D02*
D03*
D31*
X279746Y263438D02*
D03*
Y206938D02*
D03*
X292446Y263438D02*
D03*
X254347Y206938D02*
D03*
X267047D02*
D03*
X292446D02*
D03*
X254347Y263438D02*
D03*
X267047D02*
D03*
D32*
X252732Y291099D02*
D03*
X269582D02*
D03*
X520696Y297180D02*
D03*
X543560D02*
D03*
X292446Y291099D02*
D03*
X291179Y177100D02*
D03*
X268314D02*
D03*
X229868Y291099D02*
D03*
D33*
X94490Y140140D02*
D03*
Y100140D02*
D03*
D34*
X234188Y55436D02*
D03*
X381254Y54166D02*
D03*
Y98870D02*
D03*
X234188Y100140D02*
D03*
D35*
X478018Y162000D02*
D03*
Y168500D02*
D03*
X421018Y149000D02*
D03*
X478018Y142500D02*
D03*
Y181500D02*
D03*
X421018Y155500D02*
D03*
Y168500D02*
D03*
Y175000D02*
D03*
Y181500D02*
D03*
Y162000D02*
D03*
X478018Y175000D02*
D03*
Y155500D02*
D03*
Y149000D02*
D03*
X421018Y142500D02*
D03*
X478018Y136000D02*
D03*
X421018D02*
D03*
D36*
X484518Y196800D02*
D03*
X475018Y222300D02*
D03*
Y196800D02*
D03*
X494018D02*
D03*
Y222300D02*
D03*
D37*
X750955Y554252D02*
D03*
Y641752D02*
D03*
Y629252D02*
D03*
Y616752D02*
D03*
Y591752D02*
D03*
Y579252D02*
D03*
Y604252D02*
D03*
Y566752D02*
D03*
Y541752D02*
D03*
D38*
X779955Y516252D02*
D03*
Y667252D02*
D03*
D39*
X526320Y565240D02*
D03*
X526321Y549240D02*
D03*
D40*
X194070Y100140D02*
D03*
X139070D02*
D03*
D41*
X703221Y701039D02*
D03*
Y723899D02*
D03*
X721380Y723900D02*
D03*
Y701040D02*
D03*
M02*
